%TF.GenerationSoftware,KiCad,Pcbnew,(5.1.12)-1*%
%TF.CreationDate,2021-12-26T15:19:19-08:00*%
%TF.ProjectId,PhobGCC,50686f62-4743-4432-9e6b-696361645f70,rev?*%
%TF.SameCoordinates,Original*%
%TF.FileFunction,Soldermask,Top*%
%TF.FilePolarity,Negative*%
%FSLAX46Y46*%
G04 Gerber Fmt 4.6, Leading zero omitted, Abs format (unit mm)*
G04 Created by KiCad (PCBNEW (5.1.12)-1) date 2021-12-26 15:19:19*
%MOMM*%
%LPD*%
G01*
G04 APERTURE LIST*
%ADD10C,0.010000*%
%ADD11C,0.100000*%
%ADD12O,1.400000X1.400000*%
%ADD13R,1.400000X1.400000*%
%ADD14C,2.000000*%
%ADD15C,1.498000*%
%ADD16O,1.600000X2.500000*%
%ADD17C,1.400000*%
%ADD18R,0.700000X0.600000*%
%ADD19C,1.600000*%
%ADD20R,1.600000X1.600000*%
%ADD21C,2.200000*%
%ADD22C,2.400000*%
%ADD23C,1.800000*%
%ADD24O,2.800000X2.200000*%
%ADD25C,5.200000*%
%ADD26O,1.550000X1.000000*%
%ADD27O,0.950000X1.250000*%
%ADD28R,1.700000X1.700000*%
%ADD29R,1.200000X0.750000*%
%ADD30R,0.750000X1.200000*%
%ADD31O,1.700000X1.700000*%
%ADD32R,1.350000X1.350000*%
%ADD33O,1.350000X1.350000*%
G04 APERTURE END LIST*
D10*
G36*
X115356000Y-81481167D02*
G01*
X112607861Y-81481167D01*
X112270182Y-81481060D01*
X111944207Y-81480749D01*
X111632441Y-81480245D01*
X111337387Y-81479562D01*
X111061550Y-81478713D01*
X110807435Y-81477710D01*
X110577544Y-81476566D01*
X110374382Y-81475295D01*
X110200453Y-81473907D01*
X110058261Y-81472418D01*
X109950310Y-81470838D01*
X109879105Y-81469182D01*
X109847149Y-81467462D01*
X109845611Y-81467056D01*
X109843949Y-81444602D01*
X109842342Y-81382214D01*
X109840802Y-81282290D01*
X109839341Y-81147229D01*
X109837969Y-80979430D01*
X109836697Y-80781290D01*
X109835538Y-80555210D01*
X109834502Y-80303587D01*
X109833600Y-80028820D01*
X109832844Y-79733308D01*
X109832246Y-79419450D01*
X109831815Y-79089644D01*
X109831564Y-78746290D01*
X109831500Y-78461389D01*
X109831500Y-75469834D01*
X115356000Y-75469834D01*
X115356000Y-81481167D01*
G37*
X115356000Y-81481167D02*
X112607861Y-81481167D01*
X112270182Y-81481060D01*
X111944207Y-81480749D01*
X111632441Y-81480245D01*
X111337387Y-81479562D01*
X111061550Y-81478713D01*
X110807435Y-81477710D01*
X110577544Y-81476566D01*
X110374382Y-81475295D01*
X110200453Y-81473907D01*
X110058261Y-81472418D01*
X109950310Y-81470838D01*
X109879105Y-81469182D01*
X109847149Y-81467462D01*
X109845611Y-81467056D01*
X109843949Y-81444602D01*
X109842342Y-81382214D01*
X109840802Y-81282290D01*
X109839341Y-81147229D01*
X109837969Y-80979430D01*
X109836697Y-80781290D01*
X109835538Y-80555210D01*
X109834502Y-80303587D01*
X109833600Y-80028820D01*
X109832844Y-79733308D01*
X109832246Y-79419450D01*
X109831815Y-79089644D01*
X109831564Y-78746290D01*
X109831500Y-78461389D01*
X109831500Y-75469834D01*
X115356000Y-75469834D01*
X115356000Y-81481167D01*
G36*
X150232127Y-60259791D02*
G01*
X150259709Y-60262673D01*
X150663135Y-60327109D01*
X151052337Y-60430011D01*
X151425207Y-60569403D01*
X151779637Y-60743309D01*
X152113518Y-60949751D01*
X152424742Y-61186755D01*
X152711201Y-61452342D01*
X152970787Y-61744537D01*
X153201391Y-62061363D01*
X153400905Y-62400844D01*
X153567221Y-62761002D01*
X153698230Y-63139863D01*
X153791824Y-63535448D01*
X153800050Y-63581672D01*
X153848003Y-63983216D01*
X153854710Y-64384492D01*
X153821163Y-64782423D01*
X153748355Y-65173933D01*
X153637280Y-65555948D01*
X153488930Y-65925391D01*
X153304299Y-66279187D01*
X153084381Y-66614260D01*
X152830167Y-66927535D01*
X152663181Y-67102194D01*
X152545134Y-67216962D01*
X152446857Y-67308504D01*
X152359120Y-67384432D01*
X152272693Y-67452361D01*
X152178345Y-67519903D01*
X152066846Y-67594672D01*
X152063334Y-67596979D01*
X151731762Y-67792640D01*
X151383616Y-67956419D01*
X151025166Y-68086122D01*
X150662680Y-68179555D01*
X150302428Y-68234524D01*
X150221834Y-68241402D01*
X149989320Y-68254260D01*
X149766593Y-68258882D01*
X149563271Y-68255301D01*
X149388970Y-68243549D01*
X149343417Y-68238390D01*
X149262052Y-68225555D01*
X149154586Y-68205078D01*
X149035898Y-68179935D01*
X148936326Y-68156885D01*
X148537422Y-68039218D01*
X148157740Y-67884969D01*
X147799286Y-67695744D01*
X147464066Y-67473146D01*
X147154087Y-67218781D01*
X146871355Y-66934253D01*
X146617875Y-66621167D01*
X146395654Y-66281128D01*
X146250163Y-66008250D01*
X146089942Y-65631646D01*
X145970261Y-65248707D01*
X145890271Y-64862000D01*
X145849126Y-64474091D01*
X145845978Y-64087548D01*
X145879980Y-63704937D01*
X145950284Y-63328826D01*
X146056042Y-62961780D01*
X146196408Y-62606368D01*
X146370534Y-62265155D01*
X146577572Y-61940710D01*
X146816675Y-61635597D01*
X147086996Y-61352386D01*
X147387687Y-61093642D01*
X147717901Y-60861932D01*
X148003494Y-60697368D01*
X148348779Y-60538454D01*
X148713775Y-60412152D01*
X149091545Y-60319798D01*
X149475153Y-60262728D01*
X149857659Y-60242281D01*
X150232127Y-60259791D01*
G37*
X150232127Y-60259791D02*
X150259709Y-60262673D01*
X150663135Y-60327109D01*
X151052337Y-60430011D01*
X151425207Y-60569403D01*
X151779637Y-60743309D01*
X152113518Y-60949751D01*
X152424742Y-61186755D01*
X152711201Y-61452342D01*
X152970787Y-61744537D01*
X153201391Y-62061363D01*
X153400905Y-62400844D01*
X153567221Y-62761002D01*
X153698230Y-63139863D01*
X153791824Y-63535448D01*
X153800050Y-63581672D01*
X153848003Y-63983216D01*
X153854710Y-64384492D01*
X153821163Y-64782423D01*
X153748355Y-65173933D01*
X153637280Y-65555948D01*
X153488930Y-65925391D01*
X153304299Y-66279187D01*
X153084381Y-66614260D01*
X152830167Y-66927535D01*
X152663181Y-67102194D01*
X152545134Y-67216962D01*
X152446857Y-67308504D01*
X152359120Y-67384432D01*
X152272693Y-67452361D01*
X152178345Y-67519903D01*
X152066846Y-67594672D01*
X152063334Y-67596979D01*
X151731762Y-67792640D01*
X151383616Y-67956419D01*
X151025166Y-68086122D01*
X150662680Y-68179555D01*
X150302428Y-68234524D01*
X150221834Y-68241402D01*
X149989320Y-68254260D01*
X149766593Y-68258882D01*
X149563271Y-68255301D01*
X149388970Y-68243549D01*
X149343417Y-68238390D01*
X149262052Y-68225555D01*
X149154586Y-68205078D01*
X149035898Y-68179935D01*
X148936326Y-68156885D01*
X148537422Y-68039218D01*
X148157740Y-67884969D01*
X147799286Y-67695744D01*
X147464066Y-67473146D01*
X147154087Y-67218781D01*
X146871355Y-66934253D01*
X146617875Y-66621167D01*
X146395654Y-66281128D01*
X146250163Y-66008250D01*
X146089942Y-65631646D01*
X145970261Y-65248707D01*
X145890271Y-64862000D01*
X145849126Y-64474091D01*
X145845978Y-64087548D01*
X145879980Y-63704937D01*
X145950284Y-63328826D01*
X146056042Y-62961780D01*
X146196408Y-62606368D01*
X146370534Y-62265155D01*
X146577572Y-61940710D01*
X146816675Y-61635597D01*
X147086996Y-61352386D01*
X147387687Y-61093642D01*
X147717901Y-60861932D01*
X148003494Y-60697368D01*
X148348779Y-60538454D01*
X148713775Y-60412152D01*
X149091545Y-60319798D01*
X149475153Y-60262728D01*
X149857659Y-60242281D01*
X150232127Y-60259791D01*
G36*
X168532127Y-70959791D02*
G01*
X168559709Y-70962673D01*
X168963135Y-71027109D01*
X169352337Y-71130011D01*
X169725207Y-71269403D01*
X170079637Y-71443309D01*
X170413518Y-71649751D01*
X170724742Y-71886755D01*
X171011201Y-72152342D01*
X171270787Y-72444537D01*
X171501391Y-72761363D01*
X171700905Y-73100844D01*
X171867221Y-73461002D01*
X171998230Y-73839863D01*
X172091824Y-74235448D01*
X172100050Y-74281672D01*
X172148003Y-74683216D01*
X172154710Y-75084492D01*
X172121163Y-75482423D01*
X172048355Y-75873933D01*
X171937280Y-76255948D01*
X171788930Y-76625391D01*
X171604299Y-76979187D01*
X171384381Y-77314260D01*
X171130167Y-77627535D01*
X170963181Y-77802194D01*
X170845134Y-77916962D01*
X170746857Y-78008504D01*
X170659120Y-78084432D01*
X170572693Y-78152361D01*
X170478345Y-78219903D01*
X170366846Y-78294672D01*
X170363334Y-78296979D01*
X170031762Y-78492640D01*
X169683616Y-78656419D01*
X169325166Y-78786122D01*
X168962680Y-78879555D01*
X168602428Y-78934524D01*
X168521834Y-78941402D01*
X168289320Y-78954260D01*
X168066593Y-78958882D01*
X167863271Y-78955301D01*
X167688970Y-78943549D01*
X167643417Y-78938390D01*
X167562052Y-78925555D01*
X167454586Y-78905078D01*
X167335898Y-78879935D01*
X167236326Y-78856885D01*
X166837422Y-78739218D01*
X166457740Y-78584969D01*
X166099286Y-78395744D01*
X165764066Y-78173146D01*
X165454087Y-77918781D01*
X165171355Y-77634253D01*
X164917875Y-77321167D01*
X164695654Y-76981128D01*
X164550163Y-76708250D01*
X164389942Y-76331646D01*
X164270261Y-75948707D01*
X164190271Y-75562000D01*
X164149126Y-75174091D01*
X164145978Y-74787548D01*
X164179980Y-74404937D01*
X164250284Y-74028826D01*
X164356042Y-73661780D01*
X164496408Y-73306368D01*
X164670534Y-72965155D01*
X164877572Y-72640710D01*
X165116675Y-72335597D01*
X165386996Y-72052386D01*
X165687687Y-71793642D01*
X166017901Y-71561932D01*
X166303494Y-71397368D01*
X166648779Y-71238454D01*
X167013775Y-71112152D01*
X167391545Y-71019798D01*
X167775153Y-70962728D01*
X168157659Y-70942281D01*
X168532127Y-70959791D01*
G37*
X168532127Y-70959791D02*
X168559709Y-70962673D01*
X168963135Y-71027109D01*
X169352337Y-71130011D01*
X169725207Y-71269403D01*
X170079637Y-71443309D01*
X170413518Y-71649751D01*
X170724742Y-71886755D01*
X171011201Y-72152342D01*
X171270787Y-72444537D01*
X171501391Y-72761363D01*
X171700905Y-73100844D01*
X171867221Y-73461002D01*
X171998230Y-73839863D01*
X172091824Y-74235448D01*
X172100050Y-74281672D01*
X172148003Y-74683216D01*
X172154710Y-75084492D01*
X172121163Y-75482423D01*
X172048355Y-75873933D01*
X171937280Y-76255948D01*
X171788930Y-76625391D01*
X171604299Y-76979187D01*
X171384381Y-77314260D01*
X171130167Y-77627535D01*
X170963181Y-77802194D01*
X170845134Y-77916962D01*
X170746857Y-78008504D01*
X170659120Y-78084432D01*
X170572693Y-78152361D01*
X170478345Y-78219903D01*
X170366846Y-78294672D01*
X170363334Y-78296979D01*
X170031762Y-78492640D01*
X169683616Y-78656419D01*
X169325166Y-78786122D01*
X168962680Y-78879555D01*
X168602428Y-78934524D01*
X168521834Y-78941402D01*
X168289320Y-78954260D01*
X168066593Y-78958882D01*
X167863271Y-78955301D01*
X167688970Y-78943549D01*
X167643417Y-78938390D01*
X167562052Y-78925555D01*
X167454586Y-78905078D01*
X167335898Y-78879935D01*
X167236326Y-78856885D01*
X166837422Y-78739218D01*
X166457740Y-78584969D01*
X166099286Y-78395744D01*
X165764066Y-78173146D01*
X165454087Y-77918781D01*
X165171355Y-77634253D01*
X164917875Y-77321167D01*
X164695654Y-76981128D01*
X164550163Y-76708250D01*
X164389942Y-76331646D01*
X164270261Y-75948707D01*
X164190271Y-75562000D01*
X164149126Y-75174091D01*
X164145978Y-74787548D01*
X164179980Y-74404937D01*
X164250284Y-74028826D01*
X164356042Y-73661780D01*
X164496408Y-73306368D01*
X164670534Y-72965155D01*
X164877572Y-72640710D01*
X165116675Y-72335597D01*
X165386996Y-72052386D01*
X165687687Y-71793642D01*
X166017901Y-71561932D01*
X166303494Y-71397368D01*
X166648779Y-71238454D01*
X167013775Y-71112152D01*
X167391545Y-71019798D01*
X167775153Y-70962728D01*
X168157659Y-70942281D01*
X168532127Y-70959791D01*
G36*
X154232127Y-74359791D02*
G01*
X154259709Y-74362673D01*
X154663135Y-74427109D01*
X155052337Y-74530011D01*
X155425207Y-74669403D01*
X155779637Y-74843309D01*
X156113518Y-75049751D01*
X156424742Y-75286755D01*
X156711201Y-75552342D01*
X156970787Y-75844537D01*
X157201391Y-76161363D01*
X157400905Y-76500844D01*
X157567221Y-76861002D01*
X157698230Y-77239863D01*
X157791824Y-77635448D01*
X157800050Y-77681672D01*
X157848003Y-78083216D01*
X157854710Y-78484492D01*
X157821163Y-78882423D01*
X157748355Y-79273933D01*
X157637280Y-79655948D01*
X157488930Y-80025391D01*
X157304299Y-80379187D01*
X157084381Y-80714260D01*
X156830167Y-81027535D01*
X156663181Y-81202194D01*
X156545134Y-81316962D01*
X156446857Y-81408504D01*
X156359120Y-81484432D01*
X156272693Y-81552361D01*
X156178345Y-81619903D01*
X156066846Y-81694672D01*
X156063334Y-81696979D01*
X155731762Y-81892640D01*
X155383616Y-82056419D01*
X155025166Y-82186122D01*
X154662680Y-82279555D01*
X154302428Y-82334524D01*
X154221834Y-82341402D01*
X153989320Y-82354260D01*
X153766593Y-82358882D01*
X153563271Y-82355301D01*
X153388970Y-82343549D01*
X153343417Y-82338390D01*
X153262052Y-82325555D01*
X153154586Y-82305078D01*
X153035898Y-82279935D01*
X152936326Y-82256885D01*
X152537422Y-82139218D01*
X152157740Y-81984969D01*
X151799286Y-81795744D01*
X151464066Y-81573146D01*
X151154087Y-81318781D01*
X150871355Y-81034253D01*
X150617875Y-80721167D01*
X150395654Y-80381128D01*
X150250163Y-80108250D01*
X150089942Y-79731646D01*
X149970261Y-79348707D01*
X149890271Y-78962000D01*
X149849126Y-78574091D01*
X149845978Y-78187548D01*
X149879980Y-77804937D01*
X149950284Y-77428826D01*
X150056042Y-77061780D01*
X150196408Y-76706368D01*
X150370534Y-76365155D01*
X150577572Y-76040710D01*
X150816675Y-75735597D01*
X151086996Y-75452386D01*
X151387687Y-75193642D01*
X151717901Y-74961932D01*
X152003494Y-74797368D01*
X152348779Y-74638454D01*
X152713775Y-74512152D01*
X153091545Y-74419798D01*
X153475153Y-74362728D01*
X153857659Y-74342281D01*
X154232127Y-74359791D01*
G37*
X154232127Y-74359791D02*
X154259709Y-74362673D01*
X154663135Y-74427109D01*
X155052337Y-74530011D01*
X155425207Y-74669403D01*
X155779637Y-74843309D01*
X156113518Y-75049751D01*
X156424742Y-75286755D01*
X156711201Y-75552342D01*
X156970787Y-75844537D01*
X157201391Y-76161363D01*
X157400905Y-76500844D01*
X157567221Y-76861002D01*
X157698230Y-77239863D01*
X157791824Y-77635448D01*
X157800050Y-77681672D01*
X157848003Y-78083216D01*
X157854710Y-78484492D01*
X157821163Y-78882423D01*
X157748355Y-79273933D01*
X157637280Y-79655948D01*
X157488930Y-80025391D01*
X157304299Y-80379187D01*
X157084381Y-80714260D01*
X156830167Y-81027535D01*
X156663181Y-81202194D01*
X156545134Y-81316962D01*
X156446857Y-81408504D01*
X156359120Y-81484432D01*
X156272693Y-81552361D01*
X156178345Y-81619903D01*
X156066846Y-81694672D01*
X156063334Y-81696979D01*
X155731762Y-81892640D01*
X155383616Y-82056419D01*
X155025166Y-82186122D01*
X154662680Y-82279555D01*
X154302428Y-82334524D01*
X154221834Y-82341402D01*
X153989320Y-82354260D01*
X153766593Y-82358882D01*
X153563271Y-82355301D01*
X153388970Y-82343549D01*
X153343417Y-82338390D01*
X153262052Y-82325555D01*
X153154586Y-82305078D01*
X153035898Y-82279935D01*
X152936326Y-82256885D01*
X152537422Y-82139218D01*
X152157740Y-81984969D01*
X151799286Y-81795744D01*
X151464066Y-81573146D01*
X151154087Y-81318781D01*
X150871355Y-81034253D01*
X150617875Y-80721167D01*
X150395654Y-80381128D01*
X150250163Y-80108250D01*
X150089942Y-79731646D01*
X149970261Y-79348707D01*
X149890271Y-78962000D01*
X149849126Y-78574091D01*
X149845978Y-78187548D01*
X149879980Y-77804937D01*
X149950284Y-77428826D01*
X150056042Y-77061780D01*
X150196408Y-76706368D01*
X150370534Y-76365155D01*
X150577572Y-76040710D01*
X150816675Y-75735597D01*
X151086996Y-75452386D01*
X151387687Y-75193642D01*
X151717901Y-74961932D01*
X152003494Y-74797368D01*
X152348779Y-74638454D01*
X152713775Y-74512152D01*
X153091545Y-74419798D01*
X153475153Y-74362728D01*
X153857659Y-74342281D01*
X154232127Y-74359791D01*
G36*
X139032127Y-82059791D02*
G01*
X139059709Y-82062673D01*
X139463135Y-82127109D01*
X139852337Y-82230011D01*
X140225207Y-82369403D01*
X140579637Y-82543309D01*
X140913518Y-82749751D01*
X141224742Y-82986755D01*
X141511201Y-83252342D01*
X141770787Y-83544537D01*
X142001391Y-83861363D01*
X142200905Y-84200844D01*
X142367221Y-84561002D01*
X142498230Y-84939863D01*
X142591824Y-85335448D01*
X142600050Y-85381672D01*
X142648003Y-85783216D01*
X142654710Y-86184492D01*
X142621163Y-86582423D01*
X142548355Y-86973933D01*
X142437280Y-87355948D01*
X142288930Y-87725391D01*
X142104299Y-88079187D01*
X141884381Y-88414260D01*
X141630167Y-88727535D01*
X141463181Y-88902194D01*
X141345134Y-89016962D01*
X141246857Y-89108504D01*
X141159120Y-89184432D01*
X141072693Y-89252361D01*
X140978345Y-89319903D01*
X140866846Y-89394672D01*
X140863334Y-89396979D01*
X140531762Y-89592640D01*
X140183616Y-89756419D01*
X139825166Y-89886122D01*
X139462680Y-89979555D01*
X139102428Y-90034524D01*
X139021834Y-90041402D01*
X138789320Y-90054260D01*
X138566593Y-90058882D01*
X138363271Y-90055301D01*
X138188970Y-90043549D01*
X138143417Y-90038390D01*
X138062052Y-90025555D01*
X137954586Y-90005078D01*
X137835898Y-89979935D01*
X137736326Y-89956885D01*
X137337422Y-89839218D01*
X136957740Y-89684969D01*
X136599286Y-89495744D01*
X136264066Y-89273146D01*
X135954087Y-89018781D01*
X135671355Y-88734253D01*
X135417875Y-88421167D01*
X135195654Y-88081128D01*
X135050163Y-87808250D01*
X134889942Y-87431646D01*
X134770261Y-87048707D01*
X134690271Y-86662000D01*
X134649126Y-86274091D01*
X134645978Y-85887548D01*
X134679980Y-85504937D01*
X134750284Y-85128826D01*
X134856042Y-84761780D01*
X134996408Y-84406368D01*
X135170534Y-84065155D01*
X135377572Y-83740710D01*
X135616675Y-83435597D01*
X135886996Y-83152386D01*
X136187687Y-82893642D01*
X136517901Y-82661932D01*
X136803494Y-82497368D01*
X137148779Y-82338454D01*
X137513775Y-82212152D01*
X137891545Y-82119798D01*
X138275153Y-82062728D01*
X138657659Y-82042281D01*
X139032127Y-82059791D01*
G37*
X139032127Y-82059791D02*
X139059709Y-82062673D01*
X139463135Y-82127109D01*
X139852337Y-82230011D01*
X140225207Y-82369403D01*
X140579637Y-82543309D01*
X140913518Y-82749751D01*
X141224742Y-82986755D01*
X141511201Y-83252342D01*
X141770787Y-83544537D01*
X142001391Y-83861363D01*
X142200905Y-84200844D01*
X142367221Y-84561002D01*
X142498230Y-84939863D01*
X142591824Y-85335448D01*
X142600050Y-85381672D01*
X142648003Y-85783216D01*
X142654710Y-86184492D01*
X142621163Y-86582423D01*
X142548355Y-86973933D01*
X142437280Y-87355948D01*
X142288930Y-87725391D01*
X142104299Y-88079187D01*
X141884381Y-88414260D01*
X141630167Y-88727535D01*
X141463181Y-88902194D01*
X141345134Y-89016962D01*
X141246857Y-89108504D01*
X141159120Y-89184432D01*
X141072693Y-89252361D01*
X140978345Y-89319903D01*
X140866846Y-89394672D01*
X140863334Y-89396979D01*
X140531762Y-89592640D01*
X140183616Y-89756419D01*
X139825166Y-89886122D01*
X139462680Y-89979555D01*
X139102428Y-90034524D01*
X139021834Y-90041402D01*
X138789320Y-90054260D01*
X138566593Y-90058882D01*
X138363271Y-90055301D01*
X138188970Y-90043549D01*
X138143417Y-90038390D01*
X138062052Y-90025555D01*
X137954586Y-90005078D01*
X137835898Y-89979935D01*
X137736326Y-89956885D01*
X137337422Y-89839218D01*
X136957740Y-89684969D01*
X136599286Y-89495744D01*
X136264066Y-89273146D01*
X135954087Y-89018781D01*
X135671355Y-88734253D01*
X135417875Y-88421167D01*
X135195654Y-88081128D01*
X135050163Y-87808250D01*
X134889942Y-87431646D01*
X134770261Y-87048707D01*
X134690271Y-86662000D01*
X134649126Y-86274091D01*
X134645978Y-85887548D01*
X134679980Y-85504937D01*
X134750284Y-85128826D01*
X134856042Y-84761780D01*
X134996408Y-84406368D01*
X135170534Y-84065155D01*
X135377572Y-83740710D01*
X135616675Y-83435597D01*
X135886996Y-83152386D01*
X136187687Y-82893642D01*
X136517901Y-82661932D01*
X136803494Y-82497368D01*
X137148779Y-82338454D01*
X137513775Y-82212152D01*
X137891545Y-82119798D01*
X138275153Y-82062728D01*
X138657659Y-82042281D01*
X139032127Y-82059791D01*
G36*
X90554422Y-113906820D02*
G01*
X90865949Y-113958021D01*
X91045167Y-114006936D01*
X91337517Y-114120762D01*
X91609270Y-114269569D01*
X91858070Y-114450134D01*
X92081564Y-114659239D01*
X92277396Y-114893661D01*
X92443211Y-115150182D01*
X92576656Y-115425578D01*
X92675376Y-115716631D01*
X92737015Y-116020119D01*
X92759220Y-116332822D01*
X92759248Y-116351490D01*
X92737822Y-116667033D01*
X92676415Y-116975370D01*
X92577016Y-117272500D01*
X92441619Y-117554426D01*
X92272215Y-117817149D01*
X92070796Y-118056670D01*
X91839355Y-118268991D01*
X91781706Y-118313843D01*
X91616869Y-118424550D01*
X91425869Y-118530730D01*
X91224191Y-118624847D01*
X91027322Y-118699371D01*
X90928750Y-118728739D01*
X90840243Y-118750652D01*
X90759591Y-118766450D01*
X90676041Y-118777306D01*
X90578839Y-118784391D01*
X90457233Y-118788876D01*
X90357250Y-118791001D01*
X90229099Y-118792029D01*
X90107529Y-118790760D01*
X90002376Y-118787461D01*
X89923478Y-118782398D01*
X89891584Y-118778405D01*
X89731921Y-118742541D01*
X89556690Y-118691195D01*
X89385209Y-118630598D01*
X89237992Y-118567560D01*
X89055383Y-118471533D01*
X88893301Y-118367332D01*
X88737567Y-118244960D01*
X88592799Y-118112648D01*
X88375358Y-117875163D01*
X88194079Y-117616506D01*
X88048001Y-117335043D01*
X87936166Y-117029142D01*
X87917062Y-116962089D01*
X87897500Y-116887074D01*
X87883140Y-116821161D01*
X87873195Y-116755572D01*
X87866883Y-116681532D01*
X87863417Y-116590262D01*
X87862014Y-116472987D01*
X87861858Y-116344667D01*
X87862400Y-116198502D01*
X87864232Y-116085825D01*
X87868183Y-115997796D01*
X87875080Y-115925571D01*
X87885753Y-115860309D01*
X87901031Y-115793168D01*
X87920383Y-115720250D01*
X88023339Y-115421691D01*
X88162331Y-115139838D01*
X88334258Y-114878306D01*
X88536019Y-114640708D01*
X88764512Y-114430656D01*
X89016636Y-114251763D01*
X89289289Y-114107644D01*
X89313879Y-114096868D01*
X89612509Y-113990682D01*
X89922367Y-113923427D01*
X90238116Y-113895381D01*
X90554422Y-113906820D01*
G37*
X90554422Y-113906820D02*
X90865949Y-113958021D01*
X91045167Y-114006936D01*
X91337517Y-114120762D01*
X91609270Y-114269569D01*
X91858070Y-114450134D01*
X92081564Y-114659239D01*
X92277396Y-114893661D01*
X92443211Y-115150182D01*
X92576656Y-115425578D01*
X92675376Y-115716631D01*
X92737015Y-116020119D01*
X92759220Y-116332822D01*
X92759248Y-116351490D01*
X92737822Y-116667033D01*
X92676415Y-116975370D01*
X92577016Y-117272500D01*
X92441619Y-117554426D01*
X92272215Y-117817149D01*
X92070796Y-118056670D01*
X91839355Y-118268991D01*
X91781706Y-118313843D01*
X91616869Y-118424550D01*
X91425869Y-118530730D01*
X91224191Y-118624847D01*
X91027322Y-118699371D01*
X90928750Y-118728739D01*
X90840243Y-118750652D01*
X90759591Y-118766450D01*
X90676041Y-118777306D01*
X90578839Y-118784391D01*
X90457233Y-118788876D01*
X90357250Y-118791001D01*
X90229099Y-118792029D01*
X90107529Y-118790760D01*
X90002376Y-118787461D01*
X89923478Y-118782398D01*
X89891584Y-118778405D01*
X89731921Y-118742541D01*
X89556690Y-118691195D01*
X89385209Y-118630598D01*
X89237992Y-118567560D01*
X89055383Y-118471533D01*
X88893301Y-118367332D01*
X88737567Y-118244960D01*
X88592799Y-118112648D01*
X88375358Y-117875163D01*
X88194079Y-117616506D01*
X88048001Y-117335043D01*
X87936166Y-117029142D01*
X87917062Y-116962089D01*
X87897500Y-116887074D01*
X87883140Y-116821161D01*
X87873195Y-116755572D01*
X87866883Y-116681532D01*
X87863417Y-116590262D01*
X87862014Y-116472987D01*
X87861858Y-116344667D01*
X87862400Y-116198502D01*
X87864232Y-116085825D01*
X87868183Y-115997796D01*
X87875080Y-115925571D01*
X87885753Y-115860309D01*
X87901031Y-115793168D01*
X87920383Y-115720250D01*
X88023339Y-115421691D01*
X88162331Y-115139838D01*
X88334258Y-114878306D01*
X88536019Y-114640708D01*
X88764512Y-114430656D01*
X89016636Y-114251763D01*
X89289289Y-114107644D01*
X89313879Y-114096868D01*
X89612509Y-113990682D01*
X89922367Y-113923427D01*
X90238116Y-113895381D01*
X90554422Y-113906820D01*
G36*
X98504422Y-105956820D02*
G01*
X98815949Y-106008021D01*
X98995167Y-106056936D01*
X99287517Y-106170762D01*
X99559270Y-106319569D01*
X99808070Y-106500134D01*
X100031564Y-106709239D01*
X100227396Y-106943661D01*
X100393211Y-107200182D01*
X100526656Y-107475578D01*
X100625376Y-107766631D01*
X100687015Y-108070119D01*
X100709220Y-108382822D01*
X100709248Y-108401490D01*
X100687822Y-108717033D01*
X100626415Y-109025370D01*
X100527016Y-109322500D01*
X100391619Y-109604426D01*
X100222215Y-109867149D01*
X100020796Y-110106670D01*
X99789355Y-110318991D01*
X99731706Y-110363843D01*
X99566869Y-110474550D01*
X99375869Y-110580730D01*
X99174191Y-110674847D01*
X98977322Y-110749371D01*
X98878750Y-110778739D01*
X98790243Y-110800652D01*
X98709591Y-110816450D01*
X98626041Y-110827306D01*
X98528839Y-110834391D01*
X98407233Y-110838876D01*
X98307250Y-110841001D01*
X98179099Y-110842029D01*
X98057529Y-110840760D01*
X97952376Y-110837461D01*
X97873478Y-110832398D01*
X97841584Y-110828405D01*
X97681921Y-110792541D01*
X97506690Y-110741195D01*
X97335209Y-110680598D01*
X97187992Y-110617560D01*
X97005383Y-110521533D01*
X96843301Y-110417332D01*
X96687567Y-110294960D01*
X96542799Y-110162648D01*
X96325358Y-109925163D01*
X96144079Y-109666506D01*
X95998001Y-109385043D01*
X95886166Y-109079142D01*
X95867062Y-109012089D01*
X95847500Y-108937074D01*
X95833140Y-108871161D01*
X95823195Y-108805572D01*
X95816883Y-108731532D01*
X95813417Y-108640262D01*
X95812014Y-108522987D01*
X95811858Y-108394667D01*
X95812400Y-108248502D01*
X95814232Y-108135825D01*
X95818183Y-108047796D01*
X95825080Y-107975571D01*
X95835753Y-107910309D01*
X95851031Y-107843168D01*
X95870383Y-107770250D01*
X95973339Y-107471691D01*
X96112331Y-107189838D01*
X96284258Y-106928306D01*
X96486019Y-106690708D01*
X96714512Y-106480656D01*
X96966636Y-106301763D01*
X97239289Y-106157644D01*
X97263879Y-106146868D01*
X97562509Y-106040682D01*
X97872367Y-105973427D01*
X98188116Y-105945381D01*
X98504422Y-105956820D01*
G37*
X98504422Y-105956820D02*
X98815949Y-106008021D01*
X98995167Y-106056936D01*
X99287517Y-106170762D01*
X99559270Y-106319569D01*
X99808070Y-106500134D01*
X100031564Y-106709239D01*
X100227396Y-106943661D01*
X100393211Y-107200182D01*
X100526656Y-107475578D01*
X100625376Y-107766631D01*
X100687015Y-108070119D01*
X100709220Y-108382822D01*
X100709248Y-108401490D01*
X100687822Y-108717033D01*
X100626415Y-109025370D01*
X100527016Y-109322500D01*
X100391619Y-109604426D01*
X100222215Y-109867149D01*
X100020796Y-110106670D01*
X99789355Y-110318991D01*
X99731706Y-110363843D01*
X99566869Y-110474550D01*
X99375869Y-110580730D01*
X99174191Y-110674847D01*
X98977322Y-110749371D01*
X98878750Y-110778739D01*
X98790243Y-110800652D01*
X98709591Y-110816450D01*
X98626041Y-110827306D01*
X98528839Y-110834391D01*
X98407233Y-110838876D01*
X98307250Y-110841001D01*
X98179099Y-110842029D01*
X98057529Y-110840760D01*
X97952376Y-110837461D01*
X97873478Y-110832398D01*
X97841584Y-110828405D01*
X97681921Y-110792541D01*
X97506690Y-110741195D01*
X97335209Y-110680598D01*
X97187992Y-110617560D01*
X97005383Y-110521533D01*
X96843301Y-110417332D01*
X96687567Y-110294960D01*
X96542799Y-110162648D01*
X96325358Y-109925163D01*
X96144079Y-109666506D01*
X95998001Y-109385043D01*
X95886166Y-109079142D01*
X95867062Y-109012089D01*
X95847500Y-108937074D01*
X95833140Y-108871161D01*
X95823195Y-108805572D01*
X95816883Y-108731532D01*
X95813417Y-108640262D01*
X95812014Y-108522987D01*
X95811858Y-108394667D01*
X95812400Y-108248502D01*
X95814232Y-108135825D01*
X95818183Y-108047796D01*
X95825080Y-107975571D01*
X95835753Y-107910309D01*
X95851031Y-107843168D01*
X95870383Y-107770250D01*
X95973339Y-107471691D01*
X96112331Y-107189838D01*
X96284258Y-106928306D01*
X96486019Y-106690708D01*
X96714512Y-106480656D01*
X96966636Y-106301763D01*
X97239289Y-106157644D01*
X97263879Y-106146868D01*
X97562509Y-106040682D01*
X97872367Y-105973427D01*
X98188116Y-105945381D01*
X98504422Y-105956820D01*
G36*
X90554422Y-98006820D02*
G01*
X90865949Y-98058021D01*
X91045167Y-98106936D01*
X91337517Y-98220762D01*
X91609270Y-98369569D01*
X91858070Y-98550134D01*
X92081564Y-98759239D01*
X92277396Y-98993661D01*
X92443211Y-99250182D01*
X92576656Y-99525578D01*
X92675376Y-99816631D01*
X92737015Y-100120119D01*
X92759220Y-100432822D01*
X92759248Y-100451490D01*
X92737822Y-100767033D01*
X92676415Y-101075370D01*
X92577016Y-101372500D01*
X92441619Y-101654426D01*
X92272215Y-101917149D01*
X92070796Y-102156670D01*
X91839355Y-102368991D01*
X91781706Y-102413843D01*
X91616869Y-102524550D01*
X91425869Y-102630730D01*
X91224191Y-102724847D01*
X91027322Y-102799371D01*
X90928750Y-102828739D01*
X90840243Y-102850652D01*
X90759591Y-102866450D01*
X90676041Y-102877306D01*
X90578839Y-102884391D01*
X90457233Y-102888876D01*
X90357250Y-102891001D01*
X90229099Y-102892029D01*
X90107529Y-102890760D01*
X90002376Y-102887461D01*
X89923478Y-102882398D01*
X89891584Y-102878405D01*
X89731921Y-102842541D01*
X89556690Y-102791195D01*
X89385209Y-102730598D01*
X89237992Y-102667560D01*
X89055383Y-102571533D01*
X88893301Y-102467332D01*
X88737567Y-102344960D01*
X88592799Y-102212648D01*
X88375358Y-101975163D01*
X88194079Y-101716506D01*
X88048001Y-101435043D01*
X87936166Y-101129142D01*
X87917062Y-101062089D01*
X87897500Y-100987074D01*
X87883140Y-100921161D01*
X87873195Y-100855572D01*
X87866883Y-100781532D01*
X87863417Y-100690262D01*
X87862014Y-100572987D01*
X87861858Y-100444667D01*
X87862400Y-100298502D01*
X87864232Y-100185825D01*
X87868183Y-100097796D01*
X87875080Y-100025571D01*
X87885753Y-99960309D01*
X87901031Y-99893168D01*
X87920383Y-99820250D01*
X88023339Y-99521691D01*
X88162331Y-99239838D01*
X88334258Y-98978306D01*
X88536019Y-98740708D01*
X88764512Y-98530656D01*
X89016636Y-98351763D01*
X89289289Y-98207644D01*
X89313879Y-98196868D01*
X89612509Y-98090682D01*
X89922367Y-98023427D01*
X90238116Y-97995381D01*
X90554422Y-98006820D01*
G37*
X90554422Y-98006820D02*
X90865949Y-98058021D01*
X91045167Y-98106936D01*
X91337517Y-98220762D01*
X91609270Y-98369569D01*
X91858070Y-98550134D01*
X92081564Y-98759239D01*
X92277396Y-98993661D01*
X92443211Y-99250182D01*
X92576656Y-99525578D01*
X92675376Y-99816631D01*
X92737015Y-100120119D01*
X92759220Y-100432822D01*
X92759248Y-100451490D01*
X92737822Y-100767033D01*
X92676415Y-101075370D01*
X92577016Y-101372500D01*
X92441619Y-101654426D01*
X92272215Y-101917149D01*
X92070796Y-102156670D01*
X91839355Y-102368991D01*
X91781706Y-102413843D01*
X91616869Y-102524550D01*
X91425869Y-102630730D01*
X91224191Y-102724847D01*
X91027322Y-102799371D01*
X90928750Y-102828739D01*
X90840243Y-102850652D01*
X90759591Y-102866450D01*
X90676041Y-102877306D01*
X90578839Y-102884391D01*
X90457233Y-102888876D01*
X90357250Y-102891001D01*
X90229099Y-102892029D01*
X90107529Y-102890760D01*
X90002376Y-102887461D01*
X89923478Y-102882398D01*
X89891584Y-102878405D01*
X89731921Y-102842541D01*
X89556690Y-102791195D01*
X89385209Y-102730598D01*
X89237992Y-102667560D01*
X89055383Y-102571533D01*
X88893301Y-102467332D01*
X88737567Y-102344960D01*
X88592799Y-102212648D01*
X88375358Y-101975163D01*
X88194079Y-101716506D01*
X88048001Y-101435043D01*
X87936166Y-101129142D01*
X87917062Y-101062089D01*
X87897500Y-100987074D01*
X87883140Y-100921161D01*
X87873195Y-100855572D01*
X87866883Y-100781532D01*
X87863417Y-100690262D01*
X87862014Y-100572987D01*
X87861858Y-100444667D01*
X87862400Y-100298502D01*
X87864232Y-100185825D01*
X87868183Y-100097796D01*
X87875080Y-100025571D01*
X87885753Y-99960309D01*
X87901031Y-99893168D01*
X87920383Y-99820250D01*
X88023339Y-99521691D01*
X88162331Y-99239838D01*
X88334258Y-98978306D01*
X88536019Y-98740708D01*
X88764512Y-98530656D01*
X89016636Y-98351763D01*
X89289289Y-98207644D01*
X89313879Y-98196868D01*
X89612509Y-98090682D01*
X89922367Y-98023427D01*
X90238116Y-97995381D01*
X90554422Y-98006820D01*
G36*
X82604422Y-105956820D02*
G01*
X82915949Y-106008021D01*
X83095167Y-106056936D01*
X83387517Y-106170762D01*
X83659270Y-106319569D01*
X83908070Y-106500134D01*
X84131564Y-106709239D01*
X84327396Y-106943661D01*
X84493211Y-107200182D01*
X84626656Y-107475578D01*
X84725376Y-107766631D01*
X84787015Y-108070119D01*
X84809220Y-108382822D01*
X84809248Y-108401490D01*
X84787822Y-108717033D01*
X84726415Y-109025370D01*
X84627016Y-109322500D01*
X84491619Y-109604426D01*
X84322215Y-109867149D01*
X84120796Y-110106670D01*
X83889355Y-110318991D01*
X83831706Y-110363843D01*
X83666869Y-110474550D01*
X83475869Y-110580730D01*
X83274191Y-110674847D01*
X83077322Y-110749371D01*
X82978750Y-110778739D01*
X82890243Y-110800652D01*
X82809591Y-110816450D01*
X82726041Y-110827306D01*
X82628839Y-110834391D01*
X82507233Y-110838876D01*
X82407250Y-110841001D01*
X82279099Y-110842029D01*
X82157529Y-110840760D01*
X82052376Y-110837461D01*
X81973478Y-110832398D01*
X81941584Y-110828405D01*
X81781921Y-110792541D01*
X81606690Y-110741195D01*
X81435209Y-110680598D01*
X81287992Y-110617560D01*
X81105383Y-110521533D01*
X80943301Y-110417332D01*
X80787567Y-110294960D01*
X80642799Y-110162648D01*
X80425358Y-109925163D01*
X80244079Y-109666506D01*
X80098001Y-109385043D01*
X79986166Y-109079142D01*
X79967062Y-109012089D01*
X79947500Y-108937074D01*
X79933140Y-108871161D01*
X79923195Y-108805572D01*
X79916883Y-108731532D01*
X79913417Y-108640262D01*
X79912014Y-108522987D01*
X79911858Y-108394667D01*
X79912400Y-108248502D01*
X79914232Y-108135825D01*
X79918183Y-108047796D01*
X79925080Y-107975571D01*
X79935753Y-107910309D01*
X79951031Y-107843168D01*
X79970383Y-107770250D01*
X80073339Y-107471691D01*
X80212331Y-107189838D01*
X80384258Y-106928306D01*
X80586019Y-106690708D01*
X80814512Y-106480656D01*
X81066636Y-106301763D01*
X81339289Y-106157644D01*
X81363879Y-106146868D01*
X81662509Y-106040682D01*
X81972367Y-105973427D01*
X82288116Y-105945381D01*
X82604422Y-105956820D01*
G37*
X82604422Y-105956820D02*
X82915949Y-106008021D01*
X83095167Y-106056936D01*
X83387517Y-106170762D01*
X83659270Y-106319569D01*
X83908070Y-106500134D01*
X84131564Y-106709239D01*
X84327396Y-106943661D01*
X84493211Y-107200182D01*
X84626656Y-107475578D01*
X84725376Y-107766631D01*
X84787015Y-108070119D01*
X84809220Y-108382822D01*
X84809248Y-108401490D01*
X84787822Y-108717033D01*
X84726415Y-109025370D01*
X84627016Y-109322500D01*
X84491619Y-109604426D01*
X84322215Y-109867149D01*
X84120796Y-110106670D01*
X83889355Y-110318991D01*
X83831706Y-110363843D01*
X83666869Y-110474550D01*
X83475869Y-110580730D01*
X83274191Y-110674847D01*
X83077322Y-110749371D01*
X82978750Y-110778739D01*
X82890243Y-110800652D01*
X82809591Y-110816450D01*
X82726041Y-110827306D01*
X82628839Y-110834391D01*
X82507233Y-110838876D01*
X82407250Y-110841001D01*
X82279099Y-110842029D01*
X82157529Y-110840760D01*
X82052376Y-110837461D01*
X81973478Y-110832398D01*
X81941584Y-110828405D01*
X81781921Y-110792541D01*
X81606690Y-110741195D01*
X81435209Y-110680598D01*
X81287992Y-110617560D01*
X81105383Y-110521533D01*
X80943301Y-110417332D01*
X80787567Y-110294960D01*
X80642799Y-110162648D01*
X80425358Y-109925163D01*
X80244079Y-109666506D01*
X80098001Y-109385043D01*
X79986166Y-109079142D01*
X79967062Y-109012089D01*
X79947500Y-108937074D01*
X79933140Y-108871161D01*
X79923195Y-108805572D01*
X79916883Y-108731532D01*
X79913417Y-108640262D01*
X79912014Y-108522987D01*
X79911858Y-108394667D01*
X79912400Y-108248502D01*
X79914232Y-108135825D01*
X79918183Y-108047796D01*
X79925080Y-107975571D01*
X79935753Y-107910309D01*
X79951031Y-107843168D01*
X79970383Y-107770250D01*
X80073339Y-107471691D01*
X80212331Y-107189838D01*
X80384258Y-106928306D01*
X80586019Y-106690708D01*
X80814512Y-106480656D01*
X81066636Y-106301763D01*
X81339289Y-106157644D01*
X81363879Y-106146868D01*
X81662509Y-106040682D01*
X81972367Y-105973427D01*
X82288116Y-105945381D01*
X82604422Y-105956820D01*
D11*
G36*
X114425543Y-76479716D02*
G01*
X114426487Y-76479982D01*
X114427360Y-76480426D01*
X114428130Y-76481033D01*
X114428767Y-76481778D01*
X114429247Y-76482633D01*
X114429550Y-76483565D01*
X114429667Y-76484639D01*
X114429667Y-81523500D01*
X114429571Y-81524475D01*
X114429286Y-81525413D01*
X114428824Y-81526278D01*
X114428203Y-81527036D01*
X114427445Y-81527657D01*
X114426580Y-81528119D01*
X114425642Y-81528404D01*
X114424667Y-81528500D01*
X113697721Y-81528500D01*
X113514570Y-81528908D01*
X113334659Y-81530063D01*
X113164980Y-81531866D01*
X113164980Y-81531865D01*
X113012623Y-81534216D01*
X112884489Y-81537013D01*
X112787775Y-81540153D01*
X112749088Y-81542073D01*
X112530743Y-81555432D01*
X112508394Y-81638993D01*
X112508168Y-81639652D01*
X112458855Y-81755995D01*
X112458241Y-81757057D01*
X112449156Y-81769089D01*
X112428864Y-81807051D01*
X112401604Y-81847850D01*
X112370476Y-81885779D01*
X112335779Y-81920476D01*
X112297850Y-81951604D01*
X112257051Y-81978864D01*
X112213778Y-82001995D01*
X112168445Y-82020772D01*
X112121490Y-82035016D01*
X112073365Y-82044588D01*
X112024534Y-82049398D01*
X111975466Y-82049398D01*
X111926635Y-82044588D01*
X111878510Y-82035016D01*
X111831555Y-82020772D01*
X111786222Y-82001995D01*
X111742949Y-81978864D01*
X111702150Y-81951604D01*
X111664221Y-81920476D01*
X111629524Y-81885779D01*
X111598396Y-81847850D01*
X111571136Y-81807051D01*
X111548005Y-81763778D01*
X111529228Y-81718445D01*
X111514984Y-81671490D01*
X111505412Y-81623365D01*
X111500602Y-81574534D01*
X111500602Y-81528500D01*
X109746834Y-81528500D01*
X109745859Y-81528404D01*
X109744921Y-81528119D01*
X109744056Y-81527657D01*
X109743298Y-81527036D01*
X109742677Y-81526278D01*
X109742215Y-81525413D01*
X109741930Y-81524475D01*
X109741834Y-81523500D01*
X109741834Y-76485834D01*
X109741930Y-76484859D01*
X109742215Y-76483921D01*
X109742677Y-76483056D01*
X109743298Y-76482298D01*
X109744056Y-76481677D01*
X109744921Y-76481215D01*
X109745859Y-76480930D01*
X109746834Y-76480834D01*
X110318334Y-76480834D01*
X110319309Y-76480930D01*
X110320247Y-76481215D01*
X110321112Y-76481677D01*
X110321870Y-76482298D01*
X110322491Y-76483056D01*
X110322953Y-76483921D01*
X110323238Y-76484859D01*
X110323334Y-76485834D01*
X110323334Y-80968167D01*
X111795000Y-80968167D01*
X111795000Y-76485834D01*
X111795096Y-76484859D01*
X111795381Y-76483921D01*
X111795843Y-76483056D01*
X111796464Y-76482298D01*
X111797222Y-76481677D01*
X111798087Y-76481215D01*
X111799025Y-76480930D01*
X111800000Y-76480834D01*
X112371500Y-76480834D01*
X112372475Y-76480930D01*
X112373413Y-76481215D01*
X112374278Y-76481677D01*
X112375036Y-76482298D01*
X112375657Y-76483056D01*
X112376119Y-76483921D01*
X112376404Y-76484859D01*
X112376500Y-76485834D01*
X112376500Y-80968167D01*
X113826819Y-80968167D01*
X113832195Y-78734780D01*
X113837584Y-76496405D01*
X113837682Y-76495430D01*
X113837969Y-76494492D01*
X113838433Y-76493629D01*
X113839057Y-76492873D01*
X113839816Y-76492253D01*
X113840682Y-76491793D01*
X113841620Y-76491511D01*
X113842483Y-76491418D01*
X114133524Y-76485529D01*
X114424566Y-76479640D01*
X114425543Y-76479716D01*
G37*
G36*
X113273365Y-74855412D02*
G01*
X113321490Y-74864984D01*
X113368445Y-74879228D01*
X113413778Y-74898005D01*
X113457051Y-74921136D01*
X113497850Y-74948396D01*
X113535779Y-74979524D01*
X113570476Y-75014221D01*
X113601604Y-75052150D01*
X113628864Y-75092949D01*
X113651995Y-75136222D01*
X113670772Y-75181555D01*
X113685016Y-75228510D01*
X113694588Y-75276635D01*
X113699398Y-75325466D01*
X113699398Y-75374534D01*
X113696758Y-75401334D01*
X115440667Y-75401334D01*
X115441642Y-75401430D01*
X115442580Y-75401715D01*
X115443445Y-75402177D01*
X115444203Y-75402798D01*
X115444824Y-75403556D01*
X115445286Y-75404421D01*
X115445571Y-75405359D01*
X115445667Y-75406334D01*
X115445667Y-80465167D01*
X115445571Y-80466142D01*
X115445286Y-80467080D01*
X115444824Y-80467945D01*
X115444203Y-80468703D01*
X115443445Y-80469324D01*
X115442580Y-80469786D01*
X115441642Y-80470071D01*
X115440667Y-80470167D01*
X114869167Y-80470167D01*
X114868192Y-80470071D01*
X114867254Y-80469786D01*
X114866389Y-80469324D01*
X114865631Y-80468703D01*
X114865010Y-80467945D01*
X114864548Y-80467080D01*
X114864263Y-80466142D01*
X114864167Y-80465167D01*
X114864167Y-75982834D01*
X113413667Y-75982834D01*
X113413667Y-80465167D01*
X113413571Y-80466142D01*
X113413286Y-80467080D01*
X113412824Y-80467945D01*
X113412203Y-80468703D01*
X113411445Y-80469324D01*
X113410580Y-80469786D01*
X113409642Y-80470071D01*
X113408667Y-80470167D01*
X112816000Y-80470167D01*
X112815025Y-80470071D01*
X112814087Y-80469786D01*
X112813222Y-80469324D01*
X112812464Y-80468703D01*
X112811843Y-80467945D01*
X112811381Y-80467080D01*
X112811096Y-80466142D01*
X112811000Y-80465167D01*
X112811000Y-75982834D01*
X111339334Y-75982834D01*
X111339334Y-80465167D01*
X111339238Y-80466142D01*
X111338953Y-80467080D01*
X111338491Y-80467945D01*
X111337870Y-80468703D01*
X111337112Y-80469324D01*
X111336247Y-80469786D01*
X111335309Y-80470071D01*
X111334334Y-80470167D01*
X110762834Y-80470167D01*
X110761859Y-80470071D01*
X110760921Y-80469786D01*
X110760056Y-80469324D01*
X110759298Y-80468703D01*
X110758677Y-80467945D01*
X110758215Y-80467080D01*
X110757930Y-80466142D01*
X110757834Y-80465167D01*
X110757834Y-75406334D01*
X110757930Y-75405359D01*
X110758215Y-75404421D01*
X110758677Y-75403556D01*
X110759298Y-75402798D01*
X110760056Y-75402177D01*
X110760921Y-75401715D01*
X110761859Y-75401430D01*
X110762834Y-75401334D01*
X112659669Y-75401334D01*
X112683690Y-75301201D01*
X112683916Y-75300493D01*
X112720895Y-75209026D01*
X112729228Y-75181555D01*
X112748005Y-75136222D01*
X112771136Y-75092949D01*
X112798396Y-75052150D01*
X112829524Y-75014221D01*
X112864221Y-74979524D01*
X112902150Y-74948396D01*
X112942949Y-74921136D01*
X112986222Y-74898005D01*
X113031555Y-74879228D01*
X113078510Y-74864984D01*
X113126635Y-74855412D01*
X113175466Y-74850602D01*
X113224534Y-74850602D01*
X113273365Y-74855412D01*
G37*
D12*
X95600000Y-52900000D03*
X97600000Y-52900000D03*
X99600000Y-52900000D03*
X101600000Y-52900000D03*
X103600000Y-52900000D03*
D13*
X105600000Y-52900000D03*
D14*
X167258846Y-63067949D03*
X160244040Y-59017949D03*
D15*
X160802886Y-61650000D03*
X164700000Y-63900000D03*
D16*
X91950000Y-74900000D03*
X83250000Y-74900000D03*
D17*
X85200000Y-63400000D03*
X87600000Y-63400000D03*
X90000000Y-63400000D03*
G36*
G01*
X91900000Y-77225000D02*
X91900000Y-77775000D01*
G75*
G02*
X91700000Y-77975000I-200000J0D01*
G01*
X91300000Y-77975000D01*
G75*
G02*
X91100000Y-77775000I0J200000D01*
G01*
X91100000Y-77225000D01*
G75*
G02*
X91300000Y-77025000I200000J0D01*
G01*
X91700000Y-77025000D01*
G75*
G02*
X91900000Y-77225000I0J-200000D01*
G01*
G37*
G36*
G01*
X93550000Y-77225000D02*
X93550000Y-77775000D01*
G75*
G02*
X93350000Y-77975000I-200000J0D01*
G01*
X92950000Y-77975000D01*
G75*
G02*
X92750000Y-77775000I0J200000D01*
G01*
X92750000Y-77225000D01*
G75*
G02*
X92950000Y-77025000I200000J0D01*
G01*
X93350000Y-77025000D01*
G75*
G02*
X93550000Y-77225000I0J-200000D01*
G01*
G37*
G36*
G01*
X85900000Y-69225000D02*
X85900000Y-69775000D01*
G75*
G02*
X85700000Y-69975000I-200000J0D01*
G01*
X85300000Y-69975000D01*
G75*
G02*
X85100000Y-69775000I0J200000D01*
G01*
X85100000Y-69225000D01*
G75*
G02*
X85300000Y-69025000I200000J0D01*
G01*
X85700000Y-69025000D01*
G75*
G02*
X85900000Y-69225000I0J-200000D01*
G01*
G37*
G36*
G01*
X87550000Y-69225000D02*
X87550000Y-69775000D01*
G75*
G02*
X87350000Y-69975000I-200000J0D01*
G01*
X86950000Y-69975000D01*
G75*
G02*
X86750000Y-69775000I0J200000D01*
G01*
X86750000Y-69225000D01*
G75*
G02*
X86950000Y-69025000I200000J0D01*
G01*
X87350000Y-69025000D01*
G75*
G02*
X87550000Y-69225000I0J-200000D01*
G01*
G37*
D18*
X108000000Y-53900000D03*
X108000000Y-52500000D03*
D19*
X127850000Y-65670000D03*
X127850000Y-63540000D03*
D20*
X129120000Y-56150000D03*
D19*
X126580000Y-56150000D03*
X124040000Y-56150000D03*
X121500000Y-56150000D03*
X118960000Y-56150000D03*
X116420000Y-56150000D03*
X113880000Y-56150000D03*
X111340000Y-56150000D03*
X108800000Y-56150000D03*
X106260000Y-56150000D03*
X103720000Y-56150000D03*
X101180000Y-56150000D03*
X98640000Y-56150000D03*
X129120000Y-71390000D03*
X126580000Y-71390000D03*
X124040000Y-71390000D03*
X121500000Y-71390000D03*
X118960000Y-71390000D03*
X116420000Y-71390000D03*
X113880000Y-71390000D03*
X111340000Y-71390000D03*
X108800000Y-71390000D03*
X106260000Y-71390000D03*
X103720000Y-71390000D03*
X101180000Y-71390000D03*
X98640000Y-71390000D03*
X96100000Y-56150000D03*
X96100000Y-61230000D03*
X96100000Y-71390000D03*
X96100000Y-63770000D03*
D21*
X82183378Y-89183378D03*
X60616622Y-67616621D03*
D11*
G36*
X153928693Y-62361660D02*
G01*
X154021084Y-62370217D01*
X154022136Y-62370431D01*
X154103090Y-62396140D01*
X154104063Y-62396567D01*
X154179090Y-62439558D01*
X154179750Y-62440010D01*
X154254357Y-62500412D01*
X154254613Y-62500634D01*
X154275154Y-62519710D01*
X154275355Y-62519907D01*
X154335551Y-62582473D01*
X154336021Y-62583040D01*
X154380360Y-62645322D01*
X154380852Y-62646183D01*
X154412519Y-62717068D01*
X154412804Y-62717890D01*
X154434982Y-62806264D01*
X154435085Y-62806796D01*
X154450959Y-62921546D01*
X154450987Y-62921791D01*
X154461229Y-63037791D01*
X154472755Y-63166562D01*
X154487835Y-63303235D01*
X154504385Y-63430243D01*
X154518284Y-63518830D01*
X154518288Y-63518857D01*
X154530835Y-63601815D01*
X154530865Y-63602056D01*
X154540372Y-63695270D01*
X154540389Y-63695469D01*
X154547181Y-63805609D01*
X154547187Y-63805753D01*
X154551588Y-63939493D01*
X154551590Y-63939586D01*
X154553927Y-64103597D01*
X154553928Y-64103649D01*
X154554530Y-64261981D01*
X154554530Y-64262009D01*
X154554205Y-64437095D01*
X154554205Y-64437139D01*
X154552711Y-64577540D01*
X154552709Y-64577625D01*
X154549589Y-64690983D01*
X154549583Y-64691121D01*
X154544385Y-64785079D01*
X154544371Y-64785271D01*
X154536640Y-64867470D01*
X154536616Y-64867682D01*
X154525898Y-64945765D01*
X154525870Y-64945940D01*
X154511710Y-65027550D01*
X154511697Y-65027623D01*
X154507744Y-65048543D01*
X154507698Y-65048763D01*
X154401013Y-65501186D01*
X154400893Y-65501607D01*
X154258156Y-65933412D01*
X154257996Y-65933834D01*
X154080044Y-66343784D01*
X154079840Y-66344199D01*
X153867508Y-66731059D01*
X153867263Y-66731459D01*
X153621388Y-67093993D01*
X153621104Y-67094373D01*
X153342521Y-67431346D01*
X153342201Y-67431697D01*
X153031746Y-67741872D01*
X153031397Y-67742190D01*
X152689906Y-68024332D01*
X152689538Y-68024608D01*
X152327847Y-68271312D01*
X152327533Y-68271509D01*
X152074813Y-68417682D01*
X152074533Y-68417833D01*
X151815739Y-68546296D01*
X151815442Y-68546431D01*
X151542981Y-68660145D01*
X151542694Y-68660255D01*
X151248971Y-68762176D01*
X151248718Y-68762256D01*
X150926139Y-68855343D01*
X150925956Y-68855392D01*
X150659132Y-68921512D01*
X150515041Y-68963158D01*
X150389378Y-69019345D01*
X150318497Y-69060572D01*
X150237830Y-69109028D01*
X150237698Y-69109105D01*
X150161435Y-69151806D01*
X150161244Y-69151907D01*
X150103323Y-69181119D01*
X150103051Y-69181246D01*
X150093584Y-69185328D01*
X150092927Y-69185559D01*
X149987515Y-69214485D01*
X149986722Y-69214635D01*
X149862234Y-69227896D01*
X149861529Y-69227921D01*
X149738917Y-69223633D01*
X149738382Y-69223585D01*
X149711676Y-69219756D01*
X149710925Y-69219589D01*
X149567645Y-69175801D01*
X149566648Y-69175373D01*
X149428665Y-69097477D01*
X149427880Y-69096928D01*
X149305735Y-68992824D01*
X149305040Y-68992100D01*
X149209278Y-68869687D01*
X149208846Y-68869036D01*
X149184238Y-68824784D01*
X149183891Y-68824013D01*
X149131447Y-68674890D01*
X149131198Y-68673810D01*
X149111984Y-68508871D01*
X149111959Y-68507984D01*
X149119210Y-68390466D01*
X149119283Y-68389870D01*
X149136919Y-68293979D01*
X149137098Y-68293288D01*
X149164796Y-68210977D01*
X149165128Y-68210210D01*
X149209000Y-68128344D01*
X149209310Y-68127840D01*
X149275465Y-68033283D01*
X149275591Y-68033111D01*
X149300118Y-68001052D01*
X149352458Y-67931572D01*
X149391332Y-67871918D01*
X149418782Y-67814074D01*
X149436919Y-67749817D01*
X149447703Y-67670879D01*
X149453002Y-67569211D01*
X149454717Y-67436769D01*
X149454834Y-67361472D01*
X149454834Y-66990343D01*
X149387618Y-66923359D01*
X149346615Y-66886948D01*
X149305488Y-66864832D01*
X149249582Y-66851391D01*
X149166202Y-66841794D01*
X149166165Y-66841790D01*
X149064276Y-66829282D01*
X149063632Y-66829160D01*
X148986764Y-66809268D01*
X148985469Y-66808729D01*
X148930139Y-66775951D01*
X148929348Y-66775371D01*
X148928645Y-66774593D01*
X148891373Y-66723422D01*
X148890877Y-66722577D01*
X148890629Y-66721925D01*
X148867932Y-66646858D01*
X148867749Y-66645963D01*
X148856145Y-66541494D01*
X148856116Y-66541085D01*
X148852124Y-66401711D01*
X148852122Y-66401590D01*
X148851881Y-66346939D01*
X148851881Y-66346894D01*
X148852428Y-66225461D01*
X148852430Y-66225337D01*
X148855004Y-66137849D01*
X148855022Y-66137547D01*
X148860601Y-66075628D01*
X148860691Y-66075032D01*
X148870251Y-66030309D01*
X148870506Y-66029480D01*
X148885023Y-65993577D01*
X148885276Y-65993044D01*
X148895685Y-65974093D01*
X148896041Y-65973535D01*
X148933007Y-65923342D01*
X148933663Y-65922613D01*
X148934538Y-65921974D01*
X148980267Y-65895643D01*
X148981160Y-65895239D01*
X148981706Y-65895089D01*
X149036594Y-65883224D01*
X149037259Y-65883126D01*
X149079918Y-65879782D01*
X149080111Y-65879771D01*
X149159625Y-65876617D01*
X149159694Y-65876615D01*
X149270588Y-65873752D01*
X149270627Y-65873751D01*
X149407425Y-65871280D01*
X149407452Y-65871279D01*
X149564675Y-65869298D01*
X149564698Y-65869298D01*
X149736870Y-65867909D01*
X149736890Y-65867909D01*
X149905645Y-65867236D01*
X149905655Y-65867236D01*
X150679570Y-65865667D01*
X150680546Y-65865761D01*
X150681484Y-65866044D01*
X150682349Y-65866504D01*
X150683189Y-65867206D01*
X150745357Y-65932037D01*
X150807526Y-65996869D01*
X150808132Y-65997640D01*
X150808575Y-65998514D01*
X150808840Y-65999458D01*
X150808916Y-66000236D01*
X150815554Y-66354926D01*
X150822193Y-66709616D01*
X150822115Y-66710594D01*
X150821848Y-66711537D01*
X150821403Y-66712410D01*
X150820795Y-66713179D01*
X150820042Y-66713820D01*
X150738079Y-66770620D01*
X150737577Y-66770925D01*
X150662966Y-66810574D01*
X150661949Y-66810979D01*
X150567087Y-66837138D01*
X150566522Y-66837259D01*
X150498495Y-66847781D01*
X150411228Y-66861278D01*
X150353188Y-66878368D01*
X150310108Y-66904164D01*
X150282253Y-66929391D01*
X150251531Y-66963658D01*
X150231797Y-66998989D01*
X150219069Y-67047411D01*
X150209893Y-67120777D01*
X150205065Y-67176454D01*
X150198833Y-67311179D01*
X150200588Y-67449322D01*
X150209489Y-67580923D01*
X150224679Y-67695880D01*
X150245263Y-67784100D01*
X150258644Y-67817764D01*
X150296745Y-67881307D01*
X150353504Y-67963096D01*
X150419501Y-68050738D01*
X150485420Y-68132050D01*
X150541937Y-68194852D01*
X150560753Y-68212885D01*
X150651531Y-68279460D01*
X150748976Y-68321698D01*
X150858032Y-68339664D01*
X150983624Y-68333168D01*
X151130474Y-68301916D01*
X151303201Y-68245656D01*
X151461846Y-68183036D01*
X151844001Y-68000864D01*
X152204890Y-67783183D01*
X152542008Y-67532091D01*
X152852693Y-67249784D01*
X153134373Y-66938386D01*
X153384498Y-66599974D01*
X153392640Y-66587679D01*
X153604036Y-66229153D01*
X153778611Y-65851746D01*
X153915388Y-65458994D01*
X154013330Y-65054521D01*
X154071390Y-64642011D01*
X154088538Y-64224956D01*
X154087307Y-64153875D01*
X154083718Y-64032868D01*
X154079281Y-63945511D01*
X154072589Y-63883196D01*
X154062257Y-63837084D01*
X154046851Y-63798162D01*
X154024760Y-63757381D01*
X154021734Y-63752199D01*
X153945181Y-63654229D01*
X153844799Y-63572353D01*
X153732151Y-63513670D01*
X153618836Y-63485339D01*
X153589188Y-63483849D01*
X153546621Y-63488926D01*
X153469589Y-63503334D01*
X153365277Y-63525548D01*
X153240528Y-63554079D01*
X153102196Y-63587433D01*
X153014437Y-63609415D01*
X153014406Y-63609423D01*
X152615024Y-63706746D01*
X152614906Y-63706773D01*
X152243760Y-63787787D01*
X152243613Y-63787817D01*
X151891318Y-63853689D01*
X151891147Y-63853718D01*
X151548319Y-63905615D01*
X151548138Y-63905639D01*
X151205393Y-63944728D01*
X151205215Y-63944745D01*
X150853168Y-63972195D01*
X150853008Y-63972205D01*
X150482274Y-63989182D01*
X150482141Y-63989186D01*
X150083338Y-63996857D01*
X150083261Y-63996858D01*
X149893769Y-63997585D01*
X149893725Y-63997585D01*
X149613787Y-63996190D01*
X149613722Y-63996189D01*
X149366878Y-63991723D01*
X149366785Y-63991721D01*
X149143869Y-63983543D01*
X149143751Y-63983537D01*
X148935593Y-63971002D01*
X148935463Y-63970992D01*
X148732894Y-63953458D01*
X148732766Y-63953446D01*
X148526619Y-63930269D01*
X148526511Y-63930255D01*
X148307616Y-63900794D01*
X148307543Y-63900784D01*
X148125594Y-63873574D01*
X148125538Y-63873565D01*
X147895643Y-63836471D01*
X147895538Y-63836453D01*
X147703849Y-63801341D01*
X147703665Y-63801304D01*
X147546227Y-63766318D01*
X147545925Y-63766241D01*
X147418784Y-63729524D01*
X147418315Y-63729363D01*
X147317517Y-63689060D01*
X147316853Y-63688736D01*
X147238444Y-63642992D01*
X147237652Y-63642418D01*
X147177679Y-63589377D01*
X147176955Y-63588584D01*
X147131462Y-63526391D01*
X147130986Y-63525594D01*
X147096020Y-63452392D01*
X147095793Y-63451830D01*
X147070646Y-63377020D01*
X147070456Y-63376269D01*
X147052923Y-63273661D01*
X147052854Y-63272683D01*
X147052891Y-63272193D01*
X147065278Y-63173983D01*
X147065643Y-63172641D01*
X147110234Y-63068498D01*
X147110581Y-63067831D01*
X147153997Y-62997825D01*
X147154530Y-62997115D01*
X147246570Y-62894865D01*
X147247294Y-62894204D01*
X147247720Y-62893919D01*
X147359587Y-62827012D01*
X147360473Y-62826594D01*
X147361044Y-62826428D01*
X147487807Y-62797590D01*
X147488749Y-62797468D01*
X147517667Y-62796503D01*
X147518155Y-62796510D01*
X147574127Y-62800109D01*
X147574367Y-62800131D01*
X147662489Y-62810085D01*
X147662601Y-62810098D01*
X147773382Y-62825145D01*
X147773462Y-62825157D01*
X147897408Y-62844036D01*
X147897471Y-62844046D01*
X147986231Y-62858736D01*
X148525603Y-62939532D01*
X149047470Y-62993288D01*
X149566164Y-63021076D01*
X150096010Y-63023953D01*
X150189909Y-63021997D01*
X150703842Y-63000277D01*
X151189863Y-62959973D01*
X151658779Y-62899293D01*
X152121291Y-62816448D01*
X152588090Y-62709653D01*
X153069958Y-62577094D01*
X153332645Y-62496560D01*
X153332656Y-62496556D01*
X153525888Y-62437800D01*
X153526068Y-62437749D01*
X153685826Y-62395627D01*
X153686156Y-62395552D01*
X153817949Y-62370194D01*
X153818508Y-62370119D01*
X153927846Y-62361654D01*
X153928693Y-62361660D01*
G37*
G36*
X149884431Y-59273482D02*
G01*
X150052578Y-59304248D01*
X150053716Y-59304600D01*
X150207983Y-59373463D01*
X150209013Y-59374081D01*
X150344570Y-59479440D01*
X150345086Y-59479901D01*
X150365648Y-59501033D01*
X150365902Y-59501315D01*
X150450307Y-59602372D01*
X150450804Y-59603086D01*
X150506833Y-59700577D01*
X150507282Y-59701614D01*
X150539713Y-59808342D01*
X150539901Y-59809270D01*
X150553513Y-59938037D01*
X150553540Y-59938472D01*
X150554798Y-60007409D01*
X150554798Y-60007574D01*
X150553307Y-60107928D01*
X150553290Y-60108272D01*
X150547295Y-60179687D01*
X150547184Y-60180398D01*
X150534250Y-60236219D01*
X150533995Y-60237012D01*
X150511686Y-60290581D01*
X150511524Y-60290931D01*
X150498158Y-60317137D01*
X150497996Y-60317431D01*
X150451616Y-60395012D01*
X150451434Y-60395293D01*
X150392436Y-60480459D01*
X150392271Y-60480684D01*
X150354223Y-60529542D01*
X150298151Y-60605890D01*
X150257283Y-60685205D01*
X150229248Y-60776182D01*
X150211927Y-60887392D01*
X150203277Y-61027236D01*
X150201356Y-61133531D01*
X150202945Y-61281398D01*
X150211246Y-61393555D01*
X150228015Y-61476549D01*
X150254895Y-61537030D01*
X150293756Y-61582129D01*
X150334100Y-61611202D01*
X150415556Y-61643348D01*
X150497633Y-61653926D01*
X150596329Y-61665641D01*
X150597379Y-61665882D01*
X150685601Y-61696499D01*
X150686718Y-61697051D01*
X150753944Y-61741469D01*
X150754705Y-61742087D01*
X150755336Y-61742850D01*
X150791086Y-61795975D01*
X150791551Y-61796837D01*
X150791743Y-61797383D01*
X150792100Y-61798623D01*
X150792245Y-61799304D01*
X150798244Y-61841600D01*
X150798283Y-61841968D01*
X150803319Y-61917100D01*
X150803327Y-61917249D01*
X150806969Y-62015726D01*
X150806971Y-62015830D01*
X150808789Y-62128157D01*
X150808790Y-62128221D01*
X150808917Y-62166483D01*
X150808917Y-62166485D01*
X150809242Y-62278465D01*
X150809241Y-62278558D01*
X150807796Y-62371336D01*
X150807777Y-62371710D01*
X150800931Y-62447096D01*
X150800784Y-62447927D01*
X150784905Y-62507730D01*
X150784561Y-62508648D01*
X150784321Y-62509082D01*
X150755778Y-62555109D01*
X150755183Y-62555887D01*
X150754554Y-62556455D01*
X150709717Y-62590517D01*
X150708882Y-62591031D01*
X150708423Y-62591227D01*
X150643661Y-62615132D01*
X150642797Y-62615365D01*
X150554478Y-62630921D01*
X150554000Y-62630982D01*
X150438493Y-62639998D01*
X150438250Y-62640011D01*
X150291924Y-62644296D01*
X150291816Y-62644298D01*
X150111040Y-62645661D01*
X150111008Y-62645661D01*
X149892153Y-62645911D01*
X149851430Y-62645971D01*
X149621770Y-62646549D01*
X149621746Y-62646549D01*
X149430837Y-62646129D01*
X149430742Y-62646128D01*
X149275012Y-62642817D01*
X149274793Y-62642807D01*
X149150669Y-62634711D01*
X149150234Y-62634664D01*
X149054142Y-62619891D01*
X149053353Y-62619703D01*
X148981722Y-62596360D01*
X148980499Y-62595767D01*
X148929755Y-62561959D01*
X148928996Y-62561338D01*
X148928477Y-62560731D01*
X148895048Y-62514566D01*
X148894554Y-62513719D01*
X148894344Y-62513182D01*
X148874658Y-62452766D01*
X148874450Y-62451834D01*
X148864932Y-62375274D01*
X148864896Y-62374811D01*
X148861976Y-62280213D01*
X148861974Y-62280055D01*
X148862077Y-62165527D01*
X148862077Y-62165521D01*
X148862167Y-62119370D01*
X148862167Y-61803410D01*
X148862263Y-61802435D01*
X148862548Y-61801497D01*
X148863010Y-61800632D01*
X148863631Y-61799874D01*
X148922933Y-61740572D01*
X148923722Y-61739930D01*
X149006485Y-61685525D01*
X149007353Y-61685069D01*
X149007902Y-61684883D01*
X149073306Y-61666833D01*
X149073904Y-61666707D01*
X149157688Y-61654306D01*
X149243675Y-61641579D01*
X149251177Y-61640469D01*
X149346335Y-61607695D01*
X149397234Y-61569117D01*
X149454831Y-61511521D01*
X149454369Y-61136259D01*
X149452748Y-60974299D01*
X149446261Y-60846218D01*
X149431831Y-60743562D01*
X149406407Y-60657638D01*
X149366870Y-60579668D01*
X149309913Y-60500839D01*
X149232263Y-60412541D01*
X149164661Y-60341327D01*
X149064999Y-60252391D01*
X148963346Y-60193978D01*
X148853052Y-60164784D01*
X148727371Y-60163822D01*
X148579715Y-60190343D01*
X148429767Y-60234731D01*
X148062426Y-60379606D01*
X147709002Y-60562564D01*
X147372559Y-60780837D01*
X147056225Y-61031625D01*
X146763098Y-61312144D01*
X146496293Y-61619595D01*
X146258910Y-61951195D01*
X146054028Y-62304196D01*
X145995186Y-62422597D01*
X145839161Y-62791719D01*
X145722208Y-63164945D01*
X145643248Y-63547344D01*
X145601242Y-63943898D01*
X145594642Y-64339194D01*
X145598031Y-64463252D01*
X145602372Y-64553434D01*
X145608896Y-64618114D01*
X145618788Y-64665716D01*
X145633291Y-64704984D01*
X145653820Y-64744731D01*
X145654016Y-64745080D01*
X145739424Y-64856103D01*
X145853024Y-64942082D01*
X145985610Y-64996271D01*
X146001429Y-65000084D01*
X146038830Y-65007830D01*
X146073533Y-65012262D01*
X146111460Y-65012498D01*
X146158637Y-65007587D01*
X146220925Y-64996539D01*
X146304075Y-64978393D01*
X146413921Y-64952190D01*
X146556118Y-64917022D01*
X146639892Y-64896099D01*
X146639925Y-64896091D01*
X146974449Y-64814926D01*
X146974535Y-64814906D01*
X147279662Y-64746536D01*
X147279771Y-64746513D01*
X147565815Y-64689082D01*
X147565940Y-64689058D01*
X147843222Y-64640707D01*
X147843351Y-64640687D01*
X148122186Y-64599559D01*
X148122305Y-64599542D01*
X148413011Y-64563779D01*
X148413091Y-64563770D01*
X148591469Y-64544727D01*
X148591613Y-64544714D01*
X149011028Y-64512186D01*
X149011237Y-64512174D01*
X149455037Y-64496401D01*
X149455220Y-64496398D01*
X149914330Y-64496895D01*
X149914500Y-64496898D01*
X150379843Y-64513179D01*
X150380009Y-64513188D01*
X150842509Y-64544767D01*
X150842680Y-64544781D01*
X151293263Y-64591174D01*
X151293451Y-64591197D01*
X151723040Y-64651918D01*
X151723257Y-64651954D01*
X152122776Y-64726517D01*
X152122917Y-64726545D01*
X152166543Y-64735989D01*
X152167068Y-64736133D01*
X152314152Y-64785220D01*
X152315171Y-64785694D01*
X152438099Y-64860626D01*
X152439066Y-64861393D01*
X152533566Y-64957707D01*
X152534386Y-64958814D01*
X152596184Y-65072044D01*
X152596567Y-65072946D01*
X152596700Y-65073470D01*
X152621521Y-65199153D01*
X152621615Y-65200009D01*
X152621893Y-65212292D01*
X152621850Y-65213070D01*
X152604925Y-65339172D01*
X152604598Y-65340397D01*
X152556011Y-65459423D01*
X152555451Y-65460439D01*
X152481433Y-65564066D01*
X152480618Y-65564956D01*
X152387399Y-65644860D01*
X152386199Y-65645622D01*
X152280009Y-65693477D01*
X152279057Y-65693796D01*
X152257728Y-65698617D01*
X152256955Y-65698729D01*
X152187087Y-65703343D01*
X152186474Y-65703346D01*
X152080533Y-65697312D01*
X152080234Y-65697286D01*
X151936975Y-65680464D01*
X151936804Y-65680441D01*
X151754985Y-65652688D01*
X151754884Y-65652671D01*
X151575715Y-65621580D01*
X151222750Y-65567304D01*
X150838613Y-65525452D01*
X150432604Y-65496232D01*
X150014023Y-65479852D01*
X149592196Y-65476527D01*
X149176441Y-65486465D01*
X148776202Y-65509873D01*
X148400608Y-65546974D01*
X148381009Y-65549396D01*
X148026444Y-65601353D01*
X147647844Y-65670741D01*
X147258204Y-65754671D01*
X146870588Y-65850236D01*
X146498083Y-65954528D01*
X146339221Y-66003419D01*
X146339167Y-66003435D01*
X146136055Y-66063458D01*
X146135785Y-66063530D01*
X145965656Y-66103619D01*
X145965229Y-66103700D01*
X145823942Y-66124270D01*
X145823285Y-66124322D01*
X145706702Y-66125789D01*
X145705756Y-66125710D01*
X145609737Y-66108489D01*
X145608718Y-66108192D01*
X145546329Y-66082532D01*
X145545422Y-66082044D01*
X145409450Y-65989695D01*
X145408500Y-65988856D01*
X145309489Y-65875964D01*
X145308716Y-65874779D01*
X145246119Y-65740424D01*
X145245722Y-65739153D01*
X145218989Y-65582417D01*
X145218919Y-65581691D01*
X145217793Y-65532634D01*
X145214948Y-65448410D01*
X145206464Y-65337029D01*
X145193654Y-65213085D01*
X145178096Y-65092976D01*
X145178096Y-65092971D01*
X145139586Y-64793081D01*
X145139564Y-64792880D01*
X145115949Y-64523303D01*
X145115933Y-64523052D01*
X145106725Y-64274662D01*
X145106723Y-64274377D01*
X145111430Y-64038046D01*
X145111438Y-64037846D01*
X145116738Y-63949808D01*
X145116755Y-63949595D01*
X145156147Y-63567528D01*
X145156198Y-63567164D01*
X145219615Y-63211057D01*
X145219705Y-63210654D01*
X145309930Y-62869846D01*
X145310053Y-62869447D01*
X145429873Y-62533280D01*
X145430009Y-62532939D01*
X145569351Y-62217397D01*
X145569493Y-62217102D01*
X145744483Y-61882177D01*
X145744678Y-61881838D01*
X145935868Y-61576577D01*
X145936107Y-61576229D01*
X146151152Y-61289829D01*
X146151407Y-61289516D01*
X146397961Y-61011177D01*
X146398125Y-61011000D01*
X146492921Y-60913845D01*
X146493077Y-60913692D01*
X146757992Y-60664949D01*
X146758274Y-60664704D01*
X147026599Y-60448059D01*
X147026928Y-60447815D01*
X147309609Y-60255508D01*
X147309943Y-60255299D01*
X147617928Y-60079569D01*
X147618161Y-60079444D01*
X147796005Y-59990081D01*
X147796170Y-59990002D01*
X148001654Y-59895997D01*
X148001871Y-59895904D01*
X148204022Y-59814756D01*
X148204259Y-59814668D01*
X148415063Y-59742190D01*
X148415280Y-59742121D01*
X148646719Y-59674127D01*
X148646872Y-59674084D01*
X148855328Y-59620008D01*
X149012420Y-59579037D01*
X149133470Y-59542461D01*
X149224500Y-59508269D01*
X149291567Y-59474446D01*
X149298466Y-59470207D01*
X149411199Y-59400959D01*
X149411372Y-59400858D01*
X149498827Y-59351823D01*
X149499170Y-59351647D01*
X149570600Y-59318553D01*
X149571129Y-59318344D01*
X149635788Y-59296918D01*
X149636338Y-59296770D01*
X149703480Y-59282737D01*
X149703696Y-59282697D01*
X149705531Y-59282397D01*
X149706086Y-59282337D01*
X149883279Y-59273406D01*
X149884431Y-59273482D01*
G37*
G36*
X172228693Y-73061660D02*
G01*
X172321084Y-73070217D01*
X172322136Y-73070431D01*
X172403090Y-73096140D01*
X172404063Y-73096567D01*
X172479090Y-73139558D01*
X172479750Y-73140010D01*
X172554357Y-73200412D01*
X172554613Y-73200634D01*
X172575154Y-73219710D01*
X172575355Y-73219907D01*
X172635551Y-73282473D01*
X172636021Y-73283040D01*
X172680360Y-73345322D01*
X172680852Y-73346183D01*
X172712519Y-73417068D01*
X172712804Y-73417890D01*
X172734982Y-73506264D01*
X172735085Y-73506796D01*
X172750959Y-73621546D01*
X172750987Y-73621791D01*
X172761229Y-73737791D01*
X172772755Y-73866562D01*
X172787835Y-74003235D01*
X172804385Y-74130243D01*
X172818284Y-74218830D01*
X172818288Y-74218857D01*
X172830835Y-74301815D01*
X172830865Y-74302056D01*
X172840372Y-74395270D01*
X172840389Y-74395469D01*
X172847181Y-74505609D01*
X172847187Y-74505753D01*
X172851588Y-74639493D01*
X172851590Y-74639586D01*
X172853927Y-74803597D01*
X172853928Y-74803649D01*
X172854530Y-74961981D01*
X172854530Y-74962009D01*
X172854205Y-75137095D01*
X172854205Y-75137139D01*
X172852711Y-75277540D01*
X172852709Y-75277625D01*
X172849589Y-75390983D01*
X172849583Y-75391121D01*
X172844385Y-75485079D01*
X172844371Y-75485271D01*
X172836640Y-75567470D01*
X172836616Y-75567682D01*
X172825898Y-75645765D01*
X172825870Y-75645940D01*
X172811710Y-75727550D01*
X172811697Y-75727623D01*
X172807744Y-75748543D01*
X172807698Y-75748763D01*
X172701013Y-76201186D01*
X172700893Y-76201607D01*
X172558156Y-76633412D01*
X172557996Y-76633834D01*
X172380044Y-77043784D01*
X172379840Y-77044199D01*
X172167508Y-77431059D01*
X172167263Y-77431459D01*
X171921388Y-77793993D01*
X171921104Y-77794373D01*
X171642521Y-78131346D01*
X171642201Y-78131697D01*
X171331746Y-78441872D01*
X171331397Y-78442190D01*
X170989906Y-78724332D01*
X170989538Y-78724608D01*
X170627847Y-78971312D01*
X170627533Y-78971509D01*
X170374813Y-79117682D01*
X170374533Y-79117833D01*
X170115739Y-79246296D01*
X170115442Y-79246431D01*
X169842981Y-79360145D01*
X169842694Y-79360255D01*
X169548971Y-79462176D01*
X169548718Y-79462256D01*
X169226139Y-79555343D01*
X169225956Y-79555392D01*
X168959132Y-79621512D01*
X168815041Y-79663158D01*
X168689378Y-79719345D01*
X168618497Y-79760572D01*
X168537830Y-79809028D01*
X168537698Y-79809105D01*
X168461435Y-79851806D01*
X168461244Y-79851907D01*
X168403323Y-79881119D01*
X168403051Y-79881246D01*
X168393584Y-79885328D01*
X168392927Y-79885559D01*
X168287515Y-79914485D01*
X168286722Y-79914635D01*
X168162234Y-79927896D01*
X168161529Y-79927921D01*
X168038917Y-79923633D01*
X168038382Y-79923585D01*
X168011676Y-79919756D01*
X168010925Y-79919589D01*
X167867645Y-79875801D01*
X167866648Y-79875373D01*
X167728665Y-79797477D01*
X167727880Y-79796928D01*
X167605735Y-79692824D01*
X167605040Y-79692100D01*
X167509278Y-79569687D01*
X167508846Y-79569036D01*
X167484238Y-79524784D01*
X167483891Y-79524013D01*
X167431447Y-79374890D01*
X167431198Y-79373810D01*
X167411984Y-79208871D01*
X167411959Y-79207984D01*
X167419210Y-79090466D01*
X167419283Y-79089870D01*
X167436919Y-78993979D01*
X167437098Y-78993288D01*
X167464796Y-78910977D01*
X167465128Y-78910210D01*
X167509000Y-78828344D01*
X167509310Y-78827840D01*
X167575465Y-78733283D01*
X167575591Y-78733111D01*
X167600118Y-78701052D01*
X167652458Y-78631572D01*
X167691332Y-78571918D01*
X167718782Y-78514074D01*
X167736919Y-78449817D01*
X167747703Y-78370879D01*
X167753002Y-78269211D01*
X167754717Y-78136769D01*
X167754834Y-78061472D01*
X167754834Y-77690343D01*
X167687618Y-77623359D01*
X167646615Y-77586948D01*
X167605488Y-77564832D01*
X167549582Y-77551391D01*
X167466202Y-77541794D01*
X167466165Y-77541790D01*
X167364276Y-77529282D01*
X167363632Y-77529160D01*
X167286764Y-77509268D01*
X167285469Y-77508729D01*
X167230139Y-77475951D01*
X167229348Y-77475371D01*
X167228645Y-77474593D01*
X167191373Y-77423422D01*
X167190877Y-77422577D01*
X167190629Y-77421925D01*
X167167932Y-77346858D01*
X167167749Y-77345963D01*
X167156145Y-77241494D01*
X167156116Y-77241085D01*
X167152124Y-77101711D01*
X167152122Y-77101590D01*
X167151881Y-77046939D01*
X167151881Y-77046894D01*
X167152428Y-76925461D01*
X167152430Y-76925337D01*
X167155004Y-76837849D01*
X167155022Y-76837547D01*
X167160601Y-76775628D01*
X167160691Y-76775032D01*
X167170251Y-76730309D01*
X167170506Y-76729480D01*
X167185023Y-76693577D01*
X167185276Y-76693044D01*
X167195685Y-76674093D01*
X167196041Y-76673535D01*
X167233007Y-76623342D01*
X167233663Y-76622613D01*
X167234538Y-76621974D01*
X167280267Y-76595643D01*
X167281160Y-76595239D01*
X167281706Y-76595089D01*
X167336594Y-76583224D01*
X167337259Y-76583126D01*
X167379918Y-76579782D01*
X167380111Y-76579771D01*
X167459625Y-76576617D01*
X167459694Y-76576615D01*
X167570588Y-76573752D01*
X167570627Y-76573751D01*
X167707425Y-76571280D01*
X167707452Y-76571279D01*
X167864675Y-76569298D01*
X167864698Y-76569298D01*
X168036870Y-76567909D01*
X168036890Y-76567909D01*
X168205645Y-76567236D01*
X168205655Y-76567236D01*
X168979570Y-76565667D01*
X168980546Y-76565761D01*
X168981484Y-76566044D01*
X168982349Y-76566504D01*
X168983189Y-76567206D01*
X169045357Y-76632037D01*
X169107526Y-76696869D01*
X169108132Y-76697640D01*
X169108575Y-76698514D01*
X169108840Y-76699458D01*
X169108916Y-76700236D01*
X169115554Y-77054926D01*
X169122193Y-77409616D01*
X169122115Y-77410594D01*
X169121848Y-77411537D01*
X169121403Y-77412410D01*
X169120795Y-77413179D01*
X169120042Y-77413820D01*
X169038079Y-77470620D01*
X169037577Y-77470925D01*
X168962966Y-77510574D01*
X168961949Y-77510979D01*
X168867087Y-77537138D01*
X168866522Y-77537259D01*
X168798495Y-77547781D01*
X168711228Y-77561278D01*
X168653188Y-77578368D01*
X168610108Y-77604164D01*
X168582253Y-77629391D01*
X168551531Y-77663658D01*
X168531797Y-77698989D01*
X168519069Y-77747411D01*
X168509893Y-77820777D01*
X168505065Y-77876454D01*
X168498833Y-78011179D01*
X168500588Y-78149322D01*
X168509489Y-78280923D01*
X168524679Y-78395880D01*
X168545263Y-78484100D01*
X168558644Y-78517764D01*
X168596745Y-78581307D01*
X168653504Y-78663096D01*
X168719501Y-78750738D01*
X168785420Y-78832050D01*
X168841937Y-78894852D01*
X168860753Y-78912885D01*
X168951531Y-78979460D01*
X169048976Y-79021698D01*
X169158032Y-79039664D01*
X169283624Y-79033168D01*
X169430474Y-79001916D01*
X169603201Y-78945656D01*
X169761846Y-78883036D01*
X170144001Y-78700864D01*
X170504890Y-78483183D01*
X170842008Y-78232091D01*
X171152693Y-77949784D01*
X171434373Y-77638386D01*
X171684498Y-77299974D01*
X171692640Y-77287679D01*
X171904036Y-76929153D01*
X172078611Y-76551746D01*
X172215388Y-76158994D01*
X172313330Y-75754521D01*
X172371390Y-75342011D01*
X172388538Y-74924956D01*
X172387307Y-74853875D01*
X172383718Y-74732868D01*
X172379281Y-74645511D01*
X172372589Y-74583196D01*
X172362257Y-74537084D01*
X172346851Y-74498162D01*
X172324760Y-74457381D01*
X172321734Y-74452199D01*
X172245181Y-74354229D01*
X172144799Y-74272353D01*
X172032151Y-74213670D01*
X171918836Y-74185339D01*
X171889188Y-74183849D01*
X171846621Y-74188926D01*
X171769589Y-74203334D01*
X171665277Y-74225548D01*
X171540528Y-74254079D01*
X171402196Y-74287433D01*
X171314437Y-74309415D01*
X171314406Y-74309423D01*
X170915024Y-74406746D01*
X170914906Y-74406773D01*
X170543760Y-74487787D01*
X170543613Y-74487817D01*
X170191318Y-74553689D01*
X170191147Y-74553718D01*
X169848319Y-74605615D01*
X169848138Y-74605639D01*
X169505393Y-74644728D01*
X169505215Y-74644745D01*
X169153168Y-74672195D01*
X169153008Y-74672205D01*
X168782274Y-74689182D01*
X168782141Y-74689186D01*
X168383338Y-74696857D01*
X168383261Y-74696858D01*
X168193769Y-74697585D01*
X168193725Y-74697585D01*
X167913787Y-74696190D01*
X167913722Y-74696189D01*
X167666878Y-74691723D01*
X167666785Y-74691721D01*
X167443869Y-74683543D01*
X167443751Y-74683537D01*
X167235593Y-74671002D01*
X167235463Y-74670992D01*
X167032894Y-74653458D01*
X167032766Y-74653446D01*
X166826619Y-74630269D01*
X166826511Y-74630255D01*
X166607616Y-74600794D01*
X166607543Y-74600784D01*
X166425594Y-74573574D01*
X166425538Y-74573565D01*
X166195643Y-74536471D01*
X166195538Y-74536453D01*
X166003849Y-74501341D01*
X166003665Y-74501304D01*
X165846227Y-74466318D01*
X165845925Y-74466241D01*
X165718784Y-74429524D01*
X165718315Y-74429363D01*
X165617517Y-74389060D01*
X165616853Y-74388736D01*
X165538444Y-74342992D01*
X165537652Y-74342418D01*
X165477679Y-74289377D01*
X165476955Y-74288584D01*
X165431462Y-74226391D01*
X165430986Y-74225594D01*
X165396020Y-74152392D01*
X165395793Y-74151830D01*
X165370646Y-74077020D01*
X165370456Y-74076269D01*
X165352923Y-73973661D01*
X165352854Y-73972683D01*
X165352891Y-73972193D01*
X165365278Y-73873983D01*
X165365643Y-73872641D01*
X165410234Y-73768498D01*
X165410581Y-73767831D01*
X165453997Y-73697825D01*
X165454530Y-73697115D01*
X165546570Y-73594865D01*
X165547294Y-73594204D01*
X165547720Y-73593919D01*
X165659587Y-73527012D01*
X165660473Y-73526594D01*
X165661044Y-73526428D01*
X165787807Y-73497590D01*
X165788749Y-73497468D01*
X165817667Y-73496503D01*
X165818155Y-73496510D01*
X165874127Y-73500109D01*
X165874367Y-73500131D01*
X165962489Y-73510085D01*
X165962601Y-73510098D01*
X166073382Y-73525145D01*
X166073462Y-73525157D01*
X166197408Y-73544036D01*
X166197471Y-73544046D01*
X166286231Y-73558736D01*
X166825603Y-73639532D01*
X167347470Y-73693288D01*
X167866164Y-73721076D01*
X168396010Y-73723953D01*
X168489909Y-73721997D01*
X169003842Y-73700277D01*
X169489863Y-73659973D01*
X169958779Y-73599293D01*
X170421291Y-73516448D01*
X170888090Y-73409653D01*
X171369958Y-73277094D01*
X171632645Y-73196560D01*
X171632656Y-73196556D01*
X171825888Y-73137800D01*
X171826068Y-73137749D01*
X171985826Y-73095627D01*
X171986156Y-73095552D01*
X172117949Y-73070194D01*
X172118508Y-73070119D01*
X172227846Y-73061654D01*
X172228693Y-73061660D01*
G37*
G36*
X168184431Y-69973482D02*
G01*
X168352578Y-70004248D01*
X168353716Y-70004600D01*
X168507983Y-70073463D01*
X168509013Y-70074081D01*
X168644570Y-70179440D01*
X168645086Y-70179901D01*
X168665648Y-70201033D01*
X168665902Y-70201315D01*
X168750307Y-70302372D01*
X168750804Y-70303086D01*
X168806833Y-70400577D01*
X168807282Y-70401614D01*
X168839713Y-70508342D01*
X168839901Y-70509270D01*
X168853513Y-70638037D01*
X168853540Y-70638472D01*
X168854798Y-70707409D01*
X168854798Y-70707574D01*
X168853307Y-70807928D01*
X168853290Y-70808272D01*
X168847295Y-70879687D01*
X168847184Y-70880398D01*
X168834250Y-70936219D01*
X168833995Y-70937012D01*
X168811686Y-70990581D01*
X168811524Y-70990931D01*
X168798158Y-71017137D01*
X168797996Y-71017431D01*
X168751616Y-71095012D01*
X168751434Y-71095293D01*
X168692436Y-71180459D01*
X168692271Y-71180684D01*
X168654223Y-71229542D01*
X168598151Y-71305890D01*
X168557283Y-71385205D01*
X168529248Y-71476182D01*
X168511927Y-71587392D01*
X168503277Y-71727236D01*
X168501356Y-71833531D01*
X168502945Y-71981398D01*
X168511246Y-72093555D01*
X168528015Y-72176549D01*
X168554895Y-72237030D01*
X168593756Y-72282129D01*
X168634100Y-72311202D01*
X168715556Y-72343348D01*
X168797633Y-72353926D01*
X168896329Y-72365641D01*
X168897379Y-72365882D01*
X168985601Y-72396499D01*
X168986718Y-72397051D01*
X169053944Y-72441469D01*
X169054705Y-72442087D01*
X169055336Y-72442850D01*
X169091086Y-72495975D01*
X169091551Y-72496837D01*
X169091743Y-72497383D01*
X169092100Y-72498623D01*
X169092245Y-72499304D01*
X169098244Y-72541600D01*
X169098283Y-72541968D01*
X169103319Y-72617100D01*
X169103327Y-72617249D01*
X169106969Y-72715726D01*
X169106971Y-72715830D01*
X169108789Y-72828157D01*
X169108790Y-72828221D01*
X169108917Y-72866483D01*
X169108917Y-72866485D01*
X169109242Y-72978465D01*
X169109241Y-72978558D01*
X169107796Y-73071336D01*
X169107777Y-73071710D01*
X169100931Y-73147096D01*
X169100784Y-73147927D01*
X169084905Y-73207730D01*
X169084561Y-73208648D01*
X169084321Y-73209082D01*
X169055778Y-73255109D01*
X169055183Y-73255887D01*
X169054554Y-73256455D01*
X169009717Y-73290517D01*
X169008882Y-73291031D01*
X169008423Y-73291227D01*
X168943661Y-73315132D01*
X168942797Y-73315365D01*
X168854478Y-73330921D01*
X168854000Y-73330982D01*
X168738493Y-73339998D01*
X168738250Y-73340011D01*
X168591924Y-73344296D01*
X168591816Y-73344298D01*
X168411040Y-73345661D01*
X168411008Y-73345661D01*
X168192153Y-73345911D01*
X168151430Y-73345971D01*
X167921770Y-73346549D01*
X167921746Y-73346549D01*
X167730837Y-73346129D01*
X167730742Y-73346128D01*
X167575012Y-73342817D01*
X167574793Y-73342807D01*
X167450669Y-73334711D01*
X167450234Y-73334664D01*
X167354142Y-73319891D01*
X167353353Y-73319703D01*
X167281722Y-73296360D01*
X167280499Y-73295767D01*
X167229755Y-73261959D01*
X167228996Y-73261338D01*
X167228477Y-73260731D01*
X167195048Y-73214566D01*
X167194554Y-73213719D01*
X167194344Y-73213182D01*
X167174658Y-73152766D01*
X167174450Y-73151834D01*
X167164932Y-73075274D01*
X167164896Y-73074811D01*
X167161976Y-72980213D01*
X167161974Y-72980055D01*
X167162077Y-72865527D01*
X167162077Y-72865521D01*
X167162167Y-72819370D01*
X167162167Y-72503410D01*
X167162263Y-72502435D01*
X167162548Y-72501497D01*
X167163010Y-72500632D01*
X167163631Y-72499874D01*
X167222933Y-72440572D01*
X167223722Y-72439930D01*
X167306485Y-72385525D01*
X167307353Y-72385069D01*
X167307902Y-72384883D01*
X167373306Y-72366833D01*
X167373904Y-72366707D01*
X167457688Y-72354306D01*
X167543675Y-72341579D01*
X167551177Y-72340469D01*
X167646335Y-72307695D01*
X167697234Y-72269117D01*
X167754831Y-72211521D01*
X167754369Y-71836259D01*
X167752748Y-71674299D01*
X167746261Y-71546218D01*
X167731831Y-71443562D01*
X167706407Y-71357638D01*
X167666870Y-71279668D01*
X167609913Y-71200839D01*
X167532263Y-71112541D01*
X167464661Y-71041327D01*
X167364999Y-70952391D01*
X167263346Y-70893978D01*
X167153052Y-70864784D01*
X167027371Y-70863822D01*
X166879715Y-70890343D01*
X166729767Y-70934731D01*
X166362426Y-71079606D01*
X166009002Y-71262564D01*
X165672559Y-71480837D01*
X165356225Y-71731625D01*
X165063098Y-72012144D01*
X164796293Y-72319595D01*
X164558910Y-72651195D01*
X164354028Y-73004196D01*
X164295186Y-73122597D01*
X164139161Y-73491719D01*
X164022208Y-73864945D01*
X163943248Y-74247344D01*
X163901242Y-74643898D01*
X163894642Y-75039194D01*
X163898031Y-75163252D01*
X163902372Y-75253434D01*
X163908896Y-75318114D01*
X163918788Y-75365716D01*
X163933291Y-75404984D01*
X163953820Y-75444731D01*
X163954016Y-75445080D01*
X164039424Y-75556103D01*
X164153024Y-75642082D01*
X164285610Y-75696271D01*
X164301429Y-75700084D01*
X164338830Y-75707830D01*
X164373533Y-75712262D01*
X164411460Y-75712498D01*
X164458637Y-75707587D01*
X164520925Y-75696539D01*
X164604075Y-75678393D01*
X164713921Y-75652190D01*
X164856118Y-75617022D01*
X164939892Y-75596099D01*
X164939925Y-75596091D01*
X165274449Y-75514926D01*
X165274535Y-75514906D01*
X165579662Y-75446536D01*
X165579771Y-75446513D01*
X165865815Y-75389082D01*
X165865940Y-75389058D01*
X166143222Y-75340707D01*
X166143351Y-75340687D01*
X166422186Y-75299559D01*
X166422305Y-75299542D01*
X166713011Y-75263779D01*
X166713091Y-75263770D01*
X166891469Y-75244727D01*
X166891613Y-75244714D01*
X167311028Y-75212186D01*
X167311237Y-75212174D01*
X167755037Y-75196401D01*
X167755220Y-75196398D01*
X168214330Y-75196895D01*
X168214500Y-75196898D01*
X168679843Y-75213179D01*
X168680009Y-75213188D01*
X169142509Y-75244767D01*
X169142680Y-75244781D01*
X169593263Y-75291174D01*
X169593451Y-75291197D01*
X170023040Y-75351918D01*
X170023257Y-75351954D01*
X170422776Y-75426517D01*
X170422917Y-75426545D01*
X170466543Y-75435989D01*
X170467068Y-75436133D01*
X170614152Y-75485220D01*
X170615171Y-75485694D01*
X170738099Y-75560626D01*
X170739066Y-75561393D01*
X170833566Y-75657707D01*
X170834386Y-75658814D01*
X170896184Y-75772044D01*
X170896567Y-75772946D01*
X170896700Y-75773470D01*
X170921521Y-75899153D01*
X170921615Y-75900009D01*
X170921893Y-75912292D01*
X170921850Y-75913070D01*
X170904925Y-76039172D01*
X170904598Y-76040397D01*
X170856011Y-76159423D01*
X170855451Y-76160439D01*
X170781433Y-76264066D01*
X170780618Y-76264956D01*
X170687399Y-76344860D01*
X170686199Y-76345622D01*
X170580009Y-76393477D01*
X170579057Y-76393796D01*
X170557728Y-76398617D01*
X170556955Y-76398729D01*
X170487087Y-76403343D01*
X170486474Y-76403346D01*
X170380533Y-76397312D01*
X170380234Y-76397286D01*
X170236975Y-76380464D01*
X170236804Y-76380441D01*
X170054985Y-76352688D01*
X170054884Y-76352671D01*
X169875715Y-76321580D01*
X169522750Y-76267304D01*
X169138613Y-76225452D01*
X168732604Y-76196232D01*
X168314023Y-76179852D01*
X167892196Y-76176527D01*
X167476441Y-76186465D01*
X167076202Y-76209873D01*
X166700608Y-76246974D01*
X166681009Y-76249396D01*
X166326444Y-76301353D01*
X165947844Y-76370741D01*
X165558204Y-76454671D01*
X165170588Y-76550236D01*
X164798083Y-76654528D01*
X164639221Y-76703419D01*
X164639167Y-76703435D01*
X164436055Y-76763458D01*
X164435785Y-76763530D01*
X164265656Y-76803619D01*
X164265229Y-76803700D01*
X164123942Y-76824270D01*
X164123285Y-76824322D01*
X164006702Y-76825789D01*
X164005756Y-76825710D01*
X163909737Y-76808489D01*
X163908718Y-76808192D01*
X163846329Y-76782532D01*
X163845422Y-76782044D01*
X163709450Y-76689695D01*
X163708500Y-76688856D01*
X163609489Y-76575964D01*
X163608716Y-76574779D01*
X163546119Y-76440424D01*
X163545722Y-76439153D01*
X163518989Y-76282417D01*
X163518919Y-76281691D01*
X163517793Y-76232634D01*
X163514948Y-76148410D01*
X163506464Y-76037029D01*
X163493654Y-75913085D01*
X163478096Y-75792976D01*
X163478096Y-75792971D01*
X163439586Y-75493081D01*
X163439564Y-75492880D01*
X163415949Y-75223303D01*
X163415933Y-75223052D01*
X163406725Y-74974662D01*
X163406723Y-74974377D01*
X163411430Y-74738046D01*
X163411438Y-74737846D01*
X163416738Y-74649808D01*
X163416755Y-74649595D01*
X163456147Y-74267528D01*
X163456198Y-74267164D01*
X163519615Y-73911057D01*
X163519705Y-73910654D01*
X163609930Y-73569846D01*
X163610053Y-73569447D01*
X163729873Y-73233280D01*
X163730009Y-73232939D01*
X163869351Y-72917397D01*
X163869493Y-72917102D01*
X164044483Y-72582177D01*
X164044678Y-72581838D01*
X164235868Y-72276577D01*
X164236107Y-72276229D01*
X164451152Y-71989829D01*
X164451407Y-71989516D01*
X164697961Y-71711177D01*
X164698125Y-71711000D01*
X164792921Y-71613845D01*
X164793077Y-71613692D01*
X165057992Y-71364949D01*
X165058274Y-71364704D01*
X165326599Y-71148059D01*
X165326928Y-71147815D01*
X165609609Y-70955508D01*
X165609943Y-70955299D01*
X165917928Y-70779569D01*
X165918161Y-70779444D01*
X166096005Y-70690081D01*
X166096170Y-70690002D01*
X166301654Y-70595997D01*
X166301871Y-70595904D01*
X166504022Y-70514756D01*
X166504259Y-70514668D01*
X166715063Y-70442190D01*
X166715280Y-70442121D01*
X166946719Y-70374127D01*
X166946872Y-70374084D01*
X167155328Y-70320008D01*
X167312420Y-70279037D01*
X167433470Y-70242461D01*
X167524500Y-70208269D01*
X167591567Y-70174446D01*
X167598466Y-70170207D01*
X167711199Y-70100959D01*
X167711372Y-70100858D01*
X167798827Y-70051823D01*
X167799170Y-70051647D01*
X167870600Y-70018553D01*
X167871129Y-70018344D01*
X167935788Y-69996918D01*
X167936338Y-69996770D01*
X168003480Y-69982737D01*
X168003696Y-69982697D01*
X168005531Y-69982397D01*
X168006086Y-69982337D01*
X168183279Y-69973406D01*
X168184431Y-69973482D01*
G37*
G36*
X157928693Y-76461660D02*
G01*
X158021084Y-76470217D01*
X158022136Y-76470431D01*
X158103090Y-76496140D01*
X158104063Y-76496567D01*
X158179090Y-76539558D01*
X158179750Y-76540010D01*
X158254357Y-76600412D01*
X158254613Y-76600634D01*
X158275154Y-76619710D01*
X158275355Y-76619907D01*
X158335551Y-76682473D01*
X158336021Y-76683040D01*
X158380360Y-76745322D01*
X158380852Y-76746183D01*
X158412519Y-76817068D01*
X158412804Y-76817890D01*
X158434982Y-76906264D01*
X158435085Y-76906796D01*
X158450959Y-77021546D01*
X158450987Y-77021791D01*
X158461229Y-77137791D01*
X158472755Y-77266562D01*
X158487835Y-77403235D01*
X158504385Y-77530243D01*
X158518284Y-77618830D01*
X158518288Y-77618857D01*
X158530835Y-77701815D01*
X158530865Y-77702056D01*
X158540372Y-77795270D01*
X158540389Y-77795469D01*
X158547181Y-77905609D01*
X158547187Y-77905753D01*
X158551588Y-78039493D01*
X158551590Y-78039586D01*
X158553927Y-78203597D01*
X158553928Y-78203649D01*
X158554530Y-78361981D01*
X158554530Y-78362009D01*
X158554205Y-78537095D01*
X158554205Y-78537139D01*
X158552711Y-78677540D01*
X158552709Y-78677625D01*
X158549589Y-78790983D01*
X158549583Y-78791121D01*
X158544385Y-78885079D01*
X158544371Y-78885271D01*
X158536640Y-78967470D01*
X158536616Y-78967682D01*
X158525898Y-79045765D01*
X158525870Y-79045940D01*
X158511710Y-79127550D01*
X158511697Y-79127623D01*
X158507744Y-79148543D01*
X158507698Y-79148763D01*
X158401013Y-79601186D01*
X158400893Y-79601607D01*
X158258156Y-80033412D01*
X158257996Y-80033834D01*
X158080044Y-80443784D01*
X158079840Y-80444199D01*
X157867508Y-80831059D01*
X157867263Y-80831459D01*
X157621388Y-81193993D01*
X157621104Y-81194373D01*
X157342521Y-81531346D01*
X157342201Y-81531697D01*
X157031746Y-81841872D01*
X157031397Y-81842190D01*
X156689906Y-82124332D01*
X156689538Y-82124608D01*
X156327847Y-82371312D01*
X156327533Y-82371509D01*
X156074813Y-82517682D01*
X156074533Y-82517833D01*
X155815739Y-82646296D01*
X155815442Y-82646431D01*
X155542981Y-82760145D01*
X155542694Y-82760255D01*
X155248971Y-82862176D01*
X155248718Y-82862256D01*
X154926139Y-82955343D01*
X154925956Y-82955392D01*
X154659132Y-83021512D01*
X154515041Y-83063158D01*
X154389378Y-83119345D01*
X154318497Y-83160572D01*
X154237830Y-83209028D01*
X154237698Y-83209105D01*
X154161435Y-83251806D01*
X154161244Y-83251907D01*
X154103323Y-83281119D01*
X154103051Y-83281246D01*
X154093584Y-83285328D01*
X154092927Y-83285559D01*
X153987515Y-83314485D01*
X153986722Y-83314635D01*
X153862234Y-83327896D01*
X153861529Y-83327921D01*
X153738917Y-83323633D01*
X153738382Y-83323585D01*
X153711676Y-83319756D01*
X153710925Y-83319589D01*
X153567645Y-83275801D01*
X153566648Y-83275373D01*
X153428665Y-83197477D01*
X153427880Y-83196928D01*
X153305735Y-83092824D01*
X153305040Y-83092100D01*
X153209278Y-82969687D01*
X153208846Y-82969036D01*
X153184238Y-82924784D01*
X153183891Y-82924013D01*
X153131447Y-82774890D01*
X153131198Y-82773810D01*
X153111984Y-82608871D01*
X153111959Y-82607984D01*
X153119210Y-82490466D01*
X153119283Y-82489870D01*
X153136919Y-82393979D01*
X153137098Y-82393288D01*
X153164796Y-82310977D01*
X153165128Y-82310210D01*
X153209000Y-82228344D01*
X153209310Y-82227840D01*
X153275465Y-82133283D01*
X153275591Y-82133111D01*
X153300118Y-82101052D01*
X153352458Y-82031572D01*
X153391332Y-81971918D01*
X153418782Y-81914074D01*
X153436919Y-81849817D01*
X153447703Y-81770879D01*
X153453002Y-81669211D01*
X153454717Y-81536769D01*
X153454834Y-81461472D01*
X153454834Y-81090343D01*
X153387618Y-81023359D01*
X153346615Y-80986948D01*
X153305488Y-80964832D01*
X153249582Y-80951391D01*
X153166202Y-80941794D01*
X153166165Y-80941790D01*
X153064276Y-80929282D01*
X153063632Y-80929160D01*
X152986764Y-80909268D01*
X152985469Y-80908729D01*
X152930139Y-80875951D01*
X152929348Y-80875371D01*
X152928645Y-80874593D01*
X152891373Y-80823422D01*
X152890877Y-80822577D01*
X152890629Y-80821925D01*
X152867932Y-80746858D01*
X152867749Y-80745963D01*
X152856145Y-80641494D01*
X152856116Y-80641085D01*
X152852124Y-80501711D01*
X152852122Y-80501590D01*
X152851881Y-80446939D01*
X152851881Y-80446894D01*
X152852428Y-80325461D01*
X152852430Y-80325337D01*
X152855004Y-80237849D01*
X152855022Y-80237547D01*
X152860601Y-80175628D01*
X152860691Y-80175032D01*
X152870251Y-80130309D01*
X152870506Y-80129480D01*
X152885023Y-80093577D01*
X152885276Y-80093044D01*
X152895685Y-80074093D01*
X152896041Y-80073535D01*
X152933007Y-80023342D01*
X152933663Y-80022613D01*
X152934538Y-80021974D01*
X152980267Y-79995643D01*
X152981160Y-79995239D01*
X152981706Y-79995089D01*
X153036594Y-79983224D01*
X153037259Y-79983126D01*
X153079918Y-79979782D01*
X153080111Y-79979771D01*
X153159625Y-79976617D01*
X153159694Y-79976615D01*
X153270588Y-79973752D01*
X153270627Y-79973751D01*
X153407425Y-79971280D01*
X153407452Y-79971279D01*
X153564675Y-79969298D01*
X153564698Y-79969298D01*
X153736870Y-79967909D01*
X153736890Y-79967909D01*
X153905645Y-79967236D01*
X153905655Y-79967236D01*
X154679570Y-79965667D01*
X154680546Y-79965761D01*
X154681484Y-79966044D01*
X154682349Y-79966504D01*
X154683189Y-79967206D01*
X154745357Y-80032037D01*
X154807526Y-80096869D01*
X154808132Y-80097640D01*
X154808575Y-80098514D01*
X154808840Y-80099458D01*
X154808916Y-80100236D01*
X154815554Y-80454926D01*
X154822193Y-80809616D01*
X154822115Y-80810594D01*
X154821848Y-80811537D01*
X154821403Y-80812410D01*
X154820795Y-80813179D01*
X154820042Y-80813820D01*
X154738079Y-80870620D01*
X154737577Y-80870925D01*
X154662966Y-80910574D01*
X154661949Y-80910979D01*
X154567087Y-80937138D01*
X154566522Y-80937259D01*
X154498495Y-80947781D01*
X154411228Y-80961278D01*
X154353188Y-80978368D01*
X154310108Y-81004164D01*
X154282253Y-81029391D01*
X154251531Y-81063658D01*
X154231797Y-81098989D01*
X154219069Y-81147411D01*
X154209893Y-81220777D01*
X154205065Y-81276454D01*
X154198833Y-81411179D01*
X154200588Y-81549322D01*
X154209489Y-81680923D01*
X154224679Y-81795880D01*
X154245263Y-81884100D01*
X154258644Y-81917764D01*
X154296745Y-81981307D01*
X154353504Y-82063096D01*
X154419501Y-82150738D01*
X154485420Y-82232050D01*
X154541937Y-82294852D01*
X154560753Y-82312885D01*
X154651531Y-82379460D01*
X154748976Y-82421698D01*
X154858032Y-82439664D01*
X154983624Y-82433168D01*
X155130474Y-82401916D01*
X155303201Y-82345656D01*
X155461846Y-82283036D01*
X155844001Y-82100864D01*
X156204890Y-81883183D01*
X156542008Y-81632091D01*
X156852693Y-81349784D01*
X157134373Y-81038386D01*
X157384498Y-80699974D01*
X157392640Y-80687679D01*
X157604036Y-80329153D01*
X157778611Y-79951746D01*
X157915388Y-79558994D01*
X158013330Y-79154521D01*
X158071390Y-78742011D01*
X158088538Y-78324956D01*
X158087307Y-78253875D01*
X158083718Y-78132868D01*
X158079281Y-78045511D01*
X158072589Y-77983196D01*
X158062257Y-77937084D01*
X158046851Y-77898162D01*
X158024760Y-77857381D01*
X158021734Y-77852199D01*
X157945181Y-77754229D01*
X157844799Y-77672353D01*
X157732151Y-77613670D01*
X157618836Y-77585339D01*
X157589188Y-77583849D01*
X157546621Y-77588926D01*
X157469589Y-77603334D01*
X157365277Y-77625548D01*
X157240528Y-77654079D01*
X157102196Y-77687433D01*
X157014437Y-77709415D01*
X157014406Y-77709423D01*
X156615024Y-77806746D01*
X156614906Y-77806773D01*
X156243760Y-77887787D01*
X156243613Y-77887817D01*
X155891318Y-77953689D01*
X155891147Y-77953718D01*
X155548319Y-78005615D01*
X155548138Y-78005639D01*
X155205393Y-78044728D01*
X155205215Y-78044745D01*
X154853168Y-78072195D01*
X154853008Y-78072205D01*
X154482274Y-78089182D01*
X154482141Y-78089186D01*
X154083338Y-78096857D01*
X154083261Y-78096858D01*
X153893769Y-78097585D01*
X153893725Y-78097585D01*
X153613787Y-78096190D01*
X153613722Y-78096189D01*
X153366878Y-78091723D01*
X153366785Y-78091721D01*
X153143869Y-78083543D01*
X153143751Y-78083537D01*
X152935593Y-78071002D01*
X152935463Y-78070992D01*
X152732894Y-78053458D01*
X152732766Y-78053446D01*
X152526619Y-78030269D01*
X152526511Y-78030255D01*
X152307616Y-78000794D01*
X152307543Y-78000784D01*
X152125594Y-77973574D01*
X152125538Y-77973565D01*
X151895643Y-77936471D01*
X151895538Y-77936453D01*
X151703849Y-77901341D01*
X151703665Y-77901304D01*
X151546227Y-77866318D01*
X151545925Y-77866241D01*
X151418784Y-77829524D01*
X151418315Y-77829363D01*
X151317517Y-77789060D01*
X151316853Y-77788736D01*
X151238444Y-77742992D01*
X151237652Y-77742418D01*
X151177679Y-77689377D01*
X151176955Y-77688584D01*
X151131462Y-77626391D01*
X151130986Y-77625594D01*
X151096020Y-77552392D01*
X151095793Y-77551830D01*
X151070646Y-77477020D01*
X151070456Y-77476269D01*
X151052923Y-77373661D01*
X151052854Y-77372683D01*
X151052891Y-77372193D01*
X151065278Y-77273983D01*
X151065643Y-77272641D01*
X151110234Y-77168498D01*
X151110581Y-77167831D01*
X151153997Y-77097825D01*
X151154530Y-77097115D01*
X151246570Y-76994865D01*
X151247294Y-76994204D01*
X151247720Y-76993919D01*
X151359587Y-76927012D01*
X151360473Y-76926594D01*
X151361044Y-76926428D01*
X151487807Y-76897590D01*
X151488749Y-76897468D01*
X151517667Y-76896503D01*
X151518155Y-76896510D01*
X151574127Y-76900109D01*
X151574367Y-76900131D01*
X151662489Y-76910085D01*
X151662601Y-76910098D01*
X151773382Y-76925145D01*
X151773462Y-76925157D01*
X151897408Y-76944036D01*
X151897471Y-76944046D01*
X151986231Y-76958736D01*
X152525603Y-77039532D01*
X153047470Y-77093288D01*
X153566164Y-77121076D01*
X154096010Y-77123953D01*
X154189909Y-77121997D01*
X154703842Y-77100277D01*
X155189863Y-77059973D01*
X155658779Y-76999293D01*
X156121291Y-76916448D01*
X156588090Y-76809653D01*
X157069958Y-76677094D01*
X157332645Y-76596560D01*
X157332656Y-76596556D01*
X157525888Y-76537800D01*
X157526068Y-76537749D01*
X157685826Y-76495627D01*
X157686156Y-76495552D01*
X157817949Y-76470194D01*
X157818508Y-76470119D01*
X157927846Y-76461654D01*
X157928693Y-76461660D01*
G37*
G36*
X153884431Y-73373482D02*
G01*
X154052578Y-73404248D01*
X154053716Y-73404600D01*
X154207983Y-73473463D01*
X154209013Y-73474081D01*
X154344570Y-73579440D01*
X154345086Y-73579901D01*
X154365648Y-73601033D01*
X154365902Y-73601315D01*
X154450307Y-73702372D01*
X154450804Y-73703086D01*
X154506833Y-73800577D01*
X154507282Y-73801614D01*
X154539713Y-73908342D01*
X154539901Y-73909270D01*
X154553513Y-74038037D01*
X154553540Y-74038472D01*
X154554798Y-74107409D01*
X154554798Y-74107574D01*
X154553307Y-74207928D01*
X154553290Y-74208272D01*
X154547295Y-74279687D01*
X154547184Y-74280398D01*
X154534250Y-74336219D01*
X154533995Y-74337012D01*
X154511686Y-74390581D01*
X154511524Y-74390931D01*
X154498158Y-74417137D01*
X154497996Y-74417431D01*
X154451616Y-74495012D01*
X154451434Y-74495293D01*
X154392436Y-74580459D01*
X154392271Y-74580684D01*
X154354223Y-74629542D01*
X154298151Y-74705890D01*
X154257283Y-74785205D01*
X154229248Y-74876182D01*
X154211927Y-74987392D01*
X154203277Y-75127236D01*
X154201356Y-75233531D01*
X154202945Y-75381398D01*
X154211246Y-75493555D01*
X154228015Y-75576549D01*
X154254895Y-75637030D01*
X154293756Y-75682129D01*
X154334100Y-75711202D01*
X154415556Y-75743348D01*
X154497633Y-75753926D01*
X154596329Y-75765641D01*
X154597379Y-75765882D01*
X154685601Y-75796499D01*
X154686718Y-75797051D01*
X154753944Y-75841469D01*
X154754705Y-75842087D01*
X154755336Y-75842850D01*
X154791086Y-75895975D01*
X154791551Y-75896837D01*
X154791743Y-75897383D01*
X154792100Y-75898623D01*
X154792245Y-75899304D01*
X154798244Y-75941600D01*
X154798283Y-75941968D01*
X154803319Y-76017100D01*
X154803327Y-76017249D01*
X154806969Y-76115726D01*
X154806971Y-76115830D01*
X154808789Y-76228157D01*
X154808790Y-76228221D01*
X154808917Y-76266483D01*
X154808917Y-76266485D01*
X154809242Y-76378465D01*
X154809241Y-76378558D01*
X154807796Y-76471336D01*
X154807777Y-76471710D01*
X154800931Y-76547096D01*
X154800784Y-76547927D01*
X154784905Y-76607730D01*
X154784561Y-76608648D01*
X154784321Y-76609082D01*
X154755778Y-76655109D01*
X154755183Y-76655887D01*
X154754554Y-76656455D01*
X154709717Y-76690517D01*
X154708882Y-76691031D01*
X154708423Y-76691227D01*
X154643661Y-76715132D01*
X154642797Y-76715365D01*
X154554478Y-76730921D01*
X154554000Y-76730982D01*
X154438493Y-76739998D01*
X154438250Y-76740011D01*
X154291924Y-76744296D01*
X154291816Y-76744298D01*
X154111040Y-76745661D01*
X154111008Y-76745661D01*
X153892153Y-76745911D01*
X153851430Y-76745971D01*
X153621770Y-76746549D01*
X153621746Y-76746549D01*
X153430837Y-76746129D01*
X153430742Y-76746128D01*
X153275012Y-76742817D01*
X153274793Y-76742807D01*
X153150669Y-76734711D01*
X153150234Y-76734664D01*
X153054142Y-76719891D01*
X153053353Y-76719703D01*
X152981722Y-76696360D01*
X152980499Y-76695767D01*
X152929755Y-76661959D01*
X152928996Y-76661338D01*
X152928477Y-76660731D01*
X152895048Y-76614566D01*
X152894554Y-76613719D01*
X152894344Y-76613182D01*
X152874658Y-76552766D01*
X152874450Y-76551834D01*
X152864932Y-76475274D01*
X152864896Y-76474811D01*
X152861976Y-76380213D01*
X152861974Y-76380055D01*
X152862077Y-76265527D01*
X152862077Y-76265521D01*
X152862167Y-76219370D01*
X152862167Y-75903410D01*
X152862263Y-75902435D01*
X152862548Y-75901497D01*
X152863010Y-75900632D01*
X152863631Y-75899874D01*
X152922933Y-75840572D01*
X152923722Y-75839930D01*
X153006485Y-75785525D01*
X153007353Y-75785069D01*
X153007902Y-75784883D01*
X153073306Y-75766833D01*
X153073904Y-75766707D01*
X153157688Y-75754306D01*
X153243675Y-75741579D01*
X153251177Y-75740469D01*
X153346335Y-75707695D01*
X153397234Y-75669117D01*
X153454831Y-75611521D01*
X153454369Y-75236259D01*
X153452748Y-75074299D01*
X153446261Y-74946218D01*
X153431831Y-74843562D01*
X153406407Y-74757638D01*
X153366870Y-74679668D01*
X153309913Y-74600839D01*
X153232263Y-74512541D01*
X153164661Y-74441327D01*
X153064999Y-74352391D01*
X152963346Y-74293978D01*
X152853052Y-74264784D01*
X152727371Y-74263822D01*
X152579715Y-74290343D01*
X152429767Y-74334731D01*
X152062426Y-74479606D01*
X151709002Y-74662564D01*
X151372559Y-74880837D01*
X151056225Y-75131625D01*
X150763098Y-75412144D01*
X150496293Y-75719595D01*
X150258910Y-76051195D01*
X150054028Y-76404196D01*
X149995186Y-76522597D01*
X149839161Y-76891719D01*
X149722208Y-77264945D01*
X149643248Y-77647344D01*
X149601242Y-78043898D01*
X149594642Y-78439194D01*
X149598031Y-78563252D01*
X149602372Y-78653434D01*
X149608896Y-78718114D01*
X149618788Y-78765716D01*
X149633291Y-78804984D01*
X149653820Y-78844731D01*
X149654016Y-78845080D01*
X149739424Y-78956103D01*
X149853024Y-79042082D01*
X149985610Y-79096271D01*
X150001429Y-79100084D01*
X150038830Y-79107830D01*
X150073533Y-79112262D01*
X150111460Y-79112498D01*
X150158637Y-79107587D01*
X150220925Y-79096539D01*
X150304075Y-79078393D01*
X150413921Y-79052190D01*
X150556118Y-79017022D01*
X150639892Y-78996099D01*
X150639925Y-78996091D01*
X150974449Y-78914926D01*
X150974535Y-78914906D01*
X151279662Y-78846536D01*
X151279771Y-78846513D01*
X151565815Y-78789082D01*
X151565940Y-78789058D01*
X151843222Y-78740707D01*
X151843351Y-78740687D01*
X152122186Y-78699559D01*
X152122305Y-78699542D01*
X152413011Y-78663779D01*
X152413091Y-78663770D01*
X152591469Y-78644727D01*
X152591613Y-78644714D01*
X153011028Y-78612186D01*
X153011237Y-78612174D01*
X153455037Y-78596401D01*
X153455220Y-78596398D01*
X153914330Y-78596895D01*
X153914500Y-78596898D01*
X154379843Y-78613179D01*
X154380009Y-78613188D01*
X154842509Y-78644767D01*
X154842680Y-78644781D01*
X155293263Y-78691174D01*
X155293451Y-78691197D01*
X155723040Y-78751918D01*
X155723257Y-78751954D01*
X156122776Y-78826517D01*
X156122917Y-78826545D01*
X156166543Y-78835989D01*
X156167068Y-78836133D01*
X156314152Y-78885220D01*
X156315171Y-78885694D01*
X156438099Y-78960626D01*
X156439066Y-78961393D01*
X156533566Y-79057707D01*
X156534386Y-79058814D01*
X156596184Y-79172044D01*
X156596567Y-79172946D01*
X156596700Y-79173470D01*
X156621521Y-79299153D01*
X156621615Y-79300009D01*
X156621893Y-79312292D01*
X156621850Y-79313070D01*
X156604925Y-79439172D01*
X156604598Y-79440397D01*
X156556011Y-79559423D01*
X156555451Y-79560439D01*
X156481433Y-79664066D01*
X156480618Y-79664956D01*
X156387399Y-79744860D01*
X156386199Y-79745622D01*
X156280009Y-79793477D01*
X156279057Y-79793796D01*
X156257728Y-79798617D01*
X156256955Y-79798729D01*
X156187087Y-79803343D01*
X156186474Y-79803346D01*
X156080533Y-79797312D01*
X156080234Y-79797286D01*
X155936975Y-79780464D01*
X155936804Y-79780441D01*
X155754985Y-79752688D01*
X155754884Y-79752671D01*
X155575715Y-79721580D01*
X155222750Y-79667304D01*
X154838613Y-79625452D01*
X154432604Y-79596232D01*
X154014023Y-79579852D01*
X153592196Y-79576527D01*
X153176441Y-79586465D01*
X152776202Y-79609873D01*
X152400608Y-79646974D01*
X152381009Y-79649396D01*
X152026444Y-79701353D01*
X151647844Y-79770741D01*
X151258204Y-79854671D01*
X150870588Y-79950236D01*
X150498083Y-80054528D01*
X150339221Y-80103419D01*
X150339167Y-80103435D01*
X150136055Y-80163458D01*
X150135785Y-80163530D01*
X149965656Y-80203619D01*
X149965229Y-80203700D01*
X149823942Y-80224270D01*
X149823285Y-80224322D01*
X149706702Y-80225789D01*
X149705756Y-80225710D01*
X149609737Y-80208489D01*
X149608718Y-80208192D01*
X149546329Y-80182532D01*
X149545422Y-80182044D01*
X149409450Y-80089695D01*
X149408500Y-80088856D01*
X149309489Y-79975964D01*
X149308716Y-79974779D01*
X149246119Y-79840424D01*
X149245722Y-79839153D01*
X149218989Y-79682417D01*
X149218919Y-79681691D01*
X149217793Y-79632634D01*
X149214948Y-79548410D01*
X149206464Y-79437029D01*
X149193654Y-79313085D01*
X149178096Y-79192976D01*
X149178096Y-79192971D01*
X149139586Y-78893081D01*
X149139564Y-78892880D01*
X149115949Y-78623303D01*
X149115933Y-78623052D01*
X149106725Y-78374662D01*
X149106723Y-78374377D01*
X149111430Y-78138046D01*
X149111438Y-78137846D01*
X149116738Y-78049808D01*
X149116755Y-78049595D01*
X149156147Y-77667528D01*
X149156198Y-77667164D01*
X149219615Y-77311057D01*
X149219705Y-77310654D01*
X149309930Y-76969846D01*
X149310053Y-76969447D01*
X149429873Y-76633280D01*
X149430009Y-76632939D01*
X149569351Y-76317397D01*
X149569493Y-76317102D01*
X149744483Y-75982177D01*
X149744678Y-75981838D01*
X149935868Y-75676577D01*
X149936107Y-75676229D01*
X150151152Y-75389829D01*
X150151407Y-75389516D01*
X150397961Y-75111177D01*
X150398125Y-75111000D01*
X150492921Y-75013845D01*
X150493077Y-75013692D01*
X150757992Y-74764949D01*
X150758274Y-74764704D01*
X151026599Y-74548059D01*
X151026928Y-74547815D01*
X151309609Y-74355508D01*
X151309943Y-74355299D01*
X151617928Y-74179569D01*
X151618161Y-74179444D01*
X151796005Y-74090081D01*
X151796170Y-74090002D01*
X152001654Y-73995997D01*
X152001871Y-73995904D01*
X152204022Y-73914756D01*
X152204259Y-73914668D01*
X152415063Y-73842190D01*
X152415280Y-73842121D01*
X152646719Y-73774127D01*
X152646872Y-73774084D01*
X152855328Y-73720008D01*
X153012420Y-73679037D01*
X153133470Y-73642461D01*
X153224500Y-73608269D01*
X153291567Y-73574446D01*
X153298466Y-73570207D01*
X153411199Y-73500959D01*
X153411372Y-73500858D01*
X153498827Y-73451823D01*
X153499170Y-73451647D01*
X153570600Y-73418553D01*
X153571129Y-73418344D01*
X153635788Y-73396918D01*
X153636338Y-73396770D01*
X153703480Y-73382737D01*
X153703696Y-73382697D01*
X153705531Y-73382397D01*
X153706086Y-73382337D01*
X153883279Y-73373406D01*
X153884431Y-73373482D01*
G37*
D22*
X159600000Y-68400000D03*
D11*
G36*
X142728693Y-84161660D02*
G01*
X142821084Y-84170217D01*
X142822136Y-84170431D01*
X142903090Y-84196140D01*
X142904063Y-84196567D01*
X142979090Y-84239558D01*
X142979750Y-84240010D01*
X143054357Y-84300412D01*
X143054613Y-84300634D01*
X143075154Y-84319710D01*
X143075355Y-84319907D01*
X143135551Y-84382473D01*
X143136021Y-84383040D01*
X143180360Y-84445322D01*
X143180852Y-84446183D01*
X143212519Y-84517068D01*
X143212804Y-84517890D01*
X143234982Y-84606264D01*
X143235085Y-84606796D01*
X143250959Y-84721546D01*
X143250987Y-84721791D01*
X143261229Y-84837791D01*
X143272755Y-84966562D01*
X143287835Y-85103235D01*
X143304385Y-85230243D01*
X143318284Y-85318830D01*
X143318288Y-85318857D01*
X143330835Y-85401815D01*
X143330865Y-85402056D01*
X143340372Y-85495270D01*
X143340389Y-85495469D01*
X143347181Y-85605609D01*
X143347187Y-85605753D01*
X143351588Y-85739493D01*
X143351590Y-85739586D01*
X143353927Y-85903597D01*
X143353928Y-85903649D01*
X143354530Y-86061981D01*
X143354530Y-86062009D01*
X143354205Y-86237095D01*
X143354205Y-86237139D01*
X143352711Y-86377540D01*
X143352709Y-86377625D01*
X143349589Y-86490983D01*
X143349583Y-86491121D01*
X143344385Y-86585079D01*
X143344371Y-86585271D01*
X143336640Y-86667470D01*
X143336616Y-86667682D01*
X143325898Y-86745765D01*
X143325870Y-86745940D01*
X143311710Y-86827550D01*
X143311697Y-86827623D01*
X143307744Y-86848543D01*
X143307698Y-86848763D01*
X143201013Y-87301186D01*
X143200893Y-87301607D01*
X143058156Y-87733412D01*
X143057996Y-87733834D01*
X142880044Y-88143784D01*
X142879840Y-88144199D01*
X142667508Y-88531059D01*
X142667263Y-88531459D01*
X142421388Y-88893993D01*
X142421104Y-88894373D01*
X142142521Y-89231346D01*
X142142201Y-89231697D01*
X141831746Y-89541872D01*
X141831397Y-89542190D01*
X141489906Y-89824332D01*
X141489538Y-89824608D01*
X141127847Y-90071312D01*
X141127533Y-90071509D01*
X140874813Y-90217682D01*
X140874533Y-90217833D01*
X140615739Y-90346296D01*
X140615442Y-90346431D01*
X140342981Y-90460145D01*
X140342694Y-90460255D01*
X140048971Y-90562176D01*
X140048718Y-90562256D01*
X139726139Y-90655343D01*
X139725956Y-90655392D01*
X139459132Y-90721512D01*
X139315041Y-90763158D01*
X139189378Y-90819345D01*
X139118497Y-90860572D01*
X139037830Y-90909028D01*
X139037698Y-90909105D01*
X138961435Y-90951806D01*
X138961244Y-90951907D01*
X138903323Y-90981119D01*
X138903051Y-90981246D01*
X138893584Y-90985328D01*
X138892927Y-90985559D01*
X138787515Y-91014485D01*
X138786722Y-91014635D01*
X138662234Y-91027896D01*
X138661529Y-91027921D01*
X138538917Y-91023633D01*
X138538382Y-91023585D01*
X138511676Y-91019756D01*
X138510925Y-91019589D01*
X138367645Y-90975801D01*
X138366648Y-90975373D01*
X138228665Y-90897477D01*
X138227880Y-90896928D01*
X138105735Y-90792824D01*
X138105040Y-90792100D01*
X138009278Y-90669687D01*
X138008846Y-90669036D01*
X137984238Y-90624784D01*
X137983891Y-90624013D01*
X137931447Y-90474890D01*
X137931198Y-90473810D01*
X137911984Y-90308871D01*
X137911959Y-90307984D01*
X137919210Y-90190466D01*
X137919283Y-90189870D01*
X137936919Y-90093979D01*
X137937098Y-90093288D01*
X137964796Y-90010977D01*
X137965128Y-90010210D01*
X138009000Y-89928344D01*
X138009310Y-89927840D01*
X138075465Y-89833283D01*
X138075591Y-89833111D01*
X138100118Y-89801052D01*
X138152458Y-89731572D01*
X138191332Y-89671918D01*
X138218782Y-89614074D01*
X138236919Y-89549817D01*
X138247703Y-89470879D01*
X138253002Y-89369211D01*
X138254717Y-89236769D01*
X138254834Y-89161472D01*
X138254834Y-88790343D01*
X138187618Y-88723359D01*
X138146615Y-88686948D01*
X138105488Y-88664832D01*
X138049582Y-88651391D01*
X137966202Y-88641794D01*
X137966165Y-88641790D01*
X137864276Y-88629282D01*
X137863632Y-88629160D01*
X137786764Y-88609268D01*
X137785469Y-88608729D01*
X137730139Y-88575951D01*
X137729348Y-88575371D01*
X137728645Y-88574593D01*
X137691373Y-88523422D01*
X137690877Y-88522577D01*
X137690629Y-88521925D01*
X137667932Y-88446858D01*
X137667749Y-88445963D01*
X137656145Y-88341494D01*
X137656116Y-88341085D01*
X137652124Y-88201711D01*
X137652122Y-88201590D01*
X137651881Y-88146939D01*
X137651881Y-88146894D01*
X137652428Y-88025461D01*
X137652430Y-88025337D01*
X137655004Y-87937849D01*
X137655022Y-87937547D01*
X137660601Y-87875628D01*
X137660691Y-87875032D01*
X137670251Y-87830309D01*
X137670506Y-87829480D01*
X137685023Y-87793577D01*
X137685276Y-87793044D01*
X137695685Y-87774093D01*
X137696041Y-87773535D01*
X137733007Y-87723342D01*
X137733663Y-87722613D01*
X137734538Y-87721974D01*
X137780267Y-87695643D01*
X137781160Y-87695239D01*
X137781706Y-87695089D01*
X137836594Y-87683224D01*
X137837259Y-87683126D01*
X137879918Y-87679782D01*
X137880111Y-87679771D01*
X137959625Y-87676617D01*
X137959694Y-87676615D01*
X138070588Y-87673752D01*
X138070627Y-87673751D01*
X138207425Y-87671280D01*
X138207452Y-87671279D01*
X138364675Y-87669298D01*
X138364698Y-87669298D01*
X138536870Y-87667909D01*
X138536890Y-87667909D01*
X138705645Y-87667236D01*
X138705655Y-87667236D01*
X139479570Y-87665667D01*
X139480546Y-87665761D01*
X139481484Y-87666044D01*
X139482349Y-87666504D01*
X139483189Y-87667206D01*
X139545357Y-87732037D01*
X139607526Y-87796869D01*
X139608132Y-87797640D01*
X139608575Y-87798514D01*
X139608840Y-87799458D01*
X139608916Y-87800236D01*
X139615554Y-88154926D01*
X139622193Y-88509616D01*
X139622115Y-88510594D01*
X139621848Y-88511537D01*
X139621403Y-88512410D01*
X139620795Y-88513179D01*
X139620042Y-88513820D01*
X139538079Y-88570620D01*
X139537577Y-88570925D01*
X139462966Y-88610574D01*
X139461949Y-88610979D01*
X139367087Y-88637138D01*
X139366522Y-88637259D01*
X139298495Y-88647781D01*
X139211228Y-88661278D01*
X139153188Y-88678368D01*
X139110108Y-88704164D01*
X139082253Y-88729391D01*
X139051531Y-88763658D01*
X139031797Y-88798989D01*
X139019069Y-88847411D01*
X139009893Y-88920777D01*
X139005065Y-88976454D01*
X138998833Y-89111179D01*
X139000588Y-89249322D01*
X139009489Y-89380923D01*
X139024679Y-89495880D01*
X139045263Y-89584100D01*
X139058644Y-89617764D01*
X139096745Y-89681307D01*
X139153504Y-89763096D01*
X139219501Y-89850738D01*
X139285420Y-89932050D01*
X139341937Y-89994852D01*
X139360753Y-90012885D01*
X139451531Y-90079460D01*
X139548976Y-90121698D01*
X139658032Y-90139664D01*
X139783624Y-90133168D01*
X139930474Y-90101916D01*
X140103201Y-90045656D01*
X140261846Y-89983036D01*
X140644001Y-89800864D01*
X141004890Y-89583183D01*
X141342008Y-89332091D01*
X141652693Y-89049784D01*
X141934373Y-88738386D01*
X142184498Y-88399974D01*
X142192640Y-88387679D01*
X142404036Y-88029153D01*
X142578611Y-87651746D01*
X142715388Y-87258994D01*
X142813330Y-86854521D01*
X142871390Y-86442011D01*
X142888538Y-86024956D01*
X142887307Y-85953875D01*
X142883718Y-85832868D01*
X142879281Y-85745511D01*
X142872589Y-85683196D01*
X142862257Y-85637084D01*
X142846851Y-85598162D01*
X142824760Y-85557381D01*
X142821734Y-85552199D01*
X142745181Y-85454229D01*
X142644799Y-85372353D01*
X142532151Y-85313670D01*
X142418836Y-85285339D01*
X142389188Y-85283849D01*
X142346621Y-85288926D01*
X142269589Y-85303334D01*
X142165277Y-85325548D01*
X142040528Y-85354079D01*
X141902196Y-85387433D01*
X141814437Y-85409415D01*
X141814406Y-85409423D01*
X141415024Y-85506746D01*
X141414906Y-85506773D01*
X141043760Y-85587787D01*
X141043613Y-85587817D01*
X140691318Y-85653689D01*
X140691147Y-85653718D01*
X140348319Y-85705615D01*
X140348138Y-85705639D01*
X140005393Y-85744728D01*
X140005215Y-85744745D01*
X139653168Y-85772195D01*
X139653008Y-85772205D01*
X139282274Y-85789182D01*
X139282141Y-85789186D01*
X138883338Y-85796857D01*
X138883261Y-85796858D01*
X138693769Y-85797585D01*
X138693725Y-85797585D01*
X138413787Y-85796190D01*
X138413722Y-85796189D01*
X138166878Y-85791723D01*
X138166785Y-85791721D01*
X137943869Y-85783543D01*
X137943751Y-85783537D01*
X137735593Y-85771002D01*
X137735463Y-85770992D01*
X137532894Y-85753458D01*
X137532766Y-85753446D01*
X137326619Y-85730269D01*
X137326511Y-85730255D01*
X137107616Y-85700794D01*
X137107543Y-85700784D01*
X136925594Y-85673574D01*
X136925538Y-85673565D01*
X136695643Y-85636471D01*
X136695538Y-85636453D01*
X136503849Y-85601341D01*
X136503665Y-85601304D01*
X136346227Y-85566318D01*
X136345925Y-85566241D01*
X136218784Y-85529524D01*
X136218315Y-85529363D01*
X136117517Y-85489060D01*
X136116853Y-85488736D01*
X136038444Y-85442992D01*
X136037652Y-85442418D01*
X135977679Y-85389377D01*
X135976955Y-85388584D01*
X135931462Y-85326391D01*
X135930986Y-85325594D01*
X135896020Y-85252392D01*
X135895793Y-85251830D01*
X135870646Y-85177020D01*
X135870456Y-85176269D01*
X135852923Y-85073661D01*
X135852854Y-85072683D01*
X135852891Y-85072193D01*
X135865278Y-84973983D01*
X135865643Y-84972641D01*
X135910234Y-84868498D01*
X135910581Y-84867831D01*
X135953997Y-84797825D01*
X135954530Y-84797115D01*
X136046570Y-84694865D01*
X136047294Y-84694204D01*
X136047720Y-84693919D01*
X136159587Y-84627012D01*
X136160473Y-84626594D01*
X136161044Y-84626428D01*
X136287807Y-84597590D01*
X136288749Y-84597468D01*
X136317667Y-84596503D01*
X136318155Y-84596510D01*
X136374127Y-84600109D01*
X136374367Y-84600131D01*
X136462489Y-84610085D01*
X136462601Y-84610098D01*
X136573382Y-84625145D01*
X136573462Y-84625157D01*
X136697408Y-84644036D01*
X136697471Y-84644046D01*
X136786231Y-84658736D01*
X137325603Y-84739532D01*
X137847470Y-84793288D01*
X138366164Y-84821076D01*
X138896010Y-84823953D01*
X138989909Y-84821997D01*
X139503842Y-84800277D01*
X139989863Y-84759973D01*
X140458779Y-84699293D01*
X140921291Y-84616448D01*
X141388090Y-84509653D01*
X141869958Y-84377094D01*
X142132645Y-84296560D01*
X142132656Y-84296556D01*
X142325888Y-84237800D01*
X142326068Y-84237749D01*
X142485826Y-84195627D01*
X142486156Y-84195552D01*
X142617949Y-84170194D01*
X142618508Y-84170119D01*
X142727846Y-84161654D01*
X142728693Y-84161660D01*
G37*
G36*
X138684431Y-81073482D02*
G01*
X138852578Y-81104248D01*
X138853716Y-81104600D01*
X139007983Y-81173463D01*
X139009013Y-81174081D01*
X139144570Y-81279440D01*
X139145086Y-81279901D01*
X139165648Y-81301033D01*
X139165902Y-81301315D01*
X139250307Y-81402372D01*
X139250804Y-81403086D01*
X139306833Y-81500577D01*
X139307282Y-81501614D01*
X139339713Y-81608342D01*
X139339901Y-81609270D01*
X139353513Y-81738037D01*
X139353540Y-81738472D01*
X139354798Y-81807409D01*
X139354798Y-81807574D01*
X139353307Y-81907928D01*
X139353290Y-81908272D01*
X139347295Y-81979687D01*
X139347184Y-81980398D01*
X139334250Y-82036219D01*
X139333995Y-82037012D01*
X139311686Y-82090581D01*
X139311524Y-82090931D01*
X139298158Y-82117137D01*
X139297996Y-82117431D01*
X139251616Y-82195012D01*
X139251434Y-82195293D01*
X139192436Y-82280459D01*
X139192271Y-82280684D01*
X139154223Y-82329542D01*
X139098151Y-82405890D01*
X139057283Y-82485205D01*
X139029248Y-82576182D01*
X139011927Y-82687392D01*
X139003277Y-82827236D01*
X139001356Y-82933531D01*
X139002945Y-83081398D01*
X139011246Y-83193555D01*
X139028015Y-83276549D01*
X139054895Y-83337030D01*
X139093756Y-83382129D01*
X139134100Y-83411202D01*
X139215556Y-83443348D01*
X139297633Y-83453926D01*
X139396329Y-83465641D01*
X139397379Y-83465882D01*
X139485601Y-83496499D01*
X139486718Y-83497051D01*
X139553944Y-83541469D01*
X139554705Y-83542087D01*
X139555336Y-83542850D01*
X139591086Y-83595975D01*
X139591551Y-83596837D01*
X139591743Y-83597383D01*
X139592100Y-83598623D01*
X139592245Y-83599304D01*
X139598244Y-83641600D01*
X139598283Y-83641968D01*
X139603319Y-83717100D01*
X139603327Y-83717249D01*
X139606969Y-83815726D01*
X139606971Y-83815830D01*
X139608789Y-83928157D01*
X139608790Y-83928221D01*
X139608917Y-83966483D01*
X139608917Y-83966485D01*
X139609242Y-84078465D01*
X139609241Y-84078558D01*
X139607796Y-84171336D01*
X139607777Y-84171710D01*
X139600931Y-84247096D01*
X139600784Y-84247927D01*
X139584905Y-84307730D01*
X139584561Y-84308648D01*
X139584321Y-84309082D01*
X139555778Y-84355109D01*
X139555183Y-84355887D01*
X139554554Y-84356455D01*
X139509717Y-84390517D01*
X139508882Y-84391031D01*
X139508423Y-84391227D01*
X139443661Y-84415132D01*
X139442797Y-84415365D01*
X139354478Y-84430921D01*
X139354000Y-84430982D01*
X139238493Y-84439998D01*
X139238250Y-84440011D01*
X139091924Y-84444296D01*
X139091816Y-84444298D01*
X138911040Y-84445661D01*
X138911008Y-84445661D01*
X138692153Y-84445911D01*
X138651430Y-84445971D01*
X138421770Y-84446549D01*
X138421746Y-84446549D01*
X138230837Y-84446129D01*
X138230742Y-84446128D01*
X138075012Y-84442817D01*
X138074793Y-84442807D01*
X137950669Y-84434711D01*
X137950234Y-84434664D01*
X137854142Y-84419891D01*
X137853353Y-84419703D01*
X137781722Y-84396360D01*
X137780499Y-84395767D01*
X137729755Y-84361959D01*
X137728996Y-84361338D01*
X137728477Y-84360731D01*
X137695048Y-84314566D01*
X137694554Y-84313719D01*
X137694344Y-84313182D01*
X137674658Y-84252766D01*
X137674450Y-84251834D01*
X137664932Y-84175274D01*
X137664896Y-84174811D01*
X137661976Y-84080213D01*
X137661974Y-84080055D01*
X137662077Y-83965527D01*
X137662077Y-83965521D01*
X137662167Y-83919370D01*
X137662167Y-83603410D01*
X137662263Y-83602435D01*
X137662548Y-83601497D01*
X137663010Y-83600632D01*
X137663631Y-83599874D01*
X137722933Y-83540572D01*
X137723722Y-83539930D01*
X137806485Y-83485525D01*
X137807353Y-83485069D01*
X137807902Y-83484883D01*
X137873306Y-83466833D01*
X137873904Y-83466707D01*
X137957688Y-83454306D01*
X138043675Y-83441579D01*
X138051177Y-83440469D01*
X138146335Y-83407695D01*
X138197234Y-83369117D01*
X138254831Y-83311521D01*
X138254369Y-82936259D01*
X138252748Y-82774299D01*
X138246261Y-82646218D01*
X138231831Y-82543562D01*
X138206407Y-82457638D01*
X138166870Y-82379668D01*
X138109913Y-82300839D01*
X138032263Y-82212541D01*
X137964661Y-82141327D01*
X137864999Y-82052391D01*
X137763346Y-81993978D01*
X137653052Y-81964784D01*
X137527371Y-81963822D01*
X137379715Y-81990343D01*
X137229767Y-82034731D01*
X136862426Y-82179606D01*
X136509002Y-82362564D01*
X136172559Y-82580837D01*
X135856225Y-82831625D01*
X135563098Y-83112144D01*
X135296293Y-83419595D01*
X135058910Y-83751195D01*
X134854028Y-84104196D01*
X134795186Y-84222597D01*
X134639161Y-84591719D01*
X134522208Y-84964945D01*
X134443248Y-85347344D01*
X134401242Y-85743898D01*
X134394642Y-86139194D01*
X134398031Y-86263252D01*
X134402372Y-86353434D01*
X134408896Y-86418114D01*
X134418788Y-86465716D01*
X134433291Y-86504984D01*
X134453820Y-86544731D01*
X134454016Y-86545080D01*
X134539424Y-86656103D01*
X134653024Y-86742082D01*
X134785610Y-86796271D01*
X134801429Y-86800084D01*
X134838830Y-86807830D01*
X134873533Y-86812262D01*
X134911460Y-86812498D01*
X134958637Y-86807587D01*
X135020925Y-86796539D01*
X135104075Y-86778393D01*
X135213921Y-86752190D01*
X135356118Y-86717022D01*
X135439892Y-86696099D01*
X135439925Y-86696091D01*
X135774449Y-86614926D01*
X135774535Y-86614906D01*
X136079662Y-86546536D01*
X136079771Y-86546513D01*
X136365815Y-86489082D01*
X136365940Y-86489058D01*
X136643222Y-86440707D01*
X136643351Y-86440687D01*
X136922186Y-86399559D01*
X136922305Y-86399542D01*
X137213011Y-86363779D01*
X137213091Y-86363770D01*
X137391469Y-86344727D01*
X137391613Y-86344714D01*
X137811028Y-86312186D01*
X137811237Y-86312174D01*
X138255037Y-86296401D01*
X138255220Y-86296398D01*
X138714330Y-86296895D01*
X138714500Y-86296898D01*
X139179843Y-86313179D01*
X139180009Y-86313188D01*
X139642509Y-86344767D01*
X139642680Y-86344781D01*
X140093263Y-86391174D01*
X140093451Y-86391197D01*
X140523040Y-86451918D01*
X140523257Y-86451954D01*
X140922776Y-86526517D01*
X140922917Y-86526545D01*
X140966543Y-86535989D01*
X140967068Y-86536133D01*
X141114152Y-86585220D01*
X141115171Y-86585694D01*
X141238099Y-86660626D01*
X141239066Y-86661393D01*
X141333566Y-86757707D01*
X141334386Y-86758814D01*
X141396184Y-86872044D01*
X141396567Y-86872946D01*
X141396700Y-86873470D01*
X141421521Y-86999153D01*
X141421615Y-87000009D01*
X141421893Y-87012292D01*
X141421850Y-87013070D01*
X141404925Y-87139172D01*
X141404598Y-87140397D01*
X141356011Y-87259423D01*
X141355451Y-87260439D01*
X141281433Y-87364066D01*
X141280618Y-87364956D01*
X141187399Y-87444860D01*
X141186199Y-87445622D01*
X141080009Y-87493477D01*
X141079057Y-87493796D01*
X141057728Y-87498617D01*
X141056955Y-87498729D01*
X140987087Y-87503343D01*
X140986474Y-87503346D01*
X140880533Y-87497312D01*
X140880234Y-87497286D01*
X140736975Y-87480464D01*
X140736804Y-87480441D01*
X140554985Y-87452688D01*
X140554884Y-87452671D01*
X140375715Y-87421580D01*
X140022750Y-87367304D01*
X139638613Y-87325452D01*
X139232604Y-87296232D01*
X138814023Y-87279852D01*
X138392196Y-87276527D01*
X137976441Y-87286465D01*
X137576202Y-87309873D01*
X137200608Y-87346974D01*
X137181009Y-87349396D01*
X136826444Y-87401353D01*
X136447844Y-87470741D01*
X136058204Y-87554671D01*
X135670588Y-87650236D01*
X135298083Y-87754528D01*
X135139221Y-87803419D01*
X135139167Y-87803435D01*
X134936055Y-87863458D01*
X134935785Y-87863530D01*
X134765656Y-87903619D01*
X134765229Y-87903700D01*
X134623942Y-87924270D01*
X134623285Y-87924322D01*
X134506702Y-87925789D01*
X134505756Y-87925710D01*
X134409737Y-87908489D01*
X134408718Y-87908192D01*
X134346329Y-87882532D01*
X134345422Y-87882044D01*
X134209450Y-87789695D01*
X134208500Y-87788856D01*
X134109489Y-87675964D01*
X134108716Y-87674779D01*
X134046119Y-87540424D01*
X134045722Y-87539153D01*
X134018989Y-87382417D01*
X134018919Y-87381691D01*
X134017793Y-87332634D01*
X134014948Y-87248410D01*
X134006464Y-87137029D01*
X133993654Y-87013085D01*
X133978096Y-86892976D01*
X133978096Y-86892971D01*
X133939586Y-86593081D01*
X133939564Y-86592880D01*
X133915949Y-86323303D01*
X133915933Y-86323052D01*
X133906725Y-86074662D01*
X133906723Y-86074377D01*
X133911430Y-85838046D01*
X133911438Y-85837846D01*
X133916738Y-85749808D01*
X133916755Y-85749595D01*
X133956147Y-85367528D01*
X133956198Y-85367164D01*
X134019615Y-85011057D01*
X134019705Y-85010654D01*
X134109930Y-84669846D01*
X134110053Y-84669447D01*
X134229873Y-84333280D01*
X134230009Y-84332939D01*
X134369351Y-84017397D01*
X134369493Y-84017102D01*
X134544483Y-83682177D01*
X134544678Y-83681838D01*
X134735868Y-83376577D01*
X134736107Y-83376229D01*
X134951152Y-83089829D01*
X134951407Y-83089516D01*
X135197961Y-82811177D01*
X135198125Y-82811000D01*
X135292921Y-82713845D01*
X135293077Y-82713692D01*
X135557992Y-82464949D01*
X135558274Y-82464704D01*
X135826599Y-82248059D01*
X135826928Y-82247815D01*
X136109609Y-82055508D01*
X136109943Y-82055299D01*
X136417928Y-81879569D01*
X136418161Y-81879444D01*
X136596005Y-81790081D01*
X136596170Y-81790002D01*
X136801654Y-81695997D01*
X136801871Y-81695904D01*
X137004022Y-81614756D01*
X137004259Y-81614668D01*
X137215063Y-81542190D01*
X137215280Y-81542121D01*
X137446719Y-81474127D01*
X137446872Y-81474084D01*
X137655328Y-81420008D01*
X137812420Y-81379037D01*
X137933470Y-81342461D01*
X138024500Y-81308269D01*
X138091567Y-81274446D01*
X138098466Y-81270207D01*
X138211199Y-81200959D01*
X138211372Y-81200858D01*
X138298827Y-81151823D01*
X138299170Y-81151647D01*
X138370600Y-81118553D01*
X138371129Y-81118344D01*
X138435788Y-81096918D01*
X138436338Y-81096770D01*
X138503480Y-81082737D01*
X138503696Y-81082697D01*
X138505531Y-81082397D01*
X138506086Y-81082337D01*
X138683279Y-81073406D01*
X138684431Y-81073482D01*
G37*
D23*
X119200000Y-78400000D03*
X106000000Y-78400000D03*
D14*
X167600000Y-87900000D03*
X57600000Y-87900000D03*
D24*
X172400000Y-103400000D03*
D25*
X75600000Y-98400000D03*
D11*
G36*
X70271199Y-68124809D02*
G01*
X70313068Y-67325906D01*
X71111971Y-67367775D01*
X71070102Y-68166678D01*
X70271199Y-68124809D01*
G37*
G36*
X71539458Y-68191276D02*
G01*
X71581327Y-67392373D01*
X72380230Y-67434242D01*
X72338361Y-68233145D01*
X71539458Y-68191276D01*
G37*
G36*
X72807718Y-68257743D02*
G01*
X72849587Y-67458840D01*
X73648490Y-67500709D01*
X73606621Y-68299612D01*
X72807718Y-68257743D01*
G37*
D19*
X80723315Y-76383149D03*
X80592475Y-78879723D03*
X80461635Y-81376297D03*
G36*
G01*
X77616459Y-73566689D02*
X77668795Y-72568059D01*
G75*
G02*
X78509568Y-71811024I798904J-41869D01*
G01*
X78509568Y-71811024D01*
G75*
G02*
X79266603Y-72651797I-41869J-798904D01*
G01*
X79214267Y-73650427D01*
G75*
G02*
X78373494Y-74407462I-798904J41869D01*
G01*
X78373494Y-74407462D01*
G75*
G02*
X77616459Y-73566689I41869J798904D01*
G01*
G37*
G36*
G01*
X77162273Y-85699326D02*
X76024951Y-85316574D01*
G75*
G02*
X75144618Y-83543155I446543J1326876D01*
G01*
X75144618Y-83543155D01*
G75*
G02*
X76918037Y-82662822I1326876J-446543D01*
G01*
X78055359Y-83045574D01*
G75*
G02*
X78935692Y-84818993I-446543J-1326876D01*
G01*
X78935692Y-84818993D01*
G75*
G02*
X77162273Y-85699326I-1326876J446543D01*
G01*
G37*
G36*
G01*
X63543563Y-84144667D02*
X63595899Y-83146037D01*
G75*
G02*
X64436672Y-82389002I798904J-41869D01*
G01*
X64436672Y-82389002D01*
G75*
G02*
X65193707Y-83229775I-41869J-798904D01*
G01*
X65141371Y-84228405D01*
G75*
G02*
X64300598Y-84985440I-798904J41869D01*
G01*
X64300598Y-84985440D01*
G75*
G02*
X63543563Y-84144667I41869J798904D01*
G01*
G37*
G36*
G01*
X65892129Y-74133642D02*
X64754807Y-73750890D01*
G75*
G02*
X63874474Y-71977471I446543J1326876D01*
G01*
X63874474Y-71977471D01*
G75*
G02*
X65647893Y-71097138I1326876J-446543D01*
G01*
X66785215Y-71479890D01*
G75*
G02*
X67665548Y-73253309I-446543J-1326876D01*
G01*
X67665548Y-73253309D01*
G75*
G02*
X65892129Y-74133642I-1326876J446543D01*
G01*
G37*
X73420166Y-87716464D03*
X70923592Y-87585624D03*
X68427018Y-87454784D03*
D11*
G36*
X60332757Y-79490247D02*
G01*
X60374626Y-78691344D01*
X61173529Y-78733213D01*
X61131660Y-79532116D01*
X60332757Y-79490247D01*
G37*
G36*
X60399224Y-78221988D02*
G01*
X60441093Y-77423085D01*
X61239996Y-77464954D01*
X61198127Y-78263857D01*
X60399224Y-78221988D01*
G37*
G36*
X60465691Y-76953728D02*
G01*
X60507560Y-76154825D01*
X61306463Y-76196694D01*
X61264594Y-76995597D01*
X60465691Y-76953728D01*
G37*
D14*
X71261159Y-81144463D03*
X71549007Y-75652001D03*
D19*
X71131628Y-83616071D03*
X71678538Y-73180393D03*
D26*
X173700000Y-101100000D03*
X173700000Y-94100000D03*
D27*
X171000000Y-95100000D03*
X171000000Y-100100000D03*
D16*
X141950000Y-74900000D03*
X133250000Y-74900000D03*
D17*
X135200000Y-63400000D03*
X137600000Y-63400000D03*
X140000000Y-63400000D03*
D28*
X110500000Y-53000000D03*
X119500000Y-52500000D03*
D11*
G36*
X90388038Y-112756494D02*
G01*
X90445788Y-112767981D01*
X90502134Y-112785074D01*
X90556533Y-112807606D01*
X90608462Y-112835363D01*
X90657420Y-112868075D01*
X90702935Y-112905429D01*
X90744571Y-112947065D01*
X90781925Y-112992580D01*
X90814637Y-113041538D01*
X90842394Y-113093467D01*
X90864926Y-113147866D01*
X90882019Y-113204212D01*
X90893506Y-113261962D01*
X90899277Y-113320559D01*
X90899277Y-113379441D01*
X90893506Y-113438038D01*
X90882019Y-113495788D01*
X90864926Y-113552134D01*
X90842394Y-113606533D01*
X90814637Y-113658462D01*
X90793589Y-113689963D01*
X90802024Y-113919707D01*
X90980699Y-113968838D01*
X90980955Y-113968916D01*
X91120128Y-114015337D01*
X91120471Y-114015465D01*
X91278527Y-114081380D01*
X91278774Y-114081492D01*
X91441504Y-114159990D01*
X91441740Y-114160111D01*
X91594939Y-114244281D01*
X91595228Y-114244453D01*
X91724686Y-114327385D01*
X91724910Y-114327537D01*
X91738978Y-114337664D01*
X91739249Y-114337874D01*
X91992795Y-114548206D01*
X91993259Y-114548644D01*
X92213132Y-114784386D01*
X92213547Y-114784893D01*
X92400356Y-115046852D01*
X92400695Y-115047399D01*
X92555053Y-115336383D01*
X92555258Y-115336816D01*
X92628043Y-115511522D01*
X92628153Y-115511810D01*
X92655053Y-115589564D01*
X92655108Y-115589731D01*
X92684229Y-115684521D01*
X92684262Y-115684634D01*
X92712657Y-115785454D01*
X92712686Y-115785560D01*
X92737410Y-115881403D01*
X92737444Y-115881546D01*
X92755550Y-115961404D01*
X92755610Y-115961712D01*
X92764152Y-116014580D01*
X92764211Y-116015145D01*
X92764514Y-116021642D01*
X92764463Y-116022621D01*
X92764223Y-116023571D01*
X92763801Y-116024456D01*
X92763215Y-116025242D01*
X92762488Y-116025898D01*
X92761903Y-116026270D01*
X92754210Y-116030442D01*
X92753306Y-116030823D01*
X92752583Y-116030989D01*
X92728175Y-116034727D01*
X92727803Y-116034770D01*
X92684760Y-116038095D01*
X92684605Y-116038105D01*
X92621008Y-116041038D01*
X92620927Y-116041041D01*
X92534856Y-116043602D01*
X92534807Y-116043603D01*
X92424341Y-116045813D01*
X92424310Y-116045814D01*
X92287531Y-116047694D01*
X92287510Y-116047694D01*
X92122497Y-116049263D01*
X92122482Y-116049263D01*
X91927317Y-116050543D01*
X91927306Y-116050543D01*
X91700067Y-116051554D01*
X91700060Y-116051554D01*
X91438828Y-116052318D01*
X91438822Y-116052318D01*
X91141677Y-116052853D01*
X91141673Y-116052853D01*
X90806697Y-116053182D01*
X90806694Y-116053182D01*
X90431965Y-116053324D01*
X90431963Y-116053324D01*
X90293347Y-116053334D01*
X87827027Y-116053334D01*
X87826052Y-116053238D01*
X87825114Y-116052954D01*
X87824249Y-116052492D01*
X87823492Y-116051870D01*
X87822870Y-116051112D01*
X87822408Y-116050248D01*
X87822123Y-116049310D01*
X87822027Y-116048334D01*
X87822136Y-116047295D01*
X87832258Y-115999670D01*
X87832296Y-115999504D01*
X87906962Y-115698902D01*
X87907079Y-115698503D01*
X87997529Y-115431506D01*
X87997717Y-115431033D01*
X88107473Y-115190726D01*
X88107736Y-115190227D01*
X88240321Y-114969696D01*
X88240635Y-114969233D01*
X88399571Y-114761562D01*
X88399856Y-114761222D01*
X88542371Y-114605770D01*
X88542699Y-114605445D01*
X88712508Y-114451501D01*
X88712892Y-114451186D01*
X88907503Y-114307162D01*
X88907862Y-114306919D01*
X89117820Y-114178103D01*
X89118192Y-114177896D01*
X89334041Y-114069577D01*
X89334472Y-114069386D01*
X89546756Y-113986853D01*
X89547303Y-113986676D01*
X89738186Y-113936761D01*
X89738529Y-113936684D01*
X89806709Y-113923893D01*
X89812855Y-113699608D01*
X89785363Y-113658462D01*
X89757606Y-113606533D01*
X89735074Y-113552134D01*
X89717981Y-113495788D01*
X89706494Y-113438038D01*
X89700723Y-113379441D01*
X89700723Y-113320559D01*
X89706494Y-113261962D01*
X89717981Y-113204212D01*
X89735074Y-113147866D01*
X89757606Y-113093467D01*
X89785363Y-113041538D01*
X89818075Y-112992580D01*
X89855429Y-112947065D01*
X89897065Y-112905429D01*
X89942580Y-112868075D01*
X89991538Y-112835363D01*
X90043467Y-112807606D01*
X90097866Y-112785074D01*
X90154212Y-112767981D01*
X90211962Y-112756494D01*
X90270559Y-112750723D01*
X90329441Y-112750723D01*
X90388038Y-112756494D01*
G37*
G36*
X90280792Y-116682715D02*
G01*
X90280793Y-116682715D01*
X90599634Y-116683639D01*
X90599638Y-116683639D01*
X90906649Y-116684758D01*
X90906653Y-116684758D01*
X91199182Y-116686051D01*
X91199186Y-116686051D01*
X91474582Y-116687496D01*
X91474587Y-116687496D01*
X91730197Y-116689073D01*
X91730202Y-116689073D01*
X91963376Y-116690758D01*
X91963383Y-116690758D01*
X92171468Y-116692530D01*
X92171476Y-116692530D01*
X92351821Y-116694369D01*
X92351833Y-116694369D01*
X92501786Y-116696251D01*
X92501804Y-116696252D01*
X92618713Y-116698157D01*
X92618749Y-116698157D01*
X92699962Y-116700062D01*
X92700065Y-116700066D01*
X92742932Y-116701951D01*
X92743453Y-116702001D01*
X92749683Y-116702934D01*
X92750633Y-116703174D01*
X92751518Y-116703594D01*
X92752305Y-116704179D01*
X92752962Y-116704906D01*
X92753465Y-116705748D01*
X92753794Y-116706671D01*
X92753934Y-116707594D01*
X92755454Y-116734237D01*
X92755391Y-116735361D01*
X92745459Y-116793727D01*
X92745399Y-116794026D01*
X92726284Y-116875791D01*
X92726244Y-116875951D01*
X92700212Y-116972789D01*
X92700177Y-116972911D01*
X92669499Y-117076497D01*
X92669461Y-117076618D01*
X92636403Y-117178628D01*
X92636351Y-117178781D01*
X92603181Y-117270890D01*
X92603132Y-117271022D01*
X92595085Y-117291533D01*
X92594935Y-117291875D01*
X92462282Y-117567498D01*
X92461965Y-117568061D01*
X92292975Y-117827206D01*
X92292608Y-117827700D01*
X92091554Y-118065854D01*
X92091137Y-118066292D01*
X91862289Y-118278940D01*
X91861816Y-118279328D01*
X91609446Y-118461956D01*
X91608927Y-118462285D01*
X91355251Y-118601990D01*
X91354815Y-118602203D01*
X91244796Y-118649522D01*
X91244587Y-118649606D01*
X91107393Y-118701443D01*
X91107241Y-118701498D01*
X90956931Y-118752783D01*
X90956787Y-118752830D01*
X90824684Y-118793482D01*
X90815490Y-118814539D01*
X90805951Y-118876889D01*
X90797340Y-118976267D01*
X90795348Y-119012669D01*
X90814637Y-119041538D01*
X90842394Y-119093467D01*
X90864926Y-119147866D01*
X90882019Y-119204212D01*
X90893506Y-119261962D01*
X90899277Y-119320559D01*
X90899277Y-119379441D01*
X90893506Y-119438038D01*
X90882019Y-119495788D01*
X90864926Y-119552134D01*
X90842394Y-119606533D01*
X90814637Y-119658462D01*
X90781925Y-119707420D01*
X90744571Y-119752935D01*
X90702935Y-119794571D01*
X90657420Y-119831925D01*
X90608462Y-119864637D01*
X90556533Y-119892394D01*
X90502134Y-119914926D01*
X90445788Y-119932019D01*
X90388038Y-119943506D01*
X90329441Y-119949277D01*
X90270559Y-119949277D01*
X90211962Y-119943506D01*
X90154212Y-119932019D01*
X90097866Y-119914926D01*
X90043467Y-119892394D01*
X89991538Y-119864637D01*
X89942580Y-119831925D01*
X89897065Y-119794571D01*
X89855429Y-119752935D01*
X89818075Y-119707420D01*
X89785363Y-119658462D01*
X89757606Y-119606533D01*
X89735074Y-119552134D01*
X89717981Y-119495788D01*
X89706494Y-119438038D01*
X89700723Y-119379441D01*
X89700723Y-119320559D01*
X89706494Y-119261962D01*
X89717981Y-119204212D01*
X89735074Y-119147866D01*
X89757606Y-119093467D01*
X89785363Y-119041538D01*
X89809537Y-119005358D01*
X89802055Y-118798489D01*
X89657492Y-118760892D01*
X89657165Y-118760795D01*
X89364054Y-118662823D01*
X89363426Y-118662564D01*
X89085121Y-118525180D01*
X89084548Y-118524849D01*
X88821833Y-118348581D01*
X88821335Y-118348199D01*
X88574989Y-118133578D01*
X88574571Y-118133169D01*
X88345377Y-117880724D01*
X88345186Y-117880501D01*
X88329208Y-117860681D01*
X88329109Y-117860554D01*
X88219924Y-117715786D01*
X88219716Y-117715489D01*
X88128249Y-117573928D01*
X88128027Y-117573548D01*
X88050662Y-117427009D01*
X88050472Y-117426606D01*
X87983597Y-117266903D01*
X87983463Y-117266545D01*
X87923464Y-117085491D01*
X87923382Y-117085219D01*
X87866645Y-116874629D01*
X87866608Y-116874480D01*
X87835183Y-116741784D01*
X87835173Y-116741743D01*
X87821695Y-116682624D01*
X87821572Y-116681652D01*
X87821641Y-116680674D01*
X87821899Y-116679729D01*
X87822337Y-116678852D01*
X87822938Y-116678077D01*
X87823678Y-116677434D01*
X87824529Y-116676949D01*
X87825459Y-116676638D01*
X87826583Y-116676513D01*
X90280792Y-116682715D01*
G37*
G36*
X98338038Y-104806494D02*
G01*
X98395788Y-104817981D01*
X98452134Y-104835074D01*
X98506533Y-104857606D01*
X98558462Y-104885363D01*
X98607420Y-104918075D01*
X98652935Y-104955429D01*
X98694571Y-104997065D01*
X98731925Y-105042580D01*
X98764637Y-105091538D01*
X98792394Y-105143467D01*
X98814926Y-105197866D01*
X98832019Y-105254212D01*
X98843506Y-105311962D01*
X98849277Y-105370559D01*
X98849277Y-105429441D01*
X98843506Y-105488038D01*
X98832019Y-105545788D01*
X98814926Y-105602134D01*
X98792394Y-105656533D01*
X98764637Y-105708462D01*
X98743589Y-105739963D01*
X98752024Y-105969707D01*
X98930699Y-106018838D01*
X98930955Y-106018916D01*
X99070128Y-106065337D01*
X99070471Y-106065465D01*
X99228527Y-106131380D01*
X99228774Y-106131492D01*
X99391504Y-106209990D01*
X99391740Y-106210111D01*
X99544939Y-106294281D01*
X99545228Y-106294453D01*
X99674686Y-106377385D01*
X99674910Y-106377537D01*
X99688978Y-106387664D01*
X99689249Y-106387874D01*
X99942795Y-106598206D01*
X99943259Y-106598644D01*
X100163132Y-106834386D01*
X100163547Y-106834893D01*
X100350356Y-107096852D01*
X100350695Y-107097399D01*
X100505053Y-107386383D01*
X100505258Y-107386816D01*
X100578043Y-107561522D01*
X100578153Y-107561810D01*
X100605053Y-107639564D01*
X100605108Y-107639731D01*
X100634229Y-107734521D01*
X100634262Y-107734634D01*
X100662657Y-107835454D01*
X100662686Y-107835560D01*
X100687410Y-107931403D01*
X100687444Y-107931546D01*
X100705550Y-108011404D01*
X100705610Y-108011712D01*
X100714152Y-108064580D01*
X100714211Y-108065145D01*
X100714514Y-108071642D01*
X100714463Y-108072621D01*
X100714223Y-108073571D01*
X100713801Y-108074456D01*
X100713215Y-108075242D01*
X100712488Y-108075898D01*
X100711903Y-108076270D01*
X100704210Y-108080442D01*
X100703306Y-108080823D01*
X100702583Y-108080989D01*
X100678175Y-108084727D01*
X100677803Y-108084770D01*
X100634760Y-108088095D01*
X100634605Y-108088105D01*
X100571008Y-108091038D01*
X100570927Y-108091041D01*
X100484856Y-108093602D01*
X100484807Y-108093603D01*
X100374341Y-108095813D01*
X100374310Y-108095814D01*
X100237531Y-108097694D01*
X100237510Y-108097694D01*
X100072497Y-108099263D01*
X100072482Y-108099263D01*
X99877317Y-108100543D01*
X99877306Y-108100543D01*
X99650067Y-108101554D01*
X99650060Y-108101554D01*
X99388828Y-108102318D01*
X99388822Y-108102318D01*
X99091677Y-108102853D01*
X99091673Y-108102853D01*
X98756697Y-108103182D01*
X98756694Y-108103182D01*
X98381965Y-108103324D01*
X98381963Y-108103324D01*
X98243347Y-108103334D01*
X95777027Y-108103334D01*
X95776052Y-108103238D01*
X95775114Y-108102954D01*
X95774249Y-108102492D01*
X95773492Y-108101870D01*
X95772870Y-108101112D01*
X95772408Y-108100248D01*
X95772123Y-108099310D01*
X95772027Y-108098334D01*
X95772136Y-108097295D01*
X95782258Y-108049670D01*
X95782296Y-108049504D01*
X95856962Y-107748902D01*
X95857079Y-107748503D01*
X95947529Y-107481506D01*
X95947717Y-107481033D01*
X96057473Y-107240726D01*
X96057736Y-107240227D01*
X96190321Y-107019696D01*
X96190635Y-107019233D01*
X96349571Y-106811562D01*
X96349856Y-106811222D01*
X96492371Y-106655770D01*
X96492699Y-106655445D01*
X96662508Y-106501501D01*
X96662892Y-106501186D01*
X96857503Y-106357162D01*
X96857862Y-106356919D01*
X97067820Y-106228103D01*
X97068192Y-106227896D01*
X97284041Y-106119577D01*
X97284472Y-106119386D01*
X97496756Y-106036853D01*
X97497303Y-106036676D01*
X97688186Y-105986761D01*
X97688529Y-105986684D01*
X97756709Y-105973893D01*
X97762855Y-105749608D01*
X97735363Y-105708462D01*
X97707606Y-105656533D01*
X97685074Y-105602134D01*
X97667981Y-105545788D01*
X97656494Y-105488038D01*
X97650723Y-105429441D01*
X97650723Y-105370559D01*
X97656494Y-105311962D01*
X97667981Y-105254212D01*
X97685074Y-105197866D01*
X97707606Y-105143467D01*
X97735363Y-105091538D01*
X97768075Y-105042580D01*
X97805429Y-104997065D01*
X97847065Y-104955429D01*
X97892580Y-104918075D01*
X97941538Y-104885363D01*
X97993467Y-104857606D01*
X98047866Y-104835074D01*
X98104212Y-104817981D01*
X98161962Y-104806494D01*
X98220559Y-104800723D01*
X98279441Y-104800723D01*
X98338038Y-104806494D01*
G37*
G36*
X98230792Y-108732715D02*
G01*
X98230793Y-108732715D01*
X98549634Y-108733639D01*
X98549638Y-108733639D01*
X98856649Y-108734758D01*
X98856653Y-108734758D01*
X99149182Y-108736051D01*
X99149186Y-108736051D01*
X99424582Y-108737496D01*
X99424587Y-108737496D01*
X99680197Y-108739073D01*
X99680202Y-108739073D01*
X99913376Y-108740758D01*
X99913383Y-108740758D01*
X100121468Y-108742530D01*
X100121476Y-108742530D01*
X100301821Y-108744369D01*
X100301833Y-108744369D01*
X100451786Y-108746251D01*
X100451804Y-108746252D01*
X100568713Y-108748157D01*
X100568749Y-108748157D01*
X100649962Y-108750062D01*
X100650065Y-108750066D01*
X100692932Y-108751951D01*
X100693453Y-108752001D01*
X100699683Y-108752934D01*
X100700633Y-108753174D01*
X100701518Y-108753594D01*
X100702305Y-108754179D01*
X100702962Y-108754906D01*
X100703465Y-108755748D01*
X100703794Y-108756671D01*
X100703934Y-108757594D01*
X100705454Y-108784237D01*
X100705391Y-108785361D01*
X100695459Y-108843727D01*
X100695399Y-108844026D01*
X100676284Y-108925791D01*
X100676244Y-108925951D01*
X100650212Y-109022789D01*
X100650177Y-109022911D01*
X100619499Y-109126497D01*
X100619461Y-109126618D01*
X100586403Y-109228628D01*
X100586351Y-109228781D01*
X100553181Y-109320890D01*
X100553132Y-109321022D01*
X100545085Y-109341533D01*
X100544935Y-109341875D01*
X100412282Y-109617498D01*
X100411965Y-109618061D01*
X100242975Y-109877206D01*
X100242608Y-109877700D01*
X100041554Y-110115854D01*
X100041137Y-110116292D01*
X99812289Y-110328940D01*
X99811816Y-110329328D01*
X99559446Y-110511956D01*
X99558927Y-110512285D01*
X99305251Y-110651990D01*
X99304815Y-110652203D01*
X99194796Y-110699522D01*
X99194587Y-110699606D01*
X99057393Y-110751443D01*
X99057241Y-110751498D01*
X98906931Y-110802783D01*
X98906787Y-110802830D01*
X98774684Y-110843482D01*
X98765490Y-110864539D01*
X98755951Y-110926889D01*
X98747340Y-111026267D01*
X98745348Y-111062669D01*
X98764637Y-111091538D01*
X98792394Y-111143467D01*
X98814926Y-111197866D01*
X98832019Y-111254212D01*
X98843506Y-111311962D01*
X98849277Y-111370559D01*
X98849277Y-111429441D01*
X98843506Y-111488038D01*
X98832019Y-111545788D01*
X98814926Y-111602134D01*
X98792394Y-111656533D01*
X98764637Y-111708462D01*
X98731925Y-111757420D01*
X98694571Y-111802935D01*
X98652935Y-111844571D01*
X98607420Y-111881925D01*
X98558462Y-111914637D01*
X98506533Y-111942394D01*
X98452134Y-111964926D01*
X98395788Y-111982019D01*
X98338038Y-111993506D01*
X98279441Y-111999277D01*
X98220559Y-111999277D01*
X98161962Y-111993506D01*
X98104212Y-111982019D01*
X98047866Y-111964926D01*
X97993467Y-111942394D01*
X97941538Y-111914637D01*
X97892580Y-111881925D01*
X97847065Y-111844571D01*
X97805429Y-111802935D01*
X97768075Y-111757420D01*
X97735363Y-111708462D01*
X97707606Y-111656533D01*
X97685074Y-111602134D01*
X97667981Y-111545788D01*
X97656494Y-111488038D01*
X97650723Y-111429441D01*
X97650723Y-111370559D01*
X97656494Y-111311962D01*
X97667981Y-111254212D01*
X97685074Y-111197866D01*
X97707606Y-111143467D01*
X97735363Y-111091538D01*
X97759537Y-111055358D01*
X97752055Y-110848489D01*
X97607492Y-110810892D01*
X97607165Y-110810795D01*
X97314054Y-110712823D01*
X97313426Y-110712564D01*
X97035121Y-110575180D01*
X97034548Y-110574849D01*
X96771833Y-110398581D01*
X96771335Y-110398199D01*
X96524989Y-110183578D01*
X96524571Y-110183169D01*
X96295377Y-109930724D01*
X96295186Y-109930501D01*
X96279208Y-109910681D01*
X96279109Y-109910554D01*
X96169924Y-109765786D01*
X96169716Y-109765489D01*
X96078249Y-109623928D01*
X96078027Y-109623548D01*
X96000662Y-109477009D01*
X96000472Y-109476606D01*
X95933597Y-109316903D01*
X95933463Y-109316545D01*
X95873464Y-109135491D01*
X95873382Y-109135219D01*
X95816645Y-108924629D01*
X95816608Y-108924480D01*
X95785183Y-108791784D01*
X95785173Y-108791743D01*
X95771695Y-108732624D01*
X95771572Y-108731652D01*
X95771641Y-108730674D01*
X95771899Y-108729729D01*
X95772337Y-108728852D01*
X95772938Y-108728077D01*
X95773678Y-108727434D01*
X95774529Y-108726949D01*
X95775459Y-108726638D01*
X95776583Y-108726513D01*
X98230792Y-108732715D01*
G37*
G36*
X90388038Y-96856494D02*
G01*
X90445788Y-96867981D01*
X90502134Y-96885074D01*
X90556533Y-96907606D01*
X90608462Y-96935363D01*
X90657420Y-96968075D01*
X90702935Y-97005429D01*
X90744571Y-97047065D01*
X90781925Y-97092580D01*
X90814637Y-97141538D01*
X90842394Y-97193467D01*
X90864926Y-97247866D01*
X90882019Y-97304212D01*
X90893506Y-97361962D01*
X90899277Y-97420559D01*
X90899277Y-97479441D01*
X90893506Y-97538038D01*
X90882019Y-97595788D01*
X90864926Y-97652134D01*
X90842394Y-97706533D01*
X90814637Y-97758462D01*
X90793589Y-97789963D01*
X90802024Y-98019707D01*
X90980699Y-98068838D01*
X90980955Y-98068916D01*
X91120128Y-98115337D01*
X91120471Y-98115465D01*
X91278527Y-98181380D01*
X91278774Y-98181492D01*
X91441504Y-98259990D01*
X91441740Y-98260111D01*
X91594939Y-98344281D01*
X91595228Y-98344453D01*
X91724686Y-98427385D01*
X91724910Y-98427537D01*
X91738978Y-98437664D01*
X91739249Y-98437874D01*
X91992795Y-98648206D01*
X91993259Y-98648644D01*
X92213132Y-98884386D01*
X92213547Y-98884893D01*
X92400356Y-99146852D01*
X92400695Y-99147399D01*
X92555053Y-99436383D01*
X92555258Y-99436816D01*
X92628043Y-99611522D01*
X92628153Y-99611810D01*
X92655053Y-99689564D01*
X92655108Y-99689731D01*
X92684229Y-99784521D01*
X92684262Y-99784634D01*
X92712657Y-99885454D01*
X92712686Y-99885560D01*
X92737410Y-99981403D01*
X92737444Y-99981546D01*
X92755550Y-100061404D01*
X92755610Y-100061712D01*
X92764152Y-100114580D01*
X92764211Y-100115145D01*
X92764514Y-100121642D01*
X92764463Y-100122621D01*
X92764223Y-100123571D01*
X92763801Y-100124456D01*
X92763215Y-100125242D01*
X92762488Y-100125898D01*
X92761903Y-100126270D01*
X92754210Y-100130442D01*
X92753306Y-100130823D01*
X92752583Y-100130989D01*
X92728175Y-100134727D01*
X92727803Y-100134770D01*
X92684760Y-100138095D01*
X92684605Y-100138105D01*
X92621008Y-100141038D01*
X92620927Y-100141041D01*
X92534856Y-100143602D01*
X92534807Y-100143603D01*
X92424341Y-100145813D01*
X92424310Y-100145814D01*
X92287531Y-100147694D01*
X92287510Y-100147694D01*
X92122497Y-100149263D01*
X92122482Y-100149263D01*
X91927317Y-100150543D01*
X91927306Y-100150543D01*
X91700067Y-100151554D01*
X91700060Y-100151554D01*
X91438828Y-100152318D01*
X91438822Y-100152318D01*
X91141677Y-100152853D01*
X91141673Y-100152853D01*
X90806697Y-100153182D01*
X90806694Y-100153182D01*
X90431965Y-100153324D01*
X90431963Y-100153324D01*
X90293347Y-100153334D01*
X87827027Y-100153334D01*
X87826052Y-100153238D01*
X87825114Y-100152954D01*
X87824249Y-100152492D01*
X87823492Y-100151870D01*
X87822870Y-100151112D01*
X87822408Y-100150248D01*
X87822123Y-100149310D01*
X87822027Y-100148334D01*
X87822136Y-100147295D01*
X87832258Y-100099670D01*
X87832296Y-100099504D01*
X87906962Y-99798902D01*
X87907079Y-99798503D01*
X87997529Y-99531506D01*
X87997717Y-99531033D01*
X88107473Y-99290726D01*
X88107736Y-99290227D01*
X88240321Y-99069696D01*
X88240635Y-99069233D01*
X88399571Y-98861562D01*
X88399856Y-98861222D01*
X88542371Y-98705770D01*
X88542699Y-98705445D01*
X88712508Y-98551501D01*
X88712892Y-98551186D01*
X88907503Y-98407162D01*
X88907862Y-98406919D01*
X89117820Y-98278103D01*
X89118192Y-98277896D01*
X89334041Y-98169577D01*
X89334472Y-98169386D01*
X89546756Y-98086853D01*
X89547303Y-98086676D01*
X89738186Y-98036761D01*
X89738529Y-98036684D01*
X89806709Y-98023893D01*
X89812855Y-97799608D01*
X89785363Y-97758462D01*
X89757606Y-97706533D01*
X89735074Y-97652134D01*
X89717981Y-97595788D01*
X89706494Y-97538038D01*
X89700723Y-97479441D01*
X89700723Y-97420559D01*
X89706494Y-97361962D01*
X89717981Y-97304212D01*
X89735074Y-97247866D01*
X89757606Y-97193467D01*
X89785363Y-97141538D01*
X89818075Y-97092580D01*
X89855429Y-97047065D01*
X89897065Y-97005429D01*
X89942580Y-96968075D01*
X89991538Y-96935363D01*
X90043467Y-96907606D01*
X90097866Y-96885074D01*
X90154212Y-96867981D01*
X90211962Y-96856494D01*
X90270559Y-96850723D01*
X90329441Y-96850723D01*
X90388038Y-96856494D01*
G37*
G36*
X90280792Y-100782715D02*
G01*
X90280793Y-100782715D01*
X90599634Y-100783639D01*
X90599638Y-100783639D01*
X90906649Y-100784758D01*
X90906653Y-100784758D01*
X91199182Y-100786051D01*
X91199186Y-100786051D01*
X91474582Y-100787496D01*
X91474587Y-100787496D01*
X91730197Y-100789073D01*
X91730202Y-100789073D01*
X91963376Y-100790758D01*
X91963383Y-100790758D01*
X92171468Y-100792530D01*
X92171476Y-100792530D01*
X92351821Y-100794369D01*
X92351833Y-100794369D01*
X92501786Y-100796251D01*
X92501804Y-100796252D01*
X92618713Y-100798157D01*
X92618749Y-100798157D01*
X92699962Y-100800062D01*
X92700065Y-100800066D01*
X92742932Y-100801951D01*
X92743453Y-100802001D01*
X92749683Y-100802934D01*
X92750633Y-100803174D01*
X92751518Y-100803594D01*
X92752305Y-100804179D01*
X92752962Y-100804906D01*
X92753465Y-100805748D01*
X92753794Y-100806671D01*
X92753934Y-100807594D01*
X92755454Y-100834237D01*
X92755391Y-100835361D01*
X92745459Y-100893727D01*
X92745399Y-100894026D01*
X92726284Y-100975791D01*
X92726244Y-100975951D01*
X92700212Y-101072789D01*
X92700177Y-101072911D01*
X92669499Y-101176497D01*
X92669461Y-101176618D01*
X92636403Y-101278628D01*
X92636351Y-101278781D01*
X92603181Y-101370890D01*
X92603132Y-101371022D01*
X92595085Y-101391533D01*
X92594935Y-101391875D01*
X92462282Y-101667498D01*
X92461965Y-101668061D01*
X92292975Y-101927206D01*
X92292608Y-101927700D01*
X92091554Y-102165854D01*
X92091137Y-102166292D01*
X91862289Y-102378940D01*
X91861816Y-102379328D01*
X91609446Y-102561956D01*
X91608927Y-102562285D01*
X91355251Y-102701990D01*
X91354815Y-102702203D01*
X91244796Y-102749522D01*
X91244587Y-102749606D01*
X91107393Y-102801443D01*
X91107241Y-102801498D01*
X90956931Y-102852783D01*
X90956787Y-102852830D01*
X90824684Y-102893482D01*
X90815490Y-102914539D01*
X90805951Y-102976889D01*
X90797340Y-103076267D01*
X90795348Y-103112669D01*
X90814637Y-103141538D01*
X90842394Y-103193467D01*
X90864926Y-103247866D01*
X90882019Y-103304212D01*
X90893506Y-103361962D01*
X90899277Y-103420559D01*
X90899277Y-103479441D01*
X90893506Y-103538038D01*
X90882019Y-103595788D01*
X90864926Y-103652134D01*
X90842394Y-103706533D01*
X90814637Y-103758462D01*
X90781925Y-103807420D01*
X90744571Y-103852935D01*
X90702935Y-103894571D01*
X90657420Y-103931925D01*
X90608462Y-103964637D01*
X90556533Y-103992394D01*
X90502134Y-104014926D01*
X90445788Y-104032019D01*
X90388038Y-104043506D01*
X90329441Y-104049277D01*
X90270559Y-104049277D01*
X90211962Y-104043506D01*
X90154212Y-104032019D01*
X90097866Y-104014926D01*
X90043467Y-103992394D01*
X89991538Y-103964637D01*
X89942580Y-103931925D01*
X89897065Y-103894571D01*
X89855429Y-103852935D01*
X89818075Y-103807420D01*
X89785363Y-103758462D01*
X89757606Y-103706533D01*
X89735074Y-103652134D01*
X89717981Y-103595788D01*
X89706494Y-103538038D01*
X89700723Y-103479441D01*
X89700723Y-103420559D01*
X89706494Y-103361962D01*
X89717981Y-103304212D01*
X89735074Y-103247866D01*
X89757606Y-103193467D01*
X89785363Y-103141538D01*
X89809537Y-103105358D01*
X89802055Y-102898489D01*
X89657492Y-102860892D01*
X89657165Y-102860795D01*
X89364054Y-102762823D01*
X89363426Y-102762564D01*
X89085121Y-102625180D01*
X89084548Y-102624849D01*
X88821833Y-102448581D01*
X88821335Y-102448199D01*
X88574989Y-102233578D01*
X88574571Y-102233169D01*
X88345377Y-101980724D01*
X88345186Y-101980501D01*
X88329208Y-101960681D01*
X88329109Y-101960554D01*
X88219924Y-101815786D01*
X88219716Y-101815489D01*
X88128249Y-101673928D01*
X88128027Y-101673548D01*
X88050662Y-101527009D01*
X88050472Y-101526606D01*
X87983597Y-101366903D01*
X87983463Y-101366545D01*
X87923464Y-101185491D01*
X87923382Y-101185219D01*
X87866645Y-100974629D01*
X87866608Y-100974480D01*
X87835183Y-100841784D01*
X87835173Y-100841743D01*
X87821695Y-100782624D01*
X87821572Y-100781652D01*
X87821641Y-100780674D01*
X87821899Y-100779729D01*
X87822337Y-100778852D01*
X87822938Y-100778077D01*
X87823678Y-100777434D01*
X87824529Y-100776949D01*
X87825459Y-100776638D01*
X87826583Y-100776513D01*
X90280792Y-100782715D01*
G37*
G36*
X82438038Y-104806494D02*
G01*
X82495788Y-104817981D01*
X82552134Y-104835074D01*
X82606533Y-104857606D01*
X82658462Y-104885363D01*
X82707420Y-104918075D01*
X82752935Y-104955429D01*
X82794571Y-104997065D01*
X82831925Y-105042580D01*
X82864637Y-105091538D01*
X82892394Y-105143467D01*
X82914926Y-105197866D01*
X82932019Y-105254212D01*
X82943506Y-105311962D01*
X82949277Y-105370559D01*
X82949277Y-105429441D01*
X82943506Y-105488038D01*
X82932019Y-105545788D01*
X82914926Y-105602134D01*
X82892394Y-105656533D01*
X82864637Y-105708462D01*
X82843589Y-105739963D01*
X82852024Y-105969707D01*
X83030699Y-106018838D01*
X83030955Y-106018916D01*
X83170128Y-106065337D01*
X83170471Y-106065465D01*
X83328527Y-106131380D01*
X83328774Y-106131492D01*
X83491504Y-106209990D01*
X83491740Y-106210111D01*
X83644939Y-106294281D01*
X83645228Y-106294453D01*
X83774686Y-106377385D01*
X83774910Y-106377537D01*
X83788978Y-106387664D01*
X83789249Y-106387874D01*
X84042795Y-106598206D01*
X84043259Y-106598644D01*
X84263132Y-106834386D01*
X84263547Y-106834893D01*
X84450356Y-107096852D01*
X84450695Y-107097399D01*
X84605053Y-107386383D01*
X84605258Y-107386816D01*
X84678043Y-107561522D01*
X84678153Y-107561810D01*
X84705053Y-107639564D01*
X84705108Y-107639731D01*
X84734229Y-107734521D01*
X84734262Y-107734634D01*
X84762657Y-107835454D01*
X84762686Y-107835560D01*
X84787410Y-107931403D01*
X84787444Y-107931546D01*
X84805550Y-108011404D01*
X84805610Y-108011712D01*
X84814152Y-108064580D01*
X84814211Y-108065145D01*
X84814514Y-108071642D01*
X84814463Y-108072621D01*
X84814223Y-108073571D01*
X84813801Y-108074456D01*
X84813215Y-108075242D01*
X84812488Y-108075898D01*
X84811903Y-108076270D01*
X84804210Y-108080442D01*
X84803306Y-108080823D01*
X84802583Y-108080989D01*
X84778175Y-108084727D01*
X84777803Y-108084770D01*
X84734760Y-108088095D01*
X84734605Y-108088105D01*
X84671008Y-108091038D01*
X84670927Y-108091041D01*
X84584856Y-108093602D01*
X84584807Y-108093603D01*
X84474341Y-108095813D01*
X84474310Y-108095814D01*
X84337531Y-108097694D01*
X84337510Y-108097694D01*
X84172497Y-108099263D01*
X84172482Y-108099263D01*
X83977317Y-108100543D01*
X83977306Y-108100543D01*
X83750067Y-108101554D01*
X83750060Y-108101554D01*
X83488828Y-108102318D01*
X83488822Y-108102318D01*
X83191677Y-108102853D01*
X83191673Y-108102853D01*
X82856697Y-108103182D01*
X82856694Y-108103182D01*
X82481965Y-108103324D01*
X82481963Y-108103324D01*
X82343347Y-108103334D01*
X79877027Y-108103334D01*
X79876052Y-108103238D01*
X79875114Y-108102954D01*
X79874249Y-108102492D01*
X79873492Y-108101870D01*
X79872870Y-108101112D01*
X79872408Y-108100248D01*
X79872123Y-108099310D01*
X79872027Y-108098334D01*
X79872136Y-108097295D01*
X79882258Y-108049670D01*
X79882296Y-108049504D01*
X79956962Y-107748902D01*
X79957079Y-107748503D01*
X80047529Y-107481506D01*
X80047717Y-107481033D01*
X80157473Y-107240726D01*
X80157736Y-107240227D01*
X80290321Y-107019696D01*
X80290635Y-107019233D01*
X80449571Y-106811562D01*
X80449856Y-106811222D01*
X80592371Y-106655770D01*
X80592699Y-106655445D01*
X80762508Y-106501501D01*
X80762892Y-106501186D01*
X80957503Y-106357162D01*
X80957862Y-106356919D01*
X81167820Y-106228103D01*
X81168192Y-106227896D01*
X81384041Y-106119577D01*
X81384472Y-106119386D01*
X81596756Y-106036853D01*
X81597303Y-106036676D01*
X81788186Y-105986761D01*
X81788529Y-105986684D01*
X81856709Y-105973893D01*
X81862855Y-105749608D01*
X81835363Y-105708462D01*
X81807606Y-105656533D01*
X81785074Y-105602134D01*
X81767981Y-105545788D01*
X81756494Y-105488038D01*
X81750723Y-105429441D01*
X81750723Y-105370559D01*
X81756494Y-105311962D01*
X81767981Y-105254212D01*
X81785074Y-105197866D01*
X81807606Y-105143467D01*
X81835363Y-105091538D01*
X81868075Y-105042580D01*
X81905429Y-104997065D01*
X81947065Y-104955429D01*
X81992580Y-104918075D01*
X82041538Y-104885363D01*
X82093467Y-104857606D01*
X82147866Y-104835074D01*
X82204212Y-104817981D01*
X82261962Y-104806494D01*
X82320559Y-104800723D01*
X82379441Y-104800723D01*
X82438038Y-104806494D01*
G37*
G36*
X82330792Y-108732715D02*
G01*
X82330793Y-108732715D01*
X82649634Y-108733639D01*
X82649638Y-108733639D01*
X82956649Y-108734758D01*
X82956653Y-108734758D01*
X83249182Y-108736051D01*
X83249186Y-108736051D01*
X83524582Y-108737496D01*
X83524587Y-108737496D01*
X83780197Y-108739073D01*
X83780202Y-108739073D01*
X84013376Y-108740758D01*
X84013383Y-108740758D01*
X84221468Y-108742530D01*
X84221476Y-108742530D01*
X84401821Y-108744369D01*
X84401833Y-108744369D01*
X84551786Y-108746251D01*
X84551804Y-108746252D01*
X84668713Y-108748157D01*
X84668749Y-108748157D01*
X84749962Y-108750062D01*
X84750065Y-108750066D01*
X84792932Y-108751951D01*
X84793453Y-108752001D01*
X84799683Y-108752934D01*
X84800633Y-108753174D01*
X84801518Y-108753594D01*
X84802305Y-108754179D01*
X84802962Y-108754906D01*
X84803465Y-108755748D01*
X84803794Y-108756671D01*
X84803934Y-108757594D01*
X84805454Y-108784237D01*
X84805391Y-108785361D01*
X84795459Y-108843727D01*
X84795399Y-108844026D01*
X84776284Y-108925791D01*
X84776244Y-108925951D01*
X84750212Y-109022789D01*
X84750177Y-109022911D01*
X84719499Y-109126497D01*
X84719461Y-109126618D01*
X84686403Y-109228628D01*
X84686351Y-109228781D01*
X84653181Y-109320890D01*
X84653132Y-109321022D01*
X84645085Y-109341533D01*
X84644935Y-109341875D01*
X84512282Y-109617498D01*
X84511965Y-109618061D01*
X84342975Y-109877206D01*
X84342608Y-109877700D01*
X84141554Y-110115854D01*
X84141137Y-110116292D01*
X83912289Y-110328940D01*
X83911816Y-110329328D01*
X83659446Y-110511956D01*
X83658927Y-110512285D01*
X83405251Y-110651990D01*
X83404815Y-110652203D01*
X83294796Y-110699522D01*
X83294587Y-110699606D01*
X83157393Y-110751443D01*
X83157241Y-110751498D01*
X83006931Y-110802783D01*
X83006787Y-110802830D01*
X82874684Y-110843482D01*
X82865490Y-110864539D01*
X82855951Y-110926889D01*
X82847340Y-111026267D01*
X82845348Y-111062669D01*
X82864637Y-111091538D01*
X82892394Y-111143467D01*
X82914926Y-111197866D01*
X82932019Y-111254212D01*
X82943506Y-111311962D01*
X82949277Y-111370559D01*
X82949277Y-111429441D01*
X82943506Y-111488038D01*
X82932019Y-111545788D01*
X82914926Y-111602134D01*
X82892394Y-111656533D01*
X82864637Y-111708462D01*
X82831925Y-111757420D01*
X82794571Y-111802935D01*
X82752935Y-111844571D01*
X82707420Y-111881925D01*
X82658462Y-111914637D01*
X82606533Y-111942394D01*
X82552134Y-111964926D01*
X82495788Y-111982019D01*
X82438038Y-111993506D01*
X82379441Y-111999277D01*
X82320559Y-111999277D01*
X82261962Y-111993506D01*
X82204212Y-111982019D01*
X82147866Y-111964926D01*
X82093467Y-111942394D01*
X82041538Y-111914637D01*
X81992580Y-111881925D01*
X81947065Y-111844571D01*
X81905429Y-111802935D01*
X81868075Y-111757420D01*
X81835363Y-111708462D01*
X81807606Y-111656533D01*
X81785074Y-111602134D01*
X81767981Y-111545788D01*
X81756494Y-111488038D01*
X81750723Y-111429441D01*
X81750723Y-111370559D01*
X81756494Y-111311962D01*
X81767981Y-111254212D01*
X81785074Y-111197866D01*
X81807606Y-111143467D01*
X81835363Y-111091538D01*
X81859537Y-111055358D01*
X81852055Y-110848489D01*
X81707492Y-110810892D01*
X81707165Y-110810795D01*
X81414054Y-110712823D01*
X81413426Y-110712564D01*
X81135121Y-110575180D01*
X81134548Y-110574849D01*
X80871833Y-110398581D01*
X80871335Y-110398199D01*
X80624989Y-110183578D01*
X80624571Y-110183169D01*
X80395377Y-109930724D01*
X80395186Y-109930501D01*
X80379208Y-109910681D01*
X80379109Y-109910554D01*
X80269924Y-109765786D01*
X80269716Y-109765489D01*
X80178249Y-109623928D01*
X80178027Y-109623548D01*
X80100662Y-109477009D01*
X80100472Y-109476606D01*
X80033597Y-109316903D01*
X80033463Y-109316545D01*
X79973464Y-109135491D01*
X79973382Y-109135219D01*
X79916645Y-108924629D01*
X79916608Y-108924480D01*
X79885183Y-108791784D01*
X79885173Y-108791743D01*
X79871695Y-108732624D01*
X79871572Y-108731652D01*
X79871641Y-108730674D01*
X79871899Y-108729729D01*
X79872337Y-108728852D01*
X79872938Y-108728077D01*
X79873678Y-108727434D01*
X79874529Y-108726949D01*
X79875459Y-108726638D01*
X79876583Y-108726513D01*
X82330792Y-108732715D01*
G37*
D29*
X135500000Y-65600000D03*
X137400000Y-65600000D03*
X121550000Y-75000000D03*
X123450000Y-75000000D03*
X127550000Y-74000000D03*
X129450000Y-74000000D03*
X166150000Y-100550000D03*
X168050000Y-100550000D03*
X69950000Y-97000000D03*
X68050000Y-97000000D03*
D30*
X91260000Y-55910000D03*
X91260000Y-54010000D03*
X93010000Y-55910000D03*
X93010000Y-54010000D03*
D29*
X93500000Y-67900000D03*
X91600000Y-67900000D03*
X97050000Y-74300000D03*
X95150000Y-74300000D03*
X93500000Y-71000000D03*
X91600000Y-71000000D03*
D28*
X165400000Y-92400000D03*
D31*
X167940000Y-92400000D03*
D28*
X54050000Y-89800000D03*
D31*
X54050000Y-92340000D03*
D32*
X169100000Y-105900000D03*
D33*
X167100000Y-105900000D03*
X165100000Y-105900000D03*
X163100000Y-105900000D03*
M02*
