G04 #@! TF.GenerationSoftware,KiCad,Pcbnew,(6.0.1)*
G04 #@! TF.CreationDate,2022-02-21T08:53:05-08:00*
G04 #@! TF.ProjectId,PhobGCC,50686f62-4743-4432-9e6b-696361645f70,rev?*
G04 #@! TF.SameCoordinates,Original*
G04 #@! TF.FileFunction,Soldermask,Bot*
G04 #@! TF.FilePolarity,Negative*
%FSLAX46Y46*%
G04 Gerber Fmt 4.6, Leading zero omitted, Abs format (unit mm)*
G04 Created by KiCad (PCBNEW (6.0.1)) date 2022-02-21 08:53:05*
%MOMM*%
%LPD*%
G01*
G04 APERTURE LIST*
G04 Aperture macros list*
%AMRoundRect*
0 Rectangle with rounded corners*
0 $1 Rounding radius*
0 $2 $3 $4 $5 $6 $7 $8 $9 X,Y pos of 4 corners*
0 Add a 4 corners polygon primitive as box body*
4,1,4,$2,$3,$4,$5,$6,$7,$8,$9,$2,$3,0*
0 Add four circle primitives for the rounded corners*
1,1,$1+$1,$2,$3*
1,1,$1+$1,$4,$5*
1,1,$1+$1,$6,$7*
1,1,$1+$1,$8,$9*
0 Add four rect primitives between the rounded corners*
20,1,$1+$1,$2,$3,$4,$5,0*
20,1,$1+$1,$4,$5,$6,$7,0*
20,1,$1+$1,$6,$7,$8,$9,0*
20,1,$1+$1,$8,$9,$2,$3,0*%
%AMHorizOval*
0 Thick line with rounded ends*
0 $1 width*
0 $2 $3 position (X,Y) of the first rounded end (center of the circle)*
0 $4 $5 position (X,Y) of the second rounded end (center of the circle)*
0 Add line between two ends*
20,1,$1,$2,$3,$4,$5,0*
0 Add two circle primitives to create the rounded ends*
1,1,$1,$2,$3*
1,1,$1,$4,$5*%
G04 Aperture macros list end*
%ADD10C,1.498000*%
%ADD11RoundRect,0.200000X-0.423205X-0.333013X-0.076795X-0.533013X0.423205X0.333013X0.076795X0.533013X0*%
%ADD12C,1.600000*%
%ADD13HorizOval,1.600000X-0.026168X-0.499315X0.026168X0.499315X0*%
%ADD14C,2.000000*%
%ADD15HorizOval,2.800000X-0.568661X0.191376X0.568661X-0.191376X0*%
%ADD16HorizOval,0.800000X-0.018318X-0.349520X0.018318X0.349520X0*%
%ADD17HorizOval,0.800000X-0.349520X0.018318X0.349520X-0.018318X0*%
%ADD18R,1.700000X1.700000*%
%ADD19R,1.600000X1.600000*%
%ADD20C,5.200000*%
%ADD21C,1.800000*%
%ADD22C,2.400000*%
%ADD23C,2.200000*%
%ADD24O,2.800000X2.200000*%
%ADD25O,1.700000X1.700000*%
%ADD26O,1.600000X2.500000*%
%ADD27C,1.400000*%
%ADD28R,1.350000X1.350000*%
%ADD29O,1.350000X1.350000*%
%ADD30R,1.400000X1.400000*%
%ADD31O,1.400000X1.400000*%
%ADD32R,1.350000X0.400000*%
%ADD33O,1.550000X1.000000*%
%ADD34O,0.950000X1.250000*%
G04 APERTURE END LIST*
D10*
X160802886Y-61650000D03*
X164700000Y-63900000D03*
D11*
X159248111Y-58442949D03*
X168254775Y-63642949D03*
X166262917Y-62492949D03*
X161239969Y-59592949D03*
D12*
X71131628Y-83616071D03*
X71678538Y-73180393D03*
D13*
X64368635Y-83687221D03*
X78441531Y-73109243D03*
D14*
X71261159Y-81144463D03*
X71549007Y-75652001D03*
D15*
X77040155Y-84181074D03*
X65770011Y-72615390D03*
D16*
X73228104Y-67879226D03*
X71959844Y-67812759D03*
X70691585Y-67746292D03*
D17*
X60886077Y-76575211D03*
X60819610Y-77843471D03*
X60753143Y-79111730D03*
D12*
X68427018Y-87454784D03*
X70923592Y-87585624D03*
X73420166Y-87716464D03*
X80461635Y-81376297D03*
X80592475Y-78879723D03*
X80723315Y-76383149D03*
D18*
X119500000Y-52500000D03*
D19*
X129120000Y-56150000D03*
D12*
X126580000Y-56150000D03*
X124040000Y-56150000D03*
X121500000Y-56150000D03*
X118960000Y-56150000D03*
X116420000Y-56150000D03*
X113880000Y-56150000D03*
X111340000Y-56150000D03*
X108800000Y-56150000D03*
X106260000Y-56150000D03*
X103720000Y-56150000D03*
X101180000Y-56150000D03*
X98640000Y-56150000D03*
X96100000Y-56150000D03*
X96100000Y-61230000D03*
X96100000Y-63770000D03*
X96100000Y-71390000D03*
X98640000Y-71390000D03*
X101180000Y-71390000D03*
X103720000Y-71390000D03*
X106260000Y-71390000D03*
X108800000Y-71390000D03*
X111340000Y-71390000D03*
X113880000Y-71390000D03*
X116420000Y-71390000D03*
X118960000Y-71390000D03*
X121500000Y-71390000D03*
X124040000Y-71390000D03*
X126580000Y-71390000D03*
X129120000Y-71390000D03*
X121500000Y-68850000D03*
X127850000Y-64000000D03*
X127850000Y-61870000D03*
D20*
X75600000Y-98400000D03*
D14*
X57600000Y-87900000D03*
D21*
X106000000Y-78400000D03*
X119200000Y-78400000D03*
D22*
X159600000Y-68400000D03*
D14*
X167600000Y-87900000D03*
D18*
X112400000Y-52900000D03*
D23*
X60616622Y-67616621D03*
D24*
X172400000Y-103400000D03*
D23*
X82183378Y-89183378D03*
D18*
X54050000Y-89800000D03*
D25*
X54050000Y-87260000D03*
D18*
X165400000Y-92400000D03*
D25*
X167940000Y-92400000D03*
D26*
X133250000Y-74900000D03*
X141950000Y-74900000D03*
D27*
X140000000Y-63400000D03*
X137600000Y-63400000D03*
X135200000Y-63400000D03*
D26*
X91950000Y-74900000D03*
X83250000Y-74900000D03*
D27*
X90000000Y-63400000D03*
X87600000Y-63400000D03*
X85200000Y-63400000D03*
D28*
X169100000Y-105900000D03*
D29*
X167100000Y-105900000D03*
X165100000Y-105900000D03*
X163100000Y-105900000D03*
D30*
X105600000Y-52900000D03*
D31*
X103600000Y-52900000D03*
X101600000Y-52900000D03*
X99600000Y-52900000D03*
X97600000Y-52900000D03*
X95600000Y-52900000D03*
D32*
X171000000Y-96300000D03*
X171000000Y-96950000D03*
X171000000Y-97600000D03*
X171000000Y-98250000D03*
X171000000Y-98900000D03*
D33*
X173700000Y-101100000D03*
D34*
X171000000Y-100100000D03*
X171000000Y-95100000D03*
D33*
X173700000Y-94100000D03*
M02*
