%FSLAX45Y45*%
G04 Gerber Fmt 4.5, Leading zero omitted, Abs format (unit mm)*
G04 Created by KiCad (PCBNEW (6.0.1)) date 2022-02-21 08:37:18*
%MOMM*%
%LPD*%
G01*
G04 APERTURE LIST*
%TA.AperFunction,Profile*%
%ADD10C,0.050000*%
%TD*%
%TA.AperFunction,Profile*%
%ADD11C,0.100000*%
%TD*%
%ADD12C,0.200000*%
%ADD13C,0.040000*%
%ADD14C,0.050000*%
%ADD15C,0.055000*%
%ADD16C,0.060000*%
%ADD17C,0.080000*%
%ADD18C,0.099000*%
%ADD19C,0.100000*%
%ADD20C,0.110000*%
%ADD21C,0.180000*%
G04 APERTURE END LIST*
D10*
X8570000Y-6100000D02*
X8570000Y-5840000D01*
X13570000Y-6100000D02*
X13570000Y-5840000D01*
D11*
X16166099Y-10760711D02*
X17394289Y-10760711D01*
X16669789Y-6273213D02*
X16709667Y-6203861D01*
X5156421Y-10711421D02*
G75*
G03*
X5227132Y-10740711I70711J70711D01*
G01*
X15220711Y-9840711D02*
X15220711Y-10119289D01*
X15362132Y-10260711D02*
X15574491Y-10260711D01*
X16007473Y-5800099D02*
X15683857Y-5614020D01*
X16669789Y-6273213D02*
G75*
G03*
X16782487Y-6338014I56349J-32401D01*
G01*
D10*
X13570000Y-5840000D02*
X13950000Y-5840000D01*
D11*
X6116445Y-5944687D02*
G75*
G03*
X4985711Y-7840710I1024266J-1896023D01*
G01*
X17465000Y-10731421D02*
X17506421Y-10690000D01*
X16120171Y-5864900D02*
X16080293Y-5934253D01*
D10*
X8950000Y-6100000D02*
X8570000Y-6100000D01*
D11*
X13210711Y-8678130D02*
G75*
G03*
X13135962Y-8581370I-100000J0D01*
G01*
X9332099Y-8595508D02*
G75*
G03*
X9260886Y-8715648I25969J-96569D01*
G01*
X8400711Y-5340711D02*
G75*
G03*
X8920711Y-5340711I260000J0D01*
G01*
X8920711Y-5145096D02*
X8920711Y-5340711D01*
X8950000Y-5074386D02*
G75*
G03*
X8920711Y-5145096I70710J-70710D01*
G01*
X16860711Y-6290711D02*
X16822365Y-6268662D01*
X13281421Y-9211421D02*
G75*
G03*
X13352132Y-9240711I70711J70711D01*
G01*
X13135962Y-8581370D02*
G75*
G03*
X9332099Y-8595508I-1875251J-7185770D01*
G01*
X13673732Y-5521373D02*
G75*
G03*
X13860711Y-5600711I186979J180663D01*
G01*
X13240000Y-9170000D02*
X13281421Y-9211421D01*
X4985711Y-7840711D02*
X4985711Y-10499289D01*
X12260711Y-5145096D02*
G75*
G03*
X12231421Y-5074386I-99999J0D01*
G01*
X15250000Y-10190000D02*
X15291421Y-10231421D01*
X17535711Y-7640711D02*
G75*
G03*
X16860711Y-6290711I-1687500J0D01*
G01*
X7677994Y-5258012D02*
G75*
G03*
X7644355Y-5263840I0J-100002D01*
G01*
X8991421Y-5032964D02*
X8950000Y-5074386D01*
X14433600Y-9557442D02*
G75*
G03*
X13560711Y-9240711I-872889J-1044446D01*
G01*
X14433600Y-9557442D02*
G75*
G03*
X14497727Y-9580711I64128J76732D01*
G01*
X16822365Y-6268662D02*
X16782487Y-6338014D01*
D10*
X13950000Y-5840000D02*
X13950000Y-6100000D01*
D11*
X12260711Y-5349438D02*
X12260711Y-5145096D01*
X12331421Y-5461570D02*
G75*
G03*
X12402132Y-5490859I70710J70710D01*
G01*
X8400711Y-5258012D02*
X7677994Y-5258012D01*
X5227132Y-10740711D02*
X6317745Y-10740711D01*
X12231421Y-5074386D02*
X12190000Y-5032964D01*
X7580710Y-10840711D02*
G75*
G03*
X6413529Y-10669440I-596157J0D01*
G01*
D10*
X8570000Y-5840000D02*
X8950000Y-5840000D01*
D11*
X16067498Y-10677377D02*
G75*
G03*
X15574491Y-10260711I-493007J-83333D01*
G01*
X16709667Y-6203861D02*
X16120171Y-5864900D01*
X12260711Y-5349438D02*
G75*
G03*
X12290000Y-5420148I99999J0D01*
G01*
X13210711Y-8678130D02*
X13210711Y-9099289D01*
X7580710Y-10840711D02*
G75*
G03*
X9897154Y-9678052I1450000J0D01*
G01*
X9062132Y-5003675D02*
G75*
G03*
X8991421Y-5032964I0J-99999D01*
G01*
X8400711Y-5340711D02*
X8400711Y-5258012D01*
X15291421Y-10231421D02*
G75*
G03*
X15362132Y-10260711I70711J70711D01*
G01*
X13601817Y-5490859D02*
X12402132Y-5490859D01*
X7644355Y-5263839D02*
G75*
G03*
X6116444Y-5944687I3700355J-10358910D01*
G01*
X17535711Y-10619289D02*
X17535711Y-7640711D01*
X15220711Y-10119289D02*
G75*
G03*
X15250000Y-10190000I99999J0D01*
G01*
X16067498Y-10677377D02*
G75*
G03*
X16166099Y-10760711I98601J16667D01*
G01*
X12119289Y-5003675D02*
X9062132Y-5003675D01*
X15634010Y-5600711D02*
X13860711Y-5600711D01*
D10*
X8950000Y-5840000D02*
X8950000Y-6100000D01*
D11*
X5015000Y-10570000D02*
X5156421Y-10711421D01*
X15967595Y-5869452D02*
X16007473Y-5800099D01*
X15967595Y-5869452D02*
G75*
G03*
X16080293Y-5934253I56349J-32401D01*
G01*
D10*
X13950000Y-6100000D02*
X13570000Y-6100000D01*
D11*
X17394289Y-10760711D02*
G75*
G03*
X17465000Y-10731421I0J99999D01*
G01*
X17506421Y-10690000D02*
G75*
G03*
X17535711Y-10619289I-70711J70711D01*
G01*
X12190000Y-5032964D02*
G75*
G03*
X12119289Y-5003675I-70711J-70711D01*
G01*
X9260887Y-8715648D02*
G75*
G03*
X9897154Y-9678052I1652099J400714D01*
G01*
X15220711Y-9840711D02*
G75*
G03*
X14960711Y-9580711I-260000J0D01*
G01*
X13673732Y-5521373D02*
G75*
G03*
X13601817Y-5490859I-71915J-69485D01*
G01*
X15683857Y-5614020D02*
G75*
G03*
X15634010Y-5600711I-49847J-86689D01*
G01*
X12331421Y-5461570D02*
X12290000Y-5420148D01*
X6317745Y-10740711D02*
G75*
G03*
X6413529Y-10669440I0J100000D01*
G01*
X14497727Y-9580711D02*
X14960711Y-9580711D01*
X13210711Y-9099289D02*
G75*
G03*
X13240000Y-9170000I99999J0D01*
G01*
X4985711Y-10499289D02*
G75*
G03*
X5015000Y-10570000I99999J0D01*
G01*
X13352132Y-9240711D02*
X13560711Y-9240711D01*
D12*
D13*
X5255000Y-7900000D02*
X5295000Y-7940000D01*
X5295000Y-7900000D02*
X5255000Y-7940000D01*
X5300000Y-10575000D02*
X5340000Y-10615000D01*
X5340000Y-10575000D02*
X5300000Y-10615000D01*
X6295000Y-7825000D02*
X6335000Y-7865000D01*
X6335000Y-7825000D02*
X6295000Y-7865000D01*
X7620000Y-5410000D02*
X7660000Y-5450000D01*
X7660000Y-5410000D02*
X7620000Y-5450000D01*
X8170000Y-11680000D02*
X8210000Y-11720000D01*
X8210000Y-11680000D02*
X8170000Y-11720000D01*
X8220000Y-11120000D02*
X8260000Y-11160000D01*
X8260000Y-11120000D02*
X8220000Y-11160000D01*
X9010000Y-10330000D02*
X9050000Y-10370000D01*
X9050000Y-10330000D02*
X9010000Y-10370000D01*
X9010000Y-11920000D02*
X9050000Y-11960000D01*
X9050000Y-11920000D02*
X9010000Y-11960000D01*
X9020000Y-6805000D02*
X9060000Y-6845000D01*
X9060000Y-6805000D02*
X9020000Y-6845000D01*
X9025000Y-7080000D02*
X9065000Y-7120000D01*
X9065000Y-7080000D02*
X9025000Y-7120000D01*
X9135000Y-5510000D02*
X9175000Y-5550000D01*
X9175000Y-5510000D02*
X9135000Y-5550000D01*
X9170000Y-6290000D02*
X9210000Y-6330000D01*
X9210000Y-6290000D02*
X9170000Y-6330000D01*
X9210000Y-6560000D02*
X9250000Y-6600000D01*
X9250000Y-6560000D02*
X9210000Y-6600000D01*
X9380000Y-7410000D02*
X9420000Y-7450000D01*
X9420000Y-7410000D02*
X9380000Y-7450000D01*
X9795000Y-11680000D02*
X9835000Y-11720000D01*
X9835000Y-11680000D02*
X9795000Y-11720000D01*
X9810000Y-11120000D02*
X9850000Y-11160000D01*
X9850000Y-11120000D02*
X9810000Y-11160000D01*
X11180000Y-8140000D02*
X11220000Y-8180000D01*
X11220000Y-8140000D02*
X11180000Y-8180000D01*
X11540000Y-6380000D02*
X11580000Y-6420000D01*
X11580000Y-6380000D02*
X11540000Y-6420000D01*
X12455000Y-7485000D02*
X12495000Y-7525000D01*
X12495000Y-7485000D02*
X12455000Y-7525000D01*
X13050000Y-7380000D02*
X13090000Y-7420000D01*
X13090000Y-7380000D02*
X13050000Y-7420000D01*
X13525000Y-6720000D02*
X13565000Y-6760000D01*
X13565000Y-6720000D02*
X13525000Y-6760000D01*
X13845000Y-9015000D02*
X13885000Y-9055000D01*
X13885000Y-9015000D02*
X13845000Y-9055000D01*
X14435000Y-7070000D02*
X14475000Y-7110000D01*
X14475000Y-7070000D02*
X14435000Y-7110000D01*
X14970000Y-6840000D02*
X15010000Y-6880000D01*
X15010000Y-6840000D02*
X14970000Y-6880000D01*
X15365000Y-8245000D02*
X15405000Y-8285000D01*
X15405000Y-8245000D02*
X15365000Y-8285000D01*
X16070000Y-8455000D02*
X16110000Y-8495000D01*
X16110000Y-8455000D02*
X16070000Y-8495000D01*
X16800000Y-7910000D02*
X16840000Y-7950000D01*
X16840000Y-7910000D02*
X16800000Y-7950000D01*
X16905000Y-9630000D02*
X16945000Y-9670000D01*
X16945000Y-9630000D02*
X16905000Y-9670000D01*
X16905000Y-9780000D02*
X16945000Y-9820000D01*
X16945000Y-9780000D02*
X16905000Y-9820000D01*
X17355000Y-9555000D02*
X17395000Y-9595000D01*
X17395000Y-9555000D02*
X17355000Y-9595000D01*
X17400000Y-8155000D02*
X17440000Y-8195000D01*
X17440000Y-8155000D02*
X17400000Y-8195000D01*
D14*
X17395000Y-9410000D02*
G75*
G03*
X17395000Y-9410000I-25000J0D01*
G01*
D12*
X17402500Y-9395000D02*
X17337500Y-9395000D01*
X17402500Y-9425000D02*
X17337500Y-9425000D01*
X17337500Y-9395000D02*
G75*
G03*
X17337500Y-9425000I0J-15000D01*
G01*
X17402500Y-9425000D02*
G75*
G03*
X17402500Y-9395000I0J15000D01*
G01*
D14*
X17395000Y-10110000D02*
G75*
G03*
X17395000Y-10110000I-25000J0D01*
G01*
D12*
X17402500Y-10095000D02*
X17337500Y-10095000D01*
X17402500Y-10125000D02*
X17337500Y-10125000D01*
X17337500Y-10095000D02*
G75*
G03*
X17337500Y-10125000I0J-15000D01*
G01*
X17402500Y-10125000D02*
G75*
G03*
X17402500Y-10095000I0J15000D01*
G01*
D15*
X17100000Y-9482500D02*
X17100000Y-9537500D01*
X17072500Y-9510000D02*
X17127500Y-9510000D01*
D12*
X17082500Y-9495000D02*
X17082500Y-9525000D01*
X17117500Y-9495000D02*
X17117500Y-9525000D01*
X17082500Y-9525000D02*
G75*
G03*
X17117500Y-9525000I17500J0D01*
G01*
X17117500Y-9495000D02*
G75*
G03*
X17082500Y-9495000I-17500J0D01*
G01*
D15*
X17100000Y-9982500D02*
X17100000Y-10037500D01*
X17072500Y-10010000D02*
X17127500Y-10010000D01*
D12*
X17082500Y-9995000D02*
X17082500Y-10025000D01*
X17117500Y-9995000D02*
X17117500Y-10025000D01*
X17082500Y-10025000D02*
G75*
G03*
X17117500Y-10025000I17500J0D01*
G01*
X17117500Y-9995000D02*
G75*
G03*
X17082500Y-9995000I-17500J0D01*
G01*
D16*
X6096528Y-7932386D02*
X6096528Y-7889960D01*
X6054101Y-7889960D01*
X6054101Y-7932386D01*
X6096528Y-7932386D01*
X6103174Y-7805560D02*
X6103174Y-7763134D01*
X6060748Y-7763134D01*
X6060748Y-7805560D01*
X6103174Y-7805560D01*
X6109821Y-7678734D02*
X6109821Y-7636308D01*
X6067394Y-7636308D01*
X6067394Y-7678734D01*
X6109821Y-7678734D01*
X7090372Y-6795843D02*
X7090372Y-6753416D01*
X7047945Y-6753416D01*
X7047945Y-6795843D01*
X7090372Y-6795843D01*
X7217198Y-6802489D02*
X7217198Y-6760062D01*
X7174771Y-6760062D01*
X7174771Y-6802489D01*
X7217198Y-6802489D01*
X7344024Y-6809136D02*
X7344024Y-6766709D01*
X7301597Y-6766709D01*
X7301597Y-6809136D01*
X7344024Y-6809136D01*
D17*
X6436863Y-8408722D02*
X6476863Y-8368722D01*
X6436863Y-8328722D01*
X6396863Y-8368722D01*
X6436863Y-8408722D01*
D12*
X6408998Y-8327207D02*
X6404811Y-8407097D01*
X6468916Y-8330347D02*
X6464729Y-8410237D01*
X6404811Y-8407097D02*
G75*
G03*
X6464729Y-8410237I29959J-1570D01*
G01*
X6468916Y-8330347D02*
G75*
G03*
X6408998Y-8327207I-29959J1570D01*
G01*
D17*
X7844153Y-7350924D02*
X7884153Y-7310924D01*
X7844153Y-7270924D01*
X7804153Y-7310924D01*
X7844153Y-7350924D01*
D12*
X7816288Y-7269409D02*
X7812101Y-7349299D01*
X7876205Y-7272549D02*
X7872018Y-7352440D01*
X7812101Y-7349299D02*
G75*
G03*
X7872019Y-7352440I29959J-1570D01*
G01*
X7876205Y-7272549D02*
G75*
G03*
X7816288Y-7269409I-29959J1570D01*
G01*
D17*
X8325000Y-7530000D02*
X8365000Y-7490000D01*
X8325000Y-7450000D01*
X8285000Y-7490000D01*
X8325000Y-7530000D01*
D12*
X8355000Y-7525000D02*
X8355000Y-7455000D01*
X8295000Y-7525000D02*
X8295000Y-7455000D01*
X8355000Y-7455000D02*
G75*
G03*
X8295000Y-7455000I-30000J0D01*
G01*
X8295000Y-7525000D02*
G75*
G03*
X8355000Y-7525000I30000J0D01*
G01*
D17*
X8520000Y-6380000D02*
X8560000Y-6340000D01*
X8520000Y-6300000D01*
X8480000Y-6340000D01*
X8520000Y-6380000D01*
X8760000Y-6380000D02*
X8800000Y-6340000D01*
X8760000Y-6300000D01*
X8720000Y-6340000D01*
X8760000Y-6380000D01*
X9000000Y-6380000D02*
X9040000Y-6340000D01*
X9000000Y-6300000D01*
X8960000Y-6340000D01*
X9000000Y-6380000D01*
X9195000Y-7530000D02*
X9235000Y-7490000D01*
X9195000Y-7450000D01*
X9155000Y-7490000D01*
X9195000Y-7530000D01*
D12*
X9225000Y-7525000D02*
X9225000Y-7455000D01*
X9165000Y-7525000D02*
X9165000Y-7455000D01*
X9225000Y-7455000D02*
G75*
G03*
X9165000Y-7455000I-30000J0D01*
G01*
X9165000Y-7525000D02*
G75*
G03*
X9225000Y-7525000I30000J0D01*
G01*
D17*
X13325000Y-7530000D02*
X13365000Y-7490000D01*
X13325000Y-7450000D01*
X13285000Y-7490000D01*
X13325000Y-7530000D01*
D12*
X13355000Y-7525000D02*
X13355000Y-7455000D01*
X13295000Y-7525000D02*
X13295000Y-7455000D01*
X13355000Y-7455000D02*
G75*
G03*
X13295000Y-7455000I-30000J0D01*
G01*
X13295000Y-7525000D02*
G75*
G03*
X13355000Y-7525000I30000J0D01*
G01*
D17*
X13520000Y-6380000D02*
X13560000Y-6340000D01*
X13520000Y-6300000D01*
X13480000Y-6340000D01*
X13520000Y-6380000D01*
X13760000Y-6380000D02*
X13800000Y-6340000D01*
X13760000Y-6300000D01*
X13720000Y-6340000D01*
X13760000Y-6380000D01*
X14000000Y-6380000D02*
X14040000Y-6340000D01*
X14000000Y-6300000D01*
X13960000Y-6340000D01*
X14000000Y-6380000D01*
X14195000Y-7530000D02*
X14235000Y-7490000D01*
X14195000Y-7450000D01*
X14155000Y-7490000D01*
X14195000Y-7530000D01*
D12*
X14225000Y-7525000D02*
X14225000Y-7455000D01*
X14165000Y-7525000D02*
X14165000Y-7455000D01*
X14225000Y-7455000D02*
G75*
G03*
X14165000Y-7455000I-30000J0D01*
G01*
X14165000Y-7525000D02*
G75*
G03*
X14225000Y-7525000I30000J0D01*
G01*
D17*
X16310000Y-10630000D02*
X16350000Y-10590000D01*
X16310000Y-10550000D01*
X16270000Y-10590000D01*
X16310000Y-10630000D01*
X16510000Y-10630000D02*
X16550000Y-10590000D01*
X16510000Y-10550000D01*
X16470000Y-10590000D01*
X16510000Y-10630000D01*
X16710000Y-10630000D02*
X16750000Y-10590000D01*
X16710000Y-10550000D01*
X16670000Y-10590000D01*
X16710000Y-10630000D01*
X16910000Y-10630000D02*
X16950000Y-10590000D01*
X16910000Y-10550000D01*
X16870000Y-10590000D01*
X16910000Y-10630000D01*
D18*
X16030789Y-6115500D02*
X16129789Y-6214500D01*
X16129789Y-6115500D02*
X16030789Y-6214500D01*
X16129789Y-6165000D02*
G75*
G03*
X16129789Y-6165000I-49500J0D01*
G01*
X16420500Y-6340500D02*
X16519500Y-6439500D01*
X16519500Y-6340500D02*
X16420500Y-6439500D01*
X16519500Y-6390000D02*
G75*
G03*
X16519500Y-6390000I-49500J0D01*
G01*
D19*
X5355000Y-8676000D02*
X5455000Y-8776000D01*
X5455000Y-8676000D02*
X5355000Y-8776000D01*
X5405000Y-8676000D02*
X5405000Y-8776000D01*
X5355000Y-8726000D02*
X5455000Y-8726000D01*
X5355000Y-8930000D02*
X5455000Y-9030000D01*
X5455000Y-8930000D02*
X5355000Y-9030000D01*
X5405000Y-8930000D02*
X5405000Y-9030000D01*
X5355000Y-8980000D02*
X5455000Y-8980000D01*
X6792702Y-8695478D02*
X6892702Y-8795478D01*
X6892702Y-8695478D02*
X6792702Y-8795478D01*
X6842702Y-8695478D02*
X6842702Y-8795478D01*
X6792702Y-8745478D02*
X6892702Y-8745478D01*
X7042359Y-8708562D02*
X7142359Y-8808562D01*
X7142359Y-8708562D02*
X7042359Y-8808562D01*
X7092359Y-8708562D02*
X7092359Y-8808562D01*
X7042359Y-8758562D02*
X7142359Y-8758562D01*
X7292017Y-8721646D02*
X7392017Y-8821646D01*
X7392017Y-8721646D02*
X7292017Y-8821646D01*
X7342017Y-8721646D02*
X7342017Y-8821646D01*
X7292017Y-8771646D02*
X7392017Y-8771646D01*
X7996163Y-8087630D02*
X8096163Y-8187630D01*
X8096163Y-8087630D02*
X7996163Y-8187630D01*
X8046163Y-8087630D02*
X8046163Y-8187630D01*
X7996163Y-8137630D02*
X8096163Y-8137630D01*
X8009247Y-7837972D02*
X8109247Y-7937972D01*
X8109247Y-7837972D02*
X8009247Y-7937972D01*
X8059247Y-7837972D02*
X8059247Y-7937972D01*
X8009247Y-7887972D02*
X8109247Y-7887972D01*
X8022331Y-7588315D02*
X8122331Y-7688315D01*
X8122331Y-7588315D02*
X8022331Y-7688315D01*
X8072331Y-7588315D02*
X8072331Y-7688315D01*
X8022331Y-7638315D02*
X8122331Y-7638315D01*
X9510000Y-5240000D02*
X9610000Y-5340000D01*
X9610000Y-5240000D02*
X9510000Y-5340000D01*
X9560000Y-5240000D02*
X9560000Y-5340000D01*
X9510000Y-5290000D02*
X9610000Y-5290000D01*
X9710000Y-5240000D02*
X9810000Y-5340000D01*
X9810000Y-5240000D02*
X9710000Y-5340000D01*
X9760000Y-5240000D02*
X9760000Y-5340000D01*
X9710000Y-5290000D02*
X9810000Y-5290000D01*
X9910000Y-5240000D02*
X10010000Y-5340000D01*
X10010000Y-5240000D02*
X9910000Y-5340000D01*
X9960000Y-5240000D02*
X9960000Y-5340000D01*
X9910000Y-5290000D02*
X10010000Y-5290000D01*
X10110000Y-5240000D02*
X10210000Y-5340000D01*
X10210000Y-5240000D02*
X10110000Y-5340000D01*
X10160000Y-5240000D02*
X10160000Y-5340000D01*
X10110000Y-5290000D02*
X10210000Y-5290000D01*
X10310000Y-5240000D02*
X10410000Y-5340000D01*
X10410000Y-5240000D02*
X10310000Y-5340000D01*
X10360000Y-5240000D02*
X10360000Y-5340000D01*
X10310000Y-5290000D02*
X10410000Y-5290000D01*
X10510000Y-5240000D02*
X10610000Y-5340000D01*
X10610000Y-5240000D02*
X10510000Y-5340000D01*
X10560000Y-5240000D02*
X10560000Y-5340000D01*
X10510000Y-5290000D02*
X10610000Y-5290000D01*
X11190000Y-5240000D02*
X11290000Y-5340000D01*
X11290000Y-5240000D02*
X11190000Y-5340000D01*
X11240000Y-5240000D02*
X11240000Y-5340000D01*
X11190000Y-5290000D02*
X11290000Y-5290000D01*
X11900000Y-5200000D02*
X12000000Y-5300000D01*
X12000000Y-5200000D02*
X11900000Y-5300000D01*
X11950000Y-5200000D02*
X11950000Y-5300000D01*
X11900000Y-5250000D02*
X12000000Y-5250000D01*
X16490000Y-9190000D02*
X16590000Y-9290000D01*
X16590000Y-9190000D02*
X16490000Y-9290000D01*
X16540000Y-9190000D02*
X16540000Y-9290000D01*
X16490000Y-9240000D02*
X16590000Y-9240000D01*
X16744000Y-9190000D02*
X16844000Y-9290000D01*
X16844000Y-9190000D02*
X16744000Y-9290000D01*
X16794000Y-9190000D02*
X16794000Y-9290000D01*
X16744000Y-9240000D02*
X16844000Y-9240000D01*
D20*
X9555000Y-5560000D02*
X9665000Y-5670000D01*
X9665000Y-5560000D02*
X9555000Y-5670000D01*
X9648891Y-5653891D02*
X9648891Y-5576109D01*
X9571109Y-5576109D01*
X9571109Y-5653891D01*
X9648891Y-5653891D01*
X9555000Y-6068000D02*
X9665000Y-6178000D01*
X9665000Y-6068000D02*
X9555000Y-6178000D01*
X9648891Y-6161891D02*
X9648891Y-6084109D01*
X9571109Y-6084109D01*
X9571109Y-6161891D01*
X9648891Y-6161891D01*
X9555000Y-6322000D02*
X9665000Y-6432000D01*
X9665000Y-6322000D02*
X9555000Y-6432000D01*
X9648891Y-6415891D02*
X9648891Y-6338109D01*
X9571109Y-6338109D01*
X9571109Y-6415891D01*
X9648891Y-6415891D01*
X9555000Y-7084000D02*
X9665000Y-7194000D01*
X9665000Y-7084000D02*
X9555000Y-7194000D01*
X9648891Y-7177891D02*
X9648891Y-7100109D01*
X9571109Y-7100109D01*
X9571109Y-7177891D01*
X9648891Y-7177891D01*
X9809000Y-5560000D02*
X9919000Y-5670000D01*
X9919000Y-5560000D02*
X9809000Y-5670000D01*
X9902891Y-5653891D02*
X9902891Y-5576109D01*
X9825109Y-5576109D01*
X9825109Y-5653891D01*
X9902891Y-5653891D01*
X9809000Y-7084000D02*
X9919000Y-7194000D01*
X9919000Y-7084000D02*
X9809000Y-7194000D01*
X9902891Y-7177891D02*
X9902891Y-7100109D01*
X9825109Y-7100109D01*
X9825109Y-7177891D01*
X9902891Y-7177891D01*
X10063000Y-5560000D02*
X10173000Y-5670000D01*
X10173000Y-5560000D02*
X10063000Y-5670000D01*
X10156891Y-5653891D02*
X10156891Y-5576109D01*
X10079109Y-5576109D01*
X10079109Y-5653891D01*
X10156891Y-5653891D01*
X10063000Y-7084000D02*
X10173000Y-7194000D01*
X10173000Y-7084000D02*
X10063000Y-7194000D01*
X10156891Y-7177891D02*
X10156891Y-7100109D01*
X10079109Y-7100109D01*
X10079109Y-7177891D01*
X10156891Y-7177891D01*
X10317000Y-5560000D02*
X10427000Y-5670000D01*
X10427000Y-5560000D02*
X10317000Y-5670000D01*
X10410891Y-5653891D02*
X10410891Y-5576109D01*
X10333109Y-5576109D01*
X10333109Y-5653891D01*
X10410891Y-5653891D01*
X10317000Y-7084000D02*
X10427000Y-7194000D01*
X10427000Y-7084000D02*
X10317000Y-7194000D01*
X10410891Y-7177891D02*
X10410891Y-7100109D01*
X10333109Y-7100109D01*
X10333109Y-7177891D01*
X10410891Y-7177891D01*
X10571000Y-5560000D02*
X10681000Y-5670000D01*
X10681000Y-5560000D02*
X10571000Y-5670000D01*
X10664891Y-5653891D02*
X10664891Y-5576109D01*
X10587109Y-5576109D01*
X10587109Y-5653891D01*
X10664891Y-5653891D01*
X10571000Y-7084000D02*
X10681000Y-7194000D01*
X10681000Y-7084000D02*
X10571000Y-7194000D01*
X10664891Y-7177891D02*
X10664891Y-7100109D01*
X10587109Y-7100109D01*
X10587109Y-7177891D01*
X10664891Y-7177891D01*
X10825000Y-5560000D02*
X10935000Y-5670000D01*
X10935000Y-5560000D02*
X10825000Y-5670000D01*
X10918891Y-5653891D02*
X10918891Y-5576109D01*
X10841109Y-5576109D01*
X10841109Y-5653891D01*
X10918891Y-5653891D01*
X10825000Y-7084000D02*
X10935000Y-7194000D01*
X10935000Y-7084000D02*
X10825000Y-7194000D01*
X10918891Y-7177891D02*
X10918891Y-7100109D01*
X10841109Y-7100109D01*
X10841109Y-7177891D01*
X10918891Y-7177891D01*
X11079000Y-5560000D02*
X11189000Y-5670000D01*
X11189000Y-5560000D02*
X11079000Y-5670000D01*
X11172891Y-5653891D02*
X11172891Y-5576109D01*
X11095109Y-5576109D01*
X11095109Y-5653891D01*
X11172891Y-5653891D01*
X11079000Y-7084000D02*
X11189000Y-7194000D01*
X11189000Y-7084000D02*
X11079000Y-7194000D01*
X11172891Y-7177891D02*
X11172891Y-7100109D01*
X11095109Y-7100109D01*
X11095109Y-7177891D01*
X11172891Y-7177891D01*
X11333000Y-5560000D02*
X11443000Y-5670000D01*
X11443000Y-5560000D02*
X11333000Y-5670000D01*
X11426891Y-5653891D02*
X11426891Y-5576109D01*
X11349109Y-5576109D01*
X11349109Y-5653891D01*
X11426891Y-5653891D01*
X11333000Y-7084000D02*
X11443000Y-7194000D01*
X11443000Y-7084000D02*
X11333000Y-7194000D01*
X11426891Y-7177891D02*
X11426891Y-7100109D01*
X11349109Y-7100109D01*
X11349109Y-7177891D01*
X11426891Y-7177891D01*
X11587000Y-5560000D02*
X11697000Y-5670000D01*
X11697000Y-5560000D02*
X11587000Y-5670000D01*
X11680891Y-5653891D02*
X11680891Y-5576109D01*
X11603109Y-5576109D01*
X11603109Y-5653891D01*
X11680891Y-5653891D01*
X11587000Y-7084000D02*
X11697000Y-7194000D01*
X11697000Y-7084000D02*
X11587000Y-7194000D01*
X11680891Y-7177891D02*
X11680891Y-7100109D01*
X11603109Y-7100109D01*
X11603109Y-7177891D01*
X11680891Y-7177891D01*
X11841000Y-5560000D02*
X11951000Y-5670000D01*
X11951000Y-5560000D02*
X11841000Y-5670000D01*
X11934891Y-5653891D02*
X11934891Y-5576109D01*
X11857109Y-5576109D01*
X11857109Y-5653891D01*
X11934891Y-5653891D01*
X11841000Y-7084000D02*
X11951000Y-7194000D01*
X11951000Y-7084000D02*
X11841000Y-7194000D01*
X11934891Y-7177891D02*
X11934891Y-7100109D01*
X11857109Y-7100109D01*
X11857109Y-7177891D01*
X11934891Y-7177891D01*
X12095000Y-5560000D02*
X12205000Y-5670000D01*
X12205000Y-5560000D02*
X12095000Y-5670000D01*
X12188891Y-5653891D02*
X12188891Y-5576109D01*
X12111109Y-5576109D01*
X12111109Y-5653891D01*
X12188891Y-5653891D01*
X12095000Y-6830000D02*
X12205000Y-6940000D01*
X12205000Y-6830000D02*
X12095000Y-6940000D01*
X12188891Y-6923891D02*
X12188891Y-6846109D01*
X12111109Y-6846109D01*
X12111109Y-6923891D01*
X12188891Y-6923891D01*
X12095000Y-7084000D02*
X12205000Y-7194000D01*
X12205000Y-7084000D02*
X12095000Y-7194000D01*
X12188891Y-7177891D02*
X12188891Y-7100109D01*
X12111109Y-7100109D01*
X12111109Y-7177891D01*
X12188891Y-7177891D01*
X12349000Y-5560000D02*
X12459000Y-5670000D01*
X12459000Y-5560000D02*
X12349000Y-5670000D01*
X12442891Y-5653891D02*
X12442891Y-5576109D01*
X12365109Y-5576109D01*
X12365109Y-5653891D01*
X12442891Y-5653891D01*
X12349000Y-7084000D02*
X12459000Y-7194000D01*
X12459000Y-7084000D02*
X12349000Y-7194000D01*
X12442891Y-7177891D02*
X12442891Y-7100109D01*
X12365109Y-7100109D01*
X12365109Y-7177891D01*
X12442891Y-7177891D01*
X12603000Y-5560000D02*
X12713000Y-5670000D01*
X12713000Y-5560000D02*
X12603000Y-5670000D01*
X12696891Y-5653891D02*
X12696891Y-5576109D01*
X12619109Y-5576109D01*
X12619109Y-5653891D01*
X12696891Y-5653891D01*
X12603000Y-7084000D02*
X12713000Y-7194000D01*
X12713000Y-7084000D02*
X12603000Y-7194000D01*
X12696891Y-7177891D02*
X12696891Y-7100109D01*
X12619109Y-7100109D01*
X12619109Y-7177891D01*
X12696891Y-7177891D01*
X12730000Y-6132000D02*
X12840000Y-6242000D01*
X12840000Y-6132000D02*
X12730000Y-6242000D01*
X12823891Y-6225891D02*
X12823891Y-6148109D01*
X12746109Y-6148109D01*
X12746109Y-6225891D01*
X12823891Y-6225891D01*
X12730000Y-6345000D02*
X12840000Y-6455000D01*
X12840000Y-6345000D02*
X12730000Y-6455000D01*
X12823891Y-6438891D02*
X12823891Y-6361109D01*
X12746109Y-6361109D01*
X12746109Y-6438891D01*
X12823891Y-6438891D01*
X12857000Y-5560000D02*
X12967000Y-5670000D01*
X12967000Y-5560000D02*
X12857000Y-5670000D01*
X12950891Y-5653891D02*
X12950891Y-5576109D01*
X12873109Y-5576109D01*
X12873109Y-5653891D01*
X12950891Y-5653891D01*
X12857000Y-7084000D02*
X12967000Y-7194000D01*
X12967000Y-7084000D02*
X12857000Y-7194000D01*
X12950891Y-7177891D02*
X12950891Y-7100109D01*
X12873109Y-7100109D01*
X12873109Y-7177891D01*
X12950891Y-7177891D01*
D21*
X6487001Y-7171539D02*
X6667001Y-7351539D01*
X6667001Y-7171539D02*
X6487001Y-7351539D01*
X6577001Y-7351539D02*
X6667001Y-7261539D01*
X6577001Y-7171539D01*
X6487001Y-7261539D01*
X6577001Y-7351539D01*
D12*
X6494618Y-7318223D02*
X6608350Y-7356498D01*
X6545652Y-7166580D02*
X6659384Y-7204855D01*
X6608350Y-7356498D02*
G75*
G03*
X6659384Y-7204855I25517J75822D01*
G01*
X6545652Y-7166580D02*
G75*
G03*
X6494618Y-7318223I-25517J-75822D01*
G01*
D21*
X7614015Y-8328107D02*
X7794015Y-8508107D01*
X7794015Y-8328107D02*
X7614015Y-8508107D01*
X7704015Y-8508107D02*
X7794015Y-8418107D01*
X7704015Y-8328107D01*
X7614015Y-8418107D01*
X7704015Y-8508107D01*
D12*
X7621633Y-8474791D02*
X7735365Y-8513066D01*
X7672666Y-8323148D02*
X7786398Y-8361423D01*
X7735365Y-8513067D02*
G75*
G03*
X7786398Y-8361423I25517J75822D01*
G01*
X7672666Y-8323148D02*
G75*
G03*
X7621633Y-8474791I-25517J-75822D01*
G01*
X5238330Y-12606187D02*
X5238330Y-12406187D01*
X5285949Y-12406187D01*
X5314520Y-12415711D01*
X5333568Y-12434758D01*
X5343091Y-12453806D01*
X5352615Y-12491901D01*
X5352615Y-12520473D01*
X5343091Y-12558568D01*
X5333568Y-12577615D01*
X5314520Y-12596663D01*
X5285949Y-12606187D01*
X5238330Y-12606187D01*
X5438330Y-12606187D02*
X5438330Y-12472854D01*
X5438330Y-12510949D02*
X5447853Y-12491901D01*
X5457377Y-12482377D01*
X5476425Y-12472854D01*
X5495472Y-12472854D01*
X5562139Y-12606187D02*
X5562139Y-12472854D01*
X5562139Y-12406187D02*
X5552615Y-12415711D01*
X5562139Y-12425235D01*
X5571663Y-12415711D01*
X5562139Y-12406187D01*
X5562139Y-12425235D01*
X5685948Y-12606187D02*
X5666901Y-12596663D01*
X5657377Y-12577615D01*
X5657377Y-12406187D01*
X5790710Y-12606187D02*
X5771663Y-12596663D01*
X5762139Y-12577615D01*
X5762139Y-12406187D01*
X6019282Y-12606187D02*
X6019282Y-12406187D01*
X6085948Y-12549044D01*
X6152615Y-12406187D01*
X6152615Y-12606187D01*
X6333568Y-12606187D02*
X6333568Y-12501425D01*
X6324044Y-12482377D01*
X6304996Y-12472854D01*
X6266901Y-12472854D01*
X6247853Y-12482377D01*
X6333568Y-12596663D02*
X6314520Y-12606187D01*
X6266901Y-12606187D01*
X6247853Y-12596663D01*
X6238329Y-12577615D01*
X6238329Y-12558568D01*
X6247853Y-12539520D01*
X6266901Y-12529996D01*
X6314520Y-12529996D01*
X6333568Y-12520473D01*
X6428806Y-12472854D02*
X6428806Y-12672854D01*
X6428806Y-12482377D02*
X6447853Y-12472854D01*
X6485948Y-12472854D01*
X6504996Y-12482377D01*
X6514520Y-12491901D01*
X6524044Y-12510949D01*
X6524044Y-12568092D01*
X6514520Y-12587139D01*
X6504996Y-12596663D01*
X6485948Y-12606187D01*
X6447853Y-12606187D01*
X6428806Y-12596663D01*
X6609758Y-12587139D02*
X6619282Y-12596663D01*
X6609758Y-12606187D01*
X6600234Y-12596663D01*
X6609758Y-12587139D01*
X6609758Y-12606187D01*
X6609758Y-12482377D02*
X6619282Y-12491901D01*
X6609758Y-12501425D01*
X6600234Y-12491901D01*
X6609758Y-12482377D01*
X6609758Y-12501425D01*
D13*
X4940711Y-12915711D02*
X4980711Y-12955711D01*
X4980711Y-12915711D02*
X4940711Y-12955711D01*
D12*
X5276425Y-12826187D02*
X5295472Y-12826187D01*
X5314520Y-12835711D01*
X5324044Y-12845235D01*
X5333568Y-12864282D01*
X5343091Y-12902377D01*
X5343091Y-12949996D01*
X5333568Y-12988092D01*
X5324044Y-13007139D01*
X5314520Y-13016663D01*
X5295472Y-13026187D01*
X5276425Y-13026187D01*
X5257377Y-13016663D01*
X5247853Y-13007139D01*
X5238330Y-12988092D01*
X5228806Y-12949996D01*
X5228806Y-12902377D01*
X5238330Y-12864282D01*
X5247853Y-12845235D01*
X5257377Y-12835711D01*
X5276425Y-12826187D01*
X5428806Y-13007139D02*
X5438330Y-13016663D01*
X5428806Y-13026187D01*
X5419282Y-13016663D01*
X5428806Y-13007139D01*
X5428806Y-13026187D01*
X5609758Y-12892854D02*
X5609758Y-13026187D01*
X5562139Y-12816663D02*
X5514520Y-12959520D01*
X5638329Y-12959520D01*
X5752615Y-12826187D02*
X5771663Y-12826187D01*
X5790710Y-12835711D01*
X5800234Y-12845235D01*
X5809758Y-12864282D01*
X5819282Y-12902377D01*
X5819282Y-12949996D01*
X5809758Y-12988092D01*
X5800234Y-13007139D01*
X5790710Y-13016663D01*
X5771663Y-13026187D01*
X5752615Y-13026187D01*
X5733568Y-13016663D01*
X5724044Y-13007139D01*
X5714520Y-12988092D01*
X5704996Y-12949996D01*
X5704996Y-12902377D01*
X5714520Y-12864282D01*
X5724044Y-12845235D01*
X5733568Y-12835711D01*
X5752615Y-12826187D01*
X5943091Y-12826187D02*
X5962139Y-12826187D01*
X5981187Y-12835711D01*
X5990710Y-12845235D01*
X6000234Y-12864282D01*
X6009758Y-12902377D01*
X6009758Y-12949996D01*
X6000234Y-12988092D01*
X5990710Y-13007139D01*
X5981187Y-13016663D01*
X5962139Y-13026187D01*
X5943091Y-13026187D01*
X5924044Y-13016663D01*
X5914520Y-13007139D01*
X5904996Y-12988092D01*
X5895472Y-12949996D01*
X5895472Y-12902377D01*
X5904996Y-12864282D01*
X5914520Y-12845235D01*
X5924044Y-12835711D01*
X5943091Y-12826187D01*
X6095472Y-13026187D02*
X6095472Y-12892854D01*
X6095472Y-12911901D02*
X6104996Y-12902377D01*
X6124044Y-12892854D01*
X6152615Y-12892854D01*
X6171663Y-12902377D01*
X6181187Y-12921425D01*
X6181187Y-13026187D01*
X6181187Y-12921425D02*
X6190710Y-12902377D01*
X6209758Y-12892854D01*
X6238329Y-12892854D01*
X6257377Y-12902377D01*
X6266901Y-12921425D01*
X6266901Y-13026187D01*
X6362139Y-13026187D02*
X6362139Y-12892854D01*
X6362139Y-12911901D02*
X6371663Y-12902377D01*
X6390710Y-12892854D01*
X6419282Y-12892854D01*
X6438329Y-12902377D01*
X6447853Y-12921425D01*
X6447853Y-13026187D01*
X6447853Y-12921425D02*
X6457377Y-12902377D01*
X6476425Y-12892854D01*
X6504996Y-12892854D01*
X6524044Y-12902377D01*
X6533568Y-12921425D01*
X6533568Y-13026187D01*
X6924044Y-12816663D02*
X6752615Y-13073806D01*
X7181187Y-12826187D02*
X7200234Y-12826187D01*
X7219282Y-12835711D01*
X7228806Y-12845235D01*
X7238329Y-12864282D01*
X7247853Y-12902377D01*
X7247853Y-12949996D01*
X7238329Y-12988092D01*
X7228806Y-13007139D01*
X7219282Y-13016663D01*
X7200234Y-13026187D01*
X7181187Y-13026187D01*
X7162139Y-13016663D01*
X7152615Y-13007139D01*
X7143091Y-12988092D01*
X7133568Y-12949996D01*
X7133568Y-12902377D01*
X7143091Y-12864282D01*
X7152615Y-12845235D01*
X7162139Y-12835711D01*
X7181187Y-12826187D01*
X7333568Y-13007139D02*
X7343091Y-13016663D01*
X7333568Y-13026187D01*
X7324044Y-13016663D01*
X7333568Y-13007139D01*
X7333568Y-13026187D01*
X7466901Y-12826187D02*
X7485948Y-12826187D01*
X7504996Y-12835711D01*
X7514520Y-12845235D01*
X7524044Y-12864282D01*
X7533568Y-12902377D01*
X7533568Y-12949996D01*
X7524044Y-12988092D01*
X7514520Y-13007139D01*
X7504996Y-13016663D01*
X7485948Y-13026187D01*
X7466901Y-13026187D01*
X7447853Y-13016663D01*
X7438329Y-13007139D01*
X7428806Y-12988092D01*
X7419282Y-12949996D01*
X7419282Y-12902377D01*
X7428806Y-12864282D01*
X7438329Y-12845235D01*
X7447853Y-12835711D01*
X7466901Y-12826187D01*
X7724044Y-13026187D02*
X7609758Y-13026187D01*
X7666901Y-13026187D02*
X7666901Y-12826187D01*
X7647853Y-12854758D01*
X7628806Y-12873806D01*
X7609758Y-12883330D01*
X7904996Y-12826187D02*
X7809758Y-12826187D01*
X7800234Y-12921425D01*
X7809758Y-12911901D01*
X7828806Y-12902377D01*
X7876425Y-12902377D01*
X7895472Y-12911901D01*
X7904996Y-12921425D01*
X7914520Y-12940473D01*
X7914520Y-12988092D01*
X7904996Y-13007139D01*
X7895472Y-13016663D01*
X7876425Y-13026187D01*
X7828806Y-13026187D01*
X7809758Y-13016663D01*
X7800234Y-13007139D01*
X7981187Y-12826187D02*
X8114520Y-12826187D01*
X8028806Y-13026187D01*
X8181187Y-12826187D02*
X8181187Y-12864282D01*
X8257377Y-12826187D02*
X8257377Y-12864282D01*
X8552615Y-13102377D02*
X8543091Y-13092854D01*
X8524044Y-13064282D01*
X8514520Y-13045235D01*
X8504996Y-13016663D01*
X8495472Y-12969044D01*
X8495472Y-12930949D01*
X8504996Y-12883330D01*
X8514520Y-12854758D01*
X8524044Y-12835711D01*
X8543091Y-12807139D01*
X8552615Y-12797615D01*
X8609758Y-12826187D02*
X8733568Y-12826187D01*
X8666901Y-12902377D01*
X8695472Y-12902377D01*
X8714520Y-12911901D01*
X8724044Y-12921425D01*
X8733568Y-12940473D01*
X8733568Y-12988092D01*
X8724044Y-13007139D01*
X8714520Y-13016663D01*
X8695472Y-13026187D01*
X8638330Y-13026187D01*
X8619282Y-13016663D01*
X8609758Y-13007139D01*
X8924044Y-13026187D02*
X8809758Y-13026187D01*
X8866901Y-13026187D02*
X8866901Y-12826187D01*
X8847853Y-12854758D01*
X8828806Y-12873806D01*
X8809758Y-12883330D01*
X9162139Y-13026187D02*
X9162139Y-12826187D01*
X9247853Y-13026187D02*
X9247853Y-12921425D01*
X9238330Y-12902377D01*
X9219282Y-12892854D01*
X9190710Y-12892854D01*
X9171663Y-12902377D01*
X9162139Y-12911901D01*
X9371663Y-13026187D02*
X9352615Y-13016663D01*
X9343091Y-13007139D01*
X9333568Y-12988092D01*
X9333568Y-12930949D01*
X9343091Y-12911901D01*
X9352615Y-12902377D01*
X9371663Y-12892854D01*
X9400234Y-12892854D01*
X9419282Y-12902377D01*
X9428806Y-12911901D01*
X9438330Y-12930949D01*
X9438330Y-12988092D01*
X9428806Y-13007139D01*
X9419282Y-13016663D01*
X9400234Y-13026187D01*
X9371663Y-13026187D01*
X9552615Y-13026187D02*
X9533568Y-13016663D01*
X9524044Y-12997615D01*
X9524044Y-12826187D01*
X9704996Y-13016663D02*
X9685949Y-13026187D01*
X9647853Y-13026187D01*
X9628806Y-13016663D01*
X9619282Y-12997615D01*
X9619282Y-12921425D01*
X9628806Y-12902377D01*
X9647853Y-12892854D01*
X9685949Y-12892854D01*
X9704996Y-12902377D01*
X9714520Y-12921425D01*
X9714520Y-12940473D01*
X9619282Y-12959520D01*
X9790710Y-13016663D02*
X9809758Y-13026187D01*
X9847853Y-13026187D01*
X9866901Y-13016663D01*
X9876425Y-12997615D01*
X9876425Y-12988092D01*
X9866901Y-12969044D01*
X9847853Y-12959520D01*
X9819282Y-12959520D01*
X9800234Y-12949996D01*
X9790710Y-12930949D01*
X9790710Y-12921425D01*
X9800234Y-12902377D01*
X9819282Y-12892854D01*
X9847853Y-12892854D01*
X9866901Y-12902377D01*
X9943091Y-13102377D02*
X9952615Y-13092854D01*
X9971663Y-13064282D01*
X9981187Y-13045235D01*
X9990710Y-13016663D01*
X10000234Y-12969044D01*
X10000234Y-12930949D01*
X9990710Y-12883330D01*
X9981187Y-12854758D01*
X9971663Y-12835711D01*
X9952615Y-12807139D01*
X9943091Y-12797615D01*
D14*
X4980711Y-13199711D02*
G75*
G03*
X4980711Y-13199711I-25000J0D01*
G01*
D12*
X5276425Y-13090187D02*
X5295472Y-13090187D01*
X5314520Y-13099711D01*
X5324044Y-13109235D01*
X5333568Y-13128282D01*
X5343091Y-13166377D01*
X5343091Y-13213996D01*
X5333568Y-13252092D01*
X5324044Y-13271139D01*
X5314520Y-13280663D01*
X5295472Y-13290187D01*
X5276425Y-13290187D01*
X5257377Y-13280663D01*
X5247853Y-13271139D01*
X5238330Y-13252092D01*
X5228806Y-13213996D01*
X5228806Y-13166377D01*
X5238330Y-13128282D01*
X5247853Y-13109235D01*
X5257377Y-13099711D01*
X5276425Y-13090187D01*
X5428806Y-13271139D02*
X5438330Y-13280663D01*
X5428806Y-13290187D01*
X5419282Y-13280663D01*
X5428806Y-13271139D01*
X5428806Y-13290187D01*
X5619282Y-13090187D02*
X5524044Y-13090187D01*
X5514520Y-13185425D01*
X5524044Y-13175901D01*
X5543091Y-13166377D01*
X5590711Y-13166377D01*
X5609758Y-13175901D01*
X5619282Y-13185425D01*
X5628806Y-13204473D01*
X5628806Y-13252092D01*
X5619282Y-13271139D01*
X5609758Y-13280663D01*
X5590711Y-13290187D01*
X5543091Y-13290187D01*
X5524044Y-13280663D01*
X5514520Y-13271139D01*
X5752615Y-13090187D02*
X5771663Y-13090187D01*
X5790710Y-13099711D01*
X5800234Y-13109235D01*
X5809758Y-13128282D01*
X5819282Y-13166377D01*
X5819282Y-13213996D01*
X5809758Y-13252092D01*
X5800234Y-13271139D01*
X5790710Y-13280663D01*
X5771663Y-13290187D01*
X5752615Y-13290187D01*
X5733568Y-13280663D01*
X5724044Y-13271139D01*
X5714520Y-13252092D01*
X5704996Y-13213996D01*
X5704996Y-13166377D01*
X5714520Y-13128282D01*
X5724044Y-13109235D01*
X5733568Y-13099711D01*
X5752615Y-13090187D01*
X5943091Y-13090187D02*
X5962139Y-13090187D01*
X5981187Y-13099711D01*
X5990710Y-13109235D01*
X6000234Y-13128282D01*
X6009758Y-13166377D01*
X6009758Y-13213996D01*
X6000234Y-13252092D01*
X5990710Y-13271139D01*
X5981187Y-13280663D01*
X5962139Y-13290187D01*
X5943091Y-13290187D01*
X5924044Y-13280663D01*
X5914520Y-13271139D01*
X5904996Y-13252092D01*
X5895472Y-13213996D01*
X5895472Y-13166377D01*
X5904996Y-13128282D01*
X5914520Y-13109235D01*
X5924044Y-13099711D01*
X5943091Y-13090187D01*
X6095472Y-13290187D02*
X6095472Y-13156854D01*
X6095472Y-13175901D02*
X6104996Y-13166377D01*
X6124044Y-13156854D01*
X6152615Y-13156854D01*
X6171663Y-13166377D01*
X6181187Y-13185425D01*
X6181187Y-13290187D01*
X6181187Y-13185425D02*
X6190710Y-13166377D01*
X6209758Y-13156854D01*
X6238329Y-13156854D01*
X6257377Y-13166377D01*
X6266901Y-13185425D01*
X6266901Y-13290187D01*
X6362139Y-13290187D02*
X6362139Y-13156854D01*
X6362139Y-13175901D02*
X6371663Y-13166377D01*
X6390710Y-13156854D01*
X6419282Y-13156854D01*
X6438329Y-13166377D01*
X6447853Y-13185425D01*
X6447853Y-13290187D01*
X6447853Y-13185425D02*
X6457377Y-13166377D01*
X6476425Y-13156854D01*
X6504996Y-13156854D01*
X6524044Y-13166377D01*
X6533568Y-13185425D01*
X6533568Y-13290187D01*
X6924044Y-13080663D02*
X6752615Y-13337806D01*
X7181187Y-13090187D02*
X7200234Y-13090187D01*
X7219282Y-13099711D01*
X7228806Y-13109235D01*
X7238329Y-13128282D01*
X7247853Y-13166377D01*
X7247853Y-13213996D01*
X7238329Y-13252092D01*
X7228806Y-13271139D01*
X7219282Y-13280663D01*
X7200234Y-13290187D01*
X7181187Y-13290187D01*
X7162139Y-13280663D01*
X7152615Y-13271139D01*
X7143091Y-13252092D01*
X7133568Y-13213996D01*
X7133568Y-13166377D01*
X7143091Y-13128282D01*
X7152615Y-13109235D01*
X7162139Y-13099711D01*
X7181187Y-13090187D01*
X7333568Y-13271139D02*
X7343091Y-13280663D01*
X7333568Y-13290187D01*
X7324044Y-13280663D01*
X7333568Y-13271139D01*
X7333568Y-13290187D01*
X7466901Y-13090187D02*
X7485948Y-13090187D01*
X7504996Y-13099711D01*
X7514520Y-13109235D01*
X7524044Y-13128282D01*
X7533568Y-13166377D01*
X7533568Y-13213996D01*
X7524044Y-13252092D01*
X7514520Y-13271139D01*
X7504996Y-13280663D01*
X7485948Y-13290187D01*
X7466901Y-13290187D01*
X7447853Y-13280663D01*
X7438329Y-13271139D01*
X7428806Y-13252092D01*
X7419282Y-13213996D01*
X7419282Y-13166377D01*
X7428806Y-13128282D01*
X7438329Y-13109235D01*
X7447853Y-13099711D01*
X7466901Y-13090187D01*
X7724044Y-13290187D02*
X7609758Y-13290187D01*
X7666901Y-13290187D02*
X7666901Y-13090187D01*
X7647853Y-13118758D01*
X7628806Y-13137806D01*
X7609758Y-13147330D01*
X7819282Y-13290187D02*
X7857377Y-13290187D01*
X7876425Y-13280663D01*
X7885948Y-13271139D01*
X7904996Y-13242568D01*
X7914520Y-13204473D01*
X7914520Y-13128282D01*
X7904996Y-13109235D01*
X7895472Y-13099711D01*
X7876425Y-13090187D01*
X7838329Y-13090187D01*
X7819282Y-13099711D01*
X7809758Y-13109235D01*
X7800234Y-13128282D01*
X7800234Y-13175901D01*
X7809758Y-13194949D01*
X7819282Y-13204473D01*
X7838329Y-13213996D01*
X7876425Y-13213996D01*
X7895472Y-13204473D01*
X7904996Y-13194949D01*
X7914520Y-13175901D01*
X7981187Y-13090187D02*
X8114520Y-13090187D01*
X8028806Y-13290187D01*
X8181187Y-13090187D02*
X8181187Y-13128282D01*
X8257377Y-13090187D02*
X8257377Y-13128282D01*
X8552615Y-13366377D02*
X8543091Y-13356854D01*
X8524044Y-13328282D01*
X8514520Y-13309235D01*
X8504996Y-13280663D01*
X8495472Y-13233044D01*
X8495472Y-13194949D01*
X8504996Y-13147330D01*
X8514520Y-13118758D01*
X8524044Y-13099711D01*
X8543091Y-13071139D01*
X8552615Y-13061615D01*
X8666901Y-13090187D02*
X8685949Y-13090187D01*
X8704996Y-13099711D01*
X8714520Y-13109235D01*
X8724044Y-13128282D01*
X8733568Y-13166377D01*
X8733568Y-13213996D01*
X8724044Y-13252092D01*
X8714520Y-13271139D01*
X8704996Y-13280663D01*
X8685949Y-13290187D01*
X8666901Y-13290187D01*
X8647853Y-13280663D01*
X8638330Y-13271139D01*
X8628806Y-13252092D01*
X8619282Y-13213996D01*
X8619282Y-13166377D01*
X8628806Y-13128282D01*
X8638330Y-13109235D01*
X8647853Y-13099711D01*
X8666901Y-13090187D01*
X8971663Y-13290187D02*
X8971663Y-13090187D01*
X9057377Y-13290187D02*
X9057377Y-13185425D01*
X9047853Y-13166377D01*
X9028806Y-13156854D01*
X9000234Y-13156854D01*
X8981187Y-13166377D01*
X8971663Y-13175901D01*
X9181187Y-13290187D02*
X9162139Y-13280663D01*
X9152615Y-13271139D01*
X9143091Y-13252092D01*
X9143091Y-13194949D01*
X9152615Y-13175901D01*
X9162139Y-13166377D01*
X9181187Y-13156854D01*
X9209758Y-13156854D01*
X9228806Y-13166377D01*
X9238330Y-13175901D01*
X9247853Y-13194949D01*
X9247853Y-13252092D01*
X9238330Y-13271139D01*
X9228806Y-13280663D01*
X9209758Y-13290187D01*
X9181187Y-13290187D01*
X9362139Y-13290187D02*
X9343091Y-13280663D01*
X9333568Y-13261615D01*
X9333568Y-13090187D01*
X9514520Y-13280663D02*
X9495472Y-13290187D01*
X9457377Y-13290187D01*
X9438330Y-13280663D01*
X9428806Y-13261615D01*
X9428806Y-13185425D01*
X9438330Y-13166377D01*
X9457377Y-13156854D01*
X9495472Y-13156854D01*
X9514520Y-13166377D01*
X9524044Y-13185425D01*
X9524044Y-13204473D01*
X9428806Y-13223520D01*
X9600234Y-13280663D02*
X9619282Y-13290187D01*
X9657377Y-13290187D01*
X9676425Y-13280663D01*
X9685949Y-13261615D01*
X9685949Y-13252092D01*
X9676425Y-13233044D01*
X9657377Y-13223520D01*
X9628806Y-13223520D01*
X9609758Y-13213996D01*
X9600234Y-13194949D01*
X9600234Y-13185425D01*
X9609758Y-13166377D01*
X9628806Y-13156854D01*
X9657377Y-13156854D01*
X9676425Y-13166377D01*
X9924044Y-13213996D02*
X10076425Y-13213996D01*
X10000234Y-13290187D02*
X10000234Y-13137806D01*
X10314520Y-13109235D02*
X10324044Y-13099711D01*
X10343091Y-13090187D01*
X10390710Y-13090187D01*
X10409758Y-13099711D01*
X10419282Y-13109235D01*
X10428806Y-13128282D01*
X10428806Y-13147330D01*
X10419282Y-13175901D01*
X10304996Y-13290187D01*
X10428806Y-13290187D01*
X10657377Y-13280663D02*
X10676425Y-13290187D01*
X10714520Y-13290187D01*
X10733568Y-13280663D01*
X10743091Y-13261615D01*
X10743091Y-13252092D01*
X10733568Y-13233044D01*
X10714520Y-13223520D01*
X10685949Y-13223520D01*
X10666901Y-13213996D01*
X10657377Y-13194949D01*
X10657377Y-13185425D01*
X10666901Y-13166377D01*
X10685949Y-13156854D01*
X10714520Y-13156854D01*
X10733568Y-13166377D01*
X10857377Y-13290187D02*
X10838330Y-13280663D01*
X10828806Y-13261615D01*
X10828806Y-13090187D01*
X10962139Y-13290187D02*
X10943091Y-13280663D01*
X10933568Y-13271139D01*
X10924044Y-13252092D01*
X10924044Y-13194949D01*
X10933568Y-13175901D01*
X10943091Y-13166377D01*
X10962139Y-13156854D01*
X10990710Y-13156854D01*
X11009758Y-13166377D01*
X11019282Y-13175901D01*
X11028806Y-13194949D01*
X11028806Y-13252092D01*
X11019282Y-13271139D01*
X11009758Y-13280663D01*
X10990710Y-13290187D01*
X10962139Y-13290187D01*
X11085949Y-13156854D02*
X11162139Y-13156854D01*
X11114520Y-13090187D02*
X11114520Y-13261615D01*
X11124044Y-13280663D01*
X11143091Y-13290187D01*
X11162139Y-13290187D01*
X11219282Y-13280663D02*
X11238329Y-13290187D01*
X11276425Y-13290187D01*
X11295472Y-13280663D01*
X11304996Y-13261615D01*
X11304996Y-13252092D01*
X11295472Y-13233044D01*
X11276425Y-13223520D01*
X11247853Y-13223520D01*
X11228806Y-13213996D01*
X11219282Y-13194949D01*
X11219282Y-13185425D01*
X11228806Y-13166377D01*
X11247853Y-13156854D01*
X11276425Y-13156854D01*
X11295472Y-13166377D01*
X11371663Y-13366377D02*
X11381187Y-13356854D01*
X11400234Y-13328282D01*
X11409758Y-13309235D01*
X11419282Y-13280663D01*
X11428806Y-13233044D01*
X11428806Y-13194949D01*
X11419282Y-13147330D01*
X11409758Y-13118758D01*
X11400234Y-13099711D01*
X11381187Y-13071139D01*
X11371663Y-13061615D01*
D15*
X4953211Y-13436211D02*
X4953211Y-13491211D01*
X4925711Y-13463711D02*
X4980711Y-13463711D01*
D12*
X5276425Y-13354187D02*
X5295472Y-13354187D01*
X5314520Y-13363711D01*
X5324044Y-13373235D01*
X5333568Y-13392282D01*
X5343091Y-13430377D01*
X5343091Y-13477996D01*
X5333568Y-13516092D01*
X5324044Y-13535139D01*
X5314520Y-13544663D01*
X5295472Y-13554187D01*
X5276425Y-13554187D01*
X5257377Y-13544663D01*
X5247853Y-13535139D01*
X5238330Y-13516092D01*
X5228806Y-13477996D01*
X5228806Y-13430377D01*
X5238330Y-13392282D01*
X5247853Y-13373235D01*
X5257377Y-13363711D01*
X5276425Y-13354187D01*
X5428806Y-13535139D02*
X5438330Y-13544663D01*
X5428806Y-13554187D01*
X5419282Y-13544663D01*
X5428806Y-13535139D01*
X5428806Y-13554187D01*
X5619282Y-13354187D02*
X5524044Y-13354187D01*
X5514520Y-13449425D01*
X5524044Y-13439901D01*
X5543091Y-13430377D01*
X5590711Y-13430377D01*
X5609758Y-13439901D01*
X5619282Y-13449425D01*
X5628806Y-13468473D01*
X5628806Y-13516092D01*
X5619282Y-13535139D01*
X5609758Y-13544663D01*
X5590711Y-13554187D01*
X5543091Y-13554187D01*
X5524044Y-13544663D01*
X5514520Y-13535139D01*
X5809758Y-13354187D02*
X5714520Y-13354187D01*
X5704996Y-13449425D01*
X5714520Y-13439901D01*
X5733568Y-13430377D01*
X5781187Y-13430377D01*
X5800234Y-13439901D01*
X5809758Y-13449425D01*
X5819282Y-13468473D01*
X5819282Y-13516092D01*
X5809758Y-13535139D01*
X5800234Y-13544663D01*
X5781187Y-13554187D01*
X5733568Y-13554187D01*
X5714520Y-13544663D01*
X5704996Y-13535139D01*
X5943091Y-13354187D02*
X5962139Y-13354187D01*
X5981187Y-13363711D01*
X5990710Y-13373235D01*
X6000234Y-13392282D01*
X6009758Y-13430377D01*
X6009758Y-13477996D01*
X6000234Y-13516092D01*
X5990710Y-13535139D01*
X5981187Y-13544663D01*
X5962139Y-13554187D01*
X5943091Y-13554187D01*
X5924044Y-13544663D01*
X5914520Y-13535139D01*
X5904996Y-13516092D01*
X5895472Y-13477996D01*
X5895472Y-13430377D01*
X5904996Y-13392282D01*
X5914520Y-13373235D01*
X5924044Y-13363711D01*
X5943091Y-13354187D01*
X6095472Y-13554187D02*
X6095472Y-13420854D01*
X6095472Y-13439901D02*
X6104996Y-13430377D01*
X6124044Y-13420854D01*
X6152615Y-13420854D01*
X6171663Y-13430377D01*
X6181187Y-13449425D01*
X6181187Y-13554187D01*
X6181187Y-13449425D02*
X6190710Y-13430377D01*
X6209758Y-13420854D01*
X6238329Y-13420854D01*
X6257377Y-13430377D01*
X6266901Y-13449425D01*
X6266901Y-13554187D01*
X6362139Y-13554187D02*
X6362139Y-13420854D01*
X6362139Y-13439901D02*
X6371663Y-13430377D01*
X6390710Y-13420854D01*
X6419282Y-13420854D01*
X6438329Y-13430377D01*
X6447853Y-13449425D01*
X6447853Y-13554187D01*
X6447853Y-13449425D02*
X6457377Y-13430377D01*
X6476425Y-13420854D01*
X6504996Y-13420854D01*
X6524044Y-13430377D01*
X6533568Y-13449425D01*
X6533568Y-13554187D01*
X6924044Y-13344663D02*
X6752615Y-13601806D01*
X7181187Y-13354187D02*
X7200234Y-13354187D01*
X7219282Y-13363711D01*
X7228806Y-13373235D01*
X7238329Y-13392282D01*
X7247853Y-13430377D01*
X7247853Y-13477996D01*
X7238329Y-13516092D01*
X7228806Y-13535139D01*
X7219282Y-13544663D01*
X7200234Y-13554187D01*
X7181187Y-13554187D01*
X7162139Y-13544663D01*
X7152615Y-13535139D01*
X7143091Y-13516092D01*
X7133568Y-13477996D01*
X7133568Y-13430377D01*
X7143091Y-13392282D01*
X7152615Y-13373235D01*
X7162139Y-13363711D01*
X7181187Y-13354187D01*
X7333568Y-13535139D02*
X7343091Y-13544663D01*
X7333568Y-13554187D01*
X7324044Y-13544663D01*
X7333568Y-13535139D01*
X7333568Y-13554187D01*
X7466901Y-13354187D02*
X7485948Y-13354187D01*
X7504996Y-13363711D01*
X7514520Y-13373235D01*
X7524044Y-13392282D01*
X7533568Y-13430377D01*
X7533568Y-13477996D01*
X7524044Y-13516092D01*
X7514520Y-13535139D01*
X7504996Y-13544663D01*
X7485948Y-13554187D01*
X7466901Y-13554187D01*
X7447853Y-13544663D01*
X7438329Y-13535139D01*
X7428806Y-13516092D01*
X7419282Y-13477996D01*
X7419282Y-13430377D01*
X7428806Y-13392282D01*
X7438329Y-13373235D01*
X7447853Y-13363711D01*
X7466901Y-13354187D01*
X7609758Y-13373235D02*
X7619282Y-13363711D01*
X7638329Y-13354187D01*
X7685948Y-13354187D01*
X7704996Y-13363711D01*
X7714520Y-13373235D01*
X7724044Y-13392282D01*
X7724044Y-13411330D01*
X7714520Y-13439901D01*
X7600234Y-13554187D01*
X7724044Y-13554187D01*
X7914520Y-13554187D02*
X7800234Y-13554187D01*
X7857377Y-13554187D02*
X7857377Y-13354187D01*
X7838329Y-13382758D01*
X7819282Y-13401806D01*
X7800234Y-13411330D01*
X7981187Y-13354187D02*
X8114520Y-13354187D01*
X8028806Y-13554187D01*
X8181187Y-13354187D02*
X8181187Y-13392282D01*
X8257377Y-13354187D02*
X8257377Y-13392282D01*
X8552615Y-13630377D02*
X8543091Y-13620854D01*
X8524044Y-13592282D01*
X8514520Y-13573235D01*
X8504996Y-13544663D01*
X8495472Y-13497044D01*
X8495472Y-13458949D01*
X8504996Y-13411330D01*
X8514520Y-13382758D01*
X8524044Y-13363711D01*
X8543091Y-13335139D01*
X8552615Y-13325615D01*
X8666901Y-13354187D02*
X8685949Y-13354187D01*
X8704996Y-13363711D01*
X8714520Y-13373235D01*
X8724044Y-13392282D01*
X8733568Y-13430377D01*
X8733568Y-13477996D01*
X8724044Y-13516092D01*
X8714520Y-13535139D01*
X8704996Y-13544663D01*
X8685949Y-13554187D01*
X8666901Y-13554187D01*
X8647853Y-13544663D01*
X8638330Y-13535139D01*
X8628806Y-13516092D01*
X8619282Y-13477996D01*
X8619282Y-13430377D01*
X8628806Y-13392282D01*
X8638330Y-13373235D01*
X8647853Y-13363711D01*
X8666901Y-13354187D01*
X8971663Y-13554187D02*
X8971663Y-13354187D01*
X9057377Y-13554187D02*
X9057377Y-13449425D01*
X9047853Y-13430377D01*
X9028806Y-13420854D01*
X9000234Y-13420854D01*
X8981187Y-13430377D01*
X8971663Y-13439901D01*
X9181187Y-13554187D02*
X9162139Y-13544663D01*
X9152615Y-13535139D01*
X9143091Y-13516092D01*
X9143091Y-13458949D01*
X9152615Y-13439901D01*
X9162139Y-13430377D01*
X9181187Y-13420854D01*
X9209758Y-13420854D01*
X9228806Y-13430377D01*
X9238330Y-13439901D01*
X9247853Y-13458949D01*
X9247853Y-13516092D01*
X9238330Y-13535139D01*
X9228806Y-13544663D01*
X9209758Y-13554187D01*
X9181187Y-13554187D01*
X9362139Y-13554187D02*
X9343091Y-13544663D01*
X9333568Y-13525615D01*
X9333568Y-13354187D01*
X9514520Y-13544663D02*
X9495472Y-13554187D01*
X9457377Y-13554187D01*
X9438330Y-13544663D01*
X9428806Y-13525615D01*
X9428806Y-13449425D01*
X9438330Y-13430377D01*
X9457377Y-13420854D01*
X9495472Y-13420854D01*
X9514520Y-13430377D01*
X9524044Y-13449425D01*
X9524044Y-13468473D01*
X9428806Y-13487520D01*
X9600234Y-13544663D02*
X9619282Y-13554187D01*
X9657377Y-13554187D01*
X9676425Y-13544663D01*
X9685949Y-13525615D01*
X9685949Y-13516092D01*
X9676425Y-13497044D01*
X9657377Y-13487520D01*
X9628806Y-13487520D01*
X9609758Y-13477996D01*
X9600234Y-13458949D01*
X9600234Y-13449425D01*
X9609758Y-13430377D01*
X9628806Y-13420854D01*
X9657377Y-13420854D01*
X9676425Y-13430377D01*
X9924044Y-13477996D02*
X10076425Y-13477996D01*
X10000234Y-13554187D02*
X10000234Y-13401806D01*
X10314520Y-13373235D02*
X10324044Y-13363711D01*
X10343091Y-13354187D01*
X10390710Y-13354187D01*
X10409758Y-13363711D01*
X10419282Y-13373235D01*
X10428806Y-13392282D01*
X10428806Y-13411330D01*
X10419282Y-13439901D01*
X10304996Y-13554187D01*
X10428806Y-13554187D01*
X10657377Y-13544663D02*
X10676425Y-13554187D01*
X10714520Y-13554187D01*
X10733568Y-13544663D01*
X10743091Y-13525615D01*
X10743091Y-13516092D01*
X10733568Y-13497044D01*
X10714520Y-13487520D01*
X10685949Y-13487520D01*
X10666901Y-13477996D01*
X10657377Y-13458949D01*
X10657377Y-13449425D01*
X10666901Y-13430377D01*
X10685949Y-13420854D01*
X10714520Y-13420854D01*
X10733568Y-13430377D01*
X10857377Y-13554187D02*
X10838330Y-13544663D01*
X10828806Y-13525615D01*
X10828806Y-13354187D01*
X10962139Y-13554187D02*
X10943091Y-13544663D01*
X10933568Y-13535139D01*
X10924044Y-13516092D01*
X10924044Y-13458949D01*
X10933568Y-13439901D01*
X10943091Y-13430377D01*
X10962139Y-13420854D01*
X10990710Y-13420854D01*
X11009758Y-13430377D01*
X11019282Y-13439901D01*
X11028806Y-13458949D01*
X11028806Y-13516092D01*
X11019282Y-13535139D01*
X11009758Y-13544663D01*
X10990710Y-13554187D01*
X10962139Y-13554187D01*
X11085949Y-13420854D02*
X11162139Y-13420854D01*
X11114520Y-13354187D02*
X11114520Y-13525615D01*
X11124044Y-13544663D01*
X11143091Y-13554187D01*
X11162139Y-13554187D01*
X11219282Y-13544663D02*
X11238329Y-13554187D01*
X11276425Y-13554187D01*
X11295472Y-13544663D01*
X11304996Y-13525615D01*
X11304996Y-13516092D01*
X11295472Y-13497044D01*
X11276425Y-13487520D01*
X11247853Y-13487520D01*
X11228806Y-13477996D01*
X11219282Y-13458949D01*
X11219282Y-13449425D01*
X11228806Y-13430377D01*
X11247853Y-13420854D01*
X11276425Y-13420854D01*
X11295472Y-13430377D01*
X11371663Y-13630377D02*
X11381187Y-13620854D01*
X11400234Y-13592282D01*
X11409758Y-13573235D01*
X11419282Y-13544663D01*
X11428806Y-13497044D01*
X11428806Y-13458949D01*
X11419282Y-13411330D01*
X11409758Y-13382758D01*
X11400234Y-13363711D01*
X11381187Y-13335139D01*
X11371663Y-13325615D01*
D16*
X4971924Y-13748924D02*
X4971924Y-13706497D01*
X4929497Y-13706497D01*
X4929497Y-13748924D01*
X4971924Y-13748924D01*
D12*
X5276425Y-13618187D02*
X5295472Y-13618187D01*
X5314520Y-13627711D01*
X5324044Y-13637235D01*
X5333568Y-13656282D01*
X5343091Y-13694377D01*
X5343091Y-13741996D01*
X5333568Y-13780092D01*
X5324044Y-13799139D01*
X5314520Y-13808663D01*
X5295472Y-13818187D01*
X5276425Y-13818187D01*
X5257377Y-13808663D01*
X5247853Y-13799139D01*
X5238330Y-13780092D01*
X5228806Y-13741996D01*
X5228806Y-13694377D01*
X5238330Y-13656282D01*
X5247853Y-13637235D01*
X5257377Y-13627711D01*
X5276425Y-13618187D01*
X5428806Y-13799139D02*
X5438330Y-13808663D01*
X5428806Y-13818187D01*
X5419282Y-13808663D01*
X5428806Y-13799139D01*
X5428806Y-13818187D01*
X5609758Y-13618187D02*
X5571663Y-13618187D01*
X5552615Y-13627711D01*
X5543091Y-13637235D01*
X5524044Y-13665806D01*
X5514520Y-13703901D01*
X5514520Y-13780092D01*
X5524044Y-13799139D01*
X5533568Y-13808663D01*
X5552615Y-13818187D01*
X5590711Y-13818187D01*
X5609758Y-13808663D01*
X5619282Y-13799139D01*
X5628806Y-13780092D01*
X5628806Y-13732473D01*
X5619282Y-13713425D01*
X5609758Y-13703901D01*
X5590711Y-13694377D01*
X5552615Y-13694377D01*
X5533568Y-13703901D01*
X5524044Y-13713425D01*
X5514520Y-13732473D01*
X5752615Y-13618187D02*
X5771663Y-13618187D01*
X5790710Y-13627711D01*
X5800234Y-13637235D01*
X5809758Y-13656282D01*
X5819282Y-13694377D01*
X5819282Y-13741996D01*
X5809758Y-13780092D01*
X5800234Y-13799139D01*
X5790710Y-13808663D01*
X5771663Y-13818187D01*
X5752615Y-13818187D01*
X5733568Y-13808663D01*
X5724044Y-13799139D01*
X5714520Y-13780092D01*
X5704996Y-13741996D01*
X5704996Y-13694377D01*
X5714520Y-13656282D01*
X5724044Y-13637235D01*
X5733568Y-13627711D01*
X5752615Y-13618187D01*
X5943091Y-13618187D02*
X5962139Y-13618187D01*
X5981187Y-13627711D01*
X5990710Y-13637235D01*
X6000234Y-13656282D01*
X6009758Y-13694377D01*
X6009758Y-13741996D01*
X6000234Y-13780092D01*
X5990710Y-13799139D01*
X5981187Y-13808663D01*
X5962139Y-13818187D01*
X5943091Y-13818187D01*
X5924044Y-13808663D01*
X5914520Y-13799139D01*
X5904996Y-13780092D01*
X5895472Y-13741996D01*
X5895472Y-13694377D01*
X5904996Y-13656282D01*
X5914520Y-13637235D01*
X5924044Y-13627711D01*
X5943091Y-13618187D01*
X6095472Y-13818187D02*
X6095472Y-13684854D01*
X6095472Y-13703901D02*
X6104996Y-13694377D01*
X6124044Y-13684854D01*
X6152615Y-13684854D01*
X6171663Y-13694377D01*
X6181187Y-13713425D01*
X6181187Y-13818187D01*
X6181187Y-13713425D02*
X6190710Y-13694377D01*
X6209758Y-13684854D01*
X6238329Y-13684854D01*
X6257377Y-13694377D01*
X6266901Y-13713425D01*
X6266901Y-13818187D01*
X6362139Y-13818187D02*
X6362139Y-13684854D01*
X6362139Y-13703901D02*
X6371663Y-13694377D01*
X6390710Y-13684854D01*
X6419282Y-13684854D01*
X6438329Y-13694377D01*
X6447853Y-13713425D01*
X6447853Y-13818187D01*
X6447853Y-13713425D02*
X6457377Y-13694377D01*
X6476425Y-13684854D01*
X6504996Y-13684854D01*
X6524044Y-13694377D01*
X6533568Y-13713425D01*
X6533568Y-13818187D01*
X6924044Y-13608663D02*
X6752615Y-13865806D01*
X7181187Y-13618187D02*
X7200234Y-13618187D01*
X7219282Y-13627711D01*
X7228806Y-13637235D01*
X7238329Y-13656282D01*
X7247853Y-13694377D01*
X7247853Y-13741996D01*
X7238329Y-13780092D01*
X7228806Y-13799139D01*
X7219282Y-13808663D01*
X7200234Y-13818187D01*
X7181187Y-13818187D01*
X7162139Y-13808663D01*
X7152615Y-13799139D01*
X7143091Y-13780092D01*
X7133568Y-13741996D01*
X7133568Y-13694377D01*
X7143091Y-13656282D01*
X7152615Y-13637235D01*
X7162139Y-13627711D01*
X7181187Y-13618187D01*
X7333568Y-13799139D02*
X7343091Y-13808663D01*
X7333568Y-13818187D01*
X7324044Y-13808663D01*
X7333568Y-13799139D01*
X7333568Y-13818187D01*
X7466901Y-13618187D02*
X7485948Y-13618187D01*
X7504996Y-13627711D01*
X7514520Y-13637235D01*
X7524044Y-13656282D01*
X7533568Y-13694377D01*
X7533568Y-13741996D01*
X7524044Y-13780092D01*
X7514520Y-13799139D01*
X7504996Y-13808663D01*
X7485948Y-13818187D01*
X7466901Y-13818187D01*
X7447853Y-13808663D01*
X7438329Y-13799139D01*
X7428806Y-13780092D01*
X7419282Y-13741996D01*
X7419282Y-13694377D01*
X7428806Y-13656282D01*
X7438329Y-13637235D01*
X7447853Y-13627711D01*
X7466901Y-13618187D01*
X7609758Y-13637235D02*
X7619282Y-13627711D01*
X7638329Y-13618187D01*
X7685948Y-13618187D01*
X7704996Y-13627711D01*
X7714520Y-13637235D01*
X7724044Y-13656282D01*
X7724044Y-13675330D01*
X7714520Y-13703901D01*
X7600234Y-13818187D01*
X7724044Y-13818187D01*
X7790710Y-13618187D02*
X7914520Y-13618187D01*
X7847853Y-13694377D01*
X7876425Y-13694377D01*
X7895472Y-13703901D01*
X7904996Y-13713425D01*
X7914520Y-13732473D01*
X7914520Y-13780092D01*
X7904996Y-13799139D01*
X7895472Y-13808663D01*
X7876425Y-13818187D01*
X7819282Y-13818187D01*
X7800234Y-13808663D01*
X7790710Y-13799139D01*
X8085948Y-13618187D02*
X8047853Y-13618187D01*
X8028806Y-13627711D01*
X8019282Y-13637235D01*
X8000234Y-13665806D01*
X7990710Y-13703901D01*
X7990710Y-13780092D01*
X8000234Y-13799139D01*
X8009758Y-13808663D01*
X8028806Y-13818187D01*
X8066901Y-13818187D01*
X8085948Y-13808663D01*
X8095472Y-13799139D01*
X8104996Y-13780092D01*
X8104996Y-13732473D01*
X8095472Y-13713425D01*
X8085948Y-13703901D01*
X8066901Y-13694377D01*
X8028806Y-13694377D01*
X8009758Y-13703901D01*
X8000234Y-13713425D01*
X7990710Y-13732473D01*
X8181187Y-13618187D02*
X8181187Y-13656282D01*
X8257377Y-13618187D02*
X8257377Y-13656282D01*
X8552615Y-13894377D02*
X8543091Y-13884854D01*
X8524044Y-13856282D01*
X8514520Y-13837235D01*
X8504996Y-13808663D01*
X8495472Y-13761044D01*
X8495472Y-13722949D01*
X8504996Y-13675330D01*
X8514520Y-13646758D01*
X8524044Y-13627711D01*
X8543091Y-13599139D01*
X8552615Y-13589615D01*
X8714520Y-13618187D02*
X8676425Y-13618187D01*
X8657377Y-13627711D01*
X8647853Y-13637235D01*
X8628806Y-13665806D01*
X8619282Y-13703901D01*
X8619282Y-13780092D01*
X8628806Y-13799139D01*
X8638330Y-13808663D01*
X8657377Y-13818187D01*
X8695472Y-13818187D01*
X8714520Y-13808663D01*
X8724044Y-13799139D01*
X8733568Y-13780092D01*
X8733568Y-13732473D01*
X8724044Y-13713425D01*
X8714520Y-13703901D01*
X8695472Y-13694377D01*
X8657377Y-13694377D01*
X8638330Y-13703901D01*
X8628806Y-13713425D01*
X8619282Y-13732473D01*
X8971663Y-13818187D02*
X8971663Y-13618187D01*
X9057377Y-13818187D02*
X9057377Y-13713425D01*
X9047853Y-13694377D01*
X9028806Y-13684854D01*
X9000234Y-13684854D01*
X8981187Y-13694377D01*
X8971663Y-13703901D01*
X9181187Y-13818187D02*
X9162139Y-13808663D01*
X9152615Y-13799139D01*
X9143091Y-13780092D01*
X9143091Y-13722949D01*
X9152615Y-13703901D01*
X9162139Y-13694377D01*
X9181187Y-13684854D01*
X9209758Y-13684854D01*
X9228806Y-13694377D01*
X9238330Y-13703901D01*
X9247853Y-13722949D01*
X9247853Y-13780092D01*
X9238330Y-13799139D01*
X9228806Y-13808663D01*
X9209758Y-13818187D01*
X9181187Y-13818187D01*
X9362139Y-13818187D02*
X9343091Y-13808663D01*
X9333568Y-13789615D01*
X9333568Y-13618187D01*
X9514520Y-13808663D02*
X9495472Y-13818187D01*
X9457377Y-13818187D01*
X9438330Y-13808663D01*
X9428806Y-13789615D01*
X9428806Y-13713425D01*
X9438330Y-13694377D01*
X9457377Y-13684854D01*
X9495472Y-13684854D01*
X9514520Y-13694377D01*
X9524044Y-13713425D01*
X9524044Y-13732473D01*
X9428806Y-13751520D01*
X9600234Y-13808663D02*
X9619282Y-13818187D01*
X9657377Y-13818187D01*
X9676425Y-13808663D01*
X9685949Y-13789615D01*
X9685949Y-13780092D01*
X9676425Y-13761044D01*
X9657377Y-13751520D01*
X9628806Y-13751520D01*
X9609758Y-13741996D01*
X9600234Y-13722949D01*
X9600234Y-13713425D01*
X9609758Y-13694377D01*
X9628806Y-13684854D01*
X9657377Y-13684854D01*
X9676425Y-13694377D01*
X9752615Y-13894377D02*
X9762139Y-13884854D01*
X9781187Y-13856282D01*
X9790710Y-13837235D01*
X9800234Y-13808663D01*
X9809758Y-13761044D01*
X9809758Y-13722949D01*
X9800234Y-13675330D01*
X9790710Y-13646758D01*
X9781187Y-13627711D01*
X9762139Y-13599139D01*
X9752615Y-13589615D01*
D17*
X4940711Y-14031711D02*
X4980711Y-13991711D01*
X4940711Y-13951711D01*
X4900711Y-13991711D01*
X4940711Y-14031711D01*
D12*
X5276425Y-13882187D02*
X5295472Y-13882187D01*
X5314520Y-13891711D01*
X5324044Y-13901235D01*
X5333568Y-13920282D01*
X5343091Y-13958377D01*
X5343091Y-14005996D01*
X5333568Y-14044092D01*
X5324044Y-14063139D01*
X5314520Y-14072663D01*
X5295472Y-14082187D01*
X5276425Y-14082187D01*
X5257377Y-14072663D01*
X5247853Y-14063139D01*
X5238330Y-14044092D01*
X5228806Y-14005996D01*
X5228806Y-13958377D01*
X5238330Y-13920282D01*
X5247853Y-13901235D01*
X5257377Y-13891711D01*
X5276425Y-13882187D01*
X5428806Y-14063139D02*
X5438330Y-14072663D01*
X5428806Y-14082187D01*
X5419282Y-14072663D01*
X5428806Y-14063139D01*
X5428806Y-14082187D01*
X5552615Y-13967901D02*
X5533568Y-13958377D01*
X5524044Y-13948854D01*
X5514520Y-13929806D01*
X5514520Y-13920282D01*
X5524044Y-13901235D01*
X5533568Y-13891711D01*
X5552615Y-13882187D01*
X5590711Y-13882187D01*
X5609758Y-13891711D01*
X5619282Y-13901235D01*
X5628806Y-13920282D01*
X5628806Y-13929806D01*
X5619282Y-13948854D01*
X5609758Y-13958377D01*
X5590711Y-13967901D01*
X5552615Y-13967901D01*
X5533568Y-13977425D01*
X5524044Y-13986949D01*
X5514520Y-14005996D01*
X5514520Y-14044092D01*
X5524044Y-14063139D01*
X5533568Y-14072663D01*
X5552615Y-14082187D01*
X5590711Y-14082187D01*
X5609758Y-14072663D01*
X5619282Y-14063139D01*
X5628806Y-14044092D01*
X5628806Y-14005996D01*
X5619282Y-13986949D01*
X5609758Y-13977425D01*
X5590711Y-13967901D01*
X5752615Y-13882187D02*
X5771663Y-13882187D01*
X5790710Y-13891711D01*
X5800234Y-13901235D01*
X5809758Y-13920282D01*
X5819282Y-13958377D01*
X5819282Y-14005996D01*
X5809758Y-14044092D01*
X5800234Y-14063139D01*
X5790710Y-14072663D01*
X5771663Y-14082187D01*
X5752615Y-14082187D01*
X5733568Y-14072663D01*
X5724044Y-14063139D01*
X5714520Y-14044092D01*
X5704996Y-14005996D01*
X5704996Y-13958377D01*
X5714520Y-13920282D01*
X5724044Y-13901235D01*
X5733568Y-13891711D01*
X5752615Y-13882187D01*
X5943091Y-13882187D02*
X5962139Y-13882187D01*
X5981187Y-13891711D01*
X5990710Y-13901235D01*
X6000234Y-13920282D01*
X6009758Y-13958377D01*
X6009758Y-14005996D01*
X6000234Y-14044092D01*
X5990710Y-14063139D01*
X5981187Y-14072663D01*
X5962139Y-14082187D01*
X5943091Y-14082187D01*
X5924044Y-14072663D01*
X5914520Y-14063139D01*
X5904996Y-14044092D01*
X5895472Y-14005996D01*
X5895472Y-13958377D01*
X5904996Y-13920282D01*
X5914520Y-13901235D01*
X5924044Y-13891711D01*
X5943091Y-13882187D01*
X6095472Y-14082187D02*
X6095472Y-13948854D01*
X6095472Y-13967901D02*
X6104996Y-13958377D01*
X6124044Y-13948854D01*
X6152615Y-13948854D01*
X6171663Y-13958377D01*
X6181187Y-13977425D01*
X6181187Y-14082187D01*
X6181187Y-13977425D02*
X6190710Y-13958377D01*
X6209758Y-13948854D01*
X6238329Y-13948854D01*
X6257377Y-13958377D01*
X6266901Y-13977425D01*
X6266901Y-14082187D01*
X6362139Y-14082187D02*
X6362139Y-13948854D01*
X6362139Y-13967901D02*
X6371663Y-13958377D01*
X6390710Y-13948854D01*
X6419282Y-13948854D01*
X6438329Y-13958377D01*
X6447853Y-13977425D01*
X6447853Y-14082187D01*
X6447853Y-13977425D02*
X6457377Y-13958377D01*
X6476425Y-13948854D01*
X6504996Y-13948854D01*
X6524044Y-13958377D01*
X6533568Y-13977425D01*
X6533568Y-14082187D01*
X6924044Y-13872663D02*
X6752615Y-14129806D01*
X7181187Y-13882187D02*
X7200234Y-13882187D01*
X7219282Y-13891711D01*
X7228806Y-13901235D01*
X7238329Y-13920282D01*
X7247853Y-13958377D01*
X7247853Y-14005996D01*
X7238329Y-14044092D01*
X7228806Y-14063139D01*
X7219282Y-14072663D01*
X7200234Y-14082187D01*
X7181187Y-14082187D01*
X7162139Y-14072663D01*
X7152615Y-14063139D01*
X7143091Y-14044092D01*
X7133568Y-14005996D01*
X7133568Y-13958377D01*
X7143091Y-13920282D01*
X7152615Y-13901235D01*
X7162139Y-13891711D01*
X7181187Y-13882187D01*
X7333568Y-14063139D02*
X7343091Y-14072663D01*
X7333568Y-14082187D01*
X7324044Y-14072663D01*
X7333568Y-14063139D01*
X7333568Y-14082187D01*
X7466901Y-13882187D02*
X7485948Y-13882187D01*
X7504996Y-13891711D01*
X7514520Y-13901235D01*
X7524044Y-13920282D01*
X7533568Y-13958377D01*
X7533568Y-14005996D01*
X7524044Y-14044092D01*
X7514520Y-14063139D01*
X7504996Y-14072663D01*
X7485948Y-14082187D01*
X7466901Y-14082187D01*
X7447853Y-14072663D01*
X7438329Y-14063139D01*
X7428806Y-14044092D01*
X7419282Y-14005996D01*
X7419282Y-13958377D01*
X7428806Y-13920282D01*
X7438329Y-13901235D01*
X7447853Y-13891711D01*
X7466901Y-13882187D01*
X7600234Y-13882187D02*
X7724044Y-13882187D01*
X7657377Y-13958377D01*
X7685948Y-13958377D01*
X7704996Y-13967901D01*
X7714520Y-13977425D01*
X7724044Y-13996473D01*
X7724044Y-14044092D01*
X7714520Y-14063139D01*
X7704996Y-14072663D01*
X7685948Y-14082187D01*
X7628806Y-14082187D01*
X7609758Y-14072663D01*
X7600234Y-14063139D01*
X7914520Y-14082187D02*
X7800234Y-14082187D01*
X7857377Y-14082187D02*
X7857377Y-13882187D01*
X7838329Y-13910758D01*
X7819282Y-13929806D01*
X7800234Y-13939330D01*
X8095472Y-13882187D02*
X8000234Y-13882187D01*
X7990710Y-13977425D01*
X8000234Y-13967901D01*
X8019282Y-13958377D01*
X8066901Y-13958377D01*
X8085948Y-13967901D01*
X8095472Y-13977425D01*
X8104996Y-13996473D01*
X8104996Y-14044092D01*
X8095472Y-14063139D01*
X8085948Y-14072663D01*
X8066901Y-14082187D01*
X8019282Y-14082187D01*
X8000234Y-14072663D01*
X7990710Y-14063139D01*
X8181187Y-13882187D02*
X8181187Y-13920282D01*
X8257377Y-13882187D02*
X8257377Y-13920282D01*
X8552615Y-14158377D02*
X8543091Y-14148854D01*
X8524044Y-14120282D01*
X8514520Y-14101235D01*
X8504996Y-14072663D01*
X8495472Y-14025044D01*
X8495472Y-13986949D01*
X8504996Y-13939330D01*
X8514520Y-13910758D01*
X8524044Y-13891711D01*
X8543091Y-13863139D01*
X8552615Y-13853615D01*
X8733568Y-14082187D02*
X8619282Y-14082187D01*
X8676425Y-14082187D02*
X8676425Y-13882187D01*
X8657377Y-13910758D01*
X8638330Y-13929806D01*
X8619282Y-13939330D01*
X8857377Y-13882187D02*
X8876425Y-13882187D01*
X8895472Y-13891711D01*
X8904996Y-13901235D01*
X8914520Y-13920282D01*
X8924044Y-13958377D01*
X8924044Y-14005996D01*
X8914520Y-14044092D01*
X8904996Y-14063139D01*
X8895472Y-14072663D01*
X8876425Y-14082187D01*
X8857377Y-14082187D01*
X8838330Y-14072663D01*
X8828806Y-14063139D01*
X8819282Y-14044092D01*
X8809758Y-14005996D01*
X8809758Y-13958377D01*
X8819282Y-13920282D01*
X8828806Y-13901235D01*
X8838330Y-13891711D01*
X8857377Y-13882187D01*
X9162139Y-14082187D02*
X9162139Y-13882187D01*
X9247853Y-14082187D02*
X9247853Y-13977425D01*
X9238330Y-13958377D01*
X9219282Y-13948854D01*
X9190710Y-13948854D01*
X9171663Y-13958377D01*
X9162139Y-13967901D01*
X9371663Y-14082187D02*
X9352615Y-14072663D01*
X9343091Y-14063139D01*
X9333568Y-14044092D01*
X9333568Y-13986949D01*
X9343091Y-13967901D01*
X9352615Y-13958377D01*
X9371663Y-13948854D01*
X9400234Y-13948854D01*
X9419282Y-13958377D01*
X9428806Y-13967901D01*
X9438330Y-13986949D01*
X9438330Y-14044092D01*
X9428806Y-14063139D01*
X9419282Y-14072663D01*
X9400234Y-14082187D01*
X9371663Y-14082187D01*
X9552615Y-14082187D02*
X9533568Y-14072663D01*
X9524044Y-14053615D01*
X9524044Y-13882187D01*
X9704996Y-14072663D02*
X9685949Y-14082187D01*
X9647853Y-14082187D01*
X9628806Y-14072663D01*
X9619282Y-14053615D01*
X9619282Y-13977425D01*
X9628806Y-13958377D01*
X9647853Y-13948854D01*
X9685949Y-13948854D01*
X9704996Y-13958377D01*
X9714520Y-13977425D01*
X9714520Y-13996473D01*
X9619282Y-14015520D01*
X9790710Y-14072663D02*
X9809758Y-14082187D01*
X9847853Y-14082187D01*
X9866901Y-14072663D01*
X9876425Y-14053615D01*
X9876425Y-14044092D01*
X9866901Y-14025044D01*
X9847853Y-14015520D01*
X9819282Y-14015520D01*
X9800234Y-14005996D01*
X9790710Y-13986949D01*
X9790710Y-13977425D01*
X9800234Y-13958377D01*
X9819282Y-13948854D01*
X9847853Y-13948854D01*
X9866901Y-13958377D01*
X10114520Y-14005996D02*
X10266901Y-14005996D01*
X10190710Y-14082187D02*
X10190710Y-13929806D01*
X10600234Y-13882187D02*
X10562139Y-13882187D01*
X10543091Y-13891711D01*
X10533568Y-13901235D01*
X10514520Y-13929806D01*
X10504996Y-13967901D01*
X10504996Y-14044092D01*
X10514520Y-14063139D01*
X10524044Y-14072663D01*
X10543091Y-14082187D01*
X10581187Y-14082187D01*
X10600234Y-14072663D01*
X10609758Y-14063139D01*
X10619282Y-14044092D01*
X10619282Y-13996473D01*
X10609758Y-13977425D01*
X10600234Y-13967901D01*
X10581187Y-13958377D01*
X10543091Y-13958377D01*
X10524044Y-13967901D01*
X10514520Y-13977425D01*
X10504996Y-13996473D01*
X10847853Y-14072663D02*
X10866901Y-14082187D01*
X10904996Y-14082187D01*
X10924044Y-14072663D01*
X10933568Y-14053615D01*
X10933568Y-14044092D01*
X10924044Y-14025044D01*
X10904996Y-14015520D01*
X10876425Y-14015520D01*
X10857377Y-14005996D01*
X10847853Y-13986949D01*
X10847853Y-13977425D01*
X10857377Y-13958377D01*
X10876425Y-13948854D01*
X10904996Y-13948854D01*
X10924044Y-13958377D01*
X11047853Y-14082187D02*
X11028806Y-14072663D01*
X11019282Y-14053615D01*
X11019282Y-13882187D01*
X11152615Y-14082187D02*
X11133568Y-14072663D01*
X11124044Y-14063139D01*
X11114520Y-14044092D01*
X11114520Y-13986949D01*
X11124044Y-13967901D01*
X11133568Y-13958377D01*
X11152615Y-13948854D01*
X11181187Y-13948854D01*
X11200234Y-13958377D01*
X11209758Y-13967901D01*
X11219282Y-13986949D01*
X11219282Y-14044092D01*
X11209758Y-14063139D01*
X11200234Y-14072663D01*
X11181187Y-14082187D01*
X11152615Y-14082187D01*
X11276425Y-13948854D02*
X11352615Y-13948854D01*
X11304996Y-13882187D02*
X11304996Y-14053615D01*
X11314520Y-14072663D01*
X11333568Y-14082187D01*
X11352615Y-14082187D01*
X11409758Y-14072663D02*
X11428806Y-14082187D01*
X11466901Y-14082187D01*
X11485948Y-14072663D01*
X11495472Y-14053615D01*
X11495472Y-14044092D01*
X11485948Y-14025044D01*
X11466901Y-14015520D01*
X11438329Y-14015520D01*
X11419282Y-14005996D01*
X11409758Y-13986949D01*
X11409758Y-13977425D01*
X11419282Y-13958377D01*
X11438329Y-13948854D01*
X11466901Y-13948854D01*
X11485948Y-13958377D01*
X11562139Y-14158377D02*
X11571663Y-14148854D01*
X11590710Y-14120282D01*
X11600234Y-14101235D01*
X11609758Y-14072663D01*
X11619282Y-14025044D01*
X11619282Y-13986949D01*
X11609758Y-13939330D01*
X11600234Y-13910758D01*
X11590710Y-13891711D01*
X11571663Y-13863139D01*
X11562139Y-13853615D01*
D18*
X4881711Y-14206211D02*
X4980711Y-14305211D01*
X4980711Y-14206211D02*
X4881711Y-14305211D01*
X4980711Y-14255711D02*
G75*
G03*
X4980711Y-14255711I-49500J0D01*
G01*
D12*
X5276425Y-14146187D02*
X5295472Y-14146187D01*
X5314520Y-14155711D01*
X5324044Y-14165235D01*
X5333568Y-14184282D01*
X5343091Y-14222377D01*
X5343091Y-14269996D01*
X5333568Y-14308092D01*
X5324044Y-14327139D01*
X5314520Y-14336663D01*
X5295472Y-14346187D01*
X5276425Y-14346187D01*
X5257377Y-14336663D01*
X5247853Y-14327139D01*
X5238330Y-14308092D01*
X5228806Y-14269996D01*
X5228806Y-14222377D01*
X5238330Y-14184282D01*
X5247853Y-14165235D01*
X5257377Y-14155711D01*
X5276425Y-14146187D01*
X5428806Y-14327139D02*
X5438330Y-14336663D01*
X5428806Y-14346187D01*
X5419282Y-14336663D01*
X5428806Y-14327139D01*
X5428806Y-14346187D01*
X5533568Y-14346187D02*
X5571663Y-14346187D01*
X5590711Y-14336663D01*
X5600234Y-14327139D01*
X5619282Y-14298568D01*
X5628806Y-14260473D01*
X5628806Y-14184282D01*
X5619282Y-14165235D01*
X5609758Y-14155711D01*
X5590711Y-14146187D01*
X5552615Y-14146187D01*
X5533568Y-14155711D01*
X5524044Y-14165235D01*
X5514520Y-14184282D01*
X5514520Y-14231901D01*
X5524044Y-14250949D01*
X5533568Y-14260473D01*
X5552615Y-14269996D01*
X5590711Y-14269996D01*
X5609758Y-14260473D01*
X5619282Y-14250949D01*
X5628806Y-14231901D01*
X5724044Y-14346187D02*
X5762139Y-14346187D01*
X5781187Y-14336663D01*
X5790710Y-14327139D01*
X5809758Y-14298568D01*
X5819282Y-14260473D01*
X5819282Y-14184282D01*
X5809758Y-14165235D01*
X5800234Y-14155711D01*
X5781187Y-14146187D01*
X5743091Y-14146187D01*
X5724044Y-14155711D01*
X5714520Y-14165235D01*
X5704996Y-14184282D01*
X5704996Y-14231901D01*
X5714520Y-14250949D01*
X5724044Y-14260473D01*
X5743091Y-14269996D01*
X5781187Y-14269996D01*
X5800234Y-14260473D01*
X5809758Y-14250949D01*
X5819282Y-14231901D01*
X5943091Y-14146187D02*
X5962139Y-14146187D01*
X5981187Y-14155711D01*
X5990710Y-14165235D01*
X6000234Y-14184282D01*
X6009758Y-14222377D01*
X6009758Y-14269996D01*
X6000234Y-14308092D01*
X5990710Y-14327139D01*
X5981187Y-14336663D01*
X5962139Y-14346187D01*
X5943091Y-14346187D01*
X5924044Y-14336663D01*
X5914520Y-14327139D01*
X5904996Y-14308092D01*
X5895472Y-14269996D01*
X5895472Y-14222377D01*
X5904996Y-14184282D01*
X5914520Y-14165235D01*
X5924044Y-14155711D01*
X5943091Y-14146187D01*
X6095472Y-14346187D02*
X6095472Y-14212854D01*
X6095472Y-14231901D02*
X6104996Y-14222377D01*
X6124044Y-14212854D01*
X6152615Y-14212854D01*
X6171663Y-14222377D01*
X6181187Y-14241425D01*
X6181187Y-14346187D01*
X6181187Y-14241425D02*
X6190710Y-14222377D01*
X6209758Y-14212854D01*
X6238329Y-14212854D01*
X6257377Y-14222377D01*
X6266901Y-14241425D01*
X6266901Y-14346187D01*
X6362139Y-14346187D02*
X6362139Y-14212854D01*
X6362139Y-14231901D02*
X6371663Y-14222377D01*
X6390710Y-14212854D01*
X6419282Y-14212854D01*
X6438329Y-14222377D01*
X6447853Y-14241425D01*
X6447853Y-14346187D01*
X6447853Y-14241425D02*
X6457377Y-14222377D01*
X6476425Y-14212854D01*
X6504996Y-14212854D01*
X6524044Y-14222377D01*
X6533568Y-14241425D01*
X6533568Y-14346187D01*
X6924044Y-14136663D02*
X6752615Y-14393806D01*
X7181187Y-14146187D02*
X7200234Y-14146187D01*
X7219282Y-14155711D01*
X7228806Y-14165235D01*
X7238329Y-14184282D01*
X7247853Y-14222377D01*
X7247853Y-14269996D01*
X7238329Y-14308092D01*
X7228806Y-14327139D01*
X7219282Y-14336663D01*
X7200234Y-14346187D01*
X7181187Y-14346187D01*
X7162139Y-14336663D01*
X7152615Y-14327139D01*
X7143091Y-14308092D01*
X7133568Y-14269996D01*
X7133568Y-14222377D01*
X7143091Y-14184282D01*
X7152615Y-14165235D01*
X7162139Y-14155711D01*
X7181187Y-14146187D01*
X7333568Y-14327139D02*
X7343091Y-14336663D01*
X7333568Y-14346187D01*
X7324044Y-14336663D01*
X7333568Y-14327139D01*
X7333568Y-14346187D01*
X7466901Y-14146187D02*
X7485948Y-14146187D01*
X7504996Y-14155711D01*
X7514520Y-14165235D01*
X7524044Y-14184282D01*
X7533568Y-14222377D01*
X7533568Y-14269996D01*
X7524044Y-14308092D01*
X7514520Y-14327139D01*
X7504996Y-14336663D01*
X7485948Y-14346187D01*
X7466901Y-14346187D01*
X7447853Y-14336663D01*
X7438329Y-14327139D01*
X7428806Y-14308092D01*
X7419282Y-14269996D01*
X7419282Y-14222377D01*
X7428806Y-14184282D01*
X7438329Y-14165235D01*
X7447853Y-14155711D01*
X7466901Y-14146187D01*
X7600234Y-14146187D02*
X7724044Y-14146187D01*
X7657377Y-14222377D01*
X7685948Y-14222377D01*
X7704996Y-14231901D01*
X7714520Y-14241425D01*
X7724044Y-14260473D01*
X7724044Y-14308092D01*
X7714520Y-14327139D01*
X7704996Y-14336663D01*
X7685948Y-14346187D01*
X7628806Y-14346187D01*
X7609758Y-14336663D01*
X7600234Y-14327139D01*
X7819282Y-14346187D02*
X7857377Y-14346187D01*
X7876425Y-14336663D01*
X7885948Y-14327139D01*
X7904996Y-14298568D01*
X7914520Y-14260473D01*
X7914520Y-14184282D01*
X7904996Y-14165235D01*
X7895472Y-14155711D01*
X7876425Y-14146187D01*
X7838329Y-14146187D01*
X7819282Y-14155711D01*
X7809758Y-14165235D01*
X7800234Y-14184282D01*
X7800234Y-14231901D01*
X7809758Y-14250949D01*
X7819282Y-14260473D01*
X7838329Y-14269996D01*
X7876425Y-14269996D01*
X7895472Y-14260473D01*
X7904996Y-14250949D01*
X7914520Y-14231901D01*
X8038329Y-14146187D02*
X8057377Y-14146187D01*
X8076425Y-14155711D01*
X8085948Y-14165235D01*
X8095472Y-14184282D01*
X8104996Y-14222377D01*
X8104996Y-14269996D01*
X8095472Y-14308092D01*
X8085948Y-14327139D01*
X8076425Y-14336663D01*
X8057377Y-14346187D01*
X8038329Y-14346187D01*
X8019282Y-14336663D01*
X8009758Y-14327139D01*
X8000234Y-14308092D01*
X7990710Y-14269996D01*
X7990710Y-14222377D01*
X8000234Y-14184282D01*
X8009758Y-14165235D01*
X8019282Y-14155711D01*
X8038329Y-14146187D01*
X8181187Y-14146187D02*
X8181187Y-14184282D01*
X8257377Y-14146187D02*
X8257377Y-14184282D01*
X8552615Y-14422377D02*
X8543091Y-14412854D01*
X8524044Y-14384282D01*
X8514520Y-14365235D01*
X8504996Y-14336663D01*
X8495472Y-14289044D01*
X8495472Y-14250949D01*
X8504996Y-14203330D01*
X8514520Y-14174758D01*
X8524044Y-14155711D01*
X8543091Y-14127139D01*
X8552615Y-14117615D01*
X8619282Y-14165235D02*
X8628806Y-14155711D01*
X8647853Y-14146187D01*
X8695472Y-14146187D01*
X8714520Y-14155711D01*
X8724044Y-14165235D01*
X8733568Y-14184282D01*
X8733568Y-14203330D01*
X8724044Y-14231901D01*
X8609758Y-14346187D01*
X8733568Y-14346187D01*
X8971663Y-14346187D02*
X8971663Y-14146187D01*
X9057377Y-14346187D02*
X9057377Y-14241425D01*
X9047853Y-14222377D01*
X9028806Y-14212854D01*
X9000234Y-14212854D01*
X8981187Y-14222377D01*
X8971663Y-14231901D01*
X9181187Y-14346187D02*
X9162139Y-14336663D01*
X9152615Y-14327139D01*
X9143091Y-14308092D01*
X9143091Y-14250949D01*
X9152615Y-14231901D01*
X9162139Y-14222377D01*
X9181187Y-14212854D01*
X9209758Y-14212854D01*
X9228806Y-14222377D01*
X9238330Y-14231901D01*
X9247853Y-14250949D01*
X9247853Y-14308092D01*
X9238330Y-14327139D01*
X9228806Y-14336663D01*
X9209758Y-14346187D01*
X9181187Y-14346187D01*
X9362139Y-14346187D02*
X9343091Y-14336663D01*
X9333568Y-14317615D01*
X9333568Y-14146187D01*
X9514520Y-14336663D02*
X9495472Y-14346187D01*
X9457377Y-14346187D01*
X9438330Y-14336663D01*
X9428806Y-14317615D01*
X9428806Y-14241425D01*
X9438330Y-14222377D01*
X9457377Y-14212854D01*
X9495472Y-14212854D01*
X9514520Y-14222377D01*
X9524044Y-14241425D01*
X9524044Y-14260473D01*
X9428806Y-14279520D01*
X9600234Y-14336663D02*
X9619282Y-14346187D01*
X9657377Y-14346187D01*
X9676425Y-14336663D01*
X9685949Y-14317615D01*
X9685949Y-14308092D01*
X9676425Y-14289044D01*
X9657377Y-14279520D01*
X9628806Y-14279520D01*
X9609758Y-14269996D01*
X9600234Y-14250949D01*
X9600234Y-14241425D01*
X9609758Y-14222377D01*
X9628806Y-14212854D01*
X9657377Y-14212854D01*
X9676425Y-14222377D01*
X9752615Y-14422377D02*
X9762139Y-14412854D01*
X9781187Y-14384282D01*
X9790710Y-14365235D01*
X9800234Y-14336663D01*
X9809758Y-14289044D01*
X9809758Y-14250949D01*
X9800234Y-14203330D01*
X9790710Y-14174758D01*
X9781187Y-14155711D01*
X9762139Y-14127139D01*
X9752615Y-14117615D01*
D19*
X4880711Y-14469711D02*
X4980711Y-14569711D01*
X4980711Y-14469711D02*
X4880711Y-14569711D01*
X4930711Y-14469711D02*
X4930711Y-14569711D01*
X4880711Y-14519711D02*
X4980711Y-14519711D01*
D12*
X5343091Y-14610187D02*
X5228806Y-14610187D01*
X5285949Y-14610187D02*
X5285949Y-14410187D01*
X5266901Y-14438758D01*
X5247853Y-14457806D01*
X5228806Y-14467330D01*
X5428806Y-14591139D02*
X5438330Y-14600663D01*
X5428806Y-14610187D01*
X5419282Y-14600663D01*
X5428806Y-14591139D01*
X5428806Y-14610187D01*
X5562139Y-14410187D02*
X5581187Y-14410187D01*
X5600234Y-14419711D01*
X5609758Y-14429235D01*
X5619282Y-14448282D01*
X5628806Y-14486377D01*
X5628806Y-14533996D01*
X5619282Y-14572092D01*
X5609758Y-14591139D01*
X5600234Y-14600663D01*
X5581187Y-14610187D01*
X5562139Y-14610187D01*
X5543091Y-14600663D01*
X5533568Y-14591139D01*
X5524044Y-14572092D01*
X5514520Y-14533996D01*
X5514520Y-14486377D01*
X5524044Y-14448282D01*
X5533568Y-14429235D01*
X5543091Y-14419711D01*
X5562139Y-14410187D01*
X5752615Y-14410187D02*
X5771663Y-14410187D01*
X5790710Y-14419711D01*
X5800234Y-14429235D01*
X5809758Y-14448282D01*
X5819282Y-14486377D01*
X5819282Y-14533996D01*
X5809758Y-14572092D01*
X5800234Y-14591139D01*
X5790710Y-14600663D01*
X5771663Y-14610187D01*
X5752615Y-14610187D01*
X5733568Y-14600663D01*
X5724044Y-14591139D01*
X5714520Y-14572092D01*
X5704996Y-14533996D01*
X5704996Y-14486377D01*
X5714520Y-14448282D01*
X5724044Y-14429235D01*
X5733568Y-14419711D01*
X5752615Y-14410187D01*
X5943091Y-14410187D02*
X5962139Y-14410187D01*
X5981187Y-14419711D01*
X5990710Y-14429235D01*
X6000234Y-14448282D01*
X6009758Y-14486377D01*
X6009758Y-14533996D01*
X6000234Y-14572092D01*
X5990710Y-14591139D01*
X5981187Y-14600663D01*
X5962139Y-14610187D01*
X5943091Y-14610187D01*
X5924044Y-14600663D01*
X5914520Y-14591139D01*
X5904996Y-14572092D01*
X5895472Y-14533996D01*
X5895472Y-14486377D01*
X5904996Y-14448282D01*
X5914520Y-14429235D01*
X5924044Y-14419711D01*
X5943091Y-14410187D01*
X6095472Y-14610187D02*
X6095472Y-14476854D01*
X6095472Y-14495901D02*
X6104996Y-14486377D01*
X6124044Y-14476854D01*
X6152615Y-14476854D01*
X6171663Y-14486377D01*
X6181187Y-14505425D01*
X6181187Y-14610187D01*
X6181187Y-14505425D02*
X6190710Y-14486377D01*
X6209758Y-14476854D01*
X6238329Y-14476854D01*
X6257377Y-14486377D01*
X6266901Y-14505425D01*
X6266901Y-14610187D01*
X6362139Y-14610187D02*
X6362139Y-14476854D01*
X6362139Y-14495901D02*
X6371663Y-14486377D01*
X6390710Y-14476854D01*
X6419282Y-14476854D01*
X6438329Y-14486377D01*
X6447853Y-14505425D01*
X6447853Y-14610187D01*
X6447853Y-14505425D02*
X6457377Y-14486377D01*
X6476425Y-14476854D01*
X6504996Y-14476854D01*
X6524044Y-14486377D01*
X6533568Y-14505425D01*
X6533568Y-14610187D01*
X6924044Y-14400663D02*
X6752615Y-14657806D01*
X7181187Y-14410187D02*
X7200234Y-14410187D01*
X7219282Y-14419711D01*
X7228806Y-14429235D01*
X7238329Y-14448282D01*
X7247853Y-14486377D01*
X7247853Y-14533996D01*
X7238329Y-14572092D01*
X7228806Y-14591139D01*
X7219282Y-14600663D01*
X7200234Y-14610187D01*
X7181187Y-14610187D01*
X7162139Y-14600663D01*
X7152615Y-14591139D01*
X7143091Y-14572092D01*
X7133568Y-14533996D01*
X7133568Y-14486377D01*
X7143091Y-14448282D01*
X7152615Y-14429235D01*
X7162139Y-14419711D01*
X7181187Y-14410187D01*
X7333568Y-14591139D02*
X7343091Y-14600663D01*
X7333568Y-14610187D01*
X7324044Y-14600663D01*
X7333568Y-14591139D01*
X7333568Y-14610187D01*
X7466901Y-14410187D02*
X7485948Y-14410187D01*
X7504996Y-14419711D01*
X7514520Y-14429235D01*
X7524044Y-14448282D01*
X7533568Y-14486377D01*
X7533568Y-14533996D01*
X7524044Y-14572092D01*
X7514520Y-14591139D01*
X7504996Y-14600663D01*
X7485948Y-14610187D01*
X7466901Y-14610187D01*
X7447853Y-14600663D01*
X7438329Y-14591139D01*
X7428806Y-14572092D01*
X7419282Y-14533996D01*
X7419282Y-14486377D01*
X7428806Y-14448282D01*
X7438329Y-14429235D01*
X7447853Y-14419711D01*
X7466901Y-14410187D01*
X7600234Y-14410187D02*
X7724044Y-14410187D01*
X7657377Y-14486377D01*
X7685948Y-14486377D01*
X7704996Y-14495901D01*
X7714520Y-14505425D01*
X7724044Y-14524473D01*
X7724044Y-14572092D01*
X7714520Y-14591139D01*
X7704996Y-14600663D01*
X7685948Y-14610187D01*
X7628806Y-14610187D01*
X7609758Y-14600663D01*
X7600234Y-14591139D01*
X7819282Y-14610187D02*
X7857377Y-14610187D01*
X7876425Y-14600663D01*
X7885948Y-14591139D01*
X7904996Y-14562568D01*
X7914520Y-14524473D01*
X7914520Y-14448282D01*
X7904996Y-14429235D01*
X7895472Y-14419711D01*
X7876425Y-14410187D01*
X7838329Y-14410187D01*
X7819282Y-14419711D01*
X7809758Y-14429235D01*
X7800234Y-14448282D01*
X7800234Y-14495901D01*
X7809758Y-14514949D01*
X7819282Y-14524473D01*
X7838329Y-14533996D01*
X7876425Y-14533996D01*
X7895472Y-14524473D01*
X7904996Y-14514949D01*
X7914520Y-14495901D01*
X8085948Y-14476854D02*
X8085948Y-14610187D01*
X8038329Y-14400663D02*
X7990710Y-14543520D01*
X8114520Y-14543520D01*
X8181187Y-14410187D02*
X8181187Y-14448282D01*
X8257377Y-14410187D02*
X8257377Y-14448282D01*
X8552615Y-14686377D02*
X8543091Y-14676854D01*
X8524044Y-14648282D01*
X8514520Y-14629235D01*
X8504996Y-14600663D01*
X8495472Y-14553044D01*
X8495472Y-14514949D01*
X8504996Y-14467330D01*
X8514520Y-14438758D01*
X8524044Y-14419711D01*
X8543091Y-14391139D01*
X8552615Y-14381615D01*
X8733568Y-14610187D02*
X8619282Y-14610187D01*
X8676425Y-14610187D02*
X8676425Y-14410187D01*
X8657377Y-14438758D01*
X8638330Y-14457806D01*
X8619282Y-14467330D01*
X8847853Y-14495901D02*
X8828806Y-14486377D01*
X8819282Y-14476854D01*
X8809758Y-14457806D01*
X8809758Y-14448282D01*
X8819282Y-14429235D01*
X8828806Y-14419711D01*
X8847853Y-14410187D01*
X8885949Y-14410187D01*
X8904996Y-14419711D01*
X8914520Y-14429235D01*
X8924044Y-14448282D01*
X8924044Y-14457806D01*
X8914520Y-14476854D01*
X8904996Y-14486377D01*
X8885949Y-14495901D01*
X8847853Y-14495901D01*
X8828806Y-14505425D01*
X8819282Y-14514949D01*
X8809758Y-14533996D01*
X8809758Y-14572092D01*
X8819282Y-14591139D01*
X8828806Y-14600663D01*
X8847853Y-14610187D01*
X8885949Y-14610187D01*
X8904996Y-14600663D01*
X8914520Y-14591139D01*
X8924044Y-14572092D01*
X8924044Y-14533996D01*
X8914520Y-14514949D01*
X8904996Y-14505425D01*
X8885949Y-14495901D01*
X9162139Y-14610187D02*
X9162139Y-14410187D01*
X9247853Y-14610187D02*
X9247853Y-14505425D01*
X9238330Y-14486377D01*
X9219282Y-14476854D01*
X9190710Y-14476854D01*
X9171663Y-14486377D01*
X9162139Y-14495901D01*
X9371663Y-14610187D02*
X9352615Y-14600663D01*
X9343091Y-14591139D01*
X9333568Y-14572092D01*
X9333568Y-14514949D01*
X9343091Y-14495901D01*
X9352615Y-14486377D01*
X9371663Y-14476854D01*
X9400234Y-14476854D01*
X9419282Y-14486377D01*
X9428806Y-14495901D01*
X9438330Y-14514949D01*
X9438330Y-14572092D01*
X9428806Y-14591139D01*
X9419282Y-14600663D01*
X9400234Y-14610187D01*
X9371663Y-14610187D01*
X9552615Y-14610187D02*
X9533568Y-14600663D01*
X9524044Y-14581615D01*
X9524044Y-14410187D01*
X9704996Y-14600663D02*
X9685949Y-14610187D01*
X9647853Y-14610187D01*
X9628806Y-14600663D01*
X9619282Y-14581615D01*
X9619282Y-14505425D01*
X9628806Y-14486377D01*
X9647853Y-14476854D01*
X9685949Y-14476854D01*
X9704996Y-14486377D01*
X9714520Y-14505425D01*
X9714520Y-14524473D01*
X9619282Y-14543520D01*
X9790710Y-14600663D02*
X9809758Y-14610187D01*
X9847853Y-14610187D01*
X9866901Y-14600663D01*
X9876425Y-14581615D01*
X9876425Y-14572092D01*
X9866901Y-14553044D01*
X9847853Y-14543520D01*
X9819282Y-14543520D01*
X9800234Y-14533996D01*
X9790710Y-14514949D01*
X9790710Y-14505425D01*
X9800234Y-14486377D01*
X9819282Y-14476854D01*
X9847853Y-14476854D01*
X9866901Y-14486377D01*
X9943091Y-14686377D02*
X9952615Y-14676854D01*
X9971663Y-14648282D01*
X9981187Y-14629235D01*
X9990710Y-14600663D01*
X10000234Y-14553044D01*
X10000234Y-14514949D01*
X9990710Y-14467330D01*
X9981187Y-14438758D01*
X9971663Y-14419711D01*
X9952615Y-14391139D01*
X9943091Y-14381615D01*
D20*
X4870711Y-14728711D02*
X4980711Y-14838711D01*
X4980711Y-14728711D02*
X4870711Y-14838711D01*
X4964602Y-14822602D02*
X4964602Y-14744820D01*
X4886819Y-14744820D01*
X4886819Y-14822602D01*
X4964602Y-14822602D01*
D12*
X5343091Y-14874187D02*
X5228806Y-14874187D01*
X5285949Y-14874187D02*
X5285949Y-14674187D01*
X5266901Y-14702758D01*
X5247853Y-14721806D01*
X5228806Y-14731330D01*
X5428806Y-14855139D02*
X5438330Y-14864663D01*
X5428806Y-14874187D01*
X5419282Y-14864663D01*
X5428806Y-14855139D01*
X5428806Y-14874187D01*
X5628806Y-14874187D02*
X5514520Y-14874187D01*
X5571663Y-14874187D02*
X5571663Y-14674187D01*
X5552615Y-14702758D01*
X5533568Y-14721806D01*
X5514520Y-14731330D01*
X5752615Y-14674187D02*
X5771663Y-14674187D01*
X5790710Y-14683711D01*
X5800234Y-14693235D01*
X5809758Y-14712282D01*
X5819282Y-14750377D01*
X5819282Y-14797996D01*
X5809758Y-14836092D01*
X5800234Y-14855139D01*
X5790710Y-14864663D01*
X5771663Y-14874187D01*
X5752615Y-14874187D01*
X5733568Y-14864663D01*
X5724044Y-14855139D01*
X5714520Y-14836092D01*
X5704996Y-14797996D01*
X5704996Y-14750377D01*
X5714520Y-14712282D01*
X5724044Y-14693235D01*
X5733568Y-14683711D01*
X5752615Y-14674187D01*
X5943091Y-14674187D02*
X5962139Y-14674187D01*
X5981187Y-14683711D01*
X5990710Y-14693235D01*
X6000234Y-14712282D01*
X6009758Y-14750377D01*
X6009758Y-14797996D01*
X6000234Y-14836092D01*
X5990710Y-14855139D01*
X5981187Y-14864663D01*
X5962139Y-14874187D01*
X5943091Y-14874187D01*
X5924044Y-14864663D01*
X5914520Y-14855139D01*
X5904996Y-14836092D01*
X5895472Y-14797996D01*
X5895472Y-14750377D01*
X5904996Y-14712282D01*
X5914520Y-14693235D01*
X5924044Y-14683711D01*
X5943091Y-14674187D01*
X6095472Y-14874187D02*
X6095472Y-14740854D01*
X6095472Y-14759901D02*
X6104996Y-14750377D01*
X6124044Y-14740854D01*
X6152615Y-14740854D01*
X6171663Y-14750377D01*
X6181187Y-14769425D01*
X6181187Y-14874187D01*
X6181187Y-14769425D02*
X6190710Y-14750377D01*
X6209758Y-14740854D01*
X6238329Y-14740854D01*
X6257377Y-14750377D01*
X6266901Y-14769425D01*
X6266901Y-14874187D01*
X6362139Y-14874187D02*
X6362139Y-14740854D01*
X6362139Y-14759901D02*
X6371663Y-14750377D01*
X6390710Y-14740854D01*
X6419282Y-14740854D01*
X6438329Y-14750377D01*
X6447853Y-14769425D01*
X6447853Y-14874187D01*
X6447853Y-14769425D02*
X6457377Y-14750377D01*
X6476425Y-14740854D01*
X6504996Y-14740854D01*
X6524044Y-14750377D01*
X6533568Y-14769425D01*
X6533568Y-14874187D01*
X6924044Y-14664663D02*
X6752615Y-14921806D01*
X7181187Y-14674187D02*
X7200234Y-14674187D01*
X7219282Y-14683711D01*
X7228806Y-14693235D01*
X7238329Y-14712282D01*
X7247853Y-14750377D01*
X7247853Y-14797996D01*
X7238329Y-14836092D01*
X7228806Y-14855139D01*
X7219282Y-14864663D01*
X7200234Y-14874187D01*
X7181187Y-14874187D01*
X7162139Y-14864663D01*
X7152615Y-14855139D01*
X7143091Y-14836092D01*
X7133568Y-14797996D01*
X7133568Y-14750377D01*
X7143091Y-14712282D01*
X7152615Y-14693235D01*
X7162139Y-14683711D01*
X7181187Y-14674187D01*
X7333568Y-14855139D02*
X7343091Y-14864663D01*
X7333568Y-14874187D01*
X7324044Y-14864663D01*
X7333568Y-14855139D01*
X7333568Y-14874187D01*
X7466901Y-14674187D02*
X7485948Y-14674187D01*
X7504996Y-14683711D01*
X7514520Y-14693235D01*
X7524044Y-14712282D01*
X7533568Y-14750377D01*
X7533568Y-14797996D01*
X7524044Y-14836092D01*
X7514520Y-14855139D01*
X7504996Y-14864663D01*
X7485948Y-14874187D01*
X7466901Y-14874187D01*
X7447853Y-14864663D01*
X7438329Y-14855139D01*
X7428806Y-14836092D01*
X7419282Y-14797996D01*
X7419282Y-14750377D01*
X7428806Y-14712282D01*
X7438329Y-14693235D01*
X7447853Y-14683711D01*
X7466901Y-14674187D01*
X7704996Y-14740854D02*
X7704996Y-14874187D01*
X7657377Y-14664663D02*
X7609758Y-14807520D01*
X7733568Y-14807520D01*
X7790710Y-14674187D02*
X7914520Y-14674187D01*
X7847853Y-14750377D01*
X7876425Y-14750377D01*
X7895472Y-14759901D01*
X7904996Y-14769425D01*
X7914520Y-14788473D01*
X7914520Y-14836092D01*
X7904996Y-14855139D01*
X7895472Y-14864663D01*
X7876425Y-14874187D01*
X7819282Y-14874187D01*
X7800234Y-14864663D01*
X7790710Y-14855139D01*
X7981187Y-14674187D02*
X8104996Y-14674187D01*
X8038329Y-14750377D01*
X8066901Y-14750377D01*
X8085948Y-14759901D01*
X8095472Y-14769425D01*
X8104996Y-14788473D01*
X8104996Y-14836092D01*
X8095472Y-14855139D01*
X8085948Y-14864663D01*
X8066901Y-14874187D01*
X8009758Y-14874187D01*
X7990710Y-14864663D01*
X7981187Y-14855139D01*
X8181187Y-14674187D02*
X8181187Y-14712282D01*
X8257377Y-14674187D02*
X8257377Y-14712282D01*
X8552615Y-14950377D02*
X8543091Y-14940854D01*
X8524044Y-14912282D01*
X8514520Y-14893235D01*
X8504996Y-14864663D01*
X8495472Y-14817044D01*
X8495472Y-14778949D01*
X8504996Y-14731330D01*
X8514520Y-14702758D01*
X8524044Y-14683711D01*
X8543091Y-14655139D01*
X8552615Y-14645615D01*
X8609758Y-14674187D02*
X8733568Y-14674187D01*
X8666901Y-14750377D01*
X8695472Y-14750377D01*
X8714520Y-14759901D01*
X8724044Y-14769425D01*
X8733568Y-14788473D01*
X8733568Y-14836092D01*
X8724044Y-14855139D01*
X8714520Y-14864663D01*
X8695472Y-14874187D01*
X8638330Y-14874187D01*
X8619282Y-14864663D01*
X8609758Y-14855139D01*
X8800234Y-14674187D02*
X8924044Y-14674187D01*
X8857377Y-14750377D01*
X8885949Y-14750377D01*
X8904996Y-14759901D01*
X8914520Y-14769425D01*
X8924044Y-14788473D01*
X8924044Y-14836092D01*
X8914520Y-14855139D01*
X8904996Y-14864663D01*
X8885949Y-14874187D01*
X8828806Y-14874187D01*
X8809758Y-14864663D01*
X8800234Y-14855139D01*
X9162139Y-14874187D02*
X9162139Y-14674187D01*
X9247853Y-14874187D02*
X9247853Y-14769425D01*
X9238330Y-14750377D01*
X9219282Y-14740854D01*
X9190710Y-14740854D01*
X9171663Y-14750377D01*
X9162139Y-14759901D01*
X9371663Y-14874187D02*
X9352615Y-14864663D01*
X9343091Y-14855139D01*
X9333568Y-14836092D01*
X9333568Y-14778949D01*
X9343091Y-14759901D01*
X9352615Y-14750377D01*
X9371663Y-14740854D01*
X9400234Y-14740854D01*
X9419282Y-14750377D01*
X9428806Y-14759901D01*
X9438330Y-14778949D01*
X9438330Y-14836092D01*
X9428806Y-14855139D01*
X9419282Y-14864663D01*
X9400234Y-14874187D01*
X9371663Y-14874187D01*
X9552615Y-14874187D02*
X9533568Y-14864663D01*
X9524044Y-14845615D01*
X9524044Y-14674187D01*
X9704996Y-14864663D02*
X9685949Y-14874187D01*
X9647853Y-14874187D01*
X9628806Y-14864663D01*
X9619282Y-14845615D01*
X9619282Y-14769425D01*
X9628806Y-14750377D01*
X9647853Y-14740854D01*
X9685949Y-14740854D01*
X9704996Y-14750377D01*
X9714520Y-14769425D01*
X9714520Y-14788473D01*
X9619282Y-14807520D01*
X9790710Y-14864663D02*
X9809758Y-14874187D01*
X9847853Y-14874187D01*
X9866901Y-14864663D01*
X9876425Y-14845615D01*
X9876425Y-14836092D01*
X9866901Y-14817044D01*
X9847853Y-14807520D01*
X9819282Y-14807520D01*
X9800234Y-14797996D01*
X9790710Y-14778949D01*
X9790710Y-14769425D01*
X9800234Y-14750377D01*
X9819282Y-14740854D01*
X9847853Y-14740854D01*
X9866901Y-14750377D01*
X9943091Y-14950377D02*
X9952615Y-14940854D01*
X9971663Y-14912282D01*
X9981187Y-14893235D01*
X9990710Y-14864663D01*
X10000234Y-14817044D01*
X10000234Y-14778949D01*
X9990710Y-14731330D01*
X9981187Y-14702758D01*
X9971663Y-14683711D01*
X9952615Y-14655139D01*
X9943091Y-14645615D01*
D21*
X4800711Y-14957711D02*
X4980711Y-15137711D01*
X4980711Y-14957711D02*
X4800711Y-15137711D01*
X4890711Y-15137711D02*
X4980711Y-15047711D01*
X4890711Y-14957711D01*
X4800711Y-15047711D01*
X4890711Y-15137711D01*
D12*
X5343091Y-15138187D02*
X5228806Y-15138187D01*
X5285949Y-15138187D02*
X5285949Y-14938187D01*
X5266901Y-14966758D01*
X5247853Y-14985806D01*
X5228806Y-14995330D01*
X5428806Y-15119139D02*
X5438330Y-15128663D01*
X5428806Y-15138187D01*
X5419282Y-15128663D01*
X5428806Y-15119139D01*
X5428806Y-15138187D01*
X5552615Y-15023901D02*
X5533568Y-15014377D01*
X5524044Y-15004854D01*
X5514520Y-14985806D01*
X5514520Y-14976282D01*
X5524044Y-14957235D01*
X5533568Y-14947711D01*
X5552615Y-14938187D01*
X5590711Y-14938187D01*
X5609758Y-14947711D01*
X5619282Y-14957235D01*
X5628806Y-14976282D01*
X5628806Y-14985806D01*
X5619282Y-15004854D01*
X5609758Y-15014377D01*
X5590711Y-15023901D01*
X5552615Y-15023901D01*
X5533568Y-15033425D01*
X5524044Y-15042949D01*
X5514520Y-15061996D01*
X5514520Y-15100092D01*
X5524044Y-15119139D01*
X5533568Y-15128663D01*
X5552615Y-15138187D01*
X5590711Y-15138187D01*
X5609758Y-15128663D01*
X5619282Y-15119139D01*
X5628806Y-15100092D01*
X5628806Y-15061996D01*
X5619282Y-15042949D01*
X5609758Y-15033425D01*
X5590711Y-15023901D01*
X5752615Y-14938187D02*
X5771663Y-14938187D01*
X5790710Y-14947711D01*
X5800234Y-14957235D01*
X5809758Y-14976282D01*
X5819282Y-15014377D01*
X5819282Y-15061996D01*
X5809758Y-15100092D01*
X5800234Y-15119139D01*
X5790710Y-15128663D01*
X5771663Y-15138187D01*
X5752615Y-15138187D01*
X5733568Y-15128663D01*
X5724044Y-15119139D01*
X5714520Y-15100092D01*
X5704996Y-15061996D01*
X5704996Y-15014377D01*
X5714520Y-14976282D01*
X5724044Y-14957235D01*
X5733568Y-14947711D01*
X5752615Y-14938187D01*
X5943091Y-14938187D02*
X5962139Y-14938187D01*
X5981187Y-14947711D01*
X5990710Y-14957235D01*
X6000234Y-14976282D01*
X6009758Y-15014377D01*
X6009758Y-15061996D01*
X6000234Y-15100092D01*
X5990710Y-15119139D01*
X5981187Y-15128663D01*
X5962139Y-15138187D01*
X5943091Y-15138187D01*
X5924044Y-15128663D01*
X5914520Y-15119139D01*
X5904996Y-15100092D01*
X5895472Y-15061996D01*
X5895472Y-15014377D01*
X5904996Y-14976282D01*
X5914520Y-14957235D01*
X5924044Y-14947711D01*
X5943091Y-14938187D01*
X6095472Y-15138187D02*
X6095472Y-15004854D01*
X6095472Y-15023901D02*
X6104996Y-15014377D01*
X6124044Y-15004854D01*
X6152615Y-15004854D01*
X6171663Y-15014377D01*
X6181187Y-15033425D01*
X6181187Y-15138187D01*
X6181187Y-15033425D02*
X6190710Y-15014377D01*
X6209758Y-15004854D01*
X6238329Y-15004854D01*
X6257377Y-15014377D01*
X6266901Y-15033425D01*
X6266901Y-15138187D01*
X6362139Y-15138187D02*
X6362139Y-15004854D01*
X6362139Y-15023901D02*
X6371663Y-15014377D01*
X6390710Y-15004854D01*
X6419282Y-15004854D01*
X6438329Y-15014377D01*
X6447853Y-15033425D01*
X6447853Y-15138187D01*
X6447853Y-15033425D02*
X6457377Y-15014377D01*
X6476425Y-15004854D01*
X6504996Y-15004854D01*
X6524044Y-15014377D01*
X6533568Y-15033425D01*
X6533568Y-15138187D01*
X6924044Y-14928663D02*
X6752615Y-15185806D01*
X7181187Y-14938187D02*
X7200234Y-14938187D01*
X7219282Y-14947711D01*
X7228806Y-14957235D01*
X7238329Y-14976282D01*
X7247853Y-15014377D01*
X7247853Y-15061996D01*
X7238329Y-15100092D01*
X7228806Y-15119139D01*
X7219282Y-15128663D01*
X7200234Y-15138187D01*
X7181187Y-15138187D01*
X7162139Y-15128663D01*
X7152615Y-15119139D01*
X7143091Y-15100092D01*
X7133568Y-15061996D01*
X7133568Y-15014377D01*
X7143091Y-14976282D01*
X7152615Y-14957235D01*
X7162139Y-14947711D01*
X7181187Y-14938187D01*
X7333568Y-15119139D02*
X7343091Y-15128663D01*
X7333568Y-15138187D01*
X7324044Y-15128663D01*
X7333568Y-15119139D01*
X7333568Y-15138187D01*
X7466901Y-14938187D02*
X7485948Y-14938187D01*
X7504996Y-14947711D01*
X7514520Y-14957235D01*
X7524044Y-14976282D01*
X7533568Y-15014377D01*
X7533568Y-15061996D01*
X7524044Y-15100092D01*
X7514520Y-15119139D01*
X7504996Y-15128663D01*
X7485948Y-15138187D01*
X7466901Y-15138187D01*
X7447853Y-15128663D01*
X7438329Y-15119139D01*
X7428806Y-15100092D01*
X7419282Y-15061996D01*
X7419282Y-15014377D01*
X7428806Y-14976282D01*
X7438329Y-14957235D01*
X7447853Y-14947711D01*
X7466901Y-14938187D01*
X7600234Y-14938187D02*
X7733568Y-14938187D01*
X7647853Y-15138187D01*
X7847853Y-14938187D02*
X7866901Y-14938187D01*
X7885948Y-14947711D01*
X7895472Y-14957235D01*
X7904996Y-14976282D01*
X7914520Y-15014377D01*
X7914520Y-15061996D01*
X7904996Y-15100092D01*
X7895472Y-15119139D01*
X7885948Y-15128663D01*
X7866901Y-15138187D01*
X7847853Y-15138187D01*
X7828806Y-15128663D01*
X7819282Y-15119139D01*
X7809758Y-15100092D01*
X7800234Y-15061996D01*
X7800234Y-15014377D01*
X7809758Y-14976282D01*
X7819282Y-14957235D01*
X7828806Y-14947711D01*
X7847853Y-14938187D01*
X8009758Y-15138187D02*
X8047853Y-15138187D01*
X8066901Y-15128663D01*
X8076425Y-15119139D01*
X8095472Y-15090568D01*
X8104996Y-15052473D01*
X8104996Y-14976282D01*
X8095472Y-14957235D01*
X8085948Y-14947711D01*
X8066901Y-14938187D01*
X8028806Y-14938187D01*
X8009758Y-14947711D01*
X8000234Y-14957235D01*
X7990710Y-14976282D01*
X7990710Y-15023901D01*
X8000234Y-15042949D01*
X8009758Y-15052473D01*
X8028806Y-15061996D01*
X8066901Y-15061996D01*
X8085948Y-15052473D01*
X8095472Y-15042949D01*
X8104996Y-15023901D01*
X8181187Y-14938187D02*
X8181187Y-14976282D01*
X8257377Y-14938187D02*
X8257377Y-14976282D01*
X8552615Y-15214377D02*
X8543091Y-15204854D01*
X8524044Y-15176282D01*
X8514520Y-15157235D01*
X8504996Y-15128663D01*
X8495472Y-15081044D01*
X8495472Y-15042949D01*
X8504996Y-14995330D01*
X8514520Y-14966758D01*
X8524044Y-14947711D01*
X8543091Y-14919139D01*
X8552615Y-14909615D01*
X8666901Y-14938187D02*
X8685949Y-14938187D01*
X8704996Y-14947711D01*
X8714520Y-14957235D01*
X8724044Y-14976282D01*
X8733568Y-15014377D01*
X8733568Y-15061996D01*
X8724044Y-15100092D01*
X8714520Y-15119139D01*
X8704996Y-15128663D01*
X8685949Y-15138187D01*
X8666901Y-15138187D01*
X8647853Y-15128663D01*
X8638330Y-15119139D01*
X8628806Y-15100092D01*
X8619282Y-15061996D01*
X8619282Y-15014377D01*
X8628806Y-14976282D01*
X8638330Y-14957235D01*
X8647853Y-14947711D01*
X8666901Y-14938187D01*
X8971663Y-15138187D02*
X8971663Y-14938187D01*
X9057377Y-15138187D02*
X9057377Y-15033425D01*
X9047853Y-15014377D01*
X9028806Y-15004854D01*
X9000234Y-15004854D01*
X8981187Y-15014377D01*
X8971663Y-15023901D01*
X9181187Y-15138187D02*
X9162139Y-15128663D01*
X9152615Y-15119139D01*
X9143091Y-15100092D01*
X9143091Y-15042949D01*
X9152615Y-15023901D01*
X9162139Y-15014377D01*
X9181187Y-15004854D01*
X9209758Y-15004854D01*
X9228806Y-15014377D01*
X9238330Y-15023901D01*
X9247853Y-15042949D01*
X9247853Y-15100092D01*
X9238330Y-15119139D01*
X9228806Y-15128663D01*
X9209758Y-15138187D01*
X9181187Y-15138187D01*
X9362139Y-15138187D02*
X9343091Y-15128663D01*
X9333568Y-15109615D01*
X9333568Y-14938187D01*
X9514520Y-15128663D02*
X9495472Y-15138187D01*
X9457377Y-15138187D01*
X9438330Y-15128663D01*
X9428806Y-15109615D01*
X9428806Y-15033425D01*
X9438330Y-15014377D01*
X9457377Y-15004854D01*
X9495472Y-15004854D01*
X9514520Y-15014377D01*
X9524044Y-15033425D01*
X9524044Y-15052473D01*
X9428806Y-15071520D01*
X9600234Y-15128663D02*
X9619282Y-15138187D01*
X9657377Y-15138187D01*
X9676425Y-15128663D01*
X9685949Y-15109615D01*
X9685949Y-15100092D01*
X9676425Y-15081044D01*
X9657377Y-15071520D01*
X9628806Y-15071520D01*
X9609758Y-15061996D01*
X9600234Y-15042949D01*
X9600234Y-15033425D01*
X9609758Y-15014377D01*
X9628806Y-15004854D01*
X9657377Y-15004854D01*
X9676425Y-15014377D01*
X9924044Y-15061996D02*
X10076425Y-15061996D01*
X10000234Y-15138187D02*
X10000234Y-14985806D01*
X10314520Y-14957235D02*
X10324044Y-14947711D01*
X10343091Y-14938187D01*
X10390710Y-14938187D01*
X10409758Y-14947711D01*
X10419282Y-14957235D01*
X10428806Y-14976282D01*
X10428806Y-14995330D01*
X10419282Y-15023901D01*
X10304996Y-15138187D01*
X10428806Y-15138187D01*
X10657377Y-15128663D02*
X10676425Y-15138187D01*
X10714520Y-15138187D01*
X10733568Y-15128663D01*
X10743091Y-15109615D01*
X10743091Y-15100092D01*
X10733568Y-15081044D01*
X10714520Y-15071520D01*
X10685949Y-15071520D01*
X10666901Y-15061996D01*
X10657377Y-15042949D01*
X10657377Y-15033425D01*
X10666901Y-15014377D01*
X10685949Y-15004854D01*
X10714520Y-15004854D01*
X10733568Y-15014377D01*
X10857377Y-15138187D02*
X10838330Y-15128663D01*
X10828806Y-15109615D01*
X10828806Y-14938187D01*
X10962139Y-15138187D02*
X10943091Y-15128663D01*
X10933568Y-15119139D01*
X10924044Y-15100092D01*
X10924044Y-15042949D01*
X10933568Y-15023901D01*
X10943091Y-15014377D01*
X10962139Y-15004854D01*
X10990710Y-15004854D01*
X11009758Y-15014377D01*
X11019282Y-15023901D01*
X11028806Y-15042949D01*
X11028806Y-15100092D01*
X11019282Y-15119139D01*
X11009758Y-15128663D01*
X10990710Y-15138187D01*
X10962139Y-15138187D01*
X11085949Y-15004854D02*
X11162139Y-15004854D01*
X11114520Y-14938187D02*
X11114520Y-15109615D01*
X11124044Y-15128663D01*
X11143091Y-15138187D01*
X11162139Y-15138187D01*
X11219282Y-15128663D02*
X11238329Y-15138187D01*
X11276425Y-15138187D01*
X11295472Y-15128663D01*
X11304996Y-15109615D01*
X11304996Y-15100092D01*
X11295472Y-15081044D01*
X11276425Y-15071520D01*
X11247853Y-15071520D01*
X11228806Y-15061996D01*
X11219282Y-15042949D01*
X11219282Y-15033425D01*
X11228806Y-15014377D01*
X11247853Y-15004854D01*
X11276425Y-15004854D01*
X11295472Y-15014377D01*
X11371663Y-15214377D02*
X11381187Y-15204854D01*
X11400234Y-15176282D01*
X11409758Y-15157235D01*
X11419282Y-15128663D01*
X11428806Y-15081044D01*
X11428806Y-15042949D01*
X11419282Y-14995330D01*
X11409758Y-14966758D01*
X11400234Y-14947711D01*
X11381187Y-14919139D01*
X11371663Y-14909615D01*
M02*
