%TF.GenerationSoftware,KiCad,Pcbnew,(5.1.12)-1*%
%TF.CreationDate,2021-12-26T15:19:19-08:00*%
%TF.ProjectId,PhobGCC,50686f62-4743-4432-9e6b-696361645f70,rev?*%
%TF.SameCoordinates,Original*%
%TF.FileFunction,Soldermask,Bot*%
%TF.FilePolarity,Negative*%
%FSLAX46Y46*%
G04 Gerber Fmt 4.6, Leading zero omitted, Abs format (unit mm)*
G04 Created by KiCad (PCBNEW (5.1.12)-1) date 2021-12-26 15:19:19*
%MOMM*%
%LPD*%
G01*
G04 APERTURE LIST*
%ADD10O,1.400000X1.400000*%
%ADD11R,1.400000X1.400000*%
%ADD12C,2.000000*%
%ADD13C,1.498000*%
%ADD14O,1.600000X2.500000*%
%ADD15C,1.400000*%
%ADD16C,1.600000*%
%ADD17R,1.600000X1.600000*%
%ADD18C,2.200000*%
%ADD19C,2.400000*%
%ADD20C,1.800000*%
%ADD21O,2.800000X2.200000*%
%ADD22C,5.200000*%
%ADD23C,0.100000*%
%ADD24O,1.550000X1.000000*%
%ADD25O,0.950000X1.250000*%
%ADD26R,1.350000X0.400000*%
%ADD27R,1.700000X1.700000*%
%ADD28O,1.700000X1.700000*%
%ADD29R,1.350000X1.350000*%
%ADD30O,1.350000X1.350000*%
G04 APERTURE END LIST*
D10*
X95600000Y-52900000D03*
X97600000Y-52900000D03*
X99600000Y-52900000D03*
X101600000Y-52900000D03*
X103600000Y-52900000D03*
D11*
X105600000Y-52900000D03*
D12*
X167258846Y-63067949D03*
X160244040Y-59017949D03*
D13*
X160802886Y-61650000D03*
X164700000Y-63900000D03*
D14*
X91950000Y-74900000D03*
X83250000Y-74900000D03*
D15*
X85200000Y-63400000D03*
X87600000Y-63400000D03*
X90000000Y-63400000D03*
D16*
X127850000Y-65670000D03*
X127850000Y-63540000D03*
D17*
X129120000Y-56150000D03*
D16*
X126580000Y-56150000D03*
X124040000Y-56150000D03*
X121500000Y-56150000D03*
X118960000Y-56150000D03*
X116420000Y-56150000D03*
X113880000Y-56150000D03*
X111340000Y-56150000D03*
X108800000Y-56150000D03*
X106260000Y-56150000D03*
X103720000Y-56150000D03*
X101180000Y-56150000D03*
X98640000Y-56150000D03*
X129120000Y-71390000D03*
X126580000Y-71390000D03*
X124040000Y-71390000D03*
X121500000Y-71390000D03*
X118960000Y-71390000D03*
X116420000Y-71390000D03*
X113880000Y-71390000D03*
X111340000Y-71390000D03*
X108800000Y-71390000D03*
X106260000Y-71390000D03*
X103720000Y-71390000D03*
X101180000Y-71390000D03*
X98640000Y-71390000D03*
X96100000Y-56150000D03*
X96100000Y-61230000D03*
X96100000Y-71390000D03*
X96100000Y-63770000D03*
D18*
X82183378Y-89183378D03*
X60616622Y-67616621D03*
D19*
X159600000Y-68400000D03*
D20*
X119200000Y-78400000D03*
X106000000Y-78400000D03*
D12*
X167600000Y-87900000D03*
X57600000Y-87900000D03*
D21*
X172400000Y-103400000D03*
D22*
X75600000Y-98400000D03*
D23*
G36*
X70271199Y-68124809D02*
G01*
X70313068Y-67325906D01*
X71111971Y-67367775D01*
X71070102Y-68166678D01*
X70271199Y-68124809D01*
G37*
G36*
X71539458Y-68191276D02*
G01*
X71581327Y-67392373D01*
X72380230Y-67434242D01*
X72338361Y-68233145D01*
X71539458Y-68191276D01*
G37*
G36*
X72807718Y-68257743D02*
G01*
X72849587Y-67458840D01*
X73648490Y-67500709D01*
X73606621Y-68299612D01*
X72807718Y-68257743D01*
G37*
D16*
X80723315Y-76383149D03*
X80592475Y-78879723D03*
X80461635Y-81376297D03*
G36*
G01*
X77616459Y-73566689D02*
X77668795Y-72568059D01*
G75*
G02*
X78509568Y-71811024I798904J-41869D01*
G01*
X78509568Y-71811024D01*
G75*
G02*
X79266603Y-72651797I-41869J-798904D01*
G01*
X79214267Y-73650427D01*
G75*
G02*
X78373494Y-74407462I-798904J41869D01*
G01*
X78373494Y-74407462D01*
G75*
G02*
X77616459Y-73566689I41869J798904D01*
G01*
G37*
G36*
G01*
X77162273Y-85699326D02*
X76024951Y-85316574D01*
G75*
G02*
X75144618Y-83543155I446543J1326876D01*
G01*
X75144618Y-83543155D01*
G75*
G02*
X76918037Y-82662822I1326876J-446543D01*
G01*
X78055359Y-83045574D01*
G75*
G02*
X78935692Y-84818993I-446543J-1326876D01*
G01*
X78935692Y-84818993D01*
G75*
G02*
X77162273Y-85699326I-1326876J446543D01*
G01*
G37*
G36*
G01*
X63543563Y-84144667D02*
X63595899Y-83146037D01*
G75*
G02*
X64436672Y-82389002I798904J-41869D01*
G01*
X64436672Y-82389002D01*
G75*
G02*
X65193707Y-83229775I-41869J-798904D01*
G01*
X65141371Y-84228405D01*
G75*
G02*
X64300598Y-84985440I-798904J41869D01*
G01*
X64300598Y-84985440D01*
G75*
G02*
X63543563Y-84144667I41869J798904D01*
G01*
G37*
G36*
G01*
X65892129Y-74133642D02*
X64754807Y-73750890D01*
G75*
G02*
X63874474Y-71977471I446543J1326876D01*
G01*
X63874474Y-71977471D01*
G75*
G02*
X65647893Y-71097138I1326876J-446543D01*
G01*
X66785215Y-71479890D01*
G75*
G02*
X67665548Y-73253309I-446543J-1326876D01*
G01*
X67665548Y-73253309D01*
G75*
G02*
X65892129Y-74133642I-1326876J446543D01*
G01*
G37*
X73420166Y-87716464D03*
X70923592Y-87585624D03*
X68427018Y-87454784D03*
D23*
G36*
X60332757Y-79490247D02*
G01*
X60374626Y-78691344D01*
X61173529Y-78733213D01*
X61131660Y-79532116D01*
X60332757Y-79490247D01*
G37*
G36*
X60399224Y-78221988D02*
G01*
X60441093Y-77423085D01*
X61239996Y-77464954D01*
X61198127Y-78263857D01*
X60399224Y-78221988D01*
G37*
G36*
X60465691Y-76953728D02*
G01*
X60507560Y-76154825D01*
X61306463Y-76196694D01*
X61264594Y-76995597D01*
X60465691Y-76953728D01*
G37*
D12*
X71261159Y-81144463D03*
X71549007Y-75652001D03*
D16*
X71131628Y-83616071D03*
X71678538Y-73180393D03*
D24*
X173700000Y-101100000D03*
X173700000Y-94100000D03*
D25*
X171000000Y-95100000D03*
X171000000Y-100100000D03*
D26*
X171000000Y-96300000D03*
X171000000Y-96950000D03*
X171000000Y-98900000D03*
X171000000Y-98250000D03*
X171000000Y-97600000D03*
D14*
X141950000Y-74900000D03*
X133250000Y-74900000D03*
D15*
X135200000Y-63400000D03*
X137600000Y-63400000D03*
X140000000Y-63400000D03*
D27*
X110500000Y-53000000D03*
X119500000Y-52500000D03*
X165400000Y-92400000D03*
D28*
X167940000Y-92400000D03*
D27*
X54050000Y-89800000D03*
D28*
X54050000Y-92340000D03*
D29*
X169100000Y-105900000D03*
D30*
X167100000Y-105900000D03*
X165100000Y-105900000D03*
X163100000Y-105900000D03*
M02*
