M48
; DRILL file {KiCad (5.1.12)-1} date 12/26/21 15:19:22
; FORMAT={-:-/ absolute / metric / decimal}
; #@! TF.CreationDate,2021-12-26T15:19:22-08:00
; #@! TF.GenerationSoftware,Kicad,Pcbnew,(5.1.12)-1
; #@! TF.FileFunction,Plated,1,2,PTH
FMAT,2
METRIC
T1C0.400
T2C0.500
T3C0.550
T4C0.600
T5C0.800
T6C0.990
T7C1.000
T8C1.100
T9C1.200
T10C1.800
%
G90
G05
T1
X66.7Y-97.0
X82.4Y-111.4
X90.0Y-68.0
X90.0Y-71.0
X90.3Y-103.5
X90.3Y-119.4
X92.11Y-54.01
X95.0Y-76.0
X98.3Y-111.4
X112.0Y-81.6
X125.0Y-75.5
X131.0Y-74.0
X138.65Y-90.35
X149.9Y-68.6
X153.85Y-82.65
X168.2Y-79.3
X169.25Y-96.5
X169.25Y-98.0
X169.35Y-100.55
T4
X60.753Y-79.112
X60.82Y-77.843
X60.886Y-76.575
X70.692Y-67.746
X71.96Y-67.813
X73.228Y-67.879
T5
X85.2Y-63.4
X87.6Y-63.4
X90.0Y-63.4
X135.2Y-63.4
X137.6Y-63.4
X140.0Y-63.4
X163.1Y-105.9
X165.1Y-105.9
X167.1Y-105.9
X169.1Y-105.9
T6
X160.803Y-61.65
X164.7Y-63.9
T7
X54.05Y-89.8
X54.05Y-92.34
X68.427Y-87.455
X70.924Y-87.586
X73.42Y-87.716
X80.462Y-81.376
X80.592Y-78.88
X80.723Y-76.383
X95.6Y-52.9
X97.6Y-52.9
X99.6Y-52.9
X101.6Y-52.9
X103.6Y-52.9
X105.6Y-52.9
X110.5Y-53.0
X119.5Y-52.5
X165.4Y-92.4
X167.94Y-92.4
T8
X96.1Y-56.15
X96.1Y-61.23
X96.1Y-63.77
X96.1Y-71.39
X98.64Y-56.15
X98.64Y-71.39
X101.18Y-56.15
X101.18Y-71.39
X103.72Y-56.15
X103.72Y-71.39
X106.26Y-56.15
X106.26Y-71.39
X108.8Y-56.15
X108.8Y-71.39
X111.34Y-56.15
X111.34Y-71.39
X113.88Y-56.15
X113.88Y-71.39
X116.42Y-56.15
X116.42Y-71.39
X118.96Y-56.15
X118.96Y-71.39
X121.5Y-56.15
X121.5Y-71.39
X124.04Y-56.15
X124.04Y-71.39
X126.58Y-56.15
X126.58Y-71.39
X127.85Y-63.54
X127.85Y-65.67
X129.12Y-56.15
X129.12Y-71.39
T9
X160.244Y-59.018
X167.259Y-63.068
T2
X174.025Y-94.1G85X173.375Y-94.1
G05
X174.025Y-101.1G85X173.375Y-101.1
G05
T3
X171.0Y-94.95G85X171.0Y-95.25
G05
X171.0Y-99.95G85X171.0Y-100.25
G05
T5
X64.39Y-83.288G85X64.348Y-84.087
G05
X78.462Y-72.71G85X78.421Y-73.509
G05
X83.25Y-75.25G85X83.25Y-74.55
G05
X91.95Y-75.25G85X91.95Y-74.55
G05
X133.25Y-75.25G85X133.25Y-74.55
G05
X141.95Y-75.25G85X141.95Y-74.55
G05
T10
X65.201Y-72.424G85X66.339Y-72.807
G05
X76.471Y-83.99G85X77.609Y-84.372
G05
T0
M30
