%FSLAX45Y45*%
G04 Gerber Fmt 4.5, Leading zero omitted, Abs format (unit mm)*
G04 Created by KiCad (PCBNEW (5.1.12)-1) date 2021-12-26 09:44:04*
%MOMM*%
%LPD*%
G01*
G04 APERTURE LIST*
%TA.AperFunction,Profile*%
%ADD10C,0.050000*%
%TD*%
%TA.AperFunction,Profile*%
%ADD11C,0.100000*%
%TD*%
%ADD12C,0.200000*%
%ADD13C,0.300000*%
G04 APERTURE END LIST*
D10*
X13570000Y-6100000D02*
X13570000Y-5840000D01*
X13950000Y-6100000D02*
X13570000Y-6100000D01*
X13950000Y-5840000D02*
X13950000Y-6100000D01*
X13570000Y-5840000D02*
X13950000Y-5840000D01*
X8570000Y-6100000D02*
X8570000Y-5840000D01*
X8950000Y-6100000D02*
X8570000Y-6100000D01*
X8950000Y-5840000D02*
X8950000Y-6100000D01*
X8570000Y-5840000D02*
X8950000Y-5840000D01*
D11*
X8991421Y-5032964D02*
X8950000Y-5074386D01*
X6413529Y-10669440D02*
G75*
G02*
X6317745Y-10740711I-95784J28729D01*
G01*
X8920711Y-5340711D02*
G75*
G02*
X8400711Y-5340711I-260000J0D01*
G01*
X7644355Y-5263840D02*
G75*
G02*
X7677994Y-5258012I33640J-94172D01*
G01*
X5015000Y-10570000D02*
G75*
G02*
X4985711Y-10499289I70711J70711D01*
G01*
X6413529Y-10669440D02*
G75*
G02*
X7580710Y-10840711I571025J-171271D01*
G01*
X9897154Y-9678052D02*
G75*
G02*
X7580710Y-10840711I-866444J-1162659D01*
G01*
X6116444Y-5944687D02*
G75*
G02*
X7644355Y-5263839I5228272J-9678077D01*
G01*
X8920711Y-5145096D02*
X8920711Y-5340711D01*
X5227132Y-10740711D02*
G75*
G02*
X5156421Y-10711421I0J100000D01*
G01*
X4985711Y-7840710D02*
G75*
G02*
X6116445Y-5944687I2155000J0D01*
G01*
X8920711Y-5145096D02*
G75*
G02*
X8950000Y-5074386I100000J0D01*
G01*
X8991421Y-5032964D02*
G75*
G02*
X9062132Y-5003675I70711J-70711D01*
G01*
X12290000Y-5420148D02*
G75*
G02*
X12260711Y-5349438I70711J70711D01*
G01*
X12231421Y-5074386D02*
G75*
G02*
X12260711Y-5145096I-70711J-70711D01*
G01*
X12119289Y-5003675D02*
G75*
G02*
X12190000Y-5032964I0J-100000D01*
G01*
X16080293Y-5934253D02*
G75*
G02*
X15967595Y-5869452I-56349J32401D01*
G01*
X15574491Y-10260711D02*
G75*
G02*
X16067498Y-10677377I0J-500000D01*
G01*
X15634010Y-5600711D02*
G75*
G02*
X15683857Y-5614020I0J-100000D01*
G01*
X17465000Y-10731421D02*
G75*
G02*
X17394289Y-10760711I-70711J70711D01*
G01*
X16782487Y-6338014D02*
G75*
G02*
X16669789Y-6273213I-56349J32401D01*
G01*
X13860711Y-5600711D02*
G75*
G02*
X13673732Y-5521373I0J260000D01*
G01*
X13601817Y-5490859D02*
G75*
G02*
X13673732Y-5521373I0J-100000D01*
G01*
X17535711Y-10619289D02*
G75*
G02*
X17506421Y-10690000I-100000J0D01*
G01*
X16860711Y-6290711D02*
G75*
G02*
X17535711Y-7640711I-1012500J-1350000D01*
G01*
X12402132Y-5490859D02*
G75*
G02*
X12331421Y-5461570I0J100000D01*
G01*
X16166099Y-10760711D02*
G75*
G02*
X16067498Y-10677377I0J100000D01*
G01*
X9332099Y-8595508D02*
G75*
G02*
X13135962Y-8581370I1928611J-7171632D01*
G01*
X13352132Y-9240711D02*
G75*
G02*
X13281421Y-9211421I0J100000D01*
G01*
X13560711Y-9240711D02*
G75*
G02*
X14433600Y-9557442I0J-1361177D01*
G01*
X9897154Y-9678052D02*
G75*
G02*
X9260887Y-8715648I1015831J1363117D01*
G01*
X9260886Y-8715648D02*
G75*
G02*
X9332099Y-8595508I97182J23571D01*
G01*
X13240000Y-9170000D02*
G75*
G02*
X13210711Y-9099289I70711J70711D01*
G01*
X14960711Y-9580711D02*
G75*
G02*
X15220711Y-9840711I0J-260000D01*
G01*
X13135962Y-8581370D02*
G75*
G02*
X13210711Y-8678130I-25251J-96759D01*
G01*
X14497727Y-9580711D02*
G75*
G02*
X14433600Y-9557442I0J100000D01*
G01*
X15250000Y-10190000D02*
G75*
G02*
X15220711Y-10119289I70711J70711D01*
G01*
X15362132Y-10260711D02*
G75*
G02*
X15291421Y-10231421I0J100000D01*
G01*
X16007473Y-5800099D02*
X15683857Y-5614020D01*
X12119289Y-5003675D02*
X9062132Y-5003675D01*
X13601817Y-5490859D02*
X12402132Y-5490859D01*
X12260711Y-5349438D02*
X12260711Y-5145096D01*
X15634010Y-5600711D02*
X13860711Y-5600711D01*
X16669789Y-6273213D02*
X16709667Y-6203861D01*
X16709667Y-6203861D02*
X16120171Y-5864900D01*
X16120171Y-5864900D02*
X16080293Y-5934253D01*
X15967595Y-5869452D02*
X16007473Y-5800099D01*
X12231421Y-5074386D02*
X12190000Y-5032964D01*
X12331421Y-5461570D02*
X12290000Y-5420148D01*
X13240000Y-9170000D02*
X13281421Y-9211421D01*
X13352132Y-9240711D02*
X13560711Y-9240711D01*
X15220711Y-9840711D02*
X15220711Y-10119289D01*
X17465000Y-10731421D02*
X17506421Y-10690000D01*
X17535711Y-10619289D02*
X17535711Y-7640711D01*
X15250000Y-10190000D02*
X15291421Y-10231421D01*
X14497727Y-9580711D02*
X14960711Y-9580711D01*
X15362132Y-10260711D02*
X15574491Y-10260711D01*
X16860711Y-6290711D02*
X16822365Y-6268662D01*
X16822365Y-6268662D02*
X16782487Y-6338014D01*
X16166099Y-10760711D02*
X17394289Y-10760711D01*
X5227132Y-10740711D02*
X6317745Y-10740711D01*
X8400711Y-5340711D02*
X8400711Y-5258012D01*
X8400711Y-5258012D02*
X7677994Y-5258012D01*
X4985711Y-7840711D02*
X4985711Y-10499289D01*
X13210711Y-8678130D02*
X13210711Y-9099289D01*
X5015000Y-10570000D02*
X5156421Y-10711421D01*
D12*
X7033163Y-8281607D02*
X7193163Y-8441607D01*
X7193163Y-8281607D02*
X7033163Y-8441607D01*
X7087854Y-7238039D02*
X7247854Y-7398039D01*
X7247854Y-7238039D02*
X7087854Y-7398039D01*
X10690000Y-7840000D02*
G75*
G03*
X10690000Y-7840000I-90000J0D01*
G01*
X12010000Y-7840000D02*
G75*
G03*
X12010000Y-7840000I-90000J0D01*
G01*
X5760000Y-8690000D02*
X5760000Y-8890000D01*
X5660000Y-8790000D02*
X5860000Y-8790000D01*
X7126116Y-8014446D02*
X7126116Y-8214446D01*
X7026116Y-8114446D02*
X7226116Y-8114446D01*
X7154901Y-7465200D02*
X7154901Y-7665200D01*
X7054901Y-7565200D02*
X7254901Y-7565200D01*
X16760000Y-8690000D02*
X16760000Y-8890000D01*
X16660000Y-8790000D02*
X16860000Y-8790000D01*
X6139445Y-6839445D02*
X6139445Y-6683880D01*
X5983880Y-6683880D01*
X5983880Y-6839445D01*
X6139445Y-6839445D01*
X8296120Y-8996120D02*
X8296120Y-8840555D01*
X8140555Y-8840555D01*
X8140555Y-8996120D01*
X8296120Y-8996120D01*
X17317783Y-10417783D02*
X17317783Y-10262218D01*
X17162218Y-10262218D01*
X17162218Y-10417783D01*
X17317783Y-10417783D01*
X17210000Y-10440000D02*
X17270000Y-10440000D01*
X17210000Y-10240000D02*
X17270000Y-10240000D01*
X17270000Y-10440000D02*
G75*
G03*
X17270000Y-10240000I0J100000D01*
G01*
X17210000Y-10240000D02*
G75*
G03*
X17210000Y-10440000I0J-100000D01*
G01*
X15960000Y-6960000D02*
X16080000Y-6840000D01*
X15960000Y-6720000D01*
X15840000Y-6840000D01*
X15960000Y-6960000D01*
X7300000Y-9580000D02*
X7820000Y-10100000D01*
X7820000Y-9580000D02*
X7300000Y-10100000D01*
X7820000Y-9840000D02*
G75*
G03*
X7820000Y-9840000I-260000J0D01*
G01*
D13*
X5267139Y-12761425D02*
X5267139Y-12461425D01*
X5338568Y-12461425D01*
X5381425Y-12475711D01*
X5409996Y-12504282D01*
X5424282Y-12532854D01*
X5438568Y-12589997D01*
X5438568Y-12632854D01*
X5424282Y-12689997D01*
X5409996Y-12718568D01*
X5381425Y-12747139D01*
X5338568Y-12761425D01*
X5267139Y-12761425D01*
X5567139Y-12761425D02*
X5567139Y-12561425D01*
X5567139Y-12618568D02*
X5581425Y-12589997D01*
X5595710Y-12575711D01*
X5624282Y-12561425D01*
X5652853Y-12561425D01*
X5752853Y-12761425D02*
X5752853Y-12561425D01*
X5752853Y-12461425D02*
X5738567Y-12475711D01*
X5752853Y-12489997D01*
X5767139Y-12475711D01*
X5752853Y-12461425D01*
X5752853Y-12489997D01*
X5938567Y-12761425D02*
X5909996Y-12747139D01*
X5895710Y-12718568D01*
X5895710Y-12461425D01*
X6095710Y-12761425D02*
X6067139Y-12747139D01*
X6052853Y-12718568D01*
X6052853Y-12461425D01*
X6438567Y-12761425D02*
X6438567Y-12461425D01*
X6538567Y-12675711D01*
X6638567Y-12461425D01*
X6638567Y-12761425D01*
X6909996Y-12761425D02*
X6909996Y-12604282D01*
X6895710Y-12575711D01*
X6867139Y-12561425D01*
X6809996Y-12561425D01*
X6781425Y-12575711D01*
X6909996Y-12747139D02*
X6881425Y-12761425D01*
X6809996Y-12761425D01*
X6781425Y-12747139D01*
X6767139Y-12718568D01*
X6767139Y-12689997D01*
X6781425Y-12661425D01*
X6809996Y-12647139D01*
X6881425Y-12647139D01*
X6909996Y-12632854D01*
X7052853Y-12561425D02*
X7052853Y-12861425D01*
X7052853Y-12575711D02*
X7081425Y-12561425D01*
X7138567Y-12561425D01*
X7167139Y-12575711D01*
X7181425Y-12589997D01*
X7195710Y-12618568D01*
X7195710Y-12704282D01*
X7181425Y-12732854D01*
X7167139Y-12747139D01*
X7138567Y-12761425D01*
X7081425Y-12761425D01*
X7052853Y-12747139D01*
X7324282Y-12732854D02*
X7338567Y-12747139D01*
X7324282Y-12761425D01*
X7309996Y-12747139D01*
X7324282Y-12732854D01*
X7324282Y-12761425D01*
X7324282Y-12575711D02*
X7338567Y-12589997D01*
X7324282Y-12604282D01*
X7309996Y-12589997D01*
X7324282Y-12575711D01*
X7324282Y-12604282D01*
X4820710Y-13175711D02*
X4980710Y-13335711D01*
X4980710Y-13175711D02*
X4820710Y-13335711D01*
X5424282Y-13391425D02*
X5252853Y-13391425D01*
X5338568Y-13391425D02*
X5338568Y-13091425D01*
X5309996Y-13134282D01*
X5281425Y-13162854D01*
X5252853Y-13177139D01*
X5552853Y-13362854D02*
X5567139Y-13377139D01*
X5552853Y-13391425D01*
X5538568Y-13377139D01*
X5552853Y-13362854D01*
X5552853Y-13391425D01*
X5824282Y-13091425D02*
X5767139Y-13091425D01*
X5738567Y-13105711D01*
X5724282Y-13119997D01*
X5695710Y-13162854D01*
X5681425Y-13219997D01*
X5681425Y-13334282D01*
X5695710Y-13362854D01*
X5709996Y-13377139D01*
X5738567Y-13391425D01*
X5795710Y-13391425D01*
X5824282Y-13377139D01*
X5838567Y-13362854D01*
X5852853Y-13334282D01*
X5852853Y-13262854D01*
X5838567Y-13234282D01*
X5824282Y-13219997D01*
X5795710Y-13205711D01*
X5738567Y-13205711D01*
X5709996Y-13219997D01*
X5695710Y-13234282D01*
X5681425Y-13262854D01*
X6038567Y-13091425D02*
X6067139Y-13091425D01*
X6095710Y-13105711D01*
X6109996Y-13119997D01*
X6124282Y-13148568D01*
X6138567Y-13205711D01*
X6138567Y-13277139D01*
X6124282Y-13334282D01*
X6109996Y-13362854D01*
X6095710Y-13377139D01*
X6067139Y-13391425D01*
X6038567Y-13391425D01*
X6009996Y-13377139D01*
X5995710Y-13362854D01*
X5981425Y-13334282D01*
X5967139Y-13277139D01*
X5967139Y-13205711D01*
X5981425Y-13148568D01*
X5995710Y-13119997D01*
X6009996Y-13105711D01*
X6038567Y-13091425D01*
X6324282Y-13091425D02*
X6352853Y-13091425D01*
X6381425Y-13105711D01*
X6395710Y-13119997D01*
X6409996Y-13148568D01*
X6424282Y-13205711D01*
X6424282Y-13277139D01*
X6409996Y-13334282D01*
X6395710Y-13362854D01*
X6381425Y-13377139D01*
X6352853Y-13391425D01*
X6324282Y-13391425D01*
X6295710Y-13377139D01*
X6281425Y-13362854D01*
X6267139Y-13334282D01*
X6252853Y-13277139D01*
X6252853Y-13205711D01*
X6267139Y-13148568D01*
X6281425Y-13119997D01*
X6295710Y-13105711D01*
X6324282Y-13091425D01*
X6552853Y-13391425D02*
X6552853Y-13191425D01*
X6552853Y-13219997D02*
X6567139Y-13205711D01*
X6595710Y-13191425D01*
X6638567Y-13191425D01*
X6667139Y-13205711D01*
X6681425Y-13234282D01*
X6681425Y-13391425D01*
X6681425Y-13234282D02*
X6695710Y-13205711D01*
X6724282Y-13191425D01*
X6767139Y-13191425D01*
X6795710Y-13205711D01*
X6809996Y-13234282D01*
X6809996Y-13391425D01*
X6952853Y-13391425D02*
X6952853Y-13191425D01*
X6952853Y-13219997D02*
X6967139Y-13205711D01*
X6995710Y-13191425D01*
X7038567Y-13191425D01*
X7067139Y-13205711D01*
X7081425Y-13234282D01*
X7081425Y-13391425D01*
X7081425Y-13234282D02*
X7095710Y-13205711D01*
X7124282Y-13191425D01*
X7167139Y-13191425D01*
X7195710Y-13205711D01*
X7209996Y-13234282D01*
X7209996Y-13391425D01*
X7795710Y-13077139D02*
X7538567Y-13462854D01*
X8181425Y-13091425D02*
X8209996Y-13091425D01*
X8238567Y-13105711D01*
X8252853Y-13119997D01*
X8267139Y-13148568D01*
X8281425Y-13205711D01*
X8281425Y-13277139D01*
X8267139Y-13334282D01*
X8252853Y-13362854D01*
X8238567Y-13377139D01*
X8209996Y-13391425D01*
X8181425Y-13391425D01*
X8152853Y-13377139D01*
X8138567Y-13362854D01*
X8124282Y-13334282D01*
X8109996Y-13277139D01*
X8109996Y-13205711D01*
X8124282Y-13148568D01*
X8138567Y-13119997D01*
X8152853Y-13105711D01*
X8181425Y-13091425D01*
X8409996Y-13362854D02*
X8424282Y-13377139D01*
X8409996Y-13391425D01*
X8395710Y-13377139D01*
X8409996Y-13362854D01*
X8409996Y-13391425D01*
X8609996Y-13091425D02*
X8638568Y-13091425D01*
X8667139Y-13105711D01*
X8681425Y-13119997D01*
X8695710Y-13148568D01*
X8709996Y-13205711D01*
X8709996Y-13277139D01*
X8695710Y-13334282D01*
X8681425Y-13362854D01*
X8667139Y-13377139D01*
X8638568Y-13391425D01*
X8609996Y-13391425D01*
X8581425Y-13377139D01*
X8567139Y-13362854D01*
X8552853Y-13334282D01*
X8538568Y-13277139D01*
X8538568Y-13205711D01*
X8552853Y-13148568D01*
X8567139Y-13119997D01*
X8581425Y-13105711D01*
X8609996Y-13091425D01*
X8967139Y-13091425D02*
X8909996Y-13091425D01*
X8881425Y-13105711D01*
X8867139Y-13119997D01*
X8838568Y-13162854D01*
X8824282Y-13219997D01*
X8824282Y-13334282D01*
X8838568Y-13362854D01*
X8852853Y-13377139D01*
X8881425Y-13391425D01*
X8938568Y-13391425D01*
X8967139Y-13377139D01*
X8981425Y-13362854D01*
X8995710Y-13334282D01*
X8995710Y-13262854D01*
X8981425Y-13234282D01*
X8967139Y-13219997D01*
X8938568Y-13205711D01*
X8881425Y-13205711D01*
X8852853Y-13219997D01*
X8838568Y-13234282D01*
X8824282Y-13262854D01*
X9095710Y-13091425D02*
X9281425Y-13091425D01*
X9181425Y-13205711D01*
X9224282Y-13205711D01*
X9252853Y-13219997D01*
X9267139Y-13234282D01*
X9281425Y-13262854D01*
X9281425Y-13334282D01*
X9267139Y-13362854D01*
X9252853Y-13377139D01*
X9224282Y-13391425D01*
X9138568Y-13391425D01*
X9109996Y-13377139D01*
X9095710Y-13362854D01*
X9467139Y-13091425D02*
X9495710Y-13091425D01*
X9524282Y-13105711D01*
X9538568Y-13119997D01*
X9552853Y-13148568D01*
X9567139Y-13205711D01*
X9567139Y-13277139D01*
X9552853Y-13334282D01*
X9538568Y-13362854D01*
X9524282Y-13377139D01*
X9495710Y-13391425D01*
X9467139Y-13391425D01*
X9438568Y-13377139D01*
X9424282Y-13362854D01*
X9409996Y-13334282D01*
X9395710Y-13277139D01*
X9395710Y-13205711D01*
X9409996Y-13148568D01*
X9424282Y-13119997D01*
X9438568Y-13105711D01*
X9467139Y-13091425D01*
X9681425Y-13091425D02*
X9681425Y-13148568D01*
X9795710Y-13091425D02*
X9795710Y-13148568D01*
X10238568Y-13505711D02*
X10224282Y-13491425D01*
X10195710Y-13448568D01*
X10181425Y-13419997D01*
X10167139Y-13377139D01*
X10152853Y-13305711D01*
X10152853Y-13248568D01*
X10167139Y-13177139D01*
X10181425Y-13134282D01*
X10195710Y-13105711D01*
X10224282Y-13062854D01*
X10238568Y-13048568D01*
X10338568Y-13119997D02*
X10352853Y-13105711D01*
X10381425Y-13091425D01*
X10452853Y-13091425D01*
X10481425Y-13105711D01*
X10495710Y-13119997D01*
X10509996Y-13148568D01*
X10509996Y-13177139D01*
X10495710Y-13219997D01*
X10324282Y-13391425D01*
X10509996Y-13391425D01*
X10867139Y-13391425D02*
X10867139Y-13091425D01*
X10995710Y-13391425D02*
X10995710Y-13234282D01*
X10981425Y-13205711D01*
X10952853Y-13191425D01*
X10909996Y-13191425D01*
X10881425Y-13205711D01*
X10867139Y-13219997D01*
X11181425Y-13391425D02*
X11152853Y-13377139D01*
X11138568Y-13362854D01*
X11124282Y-13334282D01*
X11124282Y-13248568D01*
X11138568Y-13219997D01*
X11152853Y-13205711D01*
X11181425Y-13191425D01*
X11224282Y-13191425D01*
X11252853Y-13205711D01*
X11267139Y-13219997D01*
X11281425Y-13248568D01*
X11281425Y-13334282D01*
X11267139Y-13362854D01*
X11252853Y-13377139D01*
X11224282Y-13391425D01*
X11181425Y-13391425D01*
X11452853Y-13391425D02*
X11424282Y-13377139D01*
X11409996Y-13348568D01*
X11409996Y-13091425D01*
X11681425Y-13377139D02*
X11652853Y-13391425D01*
X11595710Y-13391425D01*
X11567139Y-13377139D01*
X11552853Y-13348568D01*
X11552853Y-13234282D01*
X11567139Y-13205711D01*
X11595710Y-13191425D01*
X11652853Y-13191425D01*
X11681425Y-13205711D01*
X11695710Y-13234282D01*
X11695710Y-13262854D01*
X11552853Y-13291425D01*
X11809996Y-13377139D02*
X11838567Y-13391425D01*
X11895710Y-13391425D01*
X11924282Y-13377139D01*
X11938567Y-13348568D01*
X11938567Y-13334282D01*
X11924282Y-13305711D01*
X11895710Y-13291425D01*
X11852853Y-13291425D01*
X11824282Y-13277139D01*
X11809996Y-13248568D01*
X11809996Y-13234282D01*
X11824282Y-13205711D01*
X11852853Y-13191425D01*
X11895710Y-13191425D01*
X11924282Y-13205711D01*
X12038567Y-13505711D02*
X12052853Y-13491425D01*
X12081425Y-13448568D01*
X12095710Y-13419997D01*
X12109996Y-13377139D01*
X12124282Y-13305711D01*
X12124282Y-13248568D01*
X12109996Y-13177139D01*
X12095710Y-13134282D01*
X12081425Y-13105711D01*
X12052853Y-13062854D01*
X12038567Y-13048568D01*
X12581425Y-13505711D02*
X12567139Y-13491425D01*
X12538567Y-13448568D01*
X12524282Y-13419997D01*
X12509996Y-13377139D01*
X12495710Y-13305711D01*
X12495710Y-13248568D01*
X12509996Y-13177139D01*
X12524282Y-13134282D01*
X12538567Y-13105711D01*
X12567139Y-13062854D01*
X12581425Y-13048568D01*
X12695710Y-13191425D02*
X12695710Y-13391425D01*
X12695710Y-13219997D02*
X12709996Y-13205711D01*
X12738567Y-13191425D01*
X12781425Y-13191425D01*
X12809996Y-13205711D01*
X12824282Y-13234282D01*
X12824282Y-13391425D01*
X13009996Y-13391425D02*
X12981425Y-13377139D01*
X12967139Y-13362854D01*
X12952853Y-13334282D01*
X12952853Y-13248568D01*
X12967139Y-13219997D01*
X12981425Y-13205711D01*
X13009996Y-13191425D01*
X13052853Y-13191425D01*
X13081425Y-13205711D01*
X13095710Y-13219997D01*
X13109996Y-13248568D01*
X13109996Y-13334282D01*
X13095710Y-13362854D01*
X13081425Y-13377139D01*
X13052853Y-13391425D01*
X13009996Y-13391425D01*
X13195710Y-13191425D02*
X13309996Y-13191425D01*
X13238567Y-13091425D02*
X13238567Y-13348568D01*
X13252853Y-13377139D01*
X13281425Y-13391425D01*
X13309996Y-13391425D01*
X13638567Y-13191425D02*
X13638567Y-13491425D01*
X13638567Y-13205711D02*
X13667139Y-13191425D01*
X13724282Y-13191425D01*
X13752853Y-13205711D01*
X13767139Y-13219997D01*
X13781425Y-13248568D01*
X13781425Y-13334282D01*
X13767139Y-13362854D01*
X13752853Y-13377139D01*
X13724282Y-13391425D01*
X13667139Y-13391425D01*
X13638567Y-13377139D01*
X13952853Y-13391425D02*
X13924282Y-13377139D01*
X13909996Y-13348568D01*
X13909996Y-13091425D01*
X14195710Y-13391425D02*
X14195710Y-13234282D01*
X14181425Y-13205711D01*
X14152853Y-13191425D01*
X14095710Y-13191425D01*
X14067139Y-13205711D01*
X14195710Y-13377139D02*
X14167139Y-13391425D01*
X14095710Y-13391425D01*
X14067139Y-13377139D01*
X14052853Y-13348568D01*
X14052853Y-13319997D01*
X14067139Y-13291425D01*
X14095710Y-13277139D01*
X14167139Y-13277139D01*
X14195710Y-13262854D01*
X14295710Y-13191425D02*
X14409996Y-13191425D01*
X14338567Y-13091425D02*
X14338567Y-13348568D01*
X14352853Y-13377139D01*
X14381425Y-13391425D01*
X14409996Y-13391425D01*
X14624282Y-13377139D02*
X14595710Y-13391425D01*
X14538567Y-13391425D01*
X14509996Y-13377139D01*
X14495710Y-13348568D01*
X14495710Y-13234282D01*
X14509996Y-13205711D01*
X14538567Y-13191425D01*
X14595710Y-13191425D01*
X14624282Y-13205711D01*
X14638567Y-13234282D01*
X14638567Y-13262854D01*
X14495710Y-13291425D01*
X14895710Y-13391425D02*
X14895710Y-13091425D01*
X14895710Y-13377139D02*
X14867139Y-13391425D01*
X14809996Y-13391425D01*
X14781425Y-13377139D01*
X14767139Y-13362854D01*
X14752853Y-13334282D01*
X14752853Y-13248568D01*
X14767139Y-13219997D01*
X14781425Y-13205711D01*
X14809996Y-13191425D01*
X14867139Y-13191425D01*
X14895710Y-13205711D01*
X15009996Y-13505711D02*
X15024282Y-13491425D01*
X15052853Y-13448568D01*
X15067139Y-13419997D01*
X15081425Y-13377139D01*
X15095710Y-13305711D01*
X15095710Y-13248568D01*
X15081425Y-13177139D01*
X15067139Y-13134282D01*
X15052853Y-13105711D01*
X15024282Y-13062854D01*
X15009996Y-13048568D01*
X4980710Y-13651711D02*
G75*
G03*
X4980710Y-13651711I-90000J0D01*
G01*
X5424282Y-13787425D02*
X5252853Y-13787425D01*
X5338568Y-13787425D02*
X5338568Y-13487425D01*
X5309996Y-13530282D01*
X5281425Y-13558854D01*
X5252853Y-13573139D01*
X5552853Y-13758854D02*
X5567139Y-13773139D01*
X5552853Y-13787425D01*
X5538568Y-13773139D01*
X5552853Y-13758854D01*
X5552853Y-13787425D01*
X5738567Y-13615997D02*
X5709996Y-13601711D01*
X5695710Y-13587425D01*
X5681425Y-13558854D01*
X5681425Y-13544568D01*
X5695710Y-13515997D01*
X5709996Y-13501711D01*
X5738567Y-13487425D01*
X5795710Y-13487425D01*
X5824282Y-13501711D01*
X5838567Y-13515997D01*
X5852853Y-13544568D01*
X5852853Y-13558854D01*
X5838567Y-13587425D01*
X5824282Y-13601711D01*
X5795710Y-13615997D01*
X5738567Y-13615997D01*
X5709996Y-13630282D01*
X5695710Y-13644568D01*
X5681425Y-13673139D01*
X5681425Y-13730282D01*
X5695710Y-13758854D01*
X5709996Y-13773139D01*
X5738567Y-13787425D01*
X5795710Y-13787425D01*
X5824282Y-13773139D01*
X5838567Y-13758854D01*
X5852853Y-13730282D01*
X5852853Y-13673139D01*
X5838567Y-13644568D01*
X5824282Y-13630282D01*
X5795710Y-13615997D01*
X6038567Y-13487425D02*
X6067139Y-13487425D01*
X6095710Y-13501711D01*
X6109996Y-13515997D01*
X6124282Y-13544568D01*
X6138567Y-13601711D01*
X6138567Y-13673139D01*
X6124282Y-13730282D01*
X6109996Y-13758854D01*
X6095710Y-13773139D01*
X6067139Y-13787425D01*
X6038567Y-13787425D01*
X6009996Y-13773139D01*
X5995710Y-13758854D01*
X5981425Y-13730282D01*
X5967139Y-13673139D01*
X5967139Y-13601711D01*
X5981425Y-13544568D01*
X5995710Y-13515997D01*
X6009996Y-13501711D01*
X6038567Y-13487425D01*
X6324282Y-13487425D02*
X6352853Y-13487425D01*
X6381425Y-13501711D01*
X6395710Y-13515997D01*
X6409996Y-13544568D01*
X6424282Y-13601711D01*
X6424282Y-13673139D01*
X6409996Y-13730282D01*
X6395710Y-13758854D01*
X6381425Y-13773139D01*
X6352853Y-13787425D01*
X6324282Y-13787425D01*
X6295710Y-13773139D01*
X6281425Y-13758854D01*
X6267139Y-13730282D01*
X6252853Y-13673139D01*
X6252853Y-13601711D01*
X6267139Y-13544568D01*
X6281425Y-13515997D01*
X6295710Y-13501711D01*
X6324282Y-13487425D01*
X6552853Y-13787425D02*
X6552853Y-13587425D01*
X6552853Y-13615997D02*
X6567139Y-13601711D01*
X6595710Y-13587425D01*
X6638567Y-13587425D01*
X6667139Y-13601711D01*
X6681425Y-13630282D01*
X6681425Y-13787425D01*
X6681425Y-13630282D02*
X6695710Y-13601711D01*
X6724282Y-13587425D01*
X6767139Y-13587425D01*
X6795710Y-13601711D01*
X6809996Y-13630282D01*
X6809996Y-13787425D01*
X6952853Y-13787425D02*
X6952853Y-13587425D01*
X6952853Y-13615997D02*
X6967139Y-13601711D01*
X6995710Y-13587425D01*
X7038567Y-13587425D01*
X7067139Y-13601711D01*
X7081425Y-13630282D01*
X7081425Y-13787425D01*
X7081425Y-13630282D02*
X7095710Y-13601711D01*
X7124282Y-13587425D01*
X7167139Y-13587425D01*
X7195710Y-13601711D01*
X7209996Y-13630282D01*
X7209996Y-13787425D01*
X7795710Y-13473139D02*
X7538567Y-13858854D01*
X8181425Y-13487425D02*
X8209996Y-13487425D01*
X8238567Y-13501711D01*
X8252853Y-13515997D01*
X8267139Y-13544568D01*
X8281425Y-13601711D01*
X8281425Y-13673139D01*
X8267139Y-13730282D01*
X8252853Y-13758854D01*
X8238567Y-13773139D01*
X8209996Y-13787425D01*
X8181425Y-13787425D01*
X8152853Y-13773139D01*
X8138567Y-13758854D01*
X8124282Y-13730282D01*
X8109996Y-13673139D01*
X8109996Y-13601711D01*
X8124282Y-13544568D01*
X8138567Y-13515997D01*
X8152853Y-13501711D01*
X8181425Y-13487425D01*
X8409996Y-13758854D02*
X8424282Y-13773139D01*
X8409996Y-13787425D01*
X8395710Y-13773139D01*
X8409996Y-13758854D01*
X8409996Y-13787425D01*
X8609996Y-13487425D02*
X8638568Y-13487425D01*
X8667139Y-13501711D01*
X8681425Y-13515997D01*
X8695710Y-13544568D01*
X8709996Y-13601711D01*
X8709996Y-13673139D01*
X8695710Y-13730282D01*
X8681425Y-13758854D01*
X8667139Y-13773139D01*
X8638568Y-13787425D01*
X8609996Y-13787425D01*
X8581425Y-13773139D01*
X8567139Y-13758854D01*
X8552853Y-13730282D01*
X8538568Y-13673139D01*
X8538568Y-13601711D01*
X8552853Y-13544568D01*
X8567139Y-13515997D01*
X8581425Y-13501711D01*
X8609996Y-13487425D01*
X8809996Y-13487425D02*
X9009996Y-13487425D01*
X8881425Y-13787425D01*
X9181425Y-13487425D02*
X9209996Y-13487425D01*
X9238568Y-13501711D01*
X9252853Y-13515997D01*
X9267139Y-13544568D01*
X9281425Y-13601711D01*
X9281425Y-13673139D01*
X9267139Y-13730282D01*
X9252853Y-13758854D01*
X9238568Y-13773139D01*
X9209996Y-13787425D01*
X9181425Y-13787425D01*
X9152853Y-13773139D01*
X9138568Y-13758854D01*
X9124282Y-13730282D01*
X9109996Y-13673139D01*
X9109996Y-13601711D01*
X9124282Y-13544568D01*
X9138568Y-13515997D01*
X9152853Y-13501711D01*
X9181425Y-13487425D01*
X9424282Y-13787425D02*
X9481425Y-13787425D01*
X9509996Y-13773139D01*
X9524282Y-13758854D01*
X9552853Y-13715997D01*
X9567139Y-13658854D01*
X9567139Y-13544568D01*
X9552853Y-13515997D01*
X9538568Y-13501711D01*
X9509996Y-13487425D01*
X9452853Y-13487425D01*
X9424282Y-13501711D01*
X9409996Y-13515997D01*
X9395710Y-13544568D01*
X9395710Y-13615997D01*
X9409996Y-13644568D01*
X9424282Y-13658854D01*
X9452853Y-13673139D01*
X9509996Y-13673139D01*
X9538568Y-13658854D01*
X9552853Y-13644568D01*
X9567139Y-13615997D01*
X9681425Y-13487425D02*
X9681425Y-13544568D01*
X9795710Y-13487425D02*
X9795710Y-13544568D01*
X10238568Y-13901711D02*
X10224282Y-13887425D01*
X10195710Y-13844568D01*
X10181425Y-13815997D01*
X10167139Y-13773139D01*
X10152853Y-13701711D01*
X10152853Y-13644568D01*
X10167139Y-13573139D01*
X10181425Y-13530282D01*
X10195710Y-13501711D01*
X10224282Y-13458854D01*
X10238568Y-13444568D01*
X10338568Y-13515997D02*
X10352853Y-13501711D01*
X10381425Y-13487425D01*
X10452853Y-13487425D01*
X10481425Y-13501711D01*
X10495710Y-13515997D01*
X10509996Y-13544568D01*
X10509996Y-13573139D01*
X10495710Y-13615997D01*
X10324282Y-13787425D01*
X10509996Y-13787425D01*
X10867139Y-13787425D02*
X10867139Y-13487425D01*
X10995710Y-13787425D02*
X10995710Y-13630282D01*
X10981425Y-13601711D01*
X10952853Y-13587425D01*
X10909996Y-13587425D01*
X10881425Y-13601711D01*
X10867139Y-13615997D01*
X11181425Y-13787425D02*
X11152853Y-13773139D01*
X11138568Y-13758854D01*
X11124282Y-13730282D01*
X11124282Y-13644568D01*
X11138568Y-13615997D01*
X11152853Y-13601711D01*
X11181425Y-13587425D01*
X11224282Y-13587425D01*
X11252853Y-13601711D01*
X11267139Y-13615997D01*
X11281425Y-13644568D01*
X11281425Y-13730282D01*
X11267139Y-13758854D01*
X11252853Y-13773139D01*
X11224282Y-13787425D01*
X11181425Y-13787425D01*
X11452853Y-13787425D02*
X11424282Y-13773139D01*
X11409996Y-13744568D01*
X11409996Y-13487425D01*
X11681425Y-13773139D02*
X11652853Y-13787425D01*
X11595710Y-13787425D01*
X11567139Y-13773139D01*
X11552853Y-13744568D01*
X11552853Y-13630282D01*
X11567139Y-13601711D01*
X11595710Y-13587425D01*
X11652853Y-13587425D01*
X11681425Y-13601711D01*
X11695710Y-13630282D01*
X11695710Y-13658854D01*
X11552853Y-13687425D01*
X11809996Y-13773139D02*
X11838567Y-13787425D01*
X11895710Y-13787425D01*
X11924282Y-13773139D01*
X11938567Y-13744568D01*
X11938567Y-13730282D01*
X11924282Y-13701711D01*
X11895710Y-13687425D01*
X11852853Y-13687425D01*
X11824282Y-13673139D01*
X11809996Y-13644568D01*
X11809996Y-13630282D01*
X11824282Y-13601711D01*
X11852853Y-13587425D01*
X11895710Y-13587425D01*
X11924282Y-13601711D01*
X12038567Y-13901711D02*
X12052853Y-13887425D01*
X12081425Y-13844568D01*
X12095710Y-13815997D01*
X12109996Y-13773139D01*
X12124282Y-13701711D01*
X12124282Y-13644568D01*
X12109996Y-13573139D01*
X12095710Y-13530282D01*
X12081425Y-13501711D01*
X12052853Y-13458854D01*
X12038567Y-13444568D01*
X12581425Y-13901711D02*
X12567139Y-13887425D01*
X12538567Y-13844568D01*
X12524282Y-13815997D01*
X12509996Y-13773139D01*
X12495710Y-13701711D01*
X12495710Y-13644568D01*
X12509996Y-13573139D01*
X12524282Y-13530282D01*
X12538567Y-13501711D01*
X12567139Y-13458854D01*
X12581425Y-13444568D01*
X12695710Y-13587425D02*
X12695710Y-13787425D01*
X12695710Y-13615997D02*
X12709996Y-13601711D01*
X12738567Y-13587425D01*
X12781425Y-13587425D01*
X12809996Y-13601711D01*
X12824282Y-13630282D01*
X12824282Y-13787425D01*
X13009996Y-13787425D02*
X12981425Y-13773139D01*
X12967139Y-13758854D01*
X12952853Y-13730282D01*
X12952853Y-13644568D01*
X12967139Y-13615997D01*
X12981425Y-13601711D01*
X13009996Y-13587425D01*
X13052853Y-13587425D01*
X13081425Y-13601711D01*
X13095710Y-13615997D01*
X13109996Y-13644568D01*
X13109996Y-13730282D01*
X13095710Y-13758854D01*
X13081425Y-13773139D01*
X13052853Y-13787425D01*
X13009996Y-13787425D01*
X13195710Y-13587425D02*
X13309996Y-13587425D01*
X13238567Y-13487425D02*
X13238567Y-13744568D01*
X13252853Y-13773139D01*
X13281425Y-13787425D01*
X13309996Y-13787425D01*
X13638567Y-13587425D02*
X13638567Y-13887425D01*
X13638567Y-13601711D02*
X13667139Y-13587425D01*
X13724282Y-13587425D01*
X13752853Y-13601711D01*
X13767139Y-13615997D01*
X13781425Y-13644568D01*
X13781425Y-13730282D01*
X13767139Y-13758854D01*
X13752853Y-13773139D01*
X13724282Y-13787425D01*
X13667139Y-13787425D01*
X13638567Y-13773139D01*
X13952853Y-13787425D02*
X13924282Y-13773139D01*
X13909996Y-13744568D01*
X13909996Y-13487425D01*
X14195710Y-13787425D02*
X14195710Y-13630282D01*
X14181425Y-13601711D01*
X14152853Y-13587425D01*
X14095710Y-13587425D01*
X14067139Y-13601711D01*
X14195710Y-13773139D02*
X14167139Y-13787425D01*
X14095710Y-13787425D01*
X14067139Y-13773139D01*
X14052853Y-13744568D01*
X14052853Y-13715997D01*
X14067139Y-13687425D01*
X14095710Y-13673139D01*
X14167139Y-13673139D01*
X14195710Y-13658854D01*
X14295710Y-13587425D02*
X14409996Y-13587425D01*
X14338567Y-13487425D02*
X14338567Y-13744568D01*
X14352853Y-13773139D01*
X14381425Y-13787425D01*
X14409996Y-13787425D01*
X14624282Y-13773139D02*
X14595710Y-13787425D01*
X14538567Y-13787425D01*
X14509996Y-13773139D01*
X14495710Y-13744568D01*
X14495710Y-13630282D01*
X14509996Y-13601711D01*
X14538567Y-13587425D01*
X14595710Y-13587425D01*
X14624282Y-13601711D01*
X14638567Y-13630282D01*
X14638567Y-13658854D01*
X14495710Y-13687425D01*
X14895710Y-13787425D02*
X14895710Y-13487425D01*
X14895710Y-13773139D02*
X14867139Y-13787425D01*
X14809996Y-13787425D01*
X14781425Y-13773139D01*
X14767139Y-13758854D01*
X14752853Y-13730282D01*
X14752853Y-13644568D01*
X14767139Y-13615997D01*
X14781425Y-13601711D01*
X14809996Y-13587425D01*
X14867139Y-13587425D01*
X14895710Y-13601711D01*
X15009996Y-13901711D02*
X15024282Y-13887425D01*
X15052853Y-13844568D01*
X15067139Y-13815997D01*
X15081425Y-13773139D01*
X15095710Y-13701711D01*
X15095710Y-13644568D01*
X15081425Y-13573139D01*
X15067139Y-13530282D01*
X15052853Y-13501711D01*
X15024282Y-13458854D01*
X15009996Y-13444568D01*
X4880710Y-13947711D02*
X4880710Y-14147711D01*
X4780710Y-14047711D02*
X4980710Y-14047711D01*
X5252853Y-13911997D02*
X5267139Y-13897711D01*
X5295710Y-13883425D01*
X5367139Y-13883425D01*
X5395710Y-13897711D01*
X5409996Y-13911997D01*
X5424282Y-13940568D01*
X5424282Y-13969139D01*
X5409996Y-14011997D01*
X5238568Y-14183425D01*
X5424282Y-14183425D01*
X5552853Y-14154854D02*
X5567139Y-14169139D01*
X5552853Y-14183425D01*
X5538568Y-14169139D01*
X5552853Y-14154854D01*
X5552853Y-14183425D01*
X5752853Y-13883425D02*
X5781425Y-13883425D01*
X5809996Y-13897711D01*
X5824282Y-13911997D01*
X5838567Y-13940568D01*
X5852853Y-13997711D01*
X5852853Y-14069139D01*
X5838567Y-14126282D01*
X5824282Y-14154854D01*
X5809996Y-14169139D01*
X5781425Y-14183425D01*
X5752853Y-14183425D01*
X5724282Y-14169139D01*
X5709996Y-14154854D01*
X5695710Y-14126282D01*
X5681425Y-14069139D01*
X5681425Y-13997711D01*
X5695710Y-13940568D01*
X5709996Y-13911997D01*
X5724282Y-13897711D01*
X5752853Y-13883425D01*
X6038567Y-13883425D02*
X6067139Y-13883425D01*
X6095710Y-13897711D01*
X6109996Y-13911997D01*
X6124282Y-13940568D01*
X6138567Y-13997711D01*
X6138567Y-14069139D01*
X6124282Y-14126282D01*
X6109996Y-14154854D01*
X6095710Y-14169139D01*
X6067139Y-14183425D01*
X6038567Y-14183425D01*
X6009996Y-14169139D01*
X5995710Y-14154854D01*
X5981425Y-14126282D01*
X5967139Y-14069139D01*
X5967139Y-13997711D01*
X5981425Y-13940568D01*
X5995710Y-13911997D01*
X6009996Y-13897711D01*
X6038567Y-13883425D01*
X6324282Y-13883425D02*
X6352853Y-13883425D01*
X6381425Y-13897711D01*
X6395710Y-13911997D01*
X6409996Y-13940568D01*
X6424282Y-13997711D01*
X6424282Y-14069139D01*
X6409996Y-14126282D01*
X6395710Y-14154854D01*
X6381425Y-14169139D01*
X6352853Y-14183425D01*
X6324282Y-14183425D01*
X6295710Y-14169139D01*
X6281425Y-14154854D01*
X6267139Y-14126282D01*
X6252853Y-14069139D01*
X6252853Y-13997711D01*
X6267139Y-13940568D01*
X6281425Y-13911997D01*
X6295710Y-13897711D01*
X6324282Y-13883425D01*
X6552853Y-14183425D02*
X6552853Y-13983425D01*
X6552853Y-14011997D02*
X6567139Y-13997711D01*
X6595710Y-13983425D01*
X6638567Y-13983425D01*
X6667139Y-13997711D01*
X6681425Y-14026282D01*
X6681425Y-14183425D01*
X6681425Y-14026282D02*
X6695710Y-13997711D01*
X6724282Y-13983425D01*
X6767139Y-13983425D01*
X6795710Y-13997711D01*
X6809996Y-14026282D01*
X6809996Y-14183425D01*
X6952853Y-14183425D02*
X6952853Y-13983425D01*
X6952853Y-14011997D02*
X6967139Y-13997711D01*
X6995710Y-13983425D01*
X7038567Y-13983425D01*
X7067139Y-13997711D01*
X7081425Y-14026282D01*
X7081425Y-14183425D01*
X7081425Y-14026282D02*
X7095710Y-13997711D01*
X7124282Y-13983425D01*
X7167139Y-13983425D01*
X7195710Y-13997711D01*
X7209996Y-14026282D01*
X7209996Y-14183425D01*
X7795710Y-13869139D02*
X7538567Y-14254854D01*
X8181425Y-13883425D02*
X8209996Y-13883425D01*
X8238567Y-13897711D01*
X8252853Y-13911997D01*
X8267139Y-13940568D01*
X8281425Y-13997711D01*
X8281425Y-14069139D01*
X8267139Y-14126282D01*
X8252853Y-14154854D01*
X8238567Y-14169139D01*
X8209996Y-14183425D01*
X8181425Y-14183425D01*
X8152853Y-14169139D01*
X8138567Y-14154854D01*
X8124282Y-14126282D01*
X8109996Y-14069139D01*
X8109996Y-13997711D01*
X8124282Y-13940568D01*
X8138567Y-13911997D01*
X8152853Y-13897711D01*
X8181425Y-13883425D01*
X8409996Y-14154854D02*
X8424282Y-14169139D01*
X8409996Y-14183425D01*
X8395710Y-14169139D01*
X8409996Y-14154854D01*
X8409996Y-14183425D01*
X8609996Y-13883425D02*
X8638568Y-13883425D01*
X8667139Y-13897711D01*
X8681425Y-13911997D01*
X8695710Y-13940568D01*
X8709996Y-13997711D01*
X8709996Y-14069139D01*
X8695710Y-14126282D01*
X8681425Y-14154854D01*
X8667139Y-14169139D01*
X8638568Y-14183425D01*
X8609996Y-14183425D01*
X8581425Y-14169139D01*
X8567139Y-14154854D01*
X8552853Y-14126282D01*
X8538568Y-14069139D01*
X8538568Y-13997711D01*
X8552853Y-13940568D01*
X8567139Y-13911997D01*
X8581425Y-13897711D01*
X8609996Y-13883425D01*
X8809996Y-13883425D02*
X9009996Y-13883425D01*
X8881425Y-14183425D01*
X9167139Y-14011997D02*
X9138568Y-13997711D01*
X9124282Y-13983425D01*
X9109996Y-13954854D01*
X9109996Y-13940568D01*
X9124282Y-13911997D01*
X9138568Y-13897711D01*
X9167139Y-13883425D01*
X9224282Y-13883425D01*
X9252853Y-13897711D01*
X9267139Y-13911997D01*
X9281425Y-13940568D01*
X9281425Y-13954854D01*
X9267139Y-13983425D01*
X9252853Y-13997711D01*
X9224282Y-14011997D01*
X9167139Y-14011997D01*
X9138568Y-14026282D01*
X9124282Y-14040568D01*
X9109996Y-14069139D01*
X9109996Y-14126282D01*
X9124282Y-14154854D01*
X9138568Y-14169139D01*
X9167139Y-14183425D01*
X9224282Y-14183425D01*
X9252853Y-14169139D01*
X9267139Y-14154854D01*
X9281425Y-14126282D01*
X9281425Y-14069139D01*
X9267139Y-14040568D01*
X9252853Y-14026282D01*
X9224282Y-14011997D01*
X9381425Y-13883425D02*
X9581425Y-13883425D01*
X9452853Y-14183425D01*
X9681425Y-13883425D02*
X9681425Y-13940568D01*
X9795710Y-13883425D02*
X9795710Y-13940568D01*
X10238568Y-14297711D02*
X10224282Y-14283425D01*
X10195710Y-14240568D01*
X10181425Y-14211997D01*
X10167139Y-14169139D01*
X10152853Y-14097711D01*
X10152853Y-14040568D01*
X10167139Y-13969139D01*
X10181425Y-13926282D01*
X10195710Y-13897711D01*
X10224282Y-13854854D01*
X10238568Y-13840568D01*
X10481425Y-13983425D02*
X10481425Y-14183425D01*
X10409996Y-13869139D02*
X10338568Y-14083425D01*
X10524282Y-14083425D01*
X10867139Y-14183425D02*
X10867139Y-13883425D01*
X10995710Y-14183425D02*
X10995710Y-14026282D01*
X10981425Y-13997711D01*
X10952853Y-13983425D01*
X10909996Y-13983425D01*
X10881425Y-13997711D01*
X10867139Y-14011997D01*
X11181425Y-14183425D02*
X11152853Y-14169139D01*
X11138568Y-14154854D01*
X11124282Y-14126282D01*
X11124282Y-14040568D01*
X11138568Y-14011997D01*
X11152853Y-13997711D01*
X11181425Y-13983425D01*
X11224282Y-13983425D01*
X11252853Y-13997711D01*
X11267139Y-14011997D01*
X11281425Y-14040568D01*
X11281425Y-14126282D01*
X11267139Y-14154854D01*
X11252853Y-14169139D01*
X11224282Y-14183425D01*
X11181425Y-14183425D01*
X11452853Y-14183425D02*
X11424282Y-14169139D01*
X11409996Y-14140568D01*
X11409996Y-13883425D01*
X11681425Y-14169139D02*
X11652853Y-14183425D01*
X11595710Y-14183425D01*
X11567139Y-14169139D01*
X11552853Y-14140568D01*
X11552853Y-14026282D01*
X11567139Y-13997711D01*
X11595710Y-13983425D01*
X11652853Y-13983425D01*
X11681425Y-13997711D01*
X11695710Y-14026282D01*
X11695710Y-14054854D01*
X11552853Y-14083425D01*
X11809996Y-14169139D02*
X11838567Y-14183425D01*
X11895710Y-14183425D01*
X11924282Y-14169139D01*
X11938567Y-14140568D01*
X11938567Y-14126282D01*
X11924282Y-14097711D01*
X11895710Y-14083425D01*
X11852853Y-14083425D01*
X11824282Y-14069139D01*
X11809996Y-14040568D01*
X11809996Y-14026282D01*
X11824282Y-13997711D01*
X11852853Y-13983425D01*
X11895710Y-13983425D01*
X11924282Y-13997711D01*
X12038567Y-14297711D02*
X12052853Y-14283425D01*
X12081425Y-14240568D01*
X12095710Y-14211997D01*
X12109996Y-14169139D01*
X12124282Y-14097711D01*
X12124282Y-14040568D01*
X12109996Y-13969139D01*
X12095710Y-13926282D01*
X12081425Y-13897711D01*
X12052853Y-13854854D01*
X12038567Y-13840568D01*
X12581425Y-14297711D02*
X12567139Y-14283425D01*
X12538567Y-14240568D01*
X12524282Y-14211997D01*
X12509996Y-14169139D01*
X12495710Y-14097711D01*
X12495710Y-14040568D01*
X12509996Y-13969139D01*
X12524282Y-13926282D01*
X12538567Y-13897711D01*
X12567139Y-13854854D01*
X12581425Y-13840568D01*
X12695710Y-13983425D02*
X12695710Y-14183425D01*
X12695710Y-14011997D02*
X12709996Y-13997711D01*
X12738567Y-13983425D01*
X12781425Y-13983425D01*
X12809996Y-13997711D01*
X12824282Y-14026282D01*
X12824282Y-14183425D01*
X13009996Y-14183425D02*
X12981425Y-14169139D01*
X12967139Y-14154854D01*
X12952853Y-14126282D01*
X12952853Y-14040568D01*
X12967139Y-14011997D01*
X12981425Y-13997711D01*
X13009996Y-13983425D01*
X13052853Y-13983425D01*
X13081425Y-13997711D01*
X13095710Y-14011997D01*
X13109996Y-14040568D01*
X13109996Y-14126282D01*
X13095710Y-14154854D01*
X13081425Y-14169139D01*
X13052853Y-14183425D01*
X13009996Y-14183425D01*
X13195710Y-13983425D02*
X13309996Y-13983425D01*
X13238567Y-13883425D02*
X13238567Y-14140568D01*
X13252853Y-14169139D01*
X13281425Y-14183425D01*
X13309996Y-14183425D01*
X13638567Y-13983425D02*
X13638567Y-14283425D01*
X13638567Y-13997711D02*
X13667139Y-13983425D01*
X13724282Y-13983425D01*
X13752853Y-13997711D01*
X13767139Y-14011997D01*
X13781425Y-14040568D01*
X13781425Y-14126282D01*
X13767139Y-14154854D01*
X13752853Y-14169139D01*
X13724282Y-14183425D01*
X13667139Y-14183425D01*
X13638567Y-14169139D01*
X13952853Y-14183425D02*
X13924282Y-14169139D01*
X13909996Y-14140568D01*
X13909996Y-13883425D01*
X14195710Y-14183425D02*
X14195710Y-14026282D01*
X14181425Y-13997711D01*
X14152853Y-13983425D01*
X14095710Y-13983425D01*
X14067139Y-13997711D01*
X14195710Y-14169139D02*
X14167139Y-14183425D01*
X14095710Y-14183425D01*
X14067139Y-14169139D01*
X14052853Y-14140568D01*
X14052853Y-14111997D01*
X14067139Y-14083425D01*
X14095710Y-14069139D01*
X14167139Y-14069139D01*
X14195710Y-14054854D01*
X14295710Y-13983425D02*
X14409996Y-13983425D01*
X14338567Y-13883425D02*
X14338567Y-14140568D01*
X14352853Y-14169139D01*
X14381425Y-14183425D01*
X14409996Y-14183425D01*
X14624282Y-14169139D02*
X14595710Y-14183425D01*
X14538567Y-14183425D01*
X14509996Y-14169139D01*
X14495710Y-14140568D01*
X14495710Y-14026282D01*
X14509996Y-13997711D01*
X14538567Y-13983425D01*
X14595710Y-13983425D01*
X14624282Y-13997711D01*
X14638567Y-14026282D01*
X14638567Y-14054854D01*
X14495710Y-14083425D01*
X14895710Y-14183425D02*
X14895710Y-13883425D01*
X14895710Y-14169139D02*
X14867139Y-14183425D01*
X14809996Y-14183425D01*
X14781425Y-14169139D01*
X14767139Y-14154854D01*
X14752853Y-14126282D01*
X14752853Y-14040568D01*
X14767139Y-14011997D01*
X14781425Y-13997711D01*
X14809996Y-13983425D01*
X14867139Y-13983425D01*
X14895710Y-13997711D01*
X15009996Y-14297711D02*
X15024282Y-14283425D01*
X15052853Y-14240568D01*
X15067139Y-14211997D01*
X15081425Y-14169139D01*
X15095710Y-14097711D01*
X15095710Y-14040568D01*
X15081425Y-13969139D01*
X15067139Y-13926282D01*
X15052853Y-13897711D01*
X15024282Y-13854854D01*
X15009996Y-13840568D01*
X4948493Y-14521493D02*
X4948493Y-14365928D01*
X4792928Y-14365928D01*
X4792928Y-14521493D01*
X4948493Y-14521493D01*
X5252853Y-14307997D02*
X5267139Y-14293711D01*
X5295710Y-14279425D01*
X5367139Y-14279425D01*
X5395710Y-14293711D01*
X5409996Y-14307997D01*
X5424282Y-14336568D01*
X5424282Y-14365139D01*
X5409996Y-14407997D01*
X5238568Y-14579425D01*
X5424282Y-14579425D01*
X5552853Y-14550854D02*
X5567139Y-14565139D01*
X5552853Y-14579425D01*
X5538568Y-14565139D01*
X5552853Y-14550854D01*
X5552853Y-14579425D01*
X5681425Y-14307997D02*
X5695710Y-14293711D01*
X5724282Y-14279425D01*
X5795710Y-14279425D01*
X5824282Y-14293711D01*
X5838567Y-14307997D01*
X5852853Y-14336568D01*
X5852853Y-14365139D01*
X5838567Y-14407997D01*
X5667139Y-14579425D01*
X5852853Y-14579425D01*
X6038567Y-14279425D02*
X6067139Y-14279425D01*
X6095710Y-14293711D01*
X6109996Y-14307997D01*
X6124282Y-14336568D01*
X6138567Y-14393711D01*
X6138567Y-14465139D01*
X6124282Y-14522282D01*
X6109996Y-14550854D01*
X6095710Y-14565139D01*
X6067139Y-14579425D01*
X6038567Y-14579425D01*
X6009996Y-14565139D01*
X5995710Y-14550854D01*
X5981425Y-14522282D01*
X5967139Y-14465139D01*
X5967139Y-14393711D01*
X5981425Y-14336568D01*
X5995710Y-14307997D01*
X6009996Y-14293711D01*
X6038567Y-14279425D01*
X6324282Y-14279425D02*
X6352853Y-14279425D01*
X6381425Y-14293711D01*
X6395710Y-14307997D01*
X6409996Y-14336568D01*
X6424282Y-14393711D01*
X6424282Y-14465139D01*
X6409996Y-14522282D01*
X6395710Y-14550854D01*
X6381425Y-14565139D01*
X6352853Y-14579425D01*
X6324282Y-14579425D01*
X6295710Y-14565139D01*
X6281425Y-14550854D01*
X6267139Y-14522282D01*
X6252853Y-14465139D01*
X6252853Y-14393711D01*
X6267139Y-14336568D01*
X6281425Y-14307997D01*
X6295710Y-14293711D01*
X6324282Y-14279425D01*
X6552853Y-14579425D02*
X6552853Y-14379425D01*
X6552853Y-14407997D02*
X6567139Y-14393711D01*
X6595710Y-14379425D01*
X6638567Y-14379425D01*
X6667139Y-14393711D01*
X6681425Y-14422282D01*
X6681425Y-14579425D01*
X6681425Y-14422282D02*
X6695710Y-14393711D01*
X6724282Y-14379425D01*
X6767139Y-14379425D01*
X6795710Y-14393711D01*
X6809996Y-14422282D01*
X6809996Y-14579425D01*
X6952853Y-14579425D02*
X6952853Y-14379425D01*
X6952853Y-14407997D02*
X6967139Y-14393711D01*
X6995710Y-14379425D01*
X7038567Y-14379425D01*
X7067139Y-14393711D01*
X7081425Y-14422282D01*
X7081425Y-14579425D01*
X7081425Y-14422282D02*
X7095710Y-14393711D01*
X7124282Y-14379425D01*
X7167139Y-14379425D01*
X7195710Y-14393711D01*
X7209996Y-14422282D01*
X7209996Y-14579425D01*
X7795710Y-14265139D02*
X7538567Y-14650854D01*
X8181425Y-14279425D02*
X8209996Y-14279425D01*
X8238567Y-14293711D01*
X8252853Y-14307997D01*
X8267139Y-14336568D01*
X8281425Y-14393711D01*
X8281425Y-14465139D01*
X8267139Y-14522282D01*
X8252853Y-14550854D01*
X8238567Y-14565139D01*
X8209996Y-14579425D01*
X8181425Y-14579425D01*
X8152853Y-14565139D01*
X8138567Y-14550854D01*
X8124282Y-14522282D01*
X8109996Y-14465139D01*
X8109996Y-14393711D01*
X8124282Y-14336568D01*
X8138567Y-14307997D01*
X8152853Y-14293711D01*
X8181425Y-14279425D01*
X8409996Y-14550854D02*
X8424282Y-14565139D01*
X8409996Y-14579425D01*
X8395710Y-14565139D01*
X8409996Y-14550854D01*
X8409996Y-14579425D01*
X8609996Y-14279425D02*
X8638568Y-14279425D01*
X8667139Y-14293711D01*
X8681425Y-14307997D01*
X8695710Y-14336568D01*
X8709996Y-14393711D01*
X8709996Y-14465139D01*
X8695710Y-14522282D01*
X8681425Y-14550854D01*
X8667139Y-14565139D01*
X8638568Y-14579425D01*
X8609996Y-14579425D01*
X8581425Y-14565139D01*
X8567139Y-14550854D01*
X8552853Y-14522282D01*
X8538568Y-14465139D01*
X8538568Y-14393711D01*
X8552853Y-14336568D01*
X8567139Y-14307997D01*
X8581425Y-14293711D01*
X8609996Y-14279425D01*
X8881425Y-14407997D02*
X8852853Y-14393711D01*
X8838568Y-14379425D01*
X8824282Y-14350854D01*
X8824282Y-14336568D01*
X8838568Y-14307997D01*
X8852853Y-14293711D01*
X8881425Y-14279425D01*
X8938568Y-14279425D01*
X8967139Y-14293711D01*
X8981425Y-14307997D01*
X8995710Y-14336568D01*
X8995710Y-14350854D01*
X8981425Y-14379425D01*
X8967139Y-14393711D01*
X8938568Y-14407997D01*
X8881425Y-14407997D01*
X8852853Y-14422282D01*
X8838568Y-14436568D01*
X8824282Y-14465139D01*
X8824282Y-14522282D01*
X8838568Y-14550854D01*
X8852853Y-14565139D01*
X8881425Y-14579425D01*
X8938568Y-14579425D01*
X8967139Y-14565139D01*
X8981425Y-14550854D01*
X8995710Y-14522282D01*
X8995710Y-14465139D01*
X8981425Y-14436568D01*
X8967139Y-14422282D01*
X8938568Y-14407997D01*
X9252853Y-14279425D02*
X9195710Y-14279425D01*
X9167139Y-14293711D01*
X9152853Y-14307997D01*
X9124282Y-14350854D01*
X9109996Y-14407997D01*
X9109996Y-14522282D01*
X9124282Y-14550854D01*
X9138568Y-14565139D01*
X9167139Y-14579425D01*
X9224282Y-14579425D01*
X9252853Y-14565139D01*
X9267139Y-14550854D01*
X9281425Y-14522282D01*
X9281425Y-14450854D01*
X9267139Y-14422282D01*
X9252853Y-14407997D01*
X9224282Y-14393711D01*
X9167139Y-14393711D01*
X9138568Y-14407997D01*
X9124282Y-14422282D01*
X9109996Y-14450854D01*
X9538568Y-14279425D02*
X9481425Y-14279425D01*
X9452853Y-14293711D01*
X9438568Y-14307997D01*
X9409996Y-14350854D01*
X9395710Y-14407997D01*
X9395710Y-14522282D01*
X9409996Y-14550854D01*
X9424282Y-14565139D01*
X9452853Y-14579425D01*
X9509996Y-14579425D01*
X9538568Y-14565139D01*
X9552853Y-14550854D01*
X9567139Y-14522282D01*
X9567139Y-14450854D01*
X9552853Y-14422282D01*
X9538568Y-14407997D01*
X9509996Y-14393711D01*
X9452853Y-14393711D01*
X9424282Y-14407997D01*
X9409996Y-14422282D01*
X9395710Y-14450854D01*
X9681425Y-14279425D02*
X9681425Y-14336568D01*
X9795710Y-14279425D02*
X9795710Y-14336568D01*
X10238568Y-14693711D02*
X10224282Y-14679425D01*
X10195710Y-14636568D01*
X10181425Y-14607997D01*
X10167139Y-14565139D01*
X10152853Y-14493711D01*
X10152853Y-14436568D01*
X10167139Y-14365139D01*
X10181425Y-14322282D01*
X10195710Y-14293711D01*
X10224282Y-14250854D01*
X10238568Y-14236568D01*
X10338568Y-14307997D02*
X10352853Y-14293711D01*
X10381425Y-14279425D01*
X10452853Y-14279425D01*
X10481425Y-14293711D01*
X10495710Y-14307997D01*
X10509996Y-14336568D01*
X10509996Y-14365139D01*
X10495710Y-14407997D01*
X10324282Y-14579425D01*
X10509996Y-14579425D01*
X10867139Y-14579425D02*
X10867139Y-14279425D01*
X10995710Y-14579425D02*
X10995710Y-14422282D01*
X10981425Y-14393711D01*
X10952853Y-14379425D01*
X10909996Y-14379425D01*
X10881425Y-14393711D01*
X10867139Y-14407997D01*
X11181425Y-14579425D02*
X11152853Y-14565139D01*
X11138568Y-14550854D01*
X11124282Y-14522282D01*
X11124282Y-14436568D01*
X11138568Y-14407997D01*
X11152853Y-14393711D01*
X11181425Y-14379425D01*
X11224282Y-14379425D01*
X11252853Y-14393711D01*
X11267139Y-14407997D01*
X11281425Y-14436568D01*
X11281425Y-14522282D01*
X11267139Y-14550854D01*
X11252853Y-14565139D01*
X11224282Y-14579425D01*
X11181425Y-14579425D01*
X11452853Y-14579425D02*
X11424282Y-14565139D01*
X11409996Y-14536568D01*
X11409996Y-14279425D01*
X11681425Y-14565139D02*
X11652853Y-14579425D01*
X11595710Y-14579425D01*
X11567139Y-14565139D01*
X11552853Y-14536568D01*
X11552853Y-14422282D01*
X11567139Y-14393711D01*
X11595710Y-14379425D01*
X11652853Y-14379425D01*
X11681425Y-14393711D01*
X11695710Y-14422282D01*
X11695710Y-14450854D01*
X11552853Y-14479425D01*
X11809996Y-14565139D02*
X11838567Y-14579425D01*
X11895710Y-14579425D01*
X11924282Y-14565139D01*
X11938567Y-14536568D01*
X11938567Y-14522282D01*
X11924282Y-14493711D01*
X11895710Y-14479425D01*
X11852853Y-14479425D01*
X11824282Y-14465139D01*
X11809996Y-14436568D01*
X11809996Y-14422282D01*
X11824282Y-14393711D01*
X11852853Y-14379425D01*
X11895710Y-14379425D01*
X11924282Y-14393711D01*
X12295710Y-14465139D02*
X12524282Y-14465139D01*
X12409996Y-14579425D02*
X12409996Y-14350854D01*
X13052853Y-14579425D02*
X12881425Y-14579425D01*
X12967139Y-14579425D02*
X12967139Y-14279425D01*
X12938567Y-14322282D01*
X12909996Y-14350854D01*
X12881425Y-14365139D01*
X13395710Y-14565139D02*
X13424282Y-14579425D01*
X13481425Y-14579425D01*
X13509996Y-14565139D01*
X13524282Y-14536568D01*
X13524282Y-14522282D01*
X13509996Y-14493711D01*
X13481425Y-14479425D01*
X13438567Y-14479425D01*
X13409996Y-14465139D01*
X13395710Y-14436568D01*
X13395710Y-14422282D01*
X13409996Y-14393711D01*
X13438567Y-14379425D01*
X13481425Y-14379425D01*
X13509996Y-14393711D01*
X13695710Y-14579425D02*
X13667139Y-14565139D01*
X13652853Y-14536568D01*
X13652853Y-14279425D01*
X13852853Y-14579425D02*
X13824282Y-14565139D01*
X13809996Y-14550854D01*
X13795710Y-14522282D01*
X13795710Y-14436568D01*
X13809996Y-14407997D01*
X13824282Y-14393711D01*
X13852853Y-14379425D01*
X13895710Y-14379425D01*
X13924282Y-14393711D01*
X13938567Y-14407997D01*
X13952853Y-14436568D01*
X13952853Y-14522282D01*
X13938567Y-14550854D01*
X13924282Y-14565139D01*
X13895710Y-14579425D01*
X13852853Y-14579425D01*
X14038567Y-14379425D02*
X14152853Y-14379425D01*
X14081425Y-14279425D02*
X14081425Y-14536568D01*
X14095710Y-14565139D01*
X14124282Y-14579425D01*
X14152853Y-14579425D01*
X14224282Y-14693711D02*
X14238567Y-14679425D01*
X14267139Y-14636568D01*
X14281425Y-14607997D01*
X14295710Y-14565139D01*
X14309996Y-14493711D01*
X14309996Y-14436568D01*
X14295710Y-14365139D01*
X14281425Y-14322282D01*
X14267139Y-14293711D01*
X14238567Y-14250854D01*
X14224282Y-14236568D01*
X14767139Y-14693711D02*
X14752853Y-14679425D01*
X14724282Y-14636568D01*
X14709996Y-14607997D01*
X14695710Y-14565139D01*
X14681425Y-14493711D01*
X14681425Y-14436568D01*
X14695710Y-14365139D01*
X14709996Y-14322282D01*
X14724282Y-14293711D01*
X14752853Y-14250854D01*
X14767139Y-14236568D01*
X14881425Y-14379425D02*
X14881425Y-14579425D01*
X14881425Y-14407997D02*
X14895710Y-14393711D01*
X14924282Y-14379425D01*
X14967139Y-14379425D01*
X14995710Y-14393711D01*
X15009996Y-14422282D01*
X15009996Y-14579425D01*
X15195710Y-14579425D02*
X15167139Y-14565139D01*
X15152853Y-14550854D01*
X15138567Y-14522282D01*
X15138567Y-14436568D01*
X15152853Y-14407997D01*
X15167139Y-14393711D01*
X15195710Y-14379425D01*
X15238567Y-14379425D01*
X15267139Y-14393711D01*
X15281425Y-14407997D01*
X15295710Y-14436568D01*
X15295710Y-14522282D01*
X15281425Y-14550854D01*
X15267139Y-14565139D01*
X15238567Y-14579425D01*
X15195710Y-14579425D01*
X15381425Y-14379425D02*
X15495710Y-14379425D01*
X15424282Y-14279425D02*
X15424282Y-14536568D01*
X15438567Y-14565139D01*
X15467139Y-14579425D01*
X15495710Y-14579425D01*
X15824282Y-14379425D02*
X15824282Y-14679425D01*
X15824282Y-14393711D02*
X15852853Y-14379425D01*
X15909996Y-14379425D01*
X15938567Y-14393711D01*
X15952853Y-14407997D01*
X15967139Y-14436568D01*
X15967139Y-14522282D01*
X15952853Y-14550854D01*
X15938567Y-14565139D01*
X15909996Y-14579425D01*
X15852853Y-14579425D01*
X15824282Y-14565139D01*
X16138567Y-14579425D02*
X16109996Y-14565139D01*
X16095710Y-14536568D01*
X16095710Y-14279425D01*
X16381425Y-14579425D02*
X16381425Y-14422282D01*
X16367139Y-14393711D01*
X16338567Y-14379425D01*
X16281425Y-14379425D01*
X16252853Y-14393711D01*
X16381425Y-14565139D02*
X16352853Y-14579425D01*
X16281425Y-14579425D01*
X16252853Y-14565139D01*
X16238567Y-14536568D01*
X16238567Y-14507997D01*
X16252853Y-14479425D01*
X16281425Y-14465139D01*
X16352853Y-14465139D01*
X16381425Y-14450854D01*
X16481425Y-14379425D02*
X16595710Y-14379425D01*
X16524282Y-14279425D02*
X16524282Y-14536568D01*
X16538567Y-14565139D01*
X16567139Y-14579425D01*
X16595710Y-14579425D01*
X16809996Y-14565139D02*
X16781425Y-14579425D01*
X16724282Y-14579425D01*
X16695710Y-14565139D01*
X16681425Y-14536568D01*
X16681425Y-14422282D01*
X16695710Y-14393711D01*
X16724282Y-14379425D01*
X16781425Y-14379425D01*
X16809996Y-14393711D01*
X16824282Y-14422282D01*
X16824282Y-14450854D01*
X16681425Y-14479425D01*
X17081425Y-14579425D02*
X17081425Y-14279425D01*
X17081425Y-14565139D02*
X17052853Y-14579425D01*
X16995710Y-14579425D01*
X16967139Y-14565139D01*
X16952853Y-14550854D01*
X16938568Y-14522282D01*
X16938568Y-14436568D01*
X16952853Y-14407997D01*
X16967139Y-14393711D01*
X16995710Y-14379425D01*
X17052853Y-14379425D01*
X17081425Y-14393711D01*
X17195710Y-14693711D02*
X17209996Y-14679425D01*
X17238568Y-14636568D01*
X17252853Y-14607997D01*
X17267139Y-14565139D01*
X17281425Y-14493711D01*
X17281425Y-14436568D01*
X17267139Y-14365139D01*
X17252853Y-14322282D01*
X17238568Y-14293711D01*
X17209996Y-14250854D01*
X17195710Y-14236568D01*
X4860710Y-14959711D02*
X4980710Y-14839711D01*
X4860710Y-14719711D01*
X4740710Y-14839711D01*
X4860710Y-14959711D01*
X5252853Y-14703997D02*
X5267139Y-14689711D01*
X5295710Y-14675425D01*
X5367139Y-14675425D01*
X5395710Y-14689711D01*
X5409996Y-14703997D01*
X5424282Y-14732568D01*
X5424282Y-14761139D01*
X5409996Y-14803997D01*
X5238568Y-14975425D01*
X5424282Y-14975425D01*
X5552853Y-14946854D02*
X5567139Y-14961139D01*
X5552853Y-14975425D01*
X5538568Y-14961139D01*
X5552853Y-14946854D01*
X5552853Y-14975425D01*
X5824282Y-14775425D02*
X5824282Y-14975425D01*
X5752853Y-14661139D02*
X5681425Y-14875425D01*
X5867139Y-14875425D01*
X6038567Y-14675425D02*
X6067139Y-14675425D01*
X6095710Y-14689711D01*
X6109996Y-14703997D01*
X6124282Y-14732568D01*
X6138567Y-14789711D01*
X6138567Y-14861139D01*
X6124282Y-14918282D01*
X6109996Y-14946854D01*
X6095710Y-14961139D01*
X6067139Y-14975425D01*
X6038567Y-14975425D01*
X6009996Y-14961139D01*
X5995710Y-14946854D01*
X5981425Y-14918282D01*
X5967139Y-14861139D01*
X5967139Y-14789711D01*
X5981425Y-14732568D01*
X5995710Y-14703997D01*
X6009996Y-14689711D01*
X6038567Y-14675425D01*
X6324282Y-14675425D02*
X6352853Y-14675425D01*
X6381425Y-14689711D01*
X6395710Y-14703997D01*
X6409996Y-14732568D01*
X6424282Y-14789711D01*
X6424282Y-14861139D01*
X6409996Y-14918282D01*
X6395710Y-14946854D01*
X6381425Y-14961139D01*
X6352853Y-14975425D01*
X6324282Y-14975425D01*
X6295710Y-14961139D01*
X6281425Y-14946854D01*
X6267139Y-14918282D01*
X6252853Y-14861139D01*
X6252853Y-14789711D01*
X6267139Y-14732568D01*
X6281425Y-14703997D01*
X6295710Y-14689711D01*
X6324282Y-14675425D01*
X6552853Y-14975425D02*
X6552853Y-14775425D01*
X6552853Y-14803997D02*
X6567139Y-14789711D01*
X6595710Y-14775425D01*
X6638567Y-14775425D01*
X6667139Y-14789711D01*
X6681425Y-14818282D01*
X6681425Y-14975425D01*
X6681425Y-14818282D02*
X6695710Y-14789711D01*
X6724282Y-14775425D01*
X6767139Y-14775425D01*
X6795710Y-14789711D01*
X6809996Y-14818282D01*
X6809996Y-14975425D01*
X6952853Y-14975425D02*
X6952853Y-14775425D01*
X6952853Y-14803997D02*
X6967139Y-14789711D01*
X6995710Y-14775425D01*
X7038567Y-14775425D01*
X7067139Y-14789711D01*
X7081425Y-14818282D01*
X7081425Y-14975425D01*
X7081425Y-14818282D02*
X7095710Y-14789711D01*
X7124282Y-14775425D01*
X7167139Y-14775425D01*
X7195710Y-14789711D01*
X7209996Y-14818282D01*
X7209996Y-14975425D01*
X7795710Y-14661139D02*
X7538567Y-15046854D01*
X8181425Y-14675425D02*
X8209996Y-14675425D01*
X8238567Y-14689711D01*
X8252853Y-14703997D01*
X8267139Y-14732568D01*
X8281425Y-14789711D01*
X8281425Y-14861139D01*
X8267139Y-14918282D01*
X8252853Y-14946854D01*
X8238567Y-14961139D01*
X8209996Y-14975425D01*
X8181425Y-14975425D01*
X8152853Y-14961139D01*
X8138567Y-14946854D01*
X8124282Y-14918282D01*
X8109996Y-14861139D01*
X8109996Y-14789711D01*
X8124282Y-14732568D01*
X8138567Y-14703997D01*
X8152853Y-14689711D01*
X8181425Y-14675425D01*
X8409996Y-14946854D02*
X8424282Y-14961139D01*
X8409996Y-14975425D01*
X8395710Y-14961139D01*
X8409996Y-14946854D01*
X8409996Y-14975425D01*
X8609996Y-14675425D02*
X8638568Y-14675425D01*
X8667139Y-14689711D01*
X8681425Y-14703997D01*
X8695710Y-14732568D01*
X8709996Y-14789711D01*
X8709996Y-14861139D01*
X8695710Y-14918282D01*
X8681425Y-14946854D01*
X8667139Y-14961139D01*
X8638568Y-14975425D01*
X8609996Y-14975425D01*
X8581425Y-14961139D01*
X8567139Y-14946854D01*
X8552853Y-14918282D01*
X8538568Y-14861139D01*
X8538568Y-14789711D01*
X8552853Y-14732568D01*
X8567139Y-14703997D01*
X8581425Y-14689711D01*
X8609996Y-14675425D01*
X8852853Y-14975425D02*
X8909996Y-14975425D01*
X8938568Y-14961139D01*
X8952853Y-14946854D01*
X8981425Y-14903997D01*
X8995710Y-14846854D01*
X8995710Y-14732568D01*
X8981425Y-14703997D01*
X8967139Y-14689711D01*
X8938568Y-14675425D01*
X8881425Y-14675425D01*
X8852853Y-14689711D01*
X8838568Y-14703997D01*
X8824282Y-14732568D01*
X8824282Y-14803997D01*
X8838568Y-14832568D01*
X8852853Y-14846854D01*
X8881425Y-14861139D01*
X8938568Y-14861139D01*
X8967139Y-14846854D01*
X8981425Y-14832568D01*
X8995710Y-14803997D01*
X9252853Y-14775425D02*
X9252853Y-14975425D01*
X9181425Y-14661139D02*
X9109996Y-14875425D01*
X9295710Y-14875425D01*
X9552853Y-14675425D02*
X9409996Y-14675425D01*
X9395710Y-14818282D01*
X9409996Y-14803997D01*
X9438568Y-14789711D01*
X9509996Y-14789711D01*
X9538568Y-14803997D01*
X9552853Y-14818282D01*
X9567139Y-14846854D01*
X9567139Y-14918282D01*
X9552853Y-14946854D01*
X9538568Y-14961139D01*
X9509996Y-14975425D01*
X9438568Y-14975425D01*
X9409996Y-14961139D01*
X9395710Y-14946854D01*
X9681425Y-14675425D02*
X9681425Y-14732568D01*
X9795710Y-14675425D02*
X9795710Y-14732568D01*
X10238568Y-15089711D02*
X10224282Y-15075425D01*
X10195710Y-15032568D01*
X10181425Y-15003997D01*
X10167139Y-14961139D01*
X10152853Y-14889711D01*
X10152853Y-14832568D01*
X10167139Y-14761139D01*
X10181425Y-14718282D01*
X10195710Y-14689711D01*
X10224282Y-14646854D01*
X10238568Y-14632568D01*
X10509996Y-14975425D02*
X10338568Y-14975425D01*
X10424282Y-14975425D02*
X10424282Y-14675425D01*
X10395710Y-14718282D01*
X10367139Y-14746854D01*
X10338568Y-14761139D01*
X10867139Y-14975425D02*
X10867139Y-14675425D01*
X10995710Y-14975425D02*
X10995710Y-14818282D01*
X10981425Y-14789711D01*
X10952853Y-14775425D01*
X10909996Y-14775425D01*
X10881425Y-14789711D01*
X10867139Y-14803997D01*
X11181425Y-14975425D02*
X11152853Y-14961139D01*
X11138568Y-14946854D01*
X11124282Y-14918282D01*
X11124282Y-14832568D01*
X11138568Y-14803997D01*
X11152853Y-14789711D01*
X11181425Y-14775425D01*
X11224282Y-14775425D01*
X11252853Y-14789711D01*
X11267139Y-14803997D01*
X11281425Y-14832568D01*
X11281425Y-14918282D01*
X11267139Y-14946854D01*
X11252853Y-14961139D01*
X11224282Y-14975425D01*
X11181425Y-14975425D01*
X11452853Y-14975425D02*
X11424282Y-14961139D01*
X11409996Y-14932568D01*
X11409996Y-14675425D01*
X11681425Y-14961139D02*
X11652853Y-14975425D01*
X11595710Y-14975425D01*
X11567139Y-14961139D01*
X11552853Y-14932568D01*
X11552853Y-14818282D01*
X11567139Y-14789711D01*
X11595710Y-14775425D01*
X11652853Y-14775425D01*
X11681425Y-14789711D01*
X11695710Y-14818282D01*
X11695710Y-14846854D01*
X11552853Y-14875425D01*
X11795710Y-15089711D02*
X11809996Y-15075425D01*
X11838567Y-15032568D01*
X11852853Y-15003997D01*
X11867139Y-14961139D01*
X11881425Y-14889711D01*
X11881425Y-14832568D01*
X11867139Y-14761139D01*
X11852853Y-14718282D01*
X11838567Y-14689711D01*
X11809996Y-14646854D01*
X11795710Y-14632568D01*
X12338567Y-15089711D02*
X12324282Y-15075425D01*
X12295710Y-15032568D01*
X12281425Y-15003997D01*
X12267139Y-14961139D01*
X12252853Y-14889711D01*
X12252853Y-14832568D01*
X12267139Y-14761139D01*
X12281425Y-14718282D01*
X12295710Y-14689711D01*
X12324282Y-14646854D01*
X12338567Y-14632568D01*
X12452853Y-14775425D02*
X12452853Y-14975425D01*
X12452853Y-14803997D02*
X12467139Y-14789711D01*
X12495710Y-14775425D01*
X12538567Y-14775425D01*
X12567139Y-14789711D01*
X12581425Y-14818282D01*
X12581425Y-14975425D01*
X12767139Y-14975425D02*
X12738567Y-14961139D01*
X12724282Y-14946854D01*
X12709996Y-14918282D01*
X12709996Y-14832568D01*
X12724282Y-14803997D01*
X12738567Y-14789711D01*
X12767139Y-14775425D01*
X12809996Y-14775425D01*
X12838567Y-14789711D01*
X12852853Y-14803997D01*
X12867139Y-14832568D01*
X12867139Y-14918282D01*
X12852853Y-14946854D01*
X12838567Y-14961139D01*
X12809996Y-14975425D01*
X12767139Y-14975425D01*
X12952853Y-14775425D02*
X13067139Y-14775425D01*
X12995710Y-14675425D02*
X12995710Y-14932568D01*
X13009996Y-14961139D01*
X13038567Y-14975425D01*
X13067139Y-14975425D01*
X13395710Y-14775425D02*
X13395710Y-15075425D01*
X13395710Y-14789711D02*
X13424282Y-14775425D01*
X13481425Y-14775425D01*
X13509996Y-14789711D01*
X13524282Y-14803997D01*
X13538567Y-14832568D01*
X13538567Y-14918282D01*
X13524282Y-14946854D01*
X13509996Y-14961139D01*
X13481425Y-14975425D01*
X13424282Y-14975425D01*
X13395710Y-14961139D01*
X13709996Y-14975425D02*
X13681425Y-14961139D01*
X13667139Y-14932568D01*
X13667139Y-14675425D01*
X13952853Y-14975425D02*
X13952853Y-14818282D01*
X13938567Y-14789711D01*
X13909996Y-14775425D01*
X13852853Y-14775425D01*
X13824282Y-14789711D01*
X13952853Y-14961139D02*
X13924282Y-14975425D01*
X13852853Y-14975425D01*
X13824282Y-14961139D01*
X13809996Y-14932568D01*
X13809996Y-14903997D01*
X13824282Y-14875425D01*
X13852853Y-14861139D01*
X13924282Y-14861139D01*
X13952853Y-14846854D01*
X14052853Y-14775425D02*
X14167139Y-14775425D01*
X14095710Y-14675425D02*
X14095710Y-14932568D01*
X14109996Y-14961139D01*
X14138567Y-14975425D01*
X14167139Y-14975425D01*
X14381425Y-14961139D02*
X14352853Y-14975425D01*
X14295710Y-14975425D01*
X14267139Y-14961139D01*
X14252853Y-14932568D01*
X14252853Y-14818282D01*
X14267139Y-14789711D01*
X14295710Y-14775425D01*
X14352853Y-14775425D01*
X14381425Y-14789711D01*
X14395710Y-14818282D01*
X14395710Y-14846854D01*
X14252853Y-14875425D01*
X14652853Y-14975425D02*
X14652853Y-14675425D01*
X14652853Y-14961139D02*
X14624282Y-14975425D01*
X14567139Y-14975425D01*
X14538567Y-14961139D01*
X14524282Y-14946854D01*
X14509996Y-14918282D01*
X14509996Y-14832568D01*
X14524282Y-14803997D01*
X14538567Y-14789711D01*
X14567139Y-14775425D01*
X14624282Y-14775425D01*
X14652853Y-14789711D01*
X14767139Y-15089711D02*
X14781425Y-15075425D01*
X14809996Y-15032568D01*
X14824282Y-15003997D01*
X14838567Y-14961139D01*
X14852853Y-14889711D01*
X14852853Y-14832568D01*
X14838567Y-14761139D01*
X14824282Y-14718282D01*
X14809996Y-14689711D01*
X14781425Y-14646854D01*
X14767139Y-14632568D01*
X4460710Y-14975711D02*
X4980710Y-15495711D01*
X4980710Y-14975711D02*
X4460710Y-15495711D01*
X4980710Y-15235711D02*
G75*
G03*
X4980710Y-15235711I-260000J0D01*
G01*
X5409996Y-15071425D02*
X5267139Y-15071425D01*
X5252853Y-15214282D01*
X5267139Y-15199997D01*
X5295710Y-15185711D01*
X5367139Y-15185711D01*
X5395710Y-15199997D01*
X5409996Y-15214282D01*
X5424282Y-15242854D01*
X5424282Y-15314282D01*
X5409996Y-15342854D01*
X5395710Y-15357139D01*
X5367139Y-15371425D01*
X5295710Y-15371425D01*
X5267139Y-15357139D01*
X5252853Y-15342854D01*
X5552853Y-15342854D02*
X5567139Y-15357139D01*
X5552853Y-15371425D01*
X5538568Y-15357139D01*
X5552853Y-15342854D01*
X5552853Y-15371425D01*
X5681425Y-15099997D02*
X5695710Y-15085711D01*
X5724282Y-15071425D01*
X5795710Y-15071425D01*
X5824282Y-15085711D01*
X5838567Y-15099997D01*
X5852853Y-15128568D01*
X5852853Y-15157139D01*
X5838567Y-15199997D01*
X5667139Y-15371425D01*
X5852853Y-15371425D01*
X6038567Y-15071425D02*
X6067139Y-15071425D01*
X6095710Y-15085711D01*
X6109996Y-15099997D01*
X6124282Y-15128568D01*
X6138567Y-15185711D01*
X6138567Y-15257139D01*
X6124282Y-15314282D01*
X6109996Y-15342854D01*
X6095710Y-15357139D01*
X6067139Y-15371425D01*
X6038567Y-15371425D01*
X6009996Y-15357139D01*
X5995710Y-15342854D01*
X5981425Y-15314282D01*
X5967139Y-15257139D01*
X5967139Y-15185711D01*
X5981425Y-15128568D01*
X5995710Y-15099997D01*
X6009996Y-15085711D01*
X6038567Y-15071425D01*
X6324282Y-15071425D02*
X6352853Y-15071425D01*
X6381425Y-15085711D01*
X6395710Y-15099997D01*
X6409996Y-15128568D01*
X6424282Y-15185711D01*
X6424282Y-15257139D01*
X6409996Y-15314282D01*
X6395710Y-15342854D01*
X6381425Y-15357139D01*
X6352853Y-15371425D01*
X6324282Y-15371425D01*
X6295710Y-15357139D01*
X6281425Y-15342854D01*
X6267139Y-15314282D01*
X6252853Y-15257139D01*
X6252853Y-15185711D01*
X6267139Y-15128568D01*
X6281425Y-15099997D01*
X6295710Y-15085711D01*
X6324282Y-15071425D01*
X6552853Y-15371425D02*
X6552853Y-15171425D01*
X6552853Y-15199997D02*
X6567139Y-15185711D01*
X6595710Y-15171425D01*
X6638567Y-15171425D01*
X6667139Y-15185711D01*
X6681425Y-15214282D01*
X6681425Y-15371425D01*
X6681425Y-15214282D02*
X6695710Y-15185711D01*
X6724282Y-15171425D01*
X6767139Y-15171425D01*
X6795710Y-15185711D01*
X6809996Y-15214282D01*
X6809996Y-15371425D01*
X6952853Y-15371425D02*
X6952853Y-15171425D01*
X6952853Y-15199997D02*
X6967139Y-15185711D01*
X6995710Y-15171425D01*
X7038567Y-15171425D01*
X7067139Y-15185711D01*
X7081425Y-15214282D01*
X7081425Y-15371425D01*
X7081425Y-15214282D02*
X7095710Y-15185711D01*
X7124282Y-15171425D01*
X7167139Y-15171425D01*
X7195710Y-15185711D01*
X7209996Y-15214282D01*
X7209996Y-15371425D01*
X7795710Y-15057139D02*
X7538567Y-15442854D01*
X8181425Y-15071425D02*
X8209996Y-15071425D01*
X8238567Y-15085711D01*
X8252853Y-15099997D01*
X8267139Y-15128568D01*
X8281425Y-15185711D01*
X8281425Y-15257139D01*
X8267139Y-15314282D01*
X8252853Y-15342854D01*
X8238567Y-15357139D01*
X8209996Y-15371425D01*
X8181425Y-15371425D01*
X8152853Y-15357139D01*
X8138567Y-15342854D01*
X8124282Y-15314282D01*
X8109996Y-15257139D01*
X8109996Y-15185711D01*
X8124282Y-15128568D01*
X8138567Y-15099997D01*
X8152853Y-15085711D01*
X8181425Y-15071425D01*
X8409996Y-15342854D02*
X8424282Y-15357139D01*
X8409996Y-15371425D01*
X8395710Y-15357139D01*
X8409996Y-15342854D01*
X8409996Y-15371425D01*
X8538568Y-15099997D02*
X8552853Y-15085711D01*
X8581425Y-15071425D01*
X8652853Y-15071425D01*
X8681425Y-15085711D01*
X8695710Y-15099997D01*
X8709996Y-15128568D01*
X8709996Y-15157139D01*
X8695710Y-15199997D01*
X8524282Y-15371425D01*
X8709996Y-15371425D01*
X8895710Y-15071425D02*
X8924282Y-15071425D01*
X8952853Y-15085711D01*
X8967139Y-15099997D01*
X8981425Y-15128568D01*
X8995710Y-15185711D01*
X8995710Y-15257139D01*
X8981425Y-15314282D01*
X8967139Y-15342854D01*
X8952853Y-15357139D01*
X8924282Y-15371425D01*
X8895710Y-15371425D01*
X8867139Y-15357139D01*
X8852853Y-15342854D01*
X8838568Y-15314282D01*
X8824282Y-15257139D01*
X8824282Y-15185711D01*
X8838568Y-15128568D01*
X8852853Y-15099997D01*
X8867139Y-15085711D01*
X8895710Y-15071425D01*
X9252853Y-15171425D02*
X9252853Y-15371425D01*
X9181425Y-15057139D02*
X9109996Y-15271425D01*
X9295710Y-15271425D01*
X9381425Y-15071425D02*
X9581425Y-15071425D01*
X9452853Y-15371425D01*
X9681425Y-15071425D02*
X9681425Y-15128568D01*
X9795710Y-15071425D02*
X9795710Y-15128568D01*
X10238568Y-15485711D02*
X10224282Y-15471425D01*
X10195710Y-15428568D01*
X10181425Y-15399997D01*
X10167139Y-15357139D01*
X10152853Y-15285711D01*
X10152853Y-15228568D01*
X10167139Y-15157139D01*
X10181425Y-15114282D01*
X10195710Y-15085711D01*
X10224282Y-15042854D01*
X10238568Y-15028568D01*
X10509996Y-15371425D02*
X10338568Y-15371425D01*
X10424282Y-15371425D02*
X10424282Y-15071425D01*
X10395710Y-15114282D01*
X10367139Y-15142854D01*
X10338568Y-15157139D01*
X10867139Y-15371425D02*
X10867139Y-15071425D01*
X10995710Y-15371425D02*
X10995710Y-15214282D01*
X10981425Y-15185711D01*
X10952853Y-15171425D01*
X10909996Y-15171425D01*
X10881425Y-15185711D01*
X10867139Y-15199997D01*
X11181425Y-15371425D02*
X11152853Y-15357139D01*
X11138568Y-15342854D01*
X11124282Y-15314282D01*
X11124282Y-15228568D01*
X11138568Y-15199997D01*
X11152853Y-15185711D01*
X11181425Y-15171425D01*
X11224282Y-15171425D01*
X11252853Y-15185711D01*
X11267139Y-15199997D01*
X11281425Y-15228568D01*
X11281425Y-15314282D01*
X11267139Y-15342854D01*
X11252853Y-15357139D01*
X11224282Y-15371425D01*
X11181425Y-15371425D01*
X11452853Y-15371425D02*
X11424282Y-15357139D01*
X11409996Y-15328568D01*
X11409996Y-15071425D01*
X11681425Y-15357139D02*
X11652853Y-15371425D01*
X11595710Y-15371425D01*
X11567139Y-15357139D01*
X11552853Y-15328568D01*
X11552853Y-15214282D01*
X11567139Y-15185711D01*
X11595710Y-15171425D01*
X11652853Y-15171425D01*
X11681425Y-15185711D01*
X11695710Y-15214282D01*
X11695710Y-15242854D01*
X11552853Y-15271425D01*
X11795710Y-15485711D02*
X11809996Y-15471425D01*
X11838567Y-15428568D01*
X11852853Y-15399997D01*
X11867139Y-15357139D01*
X11881425Y-15285711D01*
X11881425Y-15228568D01*
X11867139Y-15157139D01*
X11852853Y-15114282D01*
X11838567Y-15085711D01*
X11809996Y-15042854D01*
X11795710Y-15028568D01*
X12338567Y-15485711D02*
X12324282Y-15471425D01*
X12295710Y-15428568D01*
X12281425Y-15399997D01*
X12267139Y-15357139D01*
X12252853Y-15285711D01*
X12252853Y-15228568D01*
X12267139Y-15157139D01*
X12281425Y-15114282D01*
X12295710Y-15085711D01*
X12324282Y-15042854D01*
X12338567Y-15028568D01*
X12452853Y-15171425D02*
X12452853Y-15371425D01*
X12452853Y-15199997D02*
X12467139Y-15185711D01*
X12495710Y-15171425D01*
X12538567Y-15171425D01*
X12567139Y-15185711D01*
X12581425Y-15214282D01*
X12581425Y-15371425D01*
X12767139Y-15371425D02*
X12738567Y-15357139D01*
X12724282Y-15342854D01*
X12709996Y-15314282D01*
X12709996Y-15228568D01*
X12724282Y-15199997D01*
X12738567Y-15185711D01*
X12767139Y-15171425D01*
X12809996Y-15171425D01*
X12838567Y-15185711D01*
X12852853Y-15199997D01*
X12867139Y-15228568D01*
X12867139Y-15314282D01*
X12852853Y-15342854D01*
X12838567Y-15357139D01*
X12809996Y-15371425D01*
X12767139Y-15371425D01*
X12952853Y-15171425D02*
X13067139Y-15171425D01*
X12995710Y-15071425D02*
X12995710Y-15328568D01*
X13009996Y-15357139D01*
X13038567Y-15371425D01*
X13067139Y-15371425D01*
X13395710Y-15171425D02*
X13395710Y-15471425D01*
X13395710Y-15185711D02*
X13424282Y-15171425D01*
X13481425Y-15171425D01*
X13509996Y-15185711D01*
X13524282Y-15199997D01*
X13538567Y-15228568D01*
X13538567Y-15314282D01*
X13524282Y-15342854D01*
X13509996Y-15357139D01*
X13481425Y-15371425D01*
X13424282Y-15371425D01*
X13395710Y-15357139D01*
X13709996Y-15371425D02*
X13681425Y-15357139D01*
X13667139Y-15328568D01*
X13667139Y-15071425D01*
X13952853Y-15371425D02*
X13952853Y-15214282D01*
X13938567Y-15185711D01*
X13909996Y-15171425D01*
X13852853Y-15171425D01*
X13824282Y-15185711D01*
X13952853Y-15357139D02*
X13924282Y-15371425D01*
X13852853Y-15371425D01*
X13824282Y-15357139D01*
X13809996Y-15328568D01*
X13809996Y-15299997D01*
X13824282Y-15271425D01*
X13852853Y-15257139D01*
X13924282Y-15257139D01*
X13952853Y-15242854D01*
X14052853Y-15171425D02*
X14167139Y-15171425D01*
X14095710Y-15071425D02*
X14095710Y-15328568D01*
X14109996Y-15357139D01*
X14138567Y-15371425D01*
X14167139Y-15371425D01*
X14381425Y-15357139D02*
X14352853Y-15371425D01*
X14295710Y-15371425D01*
X14267139Y-15357139D01*
X14252853Y-15328568D01*
X14252853Y-15214282D01*
X14267139Y-15185711D01*
X14295710Y-15171425D01*
X14352853Y-15171425D01*
X14381425Y-15185711D01*
X14395710Y-15214282D01*
X14395710Y-15242854D01*
X14252853Y-15271425D01*
X14652853Y-15371425D02*
X14652853Y-15071425D01*
X14652853Y-15357139D02*
X14624282Y-15371425D01*
X14567139Y-15371425D01*
X14538567Y-15357139D01*
X14524282Y-15342854D01*
X14509996Y-15314282D01*
X14509996Y-15228568D01*
X14524282Y-15199997D01*
X14538567Y-15185711D01*
X14567139Y-15171425D01*
X14624282Y-15171425D01*
X14652853Y-15185711D01*
X14767139Y-15485711D02*
X14781425Y-15471425D01*
X14809996Y-15428568D01*
X14824282Y-15399997D01*
X14838567Y-15357139D01*
X14852853Y-15285711D01*
X14852853Y-15228568D01*
X14838567Y-15157139D01*
X14824282Y-15114282D01*
X14809996Y-15085711D01*
X14781425Y-15042854D01*
X14767139Y-15028568D01*
M02*
