%TF.GenerationSoftware,KiCad,Pcbnew,(5.1.12)-1*%
%TF.CreationDate,2021-12-26T09:43:42-08:00*%
%TF.ProjectId,PhobGCC,50686f62-4743-4432-9e6b-696361645f70,rev?*%
%TF.SameCoordinates,Original*%
%TF.FileFunction,Profile,NP*%
%FSLAX46Y46*%
G04 Gerber Fmt 4.6, Leading zero omitted, Abs format (unit mm)*
G04 Created by KiCad (PCBNEW (5.1.12)-1) date 2021-12-26 09:43:42*
%MOMM*%
%LPD*%
G01*
G04 APERTURE LIST*
%TA.AperFunction,Profile*%
%ADD10C,0.050000*%
%TD*%
%TA.AperFunction,Profile*%
%ADD11C,0.100000*%
%TD*%
G04 APERTURE END LIST*
D10*
X135700000Y-61000000D02*
X135700000Y-58400000D01*
X139500000Y-61000000D02*
X135700000Y-61000000D01*
X139500000Y-58400000D02*
X139500000Y-61000000D01*
X135700000Y-58400000D02*
X139500000Y-58400000D01*
X85700000Y-61000000D02*
X85700000Y-58400000D01*
X89500000Y-61000000D02*
X85700000Y-61000000D01*
X89500000Y-58400000D02*
X89500000Y-61000000D01*
X85700000Y-58400000D02*
X89500000Y-58400000D01*
D11*
X89914212Y-50329643D02*
X89499999Y-50743856D01*
X64135291Y-106694399D02*
G75*
G02*
X63177448Y-107407107I-957843J287292D01*
G01*
X89207106Y-53407107D02*
G75*
G02*
X84007106Y-53407107I-2600000J0D01*
G01*
X76443548Y-52638395D02*
G75*
G02*
X76779945Y-52580115I336397J-941720D01*
G01*
X50149999Y-105700000D02*
G75*
G02*
X49857106Y-104992893I707107J707107D01*
G01*
X64135292Y-106694399D02*
G75*
G02*
X75807105Y-108407107I5710246J-1712708D01*
G01*
X98971544Y-96780519D02*
G75*
G02*
X75807105Y-108407107I-8664438J-11626588D01*
G01*
X61164444Y-59446874D02*
G75*
G02*
X76443548Y-52638394I52282723J-96780768D01*
G01*
X89207106Y-51450963D02*
X89207106Y-53407107D01*
X52271319Y-107407107D02*
G75*
G02*
X51564213Y-107114213I1J1000000D01*
G01*
X49857105Y-78407105D02*
G75*
G02*
X61164446Y-59446874I21550000J-2D01*
G01*
X89207106Y-51450963D02*
G75*
G02*
X89499999Y-50743856I1000000J0D01*
G01*
X89914212Y-50329642D02*
G75*
G02*
X90621319Y-50036749I707107J-707107D01*
G01*
X122899999Y-54201482D02*
G75*
G02*
X122607106Y-53494375I707107J707107D01*
G01*
X122314213Y-50743856D02*
G75*
G02*
X122607106Y-51450963I-707107J-707107D01*
G01*
X121192893Y-50036749D02*
G75*
G02*
X121899999Y-50329643I-1J-1000000D01*
G01*
X160802932Y-59342528D02*
G75*
G02*
X159675954Y-58694516I-563489J324006D01*
G01*
X155744914Y-102607106D02*
G75*
G02*
X160674982Y-106773773I1J-5000001D01*
G01*
X156340102Y-56007106D02*
G75*
G02*
X156838573Y-56140200I0J-1000001D01*
G01*
X174649999Y-107314214D02*
G75*
G02*
X173942892Y-107607107I-707107J707107D01*
G01*
X167824873Y-63380144D02*
G75*
G02*
X166697895Y-62732132I-563489J324006D01*
G01*
X138607106Y-56007107D02*
G75*
G02*
X136737319Y-55213733I0J2600000D01*
G01*
X136018170Y-54908589D02*
G75*
G02*
X136737319Y-55213733I0J-1000000D01*
G01*
X175357106Y-106192894D02*
G75*
G02*
X175064212Y-106900000I-1000000J1D01*
G01*
X168607106Y-62907107D02*
G75*
G02*
X175357106Y-76407107I-10125000J-13500000D01*
G01*
X124021319Y-54908589D02*
G75*
G02*
X123314212Y-54615696I0J1000000D01*
G01*
X161660994Y-107607107D02*
G75*
G02*
X160674982Y-106773773I1J1000000D01*
G01*
X93320992Y-85955077D02*
G75*
G02*
X131359616Y-85813703I19286114J-71716315D01*
G01*
X133521318Y-92407107D02*
G75*
G02*
X132814212Y-92114213I1J1000000D01*
G01*
X135607106Y-92407106D02*
G75*
G02*
X144335996Y-95574417I0J-13611765D01*
G01*
X98971543Y-96780519D02*
G75*
G02*
X92608865Y-87156481I10158305J13631171D01*
G01*
X92608864Y-87156480D02*
G75*
G02*
X93320992Y-85955076I971823J235713D01*
G01*
X132399999Y-91700000D02*
G75*
G02*
X132107106Y-90992893I707107J707107D01*
G01*
X149607106Y-95807107D02*
G75*
G02*
X152207106Y-98407107I0J-2600000D01*
G01*
X131359616Y-85813703D02*
G75*
G02*
X132107106Y-86781297I-252510J-967594D01*
G01*
X144977271Y-95807106D02*
G75*
G02*
X144335996Y-95574417I0J999999D01*
G01*
X152499999Y-101900000D02*
G75*
G02*
X152207106Y-101192893I707107J707107D01*
G01*
X153621318Y-102607107D02*
G75*
G02*
X152914212Y-102314213I1J1000000D01*
G01*
X160074731Y-58000991D02*
X156838573Y-56140200D01*
X121192892Y-50036749D02*
X90621319Y-50036749D01*
X136018170Y-54908589D02*
X124021319Y-54908589D01*
X122607106Y-53494375D02*
X122607106Y-51450963D01*
X156340102Y-56007107D02*
X138607106Y-56007107D01*
X166697895Y-62732132D02*
X167096672Y-62038607D01*
X167096672Y-62038607D02*
X161201709Y-58649003D01*
X161201709Y-58649003D02*
X160802932Y-59342529D01*
X159675954Y-58694516D02*
X160074731Y-58000991D01*
X122314212Y-50743856D02*
X121899999Y-50329643D01*
X123314212Y-54615696D02*
X122899999Y-54201482D01*
X132399999Y-91700000D02*
X132814212Y-92114213D01*
X133521319Y-92407107D02*
X135607106Y-92407107D01*
X152207106Y-98407107D02*
X152207106Y-101192893D01*
X174649999Y-107314213D02*
X175064212Y-106900000D01*
X175357106Y-106192893D02*
X175357106Y-76407107D01*
X152499999Y-101900000D02*
X152914212Y-102314213D01*
X144977271Y-95807107D02*
X149607106Y-95807107D01*
X153621319Y-102607107D02*
X155744915Y-102607107D01*
X168607106Y-62907107D02*
X168223650Y-62686620D01*
X168223650Y-62686620D02*
X167824873Y-63380145D01*
X161660995Y-107607107D02*
X173942892Y-107607107D01*
X52271320Y-107407107D02*
X63177448Y-107407107D01*
X84007106Y-53407107D02*
X84007106Y-52580115D01*
X84007106Y-52580115D02*
X76779945Y-52580115D01*
X49857106Y-78407107D02*
X49857106Y-104992893D01*
X132107106Y-86781297D02*
X132107106Y-90992893D01*
X50150000Y-105700000D02*
X51564213Y-107114213D01*
M02*
