<?xml version="1.0" encoding="UTF-8" standalone="no"?>
<!-- Created with Inkscape (http://www.inkscape.org/) -->

<svg
   width="100.0mm"
   height="100.0mm"
   viewBox="0 0 100.0 100.0"
   version="1.1"
   id="svg5"
   sodipodi:docname="ABXY_layout.svg"
   inkscape:version="1.1.1 (3bf5ae0d25, 2021-09-20)"
   xmlns:inkscape="http://www.inkscape.org/namespaces/inkscape"
   xmlns:sodipodi="http://sodipodi.sourceforge.net/DTD/sodipodi-0.dtd"
   xmlns="http://www.w3.org/2000/svg"
   xmlns:svg="http://www.w3.org/2000/svg">
  <sodipodi:namedview
     id="namedview7"
     pagecolor="#ffffff"
     bordercolor="#666666"
     borderopacity="1.0"
     inkscape:pageshadow="2"
     inkscape:pageopacity="0.0"
     inkscape:pagecheckerboard="0"
     inkscape:document-units="mm"
     showgrid="true"
     inkscape:zoom="1.060799"
     inkscape:cx="140.9315"
     inkscape:cy="165.44132"
     inkscape:window-width="1920"
     inkscape:window-height="1027"
     inkscape:window-x="1912"
     inkscape:window-y="-8"
     inkscape:window-maximized="1"
     inkscape:current-layer="g25"
     borderlayer="true">
    <inkscape:grid
       spacingx="2.54"
       spacingy="2.54"
       empspacing="1"
       type="xygrid"
       units="mm"
       id="grid13" />
  </sodipodi:namedview>
  <defs
     id="defs2">
    <marker
       id="DistanceX"
       orient="auto"
       refX="0.0"
       refY="0.0"
       style="overflow:visible">
      <path
         d="M 3,-3 L -3,3 M 0,-5 L  0,5"
         style="stroke:#000000; stroke-width:0.5"
         id="path1035" />
    </marker>
    <pattern
       id="Hatch"
       patternUnits="userSpaceOnUse"
       width="8"
       height="8"
       x="0"
       y="0">
      <path
         d="M8 4 l-4,4"
         stroke="#000000"
         stroke-width="0.25"
         linecap="square"
         id="path1038" />
      <path
         d="M6 2 l-4,4"
         stroke="#000000"
         stroke-width="0.25"
         linecap="square"
         id="path1040" />
      <path
         d="M4 0 l-4,4"
         stroke="#000000"
         stroke-width="0.25"
         linecap="square"
         id="path1042" />
    </pattern>
    <symbol
       id="*Model_Space" />
    <symbol
       id="*Paper_Space" />
    <symbol
       id="*Paper_Space0" />
  </defs>
  <g
     inkscape:label="[fixed] BG"
     inkscape:groupmode="layer"
     sodipodi:insensitive="true"
     id="g19">
    <rect
       x="0"
       y="0"
       width="100.0"
       height="100.0"
       style="fill:#FFFFFF;fill-opacity:1;stroke:none"
       id="rect17" />
  </g>
  <g
     inkscape:label="F.Cu"
     inkscape:groupmode="layer"
     id="g21"
     style="display:inline">
    <path
       style="fill:#000000;stroke-width:0.0249419"
       d="m 46.44869,52.568661 c -0.216828,-0.10096 -0.350603,-0.346709 -0.319578,-0.587072 0.009,-0.06962 -0.0058,-0.22984 -0.03814,-0.413044 -0.445451,-2.524158 1.204864,-4.93045 3.738502,-5.451036 0.229074,-0.04707 0.307466,-0.07487 0.39907,-0.141517 0.201921,-0.146914 0.320686,-0.19112 0.513068,-0.190973 0.205633,1.57e-4 0.366972,0.07066 0.516179,0.225565 0.253558,0.263241 0.263173,0.686042 0.02186,0.961034 -0.157574,0.179563 -0.183711,0.252565 -0.196264,0.548161 -0.01513,0.356245 0.0061,0.484623 0.09493,0.573427 0.05726,0.05726 0.09272,0.07077 0.185729,0.07077 0.139124,0 0.274295,0.05259 0.310883,0.120958 0.01529,0.02857 0.02695,0.188923 0.02695,0.37069 0,0.364678 -0.01798,0.413068 -0.169093,0.455036 -0.120223,0.03339 -1.45959,0.03409 -1.579336,8.3e-4 -0.168453,-0.04679 -0.184568,-0.08723 -0.184568,-0.463197 0,-0.324721 0.0017,-0.335219 0.06394,-0.397475 0.05164,-0.05164 0.09915,-0.06771 0.246952,-0.0835 0.155492,-0.01661 0.191816,-0.0298 0.241594,-0.08766 0.05594,-0.06504 0.05859,-0.08526 0.05859,-0.448046 0,-0.434652 -0.0034,-0.445438 -0.22458,-0.721323 -0.233678,-0.29142 -0.424948,-0.335366 -0.836869,-0.192281 -1.28225,0.445403 -2.28762,1.501276 -2.676627,2.811081 -0.123327,0.415245 -0.162407,0.696286 -0.163941,1.178963 -0.0013,0.405841 0.0025,0.443823 0.0545,0.541041 0.09154,0.171253 0.279873,0.282041 0.479454,0.282041 0.05028,0 0.230992,-0.03929 0.401584,-0.08731 0.721871,-0.203194 1.615918,-0.35796 2.39,-0.413724 0.510134,-0.03675 1.65886,-0.01632 2.122876,0.03775 0.433619,0.05053 1.056955,0.154671 1.226705,0.20494 0.231328,0.0685 0.401994,0.322019 0.354571,0.526694 -0.02399,0.103527 -0.1253,0.268504 -0.191547,0.31191 -0.150354,0.09852 -0.241393,0.103701 -0.607992,0.03463 -0.81535,-0.153624 -1.431224,-0.202438 -2.315664,-0.183539 -0.356669,0.0076 -0.800011,0.03183 -0.985204,0.0538 -0.737304,0.08745 -1.525579,0.259767 -2.222918,0.485914 -0.44151,0.143182 -0.54983,0.152969 -0.735615,0.06646 z"
       id="path1589" />
    <path
       style="fill:#000000;stroke-width:0.0249419"
       d="m 50.55455,55.698046 c -0.529044,-0.161511 -0.707999,-0.782205 -0.342925,-1.189411 0.157939,-0.176166 0.16839,-0.215906 0.167777,-0.637962 -4.71e-4,-0.323859 -0.0071,-0.389652 -0.04365,-0.434802 -0.06332,-0.07817 -0.138075,-0.108923 -0.264758,-0.108923 -0.254001,0 -0.314587,-0.09343 -0.314587,-0.485139 0,-0.281047 0.02989,-0.386967 0.123328,-0.436971 0.03012,-0.01612 0.353617,-0.02568 0.869066,-0.02568 h 0.82108 l 0.066,0.06116 c 0.06529,0.06051 0.066,0.06487 0.066,0.409325 v 0.348159 l -0.07674,0.06457 c -0.06087,0.05121 -0.103428,0.06459 -0.205771,0.06466 -0.171868,1.32e-4 -0.279392,0.06575 -0.314425,0.191909 -0.03405,0.122613 -0.03417,0.543513 -2.12e-4,0.701909 0.01568,0.07313 0.05898,0.16229 0.106585,0.21947 0.04409,0.05297 0.111682,0.138831 0.150196,0.190814 0.09766,0.131812 0.235462,0.216151 0.380062,0.232613 0.155732,0.01773 0.435973,-0.068 0.826101,-0.252719 1.202793,-0.569495 2.06708,-1.65776 2.348102,-2.956607 0.108903,-0.503336 0.131481,-1.173027 0.04625,-1.371982 -0.07306,-0.170554 -0.303918,-0.322954 -0.488517,-0.322492 -0.036,7.9e-5 -0.247516,0.04993 -0.470035,0.110755 -1.070756,0.29269 -2.031024,0.420337 -3.16211,0.420337 -0.847839,0 -1.376568,-0.04729 -2.194886,-0.196298 -0.428074,-0.07795 -0.528598,-0.128857 -0.621133,-0.314551 -0.08152,-0.163583 -0.08152,-0.251358 0,-0.414941 0.07917,-0.158866 0.223709,-0.254792 0.387844,-0.257393 0.05972,-9.47e-4 0.231795,0.02227 0.382388,0.05159 0.757556,0.14751 1.726613,0.214745 2.537553,0.176062 1.087668,-0.05188 1.977464,-0.216423 3.023911,-0.559172 0.191429,-0.0627 0.380933,-0.114 0.421118,-0.114 0.124877,0 0.262022,0.05424 0.369261,0.146029 0.144151,0.123387 0.194741,0.247985 0.195411,0.481275 3.01e-4,0.104952 0.02239,0.318609 0.0491,0.474794 0.132221,0.773409 0.07414,1.520329 -0.176885,2.274592 -0.536508,1.612091 -1.869838,2.787303 -3.566688,3.143718 -0.253395,0.05322 -0.311448,0.07538 -0.454962,0.173634 -0.09048,0.06194 -0.206696,0.124341 -0.258264,0.138662 -0.106833,0.02967 -0.288532,0.0311 -0.380591,0.003 z"
       id="path1628" />
  </g>
  <g
     inkscape:label="F.Mask"
     inkscape:groupmode="layer"
     id="g23"
     style="display:inline">
    <path
       style="fill:#000000;stroke-width:0.0249419"
       d="m 50.180421,55.944854 c -2.220153,-0.270308 -3.995905,-1.834176 -4.516104,-3.977239 -0.386385,-1.591789 0.0086,-3.288466 1.058252,-4.545482 0.923054,-1.105433 2.191942,-1.758514 3.653397,-1.880356 0.432729,-0.03608 0.926948,-0.0036 1.397008,0.09182 1.604374,0.325653 2.978523,1.401346 3.679162,2.880075 0.689195,1.454577 0.677596,3.101272 -0.03192,4.531835 -0.766416,1.545282 -2.152242,2.57121 -3.868335,2.863732 -0.279317,0.04761 -1.098257,0.06888 -1.371457,0.03562 z"
       id="path2143" />
  </g>
  <g
     inkscape:label="F.SilkS"
     inkscape:groupmode="layer"
     id="g25" />
</svg>
