<?xml version="1.0" encoding="UTF-8" standalone="no"?>
<!-- Created with Inkscape (http://www.inkscape.org/) -->

<svg
   width="100.0mm"
   height="100.0mm"
   viewBox="0 0 100.0 100.0"
   version="1.1"
   id="svg5"
   sodipodi:docname="Start_layout.svg"
   inkscape:version="1.1.1 (3bf5ae0d25, 2021-09-20)"
   xmlns:inkscape="http://www.inkscape.org/namespaces/inkscape"
   xmlns:sodipodi="http://sodipodi.sourceforge.net/DTD/sodipodi-0.dtd"
   xmlns="http://www.w3.org/2000/svg"
   xmlns:svg="http://www.w3.org/2000/svg">
  <sodipodi:namedview
     id="namedview7"
     pagecolor="#ffffff"
     bordercolor="#666666"
     borderopacity="1.0"
     inkscape:pageshadow="2"
     inkscape:pageopacity="0.0"
     inkscape:pagecheckerboard="0"
     inkscape:document-units="mm"
     showgrid="true"
     inkscape:zoom="16.972785"
     inkscape:cx="202.11769"
     inkscape:cy="186.74013"
     inkscape:window-width="1920"
     inkscape:window-height="1017"
     inkscape:window-x="-8"
     inkscape:window-y="-8"
     inkscape:window-maximized="1"
     inkscape:current-layer="g23"
     borderlayer="true">
    <inkscape:grid
       spacingx="2.54"
       spacingy="2.54"
       empspacing="1"
       type="xygrid"
       units="mm"
       id="grid13" />
  </sodipodi:namedview>
  <defs
     id="defs2">
    <marker
       id="DistanceX"
       orient="auto"
       refX="0.0"
       refY="0.0"
       style="overflow:visible">
      <path
         d="M 3,-3 L -3,3 M 0,-5 L  0,5"
         style="stroke:#000000; stroke-width:0.5"
         id="path22" />
    </marker>
    <pattern
       id="Hatch"
       patternUnits="userSpaceOnUse"
       width="8"
       height="8"
       x="0"
       y="0">
      <path
         d="M8 4 l-4,4"
         stroke="#000000"
         stroke-width="0.25"
         linecap="square"
         id="path25" />
      <path
         d="M6 2 l-4,4"
         stroke="#000000"
         stroke-width="0.25"
         linecap="square"
         id="path27" />
      <path
         d="M4 0 l-4,4"
         stroke="#000000"
         stroke-width="0.25"
         linecap="square"
         id="path29" />
    </pattern>
    <symbol
       id="*Model_Space" />
    <symbol
       id="*Paper_Space" />
    <symbol
       id="*Paper_Space0" />
  </defs>
  <g
     inkscape:label="[fixed] BG"
     inkscape:groupmode="layer"
     sodipodi:insensitive="true"
     id="g19">
    <rect
       x="0"
       y="0"
       width="100.0"
       height="100.0"
       style="fill:#FFFFFF;fill-opacity:1;stroke:none"
       id="rect17" />
  </g>
  <g
     inkscape:label="F.Cu"
     inkscape:groupmode="layer"
     id="g21"
     style="display:inline">
    <path
       style="fill:#000000;stroke-width:0.0173246"
       d="m 48.982767,50.289288 v -2.51869 h 0.952375 0.952375 v -0.06473 c 0,-0.08146 0.07417,-0.227187 0.144819,-0.284554 0.304212,-0.247003 0.733203,-0.09814 0.798136,0.276958 l 0.01252,0.07233 h 0.897915 0.897916 v 2.518689 2.518688 H 53.356638 53.074453 V 50.561577 48.31518 H 52.333717 51.59298 v 2.246397 2.246398 H 51.310795 51.02861 V 50.561577 48.31518 h -0.749555 -0.749554 v 2.246397 2.246398 h -0.273367 -0.273367 z"
       id="path600" />
    <path
       style="fill:#000000;stroke-width:0.0173247"
       d="m 50.085053,54.32787 c -0.184141,-0.06386 -0.326277,-0.236097 -0.326277,-0.395364 v -0.06011 H 48.85931 47.959845 V 51.362201 48.852 h 0.273367 0.273367 v 2.237908 2.237907 h 0.749555 0.749554 V 51.089908 48.852 h 0.273367 0.273367 v 2.237908 2.237907 h 0.749555 0.749554 V 51.089908 48.852 h 0.282186 0.282185 v 2.510201 2.510198 h -0.952376 c -0.908932,0 -0.952375,0.0015 -0.952375,0.03095 0,0.08279 -0.05809,0.209192 -0.133195,0.289794 -0.124125,0.133218 -0.332804,0.190259 -0.492903,0.134734 z"
       id="path639" />
  </g>
  <g
     inkscape:label="F.Mask"
     inkscape:groupmode="layer"
     id="g23"
     style="display:inline">
    <rect
       style="fill:#000000;stroke-width:0.0239547"
       id="rect860"
       width="5.5"
       height="6"
       x="48.051998"
       y="47.82" />
  </g>
  <g
     inkscape:label="F.SilkS"
     inkscape:groupmode="layer"
     id="g25" />
</svg>
