%TF.GenerationSoftware,KiCad,Pcbnew,(6.0.1)*%
%TF.CreationDate,2022-03-21T17:48:04-07:00*%
%TF.ProjectId,CStick,43537469-636b-42e6-9b69-6361645f7063,rev?*%
%TF.SameCoordinates,Original*%
%TF.FileFunction,Legend,Top*%
%TF.FilePolarity,Positive*%
%FSLAX46Y46*%
G04 Gerber Fmt 4.6, Leading zero omitted, Abs format (unit mm)*
G04 Created by KiCad (PCBNEW (6.0.1)) date 2022-03-21 17:48:04*
%MOMM*%
%LPD*%
G01*
G04 APERTURE LIST*
G04 Aperture macros list*
%AMRoundRect*
0 Rectangle with rounded corners*
0 $1 Rounding radius*
0 $2 $3 $4 $5 $6 $7 $8 $9 X,Y pos of 4 corners*
0 Add a 4 corners polygon primitive as box body*
4,1,4,$2,$3,$4,$5,$6,$7,$8,$9,$2,$3,0*
0 Add four circle primitives for the rounded corners*
1,1,$1+$1,$2,$3*
1,1,$1+$1,$4,$5*
1,1,$1+$1,$6,$7*
1,1,$1+$1,$8,$9*
0 Add four rect primitives between the rounded corners*
20,1,$1+$1,$2,$3,$4,$5,0*
20,1,$1+$1,$4,$5,$6,$7,0*
20,1,$1+$1,$6,$7,$8,$9,0*
20,1,$1+$1,$8,$9,$2,$3,0*%
%AMHorizOval*
0 Thick line with rounded ends*
0 $1 width*
0 $2 $3 position (X,Y) of the first rounded end (center of the circle)*
0 $4 $5 position (X,Y) of the second rounded end (center of the circle)*
0 Add line between two ends*
20,1,$1,$2,$3,$4,$5,0*
0 Add two circle primitives to create the rounded ends*
1,1,$1,$2,$3*
1,1,$1,$4,$5*%
G04 Aperture macros list end*
%ADD10C,0.150000*%
%ADD11C,0.120000*%
%ADD12C,0.100000*%
%ADD13RoundRect,0.237500X-0.237500X0.250000X-0.237500X-0.250000X0.237500X-0.250000X0.237500X0.250000X0*%
%ADD14C,1.800000*%
%ADD15RoundRect,0.237500X0.250000X0.237500X-0.250000X0.237500X-0.250000X-0.237500X0.250000X-0.237500X0*%
%ADD16C,5.200000*%
%ADD17R,1.350000X1.350000*%
%ADD18O,1.350000X1.350000*%
%ADD19C,1.600000*%
%ADD20O,1.600000X2.600000*%
%ADD21HorizOval,2.800000X-0.577898X0.161352X0.577898X-0.161352X0*%
%ADD22C,2.000000*%
%ADD23O,0.700000X2.000000*%
%ADD24O,0.800000X2.000000*%
%ADD25O,2.000000X0.800000*%
G04 APERTURE END LIST*
D10*
X145833333Y-87818571D02*
X145500000Y-87818571D01*
X145500000Y-88342380D02*
X145500000Y-87342380D01*
X145976190Y-87342380D01*
X146500000Y-88342380D02*
X146404761Y-88294761D01*
X146357142Y-88247142D01*
X146309523Y-88151904D01*
X146309523Y-87866190D01*
X146357142Y-87770952D01*
X146404761Y-87723333D01*
X146500000Y-87675714D01*
X146642857Y-87675714D01*
X146738095Y-87723333D01*
X146785714Y-87770952D01*
X146833333Y-87866190D01*
X146833333Y-88151904D01*
X146785714Y-88247142D01*
X146738095Y-88294761D01*
X146642857Y-88342380D01*
X146500000Y-88342380D01*
X147261904Y-88342380D02*
X147261904Y-87675714D01*
X147261904Y-87866190D02*
X147309523Y-87770952D01*
X147357142Y-87723333D01*
X147452380Y-87675714D01*
X147547619Y-87675714D01*
X149071428Y-87675714D02*
X149071428Y-88342380D01*
X148642857Y-87675714D02*
X148642857Y-88199523D01*
X148690476Y-88294761D01*
X148785714Y-88342380D01*
X148928571Y-88342380D01*
X149023809Y-88294761D01*
X149071428Y-88247142D01*
X149500000Y-88294761D02*
X149595238Y-88342380D01*
X149785714Y-88342380D01*
X149880952Y-88294761D01*
X149928571Y-88199523D01*
X149928571Y-88151904D01*
X149880952Y-88056666D01*
X149785714Y-88009047D01*
X149642857Y-88009047D01*
X149547619Y-87961428D01*
X149500000Y-87866190D01*
X149500000Y-87818571D01*
X149547619Y-87723333D01*
X149642857Y-87675714D01*
X149785714Y-87675714D01*
X149880952Y-87723333D01*
X150738095Y-88294761D02*
X150642857Y-88342380D01*
X150452380Y-88342380D01*
X150357142Y-88294761D01*
X150309523Y-88199523D01*
X150309523Y-87818571D01*
X150357142Y-87723333D01*
X150452380Y-87675714D01*
X150642857Y-87675714D01*
X150738095Y-87723333D01*
X150785714Y-87818571D01*
X150785714Y-87913809D01*
X150309523Y-88009047D01*
X151880952Y-87675714D02*
X152071428Y-88342380D01*
X152261904Y-87866190D01*
X152452380Y-88342380D01*
X152642857Y-87675714D01*
X153023809Y-88342380D02*
X153023809Y-87675714D01*
X153023809Y-87342380D02*
X152976190Y-87390000D01*
X153023809Y-87437619D01*
X153071428Y-87390000D01*
X153023809Y-87342380D01*
X153023809Y-87437619D01*
X153357142Y-87675714D02*
X153738095Y-87675714D01*
X153500000Y-87342380D02*
X153500000Y-88199523D01*
X153547619Y-88294761D01*
X153642857Y-88342380D01*
X153738095Y-88342380D01*
X154071428Y-88342380D02*
X154071428Y-87342380D01*
X154500000Y-88342380D02*
X154500000Y-87818571D01*
X154452380Y-87723333D01*
X154357142Y-87675714D01*
X154214285Y-87675714D01*
X154119047Y-87723333D01*
X154071428Y-87770952D01*
X143500000Y-89952380D02*
X143500000Y-88952380D01*
X143500000Y-89333333D02*
X143595238Y-89285714D01*
X143785714Y-89285714D01*
X143880952Y-89333333D01*
X143928571Y-89380952D01*
X143976190Y-89476190D01*
X143976190Y-89761904D01*
X143928571Y-89857142D01*
X143880952Y-89904761D01*
X143785714Y-89952380D01*
X143595238Y-89952380D01*
X143500000Y-89904761D01*
X144547619Y-89952380D02*
X144452380Y-89904761D01*
X144404761Y-89857142D01*
X144357142Y-89761904D01*
X144357142Y-89476190D01*
X144404761Y-89380952D01*
X144452380Y-89333333D01*
X144547619Y-89285714D01*
X144690476Y-89285714D01*
X144785714Y-89333333D01*
X144833333Y-89380952D01*
X144880952Y-89476190D01*
X144880952Y-89761904D01*
X144833333Y-89857142D01*
X144785714Y-89904761D01*
X144690476Y-89952380D01*
X144547619Y-89952380D01*
X145738095Y-89952380D02*
X145738095Y-89428571D01*
X145690476Y-89333333D01*
X145595238Y-89285714D01*
X145404761Y-89285714D01*
X145309523Y-89333333D01*
X145738095Y-89904761D02*
X145642857Y-89952380D01*
X145404761Y-89952380D01*
X145309523Y-89904761D01*
X145261904Y-89809523D01*
X145261904Y-89714285D01*
X145309523Y-89619047D01*
X145404761Y-89571428D01*
X145642857Y-89571428D01*
X145738095Y-89523809D01*
X146214285Y-89952380D02*
X146214285Y-89285714D01*
X146214285Y-89476190D02*
X146261904Y-89380952D01*
X146309523Y-89333333D01*
X146404761Y-89285714D01*
X146500000Y-89285714D01*
X147261904Y-89952380D02*
X147261904Y-88952380D01*
X147261904Y-89904761D02*
X147166666Y-89952380D01*
X146976190Y-89952380D01*
X146880952Y-89904761D01*
X146833333Y-89857142D01*
X146785714Y-89761904D01*
X146785714Y-89476190D01*
X146833333Y-89380952D01*
X146880952Y-89333333D01*
X146976190Y-89285714D01*
X147166666Y-89285714D01*
X147261904Y-89333333D01*
X148404761Y-89285714D02*
X148642857Y-89952380D01*
X148880952Y-89285714D01*
X149642857Y-89904761D02*
X149547619Y-89952380D01*
X149357142Y-89952380D01*
X149261904Y-89904761D01*
X149214285Y-89809523D01*
X149214285Y-89428571D01*
X149261904Y-89333333D01*
X149357142Y-89285714D01*
X149547619Y-89285714D01*
X149642857Y-89333333D01*
X149690476Y-89428571D01*
X149690476Y-89523809D01*
X149214285Y-89619047D01*
X150119047Y-89952380D02*
X150119047Y-89285714D01*
X150119047Y-89476190D02*
X150166666Y-89380952D01*
X150214285Y-89333333D01*
X150309523Y-89285714D01*
X150404761Y-89285714D01*
X150690476Y-89904761D02*
X150785714Y-89952380D01*
X150976190Y-89952380D01*
X151071428Y-89904761D01*
X151119047Y-89809523D01*
X151119047Y-89761904D01*
X151071428Y-89666666D01*
X150976190Y-89619047D01*
X150833333Y-89619047D01*
X150738095Y-89571428D01*
X150690476Y-89476190D01*
X150690476Y-89428571D01*
X150738095Y-89333333D01*
X150833333Y-89285714D01*
X150976190Y-89285714D01*
X151071428Y-89333333D01*
X151547619Y-89952380D02*
X151547619Y-89285714D01*
X151547619Y-88952380D02*
X151500000Y-89000000D01*
X151547619Y-89047619D01*
X151595238Y-89000000D01*
X151547619Y-88952380D01*
X151547619Y-89047619D01*
X152166666Y-89952380D02*
X152071428Y-89904761D01*
X152023809Y-89857142D01*
X151976190Y-89761904D01*
X151976190Y-89476190D01*
X152023809Y-89380952D01*
X152071428Y-89333333D01*
X152166666Y-89285714D01*
X152309523Y-89285714D01*
X152404761Y-89333333D01*
X152452380Y-89380952D01*
X152500000Y-89476190D01*
X152500000Y-89761904D01*
X152452380Y-89857142D01*
X152404761Y-89904761D01*
X152309523Y-89952380D01*
X152166666Y-89952380D01*
X152928571Y-89285714D02*
X152928571Y-89952380D01*
X152928571Y-89380952D02*
X152976190Y-89333333D01*
X153071428Y-89285714D01*
X153214285Y-89285714D01*
X153309523Y-89333333D01*
X153357142Y-89428571D01*
X153357142Y-89952380D01*
X155119047Y-89952380D02*
X154547619Y-89952380D01*
X154833333Y-89952380D02*
X154833333Y-88952380D01*
X154738095Y-89095238D01*
X154642857Y-89190476D01*
X154547619Y-89238095D01*
X155547619Y-89857142D02*
X155595238Y-89904761D01*
X155547619Y-89952380D01*
X155500000Y-89904761D01*
X155547619Y-89857142D01*
X155547619Y-89952380D01*
X156547619Y-89952380D02*
X155976190Y-89952380D01*
X156261904Y-89952380D02*
X156261904Y-88952380D01*
X156166666Y-89095238D01*
X156071428Y-89190476D01*
X155976190Y-89238095D01*
X145142857Y-90657619D02*
X145190476Y-90610000D01*
X145285714Y-90562380D01*
X145523809Y-90562380D01*
X145619047Y-90610000D01*
X145666666Y-90657619D01*
X145714285Y-90752857D01*
X145714285Y-90848095D01*
X145666666Y-90990952D01*
X145095238Y-91562380D01*
X145714285Y-91562380D01*
X146333333Y-90562380D02*
X146428571Y-90562380D01*
X146523809Y-90610000D01*
X146571428Y-90657619D01*
X146619047Y-90752857D01*
X146666666Y-90943333D01*
X146666666Y-91181428D01*
X146619047Y-91371904D01*
X146571428Y-91467142D01*
X146523809Y-91514761D01*
X146428571Y-91562380D01*
X146333333Y-91562380D01*
X146238095Y-91514761D01*
X146190476Y-91467142D01*
X146142857Y-91371904D01*
X146095238Y-91181428D01*
X146095238Y-90943333D01*
X146142857Y-90752857D01*
X146190476Y-90657619D01*
X146238095Y-90610000D01*
X146333333Y-90562380D01*
X147047619Y-90657619D02*
X147095238Y-90610000D01*
X147190476Y-90562380D01*
X147428571Y-90562380D01*
X147523809Y-90610000D01*
X147571428Y-90657619D01*
X147619047Y-90752857D01*
X147619047Y-90848095D01*
X147571428Y-90990952D01*
X147000000Y-91562380D01*
X147619047Y-91562380D01*
X148000000Y-90657619D02*
X148047619Y-90610000D01*
X148142857Y-90562380D01*
X148380952Y-90562380D01*
X148476190Y-90610000D01*
X148523809Y-90657619D01*
X148571428Y-90752857D01*
X148571428Y-90848095D01*
X148523809Y-90990952D01*
X147952380Y-91562380D01*
X148571428Y-91562380D01*
X149000000Y-91181428D02*
X149761904Y-91181428D01*
X150428571Y-90562380D02*
X150523809Y-90562380D01*
X150619047Y-90610000D01*
X150666666Y-90657619D01*
X150714285Y-90752857D01*
X150761904Y-90943333D01*
X150761904Y-91181428D01*
X150714285Y-91371904D01*
X150666666Y-91467142D01*
X150619047Y-91514761D01*
X150523809Y-91562380D01*
X150428571Y-91562380D01*
X150333333Y-91514761D01*
X150285714Y-91467142D01*
X150238095Y-91371904D01*
X150190476Y-91181428D01*
X150190476Y-90943333D01*
X150238095Y-90752857D01*
X150285714Y-90657619D01*
X150333333Y-90610000D01*
X150428571Y-90562380D01*
X151095238Y-90562380D02*
X151714285Y-90562380D01*
X151380952Y-90943333D01*
X151523809Y-90943333D01*
X151619047Y-90990952D01*
X151666666Y-91038571D01*
X151714285Y-91133809D01*
X151714285Y-91371904D01*
X151666666Y-91467142D01*
X151619047Y-91514761D01*
X151523809Y-91562380D01*
X151238095Y-91562380D01*
X151142857Y-91514761D01*
X151095238Y-91467142D01*
X152142857Y-91181428D02*
X152904761Y-91181428D01*
X153333333Y-90657619D02*
X153380952Y-90610000D01*
X153476190Y-90562380D01*
X153714285Y-90562380D01*
X153809523Y-90610000D01*
X153857142Y-90657619D01*
X153904761Y-90752857D01*
X153904761Y-90848095D01*
X153857142Y-90990952D01*
X153285714Y-91562380D01*
X153904761Y-91562380D01*
X154857142Y-91562380D02*
X154285714Y-91562380D01*
X154571428Y-91562380D02*
X154571428Y-90562380D01*
X154476190Y-90705238D01*
X154380952Y-90800476D01*
X154285714Y-90848095D01*
X160202380Y-89666666D02*
X159726190Y-90000000D01*
X160202380Y-90238095D02*
X159202380Y-90238095D01*
X159202380Y-89857142D01*
X159250000Y-89761904D01*
X159297619Y-89714285D01*
X159392857Y-89666666D01*
X159535714Y-89666666D01*
X159630952Y-89714285D01*
X159678571Y-89761904D01*
X159726190Y-89857142D01*
X159726190Y-90238095D01*
X160202380Y-88714285D02*
X160202380Y-89285714D01*
X160202380Y-89000000D02*
X159202380Y-89000000D01*
X159345238Y-89095238D01*
X159440476Y-89190476D01*
X159488095Y-89285714D01*
X151238095Y-85952380D02*
X151238095Y-84952380D01*
X151238095Y-85428571D02*
X151809523Y-85428571D01*
X151809523Y-85952380D02*
X151809523Y-84952380D01*
X152809523Y-85952380D02*
X152238095Y-85952380D01*
X152523809Y-85952380D02*
X152523809Y-84952380D01*
X152428571Y-85095238D01*
X152333333Y-85190476D01*
X152238095Y-85238095D01*
X168333333Y-87452380D02*
X168000000Y-86976190D01*
X167761904Y-87452380D02*
X167761904Y-86452380D01*
X168142857Y-86452380D01*
X168238095Y-86500000D01*
X168285714Y-86547619D01*
X168333333Y-86642857D01*
X168333333Y-86785714D01*
X168285714Y-86880952D01*
X168238095Y-86928571D01*
X168142857Y-86976190D01*
X167761904Y-86976190D01*
X168714285Y-86547619D02*
X168761904Y-86500000D01*
X168857142Y-86452380D01*
X169095238Y-86452380D01*
X169190476Y-86500000D01*
X169238095Y-86547619D01*
X169285714Y-86642857D01*
X169285714Y-86738095D01*
X169238095Y-86880952D01*
X168666666Y-87452380D01*
X169285714Y-87452380D01*
X161738095Y-94452380D02*
X161738095Y-93452380D01*
X161738095Y-93928571D02*
X162309523Y-93928571D01*
X162309523Y-94452380D02*
X162309523Y-93452380D01*
X162738095Y-93547619D02*
X162785714Y-93500000D01*
X162880952Y-93452380D01*
X163119047Y-93452380D01*
X163214285Y-93500000D01*
X163261904Y-93547619D01*
X163309523Y-93642857D01*
X163309523Y-93738095D01*
X163261904Y-93880952D01*
X162690476Y-94452380D01*
X163309523Y-94452380D01*
X173866666Y-84452380D02*
X173866666Y-85166666D01*
X173819047Y-85309523D01*
X173723809Y-85404761D01*
X173580952Y-85452380D01*
X173485714Y-85452380D01*
X174866666Y-85452380D02*
X174295238Y-85452380D01*
X174580952Y-85452380D02*
X174580952Y-84452380D01*
X174485714Y-84595238D01*
X174390476Y-84690476D01*
X174295238Y-84738095D01*
X157238095Y-102452380D02*
X157238095Y-103261904D01*
X157285714Y-103357142D01*
X157333333Y-103404761D01*
X157428571Y-103452380D01*
X157619047Y-103452380D01*
X157714285Y-103404761D01*
X157761904Y-103357142D01*
X157809523Y-103261904D01*
X157809523Y-102452380D01*
X158809523Y-103452380D02*
X158238095Y-103452380D01*
X158523809Y-103452380D02*
X158523809Y-102452380D01*
X158428571Y-102595238D01*
X158333333Y-102690476D01*
X158238095Y-102738095D01*
G36*
X139812648Y-99060398D02*
G01*
X139818436Y-99062832D01*
X139822616Y-99065728D01*
X139824368Y-99067657D01*
X139826317Y-99070474D01*
X139827899Y-99073300D01*
X139829247Y-99076236D01*
X139830026Y-99078670D01*
X139830377Y-99081281D01*
X139830442Y-99084750D01*
X139830434Y-99085459D01*
X139830056Y-99092465D01*
X139829121Y-99100641D01*
X139827698Y-99109623D01*
X139825857Y-99119049D01*
X139823669Y-99128555D01*
X139821202Y-99137779D01*
X139819038Y-99144824D01*
X139813422Y-99159672D01*
X139806674Y-99173523D01*
X139798853Y-99186304D01*
X139790018Y-99197944D01*
X139780228Y-99208371D01*
X139769544Y-99217512D01*
X139758025Y-99225295D01*
X139748310Y-99230467D01*
X139734680Y-99236010D01*
X139720274Y-99240126D01*
X139705176Y-99242801D01*
X139689473Y-99244022D01*
X139673250Y-99243776D01*
X139666806Y-99243280D01*
X139651862Y-99241100D01*
X139637144Y-99237439D01*
X139622827Y-99232385D01*
X139609086Y-99226026D01*
X139596097Y-99218449D01*
X139584034Y-99209742D01*
X139573073Y-99199993D01*
X139566602Y-99193116D01*
X139556822Y-99180708D01*
X139548512Y-99167569D01*
X139541698Y-99153771D01*
X139536407Y-99139386D01*
X139532664Y-99124486D01*
X139530497Y-99109142D01*
X139529932Y-99093428D01*
X139529949Y-99092469D01*
X139530073Y-99087404D01*
X139530223Y-99083676D01*
X139530446Y-99080962D01*
X139530787Y-99078942D01*
X139531291Y-99077297D01*
X139532005Y-99075706D01*
X139532470Y-99074801D01*
X139535971Y-99069725D01*
X139540363Y-99065837D01*
X139545407Y-99063136D01*
X139550864Y-99061619D01*
X139556497Y-99061286D01*
X139562067Y-99062135D01*
X139567333Y-99064165D01*
X139572059Y-99067375D01*
X139576006Y-99071764D01*
X139577941Y-99075044D01*
X139578933Y-99077116D01*
X139579661Y-99078904D01*
X139580177Y-99080735D01*
X139580537Y-99082933D01*
X139580794Y-99085824D01*
X139581001Y-99089734D01*
X139581203Y-99094707D01*
X139581798Y-99104268D01*
X139582851Y-99112620D01*
X139584459Y-99120173D01*
X139586721Y-99127334D01*
X139589735Y-99134513D01*
X139591702Y-99138526D01*
X139598039Y-99149142D01*
X139605620Y-99158763D01*
X139614318Y-99167323D01*
X139624006Y-99174756D01*
X139634558Y-99180996D01*
X139645848Y-99185979D01*
X139657749Y-99189638D01*
X139670134Y-99191908D01*
X139682877Y-99192723D01*
X139694952Y-99192116D01*
X139706100Y-99190466D01*
X139716016Y-99187950D01*
X139724941Y-99184459D01*
X139733113Y-99179887D01*
X139740773Y-99174125D01*
X139746134Y-99169152D01*
X139753231Y-99161094D01*
X139759476Y-99151961D01*
X139764897Y-99141678D01*
X139769526Y-99130173D01*
X139773390Y-99117373D01*
X139776521Y-99103204D01*
X139778833Y-99088475D01*
X139779921Y-99081490D01*
X139781257Y-99075912D01*
X139782984Y-99071495D01*
X139785246Y-99067992D01*
X139788187Y-99065158D01*
X139791951Y-99062746D01*
X139794666Y-99061399D01*
X139800425Y-99059629D01*
X139806531Y-99059313D01*
X139812648Y-99060398D01*
G37*
G36*
X138167311Y-100629166D02*
G01*
X138167888Y-100625684D01*
X138168515Y-100623397D01*
X138168943Y-100622144D01*
X138169539Y-100620873D01*
X138170421Y-100619444D01*
X138171710Y-100617717D01*
X138173524Y-100615552D01*
X138175982Y-100612809D01*
X138179203Y-100609347D01*
X138183306Y-100605026D01*
X138188409Y-100599706D01*
X138190252Y-100597792D01*
X138211332Y-100575779D01*
X138231567Y-100554386D01*
X138250922Y-100533653D01*
X138269364Y-100513620D01*
X138286856Y-100494325D01*
X138303365Y-100475809D01*
X138318855Y-100458110D01*
X138333292Y-100441269D01*
X138346642Y-100425326D01*
X138358869Y-100410319D01*
X138369939Y-100396288D01*
X138379816Y-100383273D01*
X138386143Y-100374592D01*
X138406599Y-100344903D01*
X138426044Y-100314476D01*
X138444489Y-100283270D01*
X138461949Y-100251245D01*
X138478434Y-100218362D01*
X138493958Y-100184580D01*
X138508533Y-100149860D01*
X138522172Y-100114160D01*
X138534887Y-100077443D01*
X138546691Y-100039666D01*
X138557596Y-100000790D01*
X138567615Y-99960776D01*
X138576761Y-99919583D01*
X138585046Y-99877170D01*
X138592483Y-99833499D01*
X138599083Y-99788529D01*
X138604860Y-99742219D01*
X138609827Y-99694531D01*
X138613785Y-99648180D01*
X138614925Y-99632957D01*
X138615994Y-99617874D01*
X138616995Y-99602844D01*
X138617932Y-99587776D01*
X138618806Y-99572582D01*
X138619621Y-99557173D01*
X138620379Y-99541461D01*
X138621084Y-99525355D01*
X138621737Y-99508767D01*
X138622342Y-99491609D01*
X138622902Y-99473791D01*
X138623418Y-99455224D01*
X138623895Y-99435819D01*
X138624334Y-99415488D01*
X138624739Y-99394141D01*
X138625112Y-99371690D01*
X138625456Y-99348045D01*
X138625774Y-99323118D01*
X138626069Y-99296819D01*
X138626342Y-99269060D01*
X138626598Y-99239752D01*
X138626646Y-99233856D01*
X138626867Y-99207391D01*
X138627093Y-99182486D01*
X138627327Y-99159048D01*
X138627571Y-99136980D01*
X138627826Y-99116189D01*
X138628095Y-99096579D01*
X138628379Y-99078055D01*
X138628682Y-99060523D01*
X138629005Y-99043889D01*
X138629350Y-99028056D01*
X138629720Y-99012930D01*
X138630116Y-98998416D01*
X138630540Y-98984420D01*
X138630996Y-98970846D01*
X138631484Y-98957600D01*
X138632008Y-98944587D01*
X138632568Y-98931712D01*
X138633168Y-98918881D01*
X138633809Y-98905997D01*
X138634129Y-98899831D01*
X138635538Y-98874639D01*
X138637049Y-98850920D01*
X138638681Y-98828491D01*
X138640454Y-98807172D01*
X138642385Y-98786782D01*
X138644494Y-98767139D01*
X138646801Y-98748062D01*
X138649323Y-98729369D01*
X138652080Y-98710880D01*
X138655091Y-98692413D01*
X138656951Y-98681700D01*
X138665531Y-98637412D01*
X138675436Y-98593793D01*
X138686648Y-98550888D01*
X138699147Y-98508740D01*
X138712913Y-98467393D01*
X138727927Y-98426891D01*
X138744168Y-98387277D01*
X138761618Y-98348595D01*
X138780257Y-98310889D01*
X138800064Y-98274202D01*
X138821021Y-98238579D01*
X138843108Y-98204062D01*
X138866305Y-98170696D01*
X138890592Y-98138524D01*
X138913471Y-98110505D01*
X138921950Y-98100703D01*
X138931283Y-98090274D01*
X138941245Y-98079451D01*
X138951610Y-98068467D01*
X138962153Y-98057554D01*
X138972648Y-98046945D01*
X138982869Y-98036873D01*
X138992591Y-98027569D01*
X139001589Y-98019268D01*
X139004136Y-98016987D01*
X139034147Y-97991384D01*
X139064837Y-97967288D01*
X139096228Y-97944687D01*
X139128342Y-97923570D01*
X139161202Y-97903923D01*
X139194831Y-97885735D01*
X139229250Y-97868993D01*
X139264482Y-97853685D01*
X139300550Y-97839798D01*
X139337476Y-97827321D01*
X139363824Y-97819425D01*
X139401951Y-97809407D01*
X139440425Y-97800927D01*
X139479177Y-97793980D01*
X139518138Y-97788562D01*
X139557242Y-97784670D01*
X139596419Y-97782299D01*
X139635602Y-97781444D01*
X139674722Y-97782103D01*
X139713711Y-97784271D01*
X139752502Y-97787943D01*
X139791025Y-97793116D01*
X139829213Y-97799786D01*
X139866998Y-97807948D01*
X139904312Y-97817599D01*
X139941086Y-97828734D01*
X139977252Y-97841349D01*
X140012742Y-97855440D01*
X140020699Y-97858845D01*
X140050845Y-97872771D01*
X140080169Y-97888047D01*
X140108685Y-97904688D01*
X140136409Y-97922708D01*
X140163359Y-97942121D01*
X140189549Y-97962943D01*
X140214995Y-97985187D01*
X140239714Y-98008867D01*
X140263722Y-98033999D01*
X140287033Y-98060597D01*
X140309664Y-98088675D01*
X140331632Y-98118248D01*
X140352951Y-98149330D01*
X140370186Y-98176316D01*
X140385328Y-98201496D01*
X140400202Y-98227654D01*
X140414841Y-98254857D01*
X140429274Y-98283172D01*
X140443531Y-98312667D01*
X140457645Y-98343408D01*
X140471646Y-98375463D01*
X140485564Y-98408899D01*
X140499430Y-98443784D01*
X140513276Y-98480184D01*
X140527131Y-98518167D01*
X140528179Y-98521103D01*
X140537234Y-98546711D01*
X140545656Y-98570973D01*
X140553497Y-98594051D01*
X140560811Y-98616107D01*
X140567646Y-98637301D01*
X140574057Y-98657798D01*
X140580093Y-98677757D01*
X140585807Y-98697342D01*
X140591251Y-98716713D01*
X140595232Y-98731370D01*
X140607594Y-98779783D01*
X140619137Y-98829605D01*
X140629861Y-98880801D01*
X140639761Y-98933337D01*
X140648834Y-98987181D01*
X140657078Y-99042299D01*
X140664490Y-99098656D01*
X140671066Y-99156220D01*
X140676804Y-99214958D01*
X140681701Y-99274835D01*
X140685755Y-99335817D01*
X140688961Y-99397873D01*
X140691317Y-99460967D01*
X140692820Y-99525067D01*
X140693468Y-99590138D01*
X140693257Y-99656148D01*
X140692184Y-99723063D01*
X140690247Y-99790849D01*
X140689564Y-99809605D01*
X140687243Y-99863361D01*
X140684354Y-99918050D01*
X140680921Y-99973387D01*
X140676966Y-100029086D01*
X140672514Y-100084862D01*
X140667589Y-100140431D01*
X140662215Y-100195508D01*
X140656415Y-100249807D01*
X140650214Y-100303044D01*
X140643991Y-100352241D01*
X140642970Y-100360230D01*
X140641864Y-100369276D01*
X140640742Y-100378800D01*
X140639670Y-100388218D01*
X140638718Y-100396951D01*
X140638202Y-100401910D01*
X140633380Y-100445112D01*
X140627599Y-100489319D01*
X140620910Y-100534227D01*
X140613370Y-100579534D01*
X140605031Y-100624935D01*
X140595948Y-100670126D01*
X140586174Y-100714805D01*
X140575764Y-100758668D01*
X140572443Y-100771946D01*
X140559828Y-100819821D01*
X140546599Y-100866222D01*
X140532732Y-100911220D01*
X140518201Y-100954888D01*
X140502982Y-100997300D01*
X140487049Y-101038526D01*
X140470378Y-101078639D01*
X140457415Y-101107952D01*
X140454078Y-101115253D01*
X140451292Y-101121194D01*
X140448950Y-101125939D01*
X140446950Y-101129648D01*
X140445186Y-101132484D01*
X140443553Y-101134609D01*
X140441947Y-101136183D01*
X140440264Y-101137370D01*
X140438397Y-101138331D01*
X140437506Y-101138717D01*
X140433695Y-101139798D01*
X140429312Y-101140294D01*
X140425287Y-101140112D01*
X140424675Y-101140000D01*
X140423016Y-101139594D01*
X140421442Y-101139030D01*
X140419739Y-101138166D01*
X140417691Y-101136861D01*
X140415083Y-101134974D01*
X140411699Y-101132365D01*
X140407325Y-101128892D01*
X140405590Y-101127502D01*
X140385851Y-101112396D01*
X140364763Y-101097617D01*
X140342625Y-101083345D01*
X140319738Y-101069761D01*
X140296401Y-101057045D01*
X140272916Y-101045378D01*
X140257456Y-101038329D01*
X140229487Y-101026808D01*
X140201687Y-101016880D01*
X140174073Y-101008547D01*
X140146665Y-101001812D01*
X140119481Y-100996677D01*
X140092539Y-100993146D01*
X140065859Y-100991220D01*
X140039460Y-100990902D01*
X140013358Y-100992195D01*
X139987575Y-100995101D01*
X139966063Y-100998813D01*
X139954933Y-101001169D01*
X139944336Y-101003687D01*
X139934039Y-101006448D01*
X139923808Y-101009532D01*
X139913409Y-101013017D01*
X139902609Y-101016986D01*
X139891174Y-101021516D01*
X139878871Y-101026688D01*
X139865465Y-101032583D01*
X139859688Y-101035185D01*
X139834483Y-101046444D01*
X139810528Y-101056805D01*
X139787705Y-101066309D01*
X139765901Y-101074994D01*
X139744998Y-101082901D01*
X139724881Y-101090069D01*
X139705435Y-101096538D01*
X139686544Y-101102347D01*
X139668091Y-101107536D01*
X139649961Y-101112145D01*
X139632039Y-101116214D01*
X139614209Y-101119781D01*
X139610928Y-101120386D01*
X139586747Y-101124207D01*
X139562306Y-101126938D01*
X139537875Y-101128571D01*
X139513725Y-101129096D01*
X139490126Y-101128503D01*
X139467349Y-101126783D01*
X139458609Y-101125787D01*
X139433394Y-101121919D01*
X139409025Y-101116725D01*
X139385352Y-101110152D01*
X139362222Y-101102149D01*
X139339485Y-101092660D01*
X139316990Y-101081633D01*
X139294583Y-101069014D01*
X139290976Y-101066831D01*
X139284026Y-101062517D01*
X139277081Y-101058056D01*
X139270000Y-101053349D01*
X139262644Y-101048294D01*
X139254875Y-101042794D01*
X139246553Y-101036746D01*
X139237540Y-101030052D01*
X139227696Y-101022611D01*
X139216882Y-101014324D01*
X139204959Y-101005090D01*
X139202965Y-101003538D01*
X139189229Y-100992890D01*
X139176624Y-100983229D01*
X139165027Y-100974469D01*
X139154308Y-100966522D01*
X139144343Y-100959300D01*
X139135004Y-100952716D01*
X139126165Y-100946683D01*
X139117700Y-100941114D01*
X139109481Y-100935921D01*
X139101383Y-100931016D01*
X139093279Y-100926314D01*
X139085042Y-100921725D01*
X139082247Y-100920207D01*
X139061970Y-100910008D01*
X139041900Y-100901433D01*
X139021985Y-100894470D01*
X139002175Y-100889107D01*
X138982418Y-100885331D01*
X138962663Y-100883132D01*
X138942860Y-100882496D01*
X138924165Y-100883313D01*
X138915932Y-100884066D01*
X138907637Y-100885029D01*
X138899132Y-100886232D01*
X138890266Y-100887707D01*
X138880893Y-100889485D01*
X138870863Y-100891599D01*
X138860027Y-100894079D01*
X138848238Y-100896957D01*
X138835346Y-100900265D01*
X138821203Y-100904034D01*
X138805660Y-100908296D01*
X138803390Y-100908926D01*
X138785270Y-100913888D01*
X138768535Y-100918296D01*
X138753019Y-100922181D01*
X138738555Y-100925571D01*
X138724978Y-100928495D01*
X138712122Y-100930981D01*
X138699821Y-100933060D01*
X138687910Y-100934760D01*
X138676223Y-100936109D01*
X138664593Y-100937138D01*
X138652856Y-100937874D01*
X138640845Y-100938346D01*
X138633975Y-100938506D01*
X138605494Y-100938338D01*
X138577913Y-100936788D01*
X138551210Y-100933849D01*
X138525365Y-100929517D01*
X138500356Y-100923784D01*
X138476164Y-100916645D01*
X138452767Y-100908095D01*
X138430145Y-100898128D01*
X138408276Y-100886736D01*
X138387140Y-100873916D01*
X138374266Y-100865155D01*
X138362462Y-100856474D01*
X138350679Y-100847191D01*
X138338850Y-100837238D01*
X138326913Y-100826544D01*
X138314802Y-100815043D01*
X138302452Y-100802664D01*
X138289799Y-100789340D01*
X138276779Y-100775002D01*
X138263327Y-100759580D01*
X138249379Y-100743007D01*
X138234868Y-100725213D01*
X138219733Y-100706129D01*
X138203906Y-100685688D01*
X138196459Y-100675919D01*
X138190571Y-100668153D01*
X138185604Y-100661584D01*
X138181476Y-100656093D01*
X138178102Y-100651560D01*
X138175398Y-100647868D01*
X138173282Y-100644897D01*
X138171669Y-100642529D01*
X138170476Y-100640644D01*
X138169619Y-100639125D01*
X138169015Y-100637851D01*
X138168579Y-100636705D01*
X138168361Y-100636017D01*
X138167571Y-100632767D01*
X138215909Y-100632767D01*
X138216617Y-100633706D01*
X138218144Y-100635740D01*
X138220316Y-100638638D01*
X138222961Y-100642170D01*
X138225604Y-100645703D01*
X138243448Y-100669226D01*
X138260679Y-100691253D01*
X138277324Y-100711814D01*
X138293411Y-100730940D01*
X138308969Y-100748661D01*
X138324025Y-100765008D01*
X138338607Y-100780011D01*
X138352743Y-100793700D01*
X138366461Y-100806107D01*
X138379788Y-100817261D01*
X138390178Y-100825295D01*
X138408012Y-100837877D01*
X138425898Y-100849080D01*
X138444004Y-100858968D01*
X138462494Y-100867605D01*
X138481536Y-100875055D01*
X138501295Y-100881380D01*
X138521938Y-100886645D01*
X138543630Y-100890914D01*
X138566538Y-100894249D01*
X138571600Y-100894847D01*
X138592062Y-100896761D01*
X138612063Y-100897782D01*
X138631834Y-100897891D01*
X138651608Y-100897070D01*
X138671613Y-100895302D01*
X138692082Y-100892566D01*
X138713244Y-100888847D01*
X138735331Y-100884124D01*
X138749168Y-100880790D01*
X138752685Y-100879890D01*
X138757565Y-100878613D01*
X138763571Y-100877023D01*
X138770470Y-100875181D01*
X138778026Y-100873151D01*
X138786005Y-100870995D01*
X138794173Y-100868776D01*
X138799665Y-100867277D01*
X138813183Y-100863606D01*
X138825298Y-100860375D01*
X138836190Y-100857543D01*
X138846039Y-100855071D01*
X138855026Y-100852918D01*
X138863331Y-100851042D01*
X138871134Y-100849404D01*
X138878617Y-100847963D01*
X138885959Y-100846679D01*
X138893341Y-100845510D01*
X138900944Y-100844416D01*
X138901900Y-100844285D01*
X138908049Y-100843602D01*
X138915475Y-100843027D01*
X138923810Y-100842567D01*
X138932687Y-100842232D01*
X138941736Y-100842029D01*
X138950591Y-100841968D01*
X138958882Y-100842056D01*
X138966243Y-100842302D01*
X138971998Y-100842686D01*
X138990923Y-100845010D01*
X139009760Y-100848560D01*
X139028604Y-100853373D01*
X139047550Y-100859485D01*
X139066694Y-100866933D01*
X139086130Y-100875754D01*
X139105954Y-100885985D01*
X139126261Y-100897662D01*
X139145194Y-100909546D01*
X139151355Y-100913600D01*
X139157394Y-100917664D01*
X139163462Y-100921848D01*
X139169707Y-100926263D01*
X139176279Y-100931017D01*
X139183328Y-100936221D01*
X139191004Y-100941984D01*
X139199454Y-100948416D01*
X139208830Y-100955626D01*
X139219281Y-100963725D01*
X139223922Y-100967336D01*
X139236249Y-100976903D01*
X139247432Y-100985503D01*
X139257603Y-100993231D01*
X139266891Y-101000180D01*
X139275425Y-101006442D01*
X139283337Y-101012111D01*
X139290756Y-101017279D01*
X139297812Y-101022040D01*
X139304635Y-101026487D01*
X139311355Y-101030712D01*
X139318102Y-101034810D01*
X139318708Y-101035171D01*
X139340306Y-101047138D01*
X139362315Y-101057545D01*
X139384800Y-101066411D01*
X139407822Y-101073754D01*
X139431446Y-101079593D01*
X139455734Y-101083948D01*
X139480750Y-101086837D01*
X139493424Y-101087731D01*
X139501850Y-101088050D01*
X139511471Y-101088154D01*
X139521842Y-101088050D01*
X139532516Y-101087747D01*
X139543050Y-101087256D01*
X139552996Y-101086586D01*
X139554636Y-101086452D01*
X139572085Y-101084685D01*
X139589707Y-101082301D01*
X139607591Y-101079274D01*
X139625827Y-101075574D01*
X139644506Y-101071174D01*
X139663716Y-101066046D01*
X139683549Y-101060163D01*
X139704092Y-101053496D01*
X139725438Y-101046017D01*
X139747674Y-101037699D01*
X139770891Y-101028514D01*
X139795179Y-101018433D01*
X139820628Y-101007430D01*
X139846157Y-100996008D01*
X139856782Y-100991225D01*
X139866201Y-100987086D01*
X139874684Y-100983486D01*
X139882504Y-100980323D01*
X139889930Y-100977491D01*
X139897233Y-100974886D01*
X139904685Y-100972404D01*
X139912555Y-100969940D01*
X139918463Y-100968170D01*
X139944768Y-100961263D01*
X139971414Y-100955975D01*
X139998393Y-100952305D01*
X140025695Y-100950253D01*
X140053313Y-100949819D01*
X140081238Y-100951003D01*
X140109462Y-100953804D01*
X140137976Y-100958223D01*
X140166772Y-100964259D01*
X140195842Y-100971913D01*
X140197283Y-100972333D01*
X140224002Y-100980865D01*
X140250986Y-100990889D01*
X140278038Y-101002308D01*
X140304964Y-101015022D01*
X140331566Y-101028934D01*
X140357649Y-101043947D01*
X140383016Y-101059961D01*
X140407470Y-101076879D01*
X140409450Y-101078318D01*
X140413304Y-101081109D01*
X140416672Y-101083501D01*
X140419336Y-101085345D01*
X140421084Y-101086494D01*
X140421696Y-101086807D01*
X140422080Y-101085997D01*
X140423027Y-101083895D01*
X140424437Y-101080728D01*
X140426211Y-101076719D01*
X140428247Y-101072096D01*
X140429003Y-101070375D01*
X140445697Y-101030860D01*
X140461751Y-100989870D01*
X140477144Y-100947466D01*
X140491858Y-100903706D01*
X140505876Y-100858650D01*
X140519179Y-100812357D01*
X140531748Y-100764887D01*
X140543566Y-100716299D01*
X140554614Y-100666652D01*
X140557016Y-100655223D01*
X140562752Y-100626785D01*
X140568264Y-100597758D01*
X140573511Y-100568407D01*
X140578450Y-100539000D01*
X140583040Y-100509802D01*
X140587240Y-100481079D01*
X140591007Y-100453096D01*
X140594300Y-100426120D01*
X140597077Y-100400417D01*
X140597258Y-100398599D01*
X140597888Y-100392522D01*
X140598694Y-100385180D01*
X140599631Y-100376952D01*
X140600657Y-100368213D01*
X140601726Y-100359340D01*
X140602795Y-100350710D01*
X140603496Y-100345205D01*
X140612981Y-100267649D01*
X140621458Y-100190191D01*
X140628921Y-100112932D01*
X140635365Y-100035970D01*
X140640787Y-99959407D01*
X140645181Y-99883342D01*
X140648542Y-99807876D01*
X140650867Y-99733107D01*
X140652150Y-99659137D01*
X140652386Y-99586065D01*
X140651572Y-99513992D01*
X140649702Y-99443016D01*
X140647744Y-99393626D01*
X140644567Y-99333287D01*
X140640551Y-99273908D01*
X140635700Y-99215533D01*
X140630022Y-99158204D01*
X140623523Y-99101966D01*
X140616209Y-99046861D01*
X140608087Y-98992933D01*
X140599164Y-98940225D01*
X140589445Y-98888780D01*
X140578937Y-98838643D01*
X140567646Y-98789856D01*
X140555579Y-98742463D01*
X140546453Y-98709364D01*
X140541235Y-98691479D01*
X140535402Y-98672280D01*
X140529023Y-98651963D01*
X140522163Y-98630722D01*
X140514889Y-98608754D01*
X140507267Y-98586254D01*
X140499364Y-98563417D01*
X140491246Y-98540438D01*
X140482980Y-98517514D01*
X140474632Y-98494840D01*
X140466269Y-98472611D01*
X140463052Y-98464192D01*
X140447279Y-98424241D01*
X140431247Y-98385895D01*
X140414933Y-98349118D01*
X140398315Y-98313875D01*
X140381368Y-98280132D01*
X140364070Y-98247855D01*
X140346399Y-98217007D01*
X140328331Y-98187555D01*
X140309843Y-98159464D01*
X140290913Y-98132699D01*
X140271517Y-98107226D01*
X140251633Y-98083009D01*
X140231238Y-98060014D01*
X140210308Y-98038207D01*
X140188821Y-98017552D01*
X140166754Y-97998014D01*
X140144084Y-97979560D01*
X140141975Y-97977921D01*
X140116907Y-97959542D01*
X140090588Y-97942232D01*
X140063041Y-97926002D01*
X140034286Y-97910861D01*
X140004345Y-97896820D01*
X139973241Y-97883889D01*
X139940994Y-97872079D01*
X139907627Y-97861398D01*
X139873161Y-97851858D01*
X139871278Y-97851378D01*
X139835262Y-97842959D01*
X139799344Y-97836035D01*
X139763298Y-97830575D01*
X139726899Y-97826549D01*
X139689924Y-97823925D01*
X139663709Y-97822910D01*
X139623445Y-97822677D01*
X139583470Y-97824074D01*
X139543781Y-97827102D01*
X139504379Y-97831760D01*
X139465262Y-97838049D01*
X139426428Y-97845968D01*
X139387877Y-97855519D01*
X139384800Y-97856355D01*
X139348114Y-97867220D01*
X139312130Y-97879556D01*
X139276884Y-97893343D01*
X139242409Y-97908564D01*
X139208742Y-97925200D01*
X139175918Y-97943232D01*
X139143973Y-97962644D01*
X139112941Y-97983415D01*
X139082859Y-98005528D01*
X139056665Y-98026529D01*
X139037456Y-98043110D01*
X139018022Y-98060927D01*
X138998688Y-98079656D01*
X138979777Y-98098970D01*
X138961613Y-98118546D01*
X138944522Y-98138056D01*
X138939126Y-98144480D01*
X138914574Y-98175312D01*
X138891103Y-98207367D01*
X138868734Y-98240598D01*
X138847485Y-98274957D01*
X138827376Y-98310398D01*
X138808426Y-98346873D01*
X138790654Y-98384337D01*
X138774081Y-98422740D01*
X138758724Y-98462037D01*
X138744605Y-98502181D01*
X138731741Y-98543124D01*
X138720153Y-98584819D01*
X138709860Y-98627220D01*
X138700881Y-98670278D01*
X138693235Y-98713948D01*
X138687140Y-98756618D01*
X138685480Y-98770178D01*
X138683910Y-98784064D01*
X138682429Y-98798339D01*
X138681034Y-98813065D01*
X138679722Y-98828305D01*
X138678491Y-98844122D01*
X138677338Y-98860576D01*
X138676260Y-98877732D01*
X138675256Y-98895652D01*
X138674323Y-98914397D01*
X138673457Y-98934031D01*
X138672657Y-98954615D01*
X138671920Y-98976213D01*
X138671244Y-98998886D01*
X138670625Y-99022697D01*
X138670062Y-99047708D01*
X138669551Y-99073983D01*
X138669091Y-99101583D01*
X138668679Y-99130570D01*
X138668311Y-99161008D01*
X138667987Y-99192958D01*
X138667702Y-99226483D01*
X138667628Y-99236340D01*
X138667343Y-99271222D01*
X138667008Y-99304528D01*
X138666619Y-99336335D01*
X138666173Y-99366720D01*
X138665665Y-99395762D01*
X138665093Y-99423539D01*
X138664453Y-99450129D01*
X138663741Y-99475609D01*
X138662954Y-99500058D01*
X138662088Y-99523554D01*
X138661140Y-99546174D01*
X138660105Y-99567997D01*
X138658981Y-99589100D01*
X138657763Y-99609562D01*
X138656449Y-99629460D01*
X138655034Y-99648872D01*
X138653516Y-99667876D01*
X138651889Y-99686551D01*
X138650152Y-99704974D01*
X138648300Y-99723223D01*
X138646329Y-99741376D01*
X138644237Y-99759511D01*
X138643140Y-99768628D01*
X138636614Y-99817407D01*
X138629087Y-99864887D01*
X138620550Y-99911092D01*
X138610993Y-99956049D01*
X138600408Y-99999783D01*
X138588785Y-100042319D01*
X138576116Y-100083683D01*
X138562391Y-100123901D01*
X138547601Y-100162998D01*
X138531738Y-100201000D01*
X138514792Y-100237933D01*
X138496754Y-100273821D01*
X138477615Y-100308691D01*
X138457366Y-100342568D01*
X138435998Y-100375477D01*
X138420409Y-100397897D01*
X138411123Y-100410559D01*
X138400641Y-100424248D01*
X138389013Y-100438905D01*
X138376291Y-100454469D01*
X138362529Y-100470883D01*
X138347778Y-100488085D01*
X138332089Y-100506016D01*
X138315515Y-100524618D01*
X138298107Y-100543829D01*
X138279919Y-100563590D01*
X138261000Y-100583843D01*
X138241404Y-100604527D01*
X138229192Y-100617277D01*
X138224215Y-100622520D01*
X138220383Y-100626710D01*
X138217710Y-100629829D01*
X138216215Y-100631856D01*
X138215909Y-100632767D01*
X138167571Y-100632767D01*
X138167471Y-100632355D01*
X138167311Y-100629166D01*
G37*
G36*
X139271448Y-98702574D02*
G01*
X139286946Y-98704337D01*
X139302250Y-98707688D01*
X139309602Y-98709902D01*
X139316192Y-98712349D01*
X139323535Y-98715544D01*
X139331137Y-98719238D01*
X139338501Y-98723181D01*
X139345133Y-98727123D01*
X139349309Y-98729915D01*
X139354743Y-98734098D01*
X139360684Y-98739186D01*
X139366731Y-98744797D01*
X139372478Y-98750545D01*
X139377523Y-98756046D01*
X139380423Y-98759548D01*
X139389509Y-98772482D01*
X139397125Y-98786104D01*
X139403252Y-98800308D01*
X139407871Y-98814985D01*
X139410966Y-98830029D01*
X139412517Y-98845334D01*
X139412506Y-98860791D01*
X139410915Y-98876293D01*
X139407726Y-98891735D01*
X139404717Y-98901900D01*
X139399044Y-98916387D01*
X139391983Y-98930038D01*
X139383616Y-98942782D01*
X139374026Y-98954547D01*
X139363293Y-98965262D01*
X139351500Y-98974853D01*
X139338728Y-98983249D01*
X139325059Y-98990378D01*
X139310575Y-98996167D01*
X139295358Y-99000546D01*
X139291831Y-99001331D01*
X139287843Y-99002118D01*
X139284144Y-99002701D01*
X139280332Y-99003119D01*
X139276006Y-99003406D01*
X139270766Y-99003598D01*
X139265313Y-99003714D01*
X139260079Y-99003784D01*
X139255267Y-99003811D01*
X139251179Y-99003798D01*
X139248114Y-99003746D01*
X139246371Y-99003655D01*
X139246273Y-99003642D01*
X139237761Y-99002335D01*
X139230499Y-99000997D01*
X139224082Y-98999546D01*
X139218107Y-98997899D01*
X139217909Y-98997840D01*
X139203053Y-98992503D01*
X139189031Y-98985775D01*
X139175915Y-98977736D01*
X139163779Y-98968463D01*
X139152692Y-98958037D01*
X139142729Y-98946536D01*
X139133960Y-98934038D01*
X139126458Y-98920624D01*
X139120295Y-98906371D01*
X139115543Y-98891359D01*
X139113750Y-98883746D01*
X139112558Y-98876606D01*
X139111681Y-98868368D01*
X139111144Y-98859561D01*
X139110968Y-98850716D01*
X139111174Y-98842363D01*
X139111735Y-98835456D01*
X139114370Y-98820005D01*
X139118529Y-98805073D01*
X139124142Y-98790760D01*
X139131142Y-98777163D01*
X139139457Y-98764379D01*
X139149019Y-98752506D01*
X139159757Y-98741643D01*
X139171603Y-98731885D01*
X139184487Y-98723333D01*
X139195776Y-98717287D01*
X139210218Y-98711237D01*
X139225141Y-98706731D01*
X139240410Y-98703780D01*
X139255891Y-98702391D01*
X139271448Y-98702574D01*
G37*
G36*
X140057845Y-98696002D02*
G01*
X140072801Y-98697589D01*
X140087520Y-98700635D01*
X140101882Y-98705121D01*
X140115769Y-98711026D01*
X140129062Y-98718329D01*
X140141644Y-98727011D01*
X140153395Y-98737052D01*
X140156602Y-98740186D01*
X140166969Y-98751768D01*
X140175966Y-98764192D01*
X140183577Y-98777340D01*
X140189783Y-98791098D01*
X140194566Y-98805349D01*
X140197909Y-98819979D01*
X140199793Y-98834870D01*
X140200201Y-98849908D01*
X140199114Y-98864976D01*
X140196516Y-98879958D01*
X140192388Y-98894740D01*
X140186711Y-98909205D01*
X140183666Y-98915544D01*
X140179103Y-98923995D01*
X140174430Y-98931509D01*
X140169329Y-98938521D01*
X140163481Y-98945464D01*
X140156567Y-98952771D01*
X140155660Y-98953684D01*
X140144356Y-98964030D01*
X140132544Y-98972878D01*
X140120016Y-98980359D01*
X140106565Y-98986605D01*
X140098572Y-98989604D01*
X140090819Y-98992104D01*
X140083555Y-98994010D01*
X140076336Y-98995395D01*
X140068721Y-98996331D01*
X140060266Y-98996890D01*
X140052570Y-98997114D01*
X140046970Y-98997169D01*
X140041566Y-98997147D01*
X140036712Y-98997057D01*
X140032760Y-98996905D01*
X140030061Y-98996697D01*
X140029805Y-98996664D01*
X140021104Y-98995179D01*
X140012018Y-98993133D01*
X140003374Y-98990721D01*
X139999719Y-98989525D01*
X139985269Y-98983670D01*
X139971692Y-98976466D01*
X139959054Y-98968010D01*
X139947420Y-98958399D01*
X139936856Y-98947730D01*
X139927428Y-98936097D01*
X139919202Y-98923600D01*
X139912242Y-98910333D01*
X139906615Y-98896393D01*
X139902387Y-98881877D01*
X139899622Y-98866882D01*
X139898388Y-98851504D01*
X139898465Y-98840642D01*
X139899945Y-98824786D01*
X139902959Y-98809428D01*
X139907452Y-98794654D01*
X139913368Y-98780550D01*
X139920649Y-98767203D01*
X139929240Y-98754699D01*
X139939082Y-98743124D01*
X139950121Y-98732564D01*
X139962299Y-98723107D01*
X139975560Y-98714838D01*
X139983635Y-98710664D01*
X139998006Y-98704651D01*
X140012730Y-98700198D01*
X140027691Y-98697286D01*
X140042768Y-98695894D01*
X140057845Y-98696002D01*
G37*
D11*
X159727500Y-86657776D02*
X159727500Y-87167224D01*
X160772500Y-86657776D02*
X160772500Y-87167224D01*
X169167224Y-86022500D02*
X168657776Y-86022500D01*
X169167224Y-84977500D02*
X168657776Y-84977500D01*
X173160000Y-83940000D02*
X171040000Y-83940000D01*
X171040000Y-90000000D02*
X171040000Y-83940000D01*
X173160000Y-90000000D02*
X173160000Y-83940000D01*
X173160000Y-90000000D02*
X171040000Y-90000000D01*
X173160000Y-91000000D02*
X173160000Y-92060000D01*
X173160000Y-92060000D02*
X172100000Y-92060000D01*
D12*
X157000000Y-107000000D02*
X157000000Y-93000000D01*
X157000000Y-107000000D02*
X143000000Y-107000000D01*
X157000000Y-93000000D02*
X143000000Y-93000000D01*
X143000000Y-107000000D02*
X143000000Y-93000000D01*
%LPC*%
D13*
X160250000Y-86000000D03*
X160250000Y-87825000D03*
D14*
X149200000Y-85525000D03*
D15*
X169825000Y-85500000D03*
X168000000Y-85500000D03*
D16*
X164850000Y-90000000D03*
D17*
X172100000Y-91000000D03*
D18*
X172100000Y-89000000D03*
X172100000Y-87000000D03*
X172100000Y-85000000D03*
D19*
X150000000Y-105225000D03*
D20*
X143250000Y-105650000D03*
D21*
X144070000Y-94520000D03*
D22*
X150000000Y-97250000D03*
X150000000Y-102750000D03*
D20*
X156750000Y-94350000D03*
D21*
X155930000Y-105480000D03*
D19*
X150000000Y-94775000D03*
D23*
X148730000Y-110600000D03*
D24*
X150000000Y-110600000D03*
X151270000Y-110600000D03*
D25*
X160600000Y-101270000D03*
X160600000Y-100000000D03*
X160600000Y-98730000D03*
M02*
