%TF.GenerationSoftware,KiCad,Pcbnew,(6.0.1)*%
%TF.CreationDate,2022-03-21T17:48:04-07:00*%
%TF.ProjectId,CStick,43537469-636b-42e6-9b69-6361645f7063,rev?*%
%TF.SameCoordinates,Original*%
%TF.FileFunction,Copper,L1,Top*%
%TF.FilePolarity,Positive*%
%FSLAX46Y46*%
G04 Gerber Fmt 4.6, Leading zero omitted, Abs format (unit mm)*
G04 Created by KiCad (PCBNEW (6.0.1)) date 2022-03-21 17:48:04*
%MOMM*%
%LPD*%
G01*
G04 APERTURE LIST*
G04 Aperture macros list*
%AMRoundRect*
0 Rectangle with rounded corners*
0 $1 Rounding radius*
0 $2 $3 $4 $5 $6 $7 $8 $9 X,Y pos of 4 corners*
0 Add a 4 corners polygon primitive as box body*
4,1,4,$2,$3,$4,$5,$6,$7,$8,$9,$2,$3,0*
0 Add four circle primitives for the rounded corners*
1,1,$1+$1,$2,$3*
1,1,$1+$1,$4,$5*
1,1,$1+$1,$6,$7*
1,1,$1+$1,$8,$9*
0 Add four rect primitives between the rounded corners*
20,1,$1+$1,$2,$3,$4,$5,0*
20,1,$1+$1,$4,$5,$6,$7,0*
20,1,$1+$1,$6,$7,$8,$9,0*
20,1,$1+$1,$8,$9,$2,$3,0*%
%AMHorizOval*
0 Thick line with rounded ends*
0 $1 width*
0 $2 $3 position (X,Y) of the first rounded end (center of the circle)*
0 $4 $5 position (X,Y) of the second rounded end (center of the circle)*
0 Add line between two ends*
20,1,$1,$2,$3,$4,$5,0*
0 Add two circle primitives to create the rounded ends*
1,1,$1,$2,$3*
1,1,$1,$4,$5*%
G04 Aperture macros list end*
%TA.AperFunction,SMDPad,CuDef*%
%ADD10RoundRect,0.237500X-0.237500X0.250000X-0.237500X-0.250000X0.237500X-0.250000X0.237500X0.250000X0*%
%TD*%
%TA.AperFunction,SMDPad,CuDef*%
%ADD11RoundRect,0.237500X0.250000X0.237500X-0.250000X0.237500X-0.250000X-0.237500X0.250000X-0.237500X0*%
%TD*%
%TA.AperFunction,ComponentPad*%
%ADD12R,1.350000X1.350000*%
%TD*%
%TA.AperFunction,ComponentPad*%
%ADD13O,1.350000X1.350000*%
%TD*%
%TA.AperFunction,ComponentPad*%
%ADD14O,1.600000X2.600000*%
%TD*%
%TA.AperFunction,ComponentPad*%
%ADD15HorizOval,2.800000X-0.577898X0.161352X0.577898X-0.161352X0*%
%TD*%
%TA.AperFunction,ComponentPad*%
%ADD16O,0.700000X2.000000*%
%TD*%
%TA.AperFunction,ComponentPad*%
%ADD17O,0.800000X2.000000*%
%TD*%
%TA.AperFunction,ComponentPad*%
%ADD18O,2.000000X0.800000*%
%TD*%
%TA.AperFunction,Conductor*%
%ADD19C,0.250000*%
%TD*%
G04 APERTURE END LIST*
D10*
X160250000Y-86000000D03*
X160250000Y-87825000D03*
D11*
X169825000Y-85500000D03*
X168000000Y-85500000D03*
D12*
X172100000Y-91000000D03*
D13*
X172100000Y-89000000D03*
X172100000Y-87000000D03*
X172100000Y-85000000D03*
D14*
X143250000Y-105650000D03*
D15*
X144070000Y-94520000D03*
D14*
X156750000Y-94350000D03*
D15*
X155930000Y-105480000D03*
D16*
X148730000Y-110600000D03*
D17*
X150000000Y-110600000D03*
X151270000Y-110600000D03*
D18*
X160600000Y-101270000D03*
X160600000Y-100000000D03*
X160600000Y-98730000D03*
D19*
X170000000Y-89000000D02*
X166750000Y-85750000D01*
X172100000Y-89000000D02*
X170000000Y-89000000D01*
X166750000Y-85750000D02*
X160500000Y-85750000D01*
X160500000Y-85750000D02*
X160250000Y-86000000D01*
X170600000Y-85500000D02*
X169825000Y-85500000D01*
X172100000Y-87000000D02*
X170600000Y-85500000D01*
X160250000Y-96000000D02*
X162500000Y-98250000D01*
X162500000Y-98250000D02*
X162500000Y-102269911D01*
X160250000Y-87825000D02*
X160250000Y-96000000D01*
X154169911Y-110600000D02*
X151270000Y-110600000D01*
X162500000Y-102269911D02*
X154169911Y-110600000D01*
X159000000Y-97130000D02*
X160600000Y-98730000D01*
X167500000Y-85000000D02*
X159733842Y-85000000D01*
X159000000Y-85733842D02*
X159000000Y-97130000D01*
X159733842Y-85000000D02*
X159000000Y-85733842D01*
X168000000Y-85500000D02*
X167500000Y-85000000D01*
%TA.AperFunction,Conductor*%
G36*
X173405510Y-83528002D02*
G01*
X173426485Y-83544905D01*
X174055096Y-84173517D01*
X174089121Y-84235829D01*
X174092000Y-84262612D01*
X174092000Y-92837388D01*
X174071998Y-92905509D01*
X174055096Y-92926483D01*
X173426485Y-93555095D01*
X173364172Y-93589120D01*
X173337389Y-93592000D01*
X170453207Y-93592000D01*
X170432303Y-93590254D01*
X170425562Y-93589120D01*
X170412539Y-93586929D01*
X170406373Y-93586854D01*
X170404865Y-93586835D01*
X170404860Y-93586835D01*
X170400000Y-93586776D01*
X170393794Y-93587665D01*
X170380297Y-93588861D01*
X169956790Y-93603516D01*
X169741601Y-93625927D01*
X169517885Y-93649225D01*
X169517872Y-93649227D01*
X169515700Y-93649453D01*
X169513545Y-93649829D01*
X169513534Y-93649831D01*
X169080979Y-93725395D01*
X169080970Y-93725397D01*
X169078840Y-93725769D01*
X169076746Y-93726286D01*
X169076742Y-93726287D01*
X168917388Y-93765643D01*
X168648300Y-93832100D01*
X168226141Y-93967937D01*
X168224134Y-93968740D01*
X168224125Y-93968743D01*
X168002714Y-94057302D01*
X167814380Y-94132631D01*
X167414989Y-94325394D01*
X167029878Y-94545303D01*
X167028069Y-94546509D01*
X167028061Y-94546514D01*
X166662703Y-94790096D01*
X166662691Y-94790105D01*
X166660889Y-94791306D01*
X166309787Y-95062227D01*
X166308162Y-95063671D01*
X166308158Y-95063674D01*
X166046445Y-95296185D01*
X165982234Y-95326475D01*
X165911841Y-95317242D01*
X165892930Y-95306868D01*
X165670961Y-95159047D01*
X165654534Y-95146010D01*
X165643473Y-95135619D01*
X165643472Y-95135618D01*
X165639925Y-95132286D01*
X165635913Y-95129543D01*
X165635907Y-95129538D01*
X165634383Y-95128496D01*
X165629573Y-95125208D01*
X165625179Y-95123111D01*
X165625174Y-95123108D01*
X165620900Y-95121068D01*
X165613781Y-95117388D01*
X165439876Y-95020350D01*
X165439872Y-95020348D01*
X165435558Y-95017941D01*
X165430912Y-95016235D01*
X165232168Y-94943262D01*
X165232163Y-94943261D01*
X165227515Y-94941554D01*
X165222659Y-94940596D01*
X165222656Y-94940595D01*
X165014940Y-94899610D01*
X165014936Y-94899609D01*
X165010083Y-94898652D01*
X165005134Y-94898465D01*
X165005132Y-94898465D01*
X164943889Y-94896154D01*
X164788617Y-94890293D01*
X164568569Y-94916682D01*
X164355359Y-94977168D01*
X164350884Y-94979240D01*
X164350877Y-94979242D01*
X164158730Y-95068183D01*
X164158727Y-95068185D01*
X164154237Y-95070263D01*
X164150121Y-95073023D01*
X164150120Y-95073023D01*
X164036010Y-95149524D01*
X163970153Y-95193675D01*
X163807642Y-95344364D01*
X163670704Y-95518620D01*
X163562712Y-95712153D01*
X163561006Y-95716801D01*
X163561004Y-95716804D01*
X163488914Y-95913147D01*
X163486325Y-95920197D01*
X163485368Y-95925049D01*
X163485366Y-95925055D01*
X163471190Y-95996903D01*
X163443424Y-96137628D01*
X163443237Y-96142579D01*
X163443237Y-96142580D01*
X163442447Y-96163498D01*
X163435064Y-96359095D01*
X163461452Y-96579142D01*
X163521938Y-96792352D01*
X163524017Y-96796843D01*
X163524019Y-96796849D01*
X163545005Y-96842187D01*
X163615033Y-96993475D01*
X163617789Y-96997585D01*
X163617789Y-96997586D01*
X163671590Y-97077836D01*
X163738445Y-97177558D01*
X163741809Y-97181186D01*
X163859250Y-97307841D01*
X163889134Y-97340070D01*
X163944518Y-97383593D01*
X164034125Y-97454010D01*
X164042534Y-97461238D01*
X164052556Y-97470654D01*
X164056569Y-97473398D01*
X164056573Y-97473401D01*
X164058883Y-97474980D01*
X164062908Y-97477732D01*
X164067306Y-97479831D01*
X164067308Y-97479832D01*
X164088064Y-97489737D01*
X164103637Y-97498579D01*
X164331445Y-97650288D01*
X164377056Y-97704694D01*
X164386013Y-97775123D01*
X164380977Y-97795485D01*
X164273474Y-98113722D01*
X164254794Y-98169018D01*
X164138453Y-98618304D01*
X164138045Y-98620535D01*
X164138043Y-98620543D01*
X164112810Y-98758436D01*
X164054914Y-99074828D01*
X164025868Y-99341253D01*
X164016525Y-99426958D01*
X164004615Y-99536199D01*
X164003081Y-99578571D01*
X163988941Y-99969042D01*
X163988050Y-99977799D01*
X163988171Y-99977810D01*
X163987735Y-99982670D01*
X163986929Y-99987461D01*
X163986856Y-99993462D01*
X163986814Y-99993730D01*
X163986849Y-99993999D01*
X163986776Y-100000000D01*
X163987465Y-100004814D01*
X163987466Y-100004823D01*
X163989676Y-100020257D01*
X163990904Y-100041446D01*
X163972546Y-100735917D01*
X163972194Y-100742567D01*
X163914149Y-101473110D01*
X163913446Y-101479732D01*
X163816889Y-102206166D01*
X163815838Y-102212742D01*
X163681029Y-102933098D01*
X163679631Y-102939609D01*
X163506960Y-103651798D01*
X163505221Y-103658226D01*
X163295154Y-104360330D01*
X163293077Y-104366657D01*
X163222567Y-104563743D01*
X163058797Y-105021502D01*
X163046219Y-105056658D01*
X163043814Y-105062859D01*
X162790114Y-105668933D01*
X162760832Y-105738885D01*
X162758105Y-105744944D01*
X162523641Y-106231198D01*
X162439808Y-106405060D01*
X162436758Y-106410980D01*
X162084038Y-107053341D01*
X162080680Y-107059092D01*
X161694500Y-107681946D01*
X161690842Y-107687511D01*
X161272311Y-108289066D01*
X161268365Y-108294430D01*
X160818627Y-108873044D01*
X160814403Y-108878192D01*
X160334719Y-109432242D01*
X160330228Y-109437159D01*
X159821945Y-109965089D01*
X159817201Y-109969763D01*
X159281741Y-110470095D01*
X159276757Y-110474511D01*
X158715617Y-110945850D01*
X158710407Y-110949997D01*
X158125128Y-111391044D01*
X158119706Y-111394910D01*
X157511931Y-111804429D01*
X157506349Y-111807978D01*
X156877797Y-112184807D01*
X156872004Y-112188075D01*
X156224425Y-112531167D01*
X156218465Y-112534125D01*
X155553680Y-112842517D01*
X155547568Y-112845159D01*
X154867398Y-113118005D01*
X154861159Y-113120318D01*
X154167515Y-113356850D01*
X154161190Y-113358822D01*
X153637193Y-113507106D01*
X153456022Y-113558375D01*
X153449569Y-113560018D01*
X153166393Y-113624210D01*
X152734854Y-113722033D01*
X152728335Y-113723330D01*
X152116486Y-113828397D01*
X152006077Y-113847356D01*
X151999486Y-113848310D01*
X151271646Y-113934006D01*
X151265017Y-113934609D01*
X151041983Y-113948980D01*
X150533714Y-113981729D01*
X150527059Y-113981982D01*
X150175462Y-113986021D01*
X149794240Y-113990400D01*
X149787593Y-113990300D01*
X149055382Y-113959990D01*
X149048746Y-113959539D01*
X148319127Y-113890583D01*
X148312548Y-113889785D01*
X147906511Y-113829627D01*
X147587625Y-113782381D01*
X147581066Y-113781232D01*
X147018451Y-113667217D01*
X146862796Y-113635673D01*
X146856320Y-113634181D01*
X146146782Y-113450886D01*
X146140382Y-113449051D01*
X145924208Y-113380837D01*
X145441494Y-113228516D01*
X145435203Y-113226346D01*
X145146073Y-113118005D01*
X144748949Y-112969197D01*
X144742782Y-112966698D01*
X144071082Y-112673655D01*
X144065057Y-112670835D01*
X143958680Y-112617568D01*
X143926272Y-112601340D01*
X143409777Y-112342713D01*
X143403903Y-112339575D01*
X142766865Y-111977285D01*
X142761166Y-111973841D01*
X142144166Y-111578406D01*
X142138665Y-111574672D01*
X141746664Y-111293152D01*
X147872000Y-111293152D01*
X147872369Y-111299966D01*
X147886337Y-111428544D01*
X147889251Y-111441797D01*
X147944357Y-111605542D01*
X147950050Y-111617864D01*
X148039032Y-111765953D01*
X148047240Y-111776767D01*
X148165945Y-111902294D01*
X148176276Y-111911086D01*
X148319175Y-112008201D01*
X148331155Y-112014570D01*
X148459179Y-112065776D01*
X148473219Y-112067112D01*
X148476000Y-112062291D01*
X148476000Y-112051887D01*
X148984000Y-112051887D01*
X148987973Y-112065418D01*
X148996297Y-112066615D01*
X149041138Y-112054263D01*
X149053747Y-112049271D01*
X149206574Y-111968693D01*
X149217832Y-111961100D01*
X149273710Y-111913880D01*
X149338651Y-111885189D01*
X149408794Y-111896162D01*
X149429098Y-111908183D01*
X149524209Y-111977285D01*
X149543248Y-111991118D01*
X149549276Y-111993802D01*
X149549278Y-111993803D01*
X149703106Y-112062291D01*
X149717712Y-112068794D01*
X149811113Y-112088647D01*
X149898056Y-112107128D01*
X149898061Y-112107128D01*
X149904513Y-112108500D01*
X150095487Y-112108500D01*
X150101939Y-112107128D01*
X150101944Y-112107128D01*
X150188887Y-112088647D01*
X150282288Y-112068794D01*
X150296894Y-112062291D01*
X150450722Y-111993803D01*
X150450724Y-111993802D01*
X150456752Y-111991118D01*
X150475792Y-111977285D01*
X150538312Y-111931861D01*
X150560940Y-111915421D01*
X150627806Y-111891563D01*
X150696958Y-111907643D01*
X150709056Y-111915418D01*
X150731688Y-111931861D01*
X150794209Y-111977285D01*
X150813248Y-111991118D01*
X150819276Y-111993802D01*
X150819278Y-111993803D01*
X150973106Y-112062291D01*
X150987712Y-112068794D01*
X151081113Y-112088647D01*
X151168056Y-112107128D01*
X151168061Y-112107128D01*
X151174513Y-112108500D01*
X151365487Y-112108500D01*
X151371939Y-112107128D01*
X151371944Y-112107128D01*
X151458887Y-112088647D01*
X151552288Y-112068794D01*
X151566894Y-112062291D01*
X151720722Y-111993803D01*
X151720724Y-111993802D01*
X151726752Y-111991118D01*
X151745792Y-111977285D01*
X151808312Y-111931861D01*
X151881253Y-111878866D01*
X151905000Y-111852492D01*
X152004621Y-111741852D01*
X152004622Y-111741851D01*
X152009040Y-111736944D01*
X152104527Y-111571556D01*
X152163542Y-111389928D01*
X152168124Y-111346329D01*
X152195137Y-111280673D01*
X152253358Y-111240043D01*
X152293434Y-111233500D01*
X154091144Y-111233500D01*
X154102327Y-111234027D01*
X154109820Y-111235702D01*
X154117746Y-111235453D01*
X154117747Y-111235453D01*
X154177897Y-111233562D01*
X154181856Y-111233500D01*
X154209767Y-111233500D01*
X154213702Y-111233003D01*
X154213767Y-111232995D01*
X154225604Y-111232062D01*
X154257862Y-111231048D01*
X154261881Y-111230922D01*
X154269800Y-111230673D01*
X154289254Y-111225021D01*
X154308611Y-111221013D01*
X154320841Y-111219468D01*
X154320842Y-111219468D01*
X154328708Y-111218474D01*
X154336079Y-111215555D01*
X154336081Y-111215555D01*
X154369823Y-111202196D01*
X154381053Y-111198351D01*
X154415894Y-111188229D01*
X154415895Y-111188229D01*
X154423504Y-111186018D01*
X154430323Y-111181985D01*
X154430328Y-111181983D01*
X154440939Y-111175707D01*
X154458687Y-111167012D01*
X154477528Y-111159552D01*
X154497218Y-111145247D01*
X154513298Y-111133564D01*
X154523218Y-111127048D01*
X154554446Y-111108580D01*
X154554449Y-111108578D01*
X154561273Y-111104542D01*
X154575594Y-111090221D01*
X154590628Y-111077380D01*
X154600605Y-111070131D01*
X154607018Y-111065472D01*
X154635209Y-111031395D01*
X154643199Y-111022616D01*
X162892253Y-102773563D01*
X162900539Y-102766023D01*
X162907018Y-102761911D01*
X162953644Y-102712259D01*
X162956398Y-102709418D01*
X162976135Y-102689681D01*
X162978615Y-102686484D01*
X162986320Y-102677462D01*
X163011159Y-102651011D01*
X163016586Y-102645232D01*
X163020405Y-102638286D01*
X163020407Y-102638283D01*
X163026348Y-102627477D01*
X163037199Y-102610958D01*
X163044758Y-102601212D01*
X163049614Y-102594952D01*
X163052759Y-102587683D01*
X163052762Y-102587679D01*
X163067174Y-102554374D01*
X163072391Y-102543724D01*
X163093695Y-102504971D01*
X163098733Y-102485348D01*
X163105137Y-102466645D01*
X163110033Y-102455331D01*
X163110033Y-102455330D01*
X163113181Y-102448056D01*
X163114420Y-102440233D01*
X163114423Y-102440223D01*
X163120099Y-102404387D01*
X163122505Y-102392767D01*
X163131528Y-102357622D01*
X163131528Y-102357621D01*
X163133500Y-102349941D01*
X163133500Y-102329687D01*
X163135051Y-102309976D01*
X163136980Y-102297797D01*
X163138220Y-102289968D01*
X163134059Y-102245949D01*
X163133500Y-102234092D01*
X163133500Y-98328768D01*
X163134027Y-98317585D01*
X163135702Y-98310092D01*
X163133742Y-98247713D01*
X163133562Y-98242002D01*
X163133500Y-98238044D01*
X163133500Y-98210144D01*
X163132996Y-98206153D01*
X163132063Y-98194311D01*
X163131338Y-98171220D01*
X163130674Y-98150111D01*
X163125021Y-98130652D01*
X163121012Y-98111293D01*
X163120240Y-98105184D01*
X163118474Y-98091203D01*
X163115558Y-98083837D01*
X163115556Y-98083831D01*
X163102200Y-98050098D01*
X163098355Y-98038868D01*
X163088230Y-98004017D01*
X163088230Y-98004016D01*
X163086019Y-97996407D01*
X163075705Y-97978966D01*
X163067008Y-97961213D01*
X163062472Y-97949758D01*
X163059552Y-97942383D01*
X163033563Y-97906612D01*
X163027047Y-97896692D01*
X163008578Y-97865463D01*
X163004542Y-97858638D01*
X162990221Y-97844317D01*
X162977380Y-97829283D01*
X162970131Y-97819306D01*
X162965472Y-97812893D01*
X162931395Y-97784702D01*
X162922616Y-97776712D01*
X160920405Y-95774500D01*
X160886379Y-95712188D01*
X160883500Y-95685405D01*
X160883500Y-90054339D01*
X161736896Y-90054339D01*
X161763059Y-90406403D01*
X161828909Y-90753243D01*
X161829967Y-90756652D01*
X161829969Y-90756658D01*
X161845798Y-90807635D01*
X161933598Y-91090398D01*
X161935039Y-91093672D01*
X161935039Y-91093673D01*
X162060058Y-91377799D01*
X162075782Y-91413535D01*
X162253631Y-91718499D01*
X162255767Y-91721359D01*
X162255768Y-91721361D01*
X162259595Y-91726486D01*
X162464861Y-92001369D01*
X162467305Y-92003967D01*
X162467310Y-92003973D01*
X162492475Y-92030724D01*
X162706754Y-92258510D01*
X162709483Y-92260820D01*
X162945419Y-92460554D01*
X162976202Y-92486614D01*
X162979166Y-92488594D01*
X162979168Y-92488596D01*
X163201644Y-92637250D01*
X163269740Y-92682750D01*
X163272914Y-92684385D01*
X163272923Y-92684390D01*
X163580411Y-92842756D01*
X163580416Y-92842758D01*
X163583594Y-92844395D01*
X163586935Y-92845661D01*
X163586940Y-92845663D01*
X163702855Y-92889579D01*
X163913729Y-92969472D01*
X163917193Y-92970352D01*
X163917197Y-92970353D01*
X164252434Y-93055493D01*
X164252443Y-93055495D01*
X164255901Y-93056373D01*
X164427819Y-93079770D01*
X164602718Y-93103573D01*
X164602725Y-93103574D01*
X164605711Y-93103980D01*
X164720754Y-93108500D01*
X164939424Y-93108500D01*
X165081776Y-93100416D01*
X165198899Y-93093766D01*
X165198906Y-93093765D01*
X165202467Y-93093563D01*
X165550403Y-93033777D01*
X165553835Y-93032777D01*
X165553838Y-93032776D01*
X165885887Y-92935993D01*
X165885892Y-92935991D01*
X165889334Y-92934988D01*
X166214903Y-92798465D01*
X166498686Y-92639539D01*
X166519798Y-92627716D01*
X166519803Y-92627713D01*
X166522924Y-92625965D01*
X166525829Y-92623874D01*
X166525838Y-92623868D01*
X166806529Y-92421799D01*
X166809438Y-92419705D01*
X166861600Y-92372325D01*
X167068120Y-92184735D01*
X167068121Y-92184734D01*
X167070761Y-92182336D01*
X167303533Y-91916910D01*
X167440364Y-91719669D01*
X170917001Y-91719669D01*
X170917371Y-91726490D01*
X170922895Y-91777352D01*
X170926521Y-91792604D01*
X170971676Y-91913054D01*
X170980214Y-91928649D01*
X171056715Y-92030724D01*
X171069276Y-92043285D01*
X171171351Y-92119786D01*
X171186946Y-92128324D01*
X171307394Y-92173478D01*
X171322649Y-92177105D01*
X171373514Y-92182631D01*
X171380328Y-92183000D01*
X171827885Y-92183000D01*
X171843124Y-92178525D01*
X171844329Y-92177135D01*
X171846000Y-92169452D01*
X171846000Y-92164884D01*
X172354000Y-92164884D01*
X172358475Y-92180123D01*
X172359865Y-92181328D01*
X172367548Y-92182999D01*
X172819669Y-92182999D01*
X172826490Y-92182629D01*
X172877352Y-92177105D01*
X172892604Y-92173479D01*
X173013054Y-92128324D01*
X173028649Y-92119786D01*
X173130724Y-92043285D01*
X173143285Y-92030724D01*
X173219786Y-91928649D01*
X173228324Y-91913054D01*
X173273478Y-91792606D01*
X173277105Y-91777351D01*
X173282631Y-91726486D01*
X173283000Y-91719672D01*
X173283000Y-91272115D01*
X173278525Y-91256876D01*
X173277135Y-91255671D01*
X173269452Y-91254000D01*
X172372115Y-91254000D01*
X172356876Y-91258475D01*
X172355671Y-91259865D01*
X172354000Y-91267548D01*
X172354000Y-92164884D01*
X171846000Y-92164884D01*
X171846000Y-91272115D01*
X171841525Y-91256876D01*
X171840135Y-91255671D01*
X171832452Y-91254000D01*
X170935116Y-91254000D01*
X170919877Y-91258475D01*
X170918672Y-91259865D01*
X170917001Y-91267548D01*
X170917001Y-91719669D01*
X167440364Y-91719669D01*
X167504762Y-91626840D01*
X167671860Y-91315855D01*
X167802680Y-90987953D01*
X167895539Y-90647349D01*
X167932624Y-90406403D01*
X167948702Y-90301946D01*
X167948702Y-90301942D01*
X167949244Y-90298423D01*
X167957553Y-90086946D01*
X167962964Y-89949231D01*
X167962964Y-89949226D01*
X167963104Y-89945661D01*
X167942858Y-89673213D01*
X167937206Y-89597159D01*
X167937205Y-89597154D01*
X167936941Y-89593597D01*
X167871091Y-89246757D01*
X167766402Y-88909602D01*
X167717557Y-88798594D01*
X167625662Y-88589746D01*
X167625660Y-88589741D01*
X167624218Y-88586465D01*
X167446369Y-88281501D01*
X167235139Y-87998631D01*
X167232695Y-87996033D01*
X167232690Y-87996027D01*
X167062646Y-87815265D01*
X166993246Y-87741490D01*
X166819360Y-87594285D01*
X166726520Y-87515690D01*
X166726516Y-87515687D01*
X166723798Y-87513386D01*
X166599296Y-87430196D01*
X166433237Y-87319239D01*
X166433235Y-87319238D01*
X166430260Y-87317250D01*
X166427086Y-87315615D01*
X166427077Y-87315610D01*
X166119589Y-87157244D01*
X166119584Y-87157242D01*
X166116406Y-87155605D01*
X166113065Y-87154339D01*
X166113060Y-87154337D01*
X165879578Y-87065879D01*
X165786271Y-87030528D01*
X165782807Y-87029648D01*
X165782803Y-87029647D01*
X165447566Y-86944507D01*
X165447557Y-86944505D01*
X165444099Y-86943627D01*
X165261923Y-86918834D01*
X165097282Y-86896427D01*
X165097275Y-86896426D01*
X165094289Y-86896020D01*
X164979246Y-86891500D01*
X164760576Y-86891500D01*
X164618224Y-86899584D01*
X164501101Y-86906234D01*
X164501094Y-86906235D01*
X164497533Y-86906437D01*
X164149597Y-86966223D01*
X164146165Y-86967223D01*
X164146162Y-86967224D01*
X163814113Y-87064007D01*
X163814108Y-87064009D01*
X163810666Y-87065012D01*
X163485097Y-87201535D01*
X163339747Y-87282935D01*
X163180202Y-87372284D01*
X163180197Y-87372287D01*
X163177076Y-87374035D01*
X163174171Y-87376126D01*
X163174162Y-87376132D01*
X162945130Y-87541012D01*
X162890562Y-87580295D01*
X162887917Y-87582698D01*
X162887914Y-87582700D01*
X162715643Y-87739180D01*
X162629239Y-87817664D01*
X162396467Y-88083090D01*
X162195238Y-88373160D01*
X162028140Y-88684145D01*
X161897320Y-89012047D01*
X161804461Y-89352651D01*
X161803919Y-89356173D01*
X161753034Y-89686779D01*
X161750756Y-89701577D01*
X161750616Y-89705141D01*
X161740732Y-89956715D01*
X161736896Y-90054339D01*
X160883500Y-90054339D01*
X160883500Y-88777464D01*
X160903502Y-88709343D01*
X160943196Y-88670321D01*
X160954031Y-88663616D01*
X160959204Y-88658434D01*
X161071758Y-88545684D01*
X161071762Y-88545679D01*
X161076929Y-88540503D01*
X161168209Y-88392420D01*
X161222974Y-88227309D01*
X161225292Y-88204691D01*
X161233172Y-88127771D01*
X161233500Y-88124572D01*
X161233500Y-87525428D01*
X161222707Y-87421407D01*
X161206903Y-87374035D01*
X161176232Y-87282105D01*
X161167654Y-87256393D01*
X161076116Y-87108469D01*
X161070934Y-87103296D01*
X160969214Y-87001753D01*
X160935135Y-86939470D01*
X160940138Y-86868650D01*
X160969059Y-86823563D01*
X161071754Y-86720688D01*
X161071758Y-86720683D01*
X161076929Y-86715503D01*
X161091035Y-86692619D01*
X161164369Y-86573650D01*
X161164370Y-86573648D01*
X161168209Y-86567420D01*
X161200577Y-86469832D01*
X161241007Y-86411473D01*
X161306572Y-86384236D01*
X161320170Y-86383500D01*
X166435406Y-86383500D01*
X166503527Y-86403502D01*
X166524501Y-86420405D01*
X168015836Y-87911741D01*
X169496348Y-89392253D01*
X169503888Y-89400539D01*
X169508000Y-89407018D01*
X169513777Y-89412443D01*
X169557651Y-89453643D01*
X169560493Y-89456398D01*
X169580230Y-89476135D01*
X169583427Y-89478615D01*
X169592447Y-89486318D01*
X169624679Y-89516586D01*
X169631625Y-89520405D01*
X169631628Y-89520407D01*
X169642434Y-89526348D01*
X169658953Y-89537199D01*
X169674959Y-89549614D01*
X169682228Y-89552759D01*
X169682232Y-89552762D01*
X169715537Y-89567174D01*
X169726187Y-89572391D01*
X169764940Y-89593695D01*
X169772615Y-89595666D01*
X169772616Y-89595666D01*
X169784562Y-89598733D01*
X169803267Y-89605137D01*
X169821855Y-89613181D01*
X169829678Y-89614420D01*
X169829688Y-89614423D01*
X169865524Y-89620099D01*
X169877144Y-89622505D01*
X169912289Y-89631528D01*
X169919970Y-89633500D01*
X169940224Y-89633500D01*
X169959934Y-89635051D01*
X169979943Y-89638220D01*
X169987835Y-89637474D01*
X170023961Y-89634059D01*
X170035819Y-89633500D01*
X171033139Y-89633500D01*
X171101260Y-89653502D01*
X171136035Y-89686779D01*
X171166916Y-89730474D01*
X171189898Y-89797648D01*
X171172914Y-89866583D01*
X171139585Y-89904021D01*
X171069277Y-89956714D01*
X171056715Y-89969276D01*
X170980214Y-90071351D01*
X170971676Y-90086946D01*
X170926522Y-90207394D01*
X170922895Y-90222649D01*
X170917369Y-90273514D01*
X170917000Y-90280328D01*
X170917000Y-90727885D01*
X170921475Y-90743124D01*
X170922865Y-90744329D01*
X170930548Y-90746000D01*
X173264884Y-90746000D01*
X173280123Y-90741525D01*
X173281328Y-90740135D01*
X173282999Y-90732452D01*
X173282999Y-90280331D01*
X173282629Y-90273510D01*
X173277105Y-90222648D01*
X173273479Y-90207396D01*
X173228324Y-90086946D01*
X173219786Y-90071351D01*
X173143285Y-89969276D01*
X173130724Y-89956715D01*
X173060002Y-89903712D01*
X173017487Y-89846853D01*
X173012461Y-89776035D01*
X173038693Y-89722317D01*
X173075834Y-89677659D01*
X173079532Y-89673213D01*
X173185813Y-89483435D01*
X173187669Y-89477968D01*
X173187671Y-89477963D01*
X173253874Y-89282935D01*
X173253875Y-89282930D01*
X173255730Y-89277466D01*
X173286941Y-89062205D01*
X173288570Y-89000000D01*
X173268667Y-88783400D01*
X173209626Y-88574055D01*
X173113423Y-88378974D01*
X173109082Y-88373160D01*
X172986733Y-88209315D01*
X172986732Y-88209314D01*
X172983280Y-88204691D01*
X172861078Y-88091729D01*
X172824633Y-88030800D01*
X172826914Y-87959840D01*
X172866038Y-87902330D01*
X172936008Y-87844137D01*
X172940446Y-87840446D01*
X173079532Y-87673213D01*
X173185813Y-87483435D01*
X173187669Y-87477968D01*
X173187671Y-87477963D01*
X173253874Y-87282935D01*
X173253875Y-87282930D01*
X173255730Y-87277466D01*
X173286941Y-87062205D01*
X173288570Y-87000000D01*
X173268667Y-86783400D01*
X173262730Y-86762347D01*
X173224102Y-86625383D01*
X173209626Y-86574055D01*
X173132884Y-86418438D01*
X173115978Y-86384155D01*
X173113423Y-86378974D01*
X173077428Y-86330770D01*
X172986733Y-86209315D01*
X172986732Y-86209314D01*
X172983280Y-86204691D01*
X172970101Y-86192508D01*
X172861078Y-86091729D01*
X172824633Y-86030800D01*
X172826914Y-85959840D01*
X172866038Y-85902330D01*
X172936008Y-85844137D01*
X172940446Y-85840446D01*
X173079532Y-85673213D01*
X173166229Y-85518404D01*
X173182989Y-85488478D01*
X173182990Y-85488476D01*
X173185813Y-85483435D01*
X173187669Y-85477968D01*
X173187671Y-85477963D01*
X173253874Y-85282935D01*
X173253875Y-85282930D01*
X173255730Y-85277466D01*
X173286941Y-85062205D01*
X173288570Y-85000000D01*
X173268667Y-84783400D01*
X173209626Y-84574055D01*
X173116679Y-84385577D01*
X173115978Y-84384155D01*
X173113423Y-84378974D01*
X173105043Y-84367751D01*
X172986733Y-84209315D01*
X172986732Y-84209314D01*
X172983280Y-84204691D01*
X172935167Y-84160216D01*
X172827796Y-84060963D01*
X172827793Y-84060961D01*
X172823556Y-84057044D01*
X172639599Y-83940976D01*
X172437572Y-83860376D01*
X172224239Y-83817941D01*
X172218464Y-83817865D01*
X172218460Y-83817865D01*
X172109419Y-83816438D01*
X172006746Y-83815094D01*
X172001049Y-83816073D01*
X172001048Y-83816073D01*
X171798065Y-83850952D01*
X171798062Y-83850953D01*
X171792375Y-83851930D01*
X171588307Y-83927214D01*
X171498579Y-83980597D01*
X171407293Y-84034907D01*
X171401376Y-84038427D01*
X171237842Y-84181842D01*
X171234270Y-84186373D01*
X171152701Y-84289843D01*
X171103181Y-84352658D01*
X171100493Y-84357767D01*
X171095931Y-84366438D01*
X171001905Y-84545154D01*
X171000192Y-84550671D01*
X170957523Y-84688087D01*
X170937403Y-84752882D01*
X170936724Y-84758618D01*
X170936722Y-84758628D01*
X170934142Y-84780424D01*
X170906271Y-84845721D01*
X170847522Y-84885584D01*
X170778181Y-84886549D01*
X170778138Y-84886818D01*
X170777363Y-84886695D01*
X170776580Y-84886571D01*
X170776579Y-84886571D01*
X170770319Y-84885579D01*
X170762704Y-84883367D01*
X170763078Y-84882078D01*
X170706382Y-84855196D01*
X170683111Y-84827473D01*
X170663616Y-84795969D01*
X170648562Y-84780941D01*
X170545684Y-84678242D01*
X170545679Y-84678238D01*
X170540503Y-84673071D01*
X170392420Y-84581791D01*
X170227309Y-84527026D01*
X170220473Y-84526326D01*
X170220470Y-84526325D01*
X170168974Y-84521049D01*
X170124572Y-84516500D01*
X169525428Y-84516500D01*
X169522182Y-84516837D01*
X169522178Y-84516837D01*
X169428265Y-84526581D01*
X169428261Y-84526582D01*
X169421407Y-84527293D01*
X169414871Y-84529474D01*
X169414869Y-84529474D01*
X169283906Y-84573167D01*
X169256393Y-84582346D01*
X169108469Y-84673884D01*
X169103296Y-84679066D01*
X169001753Y-84780786D01*
X168939470Y-84814865D01*
X168868650Y-84809862D01*
X168823563Y-84780941D01*
X168720688Y-84678246D01*
X168720683Y-84678242D01*
X168715503Y-84673071D01*
X168567420Y-84581791D01*
X168402309Y-84527026D01*
X168395473Y-84526326D01*
X168395470Y-84526325D01*
X168343974Y-84521049D01*
X168299572Y-84516500D01*
X167960110Y-84516500D01*
X167891989Y-84496498D01*
X167886048Y-84492435D01*
X167881096Y-84488837D01*
X167875321Y-84483414D01*
X167868381Y-84479598D01*
X167868376Y-84479595D01*
X167857566Y-84473652D01*
X167841047Y-84462801D01*
X167840583Y-84462441D01*
X167825041Y-84450386D01*
X167817772Y-84447241D01*
X167817768Y-84447238D01*
X167784463Y-84432826D01*
X167773813Y-84427609D01*
X167735060Y-84406305D01*
X167715437Y-84401267D01*
X167696734Y-84394863D01*
X167685420Y-84389967D01*
X167685419Y-84389967D01*
X167678145Y-84386819D01*
X167670322Y-84385580D01*
X167670312Y-84385577D01*
X167634476Y-84379901D01*
X167622856Y-84377495D01*
X167587711Y-84368472D01*
X167587710Y-84368472D01*
X167580030Y-84366500D01*
X167559776Y-84366500D01*
X167540065Y-84364949D01*
X167530330Y-84363407D01*
X167520057Y-84361780D01*
X167490786Y-84364547D01*
X167476039Y-84365941D01*
X167464181Y-84366500D01*
X159812609Y-84366500D01*
X159801426Y-84365973D01*
X159793933Y-84364298D01*
X159786007Y-84364547D01*
X159786006Y-84364547D01*
X159725856Y-84366438D01*
X159721897Y-84366500D01*
X159693986Y-84366500D01*
X159690052Y-84366997D01*
X159690051Y-84366997D01*
X159689986Y-84367005D01*
X159678149Y-84367938D01*
X159646332Y-84368938D01*
X159641871Y-84369078D01*
X159633952Y-84369327D01*
X159616672Y-84374347D01*
X159614500Y-84374978D01*
X159595148Y-84378986D01*
X159588077Y-84379880D01*
X159575045Y-84381526D01*
X159567676Y-84384443D01*
X159567674Y-84384444D01*
X159533939Y-84397800D01*
X159522711Y-84401645D01*
X159480249Y-84413982D01*
X159473427Y-84418016D01*
X159473421Y-84418019D01*
X159462810Y-84424294D01*
X159445060Y-84432990D01*
X159433598Y-84437528D01*
X159433593Y-84437531D01*
X159426225Y-84440448D01*
X159408812Y-84453099D01*
X159390467Y-84466427D01*
X159380549Y-84472943D01*
X159369302Y-84479595D01*
X159342479Y-84495458D01*
X159328155Y-84509782D01*
X159313123Y-84522621D01*
X159296735Y-84534528D01*
X159268554Y-84568593D01*
X159260564Y-84577373D01*
X158607747Y-85230190D01*
X158599461Y-85237730D01*
X158592982Y-85241842D01*
X158587557Y-85247619D01*
X158546357Y-85291493D01*
X158543602Y-85294335D01*
X158523865Y-85314072D01*
X158521385Y-85317269D01*
X158513682Y-85326289D01*
X158483414Y-85358521D01*
X158479595Y-85365467D01*
X158479593Y-85365470D01*
X158473652Y-85376276D01*
X158462801Y-85392795D01*
X158450386Y-85408801D01*
X158447241Y-85416070D01*
X158447238Y-85416074D01*
X158432826Y-85449379D01*
X158427609Y-85460029D01*
X158406305Y-85498782D01*
X158404334Y-85506457D01*
X158404334Y-85506458D01*
X158401267Y-85518404D01*
X158394863Y-85537108D01*
X158386819Y-85555697D01*
X158385580Y-85563520D01*
X158385577Y-85563530D01*
X158379901Y-85599366D01*
X158377495Y-85610986D01*
X158366500Y-85653812D01*
X158366500Y-85674066D01*
X158364949Y-85693776D01*
X158361780Y-85713785D01*
X158362526Y-85721677D01*
X158365941Y-85757803D01*
X158366500Y-85769661D01*
X158366500Y-97051233D01*
X158365973Y-97062416D01*
X158364298Y-97069909D01*
X158364547Y-97077835D01*
X158364547Y-97077836D01*
X158366438Y-97137986D01*
X158366500Y-97141945D01*
X158366500Y-97169856D01*
X158366997Y-97173790D01*
X158366997Y-97173791D01*
X158367005Y-97173856D01*
X158367938Y-97185693D01*
X158369327Y-97229889D01*
X158374978Y-97249339D01*
X158378987Y-97268700D01*
X158381526Y-97288797D01*
X158384445Y-97296168D01*
X158384445Y-97296170D01*
X158397804Y-97329912D01*
X158401649Y-97341142D01*
X158411598Y-97375387D01*
X158413982Y-97383593D01*
X158418015Y-97390412D01*
X158418017Y-97390417D01*
X158424293Y-97401028D01*
X158432988Y-97418776D01*
X158440448Y-97437617D01*
X158445110Y-97444033D01*
X158445110Y-97444034D01*
X158466436Y-97473387D01*
X158472952Y-97483307D01*
X158495458Y-97521362D01*
X158509779Y-97535683D01*
X158522619Y-97550716D01*
X158534528Y-97567107D01*
X158540634Y-97572158D01*
X158568605Y-97595298D01*
X158577384Y-97603288D01*
X159159497Y-98185401D01*
X159193523Y-98247713D01*
X159188458Y-98318528D01*
X159185510Y-98325743D01*
X159131206Y-98447712D01*
X159127632Y-98464528D01*
X159095414Y-98616100D01*
X159091500Y-98634513D01*
X159091500Y-98825487D01*
X159092872Y-98831939D01*
X159092872Y-98831944D01*
X159096051Y-98846900D01*
X159131206Y-99012288D01*
X159133891Y-99018318D01*
X159133891Y-99018319D01*
X159160057Y-99077088D01*
X159208882Y-99186752D01*
X159212762Y-99192093D01*
X159212763Y-99192094D01*
X159284579Y-99290939D01*
X159308437Y-99357806D01*
X159292357Y-99426958D01*
X159284582Y-99439056D01*
X159208882Y-99543248D01*
X159206198Y-99549276D01*
X159206197Y-99549278D01*
X159156541Y-99660808D01*
X159131206Y-99717712D01*
X159091500Y-99904513D01*
X159091500Y-100095487D01*
X159131206Y-100282288D01*
X159208882Y-100456752D01*
X159212762Y-100462093D01*
X159212763Y-100462094D01*
X159284887Y-100561363D01*
X159308745Y-100628230D01*
X159292665Y-100697382D01*
X159284887Y-100709485D01*
X159213198Y-100808157D01*
X159206632Y-100819529D01*
X159134367Y-100981839D01*
X159130310Y-100994325D01*
X159129470Y-100998278D01*
X159130543Y-101012341D01*
X159140497Y-101016000D01*
X160728000Y-101016000D01*
X160796121Y-101036002D01*
X160842614Y-101089658D01*
X160854000Y-101142000D01*
X160854000Y-102159885D01*
X160858475Y-102175124D01*
X160859865Y-102176329D01*
X160867548Y-102178000D01*
X161244302Y-102178000D01*
X161250862Y-102177656D01*
X161389824Y-102163051D01*
X161389974Y-102164482D01*
X161453261Y-102169315D01*
X161509891Y-102212135D01*
X161534381Y-102278774D01*
X161518955Y-102348075D01*
X161497755Y-102376252D01*
X160037504Y-103836502D01*
X158584756Y-105289250D01*
X158522444Y-105323276D01*
X158451628Y-105318211D01*
X158394793Y-105275664D01*
X158373813Y-105232235D01*
X158319493Y-105025912D01*
X158318332Y-105021502D01*
X158275956Y-104921913D01*
X158211679Y-104770853D01*
X158211677Y-104770849D01*
X158209889Y-104766647D01*
X158098167Y-104583258D01*
X158068163Y-104534006D01*
X158068162Y-104534004D01*
X158065793Y-104530116D01*
X157889062Y-104316864D01*
X157876685Y-104305700D01*
X157686791Y-104134418D01*
X157686788Y-104134416D01*
X157683397Y-104131357D01*
X157453108Y-103977482D01*
X157243566Y-103877760D01*
X157206494Y-103860117D01*
X157206491Y-103860116D01*
X157203018Y-103858463D01*
X157119896Y-103830732D01*
X157118392Y-103830312D01*
X157118382Y-103830309D01*
X155941501Y-103501718D01*
X155797571Y-103461532D01*
X155595253Y-103420554D01*
X155590701Y-103420303D01*
X155590697Y-103420303D01*
X155393905Y-103409473D01*
X155318705Y-103405334D01*
X155314157Y-103405744D01*
X155314152Y-103405744D01*
X155161538Y-103419499D01*
X155042856Y-103430196D01*
X154916889Y-103460322D01*
X154780443Y-103492954D01*
X154773485Y-103494618D01*
X154516236Y-103597250D01*
X154276496Y-103735943D01*
X154059290Y-103907791D01*
X153869165Y-104109194D01*
X153866545Y-104112929D01*
X153866544Y-104112930D01*
X153725627Y-104313807D01*
X153710105Y-104335933D01*
X153585443Y-104583258D01*
X153497789Y-104845990D01*
X153448980Y-105118622D01*
X153448833Y-105123182D01*
X153448832Y-105123189D01*
X153441244Y-105358109D01*
X153440038Y-105395444D01*
X153471152Y-105670659D01*
X153541668Y-105938498D01*
X153543454Y-105942696D01*
X153543455Y-105942698D01*
X153598984Y-106073197D01*
X153650111Y-106193353D01*
X153675091Y-106234357D01*
X153782691Y-106410980D01*
X153794207Y-106429884D01*
X153797111Y-106433388D01*
X153797113Y-106433391D01*
X153968026Y-106639624D01*
X153968031Y-106639629D01*
X153970938Y-106643137D01*
X153974326Y-106646193D01*
X153974327Y-106646194D01*
X154157328Y-106811257D01*
X154176603Y-106828643D01*
X154406892Y-106982518D01*
X154431649Y-106994300D01*
X154653511Y-107099885D01*
X154653516Y-107099887D01*
X154656983Y-107101537D01*
X154660623Y-107102751D01*
X154660627Y-107102753D01*
X154686404Y-107111353D01*
X154740104Y-107129268D01*
X154741629Y-107129694D01*
X154741633Y-107129695D01*
X155295602Y-107284366D01*
X156062429Y-107498468D01*
X156092734Y-107504606D01*
X156155527Y-107537734D01*
X156190443Y-107599552D01*
X156186394Y-107670433D01*
X156156814Y-107717193D01*
X153944411Y-109929595D01*
X153882099Y-109963621D01*
X153855316Y-109966500D01*
X152293434Y-109966500D01*
X152225313Y-109946498D01*
X152178820Y-109892842D01*
X152168124Y-109853670D01*
X152164232Y-109816635D01*
X152164232Y-109816633D01*
X152163542Y-109810072D01*
X152104527Y-109628444D01*
X152009040Y-109463056D01*
X151983560Y-109434757D01*
X151885675Y-109326045D01*
X151885674Y-109326044D01*
X151881253Y-109321134D01*
X151777326Y-109245626D01*
X151732094Y-109212763D01*
X151732093Y-109212762D01*
X151726752Y-109208882D01*
X151720724Y-109206198D01*
X151720722Y-109206197D01*
X151558319Y-109133891D01*
X151558318Y-109133891D01*
X151552288Y-109131206D01*
X151458888Y-109111353D01*
X151371944Y-109092872D01*
X151371939Y-109092872D01*
X151365487Y-109091500D01*
X151174513Y-109091500D01*
X151168061Y-109092872D01*
X151168056Y-109092872D01*
X151081112Y-109111353D01*
X150987712Y-109131206D01*
X150981682Y-109133891D01*
X150981681Y-109133891D01*
X150819278Y-109206197D01*
X150819276Y-109206198D01*
X150813248Y-109208882D01*
X150709060Y-109284579D01*
X150642194Y-109308437D01*
X150573042Y-109292357D01*
X150560944Y-109284582D01*
X150456752Y-109208882D01*
X150450724Y-109206198D01*
X150450722Y-109206197D01*
X150288319Y-109133891D01*
X150288318Y-109133891D01*
X150282288Y-109131206D01*
X150188888Y-109111353D01*
X150101944Y-109092872D01*
X150101939Y-109092872D01*
X150095487Y-109091500D01*
X149904513Y-109091500D01*
X149898061Y-109092872D01*
X149898056Y-109092872D01*
X149811112Y-109111353D01*
X149717712Y-109131206D01*
X149711682Y-109133891D01*
X149711681Y-109133891D01*
X149549278Y-109206197D01*
X149549276Y-109206198D01*
X149543248Y-109208882D01*
X149537907Y-109212762D01*
X149537906Y-109212763D01*
X149492674Y-109245626D01*
X149439061Y-109284579D01*
X149432545Y-109289313D01*
X149365678Y-109313171D01*
X149296526Y-109297091D01*
X149287661Y-109291589D01*
X149140825Y-109191799D01*
X149128845Y-109185430D01*
X149000821Y-109134224D01*
X148986781Y-109132888D01*
X148984000Y-109137709D01*
X148984000Y-112051887D01*
X148476000Y-112051887D01*
X148476000Y-110872115D01*
X148471525Y-110856876D01*
X148470135Y-110855671D01*
X148462452Y-110854000D01*
X147890115Y-110854000D01*
X147874876Y-110858475D01*
X147873671Y-110859865D01*
X147872000Y-110867548D01*
X147872000Y-111293152D01*
X141746664Y-111293152D01*
X141543420Y-111147190D01*
X141538133Y-111143178D01*
X140966280Y-110684827D01*
X140961196Y-110680526D01*
X140565976Y-110327885D01*
X147872000Y-110327885D01*
X147876475Y-110343124D01*
X147877865Y-110344329D01*
X147885548Y-110346000D01*
X148457885Y-110346000D01*
X148473124Y-110341525D01*
X148474329Y-110340135D01*
X148476000Y-110332452D01*
X148476000Y-109148113D01*
X148472027Y-109134582D01*
X148463703Y-109133385D01*
X148418862Y-109145737D01*
X148406253Y-109150729D01*
X148253426Y-109231307D01*
X148242167Y-109238901D01*
X148110210Y-109350413D01*
X148100852Y-109360239D01*
X147995916Y-109497489D01*
X147988885Y-109509098D01*
X147915866Y-109665689D01*
X147911499Y-109678517D01*
X147873447Y-109848753D01*
X147872074Y-109858652D01*
X147872000Y-109861296D01*
X147872000Y-110327885D01*
X140565976Y-110327885D01*
X140414381Y-110192622D01*
X140409531Y-110188058D01*
X139889265Y-109671952D01*
X139884663Y-109667139D01*
X139392395Y-109124270D01*
X139388053Y-109119221D01*
X138925128Y-108551072D01*
X138921060Y-108545800D01*
X138488823Y-107954018D01*
X138485039Y-107948538D01*
X138084655Y-107334722D01*
X138081165Y-107329050D01*
X137713784Y-106694961D01*
X137710599Y-106689113D01*
X137464392Y-106207127D01*
X141941500Y-106207127D01*
X141956457Y-106378087D01*
X142015716Y-106599243D01*
X142018039Y-106604224D01*
X142018039Y-106604225D01*
X142110151Y-106801762D01*
X142110154Y-106801767D01*
X142112477Y-106806749D01*
X142243802Y-106994300D01*
X142405700Y-107156198D01*
X142410208Y-107159355D01*
X142410211Y-107159357D01*
X142488389Y-107214098D01*
X142593251Y-107287523D01*
X142598233Y-107289846D01*
X142598238Y-107289849D01*
X142694470Y-107334722D01*
X142800757Y-107384284D01*
X142806065Y-107385706D01*
X142806067Y-107385707D01*
X143016598Y-107442119D01*
X143016600Y-107442119D01*
X143021913Y-107443543D01*
X143250000Y-107463498D01*
X143478087Y-107443543D01*
X143483400Y-107442119D01*
X143483402Y-107442119D01*
X143693933Y-107385707D01*
X143693935Y-107385706D01*
X143699243Y-107384284D01*
X143805530Y-107334722D01*
X143901762Y-107289849D01*
X143901767Y-107289846D01*
X143906749Y-107287523D01*
X144011611Y-107214098D01*
X144089789Y-107159357D01*
X144089792Y-107159355D01*
X144094300Y-107156198D01*
X144256198Y-106994300D01*
X144387523Y-106806749D01*
X144389846Y-106801767D01*
X144389849Y-106801762D01*
X144481961Y-106604225D01*
X144481961Y-106604224D01*
X144484284Y-106599243D01*
X144543543Y-106378087D01*
X144558500Y-106207127D01*
X144558500Y-105092873D01*
X144555607Y-105059799D01*
X144550105Y-104996913D01*
X144543543Y-104921913D01*
X144542119Y-104916598D01*
X144485707Y-104706067D01*
X144485706Y-104706065D01*
X144484284Y-104700757D01*
X144481961Y-104695775D01*
X144389849Y-104498238D01*
X144389846Y-104498233D01*
X144387523Y-104493251D01*
X144296681Y-104363516D01*
X144259357Y-104310211D01*
X144259355Y-104310208D01*
X144256198Y-104305700D01*
X144094300Y-104143802D01*
X144089792Y-104140645D01*
X144089789Y-104140643D01*
X143922481Y-104023493D01*
X143906749Y-104012477D01*
X143901767Y-104010154D01*
X143901762Y-104010151D01*
X143704225Y-103918039D01*
X143704224Y-103918039D01*
X143699243Y-103915716D01*
X143693935Y-103914294D01*
X143693933Y-103914293D01*
X143483402Y-103857881D01*
X143483400Y-103857881D01*
X143478087Y-103856457D01*
X143250000Y-103836502D01*
X143021913Y-103856457D01*
X143016600Y-103857881D01*
X143016598Y-103857881D01*
X142806067Y-103914293D01*
X142806065Y-103914294D01*
X142800757Y-103915716D01*
X142795776Y-103918039D01*
X142795775Y-103918039D01*
X142598238Y-104010151D01*
X142598233Y-104010154D01*
X142593251Y-104012477D01*
X142577519Y-104023493D01*
X142410211Y-104140643D01*
X142410208Y-104140645D01*
X142405700Y-104143802D01*
X142243802Y-104305700D01*
X142240645Y-104310208D01*
X142240643Y-104310211D01*
X142203319Y-104363516D01*
X142112477Y-104493251D01*
X142110154Y-104498233D01*
X142110151Y-104498238D01*
X142018039Y-104695775D01*
X142015716Y-104700757D01*
X142014294Y-104706065D01*
X142014293Y-104706067D01*
X141957881Y-104916598D01*
X141956457Y-104921913D01*
X141949895Y-104996913D01*
X141944394Y-105059799D01*
X141941500Y-105092873D01*
X141941500Y-106207127D01*
X137464392Y-106207127D01*
X137377230Y-106036495D01*
X137374358Y-106030487D01*
X137075925Y-105361147D01*
X137073375Y-105354995D01*
X136810726Y-104670831D01*
X136808505Y-104664553D01*
X136638144Y-104139400D01*
X136582370Y-103967474D01*
X136580487Y-103961099D01*
X136553093Y-103858463D01*
X136438783Y-103430196D01*
X136391501Y-103253050D01*
X136389954Y-103246574D01*
X136296309Y-102802817D01*
X148487514Y-102802817D01*
X148488095Y-102807837D01*
X148488095Y-102807841D01*
X148503923Y-102944631D01*
X148515415Y-103043956D01*
X148516791Y-103048820D01*
X148516792Y-103048823D01*
X148562476Y-103210266D01*
X148581510Y-103277532D01*
X148583644Y-103282108D01*
X148583646Y-103282114D01*
X148667310Y-103461532D01*
X148684099Y-103497536D01*
X148820544Y-103698307D01*
X148987332Y-103874681D01*
X149165987Y-104011273D01*
X149207954Y-104068536D01*
X149212299Y-104139400D01*
X149177643Y-104201363D01*
X149161729Y-104214580D01*
X149160214Y-104215641D01*
X149155700Y-104218802D01*
X148993802Y-104380700D01*
X148862477Y-104568251D01*
X148860154Y-104573233D01*
X148860151Y-104573238D01*
X148814643Y-104670831D01*
X148765716Y-104775757D01*
X148706457Y-104996913D01*
X148686502Y-105225000D01*
X148706457Y-105453087D01*
X148707881Y-105458400D01*
X148707881Y-105458402D01*
X148758628Y-105647789D01*
X148765716Y-105674243D01*
X148768039Y-105679224D01*
X148768039Y-105679225D01*
X148860151Y-105876762D01*
X148860154Y-105876767D01*
X148862477Y-105881749D01*
X148902213Y-105938498D01*
X148970832Y-106036495D01*
X148993802Y-106069300D01*
X149155700Y-106231198D01*
X149160208Y-106234355D01*
X149160211Y-106234357D01*
X149238389Y-106289098D01*
X149343251Y-106362523D01*
X149348233Y-106364846D01*
X149348238Y-106364849D01*
X149545775Y-106456961D01*
X149550757Y-106459284D01*
X149556065Y-106460706D01*
X149556067Y-106460707D01*
X149766598Y-106517119D01*
X149766600Y-106517119D01*
X149771913Y-106518543D01*
X149871480Y-106527254D01*
X149940149Y-106533262D01*
X149940156Y-106533262D01*
X149942873Y-106533500D01*
X150057127Y-106533500D01*
X150059844Y-106533262D01*
X150059851Y-106533262D01*
X150128520Y-106527254D01*
X150228087Y-106518543D01*
X150233400Y-106517119D01*
X150233402Y-106517119D01*
X150443933Y-106460707D01*
X150443935Y-106460706D01*
X150449243Y-106459284D01*
X150454225Y-106456961D01*
X150651762Y-106364849D01*
X150651767Y-106364846D01*
X150656749Y-106362523D01*
X150761611Y-106289098D01*
X150839789Y-106234357D01*
X150839792Y-106234355D01*
X150844300Y-106231198D01*
X151006198Y-106069300D01*
X151029169Y-106036495D01*
X151097787Y-105938498D01*
X151137523Y-105881749D01*
X151139846Y-105876767D01*
X151139849Y-105876762D01*
X151231961Y-105679225D01*
X151231961Y-105679224D01*
X151234284Y-105674243D01*
X151241373Y-105647789D01*
X151292119Y-105458402D01*
X151292119Y-105458400D01*
X151293543Y-105453087D01*
X151313498Y-105225000D01*
X151293543Y-104996913D01*
X151234284Y-104775757D01*
X151185357Y-104670831D01*
X151139849Y-104573238D01*
X151139846Y-104573233D01*
X151137523Y-104568251D01*
X151006198Y-104380700D01*
X150844300Y-104218802D01*
X150838271Y-104214580D01*
X150835914Y-104212930D01*
X150791586Y-104157472D01*
X150784277Y-104086853D01*
X150816308Y-104023493D01*
X150841042Y-104003097D01*
X150902288Y-103964528D01*
X150902291Y-103964526D01*
X150906567Y-103961833D01*
X151005422Y-103874681D01*
X151084858Y-103804650D01*
X151084861Y-103804647D01*
X151088655Y-103801302D01*
X151176696Y-103694119D01*
X151239526Y-103617628D01*
X151239528Y-103617625D01*
X151242734Y-103613722D01*
X151331311Y-103461532D01*
X151362299Y-103408290D01*
X151362300Y-103408288D01*
X151364841Y-103403922D01*
X151422755Y-103253050D01*
X151450020Y-103182022D01*
X151450021Y-103182018D01*
X151451833Y-103177298D01*
X151501474Y-102939680D01*
X151512486Y-102697183D01*
X151511618Y-102689681D01*
X151485167Y-102461071D01*
X151485166Y-102461067D01*
X151484585Y-102456044D01*
X151445517Y-102317978D01*
X151419866Y-102227331D01*
X151418490Y-102222468D01*
X151416356Y-102217892D01*
X151416354Y-102217886D01*
X151318038Y-102007046D01*
X151318036Y-102007042D01*
X151315901Y-102002464D01*
X151179456Y-101801693D01*
X151012668Y-101625319D01*
X150924829Y-101558161D01*
X150899072Y-101538468D01*
X159128778Y-101538468D01*
X159130310Y-101545675D01*
X159134367Y-101558161D01*
X159206632Y-101720471D01*
X159213198Y-101731843D01*
X159317624Y-101875574D01*
X159326415Y-101885337D01*
X159458442Y-102004214D01*
X159469073Y-102011938D01*
X159622926Y-102100765D01*
X159634934Y-102106111D01*
X159803898Y-102161011D01*
X159816739Y-102163741D01*
X159949138Y-102177656D01*
X159955698Y-102178000D01*
X160327885Y-102178000D01*
X160343124Y-102173525D01*
X160344329Y-102172135D01*
X160346000Y-102164452D01*
X160346000Y-101542115D01*
X160341525Y-101526876D01*
X160340135Y-101525671D01*
X160332452Y-101524000D01*
X159143818Y-101524000D01*
X159130287Y-101527973D01*
X159128778Y-101538468D01*
X150899072Y-101538468D01*
X150823846Y-101480953D01*
X150823842Y-101480950D01*
X150819826Y-101477880D01*
X150605891Y-101363169D01*
X150376369Y-101284138D01*
X150277022Y-101266978D01*
X150141074Y-101243496D01*
X150141068Y-101243495D01*
X150137164Y-101242821D01*
X150133203Y-101242641D01*
X150133202Y-101242641D01*
X150109494Y-101241564D01*
X150109475Y-101241564D01*
X150108075Y-101241500D01*
X149938999Y-101241500D01*
X149936491Y-101241702D01*
X149936486Y-101241702D01*
X149763076Y-101255654D01*
X149763071Y-101255655D01*
X149758035Y-101256060D01*
X149753127Y-101257266D01*
X149753124Y-101257266D01*
X149637007Y-101285787D01*
X149522294Y-101313963D01*
X149517642Y-101315938D01*
X149517638Y-101315939D01*
X149410252Y-101361522D01*
X149298844Y-101408812D01*
X149294560Y-101411510D01*
X149097712Y-101535472D01*
X149097709Y-101535474D01*
X149093433Y-101538167D01*
X149089639Y-101541512D01*
X148915142Y-101695350D01*
X148915139Y-101695353D01*
X148911345Y-101698698D01*
X148908135Y-101702606D01*
X148908134Y-101702607D01*
X148829011Y-101798934D01*
X148757266Y-101886278D01*
X148635159Y-102096078D01*
X148633346Y-102100801D01*
X148563762Y-102282076D01*
X148548167Y-102322702D01*
X148547133Y-102327652D01*
X148547132Y-102327655D01*
X148505642Y-102526259D01*
X148498526Y-102560320D01*
X148487514Y-102802817D01*
X136296309Y-102802817D01*
X136238631Y-102529495D01*
X136237432Y-102522961D01*
X136235705Y-102511912D01*
X136124214Y-101798934D01*
X136123359Y-101792330D01*
X136048548Y-101063300D01*
X136048044Y-101056660D01*
X136011857Y-100324722D01*
X136011704Y-100318065D01*
X136013756Y-99724169D01*
X136014237Y-99585210D01*
X136014434Y-99578590D01*
X136055683Y-98846898D01*
X136056233Y-98840263D01*
X136136082Y-98111781D01*
X136136982Y-98105184D01*
X136255207Y-97381929D01*
X136256455Y-97375387D01*
X136264957Y-97336436D01*
X136272295Y-97302817D01*
X148487514Y-97302817D01*
X148488095Y-97307837D01*
X148488095Y-97307841D01*
X148514458Y-97535683D01*
X148515415Y-97543956D01*
X148516791Y-97548820D01*
X148516792Y-97548823D01*
X148560899Y-97704694D01*
X148581510Y-97777532D01*
X148583644Y-97782108D01*
X148583646Y-97782114D01*
X148680391Y-97989584D01*
X148684099Y-97997536D01*
X148686940Y-98001717D01*
X148686941Y-98001718D01*
X148712188Y-98038868D01*
X148820544Y-98198307D01*
X148987332Y-98374681D01*
X148991358Y-98377759D01*
X148991359Y-98377760D01*
X149176154Y-98519047D01*
X149176158Y-98519050D01*
X149180174Y-98522120D01*
X149394109Y-98636831D01*
X149623631Y-98715862D01*
X149722978Y-98733022D01*
X149858926Y-98756504D01*
X149858932Y-98756505D01*
X149862836Y-98757179D01*
X149866797Y-98757359D01*
X149866798Y-98757359D01*
X149890506Y-98758436D01*
X149890525Y-98758436D01*
X149891925Y-98758500D01*
X150061001Y-98758500D01*
X150063509Y-98758298D01*
X150063514Y-98758298D01*
X150236924Y-98744346D01*
X150236929Y-98744345D01*
X150241965Y-98743940D01*
X150246873Y-98742734D01*
X150246876Y-98742734D01*
X150472792Y-98687244D01*
X150477706Y-98686037D01*
X150482358Y-98684062D01*
X150482362Y-98684061D01*
X150696498Y-98593165D01*
X150701156Y-98591188D01*
X150807037Y-98524511D01*
X150902288Y-98464528D01*
X150902291Y-98464526D01*
X150906567Y-98461833D01*
X151005422Y-98374681D01*
X151084858Y-98304650D01*
X151084861Y-98304647D01*
X151088655Y-98301302D01*
X151138985Y-98240029D01*
X151239526Y-98117628D01*
X151239528Y-98117625D01*
X151242734Y-98113722D01*
X151364841Y-97903922D01*
X151387721Y-97844317D01*
X151450020Y-97682022D01*
X151450021Y-97682018D01*
X151451833Y-97677298D01*
X151457476Y-97650287D01*
X151500440Y-97444631D01*
X151500440Y-97444627D01*
X151501474Y-97439680D01*
X151512486Y-97197183D01*
X151511759Y-97190896D01*
X151485167Y-96961071D01*
X151485166Y-96961067D01*
X151484585Y-96956044D01*
X151445517Y-96817978D01*
X151419866Y-96727331D01*
X151418490Y-96722468D01*
X151416356Y-96717892D01*
X151416354Y-96717886D01*
X151318038Y-96507046D01*
X151318036Y-96507042D01*
X151315901Y-96502464D01*
X151179456Y-96301693D01*
X151012668Y-96125319D01*
X150834013Y-95988727D01*
X150792046Y-95931464D01*
X150787701Y-95860600D01*
X150822357Y-95798637D01*
X150838271Y-95785420D01*
X150839786Y-95784359D01*
X150839788Y-95784357D01*
X150844300Y-95781198D01*
X151006198Y-95619300D01*
X151137523Y-95431749D01*
X151139846Y-95426767D01*
X151139849Y-95426762D01*
X151231961Y-95229225D01*
X151231961Y-95229224D01*
X151234284Y-95224243D01*
X151253804Y-95151396D01*
X151292119Y-95008402D01*
X151292119Y-95008400D01*
X151293543Y-95003087D01*
X151301938Y-94907127D01*
X155441500Y-94907127D01*
X155456457Y-95078087D01*
X155457881Y-95083400D01*
X155457881Y-95083402D01*
X155496955Y-95229225D01*
X155515716Y-95299243D01*
X155518039Y-95304224D01*
X155518039Y-95304225D01*
X155610151Y-95501762D01*
X155610154Y-95501767D01*
X155612477Y-95506749D01*
X155650621Y-95561224D01*
X155737574Y-95685405D01*
X155743802Y-95694300D01*
X155905700Y-95856198D01*
X155910208Y-95859355D01*
X155910211Y-95859357D01*
X155966080Y-95898477D01*
X156093251Y-95987523D01*
X156098233Y-95989846D01*
X156098238Y-95989849D01*
X156274375Y-96071982D01*
X156300757Y-96084284D01*
X156306065Y-96085706D01*
X156306067Y-96085707D01*
X156516598Y-96142119D01*
X156516600Y-96142119D01*
X156521913Y-96143543D01*
X156750000Y-96163498D01*
X156978087Y-96143543D01*
X156983400Y-96142119D01*
X156983402Y-96142119D01*
X157193933Y-96085707D01*
X157193935Y-96085706D01*
X157199243Y-96084284D01*
X157225625Y-96071982D01*
X157401762Y-95989849D01*
X157401767Y-95989846D01*
X157406749Y-95987523D01*
X157533920Y-95898477D01*
X157589789Y-95859357D01*
X157589792Y-95859355D01*
X157594300Y-95856198D01*
X157756198Y-95694300D01*
X157762427Y-95685405D01*
X157849379Y-95561224D01*
X157887523Y-95506749D01*
X157889846Y-95501767D01*
X157889849Y-95501762D01*
X157981961Y-95304225D01*
X157981961Y-95304224D01*
X157984284Y-95299243D01*
X158003046Y-95229225D01*
X158042119Y-95083402D01*
X158042119Y-95083400D01*
X158043543Y-95078087D01*
X158058500Y-94907127D01*
X158058500Y-93792873D01*
X158043543Y-93621913D01*
X158038614Y-93603516D01*
X157985707Y-93406067D01*
X157985706Y-93406065D01*
X157984284Y-93400757D01*
X157974608Y-93380007D01*
X157889849Y-93198238D01*
X157889846Y-93198233D01*
X157887523Y-93193251D01*
X157791064Y-93055493D01*
X157759357Y-93010211D01*
X157759355Y-93010208D01*
X157756198Y-93005700D01*
X157594300Y-92843802D01*
X157589792Y-92840645D01*
X157589789Y-92840643D01*
X157501431Y-92778774D01*
X157406749Y-92712477D01*
X157401767Y-92710154D01*
X157401762Y-92710151D01*
X157204225Y-92618039D01*
X157204224Y-92618039D01*
X157199243Y-92615716D01*
X157193935Y-92614294D01*
X157193933Y-92614293D01*
X156983402Y-92557881D01*
X156983400Y-92557881D01*
X156978087Y-92556457D01*
X156750000Y-92536502D01*
X156521913Y-92556457D01*
X156516600Y-92557881D01*
X156516598Y-92557881D01*
X156306067Y-92614293D01*
X156306065Y-92614294D01*
X156300757Y-92615716D01*
X156295776Y-92618039D01*
X156295775Y-92618039D01*
X156098238Y-92710151D01*
X156098233Y-92710154D01*
X156093251Y-92712477D01*
X155998569Y-92778774D01*
X155910211Y-92840643D01*
X155910208Y-92840645D01*
X155905700Y-92843802D01*
X155743802Y-93005700D01*
X155740645Y-93010208D01*
X155740643Y-93010211D01*
X155708936Y-93055493D01*
X155612477Y-93193251D01*
X155610154Y-93198233D01*
X155610151Y-93198238D01*
X155525392Y-93380007D01*
X155515716Y-93400757D01*
X155514294Y-93406065D01*
X155514293Y-93406067D01*
X155461386Y-93603516D01*
X155456457Y-93621913D01*
X155441500Y-93792873D01*
X155441500Y-94907127D01*
X151301938Y-94907127D01*
X151313498Y-94775000D01*
X151293543Y-94546913D01*
X151292119Y-94541598D01*
X151235707Y-94331067D01*
X151235706Y-94331065D01*
X151234284Y-94325757D01*
X151158478Y-94163189D01*
X151139849Y-94123238D01*
X151139846Y-94123233D01*
X151137523Y-94118251D01*
X151006198Y-93930700D01*
X150844300Y-93768802D01*
X150839792Y-93765645D01*
X150839789Y-93765643D01*
X150673852Y-93649453D01*
X150656749Y-93637477D01*
X150651767Y-93635154D01*
X150651762Y-93635151D01*
X150454225Y-93543039D01*
X150454224Y-93543039D01*
X150449243Y-93540716D01*
X150443935Y-93539294D01*
X150443933Y-93539293D01*
X150233402Y-93482881D01*
X150233400Y-93482881D01*
X150228087Y-93481457D01*
X150128520Y-93472746D01*
X150059851Y-93466738D01*
X150059844Y-93466738D01*
X150057127Y-93466500D01*
X149942873Y-93466500D01*
X149940156Y-93466738D01*
X149940149Y-93466738D01*
X149871480Y-93472746D01*
X149771913Y-93481457D01*
X149766600Y-93482881D01*
X149766598Y-93482881D01*
X149556067Y-93539293D01*
X149556065Y-93539294D01*
X149550757Y-93540716D01*
X149545776Y-93543039D01*
X149545775Y-93543039D01*
X149348238Y-93635151D01*
X149348233Y-93635154D01*
X149343251Y-93637477D01*
X149326148Y-93649453D01*
X149160211Y-93765643D01*
X149160208Y-93765645D01*
X149155700Y-93768802D01*
X148993802Y-93930700D01*
X148862477Y-94118251D01*
X148860154Y-94123233D01*
X148860151Y-94123238D01*
X148841522Y-94163189D01*
X148765716Y-94325757D01*
X148764294Y-94331065D01*
X148764293Y-94331067D01*
X148707881Y-94541598D01*
X148706457Y-94546913D01*
X148686502Y-94775000D01*
X148706457Y-95003087D01*
X148707881Y-95008400D01*
X148707881Y-95008402D01*
X148746197Y-95151396D01*
X148765716Y-95224243D01*
X148768039Y-95229224D01*
X148768039Y-95229225D01*
X148860151Y-95426762D01*
X148860154Y-95426767D01*
X148862477Y-95431749D01*
X148993802Y-95619300D01*
X149155700Y-95781198D01*
X149160208Y-95784355D01*
X149160211Y-95784357D01*
X149164086Y-95787070D01*
X149208414Y-95842528D01*
X149215723Y-95913147D01*
X149183692Y-95976507D01*
X149158958Y-95996903D01*
X149097712Y-96035472D01*
X149097709Y-96035474D01*
X149093433Y-96038167D01*
X149089639Y-96041512D01*
X148915142Y-96195350D01*
X148915139Y-96195353D01*
X148911345Y-96198698D01*
X148908135Y-96202606D01*
X148908134Y-96202607D01*
X148786307Y-96350923D01*
X148757266Y-96386278D01*
X148754724Y-96390646D01*
X148651070Y-96568741D01*
X148635159Y-96596078D01*
X148633346Y-96600801D01*
X148561647Y-96787586D01*
X148548167Y-96822702D01*
X148547133Y-96827652D01*
X148547132Y-96827655D01*
X148512491Y-96993475D01*
X148498526Y-97060320D01*
X148487514Y-97302817D01*
X136272295Y-97302817D01*
X136412722Y-96659416D01*
X136414313Y-96652955D01*
X136608198Y-95946211D01*
X136610128Y-95939838D01*
X136841076Y-95244337D01*
X136843341Y-95238075D01*
X137051791Y-94706114D01*
X137110716Y-94555740D01*
X137113306Y-94549613D01*
X137114533Y-94546913D01*
X137165160Y-94435444D01*
X141580038Y-94435444D01*
X141611152Y-94710659D01*
X141612314Y-94715072D01*
X141612315Y-94715078D01*
X141662156Y-94904387D01*
X141681668Y-94978498D01*
X141683454Y-94982696D01*
X141683455Y-94982698D01*
X141786235Y-95224243D01*
X141790111Y-95233353D01*
X141892795Y-95401907D01*
X141904315Y-95420816D01*
X141934207Y-95469884D01*
X141937111Y-95473388D01*
X141937113Y-95473391D01*
X142108026Y-95679624D01*
X142108031Y-95679629D01*
X142110938Y-95683137D01*
X142114326Y-95686193D01*
X142114327Y-95686194D01*
X142302806Y-95856198D01*
X142316603Y-95868643D01*
X142546892Y-96022518D01*
X142586804Y-96041512D01*
X142793511Y-96139885D01*
X142793516Y-96139887D01*
X142796983Y-96141537D01*
X142800623Y-96142751D01*
X142800627Y-96142753D01*
X142826404Y-96151353D01*
X142880104Y-96169268D01*
X144202429Y-96538468D01*
X144404747Y-96579446D01*
X144409299Y-96579697D01*
X144409303Y-96579697D01*
X144606095Y-96590527D01*
X144681295Y-96594666D01*
X144685843Y-96594256D01*
X144685848Y-96594256D01*
X144860227Y-96578539D01*
X144957144Y-96569804D01*
X145212537Y-96508725D01*
X145222079Y-96506443D01*
X145222080Y-96506443D01*
X145226515Y-96505382D01*
X145483764Y-96402750D01*
X145723504Y-96264057D01*
X145727078Y-96261230D01*
X145727083Y-96261226D01*
X145937133Y-96095040D01*
X145937135Y-96095039D01*
X145940711Y-96092209D01*
X146098504Y-95925055D01*
X146127701Y-95894126D01*
X146127701Y-95894125D01*
X146130835Y-95890806D01*
X146203607Y-95787070D01*
X146287278Y-95667798D01*
X146287280Y-95667795D01*
X146289895Y-95664067D01*
X146414557Y-95416742D01*
X146502211Y-95154010D01*
X146551020Y-94881378D01*
X146554280Y-94780475D01*
X146559815Y-94609117D01*
X146559815Y-94609112D01*
X146559962Y-94604556D01*
X146528848Y-94329342D01*
X146527562Y-94324455D01*
X146459493Y-94065912D01*
X146458332Y-94061502D01*
X146402675Y-93930700D01*
X146351679Y-93810853D01*
X146351677Y-93810849D01*
X146349889Y-93806647D01*
X146237348Y-93621913D01*
X146208163Y-93574006D01*
X146208162Y-93574004D01*
X146205793Y-93570116D01*
X146029062Y-93356864D01*
X145963180Y-93297439D01*
X145826791Y-93174418D01*
X145826788Y-93174416D01*
X145823397Y-93171357D01*
X145593108Y-93017482D01*
X145440720Y-92944960D01*
X145346494Y-92900117D01*
X145346491Y-92900116D01*
X145343018Y-92898463D01*
X145259896Y-92870732D01*
X145258392Y-92870312D01*
X145258382Y-92870309D01*
X144249775Y-92588701D01*
X143937571Y-92501532D01*
X143735253Y-92460554D01*
X143730701Y-92460303D01*
X143730697Y-92460303D01*
X143533905Y-92449473D01*
X143458705Y-92445334D01*
X143454157Y-92445744D01*
X143454152Y-92445744D01*
X143301538Y-92459499D01*
X143182856Y-92470196D01*
X142913485Y-92534618D01*
X142656236Y-92637250D01*
X142416496Y-92775943D01*
X142199290Y-92947791D01*
X142131108Y-93020018D01*
X142047627Y-93108451D01*
X142009165Y-93149194D01*
X142006545Y-93152929D01*
X142006544Y-93152930D01*
X141865627Y-93353807D01*
X141850105Y-93375933D01*
X141725443Y-93623258D01*
X141637789Y-93885990D01*
X141588980Y-94158622D01*
X141588833Y-94163182D01*
X141588832Y-94163189D01*
X141580499Y-94421158D01*
X141580038Y-94435444D01*
X137165160Y-94435444D01*
X137394402Y-93930700D01*
X137416352Y-93882370D01*
X137419265Y-93876382D01*
X137757134Y-93226093D01*
X137760359Y-93220267D01*
X138132134Y-92588701D01*
X138135663Y-92583053D01*
X138403536Y-92178525D01*
X138540269Y-91972038D01*
X138544089Y-91966588D01*
X138684324Y-91777352D01*
X138980423Y-91377788D01*
X138984520Y-91372555D01*
X139034124Y-91312529D01*
X139451356Y-90807627D01*
X139455725Y-90802616D01*
X139507782Y-90746000D01*
X139951752Y-90263146D01*
X139956379Y-90258373D01*
X140480223Y-89745856D01*
X140485081Y-89741349D01*
X141035260Y-89257232D01*
X141040372Y-89252968D01*
X141474888Y-88909602D01*
X141615371Y-88798589D01*
X141620696Y-88794605D01*
X141636529Y-88783400D01*
X142207969Y-88378974D01*
X142218884Y-88371249D01*
X142224420Y-88367547D01*
X142844122Y-87976398D01*
X142849845Y-87972993D01*
X143489378Y-87615114D01*
X143495273Y-87612017D01*
X144152814Y-87288430D01*
X144158865Y-87285649D01*
X144832563Y-86997262D01*
X144838752Y-86994804D01*
X145526750Y-86742412D01*
X145533060Y-86740284D01*
X145913944Y-86622985D01*
X146193371Y-86536931D01*
X146215640Y-86532225D01*
X146218278Y-86531913D01*
X146231990Y-86530289D01*
X146262739Y-86517203D01*
X146277445Y-86511996D01*
X146300932Y-86505284D01*
X146300936Y-86505282D01*
X146309565Y-86502816D01*
X146327963Y-86491208D01*
X146345855Y-86481834D01*
X146357626Y-86476824D01*
X146357627Y-86476823D01*
X146365885Y-86473309D01*
X146375588Y-86465353D01*
X146391720Y-86452124D01*
X146404380Y-86442993D01*
X146425039Y-86429958D01*
X146432631Y-86425168D01*
X146447034Y-86408860D01*
X146461579Y-86394838D01*
X146471461Y-86386734D01*
X146478405Y-86381040D01*
X146491476Y-86361913D01*
X146497254Y-86353457D01*
X146506841Y-86341142D01*
X146523011Y-86322832D01*
X146523012Y-86322830D01*
X146528956Y-86316100D01*
X146538207Y-86296397D01*
X146548230Y-86278860D01*
X146555439Y-86268310D01*
X146560505Y-86260897D01*
X146570853Y-86229139D01*
X146576598Y-86214628D01*
X146586983Y-86192508D01*
X146586983Y-86192507D01*
X146590799Y-86184380D01*
X146594147Y-86162878D01*
X146598846Y-86143230D01*
X146602804Y-86131081D01*
X146605586Y-86122543D01*
X146606620Y-86088656D01*
X146606936Y-86082787D01*
X146607251Y-86078714D01*
X146608000Y-86073905D01*
X146608000Y-86045318D01*
X146608059Y-86041476D01*
X146609749Y-85986067D01*
X146610023Y-85977095D01*
X146608419Y-85970915D01*
X146608000Y-85963432D01*
X146608000Y-85458411D01*
X147787977Y-85458411D01*
X147788177Y-85463740D01*
X147788177Y-85463741D01*
X147789106Y-85488478D01*
X147796945Y-85697274D01*
X147798040Y-85702492D01*
X147826986Y-85840446D01*
X147846030Y-85931211D01*
X147933829Y-86153533D01*
X148057832Y-86357883D01*
X148061329Y-86361913D01*
X148208355Y-86531345D01*
X148214493Y-86538419D01*
X148218619Y-86541802D01*
X148218623Y-86541806D01*
X148322118Y-86626666D01*
X148399333Y-86689978D01*
X148403969Y-86692617D01*
X148403972Y-86692619D01*
X148489424Y-86741261D01*
X148607066Y-86808227D01*
X148831753Y-86889784D01*
X148837002Y-86890733D01*
X148837005Y-86890734D01*
X149062885Y-86931580D01*
X149062893Y-86931581D01*
X149066969Y-86932318D01*
X149085359Y-86933185D01*
X149090544Y-86933430D01*
X149090551Y-86933430D01*
X149092032Y-86933500D01*
X149260012Y-86933500D01*
X149438175Y-86918383D01*
X149443339Y-86917043D01*
X149443343Y-86917042D01*
X149664375Y-86859673D01*
X149664380Y-86859671D01*
X149669540Y-86858332D01*
X149786636Y-86805584D01*
X149882619Y-86762347D01*
X149882622Y-86762346D01*
X149887480Y-86760157D01*
X150085762Y-86626666D01*
X150140913Y-86574055D01*
X150183353Y-86533569D01*
X150258718Y-86461674D01*
X150401402Y-86269900D01*
X150405980Y-86260897D01*
X150507314Y-86061586D01*
X150507314Y-86061585D01*
X150509733Y-86056828D01*
X150557706Y-85902330D01*
X150579032Y-85833651D01*
X150579033Y-85833645D01*
X150580616Y-85828548D01*
X150610215Y-85605231D01*
X150611323Y-85596873D01*
X150611323Y-85596869D01*
X150612023Y-85591589D01*
X150610676Y-85555697D01*
X150606888Y-85454831D01*
X150603055Y-85352726D01*
X150553970Y-85118789D01*
X150466171Y-84896467D01*
X150342168Y-84692117D01*
X150249764Y-84585631D01*
X150189007Y-84515614D01*
X150189005Y-84515612D01*
X150185507Y-84511581D01*
X150181381Y-84508198D01*
X150181377Y-84508194D01*
X150049410Y-84399989D01*
X150000667Y-84360022D01*
X149996031Y-84357383D01*
X149996028Y-84357381D01*
X149797577Y-84244416D01*
X149792934Y-84241773D01*
X149568247Y-84160216D01*
X149562998Y-84159267D01*
X149562995Y-84159266D01*
X149337115Y-84118420D01*
X149337107Y-84118419D01*
X149333031Y-84117682D01*
X149314641Y-84116815D01*
X149309456Y-84116570D01*
X149309449Y-84116570D01*
X149307968Y-84116500D01*
X149139988Y-84116500D01*
X148961825Y-84131617D01*
X148956661Y-84132957D01*
X148956657Y-84132958D01*
X148735625Y-84190327D01*
X148735620Y-84190329D01*
X148730460Y-84191668D01*
X148725594Y-84193860D01*
X148517381Y-84287653D01*
X148517378Y-84287654D01*
X148512520Y-84289843D01*
X148314238Y-84423334D01*
X148310381Y-84427013D01*
X148310379Y-84427015D01*
X148265398Y-84469925D01*
X148141282Y-84588326D01*
X147998598Y-84780100D01*
X147996182Y-84784851D01*
X147996180Y-84784855D01*
X147892686Y-84988414D01*
X147890267Y-84993172D01*
X147888147Y-85000000D01*
X147820968Y-85216349D01*
X147820967Y-85216355D01*
X147819384Y-85221452D01*
X147787977Y-85458411D01*
X146608000Y-85458411D01*
X146608000Y-84262611D01*
X146628002Y-84194490D01*
X146644905Y-84173515D01*
X147273517Y-83544904D01*
X147335829Y-83510879D01*
X147362612Y-83508000D01*
X173337389Y-83508000D01*
X173405510Y-83528002D01*
G37*
%TD.AperFunction*%
M02*
