%TF.GenerationSoftware,KiCad,Pcbnew,(6.0.1)*%
%TF.CreationDate,2022-03-21T17:48:04-07:00*%
%TF.ProjectId,CStick,43537469-636b-42e6-9b69-6361645f7063,rev?*%
%TF.SameCoordinates,Original*%
%TF.FileFunction,Copper,L2,Bot*%
%TF.FilePolarity,Positive*%
%FSLAX46Y46*%
G04 Gerber Fmt 4.6, Leading zero omitted, Abs format (unit mm)*
G04 Created by KiCad (PCBNEW (6.0.1)) date 2022-03-21 17:48:04*
%MOMM*%
%LPD*%
G01*
G04 APERTURE LIST*
G04 Aperture macros list*
%AMHorizOval*
0 Thick line with rounded ends*
0 $1 width*
0 $2 $3 position (X,Y) of the first rounded end (center of the circle)*
0 $4 $5 position (X,Y) of the second rounded end (center of the circle)*
0 Add line between two ends*
20,1,$1,$2,$3,$4,$5,0*
0 Add two circle primitives to create the rounded ends*
1,1,$1,$2,$3*
1,1,$1,$4,$5*%
G04 Aperture macros list end*
%TA.AperFunction,ComponentPad*%
%ADD10R,1.350000X1.350000*%
%TD*%
%TA.AperFunction,ComponentPad*%
%ADD11O,1.350000X1.350000*%
%TD*%
%TA.AperFunction,ComponentPad*%
%ADD12O,1.600000X2.600000*%
%TD*%
%TA.AperFunction,ComponentPad*%
%ADD13HorizOval,2.800000X-0.577898X0.161352X0.577898X-0.161352X0*%
%TD*%
%TA.AperFunction,ComponentPad*%
%ADD14O,0.700000X2.000000*%
%TD*%
%TA.AperFunction,ComponentPad*%
%ADD15O,0.800000X2.000000*%
%TD*%
%TA.AperFunction,ComponentPad*%
%ADD16O,2.000000X0.800000*%
%TD*%
G04 APERTURE END LIST*
D10*
X172100000Y-91000000D03*
D11*
X172100000Y-89000000D03*
X172100000Y-87000000D03*
X172100000Y-85000000D03*
D12*
X143250000Y-105650000D03*
D13*
X144070000Y-94520000D03*
D12*
X156750000Y-94350000D03*
D13*
X155930000Y-105480000D03*
D14*
X148730000Y-110600000D03*
D15*
X150000000Y-110600000D03*
X151270000Y-110600000D03*
D16*
X160600000Y-101270000D03*
X160600000Y-100000000D03*
X160600000Y-98730000D03*
%TA.AperFunction,Conductor*%
G36*
X173405510Y-83528002D02*
G01*
X173426485Y-83544905D01*
X174055096Y-84173517D01*
X174089121Y-84235829D01*
X174092000Y-84262612D01*
X174092000Y-92837388D01*
X174071998Y-92905509D01*
X174055096Y-92926483D01*
X173426485Y-93555095D01*
X173364172Y-93589120D01*
X173337389Y-93592000D01*
X170453207Y-93592000D01*
X170432303Y-93590254D01*
X170425562Y-93589120D01*
X170412539Y-93586929D01*
X170406373Y-93586854D01*
X170404865Y-93586835D01*
X170404860Y-93586835D01*
X170400000Y-93586776D01*
X170393794Y-93587665D01*
X170380297Y-93588861D01*
X169956790Y-93603516D01*
X169741601Y-93625927D01*
X169517885Y-93649225D01*
X169517872Y-93649227D01*
X169515700Y-93649453D01*
X169513545Y-93649829D01*
X169513534Y-93649831D01*
X169080979Y-93725395D01*
X169080970Y-93725397D01*
X169078840Y-93725769D01*
X169076746Y-93726286D01*
X169076742Y-93726287D01*
X168917388Y-93765643D01*
X168648300Y-93832100D01*
X168226141Y-93967937D01*
X168224134Y-93968740D01*
X168224125Y-93968743D01*
X168002714Y-94057302D01*
X167814380Y-94132631D01*
X167414989Y-94325394D01*
X167029878Y-94545303D01*
X167028069Y-94546509D01*
X167028061Y-94546514D01*
X166662703Y-94790096D01*
X166662691Y-94790105D01*
X166660889Y-94791306D01*
X166309787Y-95062227D01*
X166308162Y-95063671D01*
X166308158Y-95063674D01*
X166046445Y-95296185D01*
X165982234Y-95326475D01*
X165911841Y-95317242D01*
X165892930Y-95306868D01*
X165670961Y-95159047D01*
X165654534Y-95146010D01*
X165643473Y-95135619D01*
X165643472Y-95135618D01*
X165639925Y-95132286D01*
X165635913Y-95129543D01*
X165635907Y-95129538D01*
X165634383Y-95128496D01*
X165629573Y-95125208D01*
X165625179Y-95123111D01*
X165625174Y-95123108D01*
X165620900Y-95121068D01*
X165613781Y-95117388D01*
X165439876Y-95020350D01*
X165439872Y-95020348D01*
X165435558Y-95017941D01*
X165430912Y-95016235D01*
X165232168Y-94943262D01*
X165232163Y-94943261D01*
X165227515Y-94941554D01*
X165222659Y-94940596D01*
X165222656Y-94940595D01*
X165014940Y-94899610D01*
X165014936Y-94899609D01*
X165010083Y-94898652D01*
X165005134Y-94898465D01*
X165005132Y-94898465D01*
X164943889Y-94896154D01*
X164788617Y-94890293D01*
X164568569Y-94916682D01*
X164355359Y-94977168D01*
X164350884Y-94979240D01*
X164350877Y-94979242D01*
X164158730Y-95068183D01*
X164158727Y-95068185D01*
X164154237Y-95070263D01*
X164150121Y-95073023D01*
X164150120Y-95073023D01*
X164036010Y-95149524D01*
X163970153Y-95193675D01*
X163807642Y-95344364D01*
X163670704Y-95518620D01*
X163562712Y-95712153D01*
X163561006Y-95716801D01*
X163561004Y-95716804D01*
X163488914Y-95913147D01*
X163486325Y-95920197D01*
X163485368Y-95925049D01*
X163485366Y-95925055D01*
X163471190Y-95996903D01*
X163443424Y-96137628D01*
X163443237Y-96142579D01*
X163443237Y-96142580D01*
X163442447Y-96163498D01*
X163435064Y-96359095D01*
X163461452Y-96579142D01*
X163521938Y-96792352D01*
X163524017Y-96796843D01*
X163524019Y-96796849D01*
X163586139Y-96931053D01*
X163615033Y-96993475D01*
X163617789Y-96997585D01*
X163617789Y-96997586D01*
X163681102Y-97092025D01*
X163738445Y-97177558D01*
X163741809Y-97181186D01*
X163859250Y-97307841D01*
X163889134Y-97340070D01*
X163946791Y-97385379D01*
X164034125Y-97454010D01*
X164042534Y-97461238D01*
X164052556Y-97470654D01*
X164056569Y-97473398D01*
X164056573Y-97473401D01*
X164058883Y-97474980D01*
X164062908Y-97477732D01*
X164067306Y-97479831D01*
X164067308Y-97479832D01*
X164088064Y-97489737D01*
X164103637Y-97498579D01*
X164331445Y-97650288D01*
X164377056Y-97704694D01*
X164386013Y-97775123D01*
X164380977Y-97795485D01*
X164273474Y-98113722D01*
X164254794Y-98169018D01*
X164138453Y-98618304D01*
X164138045Y-98620535D01*
X164138043Y-98620543D01*
X164112810Y-98758436D01*
X164054914Y-99074828D01*
X164004615Y-99536199D01*
X164003589Y-99564527D01*
X163988941Y-99969042D01*
X163988050Y-99977799D01*
X163988171Y-99977810D01*
X163987735Y-99982670D01*
X163986929Y-99987461D01*
X163986856Y-99993462D01*
X163986814Y-99993730D01*
X163986849Y-99993999D01*
X163986776Y-100000000D01*
X163987465Y-100004814D01*
X163987466Y-100004823D01*
X163989676Y-100020257D01*
X163990904Y-100041446D01*
X163972546Y-100735917D01*
X163972194Y-100742567D01*
X163914149Y-101473110D01*
X163913446Y-101479732D01*
X163816889Y-102206166D01*
X163815838Y-102212742D01*
X163681029Y-102933098D01*
X163679631Y-102939609D01*
X163506960Y-103651798D01*
X163505221Y-103658226D01*
X163295154Y-104360330D01*
X163293077Y-104366657D01*
X163222567Y-104563743D01*
X163058797Y-105021502D01*
X163046219Y-105056658D01*
X163043814Y-105062859D01*
X162790114Y-105668933D01*
X162760832Y-105738885D01*
X162758105Y-105744944D01*
X162523641Y-106231198D01*
X162439808Y-106405060D01*
X162436758Y-106410980D01*
X162084038Y-107053341D01*
X162080680Y-107059092D01*
X161694500Y-107681946D01*
X161690842Y-107687511D01*
X161272311Y-108289066D01*
X161268365Y-108294430D01*
X160818627Y-108873044D01*
X160814403Y-108878192D01*
X160334719Y-109432242D01*
X160330228Y-109437159D01*
X159821945Y-109965089D01*
X159817201Y-109969763D01*
X159281741Y-110470095D01*
X159276757Y-110474511D01*
X158715617Y-110945850D01*
X158710407Y-110949997D01*
X158125128Y-111391044D01*
X158119706Y-111394910D01*
X157511931Y-111804429D01*
X157506349Y-111807978D01*
X156998879Y-112112216D01*
X156877797Y-112184807D01*
X156872004Y-112188075D01*
X156224425Y-112531167D01*
X156218465Y-112534125D01*
X155553680Y-112842517D01*
X155547568Y-112845159D01*
X154867398Y-113118005D01*
X154861159Y-113120318D01*
X154167515Y-113356850D01*
X154161190Y-113358822D01*
X153637193Y-113507106D01*
X153456022Y-113558375D01*
X153449569Y-113560018D01*
X153166393Y-113624210D01*
X152734854Y-113722033D01*
X152728335Y-113723330D01*
X152116486Y-113828397D01*
X152006077Y-113847356D01*
X151999486Y-113848310D01*
X151271646Y-113934006D01*
X151265017Y-113934609D01*
X151041983Y-113948980D01*
X150533714Y-113981729D01*
X150527059Y-113981982D01*
X150175462Y-113986021D01*
X149794240Y-113990400D01*
X149787593Y-113990300D01*
X149055382Y-113959990D01*
X149048746Y-113959539D01*
X148319127Y-113890583D01*
X148312548Y-113889785D01*
X147906511Y-113829627D01*
X147587625Y-113782381D01*
X147581066Y-113781232D01*
X147018451Y-113667217D01*
X146862796Y-113635673D01*
X146856320Y-113634181D01*
X146146782Y-113450886D01*
X146140382Y-113449051D01*
X145924208Y-113380837D01*
X145441494Y-113228516D01*
X145435203Y-113226346D01*
X145146073Y-113118005D01*
X144748949Y-112969197D01*
X144742782Y-112966698D01*
X144071082Y-112673655D01*
X144065057Y-112670835D01*
X143958680Y-112617568D01*
X143926272Y-112601340D01*
X143409777Y-112342713D01*
X143403903Y-112339575D01*
X142766865Y-111977285D01*
X142761166Y-111973841D01*
X142144166Y-111578406D01*
X142138665Y-111574672D01*
X141751460Y-111296596D01*
X147871500Y-111296596D01*
X147886583Y-111435437D01*
X147946078Y-111612223D01*
X148042147Y-111772109D01*
X148170308Y-111907636D01*
X148175951Y-111911471D01*
X148293149Y-111991118D01*
X148324582Y-112012480D01*
X148330911Y-112015012D01*
X148330914Y-112015013D01*
X148491430Y-112079215D01*
X148491432Y-112079216D01*
X148497771Y-112081751D01*
X148608033Y-112100005D01*
X148675058Y-112111101D01*
X148675061Y-112111101D01*
X148681795Y-112112216D01*
X148688611Y-112111859D01*
X148688615Y-112111859D01*
X148833475Y-112104266D01*
X148868067Y-112102453D01*
X149047898Y-112052920D01*
X149212898Y-111965925D01*
X149218111Y-111961520D01*
X149218115Y-111961517D01*
X149274518Y-111913852D01*
X149339459Y-111885160D01*
X149409603Y-111896133D01*
X149429907Y-111908154D01*
X149538157Y-111986802D01*
X149549529Y-111993368D01*
X149711839Y-112065633D01*
X149724325Y-112069690D01*
X149728278Y-112070530D01*
X149742341Y-112069457D01*
X149746000Y-112059503D01*
X149746000Y-112056182D01*
X150254000Y-112056182D01*
X150257973Y-112069713D01*
X150268468Y-112071222D01*
X150275675Y-112069690D01*
X150288161Y-112065633D01*
X150450471Y-111993368D01*
X150461843Y-111986802D01*
X150560515Y-111915113D01*
X150627383Y-111891254D01*
X150696535Y-111907335D01*
X150708637Y-111915113D01*
X150807308Y-111986802D01*
X150813248Y-111991118D01*
X150819276Y-111993802D01*
X150819278Y-111993803D01*
X150966844Y-112059503D01*
X150987712Y-112068794D01*
X151081113Y-112088647D01*
X151168056Y-112107128D01*
X151168061Y-112107128D01*
X151174513Y-112108500D01*
X151365487Y-112108500D01*
X151371939Y-112107128D01*
X151371944Y-112107128D01*
X151458887Y-112088647D01*
X151552288Y-112068794D01*
X151573156Y-112059503D01*
X151720722Y-111993803D01*
X151720724Y-111993802D01*
X151726752Y-111991118D01*
X151732693Y-111986802D01*
X151836376Y-111911471D01*
X151881253Y-111878866D01*
X151911270Y-111845529D01*
X152004621Y-111741852D01*
X152004622Y-111741851D01*
X152009040Y-111736944D01*
X152104527Y-111571556D01*
X152163542Y-111389928D01*
X152178500Y-111247610D01*
X152178500Y-109952390D01*
X152163542Y-109810072D01*
X152104527Y-109628444D01*
X152009040Y-109463056D01*
X151983560Y-109434757D01*
X151885675Y-109326045D01*
X151885674Y-109326044D01*
X151881253Y-109321134D01*
X151757043Y-109230890D01*
X151732094Y-109212763D01*
X151732093Y-109212762D01*
X151726752Y-109208882D01*
X151720724Y-109206198D01*
X151720722Y-109206197D01*
X151558319Y-109133891D01*
X151558318Y-109133891D01*
X151552288Y-109131206D01*
X151458888Y-109111353D01*
X151371944Y-109092872D01*
X151371939Y-109092872D01*
X151365487Y-109091500D01*
X151174513Y-109091500D01*
X151168061Y-109092872D01*
X151168056Y-109092872D01*
X151081112Y-109111353D01*
X150987712Y-109131206D01*
X150981682Y-109133891D01*
X150981681Y-109133891D01*
X150819278Y-109206197D01*
X150819276Y-109206198D01*
X150813248Y-109208882D01*
X150807907Y-109212762D01*
X150807906Y-109212763D01*
X150708637Y-109284887D01*
X150641770Y-109308745D01*
X150572618Y-109292665D01*
X150560515Y-109284887D01*
X150461843Y-109213198D01*
X150450471Y-109206632D01*
X150288161Y-109134367D01*
X150275675Y-109130310D01*
X150271722Y-109129470D01*
X150257659Y-109130543D01*
X150254000Y-109140497D01*
X150254000Y-112056182D01*
X149746000Y-112056182D01*
X149746000Y-109143818D01*
X149742027Y-109130287D01*
X149731532Y-109128778D01*
X149724325Y-109130310D01*
X149711839Y-109134367D01*
X149549529Y-109206632D01*
X149538157Y-109213198D01*
X149433413Y-109289299D01*
X149366545Y-109313158D01*
X149297394Y-109297077D01*
X149288552Y-109291589D01*
X149135418Y-109187520D01*
X149129089Y-109184988D01*
X149129086Y-109184987D01*
X148968570Y-109120785D01*
X148968568Y-109120784D01*
X148962229Y-109118249D01*
X148848124Y-109099359D01*
X148784942Y-109088899D01*
X148784939Y-109088899D01*
X148778205Y-109087784D01*
X148771389Y-109088141D01*
X148771385Y-109088141D01*
X148626525Y-109095734D01*
X148591933Y-109097547D01*
X148412102Y-109147080D01*
X148247102Y-109234075D01*
X148241889Y-109238480D01*
X148241885Y-109238483D01*
X148109847Y-109350064D01*
X148109843Y-109350068D01*
X148104633Y-109354471D01*
X148100486Y-109359895D01*
X148100485Y-109359896D01*
X147995484Y-109497231D01*
X147995481Y-109497235D01*
X147991340Y-109502652D01*
X147912510Y-109671704D01*
X147871820Y-109853740D01*
X147871500Y-109859463D01*
X147871500Y-111296596D01*
X141751460Y-111296596D01*
X141543420Y-111147190D01*
X141538133Y-111143178D01*
X140966280Y-110684827D01*
X140961196Y-110680526D01*
X140414381Y-110192622D01*
X140409531Y-110188058D01*
X139889265Y-109671952D01*
X139884663Y-109667139D01*
X139392395Y-109124270D01*
X139388053Y-109119221D01*
X138925128Y-108551072D01*
X138921060Y-108545800D01*
X138488823Y-107954018D01*
X138485039Y-107948538D01*
X138084655Y-107334722D01*
X138081165Y-107329050D01*
X137713784Y-106694961D01*
X137710599Y-106689113D01*
X137464392Y-106207127D01*
X141941500Y-106207127D01*
X141956457Y-106378087D01*
X142015716Y-106599243D01*
X142018039Y-106604224D01*
X142018039Y-106604225D01*
X142110151Y-106801762D01*
X142110154Y-106801767D01*
X142112477Y-106806749D01*
X142243802Y-106994300D01*
X142405700Y-107156198D01*
X142410208Y-107159355D01*
X142410211Y-107159357D01*
X142488389Y-107214098D01*
X142593251Y-107287523D01*
X142598233Y-107289846D01*
X142598238Y-107289849D01*
X142795775Y-107381961D01*
X142800757Y-107384284D01*
X142806065Y-107385706D01*
X142806067Y-107385707D01*
X143016598Y-107442119D01*
X143016600Y-107442119D01*
X143021913Y-107443543D01*
X143250000Y-107463498D01*
X143478087Y-107443543D01*
X143483400Y-107442119D01*
X143483402Y-107442119D01*
X143693933Y-107385707D01*
X143693935Y-107385706D01*
X143699243Y-107384284D01*
X143704225Y-107381961D01*
X143901762Y-107289849D01*
X143901767Y-107289846D01*
X143906749Y-107287523D01*
X144011611Y-107214098D01*
X144089789Y-107159357D01*
X144089792Y-107159355D01*
X144094300Y-107156198D01*
X144256198Y-106994300D01*
X144387523Y-106806749D01*
X144389846Y-106801767D01*
X144389849Y-106801762D01*
X144481961Y-106604225D01*
X144481961Y-106604224D01*
X144484284Y-106599243D01*
X144543543Y-106378087D01*
X144558500Y-106207127D01*
X144558500Y-105092873D01*
X144555607Y-105059799D01*
X144550105Y-104996913D01*
X144543543Y-104921913D01*
X144542119Y-104916598D01*
X144485707Y-104706067D01*
X144485706Y-104706065D01*
X144484284Y-104700757D01*
X144481961Y-104695775D01*
X144389849Y-104498238D01*
X144389846Y-104498233D01*
X144387523Y-104493251D01*
X144296681Y-104363516D01*
X144259357Y-104310211D01*
X144259355Y-104310208D01*
X144256198Y-104305700D01*
X144094300Y-104143802D01*
X144089792Y-104140645D01*
X144089789Y-104140643D01*
X143922481Y-104023493D01*
X143906749Y-104012477D01*
X143901767Y-104010154D01*
X143901762Y-104010151D01*
X143704225Y-103918039D01*
X143704224Y-103918039D01*
X143699243Y-103915716D01*
X143693935Y-103914294D01*
X143693933Y-103914293D01*
X143483402Y-103857881D01*
X143483400Y-103857881D01*
X143478087Y-103856457D01*
X143250000Y-103836502D01*
X143021913Y-103856457D01*
X143016600Y-103857881D01*
X143016598Y-103857881D01*
X142806067Y-103914293D01*
X142806065Y-103914294D01*
X142800757Y-103915716D01*
X142795776Y-103918039D01*
X142795775Y-103918039D01*
X142598238Y-104010151D01*
X142598233Y-104010154D01*
X142593251Y-104012477D01*
X142577519Y-104023493D01*
X142410211Y-104140643D01*
X142410208Y-104140645D01*
X142405700Y-104143802D01*
X142243802Y-104305700D01*
X142240645Y-104310208D01*
X142240643Y-104310211D01*
X142203319Y-104363516D01*
X142112477Y-104493251D01*
X142110154Y-104498233D01*
X142110151Y-104498238D01*
X142018039Y-104695775D01*
X142015716Y-104700757D01*
X142014294Y-104706065D01*
X142014293Y-104706067D01*
X141957881Y-104916598D01*
X141956457Y-104921913D01*
X141949895Y-104996913D01*
X141944394Y-105059799D01*
X141941500Y-105092873D01*
X141941500Y-106207127D01*
X137464392Y-106207127D01*
X137377230Y-106036495D01*
X137374358Y-106030487D01*
X137075925Y-105361147D01*
X137073375Y-105354995D01*
X136810726Y-104670831D01*
X136808505Y-104664553D01*
X136638144Y-104139400D01*
X136582370Y-103967474D01*
X136580487Y-103961099D01*
X136553093Y-103858463D01*
X136438783Y-103430196D01*
X136391501Y-103253050D01*
X136389954Y-103246574D01*
X136296309Y-102802817D01*
X148487514Y-102802817D01*
X148488095Y-102807837D01*
X148488095Y-102807841D01*
X148503923Y-102944631D01*
X148515415Y-103043956D01*
X148516791Y-103048820D01*
X148516792Y-103048823D01*
X148562476Y-103210266D01*
X148581510Y-103277532D01*
X148583644Y-103282108D01*
X148583646Y-103282114D01*
X148667310Y-103461532D01*
X148684099Y-103497536D01*
X148820544Y-103698307D01*
X148987332Y-103874681D01*
X149165987Y-104011273D01*
X149207954Y-104068536D01*
X149212299Y-104139400D01*
X149177643Y-104201363D01*
X149161729Y-104214580D01*
X149160214Y-104215641D01*
X149155700Y-104218802D01*
X148993802Y-104380700D01*
X148862477Y-104568251D01*
X148860154Y-104573233D01*
X148860151Y-104573238D01*
X148814643Y-104670831D01*
X148765716Y-104775757D01*
X148706457Y-104996913D01*
X148686502Y-105225000D01*
X148706457Y-105453087D01*
X148707881Y-105458400D01*
X148707881Y-105458402D01*
X148758628Y-105647789D01*
X148765716Y-105674243D01*
X148768039Y-105679224D01*
X148768039Y-105679225D01*
X148860151Y-105876762D01*
X148860154Y-105876767D01*
X148862477Y-105881749D01*
X148902213Y-105938498D01*
X148970832Y-106036495D01*
X148993802Y-106069300D01*
X149155700Y-106231198D01*
X149160208Y-106234355D01*
X149160211Y-106234357D01*
X149238389Y-106289098D01*
X149343251Y-106362523D01*
X149348233Y-106364846D01*
X149348238Y-106364849D01*
X149545775Y-106456961D01*
X149550757Y-106459284D01*
X149556065Y-106460706D01*
X149556067Y-106460707D01*
X149766598Y-106517119D01*
X149766600Y-106517119D01*
X149771913Y-106518543D01*
X149871480Y-106527254D01*
X149940149Y-106533262D01*
X149940156Y-106533262D01*
X149942873Y-106533500D01*
X150057127Y-106533500D01*
X150059844Y-106533262D01*
X150059851Y-106533262D01*
X150128520Y-106527254D01*
X150228087Y-106518543D01*
X150233400Y-106517119D01*
X150233402Y-106517119D01*
X150443933Y-106460707D01*
X150443935Y-106460706D01*
X150449243Y-106459284D01*
X150454225Y-106456961D01*
X150651762Y-106364849D01*
X150651767Y-106364846D01*
X150656749Y-106362523D01*
X150761611Y-106289098D01*
X150839789Y-106234357D01*
X150839792Y-106234355D01*
X150844300Y-106231198D01*
X151006198Y-106069300D01*
X151029169Y-106036495D01*
X151097787Y-105938498D01*
X151137523Y-105881749D01*
X151139846Y-105876767D01*
X151139849Y-105876762D01*
X151231961Y-105679225D01*
X151231961Y-105679224D01*
X151234284Y-105674243D01*
X151241373Y-105647789D01*
X151292119Y-105458402D01*
X151292119Y-105458400D01*
X151293543Y-105453087D01*
X151298586Y-105395444D01*
X153440038Y-105395444D01*
X153471152Y-105670659D01*
X153541668Y-105938498D01*
X153543454Y-105942696D01*
X153543455Y-105942698D01*
X153598984Y-106073197D01*
X153650111Y-106193353D01*
X153675091Y-106234357D01*
X153782691Y-106410980D01*
X153794207Y-106429884D01*
X153797111Y-106433388D01*
X153797113Y-106433391D01*
X153968026Y-106639624D01*
X153968031Y-106639629D01*
X153970938Y-106643137D01*
X153974326Y-106646193D01*
X153974327Y-106646194D01*
X154157328Y-106811257D01*
X154176603Y-106828643D01*
X154406892Y-106982518D01*
X154431649Y-106994300D01*
X154653511Y-107099885D01*
X154653516Y-107099887D01*
X154656983Y-107101537D01*
X154660623Y-107102751D01*
X154660627Y-107102753D01*
X154686404Y-107111353D01*
X154740104Y-107129268D01*
X154741629Y-107129694D01*
X154741633Y-107129695D01*
X155069460Y-107221226D01*
X156062429Y-107498468D01*
X156264747Y-107539446D01*
X156269299Y-107539697D01*
X156269303Y-107539697D01*
X156466095Y-107550527D01*
X156541295Y-107554666D01*
X156545843Y-107554256D01*
X156545848Y-107554256D01*
X156720227Y-107538539D01*
X156817144Y-107529804D01*
X157086515Y-107465382D01*
X157343764Y-107362750D01*
X157583504Y-107224057D01*
X157587078Y-107221230D01*
X157587083Y-107221226D01*
X157797133Y-107055040D01*
X157797135Y-107055039D01*
X157800711Y-107052209D01*
X157990835Y-106850806D01*
X158018579Y-106811257D01*
X158147278Y-106627798D01*
X158147280Y-106627795D01*
X158149895Y-106624067D01*
X158274557Y-106376742D01*
X158362211Y-106114010D01*
X158411020Y-105841378D01*
X158416591Y-105668933D01*
X158419815Y-105569117D01*
X158419815Y-105569112D01*
X158419962Y-105564556D01*
X158388848Y-105289342D01*
X158371909Y-105225000D01*
X158319493Y-105025912D01*
X158318332Y-105021502D01*
X158275956Y-104921913D01*
X158211679Y-104770853D01*
X158211677Y-104770849D01*
X158209889Y-104766647D01*
X158098167Y-104583258D01*
X158068163Y-104534006D01*
X158068162Y-104534004D01*
X158065793Y-104530116D01*
X157889062Y-104316864D01*
X157876685Y-104305700D01*
X157686791Y-104134418D01*
X157686788Y-104134416D01*
X157683397Y-104131357D01*
X157453108Y-103977482D01*
X157243566Y-103877760D01*
X157206494Y-103860117D01*
X157206491Y-103860116D01*
X157203018Y-103858463D01*
X157119896Y-103830732D01*
X157118392Y-103830312D01*
X157118382Y-103830309D01*
X155941501Y-103501718D01*
X155797571Y-103461532D01*
X155595253Y-103420554D01*
X155590701Y-103420303D01*
X155590697Y-103420303D01*
X155393905Y-103409473D01*
X155318705Y-103405334D01*
X155314157Y-103405744D01*
X155314152Y-103405744D01*
X155161538Y-103419499D01*
X155042856Y-103430196D01*
X154916889Y-103460322D01*
X154780443Y-103492954D01*
X154773485Y-103494618D01*
X154516236Y-103597250D01*
X154276496Y-103735943D01*
X154059290Y-103907791D01*
X153869165Y-104109194D01*
X153866545Y-104112929D01*
X153866544Y-104112930D01*
X153725627Y-104313807D01*
X153710105Y-104335933D01*
X153585443Y-104583258D01*
X153497789Y-104845990D01*
X153448980Y-105118622D01*
X153448833Y-105123182D01*
X153448832Y-105123189D01*
X153441244Y-105358109D01*
X153440038Y-105395444D01*
X151298586Y-105395444D01*
X151313498Y-105225000D01*
X151293543Y-104996913D01*
X151234284Y-104775757D01*
X151185357Y-104670831D01*
X151139849Y-104573238D01*
X151139846Y-104573233D01*
X151137523Y-104568251D01*
X151006198Y-104380700D01*
X150844300Y-104218802D01*
X150838271Y-104214580D01*
X150835914Y-104212930D01*
X150791586Y-104157472D01*
X150784277Y-104086853D01*
X150816308Y-104023493D01*
X150841042Y-104003097D01*
X150902288Y-103964528D01*
X150902291Y-103964526D01*
X150906567Y-103961833D01*
X151005422Y-103874681D01*
X151084858Y-103804650D01*
X151084861Y-103804647D01*
X151088655Y-103801302D01*
X151176696Y-103694119D01*
X151239526Y-103617628D01*
X151239528Y-103617625D01*
X151242734Y-103613722D01*
X151331311Y-103461532D01*
X151362299Y-103408290D01*
X151362300Y-103408288D01*
X151364841Y-103403922D01*
X151422755Y-103253050D01*
X151450020Y-103182022D01*
X151450021Y-103182018D01*
X151451833Y-103177298D01*
X151501474Y-102939680D01*
X151512486Y-102697183D01*
X151497235Y-102565373D01*
X151485167Y-102461071D01*
X151485166Y-102461067D01*
X151484585Y-102456044D01*
X151445517Y-102317978D01*
X151419866Y-102227331D01*
X151418490Y-102222468D01*
X151416356Y-102217892D01*
X151416354Y-102217886D01*
X151318038Y-102007046D01*
X151318036Y-102007042D01*
X151315901Y-102002464D01*
X151179456Y-101801693D01*
X151012668Y-101625319D01*
X150917148Y-101552288D01*
X150823846Y-101480953D01*
X150823842Y-101480950D01*
X150819826Y-101477880D01*
X150610214Y-101365487D01*
X159091500Y-101365487D01*
X159092872Y-101371939D01*
X159092872Y-101371944D01*
X159111353Y-101458888D01*
X159131206Y-101552288D01*
X159133891Y-101558318D01*
X159133891Y-101558319D01*
X159196392Y-101698698D01*
X159208882Y-101726752D01*
X159321134Y-101881253D01*
X159326044Y-101885674D01*
X159326045Y-101885675D01*
X159455753Y-102002464D01*
X159463056Y-102009040D01*
X159628444Y-102104527D01*
X159810072Y-102163542D01*
X159816633Y-102164232D01*
X159816635Y-102164232D01*
X159869889Y-102169829D01*
X159952390Y-102178500D01*
X161247610Y-102178500D01*
X161330111Y-102169829D01*
X161383365Y-102164232D01*
X161383367Y-102164232D01*
X161389928Y-102163542D01*
X161571556Y-102104527D01*
X161736944Y-102009040D01*
X161744248Y-102002464D01*
X161873955Y-101885675D01*
X161873956Y-101885674D01*
X161878866Y-101881253D01*
X161991118Y-101726752D01*
X162003609Y-101698698D01*
X162066109Y-101558319D01*
X162066109Y-101558318D01*
X162068794Y-101552288D01*
X162088647Y-101458888D01*
X162107128Y-101371944D01*
X162107128Y-101371939D01*
X162108500Y-101365487D01*
X162108500Y-101174513D01*
X162068794Y-100987712D01*
X161991118Y-100813248D01*
X161915113Y-100708636D01*
X161891255Y-100641770D01*
X161907335Y-100572618D01*
X161915113Y-100560515D01*
X161986802Y-100461843D01*
X161993368Y-100450471D01*
X162065633Y-100288161D01*
X162069690Y-100275675D01*
X162070530Y-100271722D01*
X162069457Y-100257659D01*
X162059503Y-100254000D01*
X159143818Y-100254000D01*
X159130287Y-100257973D01*
X159128778Y-100268468D01*
X159130310Y-100275675D01*
X159134367Y-100288161D01*
X159206632Y-100450471D01*
X159213198Y-100461843D01*
X159284887Y-100560515D01*
X159308746Y-100627383D01*
X159292665Y-100696535D01*
X159284890Y-100708633D01*
X159208882Y-100813248D01*
X159131206Y-100987712D01*
X159091500Y-101174513D01*
X159091500Y-101365487D01*
X150610214Y-101365487D01*
X150605891Y-101363169D01*
X150376369Y-101284138D01*
X150277022Y-101266978D01*
X150141074Y-101243496D01*
X150141068Y-101243495D01*
X150137164Y-101242821D01*
X150133203Y-101242641D01*
X150133202Y-101242641D01*
X150109494Y-101241564D01*
X150109475Y-101241564D01*
X150108075Y-101241500D01*
X149938999Y-101241500D01*
X149936491Y-101241702D01*
X149936486Y-101241702D01*
X149763076Y-101255654D01*
X149763071Y-101255655D01*
X149758035Y-101256060D01*
X149753127Y-101257266D01*
X149753124Y-101257266D01*
X149637007Y-101285787D01*
X149522294Y-101313963D01*
X149517642Y-101315938D01*
X149517638Y-101315939D01*
X149416467Y-101358884D01*
X149298844Y-101408812D01*
X149294560Y-101411510D01*
X149097712Y-101535472D01*
X149097709Y-101535474D01*
X149093433Y-101538167D01*
X149089639Y-101541512D01*
X148915142Y-101695350D01*
X148915139Y-101695353D01*
X148911345Y-101698698D01*
X148908135Y-101702606D01*
X148908134Y-101702607D01*
X148761394Y-101881253D01*
X148757266Y-101886278D01*
X148696213Y-101991178D01*
X148685817Y-102009040D01*
X148635159Y-102096078D01*
X148633346Y-102100801D01*
X148592901Y-102206166D01*
X148548167Y-102322702D01*
X148547133Y-102327652D01*
X148547132Y-102327655D01*
X148505642Y-102526259D01*
X148498526Y-102560320D01*
X148487514Y-102802817D01*
X136296309Y-102802817D01*
X136238631Y-102529495D01*
X136237432Y-102522961D01*
X136206892Y-102327655D01*
X136124214Y-101798934D01*
X136123359Y-101792330D01*
X136048548Y-101063300D01*
X136048044Y-101056660D01*
X136011857Y-100324722D01*
X136011704Y-100318065D01*
X136013693Y-99742341D01*
X136014237Y-99585210D01*
X136014434Y-99578590D01*
X136055683Y-98846898D01*
X136056233Y-98840263D01*
X136057853Y-98825487D01*
X159091500Y-98825487D01*
X159092872Y-98831939D01*
X159092872Y-98831944D01*
X159096051Y-98846900D01*
X159131206Y-99012288D01*
X159133891Y-99018318D01*
X159133891Y-99018319D01*
X159160057Y-99077088D01*
X159208882Y-99186752D01*
X159212762Y-99192093D01*
X159212763Y-99192094D01*
X159284887Y-99291363D01*
X159308745Y-99358230D01*
X159292665Y-99427382D01*
X159284887Y-99439485D01*
X159213198Y-99538157D01*
X159206632Y-99549529D01*
X159134367Y-99711839D01*
X159130310Y-99724325D01*
X159129470Y-99728278D01*
X159130543Y-99742341D01*
X159140497Y-99746000D01*
X162056182Y-99746000D01*
X162069713Y-99742027D01*
X162071222Y-99731532D01*
X162069690Y-99724325D01*
X162065633Y-99711839D01*
X161993368Y-99549529D01*
X161986802Y-99538157D01*
X161915113Y-99439485D01*
X161891254Y-99372617D01*
X161907335Y-99303465D01*
X161915113Y-99291363D01*
X161987237Y-99192094D01*
X161987238Y-99192093D01*
X161991118Y-99186752D01*
X162039944Y-99077088D01*
X162066109Y-99018319D01*
X162066109Y-99018318D01*
X162068794Y-99012288D01*
X162103949Y-98846900D01*
X162107128Y-98831944D01*
X162107128Y-98831939D01*
X162108500Y-98825487D01*
X162108500Y-98634513D01*
X162104587Y-98616100D01*
X162072368Y-98464528D01*
X162068794Y-98447712D01*
X162005099Y-98304650D01*
X161993803Y-98279278D01*
X161993802Y-98279276D01*
X161991118Y-98273248D01*
X161878866Y-98118747D01*
X161873285Y-98113722D01*
X161741852Y-97995379D01*
X161741851Y-97995378D01*
X161736944Y-97990960D01*
X161571556Y-97895473D01*
X161389928Y-97836458D01*
X161383367Y-97835768D01*
X161383365Y-97835768D01*
X161330111Y-97830171D01*
X161247610Y-97821500D01*
X159952390Y-97821500D01*
X159869889Y-97830171D01*
X159816635Y-97835768D01*
X159816633Y-97835768D01*
X159810072Y-97836458D01*
X159628444Y-97895473D01*
X159463056Y-97990960D01*
X159458149Y-97995378D01*
X159458148Y-97995379D01*
X159326715Y-98113722D01*
X159321134Y-98118747D01*
X159208882Y-98273248D01*
X159206198Y-98279276D01*
X159206197Y-98279278D01*
X159194901Y-98304650D01*
X159131206Y-98447712D01*
X159127632Y-98464528D01*
X159095414Y-98616100D01*
X159091500Y-98634513D01*
X159091500Y-98825487D01*
X136057853Y-98825487D01*
X136136082Y-98111781D01*
X136136982Y-98105184D01*
X136255207Y-97381929D01*
X136256455Y-97375387D01*
X136264957Y-97336436D01*
X136272295Y-97302817D01*
X148487514Y-97302817D01*
X148488095Y-97307837D01*
X148488095Y-97307841D01*
X148513602Y-97528284D01*
X148515415Y-97543956D01*
X148516791Y-97548820D01*
X148516792Y-97548823D01*
X148560899Y-97704694D01*
X148581510Y-97777532D01*
X148583644Y-97782108D01*
X148583646Y-97782114D01*
X148681962Y-97992954D01*
X148684099Y-97997536D01*
X148820544Y-98198307D01*
X148987332Y-98374681D01*
X148991358Y-98377759D01*
X148991359Y-98377760D01*
X149176154Y-98519047D01*
X149176158Y-98519050D01*
X149180174Y-98522120D01*
X149394109Y-98636831D01*
X149623631Y-98715862D01*
X149722978Y-98733022D01*
X149858926Y-98756504D01*
X149858932Y-98756505D01*
X149862836Y-98757179D01*
X149866797Y-98757359D01*
X149866798Y-98757359D01*
X149890506Y-98758436D01*
X149890525Y-98758436D01*
X149891925Y-98758500D01*
X150061001Y-98758500D01*
X150063509Y-98758298D01*
X150063514Y-98758298D01*
X150236924Y-98744346D01*
X150236929Y-98744345D01*
X150241965Y-98743940D01*
X150246873Y-98742734D01*
X150246876Y-98742734D01*
X150472792Y-98687244D01*
X150477706Y-98686037D01*
X150482358Y-98684062D01*
X150482362Y-98684061D01*
X150696498Y-98593165D01*
X150701156Y-98591188D01*
X150807037Y-98524511D01*
X150902288Y-98464528D01*
X150902291Y-98464526D01*
X150906567Y-98461833D01*
X151005422Y-98374681D01*
X151084858Y-98304650D01*
X151084861Y-98304647D01*
X151088655Y-98301302D01*
X151199082Y-98166865D01*
X151239526Y-98117628D01*
X151239528Y-98117625D01*
X151242734Y-98113722D01*
X151313023Y-97992954D01*
X151362299Y-97908290D01*
X151362300Y-97908288D01*
X151364841Y-97903922D01*
X151415224Y-97772669D01*
X151450020Y-97682022D01*
X151450021Y-97682018D01*
X151451833Y-97677298D01*
X151482964Y-97528284D01*
X151500440Y-97444631D01*
X151500440Y-97444627D01*
X151501474Y-97439680D01*
X151512486Y-97197183D01*
X151511759Y-97190896D01*
X151485167Y-96961071D01*
X151485166Y-96961067D01*
X151484585Y-96956044D01*
X151445517Y-96817978D01*
X151419866Y-96727331D01*
X151418490Y-96722468D01*
X151416356Y-96717892D01*
X151416354Y-96717886D01*
X151318038Y-96507046D01*
X151318036Y-96507042D01*
X151315901Y-96502464D01*
X151179456Y-96301693D01*
X151012668Y-96125319D01*
X150834013Y-95988727D01*
X150792046Y-95931464D01*
X150787701Y-95860600D01*
X150822357Y-95798637D01*
X150838271Y-95785420D01*
X150839786Y-95784359D01*
X150839788Y-95784357D01*
X150844300Y-95781198D01*
X151006198Y-95619300D01*
X151137523Y-95431749D01*
X151139846Y-95426767D01*
X151139849Y-95426762D01*
X151231961Y-95229225D01*
X151231961Y-95229224D01*
X151234284Y-95224243D01*
X151253804Y-95151396D01*
X151292119Y-95008402D01*
X151292119Y-95008400D01*
X151293543Y-95003087D01*
X151301938Y-94907127D01*
X155441500Y-94907127D01*
X155456457Y-95078087D01*
X155457881Y-95083400D01*
X155457881Y-95083402D01*
X155496955Y-95229225D01*
X155515716Y-95299243D01*
X155518039Y-95304224D01*
X155518039Y-95304225D01*
X155610151Y-95501762D01*
X155610154Y-95501767D01*
X155612477Y-95506749D01*
X155650621Y-95561224D01*
X155735986Y-95683137D01*
X155743802Y-95694300D01*
X155905700Y-95856198D01*
X155910208Y-95859355D01*
X155910211Y-95859357D01*
X155966080Y-95898477D01*
X156093251Y-95987523D01*
X156098233Y-95989846D01*
X156098238Y-95989849D01*
X156274375Y-96071982D01*
X156300757Y-96084284D01*
X156306065Y-96085706D01*
X156306067Y-96085707D01*
X156516598Y-96142119D01*
X156516600Y-96142119D01*
X156521913Y-96143543D01*
X156750000Y-96163498D01*
X156978087Y-96143543D01*
X156983400Y-96142119D01*
X156983402Y-96142119D01*
X157193933Y-96085707D01*
X157193935Y-96085706D01*
X157199243Y-96084284D01*
X157225625Y-96071982D01*
X157401762Y-95989849D01*
X157401767Y-95989846D01*
X157406749Y-95987523D01*
X157533920Y-95898477D01*
X157589789Y-95859357D01*
X157589792Y-95859355D01*
X157594300Y-95856198D01*
X157756198Y-95694300D01*
X157764015Y-95683137D01*
X157849379Y-95561224D01*
X157887523Y-95506749D01*
X157889846Y-95501767D01*
X157889849Y-95501762D01*
X157981961Y-95304225D01*
X157981961Y-95304224D01*
X157984284Y-95299243D01*
X158003046Y-95229225D01*
X158042119Y-95083402D01*
X158042119Y-95083400D01*
X158043543Y-95078087D01*
X158058500Y-94907127D01*
X158058500Y-93792873D01*
X158043543Y-93621913D01*
X158038614Y-93603516D01*
X157985707Y-93406067D01*
X157985706Y-93406065D01*
X157984284Y-93400757D01*
X157974608Y-93380007D01*
X157889849Y-93198238D01*
X157889846Y-93198233D01*
X157887523Y-93193251D01*
X157791064Y-93055493D01*
X157759357Y-93010211D01*
X157759355Y-93010208D01*
X157756198Y-93005700D01*
X157594300Y-92843802D01*
X157589792Y-92840645D01*
X157589789Y-92840643D01*
X157501431Y-92778774D01*
X157406749Y-92712477D01*
X157401767Y-92710154D01*
X157401762Y-92710151D01*
X157204225Y-92618039D01*
X157204224Y-92618039D01*
X157199243Y-92615716D01*
X157193935Y-92614294D01*
X157193933Y-92614293D01*
X156983402Y-92557881D01*
X156983400Y-92557881D01*
X156978087Y-92556457D01*
X156750000Y-92536502D01*
X156521913Y-92556457D01*
X156516600Y-92557881D01*
X156516598Y-92557881D01*
X156306067Y-92614293D01*
X156306065Y-92614294D01*
X156300757Y-92615716D01*
X156295776Y-92618039D01*
X156295775Y-92618039D01*
X156098238Y-92710151D01*
X156098233Y-92710154D01*
X156093251Y-92712477D01*
X155998569Y-92778774D01*
X155910211Y-92840643D01*
X155910208Y-92840645D01*
X155905700Y-92843802D01*
X155743802Y-93005700D01*
X155740645Y-93010208D01*
X155740643Y-93010211D01*
X155708936Y-93055493D01*
X155612477Y-93193251D01*
X155610154Y-93198233D01*
X155610151Y-93198238D01*
X155525392Y-93380007D01*
X155515716Y-93400757D01*
X155514294Y-93406065D01*
X155514293Y-93406067D01*
X155461386Y-93603516D01*
X155456457Y-93621913D01*
X155441500Y-93792873D01*
X155441500Y-94907127D01*
X151301938Y-94907127D01*
X151313498Y-94775000D01*
X151293543Y-94546913D01*
X151292119Y-94541598D01*
X151235707Y-94331067D01*
X151235706Y-94331065D01*
X151234284Y-94325757D01*
X151158478Y-94163189D01*
X151139849Y-94123238D01*
X151139846Y-94123233D01*
X151137523Y-94118251D01*
X151006198Y-93930700D01*
X150844300Y-93768802D01*
X150839792Y-93765645D01*
X150839789Y-93765643D01*
X150673852Y-93649453D01*
X150656749Y-93637477D01*
X150651767Y-93635154D01*
X150651762Y-93635151D01*
X150454225Y-93543039D01*
X150454224Y-93543039D01*
X150449243Y-93540716D01*
X150443935Y-93539294D01*
X150443933Y-93539293D01*
X150233402Y-93482881D01*
X150233400Y-93482881D01*
X150228087Y-93481457D01*
X150128520Y-93472746D01*
X150059851Y-93466738D01*
X150059844Y-93466738D01*
X150057127Y-93466500D01*
X149942873Y-93466500D01*
X149940156Y-93466738D01*
X149940149Y-93466738D01*
X149871480Y-93472746D01*
X149771913Y-93481457D01*
X149766600Y-93482881D01*
X149766598Y-93482881D01*
X149556067Y-93539293D01*
X149556065Y-93539294D01*
X149550757Y-93540716D01*
X149545776Y-93543039D01*
X149545775Y-93543039D01*
X149348238Y-93635151D01*
X149348233Y-93635154D01*
X149343251Y-93637477D01*
X149326148Y-93649453D01*
X149160211Y-93765643D01*
X149160208Y-93765645D01*
X149155700Y-93768802D01*
X148993802Y-93930700D01*
X148862477Y-94118251D01*
X148860154Y-94123233D01*
X148860151Y-94123238D01*
X148841522Y-94163189D01*
X148765716Y-94325757D01*
X148764294Y-94331065D01*
X148764293Y-94331067D01*
X148707881Y-94541598D01*
X148706457Y-94546913D01*
X148686502Y-94775000D01*
X148706457Y-95003087D01*
X148707881Y-95008400D01*
X148707881Y-95008402D01*
X148746197Y-95151396D01*
X148765716Y-95224243D01*
X148768039Y-95229224D01*
X148768039Y-95229225D01*
X148860151Y-95426762D01*
X148860154Y-95426767D01*
X148862477Y-95431749D01*
X148993802Y-95619300D01*
X149155700Y-95781198D01*
X149160208Y-95784355D01*
X149160211Y-95784357D01*
X149164086Y-95787070D01*
X149208414Y-95842528D01*
X149215723Y-95913147D01*
X149183692Y-95976507D01*
X149158958Y-95996903D01*
X149097712Y-96035472D01*
X149097709Y-96035474D01*
X149093433Y-96038167D01*
X149089639Y-96041512D01*
X148915142Y-96195350D01*
X148915139Y-96195353D01*
X148911345Y-96198698D01*
X148908135Y-96202606D01*
X148908134Y-96202607D01*
X148786307Y-96350923D01*
X148757266Y-96386278D01*
X148754724Y-96390646D01*
X148651070Y-96568741D01*
X148635159Y-96596078D01*
X148633346Y-96600801D01*
X148561647Y-96787586D01*
X148548167Y-96822702D01*
X148547133Y-96827652D01*
X148547132Y-96827655D01*
X148512491Y-96993475D01*
X148498526Y-97060320D01*
X148487514Y-97302817D01*
X136272295Y-97302817D01*
X136412722Y-96659416D01*
X136414313Y-96652955D01*
X136608198Y-95946211D01*
X136610128Y-95939838D01*
X136841076Y-95244337D01*
X136843341Y-95238075D01*
X137051791Y-94706114D01*
X137110716Y-94555740D01*
X137113306Y-94549613D01*
X137114533Y-94546913D01*
X137165160Y-94435444D01*
X141580038Y-94435444D01*
X141611152Y-94710659D01*
X141612314Y-94715072D01*
X141612315Y-94715078D01*
X141662156Y-94904387D01*
X141681668Y-94978498D01*
X141683454Y-94982696D01*
X141683455Y-94982698D01*
X141786235Y-95224243D01*
X141790111Y-95233353D01*
X141892795Y-95401907D01*
X141904315Y-95420816D01*
X141934207Y-95469884D01*
X141937111Y-95473388D01*
X141937113Y-95473391D01*
X142108026Y-95679624D01*
X142108031Y-95679629D01*
X142110938Y-95683137D01*
X142114326Y-95686193D01*
X142114327Y-95686194D01*
X142302806Y-95856198D01*
X142316603Y-95868643D01*
X142546892Y-96022518D01*
X142586804Y-96041512D01*
X142793511Y-96139885D01*
X142793516Y-96139887D01*
X142796983Y-96141537D01*
X142800623Y-96142751D01*
X142800627Y-96142753D01*
X142826404Y-96151353D01*
X142880104Y-96169268D01*
X144202429Y-96538468D01*
X144404747Y-96579446D01*
X144409299Y-96579697D01*
X144409303Y-96579697D01*
X144606095Y-96590527D01*
X144681295Y-96594666D01*
X144685843Y-96594256D01*
X144685848Y-96594256D01*
X144860227Y-96578539D01*
X144957144Y-96569804D01*
X145212537Y-96508725D01*
X145222079Y-96506443D01*
X145222080Y-96506443D01*
X145226515Y-96505382D01*
X145483764Y-96402750D01*
X145723504Y-96264057D01*
X145727078Y-96261230D01*
X145727083Y-96261226D01*
X145937133Y-96095040D01*
X145937135Y-96095039D01*
X145940711Y-96092209D01*
X146098504Y-95925055D01*
X146127701Y-95894126D01*
X146127701Y-95894125D01*
X146130835Y-95890806D01*
X146203607Y-95787070D01*
X146287278Y-95667798D01*
X146287280Y-95667795D01*
X146289895Y-95664067D01*
X146414557Y-95416742D01*
X146502211Y-95154010D01*
X146551020Y-94881378D01*
X146554280Y-94780475D01*
X146559815Y-94609117D01*
X146559815Y-94609112D01*
X146559962Y-94604556D01*
X146528848Y-94329342D01*
X146527562Y-94324455D01*
X146459493Y-94065912D01*
X146458332Y-94061502D01*
X146402675Y-93930700D01*
X146351679Y-93810853D01*
X146351677Y-93810849D01*
X146349889Y-93806647D01*
X146237348Y-93621913D01*
X146208163Y-93574006D01*
X146208162Y-93574004D01*
X146205793Y-93570116D01*
X146029062Y-93356864D01*
X145963180Y-93297439D01*
X145826791Y-93174418D01*
X145826788Y-93174416D01*
X145823397Y-93171357D01*
X145593108Y-93017482D01*
X145440720Y-92944960D01*
X145346494Y-92900117D01*
X145346491Y-92900116D01*
X145343018Y-92898463D01*
X145259896Y-92870732D01*
X145258392Y-92870312D01*
X145258382Y-92870309D01*
X144249775Y-92588701D01*
X143937571Y-92501532D01*
X143735253Y-92460554D01*
X143730701Y-92460303D01*
X143730697Y-92460303D01*
X143533905Y-92449473D01*
X143458705Y-92445334D01*
X143454157Y-92445744D01*
X143454152Y-92445744D01*
X143301538Y-92459499D01*
X143182856Y-92470196D01*
X142913485Y-92534618D01*
X142656236Y-92637250D01*
X142416496Y-92775943D01*
X142199290Y-92947791D01*
X142131108Y-93020018D01*
X142047627Y-93108451D01*
X142009165Y-93149194D01*
X142006545Y-93152929D01*
X142006544Y-93152930D01*
X141865627Y-93353807D01*
X141850105Y-93375933D01*
X141725443Y-93623258D01*
X141637789Y-93885990D01*
X141588980Y-94158622D01*
X141588833Y-94163182D01*
X141588832Y-94163189D01*
X141580499Y-94421158D01*
X141580038Y-94435444D01*
X137165160Y-94435444D01*
X137394402Y-93930700D01*
X137416352Y-93882370D01*
X137419265Y-93876382D01*
X137757134Y-93226093D01*
X137760359Y-93220267D01*
X138132134Y-92588701D01*
X138135663Y-92583053D01*
X138496417Y-92038261D01*
X138540269Y-91972038D01*
X138544089Y-91966588D01*
X138725816Y-91721361D01*
X138980423Y-91377788D01*
X138984520Y-91372555D01*
X139034124Y-91312529D01*
X139451356Y-90807627D01*
X139455725Y-90802616D01*
X139595322Y-90650793D01*
X139951752Y-90263146D01*
X139956379Y-90258373D01*
X139993004Y-90222540D01*
X140164922Y-90054339D01*
X161736896Y-90054339D01*
X161763059Y-90406403D01*
X161828909Y-90753243D01*
X161829967Y-90756652D01*
X161829969Y-90756658D01*
X161845798Y-90807635D01*
X161933598Y-91090398D01*
X161935039Y-91093672D01*
X161935039Y-91093673D01*
X162060058Y-91377799D01*
X162075782Y-91413535D01*
X162253631Y-91718499D01*
X162255767Y-91721359D01*
X162255768Y-91721361D01*
X162257092Y-91723134D01*
X162464861Y-92001369D01*
X162467305Y-92003967D01*
X162467310Y-92003973D01*
X162492811Y-92031081D01*
X162706754Y-92258510D01*
X162709483Y-92260820D01*
X162945419Y-92460554D01*
X162976202Y-92486614D01*
X162979166Y-92488594D01*
X162979168Y-92488596D01*
X163201644Y-92637250D01*
X163269740Y-92682750D01*
X163272914Y-92684385D01*
X163272923Y-92684390D01*
X163580411Y-92842756D01*
X163580416Y-92842758D01*
X163583594Y-92844395D01*
X163586935Y-92845661D01*
X163586940Y-92845663D01*
X163702855Y-92889579D01*
X163913729Y-92969472D01*
X163917193Y-92970352D01*
X163917197Y-92970353D01*
X164252434Y-93055493D01*
X164252443Y-93055495D01*
X164255901Y-93056373D01*
X164427819Y-93079770D01*
X164602718Y-93103573D01*
X164602725Y-93103574D01*
X164605711Y-93103980D01*
X164720754Y-93108500D01*
X164939424Y-93108500D01*
X165081776Y-93100416D01*
X165198899Y-93093766D01*
X165198906Y-93093765D01*
X165202467Y-93093563D01*
X165550403Y-93033777D01*
X165553835Y-93032777D01*
X165553838Y-93032776D01*
X165885887Y-92935993D01*
X165885892Y-92935991D01*
X165889334Y-92934988D01*
X166214903Y-92798465D01*
X166498686Y-92639539D01*
X166519798Y-92627716D01*
X166519803Y-92627713D01*
X166522924Y-92625965D01*
X166525829Y-92623874D01*
X166525838Y-92623868D01*
X166806529Y-92421799D01*
X166809438Y-92419705D01*
X166861600Y-92372325D01*
X167068120Y-92184735D01*
X167068121Y-92184734D01*
X167070761Y-92182336D01*
X167303533Y-91916910D01*
X167306040Y-91913297D01*
X167502723Y-91629779D01*
X167504762Y-91626840D01*
X167671860Y-91315855D01*
X167802680Y-90987953D01*
X167895539Y-90647349D01*
X167932624Y-90406403D01*
X167948702Y-90301946D01*
X167948702Y-90301942D01*
X167949244Y-90298423D01*
X167952825Y-90207285D01*
X167962964Y-89949231D01*
X167962964Y-89949226D01*
X167963104Y-89945661D01*
X167942858Y-89673213D01*
X167937206Y-89597159D01*
X167937205Y-89597154D01*
X167936941Y-89593597D01*
X167871091Y-89246757D01*
X167784810Y-88968887D01*
X170911837Y-88968887D01*
X170926063Y-89185933D01*
X170927484Y-89191529D01*
X170927485Y-89191534D01*
X170967530Y-89349207D01*
X170979605Y-89396753D01*
X171070668Y-89594285D01*
X171166630Y-89730068D01*
X171189610Y-89797240D01*
X171172626Y-89866175D01*
X171139297Y-89903612D01*
X171131712Y-89909297D01*
X171061739Y-89961739D01*
X170974385Y-90078295D01*
X170923255Y-90214684D01*
X170916500Y-90276866D01*
X170916500Y-91723134D01*
X170923255Y-91785316D01*
X170974385Y-91921705D01*
X171061739Y-92038261D01*
X171178295Y-92125615D01*
X171314684Y-92176745D01*
X171376866Y-92183500D01*
X172823134Y-92183500D01*
X172885316Y-92176745D01*
X173021705Y-92125615D01*
X173138261Y-92038261D01*
X173225615Y-91921705D01*
X173276745Y-91785316D01*
X173283500Y-91723134D01*
X173283500Y-90276866D01*
X173276745Y-90214684D01*
X173225615Y-90078295D01*
X173138261Y-89961739D01*
X173060322Y-89903327D01*
X173017807Y-89846468D01*
X173012781Y-89775649D01*
X173039013Y-89721932D01*
X173075834Y-89677659D01*
X173079532Y-89673213D01*
X173185813Y-89483435D01*
X173187669Y-89477968D01*
X173187671Y-89477963D01*
X173253874Y-89282935D01*
X173253875Y-89282930D01*
X173255730Y-89277466D01*
X173286941Y-89062205D01*
X173288570Y-89000000D01*
X173268667Y-88783400D01*
X173209626Y-88574055D01*
X173113423Y-88378974D01*
X173109082Y-88373160D01*
X172986733Y-88209315D01*
X172986732Y-88209314D01*
X172983280Y-88204691D01*
X172861078Y-88091729D01*
X172824633Y-88030800D01*
X172826914Y-87959840D01*
X172866038Y-87902330D01*
X172936008Y-87844137D01*
X172940446Y-87840446D01*
X173079532Y-87673213D01*
X173185813Y-87483435D01*
X173187669Y-87477968D01*
X173187671Y-87477963D01*
X173253874Y-87282935D01*
X173253875Y-87282930D01*
X173255730Y-87277466D01*
X173286941Y-87062205D01*
X173288570Y-87000000D01*
X173268667Y-86783400D01*
X173262730Y-86762347D01*
X173224464Y-86626666D01*
X173209626Y-86574055D01*
X173113423Y-86378974D01*
X173038665Y-86278860D01*
X172986733Y-86209315D01*
X172986732Y-86209314D01*
X172983280Y-86204691D01*
X172970101Y-86192508D01*
X172860708Y-86091387D01*
X172824263Y-86030458D01*
X172826544Y-85959499D01*
X172865668Y-85901988D01*
X172935653Y-85843782D01*
X172943782Y-85835653D01*
X173075420Y-85677375D01*
X173081944Y-85667882D01*
X173182531Y-85488272D01*
X173187210Y-85477763D01*
X173253386Y-85282817D01*
X173256017Y-85271857D01*
X173254040Y-85257992D01*
X173240474Y-85254000D01*
X170961981Y-85254000D01*
X170948450Y-85257973D01*
X170947158Y-85266962D01*
X170978656Y-85390985D01*
X170982497Y-85401832D01*
X171068685Y-85588789D01*
X171074436Y-85598750D01*
X171193254Y-85766873D01*
X171200725Y-85775621D01*
X171340118Y-85911411D01*
X171374956Y-85973272D01*
X171370819Y-86044148D01*
X171335274Y-86096396D01*
X171237842Y-86181842D01*
X171234270Y-86186373D01*
X171112260Y-86341142D01*
X171103181Y-86352658D01*
X171001905Y-86545154D01*
X171000192Y-86550671D01*
X170957987Y-86686593D01*
X170937403Y-86752882D01*
X170911837Y-86968887D01*
X170926063Y-87185933D01*
X170927484Y-87191529D01*
X170927485Y-87191534D01*
X170959919Y-87319239D01*
X170979605Y-87396753D01*
X171070668Y-87594285D01*
X171196204Y-87771914D01*
X171200346Y-87775949D01*
X171339741Y-87911741D01*
X171374579Y-87973602D01*
X171370442Y-88044478D01*
X171334899Y-88096726D01*
X171237842Y-88181842D01*
X171234270Y-88186373D01*
X171119421Y-88332058D01*
X171103181Y-88352658D01*
X171001905Y-88545154D01*
X171000192Y-88550671D01*
X170958747Y-88684145D01*
X170937403Y-88752882D01*
X170911837Y-88968887D01*
X167784810Y-88968887D01*
X167766402Y-88909602D01*
X167717557Y-88798594D01*
X167625662Y-88589746D01*
X167625660Y-88589741D01*
X167624218Y-88586465D01*
X167446369Y-88281501D01*
X167235139Y-87998631D01*
X167232695Y-87996033D01*
X167232690Y-87996027D01*
X167062646Y-87815265D01*
X166993246Y-87741490D01*
X166819360Y-87594285D01*
X166726520Y-87515690D01*
X166726516Y-87515687D01*
X166723798Y-87513386D01*
X166599296Y-87430196D01*
X166433237Y-87319239D01*
X166433235Y-87319238D01*
X166430260Y-87317250D01*
X166427086Y-87315615D01*
X166427077Y-87315610D01*
X166119589Y-87157244D01*
X166119584Y-87157242D01*
X166116406Y-87155605D01*
X166113065Y-87154339D01*
X166113060Y-87154337D01*
X165879578Y-87065879D01*
X165786271Y-87030528D01*
X165782807Y-87029648D01*
X165782803Y-87029647D01*
X165447566Y-86944507D01*
X165447557Y-86944505D01*
X165444099Y-86943627D01*
X165261923Y-86918834D01*
X165097282Y-86896427D01*
X165097275Y-86896426D01*
X165094289Y-86896020D01*
X164979246Y-86891500D01*
X164760576Y-86891500D01*
X164618224Y-86899584D01*
X164501101Y-86906234D01*
X164501094Y-86906235D01*
X164497533Y-86906437D01*
X164149597Y-86966223D01*
X164146165Y-86967223D01*
X164146162Y-86967224D01*
X163814113Y-87064007D01*
X163814108Y-87064009D01*
X163810666Y-87065012D01*
X163485097Y-87201535D01*
X163339747Y-87282935D01*
X163180202Y-87372284D01*
X163180197Y-87372287D01*
X163177076Y-87374035D01*
X163174171Y-87376126D01*
X163174162Y-87376132D01*
X163025109Y-87483435D01*
X162890562Y-87580295D01*
X162887917Y-87582698D01*
X162887914Y-87582700D01*
X162715643Y-87739180D01*
X162629239Y-87817664D01*
X162396467Y-88083090D01*
X162195238Y-88373160D01*
X162028140Y-88684145D01*
X161897320Y-89012047D01*
X161804461Y-89352651D01*
X161803919Y-89356173D01*
X161755122Y-89673213D01*
X161750756Y-89701577D01*
X161750616Y-89705141D01*
X161740746Y-89956358D01*
X161736896Y-90054339D01*
X140164922Y-90054339D01*
X140480223Y-89745856D01*
X140485081Y-89741349D01*
X141035260Y-89257232D01*
X141040372Y-89252968D01*
X141365169Y-88996305D01*
X141615371Y-88798589D01*
X141620696Y-88794605D01*
X141636529Y-88783400D01*
X142207969Y-88378974D01*
X142218884Y-88371249D01*
X142224420Y-88367547D01*
X142844122Y-87976398D01*
X142849845Y-87972993D01*
X143489378Y-87615114D01*
X143495273Y-87612017D01*
X144152814Y-87288430D01*
X144158865Y-87285649D01*
X144832563Y-86997262D01*
X144838752Y-86994804D01*
X145526750Y-86742412D01*
X145533060Y-86740284D01*
X145913944Y-86622985D01*
X146193371Y-86536931D01*
X146215640Y-86532225D01*
X146218278Y-86531913D01*
X146231990Y-86530289D01*
X146262739Y-86517203D01*
X146277445Y-86511996D01*
X146300932Y-86505284D01*
X146300936Y-86505282D01*
X146309565Y-86502816D01*
X146327963Y-86491208D01*
X146345855Y-86481834D01*
X146357626Y-86476824D01*
X146357627Y-86476823D01*
X146365885Y-86473309D01*
X146375588Y-86465353D01*
X146391720Y-86452124D01*
X146404380Y-86442993D01*
X146425039Y-86429958D01*
X146432631Y-86425168D01*
X146447034Y-86408860D01*
X146461579Y-86394838D01*
X146471461Y-86386734D01*
X146478405Y-86381040D01*
X146491476Y-86361913D01*
X146497254Y-86353457D01*
X146506841Y-86341142D01*
X146523011Y-86322832D01*
X146523012Y-86322830D01*
X146528956Y-86316100D01*
X146538207Y-86296397D01*
X146548230Y-86278860D01*
X146555439Y-86268310D01*
X146560505Y-86260897D01*
X146570853Y-86229139D01*
X146576598Y-86214628D01*
X146586983Y-86192508D01*
X146586983Y-86192507D01*
X146590799Y-86184380D01*
X146594147Y-86162878D01*
X146598846Y-86143230D01*
X146602804Y-86131081D01*
X146605586Y-86122543D01*
X146606620Y-86088656D01*
X146606936Y-86082787D01*
X146607251Y-86078714D01*
X146608000Y-86073905D01*
X146608000Y-86045318D01*
X146608059Y-86041476D01*
X146609749Y-85986067D01*
X146610023Y-85977095D01*
X146608419Y-85970915D01*
X146608000Y-85963432D01*
X146608000Y-85458411D01*
X147787977Y-85458411D01*
X147788177Y-85463740D01*
X147788177Y-85463741D01*
X147789098Y-85488272D01*
X147796945Y-85697274D01*
X147798040Y-85702492D01*
X147841876Y-85911411D01*
X147846030Y-85931211D01*
X147933829Y-86153533D01*
X148057832Y-86357883D01*
X148061329Y-86361913D01*
X148208355Y-86531345D01*
X148214493Y-86538419D01*
X148218619Y-86541802D01*
X148218623Y-86541806D01*
X148229435Y-86550671D01*
X148399333Y-86689978D01*
X148403969Y-86692617D01*
X148403972Y-86692619D01*
X148522619Y-86760157D01*
X148607066Y-86808227D01*
X148831753Y-86889784D01*
X148837002Y-86890733D01*
X148837005Y-86890734D01*
X149062885Y-86931580D01*
X149062893Y-86931581D01*
X149066969Y-86932318D01*
X149085359Y-86933185D01*
X149090544Y-86933430D01*
X149090551Y-86933430D01*
X149092032Y-86933500D01*
X149260012Y-86933500D01*
X149438175Y-86918383D01*
X149443339Y-86917043D01*
X149443343Y-86917042D01*
X149664375Y-86859673D01*
X149664380Y-86859671D01*
X149669540Y-86858332D01*
X149835883Y-86783400D01*
X149882619Y-86762347D01*
X149882622Y-86762346D01*
X149887480Y-86760157D01*
X150085762Y-86626666D01*
X150140913Y-86574055D01*
X150165425Y-86550671D01*
X150258718Y-86461674D01*
X150401402Y-86269900D01*
X150405980Y-86260897D01*
X150507314Y-86061586D01*
X150507314Y-86061585D01*
X150509733Y-86056828D01*
X150557812Y-85901988D01*
X150579032Y-85833651D01*
X150579033Y-85833645D01*
X150580616Y-85828548D01*
X150612023Y-85591589D01*
X150603055Y-85352726D01*
X150553970Y-85118789D01*
X150466171Y-84896467D01*
X150372923Y-84742799D01*
X170945218Y-84742799D01*
X170951950Y-84746000D01*
X171827885Y-84746000D01*
X171843124Y-84741525D01*
X171844329Y-84740135D01*
X171846000Y-84732452D01*
X171846000Y-84727885D01*
X172354000Y-84727885D01*
X172358475Y-84743124D01*
X172359865Y-84744329D01*
X172367548Y-84746000D01*
X173239485Y-84746000D01*
X173253016Y-84742027D01*
X173254185Y-84733892D01*
X173210725Y-84579794D01*
X173206603Y-84569055D01*
X173115549Y-84384417D01*
X173109538Y-84374608D01*
X172986360Y-84209651D01*
X172978671Y-84201111D01*
X172827490Y-84061361D01*
X172818365Y-84054360D01*
X172644255Y-83944505D01*
X172634008Y-83939284D01*
X172442793Y-83862997D01*
X172431767Y-83859730D01*
X172371770Y-83847797D01*
X172358894Y-83848949D01*
X172354000Y-83864102D01*
X172354000Y-84727885D01*
X171846000Y-84727885D01*
X171846000Y-83861337D01*
X171842194Y-83848375D01*
X171827278Y-83846439D01*
X171798202Y-83851435D01*
X171787082Y-83854415D01*
X171593940Y-83925669D01*
X171583562Y-83930619D01*
X171406639Y-84035877D01*
X171397327Y-84042643D01*
X171242547Y-84178381D01*
X171234630Y-84186724D01*
X171107180Y-84348394D01*
X171100909Y-84358050D01*
X171005060Y-84540229D01*
X171000655Y-84550863D01*
X170945436Y-84728700D01*
X170945218Y-84742799D01*
X150372923Y-84742799D01*
X150342168Y-84692117D01*
X150252103Y-84588326D01*
X150189007Y-84515614D01*
X150189005Y-84515612D01*
X150185507Y-84511581D01*
X150181381Y-84508198D01*
X150181377Y-84508194D01*
X150004795Y-84363407D01*
X150000667Y-84360022D01*
X149996031Y-84357383D01*
X149996028Y-84357381D01*
X149797577Y-84244416D01*
X149792934Y-84241773D01*
X149568247Y-84160216D01*
X149562998Y-84159267D01*
X149562995Y-84159266D01*
X149337115Y-84118420D01*
X149337107Y-84118419D01*
X149333031Y-84117682D01*
X149314641Y-84116815D01*
X149309456Y-84116570D01*
X149309449Y-84116570D01*
X149307968Y-84116500D01*
X149139988Y-84116500D01*
X148961825Y-84131617D01*
X148956661Y-84132957D01*
X148956657Y-84132958D01*
X148735625Y-84190327D01*
X148735620Y-84190329D01*
X148730460Y-84191668D01*
X148725594Y-84193860D01*
X148517381Y-84287653D01*
X148517378Y-84287654D01*
X148512520Y-84289843D01*
X148314238Y-84423334D01*
X148141282Y-84588326D01*
X147998598Y-84780100D01*
X147890267Y-84993172D01*
X147854825Y-85107312D01*
X147820968Y-85216349D01*
X147820967Y-85216355D01*
X147819384Y-85221452D01*
X147787977Y-85458411D01*
X146608000Y-85458411D01*
X146608000Y-84262611D01*
X146628002Y-84194490D01*
X146644905Y-84173515D01*
X147273517Y-83544904D01*
X147335829Y-83510879D01*
X147362612Y-83508000D01*
X173337389Y-83508000D01*
X173405510Y-83528002D01*
G37*
%TD.AperFunction*%
M02*
