%FSLAX45Y45*%
G04 Gerber Fmt 4.5, Leading zero omitted, Abs format (unit mm)*
G04 Created by KiCad (PCBNEW (6.0.1)) date 2022-03-21 17:48:07*
%MOMM*%
%LPD*%
G01*
G04 APERTURE LIST*
%TA.AperFunction,Profile*%
%ADD10C,0.250000*%
%TD*%
%ADD11C,0.200000*%
%ADD12C,0.160000*%
%ADD13C,0.180000*%
%ADD14C,0.520000*%
G04 APERTURE END LIST*
D10*
X17360000Y-8300000D02*
X14710000Y-8300000D01*
X17040000Y-9410000D02*
G75*
G03*
X16604561Y-9601888I0J-590000D01*
G01*
X14710000Y-8300000D02*
X14610000Y-8400000D01*
X16434738Y-9705056D02*
X16504789Y-9751707D01*
X17460000Y-8400000D02*
X17360000Y-8300000D01*
X16534510Y-9555238D02*
G75*
G03*
X16434738Y-9705056I-49886J-74909D01*
G01*
X16604561Y-9601888D02*
X16534510Y-9555238D01*
X17360000Y-9410000D02*
X17460000Y-9310000D01*
X16504789Y-9751707D02*
G75*
G03*
X16450000Y-10000000I535210J-248293D01*
G01*
X17040000Y-9410000D02*
X17360000Y-9410000D01*
X14610000Y-8603433D02*
G75*
G03*
X16450000Y-10000000I390000J-1396567D01*
G01*
X14610000Y-8400000D02*
X14610000Y-8603433D01*
X17460000Y-9310000D02*
X17460000Y-8400000D01*
D11*
D12*
X14920000Y-9397500D02*
X15080000Y-9557500D01*
X15080000Y-9397500D02*
X14920000Y-9557500D01*
X14920000Y-10442500D02*
X15080000Y-10602500D01*
X15080000Y-10442500D02*
X14920000Y-10602500D01*
D13*
X15010000Y-8552500D02*
G75*
G03*
X15010000Y-8552500I-90000J0D01*
G01*
D11*
X15000000Y-9625000D02*
X15000000Y-9825000D01*
X14900000Y-9725000D02*
X15100000Y-9725000D01*
X15000000Y-10175000D02*
X15000000Y-10375000D01*
X14900000Y-10275000D02*
X15100000Y-10275000D01*
D14*
X16668849Y-9183850D02*
X16668849Y-8816151D01*
X16301150Y-8816151D01*
X16301150Y-9183850D01*
X16668849Y-9183850D01*
D11*
X13795119Y-11772976D02*
X13795119Y-11572976D01*
X13842738Y-11572976D01*
X13871309Y-11582500D01*
X13890357Y-11601548D01*
X13899881Y-11620595D01*
X13909405Y-11658690D01*
X13909405Y-11687262D01*
X13899881Y-11725357D01*
X13890357Y-11744405D01*
X13871309Y-11763452D01*
X13842738Y-11772976D01*
X13795119Y-11772976D01*
X13995119Y-11772976D02*
X13995119Y-11639643D01*
X13995119Y-11677738D02*
X14004643Y-11658690D01*
X14014167Y-11649167D01*
X14033214Y-11639643D01*
X14052262Y-11639643D01*
X14118928Y-11772976D02*
X14118928Y-11639643D01*
X14118928Y-11572976D02*
X14109405Y-11582500D01*
X14118928Y-11592024D01*
X14128452Y-11582500D01*
X14118928Y-11572976D01*
X14118928Y-11592024D01*
X14242738Y-11772976D02*
X14223690Y-11763452D01*
X14214167Y-11744405D01*
X14214167Y-11572976D01*
X14347500Y-11772976D02*
X14328452Y-11763452D01*
X14318928Y-11744405D01*
X14318928Y-11572976D01*
X14576071Y-11772976D02*
X14576071Y-11572976D01*
X14642738Y-11715833D01*
X14709405Y-11572976D01*
X14709405Y-11772976D01*
X14890357Y-11772976D02*
X14890357Y-11668214D01*
X14880833Y-11649167D01*
X14861786Y-11639643D01*
X14823690Y-11639643D01*
X14804643Y-11649167D01*
X14890357Y-11763452D02*
X14871309Y-11772976D01*
X14823690Y-11772976D01*
X14804643Y-11763452D01*
X14795119Y-11744405D01*
X14795119Y-11725357D01*
X14804643Y-11706309D01*
X14823690Y-11696786D01*
X14871309Y-11696786D01*
X14890357Y-11687262D01*
X14985595Y-11639643D02*
X14985595Y-11839643D01*
X14985595Y-11649167D02*
X15004643Y-11639643D01*
X15042738Y-11639643D01*
X15061786Y-11649167D01*
X15071309Y-11658690D01*
X15080833Y-11677738D01*
X15080833Y-11734881D01*
X15071309Y-11753928D01*
X15061786Y-11763452D01*
X15042738Y-11772976D01*
X15004643Y-11772976D01*
X14985595Y-11763452D01*
X15166548Y-11753928D02*
X15176071Y-11763452D01*
X15166548Y-11772976D01*
X15157024Y-11763452D01*
X15166548Y-11753928D01*
X15166548Y-11772976D01*
X15166548Y-11649167D02*
X15176071Y-11658690D01*
X15166548Y-11668214D01*
X15157024Y-11658690D01*
X15166548Y-11649167D01*
X15166548Y-11668214D01*
D12*
X13377500Y-12022500D02*
X13537500Y-12182500D01*
X13537500Y-12022500D02*
X13377500Y-12182500D01*
D11*
X13899881Y-12192976D02*
X13785595Y-12192976D01*
X13842738Y-12192976D02*
X13842738Y-11992976D01*
X13823690Y-12021548D01*
X13804643Y-12040595D01*
X13785595Y-12050119D01*
X13985595Y-12173928D02*
X13995119Y-12183452D01*
X13985595Y-12192976D01*
X13976071Y-12183452D01*
X13985595Y-12173928D01*
X13985595Y-12192976D01*
X14166548Y-11992976D02*
X14128452Y-11992976D01*
X14109405Y-12002500D01*
X14099881Y-12012024D01*
X14080833Y-12040595D01*
X14071309Y-12078690D01*
X14071309Y-12154881D01*
X14080833Y-12173928D01*
X14090357Y-12183452D01*
X14109405Y-12192976D01*
X14147500Y-12192976D01*
X14166548Y-12183452D01*
X14176071Y-12173928D01*
X14185595Y-12154881D01*
X14185595Y-12107262D01*
X14176071Y-12088214D01*
X14166548Y-12078690D01*
X14147500Y-12069167D01*
X14109405Y-12069167D01*
X14090357Y-12078690D01*
X14080833Y-12088214D01*
X14071309Y-12107262D01*
X14309405Y-11992976D02*
X14328452Y-11992976D01*
X14347500Y-12002500D01*
X14357024Y-12012024D01*
X14366548Y-12031071D01*
X14376071Y-12069167D01*
X14376071Y-12116786D01*
X14366548Y-12154881D01*
X14357024Y-12173928D01*
X14347500Y-12183452D01*
X14328452Y-12192976D01*
X14309405Y-12192976D01*
X14290357Y-12183452D01*
X14280833Y-12173928D01*
X14271309Y-12154881D01*
X14261786Y-12116786D01*
X14261786Y-12069167D01*
X14271309Y-12031071D01*
X14280833Y-12012024D01*
X14290357Y-12002500D01*
X14309405Y-11992976D01*
X14499881Y-11992976D02*
X14518928Y-11992976D01*
X14537976Y-12002500D01*
X14547500Y-12012024D01*
X14557024Y-12031071D01*
X14566548Y-12069167D01*
X14566548Y-12116786D01*
X14557024Y-12154881D01*
X14547500Y-12173928D01*
X14537976Y-12183452D01*
X14518928Y-12192976D01*
X14499881Y-12192976D01*
X14480833Y-12183452D01*
X14471309Y-12173928D01*
X14461786Y-12154881D01*
X14452262Y-12116786D01*
X14452262Y-12069167D01*
X14461786Y-12031071D01*
X14471309Y-12012024D01*
X14480833Y-12002500D01*
X14499881Y-11992976D01*
X14652262Y-12192976D02*
X14652262Y-12059643D01*
X14652262Y-12078690D02*
X14661786Y-12069167D01*
X14680833Y-12059643D01*
X14709405Y-12059643D01*
X14728452Y-12069167D01*
X14737976Y-12088214D01*
X14737976Y-12192976D01*
X14737976Y-12088214D02*
X14747500Y-12069167D01*
X14766548Y-12059643D01*
X14795119Y-12059643D01*
X14814167Y-12069167D01*
X14823690Y-12088214D01*
X14823690Y-12192976D01*
X14918928Y-12192976D02*
X14918928Y-12059643D01*
X14918928Y-12078690D02*
X14928452Y-12069167D01*
X14947500Y-12059643D01*
X14976071Y-12059643D01*
X14995119Y-12069167D01*
X15004643Y-12088214D01*
X15004643Y-12192976D01*
X15004643Y-12088214D02*
X15014167Y-12069167D01*
X15033214Y-12059643D01*
X15061786Y-12059643D01*
X15080833Y-12069167D01*
X15090357Y-12088214D01*
X15090357Y-12192976D01*
X15480833Y-11983452D02*
X15309405Y-12240595D01*
X15737976Y-11992976D02*
X15757024Y-11992976D01*
X15776071Y-12002500D01*
X15785595Y-12012024D01*
X15795119Y-12031071D01*
X15804643Y-12069167D01*
X15804643Y-12116786D01*
X15795119Y-12154881D01*
X15785595Y-12173928D01*
X15776071Y-12183452D01*
X15757024Y-12192976D01*
X15737976Y-12192976D01*
X15718928Y-12183452D01*
X15709405Y-12173928D01*
X15699881Y-12154881D01*
X15690357Y-12116786D01*
X15690357Y-12069167D01*
X15699881Y-12031071D01*
X15709405Y-12012024D01*
X15718928Y-12002500D01*
X15737976Y-11992976D01*
X15890357Y-12173928D02*
X15899881Y-12183452D01*
X15890357Y-12192976D01*
X15880833Y-12183452D01*
X15890357Y-12173928D01*
X15890357Y-12192976D01*
X16023690Y-11992976D02*
X16042738Y-11992976D01*
X16061786Y-12002500D01*
X16071309Y-12012024D01*
X16080833Y-12031071D01*
X16090357Y-12069167D01*
X16090357Y-12116786D01*
X16080833Y-12154881D01*
X16071309Y-12173928D01*
X16061786Y-12183452D01*
X16042738Y-12192976D01*
X16023690Y-12192976D01*
X16004643Y-12183452D01*
X15995119Y-12173928D01*
X15985595Y-12154881D01*
X15976071Y-12116786D01*
X15976071Y-12069167D01*
X15985595Y-12031071D01*
X15995119Y-12012024D01*
X16004643Y-12002500D01*
X16023690Y-11992976D01*
X16261786Y-11992976D02*
X16223690Y-11992976D01*
X16204643Y-12002500D01*
X16195119Y-12012024D01*
X16176071Y-12040595D01*
X16166548Y-12078690D01*
X16166548Y-12154881D01*
X16176071Y-12173928D01*
X16185595Y-12183452D01*
X16204643Y-12192976D01*
X16242738Y-12192976D01*
X16261786Y-12183452D01*
X16271309Y-12173928D01*
X16280833Y-12154881D01*
X16280833Y-12107262D01*
X16271309Y-12088214D01*
X16261786Y-12078690D01*
X16242738Y-12069167D01*
X16204643Y-12069167D01*
X16185595Y-12078690D01*
X16176071Y-12088214D01*
X16166548Y-12107262D01*
X16347500Y-11992976D02*
X16471309Y-11992976D01*
X16404643Y-12069167D01*
X16433214Y-12069167D01*
X16452262Y-12078690D01*
X16461786Y-12088214D01*
X16471309Y-12107262D01*
X16471309Y-12154881D01*
X16461786Y-12173928D01*
X16452262Y-12183452D01*
X16433214Y-12192976D01*
X16376071Y-12192976D01*
X16357024Y-12183452D01*
X16347500Y-12173928D01*
X16595119Y-11992976D02*
X16614167Y-11992976D01*
X16633214Y-12002500D01*
X16642738Y-12012024D01*
X16652262Y-12031071D01*
X16661786Y-12069167D01*
X16661786Y-12116786D01*
X16652262Y-12154881D01*
X16642738Y-12173928D01*
X16633214Y-12183452D01*
X16614167Y-12192976D01*
X16595119Y-12192976D01*
X16576071Y-12183452D01*
X16566548Y-12173928D01*
X16557024Y-12154881D01*
X16547500Y-12116786D01*
X16547500Y-12069167D01*
X16557024Y-12031071D01*
X16566548Y-12012024D01*
X16576071Y-12002500D01*
X16595119Y-11992976D01*
X16737976Y-11992976D02*
X16737976Y-12031071D01*
X16814167Y-11992976D02*
X16814167Y-12031071D01*
X17109405Y-12269167D02*
X17099881Y-12259643D01*
X17080833Y-12231071D01*
X17071310Y-12212024D01*
X17061786Y-12183452D01*
X17052262Y-12135833D01*
X17052262Y-12097738D01*
X17061786Y-12050119D01*
X17071310Y-12021548D01*
X17080833Y-12002500D01*
X17099881Y-11973928D01*
X17109405Y-11964405D01*
X17176071Y-12012024D02*
X17185595Y-12002500D01*
X17204643Y-11992976D01*
X17252262Y-11992976D01*
X17271310Y-12002500D01*
X17280833Y-12012024D01*
X17290357Y-12031071D01*
X17290357Y-12050119D01*
X17280833Y-12078690D01*
X17166548Y-12192976D01*
X17290357Y-12192976D01*
X17528452Y-12192976D02*
X17528452Y-11992976D01*
X17614167Y-12192976D02*
X17614167Y-12088214D01*
X17604643Y-12069167D01*
X17585595Y-12059643D01*
X17557024Y-12059643D01*
X17537976Y-12069167D01*
X17528452Y-12078690D01*
X17737976Y-12192976D02*
X17718929Y-12183452D01*
X17709405Y-12173928D01*
X17699881Y-12154881D01*
X17699881Y-12097738D01*
X17709405Y-12078690D01*
X17718929Y-12069167D01*
X17737976Y-12059643D01*
X17766548Y-12059643D01*
X17785595Y-12069167D01*
X17795119Y-12078690D01*
X17804643Y-12097738D01*
X17804643Y-12154881D01*
X17795119Y-12173928D01*
X17785595Y-12183452D01*
X17766548Y-12192976D01*
X17737976Y-12192976D01*
X17918929Y-12192976D02*
X17899881Y-12183452D01*
X17890357Y-12164405D01*
X17890357Y-11992976D01*
X18071310Y-12183452D02*
X18052262Y-12192976D01*
X18014167Y-12192976D01*
X17995119Y-12183452D01*
X17985595Y-12164405D01*
X17985595Y-12088214D01*
X17995119Y-12069167D01*
X18014167Y-12059643D01*
X18052262Y-12059643D01*
X18071310Y-12069167D01*
X18080833Y-12088214D01*
X18080833Y-12107262D01*
X17985595Y-12126309D01*
X18157024Y-12183452D02*
X18176071Y-12192976D01*
X18214167Y-12192976D01*
X18233214Y-12183452D01*
X18242738Y-12164405D01*
X18242738Y-12154881D01*
X18233214Y-12135833D01*
X18214167Y-12126309D01*
X18185595Y-12126309D01*
X18166548Y-12116786D01*
X18157024Y-12097738D01*
X18157024Y-12088214D01*
X18166548Y-12069167D01*
X18185595Y-12059643D01*
X18214167Y-12059643D01*
X18233214Y-12069167D01*
X18309405Y-12269167D02*
X18318929Y-12259643D01*
X18337976Y-12231071D01*
X18347500Y-12212024D01*
X18357024Y-12183452D01*
X18366548Y-12135833D01*
X18366548Y-12097738D01*
X18357024Y-12050119D01*
X18347500Y-12021548D01*
X18337976Y-12002500D01*
X18318929Y-11973928D01*
X18309405Y-11964405D01*
X18671310Y-12269167D02*
X18661786Y-12259643D01*
X18642738Y-12231071D01*
X18633214Y-12212024D01*
X18623690Y-12183452D01*
X18614167Y-12135833D01*
X18614167Y-12097738D01*
X18623690Y-12050119D01*
X18633214Y-12021548D01*
X18642738Y-12002500D01*
X18661786Y-11973928D01*
X18671310Y-11964405D01*
X18747500Y-12059643D02*
X18747500Y-12192976D01*
X18747500Y-12078690D02*
X18757024Y-12069167D01*
X18776071Y-12059643D01*
X18804643Y-12059643D01*
X18823690Y-12069167D01*
X18833214Y-12088214D01*
X18833214Y-12192976D01*
X18957024Y-12192976D02*
X18937976Y-12183452D01*
X18928452Y-12173928D01*
X18918929Y-12154881D01*
X18918929Y-12097738D01*
X18928452Y-12078690D01*
X18937976Y-12069167D01*
X18957024Y-12059643D01*
X18985595Y-12059643D01*
X19004643Y-12069167D01*
X19014167Y-12078690D01*
X19023690Y-12097738D01*
X19023690Y-12154881D01*
X19014167Y-12173928D01*
X19004643Y-12183452D01*
X18985595Y-12192976D01*
X18957024Y-12192976D01*
X19080833Y-12059643D02*
X19157024Y-12059643D01*
X19109405Y-11992976D02*
X19109405Y-12164405D01*
X19118929Y-12183452D01*
X19137976Y-12192976D01*
X19157024Y-12192976D01*
X19376071Y-12059643D02*
X19376071Y-12259643D01*
X19376071Y-12069167D02*
X19395119Y-12059643D01*
X19433214Y-12059643D01*
X19452262Y-12069167D01*
X19461786Y-12078690D01*
X19471310Y-12097738D01*
X19471310Y-12154881D01*
X19461786Y-12173928D01*
X19452262Y-12183452D01*
X19433214Y-12192976D01*
X19395119Y-12192976D01*
X19376071Y-12183452D01*
X19585595Y-12192976D02*
X19566548Y-12183452D01*
X19557024Y-12164405D01*
X19557024Y-11992976D01*
X19747500Y-12192976D02*
X19747500Y-12088214D01*
X19737976Y-12069167D01*
X19718929Y-12059643D01*
X19680833Y-12059643D01*
X19661786Y-12069167D01*
X19747500Y-12183452D02*
X19728452Y-12192976D01*
X19680833Y-12192976D01*
X19661786Y-12183452D01*
X19652262Y-12164405D01*
X19652262Y-12145357D01*
X19661786Y-12126309D01*
X19680833Y-12116786D01*
X19728452Y-12116786D01*
X19747500Y-12107262D01*
X19814167Y-12059643D02*
X19890357Y-12059643D01*
X19842738Y-11992976D02*
X19842738Y-12164405D01*
X19852262Y-12183452D01*
X19871310Y-12192976D01*
X19890357Y-12192976D01*
X20033214Y-12183452D02*
X20014167Y-12192976D01*
X19976071Y-12192976D01*
X19957024Y-12183452D01*
X19947500Y-12164405D01*
X19947500Y-12088214D01*
X19957024Y-12069167D01*
X19976071Y-12059643D01*
X20014167Y-12059643D01*
X20033214Y-12069167D01*
X20042738Y-12088214D01*
X20042738Y-12107262D01*
X19947500Y-12126309D01*
X20214167Y-12192976D02*
X20214167Y-11992976D01*
X20214167Y-12183452D02*
X20195119Y-12192976D01*
X20157024Y-12192976D01*
X20137976Y-12183452D01*
X20128452Y-12173928D01*
X20118929Y-12154881D01*
X20118929Y-12097738D01*
X20128452Y-12078690D01*
X20137976Y-12069167D01*
X20157024Y-12059643D01*
X20195119Y-12059643D01*
X20214167Y-12069167D01*
X20290357Y-12269167D02*
X20299881Y-12259643D01*
X20318929Y-12231071D01*
X20328452Y-12212024D01*
X20337976Y-12183452D01*
X20347500Y-12135833D01*
X20347500Y-12097738D01*
X20337976Y-12050119D01*
X20328452Y-12021548D01*
X20318929Y-12002500D01*
X20299881Y-11973928D01*
X20290357Y-11964405D01*
D13*
X13537500Y-12382500D02*
G75*
G03*
X13537500Y-12382500I-90000J0D01*
G01*
D11*
X13899881Y-12472976D02*
X13785595Y-12472976D01*
X13842738Y-12472976D02*
X13842738Y-12272976D01*
X13823690Y-12301548D01*
X13804643Y-12320595D01*
X13785595Y-12330119D01*
X13985595Y-12453928D02*
X13995119Y-12463452D01*
X13985595Y-12472976D01*
X13976071Y-12463452D01*
X13985595Y-12453928D01*
X13985595Y-12472976D01*
X14109405Y-12358690D02*
X14090357Y-12349167D01*
X14080833Y-12339643D01*
X14071309Y-12320595D01*
X14071309Y-12311071D01*
X14080833Y-12292024D01*
X14090357Y-12282500D01*
X14109405Y-12272976D01*
X14147500Y-12272976D01*
X14166548Y-12282500D01*
X14176071Y-12292024D01*
X14185595Y-12311071D01*
X14185595Y-12320595D01*
X14176071Y-12339643D01*
X14166548Y-12349167D01*
X14147500Y-12358690D01*
X14109405Y-12358690D01*
X14090357Y-12368214D01*
X14080833Y-12377738D01*
X14071309Y-12396786D01*
X14071309Y-12434881D01*
X14080833Y-12453928D01*
X14090357Y-12463452D01*
X14109405Y-12472976D01*
X14147500Y-12472976D01*
X14166548Y-12463452D01*
X14176071Y-12453928D01*
X14185595Y-12434881D01*
X14185595Y-12396786D01*
X14176071Y-12377738D01*
X14166548Y-12368214D01*
X14147500Y-12358690D01*
X14309405Y-12272976D02*
X14328452Y-12272976D01*
X14347500Y-12282500D01*
X14357024Y-12292024D01*
X14366548Y-12311071D01*
X14376071Y-12349167D01*
X14376071Y-12396786D01*
X14366548Y-12434881D01*
X14357024Y-12453928D01*
X14347500Y-12463452D01*
X14328452Y-12472976D01*
X14309405Y-12472976D01*
X14290357Y-12463452D01*
X14280833Y-12453928D01*
X14271309Y-12434881D01*
X14261786Y-12396786D01*
X14261786Y-12349167D01*
X14271309Y-12311071D01*
X14280833Y-12292024D01*
X14290357Y-12282500D01*
X14309405Y-12272976D01*
X14499881Y-12272976D02*
X14518928Y-12272976D01*
X14537976Y-12282500D01*
X14547500Y-12292024D01*
X14557024Y-12311071D01*
X14566548Y-12349167D01*
X14566548Y-12396786D01*
X14557024Y-12434881D01*
X14547500Y-12453928D01*
X14537976Y-12463452D01*
X14518928Y-12472976D01*
X14499881Y-12472976D01*
X14480833Y-12463452D01*
X14471309Y-12453928D01*
X14461786Y-12434881D01*
X14452262Y-12396786D01*
X14452262Y-12349167D01*
X14461786Y-12311071D01*
X14471309Y-12292024D01*
X14480833Y-12282500D01*
X14499881Y-12272976D01*
X14652262Y-12472976D02*
X14652262Y-12339643D01*
X14652262Y-12358690D02*
X14661786Y-12349167D01*
X14680833Y-12339643D01*
X14709405Y-12339643D01*
X14728452Y-12349167D01*
X14737976Y-12368214D01*
X14737976Y-12472976D01*
X14737976Y-12368214D02*
X14747500Y-12349167D01*
X14766548Y-12339643D01*
X14795119Y-12339643D01*
X14814167Y-12349167D01*
X14823690Y-12368214D01*
X14823690Y-12472976D01*
X14918928Y-12472976D02*
X14918928Y-12339643D01*
X14918928Y-12358690D02*
X14928452Y-12349167D01*
X14947500Y-12339643D01*
X14976071Y-12339643D01*
X14995119Y-12349167D01*
X15004643Y-12368214D01*
X15004643Y-12472976D01*
X15004643Y-12368214D02*
X15014167Y-12349167D01*
X15033214Y-12339643D01*
X15061786Y-12339643D01*
X15080833Y-12349167D01*
X15090357Y-12368214D01*
X15090357Y-12472976D01*
X15480833Y-12263452D02*
X15309405Y-12520595D01*
X15737976Y-12272976D02*
X15757024Y-12272976D01*
X15776071Y-12282500D01*
X15785595Y-12292024D01*
X15795119Y-12311071D01*
X15804643Y-12349167D01*
X15804643Y-12396786D01*
X15795119Y-12434881D01*
X15785595Y-12453928D01*
X15776071Y-12463452D01*
X15757024Y-12472976D01*
X15737976Y-12472976D01*
X15718928Y-12463452D01*
X15709405Y-12453928D01*
X15699881Y-12434881D01*
X15690357Y-12396786D01*
X15690357Y-12349167D01*
X15699881Y-12311071D01*
X15709405Y-12292024D01*
X15718928Y-12282500D01*
X15737976Y-12272976D01*
X15890357Y-12453928D02*
X15899881Y-12463452D01*
X15890357Y-12472976D01*
X15880833Y-12463452D01*
X15890357Y-12453928D01*
X15890357Y-12472976D01*
X16023690Y-12272976D02*
X16042738Y-12272976D01*
X16061786Y-12282500D01*
X16071309Y-12292024D01*
X16080833Y-12311071D01*
X16090357Y-12349167D01*
X16090357Y-12396786D01*
X16080833Y-12434881D01*
X16071309Y-12453928D01*
X16061786Y-12463452D01*
X16042738Y-12472976D01*
X16023690Y-12472976D01*
X16004643Y-12463452D01*
X15995119Y-12453928D01*
X15985595Y-12434881D01*
X15976071Y-12396786D01*
X15976071Y-12349167D01*
X15985595Y-12311071D01*
X15995119Y-12292024D01*
X16004643Y-12282500D01*
X16023690Y-12272976D01*
X16157024Y-12272976D02*
X16290357Y-12272976D01*
X16204643Y-12472976D01*
X16404643Y-12272976D02*
X16423690Y-12272976D01*
X16442738Y-12282500D01*
X16452262Y-12292024D01*
X16461786Y-12311071D01*
X16471309Y-12349167D01*
X16471309Y-12396786D01*
X16461786Y-12434881D01*
X16452262Y-12453928D01*
X16442738Y-12463452D01*
X16423690Y-12472976D01*
X16404643Y-12472976D01*
X16385595Y-12463452D01*
X16376071Y-12453928D01*
X16366548Y-12434881D01*
X16357024Y-12396786D01*
X16357024Y-12349167D01*
X16366548Y-12311071D01*
X16376071Y-12292024D01*
X16385595Y-12282500D01*
X16404643Y-12272976D01*
X16566548Y-12472976D02*
X16604643Y-12472976D01*
X16623690Y-12463452D01*
X16633214Y-12453928D01*
X16652262Y-12425357D01*
X16661786Y-12387262D01*
X16661786Y-12311071D01*
X16652262Y-12292024D01*
X16642738Y-12282500D01*
X16623690Y-12272976D01*
X16585595Y-12272976D01*
X16566548Y-12282500D01*
X16557024Y-12292024D01*
X16547500Y-12311071D01*
X16547500Y-12358690D01*
X16557024Y-12377738D01*
X16566548Y-12387262D01*
X16585595Y-12396786D01*
X16623690Y-12396786D01*
X16642738Y-12387262D01*
X16652262Y-12377738D01*
X16661786Y-12358690D01*
X16737976Y-12272976D02*
X16737976Y-12311071D01*
X16814167Y-12272976D02*
X16814167Y-12311071D01*
X17109405Y-12549167D02*
X17099881Y-12539643D01*
X17080833Y-12511071D01*
X17071310Y-12492024D01*
X17061786Y-12463452D01*
X17052262Y-12415833D01*
X17052262Y-12377738D01*
X17061786Y-12330119D01*
X17071310Y-12301548D01*
X17080833Y-12282500D01*
X17099881Y-12253928D01*
X17109405Y-12244405D01*
X17290357Y-12472976D02*
X17176071Y-12472976D01*
X17233214Y-12472976D02*
X17233214Y-12272976D01*
X17214167Y-12301548D01*
X17195119Y-12320595D01*
X17176071Y-12330119D01*
X17528452Y-12472976D02*
X17528452Y-12272976D01*
X17614167Y-12472976D02*
X17614167Y-12368214D01*
X17604643Y-12349167D01*
X17585595Y-12339643D01*
X17557024Y-12339643D01*
X17537976Y-12349167D01*
X17528452Y-12358690D01*
X17737976Y-12472976D02*
X17718929Y-12463452D01*
X17709405Y-12453928D01*
X17699881Y-12434881D01*
X17699881Y-12377738D01*
X17709405Y-12358690D01*
X17718929Y-12349167D01*
X17737976Y-12339643D01*
X17766548Y-12339643D01*
X17785595Y-12349167D01*
X17795119Y-12358690D01*
X17804643Y-12377738D01*
X17804643Y-12434881D01*
X17795119Y-12453928D01*
X17785595Y-12463452D01*
X17766548Y-12472976D01*
X17737976Y-12472976D01*
X17918929Y-12472976D02*
X17899881Y-12463452D01*
X17890357Y-12444405D01*
X17890357Y-12272976D01*
X18071310Y-12463452D02*
X18052262Y-12472976D01*
X18014167Y-12472976D01*
X17995119Y-12463452D01*
X17985595Y-12444405D01*
X17985595Y-12368214D01*
X17995119Y-12349167D01*
X18014167Y-12339643D01*
X18052262Y-12339643D01*
X18071310Y-12349167D01*
X18080833Y-12368214D01*
X18080833Y-12387262D01*
X17985595Y-12406309D01*
X18147500Y-12549167D02*
X18157024Y-12539643D01*
X18176071Y-12511071D01*
X18185595Y-12492024D01*
X18195119Y-12463452D01*
X18204643Y-12415833D01*
X18204643Y-12377738D01*
X18195119Y-12330119D01*
X18185595Y-12301548D01*
X18176071Y-12282500D01*
X18157024Y-12253928D01*
X18147500Y-12244405D01*
X18509405Y-12549167D02*
X18499881Y-12539643D01*
X18480833Y-12511071D01*
X18471310Y-12492024D01*
X18461786Y-12463452D01*
X18452262Y-12415833D01*
X18452262Y-12377738D01*
X18461786Y-12330119D01*
X18471310Y-12301548D01*
X18480833Y-12282500D01*
X18499881Y-12253928D01*
X18509405Y-12244405D01*
X18585595Y-12339643D02*
X18585595Y-12472976D01*
X18585595Y-12358690D02*
X18595119Y-12349167D01*
X18614167Y-12339643D01*
X18642738Y-12339643D01*
X18661786Y-12349167D01*
X18671310Y-12368214D01*
X18671310Y-12472976D01*
X18795119Y-12472976D02*
X18776071Y-12463452D01*
X18766548Y-12453928D01*
X18757024Y-12434881D01*
X18757024Y-12377738D01*
X18766548Y-12358690D01*
X18776071Y-12349167D01*
X18795119Y-12339643D01*
X18823690Y-12339643D01*
X18842738Y-12349167D01*
X18852262Y-12358690D01*
X18861786Y-12377738D01*
X18861786Y-12434881D01*
X18852262Y-12453928D01*
X18842738Y-12463452D01*
X18823690Y-12472976D01*
X18795119Y-12472976D01*
X18918929Y-12339643D02*
X18995119Y-12339643D01*
X18947500Y-12272976D02*
X18947500Y-12444405D01*
X18957024Y-12463452D01*
X18976071Y-12472976D01*
X18995119Y-12472976D01*
X19214167Y-12339643D02*
X19214167Y-12539643D01*
X19214167Y-12349167D02*
X19233214Y-12339643D01*
X19271310Y-12339643D01*
X19290357Y-12349167D01*
X19299881Y-12358690D01*
X19309405Y-12377738D01*
X19309405Y-12434881D01*
X19299881Y-12453928D01*
X19290357Y-12463452D01*
X19271310Y-12472976D01*
X19233214Y-12472976D01*
X19214167Y-12463452D01*
X19423690Y-12472976D02*
X19404643Y-12463452D01*
X19395119Y-12444405D01*
X19395119Y-12272976D01*
X19585595Y-12472976D02*
X19585595Y-12368214D01*
X19576071Y-12349167D01*
X19557024Y-12339643D01*
X19518929Y-12339643D01*
X19499881Y-12349167D01*
X19585595Y-12463452D02*
X19566548Y-12472976D01*
X19518929Y-12472976D01*
X19499881Y-12463452D01*
X19490357Y-12444405D01*
X19490357Y-12425357D01*
X19499881Y-12406309D01*
X19518929Y-12396786D01*
X19566548Y-12396786D01*
X19585595Y-12387262D01*
X19652262Y-12339643D02*
X19728452Y-12339643D01*
X19680833Y-12272976D02*
X19680833Y-12444405D01*
X19690357Y-12463452D01*
X19709405Y-12472976D01*
X19728452Y-12472976D01*
X19871310Y-12463452D02*
X19852262Y-12472976D01*
X19814167Y-12472976D01*
X19795119Y-12463452D01*
X19785595Y-12444405D01*
X19785595Y-12368214D01*
X19795119Y-12349167D01*
X19814167Y-12339643D01*
X19852262Y-12339643D01*
X19871310Y-12349167D01*
X19880833Y-12368214D01*
X19880833Y-12387262D01*
X19785595Y-12406309D01*
X20052262Y-12472976D02*
X20052262Y-12272976D01*
X20052262Y-12463452D02*
X20033214Y-12472976D01*
X19995119Y-12472976D01*
X19976071Y-12463452D01*
X19966548Y-12453928D01*
X19957024Y-12434881D01*
X19957024Y-12377738D01*
X19966548Y-12358690D01*
X19976071Y-12349167D01*
X19995119Y-12339643D01*
X20033214Y-12339643D01*
X20052262Y-12349167D01*
X20128452Y-12549167D02*
X20137976Y-12539643D01*
X20157024Y-12511071D01*
X20166548Y-12492024D01*
X20176071Y-12463452D01*
X20185595Y-12415833D01*
X20185595Y-12377738D01*
X20176071Y-12330119D01*
X20166548Y-12301548D01*
X20157024Y-12282500D01*
X20137976Y-12253928D01*
X20128452Y-12244405D01*
X13437500Y-12582500D02*
X13437500Y-12782500D01*
X13337500Y-12682500D02*
X13537500Y-12682500D01*
X13785595Y-12592024D02*
X13795119Y-12582500D01*
X13814167Y-12572976D01*
X13861786Y-12572976D01*
X13880833Y-12582500D01*
X13890357Y-12592024D01*
X13899881Y-12611071D01*
X13899881Y-12630119D01*
X13890357Y-12658690D01*
X13776071Y-12772976D01*
X13899881Y-12772976D01*
X13985595Y-12753928D02*
X13995119Y-12763452D01*
X13985595Y-12772976D01*
X13976071Y-12763452D01*
X13985595Y-12753928D01*
X13985595Y-12772976D01*
X14118928Y-12572976D02*
X14137976Y-12572976D01*
X14157024Y-12582500D01*
X14166548Y-12592024D01*
X14176071Y-12611071D01*
X14185595Y-12649167D01*
X14185595Y-12696786D01*
X14176071Y-12734881D01*
X14166548Y-12753928D01*
X14157024Y-12763452D01*
X14137976Y-12772976D01*
X14118928Y-12772976D01*
X14099881Y-12763452D01*
X14090357Y-12753928D01*
X14080833Y-12734881D01*
X14071309Y-12696786D01*
X14071309Y-12649167D01*
X14080833Y-12611071D01*
X14090357Y-12592024D01*
X14099881Y-12582500D01*
X14118928Y-12572976D01*
X14309405Y-12572976D02*
X14328452Y-12572976D01*
X14347500Y-12582500D01*
X14357024Y-12592024D01*
X14366548Y-12611071D01*
X14376071Y-12649167D01*
X14376071Y-12696786D01*
X14366548Y-12734881D01*
X14357024Y-12753928D01*
X14347500Y-12763452D01*
X14328452Y-12772976D01*
X14309405Y-12772976D01*
X14290357Y-12763452D01*
X14280833Y-12753928D01*
X14271309Y-12734881D01*
X14261786Y-12696786D01*
X14261786Y-12649167D01*
X14271309Y-12611071D01*
X14280833Y-12592024D01*
X14290357Y-12582500D01*
X14309405Y-12572976D01*
X14499881Y-12572976D02*
X14518928Y-12572976D01*
X14537976Y-12582500D01*
X14547500Y-12592024D01*
X14557024Y-12611071D01*
X14566548Y-12649167D01*
X14566548Y-12696786D01*
X14557024Y-12734881D01*
X14547500Y-12753928D01*
X14537976Y-12763452D01*
X14518928Y-12772976D01*
X14499881Y-12772976D01*
X14480833Y-12763452D01*
X14471309Y-12753928D01*
X14461786Y-12734881D01*
X14452262Y-12696786D01*
X14452262Y-12649167D01*
X14461786Y-12611071D01*
X14471309Y-12592024D01*
X14480833Y-12582500D01*
X14499881Y-12572976D01*
X14652262Y-12772976D02*
X14652262Y-12639643D01*
X14652262Y-12658690D02*
X14661786Y-12649167D01*
X14680833Y-12639643D01*
X14709405Y-12639643D01*
X14728452Y-12649167D01*
X14737976Y-12668214D01*
X14737976Y-12772976D01*
X14737976Y-12668214D02*
X14747500Y-12649167D01*
X14766548Y-12639643D01*
X14795119Y-12639643D01*
X14814167Y-12649167D01*
X14823690Y-12668214D01*
X14823690Y-12772976D01*
X14918928Y-12772976D02*
X14918928Y-12639643D01*
X14918928Y-12658690D02*
X14928452Y-12649167D01*
X14947500Y-12639643D01*
X14976071Y-12639643D01*
X14995119Y-12649167D01*
X15004643Y-12668214D01*
X15004643Y-12772976D01*
X15004643Y-12668214D02*
X15014167Y-12649167D01*
X15033214Y-12639643D01*
X15061786Y-12639643D01*
X15080833Y-12649167D01*
X15090357Y-12668214D01*
X15090357Y-12772976D01*
X15480833Y-12563452D02*
X15309405Y-12820595D01*
X15737976Y-12572976D02*
X15757024Y-12572976D01*
X15776071Y-12582500D01*
X15785595Y-12592024D01*
X15795119Y-12611071D01*
X15804643Y-12649167D01*
X15804643Y-12696786D01*
X15795119Y-12734881D01*
X15785595Y-12753928D01*
X15776071Y-12763452D01*
X15757024Y-12772976D01*
X15737976Y-12772976D01*
X15718928Y-12763452D01*
X15709405Y-12753928D01*
X15699881Y-12734881D01*
X15690357Y-12696786D01*
X15690357Y-12649167D01*
X15699881Y-12611071D01*
X15709405Y-12592024D01*
X15718928Y-12582500D01*
X15737976Y-12572976D01*
X15890357Y-12753928D02*
X15899881Y-12763452D01*
X15890357Y-12772976D01*
X15880833Y-12763452D01*
X15890357Y-12753928D01*
X15890357Y-12772976D01*
X16023690Y-12572976D02*
X16042738Y-12572976D01*
X16061786Y-12582500D01*
X16071309Y-12592024D01*
X16080833Y-12611071D01*
X16090357Y-12649167D01*
X16090357Y-12696786D01*
X16080833Y-12734881D01*
X16071309Y-12753928D01*
X16061786Y-12763452D01*
X16042738Y-12772976D01*
X16023690Y-12772976D01*
X16004643Y-12763452D01*
X15995119Y-12753928D01*
X15985595Y-12734881D01*
X15976071Y-12696786D01*
X15976071Y-12649167D01*
X15985595Y-12611071D01*
X15995119Y-12592024D01*
X16004643Y-12582500D01*
X16023690Y-12572976D01*
X16157024Y-12572976D02*
X16290357Y-12572976D01*
X16204643Y-12772976D01*
X16395119Y-12658690D02*
X16376071Y-12649167D01*
X16366548Y-12639643D01*
X16357024Y-12620595D01*
X16357024Y-12611071D01*
X16366548Y-12592024D01*
X16376071Y-12582500D01*
X16395119Y-12572976D01*
X16433214Y-12572976D01*
X16452262Y-12582500D01*
X16461786Y-12592024D01*
X16471309Y-12611071D01*
X16471309Y-12620595D01*
X16461786Y-12639643D01*
X16452262Y-12649167D01*
X16433214Y-12658690D01*
X16395119Y-12658690D01*
X16376071Y-12668214D01*
X16366548Y-12677738D01*
X16357024Y-12696786D01*
X16357024Y-12734881D01*
X16366548Y-12753928D01*
X16376071Y-12763452D01*
X16395119Y-12772976D01*
X16433214Y-12772976D01*
X16452262Y-12763452D01*
X16461786Y-12753928D01*
X16471309Y-12734881D01*
X16471309Y-12696786D01*
X16461786Y-12677738D01*
X16452262Y-12668214D01*
X16433214Y-12658690D01*
X16537976Y-12572976D02*
X16671309Y-12572976D01*
X16585595Y-12772976D01*
X16737976Y-12572976D02*
X16737976Y-12611071D01*
X16814167Y-12572976D02*
X16814167Y-12611071D01*
X17109405Y-12849167D02*
X17099881Y-12839643D01*
X17080833Y-12811071D01*
X17071310Y-12792024D01*
X17061786Y-12763452D01*
X17052262Y-12715833D01*
X17052262Y-12677738D01*
X17061786Y-12630119D01*
X17071310Y-12601548D01*
X17080833Y-12582500D01*
X17099881Y-12553928D01*
X17109405Y-12544405D01*
X17176071Y-12592024D02*
X17185595Y-12582500D01*
X17204643Y-12572976D01*
X17252262Y-12572976D01*
X17271310Y-12582500D01*
X17280833Y-12592024D01*
X17290357Y-12611071D01*
X17290357Y-12630119D01*
X17280833Y-12658690D01*
X17166548Y-12772976D01*
X17290357Y-12772976D01*
X17528452Y-12772976D02*
X17528452Y-12572976D01*
X17614167Y-12772976D02*
X17614167Y-12668214D01*
X17604643Y-12649167D01*
X17585595Y-12639643D01*
X17557024Y-12639643D01*
X17537976Y-12649167D01*
X17528452Y-12658690D01*
X17737976Y-12772976D02*
X17718929Y-12763452D01*
X17709405Y-12753928D01*
X17699881Y-12734881D01*
X17699881Y-12677738D01*
X17709405Y-12658690D01*
X17718929Y-12649167D01*
X17737976Y-12639643D01*
X17766548Y-12639643D01*
X17785595Y-12649167D01*
X17795119Y-12658690D01*
X17804643Y-12677738D01*
X17804643Y-12734881D01*
X17795119Y-12753928D01*
X17785595Y-12763452D01*
X17766548Y-12772976D01*
X17737976Y-12772976D01*
X17918929Y-12772976D02*
X17899881Y-12763452D01*
X17890357Y-12744405D01*
X17890357Y-12572976D01*
X18071310Y-12763452D02*
X18052262Y-12772976D01*
X18014167Y-12772976D01*
X17995119Y-12763452D01*
X17985595Y-12744405D01*
X17985595Y-12668214D01*
X17995119Y-12649167D01*
X18014167Y-12639643D01*
X18052262Y-12639643D01*
X18071310Y-12649167D01*
X18080833Y-12668214D01*
X18080833Y-12687262D01*
X17985595Y-12706309D01*
X18157024Y-12763452D02*
X18176071Y-12772976D01*
X18214167Y-12772976D01*
X18233214Y-12763452D01*
X18242738Y-12744405D01*
X18242738Y-12734881D01*
X18233214Y-12715833D01*
X18214167Y-12706309D01*
X18185595Y-12706309D01*
X18166548Y-12696786D01*
X18157024Y-12677738D01*
X18157024Y-12668214D01*
X18166548Y-12649167D01*
X18185595Y-12639643D01*
X18214167Y-12639643D01*
X18233214Y-12649167D01*
X18309405Y-12849167D02*
X18318929Y-12839643D01*
X18337976Y-12811071D01*
X18347500Y-12792024D01*
X18357024Y-12763452D01*
X18366548Y-12715833D01*
X18366548Y-12677738D01*
X18357024Y-12630119D01*
X18347500Y-12601548D01*
X18337976Y-12582500D01*
X18318929Y-12553928D01*
X18309405Y-12544405D01*
X18671310Y-12849167D02*
X18661786Y-12839643D01*
X18642738Y-12811071D01*
X18633214Y-12792024D01*
X18623690Y-12763452D01*
X18614167Y-12715833D01*
X18614167Y-12677738D01*
X18623690Y-12630119D01*
X18633214Y-12601548D01*
X18642738Y-12582500D01*
X18661786Y-12553928D01*
X18671310Y-12544405D01*
X18747500Y-12639643D02*
X18747500Y-12772976D01*
X18747500Y-12658690D02*
X18757024Y-12649167D01*
X18776071Y-12639643D01*
X18804643Y-12639643D01*
X18823690Y-12649167D01*
X18833214Y-12668214D01*
X18833214Y-12772976D01*
X18957024Y-12772976D02*
X18937976Y-12763452D01*
X18928452Y-12753928D01*
X18918929Y-12734881D01*
X18918929Y-12677738D01*
X18928452Y-12658690D01*
X18937976Y-12649167D01*
X18957024Y-12639643D01*
X18985595Y-12639643D01*
X19004643Y-12649167D01*
X19014167Y-12658690D01*
X19023690Y-12677738D01*
X19023690Y-12734881D01*
X19014167Y-12753928D01*
X19004643Y-12763452D01*
X18985595Y-12772976D01*
X18957024Y-12772976D01*
X19080833Y-12639643D02*
X19157024Y-12639643D01*
X19109405Y-12572976D02*
X19109405Y-12744405D01*
X19118929Y-12763452D01*
X19137976Y-12772976D01*
X19157024Y-12772976D01*
X19376071Y-12639643D02*
X19376071Y-12839643D01*
X19376071Y-12649167D02*
X19395119Y-12639643D01*
X19433214Y-12639643D01*
X19452262Y-12649167D01*
X19461786Y-12658690D01*
X19471310Y-12677738D01*
X19471310Y-12734881D01*
X19461786Y-12753928D01*
X19452262Y-12763452D01*
X19433214Y-12772976D01*
X19395119Y-12772976D01*
X19376071Y-12763452D01*
X19585595Y-12772976D02*
X19566548Y-12763452D01*
X19557024Y-12744405D01*
X19557024Y-12572976D01*
X19747500Y-12772976D02*
X19747500Y-12668214D01*
X19737976Y-12649167D01*
X19718929Y-12639643D01*
X19680833Y-12639643D01*
X19661786Y-12649167D01*
X19747500Y-12763452D02*
X19728452Y-12772976D01*
X19680833Y-12772976D01*
X19661786Y-12763452D01*
X19652262Y-12744405D01*
X19652262Y-12725357D01*
X19661786Y-12706309D01*
X19680833Y-12696786D01*
X19728452Y-12696786D01*
X19747500Y-12687262D01*
X19814167Y-12639643D02*
X19890357Y-12639643D01*
X19842738Y-12572976D02*
X19842738Y-12744405D01*
X19852262Y-12763452D01*
X19871310Y-12772976D01*
X19890357Y-12772976D01*
X20033214Y-12763452D02*
X20014167Y-12772976D01*
X19976071Y-12772976D01*
X19957024Y-12763452D01*
X19947500Y-12744405D01*
X19947500Y-12668214D01*
X19957024Y-12649167D01*
X19976071Y-12639643D01*
X20014167Y-12639643D01*
X20033214Y-12649167D01*
X20042738Y-12668214D01*
X20042738Y-12687262D01*
X19947500Y-12706309D01*
X20214167Y-12772976D02*
X20214167Y-12572976D01*
X20214167Y-12763452D02*
X20195119Y-12772976D01*
X20157024Y-12772976D01*
X20137976Y-12763452D01*
X20128452Y-12753928D01*
X20118929Y-12734881D01*
X20118929Y-12677738D01*
X20128452Y-12658690D01*
X20137976Y-12649167D01*
X20157024Y-12639643D01*
X20195119Y-12639643D01*
X20214167Y-12649167D01*
X20290357Y-12849167D02*
X20299881Y-12839643D01*
X20318929Y-12811071D01*
X20328452Y-12792024D01*
X20337976Y-12763452D01*
X20347500Y-12715833D01*
X20347500Y-12677738D01*
X20337976Y-12630119D01*
X20328452Y-12601548D01*
X20318929Y-12582500D01*
X20299881Y-12553928D01*
X20290357Y-12544405D01*
X13508211Y-13073211D02*
X13508211Y-12931789D01*
X13366789Y-12931789D01*
X13366789Y-13073211D01*
X13508211Y-13073211D01*
X13890357Y-12892976D02*
X13795119Y-12892976D01*
X13785595Y-12988214D01*
X13795119Y-12978690D01*
X13814167Y-12969167D01*
X13861786Y-12969167D01*
X13880833Y-12978690D01*
X13890357Y-12988214D01*
X13899881Y-13007262D01*
X13899881Y-13054881D01*
X13890357Y-13073928D01*
X13880833Y-13083452D01*
X13861786Y-13092976D01*
X13814167Y-13092976D01*
X13795119Y-13083452D01*
X13785595Y-13073928D01*
X13985595Y-13073928D02*
X13995119Y-13083452D01*
X13985595Y-13092976D01*
X13976071Y-13083452D01*
X13985595Y-13073928D01*
X13985595Y-13092976D01*
X14071309Y-12912024D02*
X14080833Y-12902500D01*
X14099881Y-12892976D01*
X14147500Y-12892976D01*
X14166548Y-12902500D01*
X14176071Y-12912024D01*
X14185595Y-12931071D01*
X14185595Y-12950119D01*
X14176071Y-12978690D01*
X14061786Y-13092976D01*
X14185595Y-13092976D01*
X14309405Y-12892976D02*
X14328452Y-12892976D01*
X14347500Y-12902500D01*
X14357024Y-12912024D01*
X14366548Y-12931071D01*
X14376071Y-12969167D01*
X14376071Y-13016786D01*
X14366548Y-13054881D01*
X14357024Y-13073928D01*
X14347500Y-13083452D01*
X14328452Y-13092976D01*
X14309405Y-13092976D01*
X14290357Y-13083452D01*
X14280833Y-13073928D01*
X14271309Y-13054881D01*
X14261786Y-13016786D01*
X14261786Y-12969167D01*
X14271309Y-12931071D01*
X14280833Y-12912024D01*
X14290357Y-12902500D01*
X14309405Y-12892976D01*
X14499881Y-12892976D02*
X14518928Y-12892976D01*
X14537976Y-12902500D01*
X14547500Y-12912024D01*
X14557024Y-12931071D01*
X14566548Y-12969167D01*
X14566548Y-13016786D01*
X14557024Y-13054881D01*
X14547500Y-13073928D01*
X14537976Y-13083452D01*
X14518928Y-13092976D01*
X14499881Y-13092976D01*
X14480833Y-13083452D01*
X14471309Y-13073928D01*
X14461786Y-13054881D01*
X14452262Y-13016786D01*
X14452262Y-12969167D01*
X14461786Y-12931071D01*
X14471309Y-12912024D01*
X14480833Y-12902500D01*
X14499881Y-12892976D01*
X14652262Y-13092976D02*
X14652262Y-12959643D01*
X14652262Y-12978690D02*
X14661786Y-12969167D01*
X14680833Y-12959643D01*
X14709405Y-12959643D01*
X14728452Y-12969167D01*
X14737976Y-12988214D01*
X14737976Y-13092976D01*
X14737976Y-12988214D02*
X14747500Y-12969167D01*
X14766548Y-12959643D01*
X14795119Y-12959643D01*
X14814167Y-12969167D01*
X14823690Y-12988214D01*
X14823690Y-13092976D01*
X14918928Y-13092976D02*
X14918928Y-12959643D01*
X14918928Y-12978690D02*
X14928452Y-12969167D01*
X14947500Y-12959643D01*
X14976071Y-12959643D01*
X14995119Y-12969167D01*
X15004643Y-12988214D01*
X15004643Y-13092976D01*
X15004643Y-12988214D02*
X15014167Y-12969167D01*
X15033214Y-12959643D01*
X15061786Y-12959643D01*
X15080833Y-12969167D01*
X15090357Y-12988214D01*
X15090357Y-13092976D01*
X15480833Y-12883452D02*
X15309405Y-13140595D01*
X15737976Y-12892976D02*
X15757024Y-12892976D01*
X15776071Y-12902500D01*
X15785595Y-12912024D01*
X15795119Y-12931071D01*
X15804643Y-12969167D01*
X15804643Y-13016786D01*
X15795119Y-13054881D01*
X15785595Y-13073928D01*
X15776071Y-13083452D01*
X15757024Y-13092976D01*
X15737976Y-13092976D01*
X15718928Y-13083452D01*
X15709405Y-13073928D01*
X15699881Y-13054881D01*
X15690357Y-13016786D01*
X15690357Y-12969167D01*
X15699881Y-12931071D01*
X15709405Y-12912024D01*
X15718928Y-12902500D01*
X15737976Y-12892976D01*
X15890357Y-13073928D02*
X15899881Y-13083452D01*
X15890357Y-13092976D01*
X15880833Y-13083452D01*
X15890357Y-13073928D01*
X15890357Y-13092976D01*
X15976071Y-12912024D02*
X15985595Y-12902500D01*
X16004643Y-12892976D01*
X16052262Y-12892976D01*
X16071309Y-12902500D01*
X16080833Y-12912024D01*
X16090357Y-12931071D01*
X16090357Y-12950119D01*
X16080833Y-12978690D01*
X15966548Y-13092976D01*
X16090357Y-13092976D01*
X16214167Y-12892976D02*
X16233214Y-12892976D01*
X16252262Y-12902500D01*
X16261786Y-12912024D01*
X16271309Y-12931071D01*
X16280833Y-12969167D01*
X16280833Y-13016786D01*
X16271309Y-13054881D01*
X16261786Y-13073928D01*
X16252262Y-13083452D01*
X16233214Y-13092976D01*
X16214167Y-13092976D01*
X16195119Y-13083452D01*
X16185595Y-13073928D01*
X16176071Y-13054881D01*
X16166548Y-13016786D01*
X16166548Y-12969167D01*
X16176071Y-12931071D01*
X16185595Y-12912024D01*
X16195119Y-12902500D01*
X16214167Y-12892976D01*
X16452262Y-12959643D02*
X16452262Y-13092976D01*
X16404643Y-12883452D02*
X16357024Y-13026309D01*
X16480833Y-13026309D01*
X16537976Y-12892976D02*
X16671309Y-12892976D01*
X16585595Y-13092976D01*
X16737976Y-12892976D02*
X16737976Y-12931071D01*
X16814167Y-12892976D02*
X16814167Y-12931071D01*
X17109405Y-13169167D02*
X17099881Y-13159643D01*
X17080833Y-13131071D01*
X17071310Y-13112024D01*
X17061786Y-13083452D01*
X17052262Y-13035833D01*
X17052262Y-12997738D01*
X17061786Y-12950119D01*
X17071310Y-12921548D01*
X17080833Y-12902500D01*
X17099881Y-12873928D01*
X17109405Y-12864405D01*
X17290357Y-13092976D02*
X17176071Y-13092976D01*
X17233214Y-13092976D02*
X17233214Y-12892976D01*
X17214167Y-12921548D01*
X17195119Y-12940595D01*
X17176071Y-12950119D01*
X17528452Y-13092976D02*
X17528452Y-12892976D01*
X17614167Y-13092976D02*
X17614167Y-12988214D01*
X17604643Y-12969167D01*
X17585595Y-12959643D01*
X17557024Y-12959643D01*
X17537976Y-12969167D01*
X17528452Y-12978690D01*
X17737976Y-13092976D02*
X17718929Y-13083452D01*
X17709405Y-13073928D01*
X17699881Y-13054881D01*
X17699881Y-12997738D01*
X17709405Y-12978690D01*
X17718929Y-12969167D01*
X17737976Y-12959643D01*
X17766548Y-12959643D01*
X17785595Y-12969167D01*
X17795119Y-12978690D01*
X17804643Y-12997738D01*
X17804643Y-13054881D01*
X17795119Y-13073928D01*
X17785595Y-13083452D01*
X17766548Y-13092976D01*
X17737976Y-13092976D01*
X17918929Y-13092976D02*
X17899881Y-13083452D01*
X17890357Y-13064405D01*
X17890357Y-12892976D01*
X18071310Y-13083452D02*
X18052262Y-13092976D01*
X18014167Y-13092976D01*
X17995119Y-13083452D01*
X17985595Y-13064405D01*
X17985595Y-12988214D01*
X17995119Y-12969167D01*
X18014167Y-12959643D01*
X18052262Y-12959643D01*
X18071310Y-12969167D01*
X18080833Y-12988214D01*
X18080833Y-13007262D01*
X17985595Y-13026309D01*
X18147500Y-13169167D02*
X18157024Y-13159643D01*
X18176071Y-13131071D01*
X18185595Y-13112024D01*
X18195119Y-13083452D01*
X18204643Y-13035833D01*
X18204643Y-12997738D01*
X18195119Y-12950119D01*
X18185595Y-12921548D01*
X18176071Y-12902500D01*
X18157024Y-12873928D01*
X18147500Y-12864405D01*
X18509405Y-13169167D02*
X18499881Y-13159643D01*
X18480833Y-13131071D01*
X18471310Y-13112024D01*
X18461786Y-13083452D01*
X18452262Y-13035833D01*
X18452262Y-12997738D01*
X18461786Y-12950119D01*
X18471310Y-12921548D01*
X18480833Y-12902500D01*
X18499881Y-12873928D01*
X18509405Y-12864405D01*
X18585595Y-12959643D02*
X18585595Y-13092976D01*
X18585595Y-12978690D02*
X18595119Y-12969167D01*
X18614167Y-12959643D01*
X18642738Y-12959643D01*
X18661786Y-12969167D01*
X18671310Y-12988214D01*
X18671310Y-13092976D01*
X18795119Y-13092976D02*
X18776071Y-13083452D01*
X18766548Y-13073928D01*
X18757024Y-13054881D01*
X18757024Y-12997738D01*
X18766548Y-12978690D01*
X18776071Y-12969167D01*
X18795119Y-12959643D01*
X18823690Y-12959643D01*
X18842738Y-12969167D01*
X18852262Y-12978690D01*
X18861786Y-12997738D01*
X18861786Y-13054881D01*
X18852262Y-13073928D01*
X18842738Y-13083452D01*
X18823690Y-13092976D01*
X18795119Y-13092976D01*
X18918929Y-12959643D02*
X18995119Y-12959643D01*
X18947500Y-12892976D02*
X18947500Y-13064405D01*
X18957024Y-13083452D01*
X18976071Y-13092976D01*
X18995119Y-13092976D01*
X19214167Y-12959643D02*
X19214167Y-13159643D01*
X19214167Y-12969167D02*
X19233214Y-12959643D01*
X19271310Y-12959643D01*
X19290357Y-12969167D01*
X19299881Y-12978690D01*
X19309405Y-12997738D01*
X19309405Y-13054881D01*
X19299881Y-13073928D01*
X19290357Y-13083452D01*
X19271310Y-13092976D01*
X19233214Y-13092976D01*
X19214167Y-13083452D01*
X19423690Y-13092976D02*
X19404643Y-13083452D01*
X19395119Y-13064405D01*
X19395119Y-12892976D01*
X19585595Y-13092976D02*
X19585595Y-12988214D01*
X19576071Y-12969167D01*
X19557024Y-12959643D01*
X19518929Y-12959643D01*
X19499881Y-12969167D01*
X19585595Y-13083452D02*
X19566548Y-13092976D01*
X19518929Y-13092976D01*
X19499881Y-13083452D01*
X19490357Y-13064405D01*
X19490357Y-13045357D01*
X19499881Y-13026309D01*
X19518929Y-13016786D01*
X19566548Y-13016786D01*
X19585595Y-13007262D01*
X19652262Y-12959643D02*
X19728452Y-12959643D01*
X19680833Y-12892976D02*
X19680833Y-13064405D01*
X19690357Y-13083452D01*
X19709405Y-13092976D01*
X19728452Y-13092976D01*
X19871310Y-13083452D02*
X19852262Y-13092976D01*
X19814167Y-13092976D01*
X19795119Y-13083452D01*
X19785595Y-13064405D01*
X19785595Y-12988214D01*
X19795119Y-12969167D01*
X19814167Y-12959643D01*
X19852262Y-12959643D01*
X19871310Y-12969167D01*
X19880833Y-12988214D01*
X19880833Y-13007262D01*
X19785595Y-13026309D01*
X20052262Y-13092976D02*
X20052262Y-12892976D01*
X20052262Y-13083452D02*
X20033214Y-13092976D01*
X19995119Y-13092976D01*
X19976071Y-13083452D01*
X19966548Y-13073928D01*
X19957024Y-13054881D01*
X19957024Y-12997738D01*
X19966548Y-12978690D01*
X19976071Y-12969167D01*
X19995119Y-12959643D01*
X20033214Y-12959643D01*
X20052262Y-12969167D01*
X20128452Y-13169167D02*
X20137976Y-13159643D01*
X20157024Y-13131071D01*
X20166548Y-13112024D01*
X20176071Y-13083452D01*
X20185595Y-13035833D01*
X20185595Y-12997738D01*
X20176071Y-12950119D01*
X20166548Y-12921548D01*
X20157024Y-12902500D01*
X20137976Y-12873928D01*
X20128452Y-12864405D01*
M02*
