%FSLAX45Y45*%
G04 Gerber Fmt 4.5, Leading zero omitted, Abs format (unit mm)*
G04 Created by KiCad (PCBNEW (6.0.1)) date 2022-03-21 17:48:07*
%MOMM*%
%LPD*%
G01*
G04 APERTURE LIST*
%TA.AperFunction,Profile*%
%ADD10C,0.250000*%
%TD*%
%ADD11C,0.200000*%
%ADD12C,0.060000*%
%ADD13C,0.080000*%
%ADD14C,0.180000*%
G04 APERTURE END LIST*
D10*
X17360000Y-8300000D02*
X14710000Y-8300000D01*
X17040000Y-9410000D02*
G75*
G03*
X16604561Y-9601888I0J-590000D01*
G01*
X14710000Y-8300000D02*
X14610000Y-8400000D01*
X16434738Y-9705056D02*
X16504789Y-9751707D01*
X17460000Y-8400000D02*
X17360000Y-8300000D01*
X16534510Y-9555238D02*
G75*
G03*
X16434738Y-9705056I-49886J-74909D01*
G01*
X16604561Y-9601888D02*
X16534510Y-9555238D01*
X17360000Y-9410000D02*
X17460000Y-9310000D01*
X16504789Y-9751707D02*
G75*
G03*
X16450000Y-10000000I535210J-248293D01*
G01*
X17040000Y-9410000D02*
X17360000Y-9410000D01*
X14610000Y-8603433D02*
G75*
G03*
X16450000Y-10000000I390000J-1396567D01*
G01*
X14610000Y-8400000D02*
X14610000Y-8603433D01*
X17460000Y-9310000D02*
X17460000Y-8400000D01*
D11*
D12*
X14843000Y-11030000D02*
X14903000Y-11090000D01*
X14903000Y-11030000D02*
X14843000Y-11090000D01*
X14970000Y-11030000D02*
X15030000Y-11090000D01*
X15030000Y-11030000D02*
X14970000Y-11090000D01*
X15097000Y-11030000D02*
X15157000Y-11090000D01*
X15157000Y-11030000D02*
X15097000Y-11090000D01*
X16030000Y-9843000D02*
X16090000Y-9903000D01*
X16090000Y-9843000D02*
X16030000Y-9903000D01*
X16030000Y-9970000D02*
X16090000Y-10030000D01*
X16090000Y-9970000D02*
X16030000Y-10030000D01*
X16030000Y-10097000D02*
X16090000Y-10157000D01*
X16090000Y-10097000D02*
X16030000Y-10157000D01*
D13*
X14365000Y-10565000D02*
G75*
G03*
X14365000Y-10565000I-40000J0D01*
G01*
D11*
X14355000Y-10605000D02*
X14355000Y-10525000D01*
X14295000Y-10605000D02*
X14295000Y-10525000D01*
X14355000Y-10525000D02*
G75*
G03*
X14295000Y-10525000I-30000J0D01*
G01*
X14295000Y-10605000D02*
G75*
G03*
X14355000Y-10605000I30000J0D01*
G01*
D13*
X15715000Y-9435000D02*
G75*
G03*
X15715000Y-9435000I-40000J0D01*
G01*
D11*
X15705000Y-9475000D02*
X15705000Y-9395000D01*
X15645000Y-9475000D02*
X15645000Y-9395000D01*
X15705000Y-9395000D02*
G75*
G03*
X15645000Y-9395000I-30000J0D01*
G01*
X15645000Y-9475000D02*
G75*
G03*
X15705000Y-9475000I30000J0D01*
G01*
D13*
X17250000Y-8500000D02*
G75*
G03*
X17250000Y-8500000I-40000J0D01*
G01*
X17250000Y-8700000D02*
G75*
G03*
X17250000Y-8700000I-40000J0D01*
G01*
X17250000Y-8900000D02*
G75*
G03*
X17250000Y-8900000I-40000J0D01*
G01*
X17250000Y-9100000D02*
G75*
G03*
X17250000Y-9100000I-40000J0D01*
G01*
D14*
X14407000Y-9362000D02*
X14407000Y-9542000D01*
X14317000Y-9452000D02*
X14497000Y-9452000D01*
D11*
X14486303Y-9391082D02*
X14370724Y-9358812D01*
X14443276Y-9545188D02*
X14327697Y-9512918D01*
X14370724Y-9358812D02*
G75*
G03*
X14327697Y-9512918I-21514J-77053D01*
G01*
X14443276Y-9545188D02*
G75*
G03*
X14486303Y-9391082I21514J77053D01*
G01*
D14*
X15593000Y-10458000D02*
X15593000Y-10638000D01*
X15503000Y-10548000D02*
X15683000Y-10548000D01*
D11*
X15672303Y-10487082D02*
X15556724Y-10454812D01*
X15629276Y-10641188D02*
X15513697Y-10608918D01*
X15556724Y-10454812D02*
G75*
G03*
X15513697Y-10608918I-21514J-77053D01*
G01*
X15629276Y-10641188D02*
G75*
G03*
X15672303Y-10487082I21514J77053D01*
G01*
X13795119Y-11772976D02*
X13795119Y-11572976D01*
X13842738Y-11572976D01*
X13871309Y-11582500D01*
X13890357Y-11601548D01*
X13899881Y-11620595D01*
X13909405Y-11658690D01*
X13909405Y-11687262D01*
X13899881Y-11725357D01*
X13890357Y-11744405D01*
X13871309Y-11763452D01*
X13842738Y-11772976D01*
X13795119Y-11772976D01*
X13995119Y-11772976D02*
X13995119Y-11639643D01*
X13995119Y-11677738D02*
X14004643Y-11658690D01*
X14014167Y-11649167D01*
X14033214Y-11639643D01*
X14052262Y-11639643D01*
X14118928Y-11772976D02*
X14118928Y-11639643D01*
X14118928Y-11572976D02*
X14109405Y-11582500D01*
X14118928Y-11592024D01*
X14128452Y-11582500D01*
X14118928Y-11572976D01*
X14118928Y-11592024D01*
X14242738Y-11772976D02*
X14223690Y-11763452D01*
X14214167Y-11744405D01*
X14214167Y-11572976D01*
X14347500Y-11772976D02*
X14328452Y-11763452D01*
X14318928Y-11744405D01*
X14318928Y-11572976D01*
X14576071Y-11772976D02*
X14576071Y-11572976D01*
X14642738Y-11715833D01*
X14709405Y-11572976D01*
X14709405Y-11772976D01*
X14890357Y-11772976D02*
X14890357Y-11668214D01*
X14880833Y-11649167D01*
X14861786Y-11639643D01*
X14823690Y-11639643D01*
X14804643Y-11649167D01*
X14890357Y-11763452D02*
X14871309Y-11772976D01*
X14823690Y-11772976D01*
X14804643Y-11763452D01*
X14795119Y-11744405D01*
X14795119Y-11725357D01*
X14804643Y-11706309D01*
X14823690Y-11696786D01*
X14871309Y-11696786D01*
X14890357Y-11687262D01*
X14985595Y-11639643D02*
X14985595Y-11839643D01*
X14985595Y-11649167D02*
X15004643Y-11639643D01*
X15042738Y-11639643D01*
X15061786Y-11649167D01*
X15071309Y-11658690D01*
X15080833Y-11677738D01*
X15080833Y-11734881D01*
X15071309Y-11753928D01*
X15061786Y-11763452D01*
X15042738Y-11772976D01*
X15004643Y-11772976D01*
X14985595Y-11763452D01*
X15166548Y-11753928D02*
X15176071Y-11763452D01*
X15166548Y-11772976D01*
X15157024Y-11763452D01*
X15166548Y-11753928D01*
X15166548Y-11772976D01*
X15166548Y-11649167D02*
X15176071Y-11658690D01*
X15166548Y-11668214D01*
X15157024Y-11658690D01*
X15166548Y-11649167D01*
X15166548Y-11668214D01*
D12*
X13477500Y-12072500D02*
X13537500Y-12132500D01*
X13537500Y-12072500D02*
X13477500Y-12132500D01*
D11*
X13833214Y-11992976D02*
X13852262Y-11992976D01*
X13871309Y-12002500D01*
X13880833Y-12012024D01*
X13890357Y-12031071D01*
X13899881Y-12069167D01*
X13899881Y-12116786D01*
X13890357Y-12154881D01*
X13880833Y-12173928D01*
X13871309Y-12183452D01*
X13852262Y-12192976D01*
X13833214Y-12192976D01*
X13814167Y-12183452D01*
X13804643Y-12173928D01*
X13795119Y-12154881D01*
X13785595Y-12116786D01*
X13785595Y-12069167D01*
X13795119Y-12031071D01*
X13804643Y-12012024D01*
X13814167Y-12002500D01*
X13833214Y-11992976D01*
X13985595Y-12173928D02*
X13995119Y-12183452D01*
X13985595Y-12192976D01*
X13976071Y-12183452D01*
X13985595Y-12173928D01*
X13985595Y-12192976D01*
X14166548Y-11992976D02*
X14128452Y-11992976D01*
X14109405Y-12002500D01*
X14099881Y-12012024D01*
X14080833Y-12040595D01*
X14071309Y-12078690D01*
X14071309Y-12154881D01*
X14080833Y-12173928D01*
X14090357Y-12183452D01*
X14109405Y-12192976D01*
X14147500Y-12192976D01*
X14166548Y-12183452D01*
X14176071Y-12173928D01*
X14185595Y-12154881D01*
X14185595Y-12107262D01*
X14176071Y-12088214D01*
X14166548Y-12078690D01*
X14147500Y-12069167D01*
X14109405Y-12069167D01*
X14090357Y-12078690D01*
X14080833Y-12088214D01*
X14071309Y-12107262D01*
X14309405Y-11992976D02*
X14328452Y-11992976D01*
X14347500Y-12002500D01*
X14357024Y-12012024D01*
X14366548Y-12031071D01*
X14376071Y-12069167D01*
X14376071Y-12116786D01*
X14366548Y-12154881D01*
X14357024Y-12173928D01*
X14347500Y-12183452D01*
X14328452Y-12192976D01*
X14309405Y-12192976D01*
X14290357Y-12183452D01*
X14280833Y-12173928D01*
X14271309Y-12154881D01*
X14261786Y-12116786D01*
X14261786Y-12069167D01*
X14271309Y-12031071D01*
X14280833Y-12012024D01*
X14290357Y-12002500D01*
X14309405Y-11992976D01*
X14499881Y-11992976D02*
X14518928Y-11992976D01*
X14537976Y-12002500D01*
X14547500Y-12012024D01*
X14557024Y-12031071D01*
X14566548Y-12069167D01*
X14566548Y-12116786D01*
X14557024Y-12154881D01*
X14547500Y-12173928D01*
X14537976Y-12183452D01*
X14518928Y-12192976D01*
X14499881Y-12192976D01*
X14480833Y-12183452D01*
X14471309Y-12173928D01*
X14461786Y-12154881D01*
X14452262Y-12116786D01*
X14452262Y-12069167D01*
X14461786Y-12031071D01*
X14471309Y-12012024D01*
X14480833Y-12002500D01*
X14499881Y-11992976D01*
X14652262Y-12192976D02*
X14652262Y-12059643D01*
X14652262Y-12078690D02*
X14661786Y-12069167D01*
X14680833Y-12059643D01*
X14709405Y-12059643D01*
X14728452Y-12069167D01*
X14737976Y-12088214D01*
X14737976Y-12192976D01*
X14737976Y-12088214D02*
X14747500Y-12069167D01*
X14766548Y-12059643D01*
X14795119Y-12059643D01*
X14814167Y-12069167D01*
X14823690Y-12088214D01*
X14823690Y-12192976D01*
X14918928Y-12192976D02*
X14918928Y-12059643D01*
X14918928Y-12078690D02*
X14928452Y-12069167D01*
X14947500Y-12059643D01*
X14976071Y-12059643D01*
X14995119Y-12069167D01*
X15004643Y-12088214D01*
X15004643Y-12192976D01*
X15004643Y-12088214D02*
X15014167Y-12069167D01*
X15033214Y-12059643D01*
X15061786Y-12059643D01*
X15080833Y-12069167D01*
X15090357Y-12088214D01*
X15090357Y-12192976D01*
X15480833Y-11983452D02*
X15309405Y-12240595D01*
X15737976Y-11992976D02*
X15757024Y-11992976D01*
X15776071Y-12002500D01*
X15785595Y-12012024D01*
X15795119Y-12031071D01*
X15804643Y-12069167D01*
X15804643Y-12116786D01*
X15795119Y-12154881D01*
X15785595Y-12173928D01*
X15776071Y-12183452D01*
X15757024Y-12192976D01*
X15737976Y-12192976D01*
X15718928Y-12183452D01*
X15709405Y-12173928D01*
X15699881Y-12154881D01*
X15690357Y-12116786D01*
X15690357Y-12069167D01*
X15699881Y-12031071D01*
X15709405Y-12012024D01*
X15718928Y-12002500D01*
X15737976Y-11992976D01*
X15890357Y-12173928D02*
X15899881Y-12183452D01*
X15890357Y-12192976D01*
X15880833Y-12183452D01*
X15890357Y-12173928D01*
X15890357Y-12192976D01*
X16023690Y-11992976D02*
X16042738Y-11992976D01*
X16061786Y-12002500D01*
X16071309Y-12012024D01*
X16080833Y-12031071D01*
X16090357Y-12069167D01*
X16090357Y-12116786D01*
X16080833Y-12154881D01*
X16071309Y-12173928D01*
X16061786Y-12183452D01*
X16042738Y-12192976D01*
X16023690Y-12192976D01*
X16004643Y-12183452D01*
X15995119Y-12173928D01*
X15985595Y-12154881D01*
X15976071Y-12116786D01*
X15976071Y-12069167D01*
X15985595Y-12031071D01*
X15995119Y-12012024D01*
X16004643Y-12002500D01*
X16023690Y-11992976D01*
X16166548Y-12012024D02*
X16176071Y-12002500D01*
X16195119Y-11992976D01*
X16242738Y-11992976D01*
X16261786Y-12002500D01*
X16271309Y-12012024D01*
X16280833Y-12031071D01*
X16280833Y-12050119D01*
X16271309Y-12078690D01*
X16157024Y-12192976D01*
X16280833Y-12192976D01*
X16347500Y-11992976D02*
X16471309Y-11992976D01*
X16404643Y-12069167D01*
X16433214Y-12069167D01*
X16452262Y-12078690D01*
X16461786Y-12088214D01*
X16471309Y-12107262D01*
X16471309Y-12154881D01*
X16461786Y-12173928D01*
X16452262Y-12183452D01*
X16433214Y-12192976D01*
X16376071Y-12192976D01*
X16357024Y-12183452D01*
X16347500Y-12173928D01*
X16642738Y-11992976D02*
X16604643Y-11992976D01*
X16585595Y-12002500D01*
X16576071Y-12012024D01*
X16557024Y-12040595D01*
X16547500Y-12078690D01*
X16547500Y-12154881D01*
X16557024Y-12173928D01*
X16566548Y-12183452D01*
X16585595Y-12192976D01*
X16623690Y-12192976D01*
X16642738Y-12183452D01*
X16652262Y-12173928D01*
X16661786Y-12154881D01*
X16661786Y-12107262D01*
X16652262Y-12088214D01*
X16642738Y-12078690D01*
X16623690Y-12069167D01*
X16585595Y-12069167D01*
X16566548Y-12078690D01*
X16557024Y-12088214D01*
X16547500Y-12107262D01*
X16737976Y-11992976D02*
X16737976Y-12031071D01*
X16814167Y-11992976D02*
X16814167Y-12031071D01*
X17109405Y-12269167D02*
X17099881Y-12259643D01*
X17080833Y-12231071D01*
X17071310Y-12212024D01*
X17061786Y-12183452D01*
X17052262Y-12135833D01*
X17052262Y-12097738D01*
X17061786Y-12050119D01*
X17071310Y-12021548D01*
X17080833Y-12002500D01*
X17099881Y-11973928D01*
X17109405Y-11964405D01*
X17271310Y-11992976D02*
X17233214Y-11992976D01*
X17214167Y-12002500D01*
X17204643Y-12012024D01*
X17185595Y-12040595D01*
X17176071Y-12078690D01*
X17176071Y-12154881D01*
X17185595Y-12173928D01*
X17195119Y-12183452D01*
X17214167Y-12192976D01*
X17252262Y-12192976D01*
X17271310Y-12183452D01*
X17280833Y-12173928D01*
X17290357Y-12154881D01*
X17290357Y-12107262D01*
X17280833Y-12088214D01*
X17271310Y-12078690D01*
X17252262Y-12069167D01*
X17214167Y-12069167D01*
X17195119Y-12078690D01*
X17185595Y-12088214D01*
X17176071Y-12107262D01*
X17528452Y-12192976D02*
X17528452Y-11992976D01*
X17614167Y-12192976D02*
X17614167Y-12088214D01*
X17604643Y-12069167D01*
X17585595Y-12059643D01*
X17557024Y-12059643D01*
X17537976Y-12069167D01*
X17528452Y-12078690D01*
X17737976Y-12192976D02*
X17718929Y-12183452D01*
X17709405Y-12173928D01*
X17699881Y-12154881D01*
X17699881Y-12097738D01*
X17709405Y-12078690D01*
X17718929Y-12069167D01*
X17737976Y-12059643D01*
X17766548Y-12059643D01*
X17785595Y-12069167D01*
X17795119Y-12078690D01*
X17804643Y-12097738D01*
X17804643Y-12154881D01*
X17795119Y-12173928D01*
X17785595Y-12183452D01*
X17766548Y-12192976D01*
X17737976Y-12192976D01*
X17918929Y-12192976D02*
X17899881Y-12183452D01*
X17890357Y-12164405D01*
X17890357Y-11992976D01*
X18071310Y-12183452D02*
X18052262Y-12192976D01*
X18014167Y-12192976D01*
X17995119Y-12183452D01*
X17985595Y-12164405D01*
X17985595Y-12088214D01*
X17995119Y-12069167D01*
X18014167Y-12059643D01*
X18052262Y-12059643D01*
X18071310Y-12069167D01*
X18080833Y-12088214D01*
X18080833Y-12107262D01*
X17985595Y-12126309D01*
X18157024Y-12183452D02*
X18176071Y-12192976D01*
X18214167Y-12192976D01*
X18233214Y-12183452D01*
X18242738Y-12164405D01*
X18242738Y-12154881D01*
X18233214Y-12135833D01*
X18214167Y-12126309D01*
X18185595Y-12126309D01*
X18166548Y-12116786D01*
X18157024Y-12097738D01*
X18157024Y-12088214D01*
X18166548Y-12069167D01*
X18185595Y-12059643D01*
X18214167Y-12059643D01*
X18233214Y-12069167D01*
X18309405Y-12269167D02*
X18318929Y-12259643D01*
X18337976Y-12231071D01*
X18347500Y-12212024D01*
X18357024Y-12183452D01*
X18366548Y-12135833D01*
X18366548Y-12097738D01*
X18357024Y-12050119D01*
X18347500Y-12021548D01*
X18337976Y-12002500D01*
X18318929Y-11973928D01*
X18309405Y-11964405D01*
D13*
X13537500Y-12366500D02*
G75*
G03*
X13537500Y-12366500I-40000J0D01*
G01*
D11*
X13833214Y-12256976D02*
X13852262Y-12256976D01*
X13871309Y-12266500D01*
X13880833Y-12276024D01*
X13890357Y-12295071D01*
X13899881Y-12333167D01*
X13899881Y-12380786D01*
X13890357Y-12418881D01*
X13880833Y-12437928D01*
X13871309Y-12447452D01*
X13852262Y-12456976D01*
X13833214Y-12456976D01*
X13814167Y-12447452D01*
X13804643Y-12437928D01*
X13795119Y-12418881D01*
X13785595Y-12380786D01*
X13785595Y-12333167D01*
X13795119Y-12295071D01*
X13804643Y-12276024D01*
X13814167Y-12266500D01*
X13833214Y-12256976D01*
X13985595Y-12437928D02*
X13995119Y-12447452D01*
X13985595Y-12456976D01*
X13976071Y-12447452D01*
X13985595Y-12437928D01*
X13985595Y-12456976D01*
X14109405Y-12342690D02*
X14090357Y-12333167D01*
X14080833Y-12323643D01*
X14071309Y-12304595D01*
X14071309Y-12295071D01*
X14080833Y-12276024D01*
X14090357Y-12266500D01*
X14109405Y-12256976D01*
X14147500Y-12256976D01*
X14166548Y-12266500D01*
X14176071Y-12276024D01*
X14185595Y-12295071D01*
X14185595Y-12304595D01*
X14176071Y-12323643D01*
X14166548Y-12333167D01*
X14147500Y-12342690D01*
X14109405Y-12342690D01*
X14090357Y-12352214D01*
X14080833Y-12361738D01*
X14071309Y-12380786D01*
X14071309Y-12418881D01*
X14080833Y-12437928D01*
X14090357Y-12447452D01*
X14109405Y-12456976D01*
X14147500Y-12456976D01*
X14166548Y-12447452D01*
X14176071Y-12437928D01*
X14185595Y-12418881D01*
X14185595Y-12380786D01*
X14176071Y-12361738D01*
X14166548Y-12352214D01*
X14147500Y-12342690D01*
X14309405Y-12256976D02*
X14328452Y-12256976D01*
X14347500Y-12266500D01*
X14357024Y-12276024D01*
X14366548Y-12295071D01*
X14376071Y-12333167D01*
X14376071Y-12380786D01*
X14366548Y-12418881D01*
X14357024Y-12437928D01*
X14347500Y-12447452D01*
X14328452Y-12456976D01*
X14309405Y-12456976D01*
X14290357Y-12447452D01*
X14280833Y-12437928D01*
X14271309Y-12418881D01*
X14261786Y-12380786D01*
X14261786Y-12333167D01*
X14271309Y-12295071D01*
X14280833Y-12276024D01*
X14290357Y-12266500D01*
X14309405Y-12256976D01*
X14499881Y-12256976D02*
X14518928Y-12256976D01*
X14537976Y-12266500D01*
X14547500Y-12276024D01*
X14557024Y-12295071D01*
X14566548Y-12333167D01*
X14566548Y-12380786D01*
X14557024Y-12418881D01*
X14547500Y-12437928D01*
X14537976Y-12447452D01*
X14518928Y-12456976D01*
X14499881Y-12456976D01*
X14480833Y-12447452D01*
X14471309Y-12437928D01*
X14461786Y-12418881D01*
X14452262Y-12380786D01*
X14452262Y-12333167D01*
X14461786Y-12295071D01*
X14471309Y-12276024D01*
X14480833Y-12266500D01*
X14499881Y-12256976D01*
X14652262Y-12456976D02*
X14652262Y-12323643D01*
X14652262Y-12342690D02*
X14661786Y-12333167D01*
X14680833Y-12323643D01*
X14709405Y-12323643D01*
X14728452Y-12333167D01*
X14737976Y-12352214D01*
X14737976Y-12456976D01*
X14737976Y-12352214D02*
X14747500Y-12333167D01*
X14766548Y-12323643D01*
X14795119Y-12323643D01*
X14814167Y-12333167D01*
X14823690Y-12352214D01*
X14823690Y-12456976D01*
X14918928Y-12456976D02*
X14918928Y-12323643D01*
X14918928Y-12342690D02*
X14928452Y-12333167D01*
X14947500Y-12323643D01*
X14976071Y-12323643D01*
X14995119Y-12333167D01*
X15004643Y-12352214D01*
X15004643Y-12456976D01*
X15004643Y-12352214D02*
X15014167Y-12333167D01*
X15033214Y-12323643D01*
X15061786Y-12323643D01*
X15080833Y-12333167D01*
X15090357Y-12352214D01*
X15090357Y-12456976D01*
X15480833Y-12247452D02*
X15309405Y-12504595D01*
X15737976Y-12256976D02*
X15757024Y-12256976D01*
X15776071Y-12266500D01*
X15785595Y-12276024D01*
X15795119Y-12295071D01*
X15804643Y-12333167D01*
X15804643Y-12380786D01*
X15795119Y-12418881D01*
X15785595Y-12437928D01*
X15776071Y-12447452D01*
X15757024Y-12456976D01*
X15737976Y-12456976D01*
X15718928Y-12447452D01*
X15709405Y-12437928D01*
X15699881Y-12418881D01*
X15690357Y-12380786D01*
X15690357Y-12333167D01*
X15699881Y-12295071D01*
X15709405Y-12276024D01*
X15718928Y-12266500D01*
X15737976Y-12256976D01*
X15890357Y-12437928D02*
X15899881Y-12447452D01*
X15890357Y-12456976D01*
X15880833Y-12447452D01*
X15890357Y-12437928D01*
X15890357Y-12456976D01*
X16023690Y-12256976D02*
X16042738Y-12256976D01*
X16061786Y-12266500D01*
X16071309Y-12276024D01*
X16080833Y-12295071D01*
X16090357Y-12333167D01*
X16090357Y-12380786D01*
X16080833Y-12418881D01*
X16071309Y-12437928D01*
X16061786Y-12447452D01*
X16042738Y-12456976D01*
X16023690Y-12456976D01*
X16004643Y-12447452D01*
X15995119Y-12437928D01*
X15985595Y-12418881D01*
X15976071Y-12380786D01*
X15976071Y-12333167D01*
X15985595Y-12295071D01*
X15995119Y-12276024D01*
X16004643Y-12266500D01*
X16023690Y-12256976D01*
X16157024Y-12256976D02*
X16280833Y-12256976D01*
X16214167Y-12333167D01*
X16242738Y-12333167D01*
X16261786Y-12342690D01*
X16271309Y-12352214D01*
X16280833Y-12371262D01*
X16280833Y-12418881D01*
X16271309Y-12437928D01*
X16261786Y-12447452D01*
X16242738Y-12456976D01*
X16185595Y-12456976D01*
X16166548Y-12447452D01*
X16157024Y-12437928D01*
X16471309Y-12456976D02*
X16357024Y-12456976D01*
X16414167Y-12456976D02*
X16414167Y-12256976D01*
X16395119Y-12285548D01*
X16376071Y-12304595D01*
X16357024Y-12314119D01*
X16652262Y-12256976D02*
X16557024Y-12256976D01*
X16547500Y-12352214D01*
X16557024Y-12342690D01*
X16576071Y-12333167D01*
X16623690Y-12333167D01*
X16642738Y-12342690D01*
X16652262Y-12352214D01*
X16661786Y-12371262D01*
X16661786Y-12418881D01*
X16652262Y-12437928D01*
X16642738Y-12447452D01*
X16623690Y-12456976D01*
X16576071Y-12456976D01*
X16557024Y-12447452D01*
X16547500Y-12437928D01*
X16737976Y-12256976D02*
X16737976Y-12295071D01*
X16814167Y-12256976D02*
X16814167Y-12295071D01*
X17109405Y-12533167D02*
X17099881Y-12523643D01*
X17080833Y-12495071D01*
X17071310Y-12476024D01*
X17061786Y-12447452D01*
X17052262Y-12399833D01*
X17052262Y-12361738D01*
X17061786Y-12314119D01*
X17071310Y-12285548D01*
X17080833Y-12266500D01*
X17099881Y-12237928D01*
X17109405Y-12228405D01*
X17271310Y-12323643D02*
X17271310Y-12456976D01*
X17223690Y-12247452D02*
X17176071Y-12390309D01*
X17299881Y-12390309D01*
X17528452Y-12456976D02*
X17528452Y-12256976D01*
X17614167Y-12456976D02*
X17614167Y-12352214D01*
X17604643Y-12333167D01*
X17585595Y-12323643D01*
X17557024Y-12323643D01*
X17537976Y-12333167D01*
X17528452Y-12342690D01*
X17737976Y-12456976D02*
X17718929Y-12447452D01*
X17709405Y-12437928D01*
X17699881Y-12418881D01*
X17699881Y-12361738D01*
X17709405Y-12342690D01*
X17718929Y-12333167D01*
X17737976Y-12323643D01*
X17766548Y-12323643D01*
X17785595Y-12333167D01*
X17795119Y-12342690D01*
X17804643Y-12361738D01*
X17804643Y-12418881D01*
X17795119Y-12437928D01*
X17785595Y-12447452D01*
X17766548Y-12456976D01*
X17737976Y-12456976D01*
X17918929Y-12456976D02*
X17899881Y-12447452D01*
X17890357Y-12428405D01*
X17890357Y-12256976D01*
X18071310Y-12447452D02*
X18052262Y-12456976D01*
X18014167Y-12456976D01*
X17995119Y-12447452D01*
X17985595Y-12428405D01*
X17985595Y-12352214D01*
X17995119Y-12333167D01*
X18014167Y-12323643D01*
X18052262Y-12323643D01*
X18071310Y-12333167D01*
X18080833Y-12352214D01*
X18080833Y-12371262D01*
X17985595Y-12390309D01*
X18157024Y-12447452D02*
X18176071Y-12456976D01*
X18214167Y-12456976D01*
X18233214Y-12447452D01*
X18242738Y-12428405D01*
X18242738Y-12418881D01*
X18233214Y-12399833D01*
X18214167Y-12390309D01*
X18185595Y-12390309D01*
X18166548Y-12380786D01*
X18157024Y-12361738D01*
X18157024Y-12352214D01*
X18166548Y-12333167D01*
X18185595Y-12323643D01*
X18214167Y-12323643D01*
X18233214Y-12333167D01*
X18480833Y-12380786D02*
X18633214Y-12380786D01*
X18557024Y-12456976D02*
X18557024Y-12304595D01*
X18871310Y-12276024D02*
X18880833Y-12266500D01*
X18899881Y-12256976D01*
X18947500Y-12256976D01*
X18966548Y-12266500D01*
X18976071Y-12276024D01*
X18985595Y-12295071D01*
X18985595Y-12314119D01*
X18976071Y-12342690D01*
X18861786Y-12456976D01*
X18985595Y-12456976D01*
X19214167Y-12447452D02*
X19233214Y-12456976D01*
X19271310Y-12456976D01*
X19290357Y-12447452D01*
X19299881Y-12428405D01*
X19299881Y-12418881D01*
X19290357Y-12399833D01*
X19271310Y-12390309D01*
X19242738Y-12390309D01*
X19223690Y-12380786D01*
X19214167Y-12361738D01*
X19214167Y-12352214D01*
X19223690Y-12333167D01*
X19242738Y-12323643D01*
X19271310Y-12323643D01*
X19290357Y-12333167D01*
X19414167Y-12456976D02*
X19395119Y-12447452D01*
X19385595Y-12428405D01*
X19385595Y-12256976D01*
X19518929Y-12456976D02*
X19499881Y-12447452D01*
X19490357Y-12437928D01*
X19480833Y-12418881D01*
X19480833Y-12361738D01*
X19490357Y-12342690D01*
X19499881Y-12333167D01*
X19518929Y-12323643D01*
X19547500Y-12323643D01*
X19566548Y-12333167D01*
X19576071Y-12342690D01*
X19585595Y-12361738D01*
X19585595Y-12418881D01*
X19576071Y-12437928D01*
X19566548Y-12447452D01*
X19547500Y-12456976D01*
X19518929Y-12456976D01*
X19642738Y-12323643D02*
X19718929Y-12323643D01*
X19671310Y-12256976D02*
X19671310Y-12428405D01*
X19680833Y-12447452D01*
X19699881Y-12456976D01*
X19718929Y-12456976D01*
X19776071Y-12447452D02*
X19795119Y-12456976D01*
X19833214Y-12456976D01*
X19852262Y-12447452D01*
X19861786Y-12428405D01*
X19861786Y-12418881D01*
X19852262Y-12399833D01*
X19833214Y-12390309D01*
X19804643Y-12390309D01*
X19785595Y-12380786D01*
X19776071Y-12361738D01*
X19776071Y-12352214D01*
X19785595Y-12333167D01*
X19804643Y-12323643D01*
X19833214Y-12323643D01*
X19852262Y-12333167D01*
X19928452Y-12533167D02*
X19937976Y-12523643D01*
X19957024Y-12495071D01*
X19966548Y-12476024D01*
X19976071Y-12447452D01*
X19985595Y-12399833D01*
X19985595Y-12361738D01*
X19976071Y-12314119D01*
X19966548Y-12285548D01*
X19957024Y-12266500D01*
X19937976Y-12237928D01*
X19928452Y-12228405D01*
D14*
X13447500Y-12540500D02*
X13447500Y-12720500D01*
X13357500Y-12630500D02*
X13537500Y-12630500D01*
D11*
X13899881Y-12720976D02*
X13785595Y-12720976D01*
X13842738Y-12720976D02*
X13842738Y-12520976D01*
X13823690Y-12549548D01*
X13804643Y-12568595D01*
X13785595Y-12578119D01*
X13985595Y-12701928D02*
X13995119Y-12711452D01*
X13985595Y-12720976D01*
X13976071Y-12711452D01*
X13985595Y-12701928D01*
X13985595Y-12720976D01*
X14109405Y-12606690D02*
X14090357Y-12597167D01*
X14080833Y-12587643D01*
X14071309Y-12568595D01*
X14071309Y-12559071D01*
X14080833Y-12540024D01*
X14090357Y-12530500D01*
X14109405Y-12520976D01*
X14147500Y-12520976D01*
X14166548Y-12530500D01*
X14176071Y-12540024D01*
X14185595Y-12559071D01*
X14185595Y-12568595D01*
X14176071Y-12587643D01*
X14166548Y-12597167D01*
X14147500Y-12606690D01*
X14109405Y-12606690D01*
X14090357Y-12616214D01*
X14080833Y-12625738D01*
X14071309Y-12644786D01*
X14071309Y-12682881D01*
X14080833Y-12701928D01*
X14090357Y-12711452D01*
X14109405Y-12720976D01*
X14147500Y-12720976D01*
X14166548Y-12711452D01*
X14176071Y-12701928D01*
X14185595Y-12682881D01*
X14185595Y-12644786D01*
X14176071Y-12625738D01*
X14166548Y-12616214D01*
X14147500Y-12606690D01*
X14309405Y-12520976D02*
X14328452Y-12520976D01*
X14347500Y-12530500D01*
X14357024Y-12540024D01*
X14366548Y-12559071D01*
X14376071Y-12597167D01*
X14376071Y-12644786D01*
X14366548Y-12682881D01*
X14357024Y-12701928D01*
X14347500Y-12711452D01*
X14328452Y-12720976D01*
X14309405Y-12720976D01*
X14290357Y-12711452D01*
X14280833Y-12701928D01*
X14271309Y-12682881D01*
X14261786Y-12644786D01*
X14261786Y-12597167D01*
X14271309Y-12559071D01*
X14280833Y-12540024D01*
X14290357Y-12530500D01*
X14309405Y-12520976D01*
X14499881Y-12520976D02*
X14518928Y-12520976D01*
X14537976Y-12530500D01*
X14547500Y-12540024D01*
X14557024Y-12559071D01*
X14566548Y-12597167D01*
X14566548Y-12644786D01*
X14557024Y-12682881D01*
X14547500Y-12701928D01*
X14537976Y-12711452D01*
X14518928Y-12720976D01*
X14499881Y-12720976D01*
X14480833Y-12711452D01*
X14471309Y-12701928D01*
X14461786Y-12682881D01*
X14452262Y-12644786D01*
X14452262Y-12597167D01*
X14461786Y-12559071D01*
X14471309Y-12540024D01*
X14480833Y-12530500D01*
X14499881Y-12520976D01*
X14652262Y-12720976D02*
X14652262Y-12587643D01*
X14652262Y-12606690D02*
X14661786Y-12597167D01*
X14680833Y-12587643D01*
X14709405Y-12587643D01*
X14728452Y-12597167D01*
X14737976Y-12616214D01*
X14737976Y-12720976D01*
X14737976Y-12616214D02*
X14747500Y-12597167D01*
X14766548Y-12587643D01*
X14795119Y-12587643D01*
X14814167Y-12597167D01*
X14823690Y-12616214D01*
X14823690Y-12720976D01*
X14918928Y-12720976D02*
X14918928Y-12587643D01*
X14918928Y-12606690D02*
X14928452Y-12597167D01*
X14947500Y-12587643D01*
X14976071Y-12587643D01*
X14995119Y-12597167D01*
X15004643Y-12616214D01*
X15004643Y-12720976D01*
X15004643Y-12616214D02*
X15014167Y-12597167D01*
X15033214Y-12587643D01*
X15061786Y-12587643D01*
X15080833Y-12597167D01*
X15090357Y-12616214D01*
X15090357Y-12720976D01*
X15480833Y-12511452D02*
X15309405Y-12768595D01*
X15737976Y-12520976D02*
X15757024Y-12520976D01*
X15776071Y-12530500D01*
X15785595Y-12540024D01*
X15795119Y-12559071D01*
X15804643Y-12597167D01*
X15804643Y-12644786D01*
X15795119Y-12682881D01*
X15785595Y-12701928D01*
X15776071Y-12711452D01*
X15757024Y-12720976D01*
X15737976Y-12720976D01*
X15718928Y-12711452D01*
X15709405Y-12701928D01*
X15699881Y-12682881D01*
X15690357Y-12644786D01*
X15690357Y-12597167D01*
X15699881Y-12559071D01*
X15709405Y-12540024D01*
X15718928Y-12530500D01*
X15737976Y-12520976D01*
X15890357Y-12701928D02*
X15899881Y-12711452D01*
X15890357Y-12720976D01*
X15880833Y-12711452D01*
X15890357Y-12701928D01*
X15890357Y-12720976D01*
X16023690Y-12520976D02*
X16042738Y-12520976D01*
X16061786Y-12530500D01*
X16071309Y-12540024D01*
X16080833Y-12559071D01*
X16090357Y-12597167D01*
X16090357Y-12644786D01*
X16080833Y-12682881D01*
X16071309Y-12701928D01*
X16061786Y-12711452D01*
X16042738Y-12720976D01*
X16023690Y-12720976D01*
X16004643Y-12711452D01*
X15995119Y-12701928D01*
X15985595Y-12682881D01*
X15976071Y-12644786D01*
X15976071Y-12597167D01*
X15985595Y-12559071D01*
X15995119Y-12540024D01*
X16004643Y-12530500D01*
X16023690Y-12520976D01*
X16157024Y-12520976D02*
X16290357Y-12520976D01*
X16204643Y-12720976D01*
X16404643Y-12520976D02*
X16423690Y-12520976D01*
X16442738Y-12530500D01*
X16452262Y-12540024D01*
X16461786Y-12559071D01*
X16471309Y-12597167D01*
X16471309Y-12644786D01*
X16461786Y-12682881D01*
X16452262Y-12701928D01*
X16442738Y-12711452D01*
X16423690Y-12720976D01*
X16404643Y-12720976D01*
X16385595Y-12711452D01*
X16376071Y-12701928D01*
X16366548Y-12682881D01*
X16357024Y-12644786D01*
X16357024Y-12597167D01*
X16366548Y-12559071D01*
X16376071Y-12540024D01*
X16385595Y-12530500D01*
X16404643Y-12520976D01*
X16566548Y-12720976D02*
X16604643Y-12720976D01*
X16623690Y-12711452D01*
X16633214Y-12701928D01*
X16652262Y-12673357D01*
X16661786Y-12635262D01*
X16661786Y-12559071D01*
X16652262Y-12540024D01*
X16642738Y-12530500D01*
X16623690Y-12520976D01*
X16585595Y-12520976D01*
X16566548Y-12530500D01*
X16557024Y-12540024D01*
X16547500Y-12559071D01*
X16547500Y-12606690D01*
X16557024Y-12625738D01*
X16566548Y-12635262D01*
X16585595Y-12644786D01*
X16623690Y-12644786D01*
X16642738Y-12635262D01*
X16652262Y-12625738D01*
X16661786Y-12606690D01*
X16737976Y-12520976D02*
X16737976Y-12559071D01*
X16814167Y-12520976D02*
X16814167Y-12559071D01*
X17109405Y-12797167D02*
X17099881Y-12787643D01*
X17080833Y-12759071D01*
X17071310Y-12740024D01*
X17061786Y-12711452D01*
X17052262Y-12663833D01*
X17052262Y-12625738D01*
X17061786Y-12578119D01*
X17071310Y-12549548D01*
X17080833Y-12530500D01*
X17099881Y-12501928D01*
X17109405Y-12492405D01*
X17223690Y-12520976D02*
X17242738Y-12520976D01*
X17261786Y-12530500D01*
X17271310Y-12540024D01*
X17280833Y-12559071D01*
X17290357Y-12597167D01*
X17290357Y-12644786D01*
X17280833Y-12682881D01*
X17271310Y-12701928D01*
X17261786Y-12711452D01*
X17242738Y-12720976D01*
X17223690Y-12720976D01*
X17204643Y-12711452D01*
X17195119Y-12701928D01*
X17185595Y-12682881D01*
X17176071Y-12644786D01*
X17176071Y-12597167D01*
X17185595Y-12559071D01*
X17195119Y-12540024D01*
X17204643Y-12530500D01*
X17223690Y-12520976D01*
X17528452Y-12720976D02*
X17528452Y-12520976D01*
X17614167Y-12720976D02*
X17614167Y-12616214D01*
X17604643Y-12597167D01*
X17585595Y-12587643D01*
X17557024Y-12587643D01*
X17537976Y-12597167D01*
X17528452Y-12606690D01*
X17737976Y-12720976D02*
X17718929Y-12711452D01*
X17709405Y-12701928D01*
X17699881Y-12682881D01*
X17699881Y-12625738D01*
X17709405Y-12606690D01*
X17718929Y-12597167D01*
X17737976Y-12587643D01*
X17766548Y-12587643D01*
X17785595Y-12597167D01*
X17795119Y-12606690D01*
X17804643Y-12625738D01*
X17804643Y-12682881D01*
X17795119Y-12701928D01*
X17785595Y-12711452D01*
X17766548Y-12720976D01*
X17737976Y-12720976D01*
X17918929Y-12720976D02*
X17899881Y-12711452D01*
X17890357Y-12692405D01*
X17890357Y-12520976D01*
X18071310Y-12711452D02*
X18052262Y-12720976D01*
X18014167Y-12720976D01*
X17995119Y-12711452D01*
X17985595Y-12692405D01*
X17985595Y-12616214D01*
X17995119Y-12597167D01*
X18014167Y-12587643D01*
X18052262Y-12587643D01*
X18071310Y-12597167D01*
X18080833Y-12616214D01*
X18080833Y-12635262D01*
X17985595Y-12654309D01*
X18157024Y-12711452D02*
X18176071Y-12720976D01*
X18214167Y-12720976D01*
X18233214Y-12711452D01*
X18242738Y-12692405D01*
X18242738Y-12682881D01*
X18233214Y-12663833D01*
X18214167Y-12654309D01*
X18185595Y-12654309D01*
X18166548Y-12644786D01*
X18157024Y-12625738D01*
X18157024Y-12616214D01*
X18166548Y-12597167D01*
X18185595Y-12587643D01*
X18214167Y-12587643D01*
X18233214Y-12597167D01*
X18480833Y-12644786D02*
X18633214Y-12644786D01*
X18557024Y-12720976D02*
X18557024Y-12568595D01*
X18871310Y-12540024D02*
X18880833Y-12530500D01*
X18899881Y-12520976D01*
X18947500Y-12520976D01*
X18966548Y-12530500D01*
X18976071Y-12540024D01*
X18985595Y-12559071D01*
X18985595Y-12578119D01*
X18976071Y-12606690D01*
X18861786Y-12720976D01*
X18985595Y-12720976D01*
X19214167Y-12711452D02*
X19233214Y-12720976D01*
X19271310Y-12720976D01*
X19290357Y-12711452D01*
X19299881Y-12692405D01*
X19299881Y-12682881D01*
X19290357Y-12663833D01*
X19271310Y-12654309D01*
X19242738Y-12654309D01*
X19223690Y-12644786D01*
X19214167Y-12625738D01*
X19214167Y-12616214D01*
X19223690Y-12597167D01*
X19242738Y-12587643D01*
X19271310Y-12587643D01*
X19290357Y-12597167D01*
X19414167Y-12720976D02*
X19395119Y-12711452D01*
X19385595Y-12692405D01*
X19385595Y-12520976D01*
X19518929Y-12720976D02*
X19499881Y-12711452D01*
X19490357Y-12701928D01*
X19480833Y-12682881D01*
X19480833Y-12625738D01*
X19490357Y-12606690D01*
X19499881Y-12597167D01*
X19518929Y-12587643D01*
X19547500Y-12587643D01*
X19566548Y-12597167D01*
X19576071Y-12606690D01*
X19585595Y-12625738D01*
X19585595Y-12682881D01*
X19576071Y-12701928D01*
X19566548Y-12711452D01*
X19547500Y-12720976D01*
X19518929Y-12720976D01*
X19642738Y-12587643D02*
X19718929Y-12587643D01*
X19671310Y-12520976D02*
X19671310Y-12692405D01*
X19680833Y-12711452D01*
X19699881Y-12720976D01*
X19718929Y-12720976D01*
X19776071Y-12711452D02*
X19795119Y-12720976D01*
X19833214Y-12720976D01*
X19852262Y-12711452D01*
X19861786Y-12692405D01*
X19861786Y-12682881D01*
X19852262Y-12663833D01*
X19833214Y-12654309D01*
X19804643Y-12654309D01*
X19785595Y-12644786D01*
X19776071Y-12625738D01*
X19776071Y-12616214D01*
X19785595Y-12597167D01*
X19804643Y-12587643D01*
X19833214Y-12587643D01*
X19852262Y-12597167D01*
X19928452Y-12797167D02*
X19937976Y-12787643D01*
X19957024Y-12759071D01*
X19966548Y-12740024D01*
X19976071Y-12711452D01*
X19985595Y-12663833D01*
X19985595Y-12625738D01*
X19976071Y-12578119D01*
X19966548Y-12549548D01*
X19957024Y-12530500D01*
X19937976Y-12501928D01*
X19928452Y-12492405D01*
M02*
