%TF.GenerationSoftware,KiCad,Pcbnew,(6.0.1)*%
%TF.CreationDate,2022-01-23T20:56:55-08:00*%
%TF.ProjectId,PhobGCC,50686f62-4743-4432-9e6b-696361645f70,rev?*%
%TF.SameCoordinates,Original*%
%TF.FileFunction,Legend,Top*%
%TF.FilePolarity,Positive*%
%FSLAX46Y46*%
G04 Gerber Fmt 4.6, Leading zero omitted, Abs format (unit mm)*
G04 Created by KiCad (PCBNEW (6.0.1)) date 2022-01-23 20:56:55*
%MOMM*%
%LPD*%
G01*
G04 APERTURE LIST*
G04 Aperture macros list*
%AMRoundRect*
0 Rectangle with rounded corners*
0 $1 Rounding radius*
0 $2 $3 $4 $5 $6 $7 $8 $9 X,Y pos of 4 corners*
0 Add a 4 corners polygon primitive as box body*
4,1,4,$2,$3,$4,$5,$6,$7,$8,$9,$2,$3,0*
0 Add four circle primitives for the rounded corners*
1,1,$1+$1,$2,$3*
1,1,$1+$1,$4,$5*
1,1,$1+$1,$6,$7*
1,1,$1+$1,$8,$9*
0 Add four rect primitives between the rounded corners*
20,1,$1+$1,$2,$3,$4,$5,0*
20,1,$1+$1,$4,$5,$6,$7,0*
20,1,$1+$1,$6,$7,$8,$9,0*
20,1,$1+$1,$8,$9,$2,$3,0*%
%AMHorizOval*
0 Thick line with rounded ends*
0 $1 width*
0 $2 $3 position (X,Y) of the first rounded end (center of the circle)*
0 $4 $5 position (X,Y) of the second rounded end (center of the circle)*
0 Add line between two ends*
20,1,$1,$2,$3,$4,$5,0*
0 Add two circle primitives to create the rounded ends*
1,1,$1,$2,$3*
1,1,$1,$4,$5*%
%AMOutline4P*
0 Free polygon, 4 corners , with rotation*
0 The origin of the aperture is its center*
0 number of corners: always 4*
0 $1 to $8 corner X, Y*
0 $9 Rotation angle, in degrees counterclockwise*
0 create outline with 4 corners*
4,1,4,$1,$2,$3,$4,$5,$6,$7,$8,$1,$2,$9*%
%AMFreePoly0*
4,1,485,0.033845,0.726392,0.034431,0.726518,0.202577,0.695752,0.203096,0.695417,0.203716,0.695400,0.357983,0.626537,0.358412,0.626084,0.359013,0.625919,0.494570,0.520560,0.494750,0.520243,0.495086,0.520099,0.515648,0.498967,0.515723,0.498779,0.515902,0.498685,0.600307,0.397628,0.600443,0.397192,0.600804,0.396914,0.656833,0.299424,0.656909,0.298841,0.657282,0.298386,
0.689713,0.191657,0.689665,0.191165,0.689901,0.190730,0.703513,0.061963,0.703447,0.061741,0.703540,0.061528,0.704798,-0.007408,0.704765,-0.007491,0.704798,-0.007574,0.703307,-0.107928,0.703234,-0.108097,0.703290,-0.108272,0.697295,-0.179687,0.697122,-0.180023,0.697184,-0.180397,0.684250,-0.236219,0.683996,-0.236575,0.683995,-0.237012,0.661686,-0.290581,0.661540,-0.290726,
0.661524,-0.290931,0.648158,-0.317137,0.648022,-0.317253,0.647996,-0.317430,0.601616,-0.395012,0.601472,-0.395119,0.601434,-0.395293,0.542436,-0.480459,0.542311,-0.480540,0.542271,-0.480684,0.504223,-0.529542,0.448151,-0.605890,0.407284,-0.685204,0.379248,-0.776183,0.361927,-0.887392,0.353277,-1.027235,0.351356,-1.133531,0.352945,-1.281398,0.361246,-1.393555,0.378015,-1.476550,
0.404895,-1.537030,0.443756,-1.582129,0.484103,-1.611203,0.565558,-1.643348,0.647633,-1.653926,0.746329,-1.665641,0.746818,-1.665915,0.747379,-1.665882,0.835602,-1.696499,0.836085,-1.696929,0.836718,-1.697051,0.903945,-1.741469,0.904506,-1.742299,0.905336,-1.742850,0.941086,-1.795975,0.941245,-1.796757,0.941743,-1.797383,0.942100,-1.798622,0.942059,-1.798988,0.942245,-1.799304,
0.948244,-1.841600,0.948195,-1.841790,0.948283,-1.841968,0.953319,-1.917100,0.953293,-1.917176,0.953327,-1.917249,0.956969,-2.015726,0.956949,-2.015779,0.956971,-2.015830,0.958789,-2.128157,0.958776,-2.128189,0.958790,-2.128221,0.958917,-2.166483,0.958917,-2.166485,0.959242,-2.278465,0.959223,-2.278512,0.959241,-2.278558,0.957796,-2.371336,0.957717,-2.371520,0.957776,-2.371710,
0.950931,-2.447096,0.950725,-2.447490,0.950783,-2.447927,0.934905,-2.507730,0.934444,-2.508334,0.934321,-2.509082,0.905778,-2.555109,0.905023,-2.555652,0.904554,-2.556455,0.859717,-2.590517,0.858982,-2.590710,0.858423,-2.591227,0.793661,-2.615132,0.793193,-2.615114,0.792798,-2.615365,0.704478,-2.630921,0.704229,-2.630866,0.704000,-2.630982,0.588493,-2.639998,0.588370,-2.639958,
0.588251,-2.640011,0.441924,-2.644296,0.441870,-2.644275,0.441816,-2.644298,0.261040,-2.645661,0.261024,-2.645654,0.261008,-2.645661,0.042153,-2.645911,0.001430,-2.645971,-0.228230,-2.646549,-0.228242,-2.646544,-0.228254,-2.646549,-0.419163,-2.646129,-0.419210,-2.646109,-0.419258,-2.646128,-0.574988,-2.642817,-0.575096,-2.642769,-0.575207,-2.642807,-0.699331,-2.634711,-0.699539,-2.634608,
-0.699766,-2.634664,-0.795858,-2.619891,-0.796222,-2.619670,-0.796647,-2.619703,-0.868278,-2.596360,-0.868812,-2.595903,-0.869501,-2.595767,-0.920245,-2.561959,-0.920750,-2.561206,-0.921523,-2.560730,-0.954952,-2.514566,-0.955138,-2.513788,-0.955656,-2.513182,-0.975342,-2.452766,-0.975303,-2.452268,-0.975550,-2.451833,-0.985068,-2.375274,-0.985002,-2.375036,-0.985104,-2.374811,-0.988024,-2.280213,
-0.987994,-2.280133,-0.988026,-2.280055,-0.987923,-2.165527,-0.987922,-2.165524,-0.987923,-2.165521,-0.987833,-2.119370,-0.987833,-1.803412,-0.987834,-1.803410,-0.986369,-1.799874,-0.927066,-1.740572,-0.926576,-1.740369,-0.926278,-1.739930,-0.843514,-1.685525,-0.842729,-1.685375,-0.842098,-1.684883,-0.776694,-1.666833,-0.776373,-1.666873,-0.776096,-1.666707,-0.692312,-1.654306,-0.606325,-1.641579,
-0.598823,-1.640469,-0.503663,-1.607693,-0.452766,-1.569117,-0.395169,-1.511522,-0.395631,-1.136259,-0.397252,-0.974299,-0.403739,-0.846218,-0.418169,-0.743556,-0.443591,-0.657642,-0.483130,-0.579668,-0.540091,-0.500833,-0.617724,-0.412555,-0.685339,-0.341327,-0.785001,-0.252391,-0.886656,-0.193977,-0.996948,-0.164784,-1.122629,-0.163822,-1.270285,-0.190343,-1.420229,-0.234730,-1.787574,-0.379606,
-2.140998,-0.562564,-2.477441,-0.780837,-2.793769,-1.031620,-3.086902,-1.312144,-3.353709,-1.619597,-3.591085,-1.951188,-3.795975,-2.304202,-3.854811,-2.422589,-4.010839,-2.791719,-4.127792,-3.164945,-4.206752,-3.547344,-4.248758,-3.943898,-4.255358,-4.339194,-4.251969,-4.463252,-4.247628,-4.553434,-4.241104,-4.618114,-4.231212,-4.665718,-4.216709,-4.704984,-4.196174,-4.744742,-4.195984,-4.745080,
-4.110578,-4.856101,-3.996974,-4.942083,-3.864392,-4.996270,-3.848578,-5.000082,-3.811170,-5.007830,-3.776466,-5.012262,-3.738540,-5.012498,-3.691363,-5.007587,-3.629075,-4.996539,-3.545925,-4.978393,-3.436079,-4.952190,-3.293882,-4.917022,-3.210107,-4.896099,-3.210090,-4.896102,-3.210075,-4.896091,-2.875551,-4.814926,-2.875504,-4.814933,-2.875465,-4.814906,-2.570338,-4.746536,-2.570279,-4.746546,
-2.570229,-4.746513,-2.284186,-4.689082,-2.284119,-4.689095,-2.284060,-4.689058,-2.006778,-4.640707,-2.006708,-4.640723,-2.006649,-4.640687,-1.727813,-4.599558,-1.727751,-4.599574,-1.727695,-4.599542,-1.436988,-4.563779,-1.436947,-4.563790,-1.436909,-4.563770,-1.258530,-4.544727,-1.258456,-4.544749,-1.258387,-4.544714,-0.838972,-4.512186,-0.838865,-4.512221,-0.838763,-4.512174,-0.394963,-4.496401,
-0.394871,-4.496435,-0.394780,-4.496398,0.064330,-4.496895,0.064414,-4.496930,0.064500,-4.496898,0.529843,-4.513179,0.529925,-4.513216,0.530009,-4.513188,0.992509,-4.544767,0.992591,-4.544808,0.992680,-4.544781,1.443263,-4.591174,1.443353,-4.591222,1.443451,-4.591197,1.873040,-4.651918,1.873142,-4.651978,1.873257,-4.651954,2.272776,-4.726517,2.272840,-4.726559,2.272917,-4.726545,
2.316542,-4.735989,2.316779,-4.736153,2.317068,-4.736133,2.464152,-4.785220,2.464595,-4.785604,2.465171,-4.785694,2.588100,-4.860626,2.588477,-4.861143,2.589066,-4.861393,2.683566,-4.957707,2.683832,-4.958367,2.684386,-4.958814,2.746184,-5.072043,2.746268,-5.072821,2.746700,-5.073470,2.771521,-5.199153,2.771433,-5.199595,2.771615,-5.200009,2.771893,-5.212292,2.771745,-5.212674,
2.771850,-5.213070,2.754925,-5.339172,2.754595,-5.339741,2.754598,-5.340396,2.706011,-5.459423,2.705587,-5.459851,2.705451,-5.460439,2.631433,-5.564066,2.630901,-5.564398,2.630618,-5.564956,2.537399,-5.644860,2.536701,-5.645088,2.536199,-5.645622,2.430009,-5.693477,2.429486,-5.693493,2.429057,-5.693796,2.407728,-5.698617,2.407323,-5.698547,2.406955,-5.698729,2.337087,-5.703343,
2.336780,-5.703239,2.336474,-5.703346,2.230533,-5.697312,2.230388,-5.697242,2.230234,-5.697286,2.086975,-5.680464,2.086894,-5.680419,2.086804,-5.680441,1.904985,-5.652688,1.904937,-5.652659,1.904885,-5.652671,1.725715,-5.621580,1.372750,-5.567304,0.988613,-5.525452,0.582604,-5.496232,0.164024,-5.479852,-0.257803,-5.476527,-0.673559,-5.486465,-1.073796,-5.509873,-1.449392,-5.546974,
-1.468991,-5.549396,-1.823556,-5.601353,-2.202156,-5.670741,-2.591796,-5.754671,-2.979412,-5.850236,-3.351917,-5.954528,-3.510779,-6.003419,-3.510810,-6.003416,-3.510833,-6.003435,-3.713945,-6.063458,-3.714094,-6.063442,-3.714216,-6.063530,-3.884344,-6.103619,-3.884572,-6.103582,-3.884770,-6.103700,-4.026058,-6.124270,-4.026395,-6.124185,-4.026715,-6.124322,-4.143298,-6.125789,-4.143760,-6.125604,
-4.144244,-6.125710,-4.240263,-6.108489,-4.240728,-6.108191,-4.241282,-6.108192,-4.303671,-6.082532,-4.304052,-6.082153,-4.304578,-6.082044,-4.440550,-5.989695,-4.440910,-5.989147,-4.441500,-5.988856,-4.540511,-5.875964,-4.540746,-5.875273,-4.541284,-5.874779,-4.603881,-5.740424,-4.603911,-5.739735,-4.604278,-5.739152,-4.631011,-5.582417,-4.630926,-5.582043,-4.631081,-5.581691,-4.632207,-5.532634,
-4.635052,-5.448410,-4.643539,-5.336992,-4.656346,-5.213085,-4.671904,-5.092976,-4.671903,-5.092972,-4.671904,-5.092970,-4.710414,-4.793081,-4.710386,-4.792977,-4.710436,-4.792880,-4.734051,-4.523303,-4.734011,-4.523176,-4.734067,-4.523053,-4.743275,-4.274662,-4.743222,-4.274518,-4.743277,-4.274377,-4.738570,-4.038046,-4.738527,-4.037948,-4.738562,-4.037846,-4.733262,-3.949808,-4.733212,-3.949705,
-4.733245,-3.949595,-4.693853,-3.567529,-4.693760,-3.567356,-4.693802,-3.567164,-4.630385,-3.211057,-4.630266,-3.210871,-4.630295,-3.210654,-4.540070,-2.869846,-4.539936,-2.869670,-4.539947,-2.869447,-4.420127,-2.533281,-4.419996,-2.533136,-4.419991,-2.532939,-4.280649,-2.217397,-4.280522,-2.217276,-4.280507,-2.217102,-4.105517,-1.882177,-4.105357,-1.882043,-4.105322,-1.881838,-3.914133,-1.576577,
-3.913949,-1.576446,-3.913893,-1.576229,-3.698848,-1.289829,-3.698663,-1.289720,-3.698593,-1.289516,-3.452039,-1.011177,-3.451923,-1.011121,-3.451875,-1.011000,-3.357079,-0.913845,-3.356971,-0.913799,-3.356923,-0.913692,-3.092008,-0.664949,-3.091821,-0.664878,-3.091726,-0.664704,-2.823401,-0.448059,-2.823192,-0.447997,-2.823072,-0.447815,-2.540391,-0.255508,-2.540186,-0.255465,-2.540057,-0.255299,
-2.232072,-0.079569,-2.231932,-0.079551,-2.231839,-0.079444,-2.053995,0.009919,-2.053897,0.009926,-2.053830,0.009998,-1.848346,0.104003,-1.848219,0.104008,-1.848129,0.104096,-1.645978,0.185244,-1.645842,0.185243,-1.645741,0.185332,-1.434936,0.257810,-1.434815,0.257803,-1.434720,0.257879,-1.203282,0.325873,-1.203197,0.325864,-1.203128,0.325916,-0.994671,0.379992,-0.837580,0.420963,
-0.716530,0.457539,-0.625500,0.491731,-0.558429,0.525556,-0.551534,0.529793,-0.551533,0.529793,-0.438800,0.599042,-0.438693,0.599059,-0.438628,0.599142,-0.351173,0.648177,-0.350970,0.648201,-0.350830,0.648353,-0.279400,0.681447,-0.279098,0.681459,-0.278871,0.681656,-0.214211,0.703082,-0.213911,0.703060,-0.213662,0.703230,-0.146520,0.717263,-0.146404,0.717241,-0.146304,0.717303,
-0.144469,0.717603,-0.144182,0.717536,-0.143914,0.717663,0.033279,0.726594,0.033845,0.726392,0.033845,0.726392,$1*%
%AMFreePoly1*
4,1,513,4.078268,6.138208,4.078693,6.138340,4.171084,6.129783,4.171580,6.129522,4.172136,6.129569,4.253090,6.103861,4.253514,6.103504,4.254063,6.103433,4.329090,6.060442,4.329347,6.060109,4.329750,6.059990,4.404357,5.999588,4.404443,5.999429,4.404613,5.999366,4.425155,5.980289,4.425217,5.980153,4.425355,5.980093,4.485551,5.917527,4.485693,5.917166,4.486021,5.916960,
4.530360,5.854677,4.530476,5.854173,4.530852,5.853817,4.562519,5.782932,4.562532,5.782477,4.562804,5.782110,4.584982,5.693736,4.584940,5.693452,4.585085,5.693204,4.600959,5.578454,4.600926,5.578326,4.600987,5.578209,4.611229,5.462209,4.622755,5.333438,4.637835,5.196765,4.654385,5.069757,4.668284,4.981170,4.668280,4.981155,4.668288,4.981143,4.680835,4.898185,
4.680804,4.898058,4.680865,4.897944,4.690372,4.804730,4.690342,4.804628,4.690389,4.804531,4.697181,4.694391,4.697155,4.694317,4.697187,4.694247,4.701588,4.560508,4.701570,4.560460,4.701590,4.560414,4.703927,4.396403,4.703917,4.396378,4.703928,4.396351,4.704530,4.238019,4.704524,4.238004,4.704530,4.237990,4.704205,4.062905,4.704196,4.062883,4.704205,4.062861,
4.702711,3.922460,4.702693,3.922418,4.702709,3.922376,4.699589,3.809017,4.699559,3.808949,4.699583,3.808879,4.694385,3.714921,4.694340,3.714828,4.694371,3.714729,4.686640,3.632530,4.686587,3.632429,4.686616,3.632318,4.675898,3.554235,4.675849,3.554152,4.675870,3.554060,4.661710,3.472450,4.661689,3.472416,4.661697,3.472376,4.657744,3.451457,4.657678,3.451356,
4.657697,3.451237,4.551013,2.998814,4.550876,2.998624,4.550893,2.998393,4.408156,2.566588,4.408000,2.566407,4.407996,2.566166,4.230044,2.156216,4.229867,2.156045,4.229840,2.155801,4.017508,1.768941,4.017314,1.768785,4.017263,1.768540,3.771388,1.406007,3.771178,1.405869,3.771104,1.405627,3.492521,1.068654,3.492298,1.068536,3.492201,1.068303,3.181746,0.758128,
3.181514,0.758032,3.181397,0.757811,2.839906,0.475668,2.839672,0.475596,2.839538,0.475392,2.477847,0.228688,2.477654,0.228648,2.477534,0.228491,2.224813,0.082318,2.224645,0.082296,2.224533,0.082167,1.965739,-0.046296,1.965564,-0.046308,1.965442,-0.046431,1.692981,-0.160145,1.692817,-0.160145,1.692694,-0.160255,1.398971,-0.262176,1.398830,-0.262168,1.398719,-0.262256,
1.076139,-0.355343,1.076038,-0.355332,1.075956,-0.355392,0.809132,-0.421512,0.665035,-0.463160,0.539378,-0.519345,0.468465,-0.560591,0.387830,-0.609028,0.387749,-0.609040,0.387698,-0.609105,0.311435,-0.651806,0.311319,-0.651820,0.311244,-0.651907,0.253323,-0.681119,0.253163,-0.681131,0.253051,-0.681246,0.243584,-0.685328,0.243218,-0.685333,0.242927,-0.685559,0.137515,-0.714485,
0.137094,-0.714432,0.136721,-0.714635,0.012234,-0.727896,0.011877,-0.727791,0.011529,-0.727921,-0.111083,-0.723633,-0.111343,-0.723515,-0.111618,-0.723585,-0.138324,-0.719756,-0.138671,-0.719550,-0.139075,-0.719589,-0.282355,-0.675801,-0.282792,-0.675441,-0.283352,-0.675373,-0.421335,-0.597477,-0.421644,-0.597082,-0.422120,-0.596928,-0.544265,-0.492824,-0.544503,-0.492358,-0.544960,-0.492100,
-0.640722,-0.369687,-0.640832,-0.369291,-0.641154,-0.369036,-0.665762,-0.324784,-0.665813,-0.324343,-0.666109,-0.324013,-0.718553,-0.174890,-0.718522,-0.174312,-0.718802,-0.173809,-0.738016,-0.008871,-0.737889,-0.008425,-0.738041,-0.007984,-0.730790,0.109533,-0.730650,0.109819,-0.730717,0.110130,-0.713081,0.206021,-0.712876,0.206337,-0.712902,0.206712,-0.685204,0.289022,-0.684916,0.289353,
-0.684872,0.289790,-0.641000,0.371656,-0.640758,0.371854,-0.640690,0.372160,-0.574535,0.466718,-0.574438,0.466780,-0.574409,0.466889,-0.549882,0.498948,-0.549883,0.498948,-0.497543,0.568425,-0.458668,0.628082,-0.431218,0.685926,-0.413081,0.750183,-0.402297,0.829119,-0.396998,0.930789,-0.395283,1.063231,-0.395166,1.138528,-0.395166,1.509656,-0.462391,1.576650,-0.503385,1.613052,
-0.544509,1.635166,-0.600419,1.648609,-0.683798,1.658206,-0.683815,1.658216,-0.683835,1.658210,-0.785724,1.670718,-0.786025,1.670888,-0.786368,1.670840,-0.863236,1.690732,-0.863815,1.691168,-0.864532,1.691271,-0.919861,1.724049,-0.920477,1.724870,-0.921355,1.725407,-0.958627,1.776578,-0.958828,1.777413,-0.959371,1.778075,-0.982068,1.853142,-0.982021,1.853619,-0.982251,1.854037,
-0.993855,1.958506,-0.993794,1.958715,-0.993884,1.958915,-0.997876,2.098289,-0.997853,2.098349,-0.997878,2.098409,-0.998119,2.153061,-0.998110,2.153083,-0.998119,2.153106,-0.997572,2.274538,-0.997546,2.274600,-0.997570,2.274663,-0.994996,2.362151,-0.994930,2.362299,-0.994978,2.362453,-0.989399,2.424372,-0.989251,2.424654,-0.989309,2.424968,-0.979749,2.469691,-0.979490,2.470067,
-0.979494,2.470520,-0.964977,2.506423,-0.964758,2.506646,-0.964724,2.506956,-0.954316,2.525907,-0.954043,2.526126,-0.953959,2.526465,-0.916993,2.576658,-0.916099,2.577198,-0.915462,2.578026,-0.869733,2.604357,-0.868946,2.604460,-0.868294,2.604911,-0.813406,2.616776,-0.813058,2.616713,-0.812741,2.616874,-0.770082,2.620218,-0.769983,2.620186,-0.769889,2.620229,-0.690375,2.623383,
-0.690340,2.623370,-0.690306,2.623385,-0.579412,2.626248,-0.579393,2.626241,-0.579373,2.626249,-0.442576,2.628720,-0.442563,2.628715,-0.442548,2.628721,-0.285325,2.630702,-0.285313,2.630697,-0.285302,2.630702,-0.113130,2.632091,-0.113120,2.632087,-0.113110,2.632091,0.055645,2.632764,0.055650,2.632762,0.055655,2.632764,0.829570,2.634333,0.829626,2.634310,0.829685,2.634333,
0.831406,2.633577,0.833109,2.632876,0.833133,2.632819,0.833189,2.632794,0.895355,2.567964,0.895357,2.567963,0.957526,2.503131,0.958191,2.501427,0.958916,2.499764,0.965554,2.145074,0.972193,1.790384,0.972004,1.789903,0.972114,1.789397,0.971327,1.788175,0.970796,1.786821,0.970322,1.786614,0.970042,1.786180,0.888079,1.729380,0.887775,1.729314,0.887578,1.729075,
0.812966,1.689426,0.812399,1.689371,0.811949,1.689021,0.717087,1.662862,0.716783,1.662900,0.716522,1.662741,0.648496,1.652219,0.561235,1.638723,0.503188,1.621632,0.460108,1.595836,0.432248,1.570604,0.401531,1.536342,0.381798,1.501011,0.369069,1.452589,0.359893,1.379223,0.355065,1.323546,0.348833,1.188821,0.350588,1.050678,0.359490,0.919076,0.374679,0.804120,
0.395263,0.715900,0.408644,0.682236,0.446745,0.618693,0.503496,0.536915,0.569501,0.449262,0.635420,0.367950,0.691929,0.305155,0.710753,0.287115,0.801531,0.220540,0.898976,0.178302,1.008036,0.160336,1.133624,0.166832,1.280474,0.198084,1.453196,0.254343,1.611846,0.316964,1.994001,0.499136,2.354894,0.716821,2.692004,0.967905,3.002698,1.250222,3.284373,1.561614,
3.534498,1.900027,3.542635,1.912312,3.754036,2.270847,3.928612,2.648258,4.065389,3.041009,4.163329,3.445469,4.221390,3.857989,4.238538,4.275045,4.237307,4.346125,4.233718,4.467132,4.229281,4.554489,4.222589,4.616802,4.212257,4.662916,4.196852,4.701835,4.174760,4.742619,4.171734,4.747801,4.095181,4.845771,3.994803,4.927645,3.882151,4.986330,3.768836,5.014661,
3.739188,5.016151,3.696621,5.011074,3.619589,4.996666,3.515277,4.974452,3.390528,4.945921,3.252196,4.912567,3.252195,4.912567,3.164437,4.890585,3.164420,4.890587,3.164406,4.890577,2.765024,4.793254,2.764959,4.793264,2.764906,4.793227,2.393760,4.712213,2.393681,4.712227,2.393613,4.712183,2.041318,4.646311,2.041228,4.646330,2.041148,4.646282,1.698319,4.594385,
1.698224,4.594409,1.698138,4.594361,1.355393,4.555272,1.355301,4.555298,1.355215,4.555255,1.003168,4.527805,1.003086,4.527832,1.003008,4.527795,0.632274,4.510818,0.632206,4.510842,0.632141,4.510814,0.233338,4.503143,0.233299,4.503158,0.233261,4.503142,0.043769,4.502415,0.043747,4.502424,0.043725,4.502415,-0.236213,4.503810,-0.236246,4.503824,-0.236279,4.503811,
-0.483122,4.508277,-0.483167,4.508297,-0.483215,4.508279,-0.706131,4.516457,-0.706189,4.516484,-0.706249,4.516463,-0.914407,4.528998,-0.914471,4.529029,-0.914538,4.529008,-1.117106,4.546542,-1.117166,4.546573,-1.117233,4.546554,-1.323381,4.569731,-1.323433,4.569760,-1.323489,4.569745,-1.542384,4.599206,-1.542418,4.599226,-1.542457,4.599216,-1.724406,4.626426,-1.724433,4.626442,
-1.724463,4.626435,-1.954357,4.663529,-1.954406,4.663559,-1.954462,4.663547,-2.146151,4.698659,-2.146235,4.698714,-2.146335,4.698696,-2.303773,4.733682,-2.303909,4.733778,-2.304075,4.733759,-2.431216,4.770476,-2.431422,4.770640,-2.431685,4.770637,-2.532483,4.810940,-2.532761,4.811211,-2.533147,4.811264,-2.611556,4.857008,-2.611866,4.857416,-2.612349,4.857582,-2.672321,4.910623,
-2.672566,4.911125,-2.673044,4.911416,-2.718538,4.973609,-2.718653,4.974081,-2.719014,4.974406,-2.753980,5.047608,-2.753997,5.047928,-2.754208,5.048170,-2.779354,5.122980,-2.779326,5.123385,-2.779544,5.123731,-2.797077,5.226339,-2.796909,5.227077,-2.797109,5.227807,-2.784722,5.326017,-2.784366,5.326642,-2.784357,5.327359,-2.739766,5.431502,-2.739483,5.431778,-2.739419,5.432169,
-2.696003,5.502175,-2.695625,5.502446,-2.695470,5.502885,-2.603430,5.605135,-2.602738,5.605466,-2.602280,5.606081,-2.490413,5.672988,-2.489614,5.673106,-2.488956,5.673572,-2.362193,5.702410,-2.361704,5.702327,-2.361251,5.702532,-2.332333,5.703497,-2.332091,5.703406,-2.331845,5.703490,-2.275873,5.699891,-2.275756,5.699834,-2.275633,5.699869,-2.187511,5.689915,-2.187459,5.689886,
-2.187399,5.689902,-2.076618,5.674855,-2.076580,5.674833,-2.076538,5.674843,-1.952592,5.655964,-1.952563,5.655946,-1.952529,5.655954,-1.863769,5.641264,-1.324400,5.560469,-0.802528,5.506712,-0.283836,5.478924,0.246010,5.476047,0.339909,5.478003,0.853842,5.499723,1.339863,5.540027,1.808776,5.600707,2.271288,5.683551,2.738090,5.790347,3.219958,5.922906,3.482645,6.003440,
3.482650,6.003439,3.482656,6.003444,3.675889,6.062200,3.675988,6.062190,3.676068,6.062251,3.835827,6.104373,3.836006,6.104349,3.836156,6.104448,3.967949,6.129806,3.968242,6.129746,3.968508,6.129881,4.077846,6.138346,4.078268,6.138208,4.078268,6.138208,$1*%
%AMFreePoly2*
4,1,175,0.155291,0.579555,0.300000,0.519615,0.424264,0.424264,0.519615,0.300000,0.579555,0.155291,0.600000,0.000000,0.579555,-0.155291,0.519615,-0.300000,0.493377,-0.334194,0.502024,-0.569707,0.680699,-0.618838,0.680812,-0.618926,0.680955,-0.618916,0.820128,-0.665337,0.820275,-0.665464,0.820471,-0.665465,0.978527,-0.731380,0.978630,-0.731484,0.978774,-0.731492,1.141505,-0.809990,
1.141599,-0.810095,1.141740,-0.810111,1.294939,-0.894281,1.295052,-0.894421,1.295228,-0.894453,1.424686,-0.977385,1.424769,-0.977504,1.424910,-0.977537,1.438978,-0.987664,1.439075,-0.987820,1.439249,-0.987874,1.692796,-1.198206,1.692954,-1.198505,1.693259,-1.198644,1.913133,-1.434386,1.913254,-1.434710,1.913547,-1.434893,2.100356,-1.696852,2.100433,-1.697183,2.100695,-1.697399,
2.255053,-1.986383,2.255078,-1.986637,2.255258,-1.986816,2.328043,-2.161522,2.328043,-2.161686,2.328153,-2.161810,2.355053,-2.239565,2.355047,-2.239658,2.355108,-2.239731,2.384228,-2.334520,2.384222,-2.334583,2.384262,-2.334634,2.412657,-2.435453,2.412650,-2.435512,2.412686,-2.435560,2.437410,-2.531403,2.437399,-2.531482,2.437444,-2.531546,2.455550,-2.611405,2.455522,-2.611569,
2.455610,-2.611712,2.464152,-2.664581,2.464083,-2.664873,2.464211,-2.665145,2.464514,-2.671642,2.464224,-2.672447,2.464313,-2.673298,2.463600,-2.674177,2.463216,-2.675242,2.462440,-2.675607,2.461902,-2.676270,2.454210,-2.680442,2.453335,-2.680534,2.452583,-2.680989,2.428175,-2.684727,2.427981,-2.684680,2.427803,-2.684770,2.384760,-2.688095,2.384682,-2.688069,2.384606,-2.688105,
2.321008,-2.691038,2.320967,-2.691023,2.320927,-2.691041,2.234856,-2.693602,2.234831,-2.693593,2.234807,-2.693603,2.124341,-2.695813,2.124326,-2.695807,2.124310,-2.695814,1.987531,-2.697694,1.987520,-2.697689,1.987509,-2.697694,1.822497,-2.699263,1.822489,-2.699260,1.822482,-2.699263,1.627317,-2.700543,1.627311,-2.700541,1.627306,-2.700543,1.400067,-2.701554,1.400063,-2.701553,
1.400060,-2.701554,1.138828,-2.702318,1.138825,-2.702317,1.138822,-2.702318,0.841677,-2.702853,0.841675,-2.702852,0.841673,-2.702853,0.506697,-2.703182,0.506695,-2.703181,0.506694,-2.703182,0.131965,-2.703324,0.131963,-2.703324,-0.006653,-2.703334,-2.472973,-2.703334,-2.473476,-2.703126,-2.474012,-2.703225,-2.475189,-2.702416,-2.476509,-2.701870,-2.476717,-2.701367,-2.477167,-2.701058,
-2.477428,-2.699652,-2.477973,-2.698334,-2.477765,-2.697831,-2.477864,-2.697295,-2.467742,-2.649669,-2.467690,-2.649594,-2.467704,-2.649504,-2.393038,-2.348902,-2.392906,-2.348724,-2.392921,-2.348503,-2.302471,-2.081505,-2.302293,-2.081301,-2.302283,-2.081033,-2.192527,-1.840726,-2.192308,-1.840522,-2.192264,-1.840227,-2.059679,-1.619696,-2.059442,-1.619520,-2.059365,-1.619233,-1.900428,-1.411562,
-1.900225,-1.411444,-1.900144,-1.411222,-1.757629,-1.255770,-1.757406,-1.255666,-1.757301,-1.255445,-1.587492,-1.101500,-1.587243,-1.101411,-1.587108,-1.101186,-1.392497,-0.957162,-1.392274,-0.957106,-1.392138,-0.956919,-1.182180,-0.828103,-1.181956,-0.828067,-1.181808,-0.827896,-0.965959,-0.719577,-0.965709,-0.719559,-0.965528,-0.719386,-0.753244,-0.636853,-0.752939,-0.636860,-0.752697,-0.636676,
-0.561814,-0.586761,-0.561628,-0.586787,-0.561471,-0.586684,-0.493291,-0.573893,-0.486952,-0.342568,-0.519615,-0.300000,-0.579555,-0.155291,-0.600000,0.000000,-0.579555,0.155291,-0.519615,0.300000,-0.424264,0.424264,-0.300000,0.519615,-0.155291,0.579555,0.000000,0.600000,0.155291,0.579555,0.155291,0.579555,$1*%
%AMFreePoly3*
4,1,174,-0.019208,2.667285,-0.019207,2.667285,0.299634,2.666361,0.299636,2.666360,0.299638,2.666361,0.606649,2.665242,0.606651,2.665241,0.606653,2.665242,0.899182,2.663949,0.899184,2.663948,0.899186,2.663949,1.174582,2.662504,1.174584,2.662503,1.174587,2.662504,1.430197,2.660927,1.430199,2.660926,1.430202,2.660927,1.663376,2.659242,1.663379,2.659241,1.663383,2.659242,
1.871468,2.657470,1.871472,2.657468,1.871476,2.657470,2.051821,2.655631,2.051827,2.655629,2.051833,2.655631,2.201786,2.653749,2.201796,2.653745,2.201804,2.653748,2.318714,2.651843,2.318731,2.651836,2.318749,2.651843,2.399962,2.649938,2.400013,2.649915,2.400065,2.649934,2.442931,2.648049,2.443182,2.647932,2.443453,2.647999,2.449682,2.647066,2.450911,2.646327,
2.452271,2.645853,2.452504,2.645369,2.452962,2.645094,2.453308,2.643703,2.453934,2.642406,2.455454,2.615763,2.455261,2.615210,2.455391,2.614639,2.445459,2.556273,2.445372,2.556135,2.445399,2.555974,2.426284,2.474209,2.426232,2.474137,2.426244,2.474049,2.400212,2.377211,2.400170,2.377156,2.400177,2.377089,2.369499,2.273503,2.369457,2.273451,2.369462,2.273382,
2.336403,2.171372,2.336347,2.171306,2.336351,2.171219,2.303181,2.079110,2.303131,2.079055,2.303132,2.078978,2.295085,2.058467,2.294946,2.058323,2.294935,2.058125,2.162282,1.782502,2.162028,1.782275,2.161965,1.781939,1.992975,1.522794,1.992707,1.522610,1.992608,1.522300,1.791554,1.284146,1.791270,1.283999,1.791137,1.283708,1.562289,1.071060,1.561985,1.070947,
1.561816,1.070672,1.309446,0.888044,1.309130,0.887969,1.308927,0.887715,1.055251,0.748010,1.054994,0.747981,1.054814,0.747797,0.944796,0.700478,0.944675,0.700476,0.944587,0.700394,0.807393,0.648557,0.807306,0.648560,0.807240,0.648502,0.656931,0.597217,0.656850,0.597222,0.656787,0.597170,0.524683,0.556518,0.515492,0.535464,0.505951,0.473111,0.497340,0.373735,
0.495056,0.332006,0.519615,0.300000,0.579555,0.155291,0.600000,0.000000,0.579555,-0.155291,0.519615,-0.300000,0.424264,-0.424264,0.300000,-0.519615,0.155291,-0.579555,0.000000,-0.600000,-0.155291,-0.579555,-0.300000,-0.519615,-0.424264,-0.424264,-0.519615,-0.300000,-0.579555,-0.155291,-0.600000,0.000000,-0.579555,0.155291,-0.519615,0.300000,-0.490233,0.338292,-0.497945,0.551511,
-0.642508,0.589108,-0.642653,0.589218,-0.642835,0.589205,-0.935946,0.687177,-0.936216,0.687411,-0.936574,0.687435,-1.214879,0.824820,-1.215109,0.825082,-1.215452,0.825151,-1.478167,1.001419,-1.478351,1.001695,-1.478665,1.001801,-1.725011,1.216422,-1.725149,1.216699,-1.725429,1.216831,-1.954623,1.469276,-1.954676,1.469424,-1.954814,1.469499,-1.970792,1.489319,-1.970816,1.489402,
-1.970891,1.489446,-2.080076,1.634214,-2.080124,1.634401,-2.080284,1.634511,-2.171751,1.776072,-2.171793,1.776303,-2.171972,1.776451,-2.249338,1.922991,-2.249360,1.923226,-2.249528,1.923393,-2.316403,2.083097,-2.316404,2.083301,-2.316537,2.083455,-2.376536,2.264509,-2.376525,2.264660,-2.376618,2.264781,-2.433355,2.475371,-2.433344,2.475454,-2.433392,2.475520,-2.464817,2.608216,
-2.464813,2.608238,-2.464827,2.608257,-2.478305,2.667376,-2.478206,2.667956,-2.478430,2.668500,-2.477897,2.669778,-2.477664,2.671149,-2.477183,2.671490,-2.476957,2.672032,-2.475673,2.672560,-2.474541,2.673362,-2.473961,2.673263,-2.473417,2.673487,-0.019208,2.667285,-0.019208,2.667285,$1*%
%AMFreePoly4*
4,1,52,0.073905,0.494508,0.209726,0.453889,0.328688,0.376782,0.421226,0.269385,0.479903,0.140333,0.500000,0.000000,0.499851,-0.012216,0.493270,-0.051334,2.240667,-0.051334,2.244203,-0.052798,2.245667,-0.056334,2.245667,-5.115167,2.244203,-5.118703,2.240667,-5.120167,1.669167,-5.120167,1.665631,-5.118703,1.664167,-5.115167,1.664167,-0.632834,0.213667,-0.632834,0.213667,-5.115167,
0.212203,-5.118703,0.208667,-5.120167,-0.384000,-5.120167,-0.387536,-5.118703,-0.389000,-5.115167,-0.389000,-0.632834,-1.860666,-0.632834,-1.860666,-5.115167,-1.862130,-5.118703,-1.865666,-5.120167,-2.437166,-5.120167,-2.440702,-5.118703,-2.442166,-5.115167,-2.442166,-0.056334,-2.440702,-0.052798,-2.437166,-0.051334,-0.540331,-0.051334,-0.516310,0.048800,-0.516081,0.049116,-0.516084,0.049507,
-0.478875,0.141542,-0.478152,0.146186,-0.469840,0.163891,-0.466788,0.171439,-0.466264,0.171972,-0.466055,0.172692,-0.465216,0.173739,-0.417904,0.274511,-0.324060,0.380769,-0.204165,0.456417,-0.067858,0.495374,0.073905,0.494508,0.073905,0.494508,$1*%
%AMFreePoly5*
4,1,74,2.426383,5.069651,2.428131,5.068968,2.428153,5.068918,2.428203,5.068897,2.428915,5.067177,2.429666,5.065462,2.429646,5.065411,2.429667,5.065361,2.429667,0.026500,2.428203,0.022964,2.424667,0.021500,1.697721,0.021500,1.514570,0.021092,1.334660,0.019937,1.164980,0.018134,1.164978,0.018135,1.012625,0.015785,1.012624,0.015784,0.884489,0.012987,0.884488,0.012987,
0.787775,0.009847,0.749088,0.007927,0.530743,-0.005432,0.508394,-0.088993,0.508170,-0.089285,0.508167,-0.089653,0.458855,-0.205995,0.458401,-0.206442,0.458241,-0.207057,0.434305,-0.238758,0.414519,-0.279596,0.319384,-0.384700,0.198574,-0.458877,0.061801,-0.496166,-0.079941,-0.493568,-0.215256,-0.451293,-0.333266,-0.372738,-0.424486,-0.264219,-0.481581,-0.134460,-0.499963,0.006109,
-0.498457,0.015784,-0.497567,0.021500,-2.253166,0.021500,-2.256702,0.022964,-2.258166,0.026500,-2.258166,5.064166,-2.256702,5.067702,-2.253166,5.069166,-1.681666,5.069166,-1.678130,5.067702,-1.676666,5.064166,-1.676666,0.581833,-0.205000,0.581833,-0.205000,5.064166,-0.203536,5.067702,-0.200000,5.069166,0.371500,5.069166,0.375036,5.067702,0.376500,5.064166,0.376500,0.581833,
1.826819,0.581833,1.832195,2.815220,1.837584,5.053595,1.838292,5.055293,1.838977,5.057047,1.839034,5.057072,1.839057,5.057127,1.840742,5.057820,1.842483,5.058582,2.133524,5.064471,2.424566,5.070360,2.424617,5.070340,2.424667,5.070361,2.426383,5.069651,2.426383,5.069651,$1*%
G04 Aperture macros list end*
%ADD10C,0.100000*%
%ADD11C,0.300000*%
%ADD12C,0.150000*%
%ADD13C,0.127000*%
%ADD14C,0.120000*%
%ADD15C,0.010000*%
%ADD16FreePoly0,0.000000*%
%ADD17FreePoly1,0.000000*%
%ADD18C,1.498000*%
%ADD19C,3.000000*%
%ADD20FreePoly2,0.000000*%
%ADD21FreePoly3,0.000000*%
%ADD22R,0.750000X1.200000*%
%ADD23C,2.000000*%
%ADD24HorizOval,2.800000X-0.568661X0.191376X0.568661X-0.191376X0*%
%ADD25C,1.600000*%
%ADD26HorizOval,1.600000X-0.026168X-0.499315X0.026168X0.499315X0*%
%ADD27Outline4P,-0.400000X-0.400000X0.400000X-0.400000X0.400000X0.400000X-0.400000X0.400000X357.000000*%
%ADD28R,1.200000X0.750000*%
%ADD29FreePoly4,0.000000*%
%ADD30FreePoly5,0.000000*%
%ADD31R,1.700000X1.700000*%
%ADD32R,1.600000X1.600000*%
%ADD33C,5.200000*%
%ADD34C,1.800000*%
%ADD35C,2.400000*%
%ADD36C,2.200000*%
%ADD37O,2.800000X2.200000*%
%ADD38R,1.000000X0.700000*%
%ADD39RoundRect,0.200000X0.200000X0.275000X-0.200000X0.275000X-0.200000X-0.275000X0.200000X-0.275000X0*%
%ADD40R,0.800000X1.900000*%
%ADD41O,1.700000X1.700000*%
%ADD42O,1.600000X2.500000*%
%ADD43C,1.400000*%
%ADD44R,1.350000X1.350000*%
%ADD45O,1.350000X1.350000*%
%ADD46R,1.400000X1.400000*%
%ADD47O,1.400000X1.400000*%
%ADD48O,1.550000X1.000000*%
%ADD49O,0.950000X1.250000*%
G04 APERTURE END LIST*
D10*
X63000000Y-105000000D02*
X51500000Y-105000000D01*
X51500000Y-105000000D02*
X51500000Y-99000000D01*
X51500000Y-99000000D02*
X63000000Y-99000000D01*
X63000000Y-99000000D02*
X63000000Y-105000000D01*
G36*
X63000000Y-105000000D02*
G01*
X51500000Y-105000000D01*
X51500000Y-99000000D01*
X63000000Y-99000000D01*
X63000000Y-105000000D01*
G37*
X63000000Y-105000000D02*
X51500000Y-105000000D01*
X51500000Y-99000000D01*
X63000000Y-99000000D01*
X63000000Y-105000000D01*
D11*
X67071428Y-64521428D02*
X67142857Y-64450000D01*
X67285714Y-64378571D01*
X67642857Y-64378571D01*
X67785714Y-64450000D01*
X67857142Y-64521428D01*
X67928571Y-64664285D01*
X67928571Y-64807142D01*
X67857142Y-65021428D01*
X67000000Y-65878571D01*
X67928571Y-65878571D01*
X68857142Y-64378571D02*
X69000000Y-64378571D01*
X69142857Y-64450000D01*
X69214285Y-64521428D01*
X69285714Y-64664285D01*
X69357142Y-64950000D01*
X69357142Y-65307142D01*
X69285714Y-65592857D01*
X69214285Y-65735714D01*
X69142857Y-65807142D01*
X69000000Y-65878571D01*
X68857142Y-65878571D01*
X68714285Y-65807142D01*
X68642857Y-65735714D01*
X68571428Y-65592857D01*
X68500000Y-65307142D01*
X68500000Y-64950000D01*
X68571428Y-64664285D01*
X68642857Y-64521428D01*
X68714285Y-64450000D01*
X68857142Y-64378571D01*
X69928571Y-64521428D02*
X70000000Y-64450000D01*
X70142857Y-64378571D01*
X70500000Y-64378571D01*
X70642857Y-64450000D01*
X70714285Y-64521428D01*
X70785714Y-64664285D01*
X70785714Y-64807142D01*
X70714285Y-65021428D01*
X69857142Y-65878571D01*
X70785714Y-65878571D01*
X71357142Y-64521428D02*
X71428571Y-64450000D01*
X71571428Y-64378571D01*
X71928571Y-64378571D01*
X72071428Y-64450000D01*
X72142857Y-64521428D01*
X72214285Y-64664285D01*
X72214285Y-64807142D01*
X72142857Y-65021428D01*
X71285714Y-65878571D01*
X72214285Y-65878571D01*
X73142857Y-64378571D02*
X73285714Y-64378571D01*
X73428571Y-64450000D01*
X73500000Y-64521428D01*
X73571428Y-64664285D01*
X73642857Y-64950000D01*
X73642857Y-65307142D01*
X73571428Y-65592857D01*
X73500000Y-65735714D01*
X73428571Y-65807142D01*
X73285714Y-65878571D01*
X73142857Y-65878571D01*
X73000000Y-65807142D01*
X72928571Y-65735714D01*
X72857142Y-65592857D01*
X72785714Y-65307142D01*
X72785714Y-64950000D01*
X72857142Y-64664285D01*
X72928571Y-64521428D01*
X73000000Y-64450000D01*
X73142857Y-64378571D01*
X75071428Y-65878571D02*
X74214285Y-65878571D01*
X74642857Y-65878571D02*
X74642857Y-64378571D01*
X74500000Y-64592857D01*
X74357142Y-64735714D01*
X74214285Y-64807142D01*
X75642857Y-64521428D02*
X75714285Y-64450000D01*
X75857142Y-64378571D01*
X76214285Y-64378571D01*
X76357142Y-64450000D01*
X76428571Y-64521428D01*
X76500000Y-64664285D01*
X76500000Y-64807142D01*
X76428571Y-65021428D01*
X75571428Y-65878571D01*
X76500000Y-65878571D01*
X77000000Y-64378571D02*
X77928571Y-64378571D01*
X77428571Y-64950000D01*
X77642857Y-64950000D01*
X77785714Y-65021428D01*
X77857142Y-65092857D01*
X77928571Y-65235714D01*
X77928571Y-65592857D01*
X77857142Y-65735714D01*
X77785714Y-65807142D01*
X77642857Y-65878571D01*
X77214285Y-65878571D01*
X77071428Y-65807142D01*
X77000000Y-65735714D01*
X64319047Y-63409523D02*
X64319047Y-59409523D01*
X65080952Y-59409523D01*
X65271428Y-59600000D01*
X65366666Y-59790476D01*
X65461904Y-60171428D01*
X65461904Y-60742857D01*
X65366666Y-61123809D01*
X65271428Y-61314285D01*
X65080952Y-61504761D01*
X64319047Y-61504761D01*
X66319047Y-63409523D02*
X66319047Y-59409523D01*
X67176190Y-63409523D02*
X67176190Y-61314285D01*
X67080952Y-60933333D01*
X66890476Y-60742857D01*
X66604761Y-60742857D01*
X66414285Y-60933333D01*
X66319047Y-61123809D01*
X68414285Y-63409523D02*
X68223809Y-63219047D01*
X68128571Y-63028571D01*
X68033333Y-62647619D01*
X68033333Y-61504761D01*
X68128571Y-61123809D01*
X68223809Y-60933333D01*
X68414285Y-60742857D01*
X68700000Y-60742857D01*
X68890476Y-60933333D01*
X68985714Y-61123809D01*
X69080952Y-61504761D01*
X69080952Y-62647619D01*
X68985714Y-63028571D01*
X68890476Y-63219047D01*
X68700000Y-63409523D01*
X68414285Y-63409523D01*
X69938095Y-63409523D02*
X69938095Y-59409523D01*
X69938095Y-60933333D02*
X70128571Y-60742857D01*
X70509523Y-60742857D01*
X70700000Y-60933333D01*
X70795238Y-61123809D01*
X70890476Y-61504761D01*
X70890476Y-62647619D01*
X70795238Y-63028571D01*
X70700000Y-63219047D01*
X70509523Y-63409523D01*
X70128571Y-63409523D01*
X69938095Y-63219047D01*
X72795238Y-59600000D02*
X72604761Y-59409523D01*
X72319047Y-59409523D01*
X72033333Y-59600000D01*
X71842857Y-59980952D01*
X71747619Y-60361904D01*
X71652380Y-61123809D01*
X71652380Y-61695238D01*
X71747619Y-62457142D01*
X71842857Y-62838095D01*
X72033333Y-63219047D01*
X72319047Y-63409523D01*
X72509523Y-63409523D01*
X72795238Y-63219047D01*
X72890476Y-63028571D01*
X72890476Y-61695238D01*
X72509523Y-61695238D01*
X74890476Y-63028571D02*
X74795238Y-63219047D01*
X74509523Y-63409523D01*
X74319047Y-63409523D01*
X74033333Y-63219047D01*
X73842857Y-62838095D01*
X73747619Y-62457142D01*
X73652380Y-61695238D01*
X73652380Y-61123809D01*
X73747619Y-60361904D01*
X73842857Y-59980952D01*
X74033333Y-59600000D01*
X74319047Y-59409523D01*
X74509523Y-59409523D01*
X74795238Y-59600000D01*
X74890476Y-59790476D01*
X76890476Y-63028571D02*
X76795238Y-63219047D01*
X76509523Y-63409523D01*
X76319047Y-63409523D01*
X76033333Y-63219047D01*
X75842857Y-62838095D01*
X75747619Y-62457142D01*
X75652380Y-61695238D01*
X75652380Y-61123809D01*
X75747619Y-60361904D01*
X75842857Y-59980952D01*
X76033333Y-59600000D01*
X76319047Y-59409523D01*
X76509523Y-59409523D01*
X76795238Y-59600000D01*
X76890476Y-59790476D01*
X80319047Y-63409523D02*
X79176190Y-63409523D01*
X79747619Y-63409523D02*
X79747619Y-59409523D01*
X79557142Y-59980952D01*
X79366666Y-60361904D01*
X79176190Y-60552380D01*
X81176190Y-63028571D02*
X81271428Y-63219047D01*
X81176190Y-63409523D01*
X81080952Y-63219047D01*
X81176190Y-63028571D01*
X81176190Y-63409523D01*
X83176190Y-63409523D02*
X82033333Y-63409523D01*
X82604761Y-63409523D02*
X82604761Y-59409523D01*
X82414285Y-59980952D01*
X82223809Y-60361904D01*
X82033333Y-60552380D01*
D12*
X161371144Y-66927597D02*
X161307117Y-66855392D01*
X161174973Y-66779099D01*
X161106857Y-66775011D01*
X161065170Y-66786181D01*
X161008224Y-66823780D01*
X160977707Y-66876637D01*
X160973618Y-66944753D01*
X160984788Y-66986440D01*
X161022387Y-67043386D01*
X161112843Y-67130849D01*
X161150442Y-67187795D01*
X161161612Y-67229483D01*
X161157524Y-67297599D01*
X161127007Y-67350456D01*
X161070061Y-67388055D01*
X161028373Y-67399225D01*
X160960257Y-67395136D01*
X160828114Y-67318843D01*
X160764086Y-67246639D01*
X160563827Y-67166257D02*
X160752114Y-66534961D01*
X160417520Y-66870357D01*
X160540685Y-66412892D01*
X160088110Y-66891602D01*
X159934722Y-66485899D02*
X159972321Y-66542845D01*
X159983491Y-66584532D01*
X159979402Y-66652648D01*
X159964144Y-66679077D01*
X159907198Y-66716676D01*
X159865510Y-66727846D01*
X159797394Y-66723757D01*
X159691679Y-66662723D01*
X159654081Y-66605777D01*
X159642911Y-66564089D01*
X159646999Y-66495973D01*
X159662258Y-66469545D01*
X159719204Y-66431946D01*
X159760891Y-66420776D01*
X159829007Y-66424864D01*
X159934722Y-66485899D01*
X160002838Y-66489987D01*
X160044525Y-66478817D01*
X160101471Y-66441219D01*
X160162506Y-66335504D01*
X160166594Y-66267388D01*
X160155424Y-66225700D01*
X160117825Y-66168754D01*
X160012110Y-66107720D01*
X159943994Y-66103631D01*
X159902307Y-66114802D01*
X159845361Y-66152400D01*
X159784327Y-66258115D01*
X159780238Y-66326231D01*
X159791408Y-66367918D01*
X159829007Y-66424864D01*
X62057142Y-74642857D02*
X62104761Y-74690476D01*
X62152380Y-74833333D01*
X62152380Y-74928571D01*
X62104761Y-75071428D01*
X62009523Y-75166666D01*
X61914285Y-75214285D01*
X61723809Y-75261904D01*
X61580952Y-75261904D01*
X61390476Y-75214285D01*
X61295238Y-75166666D01*
X61200000Y-75071428D01*
X61152380Y-74928571D01*
X61152380Y-74833333D01*
X61200000Y-74690476D01*
X61247619Y-74642857D01*
X62152380Y-73690476D02*
X62152380Y-74261904D01*
X62152380Y-73976190D02*
X61152380Y-73976190D01*
X61295238Y-74071428D01*
X61390476Y-74166666D01*
X61438095Y-74261904D01*
X62152380Y-72738095D02*
X62152380Y-73309523D01*
X62152380Y-73023809D02*
X61152380Y-73023809D01*
X61295238Y-73119047D01*
X61390476Y-73214285D01*
X61438095Y-73309523D01*
X81831344Y-71231697D02*
X81873711Y-70423283D01*
X81831142Y-70325683D01*
X81786080Y-70275637D01*
X81693465Y-70223099D01*
X81503250Y-70213130D01*
X81405650Y-70255699D01*
X81355604Y-70300761D01*
X81303066Y-70393376D01*
X81260698Y-71201791D01*
X80837699Y-71084254D02*
X80787653Y-71129315D01*
X80690053Y-71171885D01*
X80452284Y-71159424D01*
X80359669Y-71106885D01*
X80314607Y-71056839D01*
X80272038Y-70959240D01*
X80277022Y-70864132D01*
X80332052Y-70723963D01*
X80932604Y-70183224D01*
X80314405Y-70150825D01*
X95833333Y-76357142D02*
X95785714Y-76404761D01*
X95642857Y-76452380D01*
X95547619Y-76452380D01*
X95404761Y-76404761D01*
X95309523Y-76309523D01*
X95261904Y-76214285D01*
X95214285Y-76023809D01*
X95214285Y-75880952D01*
X95261904Y-75690476D01*
X95309523Y-75595238D01*
X95404761Y-75500000D01*
X95547619Y-75452380D01*
X95642857Y-75452380D01*
X95785714Y-75500000D01*
X95833333Y-75547619D01*
X96214285Y-75547619D02*
X96261904Y-75500000D01*
X96357142Y-75452380D01*
X96595238Y-75452380D01*
X96690476Y-75500000D01*
X96738095Y-75547619D01*
X96785714Y-75642857D01*
X96785714Y-75738095D01*
X96738095Y-75880952D01*
X96166666Y-76452380D01*
X96785714Y-76452380D01*
X88933333Y-71357142D02*
X88885714Y-71404761D01*
X88742857Y-71452380D01*
X88647619Y-71452380D01*
X88504761Y-71404761D01*
X88409523Y-71309523D01*
X88361904Y-71214285D01*
X88314285Y-71023809D01*
X88314285Y-70880952D01*
X88361904Y-70690476D01*
X88409523Y-70595238D01*
X88504761Y-70500000D01*
X88647619Y-70452380D01*
X88742857Y-70452380D01*
X88885714Y-70500000D01*
X88933333Y-70547619D01*
X89885714Y-71452380D02*
X89314285Y-71452380D01*
X89600000Y-71452380D02*
X89600000Y-70452380D01*
X89504761Y-70595238D01*
X89409523Y-70690476D01*
X89314285Y-70738095D01*
X88933333Y-68757142D02*
X88885714Y-68804761D01*
X88742857Y-68852380D01*
X88647619Y-68852380D01*
X88504761Y-68804761D01*
X88409523Y-68709523D01*
X88361904Y-68614285D01*
X88314285Y-68423809D01*
X88314285Y-68280952D01*
X88361904Y-68090476D01*
X88409523Y-67995238D01*
X88504761Y-67900000D01*
X88647619Y-67852380D01*
X88742857Y-67852380D01*
X88885714Y-67900000D01*
X88933333Y-67947619D01*
X89266666Y-67852380D02*
X89933333Y-67852380D01*
X89504761Y-68852380D01*
X133633333Y-65957142D02*
X133585714Y-66004761D01*
X133442857Y-66052380D01*
X133347619Y-66052380D01*
X133204761Y-66004761D01*
X133109523Y-65909523D01*
X133061904Y-65814285D01*
X133014285Y-65623809D01*
X133014285Y-65480952D01*
X133061904Y-65290476D01*
X133109523Y-65195238D01*
X133204761Y-65100000D01*
X133347619Y-65052380D01*
X133442857Y-65052380D01*
X133585714Y-65100000D01*
X133633333Y-65147619D01*
X133966666Y-65052380D02*
X134585714Y-65052380D01*
X134252380Y-65433333D01*
X134395238Y-65433333D01*
X134490476Y-65480952D01*
X134538095Y-65528571D01*
X134585714Y-65623809D01*
X134585714Y-65861904D01*
X134538095Y-65957142D01*
X134490476Y-66004761D01*
X134395238Y-66052380D01*
X134109523Y-66052380D01*
X134014285Y-66004761D01*
X133966666Y-65957142D01*
X128333333Y-76857142D02*
X128285714Y-76904761D01*
X128142857Y-76952380D01*
X128047619Y-76952380D01*
X127904761Y-76904761D01*
X127809523Y-76809523D01*
X127761904Y-76714285D01*
X127714285Y-76523809D01*
X127714285Y-76380952D01*
X127761904Y-76190476D01*
X127809523Y-76095238D01*
X127904761Y-76000000D01*
X128047619Y-75952380D01*
X128142857Y-75952380D01*
X128285714Y-76000000D01*
X128333333Y-76047619D01*
X129190476Y-76285714D02*
X129190476Y-76952380D01*
X128952380Y-75904761D02*
X128714285Y-76619047D01*
X129333333Y-76619047D01*
X116666666Y-51952380D02*
X116666666Y-52666666D01*
X116619047Y-52809523D01*
X116523809Y-52904761D01*
X116380952Y-52952380D01*
X116285714Y-52952380D01*
X117047619Y-51952380D02*
X117666666Y-51952380D01*
X117333333Y-52333333D01*
X117476190Y-52333333D01*
X117571428Y-52380952D01*
X117619047Y-52428571D01*
X117666666Y-52523809D01*
X117666666Y-52761904D01*
X117619047Y-52857142D01*
X117571428Y-52904761D01*
X117476190Y-52952380D01*
X117190476Y-52952380D01*
X117095238Y-52904761D01*
X117047619Y-52857142D01*
X111848095Y-73382380D02*
X111848095Y-74191904D01*
X111895714Y-74287142D01*
X111943333Y-74334761D01*
X112038571Y-74382380D01*
X112229047Y-74382380D01*
X112324285Y-74334761D01*
X112371904Y-74287142D01*
X112419523Y-74191904D01*
X112419523Y-73382380D01*
X113419523Y-74382380D02*
X112848095Y-74382380D01*
X113133809Y-74382380D02*
X113133809Y-73382380D01*
X113038571Y-73525238D01*
X112943333Y-73620476D01*
X112848095Y-73668095D01*
X122729047Y-64322380D02*
X122729047Y-63322380D01*
X122967142Y-63322380D01*
X123110000Y-63370000D01*
X123205238Y-63465238D01*
X123252857Y-63560476D01*
X123300476Y-63750952D01*
X123300476Y-63893809D01*
X123252857Y-64084285D01*
X123205238Y-64179523D01*
X123110000Y-64274761D01*
X122967142Y-64322380D01*
X122729047Y-64322380D01*
X123729047Y-63941428D02*
X124490952Y-63941428D01*
X122729047Y-62222380D02*
X122729047Y-61222380D01*
X122967142Y-61222380D01*
X123110000Y-61270000D01*
X123205238Y-61365238D01*
X123252857Y-61460476D01*
X123300476Y-61650952D01*
X123300476Y-61793809D01*
X123252857Y-61984285D01*
X123205238Y-62079523D01*
X123110000Y-62174761D01*
X122967142Y-62222380D01*
X122729047Y-62222380D01*
X123729047Y-61841428D02*
X124490952Y-61841428D01*
X124110000Y-62222380D02*
X124110000Y-61460476D01*
X114166666Y-52052380D02*
X114166666Y-52766666D01*
X114119047Y-52909523D01*
X114023809Y-53004761D01*
X113880952Y-53052380D01*
X113785714Y-53052380D01*
X115071428Y-52385714D02*
X115071428Y-53052380D01*
X114833333Y-52004761D02*
X114595238Y-52719047D01*
X115214285Y-52719047D01*
X108161904Y-52152380D02*
X108161904Y-51152380D01*
X108400000Y-51152380D01*
X108542857Y-51200000D01*
X108638095Y-51295238D01*
X108685714Y-51390476D01*
X108733333Y-51580952D01*
X108733333Y-51723809D01*
X108685714Y-51914285D01*
X108638095Y-52009523D01*
X108542857Y-52104761D01*
X108400000Y-52152380D01*
X108161904Y-52152380D01*
X109685714Y-52152380D02*
X109114285Y-52152380D01*
X109400000Y-52152380D02*
X109400000Y-51152380D01*
X109304761Y-51295238D01*
X109209523Y-51390476D01*
X109114285Y-51438095D01*
X122333333Y-77357142D02*
X122285714Y-77404761D01*
X122142857Y-77452380D01*
X122047619Y-77452380D01*
X121904761Y-77404761D01*
X121809523Y-77309523D01*
X121761904Y-77214285D01*
X121714285Y-77023809D01*
X121714285Y-76880952D01*
X121761904Y-76690476D01*
X121809523Y-76595238D01*
X121904761Y-76500000D01*
X122047619Y-76452380D01*
X122142857Y-76452380D01*
X122285714Y-76500000D01*
X122333333Y-76547619D01*
X123238095Y-76452380D02*
X122761904Y-76452380D01*
X122714285Y-76928571D01*
X122761904Y-76880952D01*
X122857142Y-76833333D01*
X123095238Y-76833333D01*
X123190476Y-76880952D01*
X123238095Y-76928571D01*
X123285714Y-77023809D01*
X123285714Y-77261904D01*
X123238095Y-77357142D01*
X123190476Y-77404761D01*
X123095238Y-77452380D01*
X122857142Y-77452380D01*
X122761904Y-77404761D01*
X122714285Y-77357142D01*
X92158333Y-79382380D02*
X91825000Y-78906190D01*
X91586904Y-79382380D02*
X91586904Y-78382380D01*
X91967857Y-78382380D01*
X92063095Y-78430000D01*
X92110714Y-78477619D01*
X92158333Y-78572857D01*
X92158333Y-78715714D01*
X92110714Y-78810952D01*
X92063095Y-78858571D01*
X91967857Y-78906190D01*
X91586904Y-78906190D01*
X92539285Y-78477619D02*
X92586904Y-78430000D01*
X92682142Y-78382380D01*
X92920238Y-78382380D01*
X93015476Y-78430000D01*
X93063095Y-78477619D01*
X93110714Y-78572857D01*
X93110714Y-78668095D01*
X93063095Y-78810952D01*
X92491666Y-79382380D01*
X93110714Y-79382380D01*
X86158333Y-71382380D02*
X85825000Y-70906190D01*
X85586904Y-71382380D02*
X85586904Y-70382380D01*
X85967857Y-70382380D01*
X86063095Y-70430000D01*
X86110714Y-70477619D01*
X86158333Y-70572857D01*
X86158333Y-70715714D01*
X86110714Y-70810952D01*
X86063095Y-70858571D01*
X85967857Y-70906190D01*
X85586904Y-70906190D01*
X87110714Y-71382380D02*
X86539285Y-71382380D01*
X86825000Y-71382380D02*
X86825000Y-70382380D01*
X86729761Y-70525238D01*
X86634523Y-70620476D01*
X86539285Y-70668095D01*
X90733333Y-53457142D02*
X90685714Y-53504761D01*
X90542857Y-53552380D01*
X90447619Y-53552380D01*
X90304761Y-53504761D01*
X90209523Y-53409523D01*
X90161904Y-53314285D01*
X90114285Y-53123809D01*
X90114285Y-52980952D01*
X90161904Y-52790476D01*
X90209523Y-52695238D01*
X90304761Y-52600000D01*
X90447619Y-52552380D01*
X90542857Y-52552380D01*
X90685714Y-52600000D01*
X90733333Y-52647619D01*
X91590476Y-52552380D02*
X91400000Y-52552380D01*
X91304761Y-52600000D01*
X91257142Y-52647619D01*
X91161904Y-52790476D01*
X91114285Y-52980952D01*
X91114285Y-53361904D01*
X91161904Y-53457142D01*
X91209523Y-53504761D01*
X91304761Y-53552380D01*
X91495238Y-53552380D01*
X91590476Y-53504761D01*
X91638095Y-53457142D01*
X91685714Y-53361904D01*
X91685714Y-53123809D01*
X91638095Y-53028571D01*
X91590476Y-52980952D01*
X91495238Y-52933333D01*
X91304761Y-52933333D01*
X91209523Y-52980952D01*
X91161904Y-53028571D01*
X91114285Y-53123809D01*
X93133333Y-53357142D02*
X93085714Y-53404761D01*
X92942857Y-53452380D01*
X92847619Y-53452380D01*
X92704761Y-53404761D01*
X92609523Y-53309523D01*
X92561904Y-53214285D01*
X92514285Y-53023809D01*
X92514285Y-52880952D01*
X92561904Y-52690476D01*
X92609523Y-52595238D01*
X92704761Y-52500000D01*
X92847619Y-52452380D01*
X92942857Y-52452380D01*
X93085714Y-52500000D01*
X93133333Y-52547619D01*
X93704761Y-52880952D02*
X93609523Y-52833333D01*
X93561904Y-52785714D01*
X93514285Y-52690476D01*
X93514285Y-52642857D01*
X93561904Y-52547619D01*
X93609523Y-52500000D01*
X93704761Y-52452380D01*
X93895238Y-52452380D01*
X93990476Y-52500000D01*
X94038095Y-52547619D01*
X94085714Y-52642857D01*
X94085714Y-52690476D01*
X94038095Y-52785714D01*
X93990476Y-52833333D01*
X93895238Y-52880952D01*
X93704761Y-52880952D01*
X93609523Y-52928571D01*
X93561904Y-52976190D01*
X93514285Y-53071428D01*
X93514285Y-53261904D01*
X93561904Y-53357142D01*
X93609523Y-53404761D01*
X93704761Y-53452380D01*
X93895238Y-53452380D01*
X93990476Y-53404761D01*
X94038095Y-53357142D01*
X94085714Y-53261904D01*
X94085714Y-53071428D01*
X94038095Y-52976190D01*
X93990476Y-52928571D01*
X93895238Y-52880952D01*
X90152380Y-58761904D02*
X90961904Y-58761904D01*
X91057142Y-58714285D01*
X91104761Y-58666666D01*
X91152380Y-58571428D01*
X91152380Y-58380952D01*
X91104761Y-58285714D01*
X91057142Y-58238095D01*
X90961904Y-58190476D01*
X90152380Y-58190476D01*
X90152380Y-57809523D02*
X90152380Y-57190476D01*
X90533333Y-57523809D01*
X90533333Y-57380952D01*
X90580952Y-57285714D01*
X90628571Y-57238095D01*
X90723809Y-57190476D01*
X90961904Y-57190476D01*
X91057142Y-57238095D01*
X91104761Y-57285714D01*
X91152380Y-57380952D01*
X91152380Y-57666666D01*
X91104761Y-57761904D01*
X91057142Y-57809523D01*
X92357142Y-64666666D02*
X92404761Y-64714285D01*
X92452380Y-64857142D01*
X92452380Y-64952380D01*
X92404761Y-65095238D01*
X92309523Y-65190476D01*
X92214285Y-65238095D01*
X92023809Y-65285714D01*
X91880952Y-65285714D01*
X91690476Y-65238095D01*
X91595238Y-65190476D01*
X91500000Y-65095238D01*
X91452380Y-64952380D01*
X91452380Y-64857142D01*
X91500000Y-64714285D01*
X91547619Y-64666666D01*
X92452380Y-64190476D02*
X92452380Y-64000000D01*
X92404761Y-63904761D01*
X92357142Y-63857142D01*
X92214285Y-63761904D01*
X92023809Y-63714285D01*
X91642857Y-63714285D01*
X91547619Y-63761904D01*
X91500000Y-63809523D01*
X91452380Y-63904761D01*
X91452380Y-64095238D01*
X91500000Y-64190476D01*
X91547619Y-64238095D01*
X91642857Y-64285714D01*
X91880952Y-64285714D01*
X91976190Y-64238095D01*
X92023809Y-64190476D01*
X92071428Y-64095238D01*
X92071428Y-63904761D01*
X92023809Y-63809523D01*
X91976190Y-63761904D01*
X91880952Y-63714285D01*
X172657142Y-98442857D02*
X172704761Y-98490476D01*
X172752380Y-98633333D01*
X172752380Y-98728571D01*
X172704761Y-98871428D01*
X172609523Y-98966666D01*
X172514285Y-99014285D01*
X172323809Y-99061904D01*
X172180952Y-99061904D01*
X171990476Y-99014285D01*
X171895238Y-98966666D01*
X171800000Y-98871428D01*
X171752380Y-98728571D01*
X171752380Y-98633333D01*
X171800000Y-98490476D01*
X171847619Y-98442857D01*
X172752380Y-97490476D02*
X172752380Y-98061904D01*
X172752380Y-97776190D02*
X171752380Y-97776190D01*
X171895238Y-97871428D01*
X171990476Y-97966666D01*
X172038095Y-98061904D01*
X171847619Y-97109523D02*
X171800000Y-97061904D01*
X171752380Y-96966666D01*
X171752380Y-96728571D01*
X171800000Y-96633333D01*
X171847619Y-96585714D01*
X171942857Y-96538095D01*
X172038095Y-96538095D01*
X172180952Y-96585714D01*
X172752380Y-97157142D01*
X172752380Y-96538095D01*
X137057142Y-69257142D02*
X137009523Y-69304761D01*
X136866666Y-69352380D01*
X136771428Y-69352380D01*
X136628571Y-69304761D01*
X136533333Y-69209523D01*
X136485714Y-69114285D01*
X136438095Y-68923809D01*
X136438095Y-68780952D01*
X136485714Y-68590476D01*
X136533333Y-68495238D01*
X136628571Y-68400000D01*
X136771428Y-68352380D01*
X136866666Y-68352380D01*
X137009523Y-68400000D01*
X137057142Y-68447619D01*
X138009523Y-69352380D02*
X137438095Y-69352380D01*
X137723809Y-69352380D02*
X137723809Y-68352380D01*
X137628571Y-68495238D01*
X137533333Y-68590476D01*
X137438095Y-68638095D01*
X138628571Y-68352380D02*
X138723809Y-68352380D01*
X138819047Y-68400000D01*
X138866666Y-68447619D01*
X138914285Y-68542857D01*
X138961904Y-68733333D01*
X138961904Y-68971428D01*
X138914285Y-69161904D01*
X138866666Y-69257142D01*
X138819047Y-69304761D01*
X138723809Y-69352380D01*
X138628571Y-69352380D01*
X138533333Y-69304761D01*
X138485714Y-69257142D01*
X138438095Y-69161904D01*
X138390476Y-68971428D01*
X138390476Y-68733333D01*
X138438095Y-68542857D01*
X138485714Y-68447619D01*
X138533333Y-68400000D01*
X138628571Y-68352380D01*
D13*
X160307723Y-59897648D02*
X157742723Y-64340358D01*
X157742723Y-64340358D02*
X163900163Y-67895358D01*
X163900163Y-67895358D02*
X166465163Y-63452648D01*
D14*
X63750000Y-75800000D02*
X63750000Y-76500000D01*
X62550000Y-76500000D02*
X62550000Y-75800000D01*
D10*
X78761841Y-71774177D02*
X78029138Y-85754990D01*
X64781028Y-71041474D02*
X78761841Y-71774177D01*
X64048325Y-85022287D02*
X78029138Y-85754990D01*
X64781028Y-71041474D02*
X64048325Y-85022287D01*
D14*
X95750000Y-73700000D02*
X96450000Y-73700000D01*
X96450000Y-74900000D02*
X95750000Y-74900000D01*
X92900000Y-71600000D02*
X92200000Y-71600000D01*
X92200000Y-70400000D02*
X92900000Y-70400000D01*
X92950000Y-68850000D02*
X92250000Y-68850000D01*
X92250000Y-67650000D02*
X92950000Y-67650000D01*
X136800000Y-66200000D02*
X136100000Y-66200000D01*
X136100000Y-65000000D02*
X136800000Y-65000000D01*
X128150000Y-73400000D02*
X128850000Y-73400000D01*
X128850000Y-74600000D02*
X128150000Y-74600000D01*
X118170000Y-53770000D02*
X118170000Y-53830000D01*
X118170000Y-52500000D02*
X118170000Y-51170000D01*
X118170000Y-53830000D02*
X120830000Y-53830000D01*
X120830000Y-53770000D02*
X120830000Y-53830000D01*
X118170000Y-51170000D02*
X119500000Y-51170000D01*
X118170000Y-53770000D02*
X120830000Y-53770000D01*
D12*
X97370000Y-61230000D02*
X99910000Y-61230000D01*
X115150000Y-58690000D02*
X117690000Y-58690000D01*
X131660000Y-67580000D02*
X130390000Y-67580000D01*
X130390000Y-54880000D02*
X130390000Y-72660000D01*
X125310000Y-59960000D02*
X130390000Y-59960000D01*
X125310000Y-59960000D02*
X125310000Y-67580000D01*
X130390000Y-72660000D02*
X94830000Y-72660000D01*
X125310000Y-67580000D02*
X130390000Y-67580000D01*
X117690000Y-58690000D02*
X117690000Y-63770000D01*
X94830000Y-54880000D02*
X130390000Y-54880000D01*
X94830000Y-72660000D02*
X94830000Y-54880000D01*
X97370000Y-66310000D02*
X97370000Y-61230000D01*
X99910000Y-61230000D02*
X99910000Y-66310000D01*
X99910000Y-66310000D02*
X97370000Y-66310000D01*
X117690000Y-63770000D02*
X115150000Y-63770000D01*
X130390000Y-59960000D02*
X131660000Y-59960000D01*
X115150000Y-63770000D02*
X115150000Y-58690000D01*
X131660000Y-59960000D02*
X131660000Y-67580000D01*
X116260000Y-64760000D02*
G75*
G03*
X116260000Y-64760000I-500000J0D01*
G01*
X117580000Y-64760000D02*
G75*
G03*
X117580000Y-64760000I-500000J0D01*
G01*
D14*
X111070000Y-54170000D02*
X113730000Y-54170000D01*
X111070000Y-52900000D02*
X111070000Y-51570000D01*
X113730000Y-54170000D02*
X113730000Y-54230000D01*
X111070000Y-54170000D02*
X111070000Y-54230000D01*
X111070000Y-51570000D02*
X112400000Y-51570000D01*
X111070000Y-54230000D02*
X113730000Y-54230000D01*
X108400000Y-54200000D02*
X110800000Y-54200000D01*
X110800000Y-54200000D02*
X110800000Y-53000000D01*
X108400000Y-53000000D02*
X110800000Y-53000000D01*
X122150000Y-74400000D02*
X122850000Y-74400000D01*
X122850000Y-75600000D02*
X122150000Y-75600000D01*
X92562258Y-78022500D02*
X92087742Y-78022500D01*
X92562258Y-76977500D02*
X92087742Y-76977500D01*
X86562258Y-68977500D02*
X86087742Y-68977500D01*
X86562258Y-70022500D02*
X86087742Y-70022500D01*
X92850000Y-56750000D02*
X92150000Y-56750000D01*
X92150000Y-55550000D02*
X92850000Y-55550000D01*
X92850000Y-55100000D02*
X92150000Y-55100000D01*
X92150000Y-53900000D02*
X92850000Y-53900000D01*
X90770000Y-59240000D02*
X91700000Y-59240000D01*
X93930000Y-59240000D02*
X93930000Y-60700000D01*
X93930000Y-59240000D02*
X93000000Y-59240000D01*
X90770000Y-59240000D02*
X90770000Y-62400000D01*
X92700000Y-65200000D02*
X92700000Y-64500000D01*
X93900000Y-64500000D02*
X93900000Y-65200000D01*
X173150000Y-98350000D02*
X173150000Y-97650000D01*
X174350000Y-97650000D02*
X174350000Y-98350000D01*
X137350000Y-66800000D02*
X138050000Y-66800000D01*
X138050000Y-68000000D02*
X137350000Y-68000000D01*
D15*
X55895656Y-68226928D02*
X55976310Y-68229567D01*
X55976310Y-68229567D02*
X56054111Y-68234159D01*
X56054111Y-68234159D02*
X56076910Y-68235936D01*
X56076910Y-68235936D02*
X56195383Y-68248031D01*
X56195383Y-68248031D02*
X56312710Y-68264609D01*
X56312710Y-68264609D02*
X56428626Y-68285602D01*
X56428626Y-68285602D02*
X56542863Y-68310942D01*
X56542863Y-68310942D02*
X56655155Y-68340560D01*
X56655155Y-68340560D02*
X56765235Y-68374389D01*
X56765235Y-68374389D02*
X56872838Y-68412360D01*
X56872838Y-68412360D02*
X56977697Y-68454404D01*
X56977697Y-68454404D02*
X57042110Y-68482899D01*
X57042110Y-68482899D02*
X57134279Y-68527989D01*
X57134279Y-68527989D02*
X57224135Y-68577589D01*
X57224135Y-68577589D02*
X57311683Y-68631704D01*
X57311683Y-68631704D02*
X57396927Y-68690338D01*
X57396927Y-68690338D02*
X57479874Y-68753494D01*
X57479874Y-68753494D02*
X57560527Y-68821176D01*
X57560527Y-68821176D02*
X57638893Y-68893390D01*
X57638893Y-68893390D02*
X57714977Y-68970138D01*
X57714977Y-68970138D02*
X57788783Y-69051425D01*
X57788783Y-69051425D02*
X57824273Y-69093100D01*
X57824273Y-69093100D02*
X57883264Y-69166419D01*
X57883264Y-69166419D02*
X57940935Y-69243356D01*
X57940935Y-69243356D02*
X57997354Y-69324035D01*
X57997354Y-69324035D02*
X58052589Y-69408580D01*
X58052589Y-69408580D02*
X58106708Y-69497117D01*
X58106708Y-69497117D02*
X58159778Y-69589768D01*
X58159778Y-69589768D02*
X58211868Y-69686660D01*
X58211868Y-69686660D02*
X58263045Y-69787916D01*
X58263045Y-69787916D02*
X58313378Y-69893661D01*
X58313378Y-69893661D02*
X58362934Y-70004019D01*
X58362934Y-70004019D02*
X58411781Y-70119114D01*
X58411781Y-70119114D02*
X58459987Y-70239071D01*
X58459987Y-70239071D02*
X58484969Y-70303795D01*
X58484969Y-70303795D02*
X58509278Y-70368373D01*
X58509278Y-70368373D02*
X58533689Y-70434655D01*
X58533689Y-70434655D02*
X58558008Y-70502058D01*
X58558008Y-70502058D02*
X58582036Y-70569997D01*
X58582036Y-70569997D02*
X58605577Y-70637886D01*
X58605577Y-70637886D02*
X58628434Y-70705142D01*
X58628434Y-70705142D02*
X58650410Y-70771179D01*
X58650410Y-70771179D02*
X58671308Y-70835414D01*
X58671308Y-70835414D02*
X58690932Y-70897261D01*
X58690932Y-70897261D02*
X58709083Y-70956136D01*
X58709083Y-70956136D02*
X58725567Y-71011455D01*
X58725567Y-71011455D02*
X58738477Y-71056520D01*
X58738477Y-71056520D02*
X58779454Y-71209685D01*
X58779454Y-71209685D02*
X58817704Y-71367078D01*
X58817704Y-71367078D02*
X58853218Y-71528633D01*
X58853218Y-71528633D02*
X58885987Y-71694285D01*
X58885987Y-71694285D02*
X58916000Y-71863969D01*
X58916000Y-71863969D02*
X58943249Y-72037621D01*
X58943249Y-72037621D02*
X58967725Y-72215174D01*
X58967725Y-72215174D02*
X58989418Y-72396566D01*
X58989418Y-72396566D02*
X59008318Y-72581729D01*
X59008318Y-72581729D02*
X59024417Y-72770600D01*
X59024417Y-72770600D02*
X59037704Y-72963114D01*
X59037704Y-72963114D02*
X59048172Y-73159205D01*
X59048172Y-73159205D02*
X59051201Y-73229490D01*
X59051201Y-73229490D02*
X59052727Y-73267756D01*
X59052727Y-73267756D02*
X59054084Y-73303048D01*
X59054084Y-73303048D02*
X59055285Y-73335962D01*
X59055285Y-73335962D02*
X59056341Y-73367097D01*
X59056341Y-73367097D02*
X59057265Y-73397049D01*
X59057265Y-73397049D02*
X59058069Y-73426415D01*
X59058069Y-73426415D02*
X59058768Y-73455792D01*
X59058768Y-73455792D02*
X59059372Y-73485778D01*
X59059372Y-73485778D02*
X59059894Y-73516968D01*
X59059894Y-73516968D02*
X59060348Y-73549961D01*
X59060348Y-73549961D02*
X59060745Y-73585353D01*
X59060745Y-73585353D02*
X59061099Y-73623742D01*
X59061099Y-73623742D02*
X59061421Y-73665724D01*
X59061421Y-73665724D02*
X59061724Y-73711897D01*
X59061724Y-73711897D02*
X59061870Y-73736220D01*
X59061870Y-73736220D02*
X59062214Y-73812792D01*
X59062214Y-73812792D02*
X59062313Y-73885120D01*
X59062313Y-73885120D02*
X59062155Y-73954035D01*
X59062155Y-73954035D02*
X59061724Y-74020367D01*
X59061724Y-74020367D02*
X59061008Y-74084947D01*
X59061008Y-74084947D02*
X59059990Y-74148606D01*
X59059990Y-74148606D02*
X59058659Y-74212174D01*
X59058659Y-74212174D02*
X59056998Y-74276482D01*
X59056998Y-74276482D02*
X59054994Y-74342361D01*
X59054994Y-74342361D02*
X59052634Y-74410642D01*
X59052634Y-74410642D02*
X59049902Y-74482155D01*
X59049902Y-74482155D02*
X59048636Y-74513460D01*
X59048636Y-74513460D02*
X59038775Y-74721776D01*
X59038775Y-74721776D02*
X59026186Y-74933327D01*
X59026186Y-74933327D02*
X59010954Y-75147116D01*
X59010954Y-75147116D02*
X58993164Y-75362147D01*
X58993164Y-75362147D02*
X58972902Y-75577423D01*
X58972902Y-75577423D02*
X58950252Y-75791949D01*
X58950252Y-75791949D02*
X58925299Y-76004729D01*
X58925299Y-76004729D02*
X58912748Y-76104251D01*
X58912748Y-76104251D02*
X58909545Y-76129502D01*
X58909545Y-76129502D02*
X58906264Y-76156146D01*
X58906264Y-76156146D02*
X58903036Y-76183059D01*
X58903036Y-76183059D02*
X58899993Y-76209118D01*
X58899993Y-76209118D02*
X58897266Y-76233202D01*
X58897266Y-76233202D02*
X58894987Y-76254186D01*
X58894987Y-76254186D02*
X58893691Y-76266811D01*
X58893691Y-76266811D02*
X58888507Y-76316274D01*
X58888507Y-76316274D02*
X58882390Y-76369689D01*
X58882390Y-76369689D02*
X58875476Y-76426044D01*
X58875476Y-76426044D02*
X58867901Y-76484326D01*
X58867901Y-76484326D02*
X58859800Y-76543519D01*
X58859800Y-76543519D02*
X58851309Y-76602612D01*
X58851309Y-76602612D02*
X58842564Y-76660591D01*
X58842564Y-76660591D02*
X58833700Y-76716442D01*
X58833700Y-76716442D02*
X58832584Y-76723260D01*
X58832584Y-76723260D02*
X58804919Y-76882405D01*
X58804919Y-76882405D02*
X58774574Y-77039325D01*
X58774574Y-77039325D02*
X58741614Y-77193786D01*
X58741614Y-77193786D02*
X58706105Y-77345559D01*
X58706105Y-77345559D02*
X58668112Y-77494412D01*
X58668112Y-77494412D02*
X58627703Y-77640112D01*
X58627703Y-77640112D02*
X58584941Y-77782430D01*
X58584941Y-77782430D02*
X58539894Y-77921133D01*
X58539894Y-77921133D02*
X58492626Y-78055991D01*
X58492626Y-78055991D02*
X58443204Y-78186771D01*
X58443204Y-78186771D02*
X58391692Y-78313242D01*
X58391692Y-78313242D02*
X58360373Y-78385690D01*
X58360373Y-78385690D02*
X58347443Y-78414769D01*
X58347443Y-78414769D02*
X58336269Y-78439495D01*
X58336269Y-78439495D02*
X58326676Y-78460212D01*
X58326676Y-78460212D02*
X58318487Y-78477263D01*
X58318487Y-78477263D02*
X58311526Y-78490994D01*
X58311526Y-78490994D02*
X58305618Y-78501749D01*
X58305618Y-78501749D02*
X58300587Y-78509872D01*
X58300587Y-78509872D02*
X58296257Y-78515708D01*
X58296257Y-78515708D02*
X58292452Y-78519601D01*
X58292452Y-78519601D02*
X58291664Y-78520233D01*
X58291664Y-78520233D02*
X58276622Y-78528872D01*
X58276622Y-78528872D02*
X58260052Y-78533519D01*
X58260052Y-78533519D02*
X58243182Y-78534010D01*
X58243182Y-78534010D02*
X58227239Y-78530176D01*
X58227239Y-78530176D02*
X58225107Y-78529264D01*
X58225107Y-78529264D02*
X58218534Y-78525513D01*
X58218534Y-78525513D02*
X58209558Y-78519370D01*
X58209558Y-78519370D02*
X58199568Y-78511821D01*
X58199568Y-78511821D02*
X58193357Y-78506766D01*
X58193357Y-78506766D02*
X58153211Y-78474512D01*
X58153211Y-78474512D02*
X58108872Y-78441557D01*
X58108872Y-78441557D02*
X58061087Y-78408365D01*
X58061087Y-78408365D02*
X58010607Y-78375401D01*
X58010607Y-78375401D02*
X57958183Y-78343129D01*
X57958183Y-78343129D02*
X57904563Y-78312013D01*
X57904563Y-78312013D02*
X57850497Y-78282518D01*
X57850497Y-78282518D02*
X57796736Y-78255107D01*
X57796736Y-78255107D02*
X57754420Y-78234978D01*
X57754420Y-78234978D02*
X57668788Y-78197965D01*
X57668788Y-78197965D02*
X57583595Y-78165820D01*
X57583595Y-78165820D02*
X57498903Y-78138551D01*
X57498903Y-78138551D02*
X57414776Y-78116163D01*
X57414776Y-78116163D02*
X57331274Y-78098663D01*
X57331274Y-78098663D02*
X57248462Y-78086059D01*
X57248462Y-78086059D02*
X57166401Y-78078356D01*
X57166401Y-78078356D02*
X57085153Y-78075560D01*
X57085153Y-78075560D02*
X57004781Y-78077679D01*
X57004781Y-78077679D02*
X56925348Y-78084720D01*
X56925348Y-78084720D02*
X56846915Y-78096687D01*
X56846915Y-78096687D02*
X56769546Y-78113589D01*
X56769546Y-78113589D02*
X56722009Y-78126587D01*
X56722009Y-78126587D02*
X56700163Y-78133171D01*
X56700163Y-78133171D02*
X56679725Y-78139665D01*
X56679725Y-78139665D02*
X56659984Y-78146349D01*
X56659984Y-78146349D02*
X56640227Y-78153498D01*
X56640227Y-78153498D02*
X56619740Y-78161392D01*
X56619740Y-78161392D02*
X56597813Y-78170306D01*
X56597813Y-78170306D02*
X56573731Y-78180520D01*
X56573731Y-78180520D02*
X56546783Y-78192311D01*
X56546783Y-78192311D02*
X56516256Y-78205955D01*
X56516256Y-78205955D02*
X56503630Y-78211657D01*
X56503630Y-78211657D02*
X56446724Y-78237189D01*
X56446724Y-78237189D02*
X56393615Y-78260549D01*
X56393615Y-78260549D02*
X56343649Y-78282010D01*
X56343649Y-78282010D02*
X56296170Y-78301847D01*
X56296170Y-78301847D02*
X56250524Y-78320334D01*
X56250524Y-78320334D02*
X56206057Y-78337747D01*
X56206057Y-78337747D02*
X56173476Y-78350120D01*
X56173476Y-78350120D02*
X56077953Y-78384181D01*
X56077953Y-78384181D02*
X55984838Y-78413841D01*
X55984838Y-78413841D02*
X55894019Y-78439114D01*
X55894019Y-78439114D02*
X55805386Y-78460009D01*
X55805386Y-78460009D02*
X55718828Y-78476539D01*
X55718828Y-78476539D02*
X55634235Y-78488716D01*
X55634235Y-78488716D02*
X55551495Y-78496552D01*
X55551495Y-78496552D02*
X55470497Y-78500058D01*
X55470497Y-78500058D02*
X55391133Y-78499246D01*
X55391133Y-78499246D02*
X55313289Y-78494127D01*
X55313289Y-78494127D02*
X55236857Y-78484714D01*
X55236857Y-78484714D02*
X55161724Y-78471019D01*
X55161724Y-78471019D02*
X55121636Y-78461842D01*
X55121636Y-78461842D02*
X55062843Y-78445964D01*
X55062843Y-78445964D02*
X55005613Y-78427495D01*
X55005613Y-78427495D02*
X54949437Y-78406187D01*
X54949437Y-78406187D02*
X54893804Y-78381789D01*
X54893804Y-78381789D02*
X54838206Y-78354052D01*
X54838206Y-78354052D02*
X54782131Y-78322728D01*
X54782131Y-78322728D02*
X54725069Y-78287565D01*
X54725069Y-78287565D02*
X54666512Y-78248316D01*
X54666512Y-78248316D02*
X54626020Y-78219486D01*
X54626020Y-78219486D02*
X54615777Y-78211925D01*
X54615777Y-78211925D02*
X54602227Y-78201758D01*
X54602227Y-78201758D02*
X54586064Y-78189514D01*
X54586064Y-78189514D02*
X54567978Y-78175722D01*
X54567978Y-78175722D02*
X54548663Y-78160909D01*
X54548663Y-78160909D02*
X54528811Y-78145604D01*
X54528811Y-78145604D02*
X54509113Y-78130334D01*
X54509113Y-78130334D02*
X54506640Y-78128410D01*
X54506640Y-78128410D02*
X54485587Y-78112076D01*
X54485587Y-78112076D02*
X54463066Y-78094689D01*
X54463066Y-78094689D02*
X54440006Y-78076960D01*
X54440006Y-78076960D02*
X54417342Y-78059606D01*
X54417342Y-78059606D02*
X54396003Y-78043338D01*
X54396003Y-78043338D02*
X54376923Y-78028871D01*
X54376923Y-78028871D02*
X54362924Y-78018334D01*
X54362924Y-78018334D02*
X54302609Y-77974398D01*
X54302609Y-77974398D02*
X54244592Y-77934715D01*
X54244592Y-77934715D02*
X54188602Y-77899154D01*
X54188602Y-77899154D02*
X54134370Y-77867587D01*
X54134370Y-77867587D02*
X54081627Y-77839881D01*
X54081627Y-77839881D02*
X54030102Y-77815906D01*
X54030102Y-77815906D02*
X53979527Y-77795532D01*
X53979527Y-77795532D02*
X53929632Y-77778628D01*
X53929632Y-77778628D02*
X53880148Y-77765064D01*
X53880148Y-77765064D02*
X53830805Y-77754709D01*
X53830805Y-77754709D02*
X53812509Y-77751661D01*
X53812509Y-77751661D02*
X53794928Y-77749470D01*
X53794928Y-77749470D02*
X53773453Y-77747640D01*
X53773453Y-77747640D02*
X53749257Y-77746204D01*
X53749257Y-77746204D02*
X53723515Y-77745192D01*
X53723515Y-77745192D02*
X53697403Y-77744634D01*
X53697403Y-77744634D02*
X53672093Y-77744561D01*
X53672093Y-77744561D02*
X53648762Y-77745004D01*
X53648762Y-77745004D02*
X53628583Y-77745992D01*
X53628583Y-77745992D02*
X53620460Y-77746660D01*
X53620460Y-77746660D02*
X53596962Y-77749137D01*
X53596962Y-77749137D02*
X53573751Y-77752038D01*
X53573751Y-77752038D02*
X53550349Y-77755465D01*
X53550349Y-77755465D02*
X53526281Y-77759522D01*
X53526281Y-77759522D02*
X53501071Y-77764313D01*
X53501071Y-77764313D02*
X53474241Y-77769940D01*
X53474241Y-77769940D02*
X53445315Y-77776506D01*
X53445315Y-77776506D02*
X53413818Y-77784116D01*
X53413818Y-77784116D02*
X53379273Y-77792871D01*
X53379273Y-77792871D02*
X53341203Y-77802876D01*
X53341203Y-77802876D02*
X53299132Y-77814234D01*
X53299132Y-77814234D02*
X53263860Y-77823924D01*
X53263860Y-77823924D02*
X53210604Y-77838452D01*
X53210604Y-77838452D02*
X53161613Y-77851381D01*
X53161613Y-77851381D02*
X53116364Y-77862809D01*
X53116364Y-77862809D02*
X53074334Y-77872834D01*
X53074334Y-77872834D02*
X53034999Y-77881554D01*
X53034999Y-77881554D02*
X52997835Y-77889067D01*
X52997835Y-77889067D02*
X52962321Y-77895471D01*
X52962321Y-77895471D02*
X52927932Y-77900863D01*
X52927932Y-77900863D02*
X52894145Y-77905341D01*
X52894145Y-77905341D02*
X52860437Y-77909004D01*
X52860437Y-77909004D02*
X52826285Y-77911948D01*
X52826285Y-77911948D02*
X52791165Y-77914273D01*
X52791165Y-77914273D02*
X52776611Y-77915057D01*
X52776611Y-77915057D02*
X52720904Y-77916537D01*
X52720904Y-77916537D02*
X52662097Y-77915601D01*
X52662097Y-77915601D02*
X52601501Y-77912351D01*
X52601501Y-77912351D02*
X52540429Y-77906889D01*
X52540429Y-77906889D02*
X52480194Y-77899316D01*
X52480194Y-77899316D02*
X52422107Y-77889733D01*
X52422107Y-77889733D02*
X52404070Y-77886235D01*
X52404070Y-77886235D02*
X52332667Y-77869871D01*
X52332667Y-77869871D02*
X52264113Y-77850050D01*
X52264113Y-77850050D02*
X52197989Y-77826564D01*
X52197989Y-77826564D02*
X52133878Y-77799208D01*
X52133878Y-77799208D02*
X52071361Y-77767774D01*
X52071361Y-77767774D02*
X52010020Y-77732056D01*
X52010020Y-77732056D02*
X51949438Y-77691848D01*
X51949438Y-77691848D02*
X51889195Y-77646943D01*
X51889195Y-77646943D02*
X51842351Y-77608674D01*
X51842351Y-77608674D02*
X51832949Y-77600409D01*
X51832949Y-77600409D02*
X51820637Y-77589132D01*
X51820637Y-77589132D02*
X51806059Y-77575457D01*
X51806059Y-77575457D02*
X51789859Y-77559999D01*
X51789859Y-77559999D02*
X51772683Y-77543372D01*
X51772683Y-77543372D02*
X51755174Y-77526193D01*
X51755174Y-77526193D02*
X51738538Y-77509638D01*
X51738538Y-77509638D02*
X51706229Y-77476842D01*
X51706229Y-77476842D02*
X51676350Y-77445619D01*
X51676350Y-77445619D02*
X51647932Y-77414894D01*
X51647932Y-77414894D02*
X51620009Y-77383595D01*
X51620009Y-77383595D02*
X51591612Y-77350649D01*
X51591612Y-77350649D02*
X51561775Y-77314983D01*
X51561775Y-77314983D02*
X51548858Y-77299272D01*
X51548858Y-77299272D02*
X51533297Y-77280115D01*
X51533297Y-77280115D02*
X51516552Y-77259235D01*
X51516552Y-77259235D02*
X51498904Y-77237000D01*
X51498904Y-77237000D02*
X51480632Y-77213778D01*
X51480632Y-77213778D02*
X51462014Y-77189936D01*
X51462014Y-77189936D02*
X51443332Y-77165841D01*
X51443332Y-77165841D02*
X51424864Y-77141861D01*
X51424864Y-77141861D02*
X51406889Y-77118363D01*
X51406889Y-77118363D02*
X51389688Y-77095714D01*
X51389688Y-77095714D02*
X51373539Y-77074282D01*
X51373539Y-77074282D02*
X51358723Y-77054433D01*
X51358723Y-77054433D02*
X51345518Y-77036537D01*
X51345518Y-77036537D02*
X51334204Y-77020959D01*
X51334204Y-77020959D02*
X51325061Y-77008066D01*
X51325061Y-77008066D02*
X51318368Y-76998228D01*
X51318368Y-76998228D02*
X51314405Y-76991810D01*
X51314405Y-76991810D02*
X51313511Y-76989934D01*
X51313511Y-76989934D02*
X51311295Y-76979189D01*
X51311295Y-76979189D02*
X51310748Y-76966016D01*
X51310748Y-76966016D02*
X51311878Y-76952789D01*
X51311878Y-76952789D02*
X51313332Y-76945931D01*
X51313332Y-76945931D02*
X51314433Y-76942824D01*
X51314433Y-76942824D02*
X51316266Y-76939263D01*
X51316266Y-76939263D02*
X51319105Y-76934936D01*
X51319105Y-76934936D02*
X51323229Y-76929534D01*
X51323229Y-76929534D02*
X51328914Y-76922743D01*
X51328914Y-76922743D02*
X51336437Y-76914255D01*
X51336437Y-76914255D02*
X51346075Y-76903757D01*
X51346075Y-76903757D02*
X51358104Y-76890939D01*
X51358104Y-76890939D02*
X51372802Y-76875489D01*
X51372802Y-76875489D02*
X51390446Y-76857097D01*
X51390446Y-76857097D02*
X51411311Y-76835452D01*
X51411311Y-76835452D02*
X51416010Y-76830587D01*
X51416010Y-76830587D02*
X51465403Y-76779094D01*
X51465403Y-76779094D02*
X51514283Y-76727434D01*
X51514283Y-76727434D02*
X51562407Y-76675882D01*
X51562407Y-76675882D02*
X51609534Y-76624714D01*
X51609534Y-76624714D02*
X51655423Y-76574207D01*
X51655423Y-76574207D02*
X51699834Y-76524635D01*
X51699834Y-76524635D02*
X51742524Y-76476275D01*
X51742524Y-76476275D02*
X51783252Y-76429403D01*
X51783252Y-76429403D02*
X51821778Y-76384294D01*
X51821778Y-76384294D02*
X51857860Y-76341225D01*
X51857860Y-76341225D02*
X51891256Y-76300470D01*
X51891256Y-76300470D02*
X51921726Y-76262307D01*
X51921726Y-76262307D02*
X51949029Y-76227011D01*
X51949029Y-76227011D02*
X51972922Y-76194857D01*
X51972922Y-76194857D02*
X51977626Y-76188333D01*
X51977626Y-76188333D02*
X52043932Y-76092130D01*
X52043932Y-76092130D02*
X52106794Y-75993365D01*
X52106794Y-75993365D02*
X52166252Y-75891923D01*
X52166252Y-75891923D02*
X52222349Y-75787691D01*
X52222349Y-75787691D02*
X52275124Y-75680554D01*
X52275124Y-75680554D02*
X52324619Y-75570399D01*
X52324619Y-75570399D02*
X52370875Y-75457113D01*
X52370875Y-75457113D02*
X52413934Y-75340580D01*
X52413934Y-75340580D02*
X52453836Y-75220687D01*
X52453836Y-75220687D02*
X52490624Y-75097321D01*
X52490624Y-75097321D02*
X52524337Y-74970367D01*
X52524337Y-74970367D02*
X52555018Y-74839712D01*
X52555018Y-74839712D02*
X52582707Y-74705241D01*
X52582707Y-74705241D02*
X52607445Y-74566841D01*
X52607445Y-74566841D02*
X52629275Y-74424397D01*
X52629275Y-74424397D02*
X52637551Y-74363600D01*
X52637551Y-74363600D02*
X52650068Y-74262272D01*
X52650068Y-74262272D02*
X52661439Y-74157713D01*
X52661439Y-74157713D02*
X52671682Y-74049681D01*
X52671682Y-74049681D02*
X52680815Y-73937934D01*
X52680815Y-73937934D02*
X52688856Y-73822230D01*
X52688856Y-73822230D02*
X52695823Y-73702327D01*
X52695823Y-73702327D02*
X52701734Y-73577983D01*
X52701734Y-73577983D02*
X52706607Y-73448957D01*
X52706607Y-73448957D02*
X52707539Y-73419990D01*
X52707539Y-73419990D02*
X52708395Y-73391896D01*
X52708395Y-73391896D02*
X52709204Y-73363904D01*
X52709204Y-73363904D02*
X52709970Y-73335744D01*
X52709970Y-73335744D02*
X52710696Y-73307150D01*
X52710696Y-73307150D02*
X52711387Y-73277854D01*
X52711387Y-73277854D02*
X52712046Y-73247587D01*
X52712046Y-73247587D02*
X52712678Y-73216082D01*
X52712678Y-73216082D02*
X52713286Y-73183071D01*
X52713286Y-73183071D02*
X52713875Y-73148286D01*
X52713875Y-73148286D02*
X52714448Y-73111459D01*
X52714448Y-73111459D02*
X52715009Y-73072323D01*
X52715009Y-73072323D02*
X52715563Y-73030609D01*
X52715563Y-73030609D02*
X52716112Y-72986049D01*
X52716112Y-72986049D02*
X52716662Y-72938376D01*
X52716662Y-72938376D02*
X52717216Y-72887322D01*
X52717216Y-72887322D02*
X52717778Y-72832619D01*
X52717778Y-72832619D02*
X52718351Y-72773999D01*
X52718351Y-72773999D02*
X52718941Y-72711194D01*
X52718941Y-72711194D02*
X52719550Y-72643936D01*
X52719550Y-72643936D02*
X52720183Y-72571958D01*
X52720183Y-72571958D02*
X52720406Y-72546230D01*
X52720406Y-72546230D02*
X52721435Y-72439510D01*
X52721435Y-72439510D02*
X52722650Y-72337660D01*
X52722650Y-72337660D02*
X52724019Y-72243749D01*
X52724019Y-72243749D02*
X55490263Y-72243749D01*
X55490263Y-72243749D02*
X55490274Y-72256670D01*
X55490274Y-72256670D02*
X55492772Y-72305904D01*
X55492772Y-72305904D02*
X55500000Y-72353350D01*
X55500000Y-72353350D02*
X55511925Y-72398921D01*
X55511925Y-72398921D02*
X55528510Y-72442528D01*
X55528510Y-72442528D02*
X55549719Y-72484085D01*
X55549719Y-72484085D02*
X55575519Y-72523504D01*
X55575519Y-72523504D02*
X55605873Y-72560697D01*
X55605873Y-72560697D02*
X55618183Y-72573806D01*
X55618183Y-72573806D02*
X55653949Y-72606943D01*
X55653949Y-72606943D02*
X55692565Y-72635932D01*
X55692565Y-72635932D02*
X55733776Y-72660645D01*
X55733776Y-72660645D02*
X55777321Y-72680951D01*
X55777321Y-72680951D02*
X55822945Y-72696721D01*
X55822945Y-72696721D02*
X55870388Y-72707825D01*
X55870388Y-72707825D02*
X55891271Y-72711131D01*
X55891271Y-72711131D02*
X55906122Y-72712658D01*
X55906122Y-72712658D02*
X55924492Y-72713787D01*
X55924492Y-72713787D02*
X55945042Y-72714507D01*
X55945042Y-72714507D02*
X55966433Y-72714803D01*
X55966433Y-72714803D02*
X55987324Y-72714663D01*
X55987324Y-72714663D02*
X56006377Y-72714074D01*
X56006377Y-72714074D02*
X56022252Y-72713023D01*
X56022252Y-72713023D02*
X56027446Y-72712465D01*
X56027446Y-72712465D02*
X56073350Y-72704469D01*
X56073350Y-72704469D02*
X56117016Y-72692230D01*
X56117016Y-72692230D02*
X56158195Y-72675877D01*
X56158195Y-72675877D02*
X56196639Y-72655540D01*
X56196639Y-72655540D02*
X56232099Y-72631347D01*
X56232099Y-72631347D02*
X56264324Y-72603426D01*
X56264324Y-72603426D02*
X56288751Y-72577143D01*
X56288751Y-72577143D02*
X56316709Y-72540309D01*
X56316709Y-72540309D02*
X56341219Y-72500367D01*
X56341219Y-72500367D02*
X56362344Y-72457154D01*
X56362344Y-72457154D02*
X56380149Y-72410508D01*
X56380149Y-72410508D02*
X56394698Y-72360266D01*
X56394698Y-72360266D02*
X56406056Y-72306267D01*
X56406056Y-72306267D02*
X56412378Y-72264303D01*
X56412378Y-72264303D02*
X56413911Y-72250390D01*
X56413911Y-72250390D02*
X56414975Y-72236869D01*
X56414975Y-72236869D02*
X56415473Y-72225280D01*
X56415473Y-72225280D02*
X56415311Y-72217165D01*
X56415311Y-72217165D02*
X56415308Y-72217129D01*
X56415308Y-72217129D02*
X56411187Y-72198927D01*
X56411187Y-72198927D02*
X56402570Y-72182079D01*
X56402570Y-72182079D02*
X56390010Y-72167380D01*
X56390010Y-72167380D02*
X56374057Y-72155623D01*
X56374057Y-72155623D02*
X56371550Y-72154238D01*
X56371550Y-72154238D02*
X56364517Y-72150869D01*
X56364517Y-72150869D02*
X56357909Y-72148838D01*
X56357909Y-72148838D02*
X56350026Y-72147822D01*
X56350026Y-72147822D02*
X56339171Y-72147501D01*
X56339171Y-72147501D02*
X56335990Y-72147491D01*
X56335990Y-72147491D02*
X56319414Y-72148388D01*
X56319414Y-72148388D02*
X56306049Y-72151498D01*
X56306049Y-72151498D02*
X56294286Y-72157436D01*
X56294286Y-72157436D02*
X56282512Y-72166817D01*
X56282512Y-72166817D02*
X56280525Y-72168674D01*
X56280525Y-72168674D02*
X56272257Y-72177622D01*
X56272257Y-72177622D02*
X56265979Y-72187306D01*
X56265979Y-72187306D02*
X56261281Y-72198769D01*
X56261281Y-72198769D02*
X56257750Y-72213052D01*
X56257750Y-72213052D02*
X56254977Y-72231199D01*
X56254977Y-72231199D02*
X56254580Y-72234502D01*
X56254580Y-72234502D02*
X56247626Y-72280557D01*
X56247626Y-72280557D02*
X56237903Y-72324057D01*
X56237903Y-72324057D02*
X56225563Y-72364540D01*
X56225563Y-72364540D02*
X56210755Y-72401544D01*
X56210755Y-72401544D02*
X56193631Y-72434609D01*
X56193631Y-72434609D02*
X56184385Y-72449313D01*
X56184385Y-72449313D02*
X56173441Y-72463626D01*
X56173441Y-72463626D02*
X56159444Y-72479004D01*
X56159444Y-72479004D02*
X56143805Y-72494085D01*
X56143805Y-72494085D02*
X56127935Y-72507508D01*
X56127935Y-72507508D02*
X56113435Y-72517794D01*
X56113435Y-72517794D02*
X56089048Y-72531062D01*
X56089048Y-72531062D02*
X56063331Y-72541156D01*
X56063331Y-72541156D02*
X56035442Y-72548302D01*
X56035442Y-72548302D02*
X56004537Y-72552729D01*
X56004537Y-72552729D02*
X55977485Y-72554451D01*
X55977485Y-72554451D02*
X55939200Y-72554173D01*
X55939200Y-72554173D02*
X55903898Y-72550449D01*
X55903898Y-72550449D02*
X55870678Y-72543106D01*
X55870678Y-72543106D02*
X55838637Y-72531971D01*
X55838637Y-72531971D02*
X55822293Y-72524696D01*
X55822293Y-72524696D02*
X55787122Y-72505277D01*
X55787122Y-72505277D02*
X55755700Y-72482486D01*
X55755700Y-72482486D02*
X55728124Y-72456483D01*
X55728124Y-72456483D02*
X55704492Y-72427430D01*
X55704492Y-72427430D02*
X55684902Y-72395486D01*
X55684902Y-72395486D02*
X55669452Y-72360813D01*
X55669452Y-72360813D02*
X55658240Y-72323571D01*
X55658240Y-72323571D02*
X55651364Y-72283921D01*
X55651364Y-72283921D02*
X55648922Y-72242024D01*
X55648922Y-72242024D02*
X55648917Y-72240226D01*
X55648917Y-72240226D02*
X55648783Y-72227629D01*
X55648783Y-72227629D02*
X55648202Y-72218557D01*
X55648202Y-72218557D02*
X55646907Y-72211461D01*
X55646907Y-72211461D02*
X55644632Y-72204789D01*
X55644632Y-72204789D02*
X55641657Y-72198147D01*
X55641657Y-72198147D02*
X55631361Y-72181663D01*
X55631361Y-72181663D02*
X55618284Y-72168878D01*
X55618284Y-72168878D02*
X55603120Y-72159788D01*
X55603120Y-72159788D02*
X55586565Y-72154385D01*
X55586565Y-72154385D02*
X55569313Y-72152666D01*
X55569313Y-72152666D02*
X55552058Y-72154623D01*
X55552058Y-72154623D02*
X55535496Y-72160253D01*
X55535496Y-72160253D02*
X55520321Y-72169549D01*
X55520321Y-72169549D02*
X55507227Y-72182505D01*
X55507227Y-72182505D02*
X55496910Y-72199117D01*
X55496910Y-72199117D02*
X55496824Y-72199300D01*
X55496824Y-72199300D02*
X55494384Y-72204741D01*
X55494384Y-72204741D02*
X55492630Y-72209684D01*
X55492630Y-72209684D02*
X55491450Y-72215093D01*
X55491450Y-72215093D02*
X55490736Y-72221931D01*
X55490736Y-72221931D02*
X55490377Y-72231162D01*
X55490377Y-72231162D02*
X55490263Y-72243749D01*
X55490263Y-72243749D02*
X52724019Y-72243749D01*
X52724019Y-72243749D02*
X52724067Y-72240470D01*
X52724067Y-72240470D02*
X52725700Y-72147734D01*
X52725700Y-72147734D02*
X52727565Y-72059243D01*
X52727565Y-72059243D02*
X52729676Y-71974788D01*
X52729676Y-71974788D02*
X52732050Y-71894163D01*
X52732050Y-71894163D02*
X52734701Y-71817158D01*
X52734701Y-71817158D02*
X52737644Y-71743566D01*
X52737644Y-71743566D02*
X52740894Y-71673179D01*
X52740894Y-71673179D02*
X52744467Y-71605788D01*
X52744467Y-71605788D02*
X52748377Y-71541186D01*
X52748377Y-71541186D02*
X52749637Y-71522854D01*
X52749637Y-71522854D02*
X54204501Y-71522854D01*
X54204501Y-71522854D02*
X54207636Y-71570589D01*
X54207636Y-71570589D02*
X54211329Y-71596270D01*
X54211329Y-71596270D02*
X54221774Y-71642619D01*
X54221774Y-71642619D02*
X54236747Y-71687047D01*
X54236747Y-71687047D02*
X54255983Y-71729305D01*
X54255983Y-71729305D02*
X54279214Y-71769147D01*
X54279214Y-71769147D02*
X54306172Y-71806326D01*
X54306172Y-71806326D02*
X54336591Y-71840593D01*
X54336591Y-71840593D02*
X54370203Y-71871703D01*
X54370203Y-71871703D02*
X54406742Y-71899408D01*
X54406742Y-71899408D02*
X54445941Y-71923461D01*
X54445941Y-71923461D02*
X54487532Y-71943615D01*
X54487532Y-71943615D02*
X54531248Y-71959622D01*
X54531248Y-71959622D02*
X54576823Y-71971236D01*
X54576823Y-71971236D02*
X54623990Y-71978209D01*
X54623990Y-71978209D02*
X54624030Y-71978213D01*
X54624030Y-71978213D02*
X54645985Y-71979952D01*
X54645985Y-71979952D02*
X54665500Y-71980600D01*
X54665500Y-71980600D02*
X54684969Y-71980166D01*
X54684969Y-71980166D02*
X54706788Y-71978654D01*
X54706788Y-71978654D02*
X54708995Y-71978462D01*
X54708995Y-71978462D02*
X54751133Y-71973015D01*
X54751133Y-71973015D02*
X54790935Y-71964164D01*
X54790935Y-71964164D02*
X54829757Y-71951522D01*
X54829757Y-71951522D02*
X54868955Y-71934701D01*
X54868955Y-71934701D02*
X54878030Y-71930270D01*
X54878030Y-71930270D02*
X54902679Y-71917265D01*
X54902679Y-71917265D02*
X54924618Y-71904000D01*
X54924618Y-71904000D02*
X54945062Y-71889586D01*
X54945062Y-71889586D02*
X54965228Y-71873131D01*
X54965228Y-71873131D02*
X54986331Y-71853744D01*
X54986331Y-71853744D02*
X54997553Y-71842734D01*
X54997553Y-71842734D02*
X55013276Y-71826682D01*
X55013276Y-71826682D02*
X55026072Y-71812723D01*
X55026072Y-71812723D02*
X55036919Y-71799702D01*
X55036919Y-71799702D02*
X55046794Y-71786465D01*
X55046794Y-71786465D02*
X55053548Y-71776610D01*
X55053548Y-71776610D02*
X55078190Y-71735983D01*
X55078190Y-71735983D02*
X55097984Y-71695194D01*
X55097984Y-71695194D02*
X55113141Y-71653595D01*
X55113141Y-71653595D02*
X55123870Y-71610539D01*
X55123870Y-71610539D02*
X55130380Y-71565378D01*
X55130380Y-71565378D02*
X55132518Y-71532770D01*
X55132518Y-71532770D02*
X55132073Y-71495940D01*
X55132073Y-71495940D02*
X56623010Y-71495940D01*
X56623010Y-71495940D02*
X56623065Y-71516037D01*
X56623065Y-71516037D02*
X56623276Y-71532034D01*
X56623276Y-71532034D02*
X56623706Y-71544908D01*
X56623706Y-71544908D02*
X56624420Y-71555639D01*
X56624420Y-71555639D02*
X56625483Y-71565205D01*
X56625483Y-71565205D02*
X56626958Y-71574585D01*
X56626958Y-71574585D02*
X56628842Y-71584417D01*
X56628842Y-71584417D02*
X56640753Y-71631052D01*
X56640753Y-71631052D02*
X56657144Y-71676003D01*
X56657144Y-71676003D02*
X56677774Y-71718854D01*
X56677774Y-71718854D02*
X56702401Y-71759190D01*
X56702401Y-71759190D02*
X56730783Y-71796595D01*
X56730783Y-71796595D02*
X56762680Y-71830655D01*
X56762680Y-71830655D02*
X56782274Y-71848356D01*
X56782274Y-71848356D02*
X56821138Y-71878111D01*
X56821138Y-71878111D02*
X56862275Y-71903427D01*
X56862275Y-71903427D02*
X56905388Y-71924211D01*
X56905388Y-71924211D02*
X56950182Y-71940369D01*
X56950182Y-71940369D02*
X56996361Y-71951807D01*
X56996361Y-71951807D02*
X57043629Y-71958431D01*
X57043629Y-71958431D02*
X57091689Y-71960147D01*
X57091689Y-71960147D02*
X57128470Y-71958121D01*
X57128470Y-71958121D02*
X57176371Y-71951252D01*
X57176371Y-71951252D02*
X57222206Y-71939827D01*
X57222206Y-71939827D02*
X57266361Y-71923739D01*
X57266361Y-71923739D02*
X57288490Y-71913638D01*
X57288490Y-71913638D02*
X57331185Y-71890031D01*
X57331185Y-71890031D02*
X57370673Y-71862579D01*
X57370673Y-71862579D02*
X57406774Y-71831516D01*
X57406774Y-71831516D02*
X57439307Y-71797076D01*
X57439307Y-71797076D02*
X57468091Y-71759496D01*
X57468091Y-71759496D02*
X57492946Y-71719009D01*
X57492946Y-71719009D02*
X57513691Y-71675851D01*
X57513691Y-71675851D02*
X57530146Y-71630255D01*
X57530146Y-71630255D02*
X57541737Y-71584417D01*
X57541737Y-71584417D02*
X57543671Y-71574309D01*
X57543671Y-71574309D02*
X57545129Y-71564981D01*
X57545129Y-71564981D02*
X57546175Y-71555455D01*
X57546175Y-71555455D02*
X57546874Y-71544755D01*
X57546874Y-71544755D02*
X57547288Y-71531903D01*
X57547288Y-71531903D02*
X57547482Y-71515921D01*
X57547482Y-71515921D02*
X57547520Y-71495940D01*
X57547520Y-71495940D02*
X57547401Y-71473987D01*
X57547401Y-71473987D02*
X57547053Y-71456240D01*
X57547053Y-71456240D02*
X57546429Y-71441826D01*
X57546429Y-71441826D02*
X57545481Y-71429874D01*
X57545481Y-71429874D02*
X57544163Y-71419512D01*
X57544163Y-71419512D02*
X57543003Y-71412791D01*
X57543003Y-71412791D02*
X57531342Y-71364628D01*
X57531342Y-71364628D02*
X57515156Y-71318667D01*
X57515156Y-71318667D02*
X57494522Y-71275062D01*
X57494522Y-71275062D02*
X57469519Y-71233967D01*
X57469519Y-71233967D02*
X57440225Y-71195536D01*
X57440225Y-71195536D02*
X57422291Y-71175566D01*
X57422291Y-71175566D02*
X57386864Y-71141889D01*
X57386864Y-71141889D02*
X57348722Y-71112482D01*
X57348722Y-71112482D02*
X57308024Y-71087425D01*
X57308024Y-71087425D02*
X57264929Y-71066800D01*
X57264929Y-71066800D02*
X57219595Y-71050685D01*
X57219595Y-71050685D02*
X57172180Y-71039163D01*
X57172180Y-71039163D02*
X57144980Y-71034773D01*
X57144980Y-71034773D02*
X57097617Y-71030942D01*
X57097617Y-71030942D02*
X57050808Y-71031994D01*
X57050808Y-71031994D02*
X57004855Y-71037737D01*
X57004855Y-71037737D02*
X56960058Y-71047981D01*
X56960058Y-71047981D02*
X56916719Y-71062533D01*
X56916719Y-71062533D02*
X56875138Y-71081203D01*
X56875138Y-71081203D02*
X56835616Y-71103800D01*
X56835616Y-71103800D02*
X56798454Y-71130133D01*
X56798454Y-71130133D02*
X56763953Y-71160010D01*
X56763953Y-71160010D02*
X56732415Y-71193240D01*
X56732415Y-71193240D02*
X56704140Y-71229632D01*
X56704140Y-71229632D02*
X56679430Y-71268994D01*
X56679430Y-71268994D02*
X56658585Y-71311137D01*
X56658585Y-71311137D02*
X56642540Y-71353873D01*
X56642540Y-71353873D02*
X56636345Y-71374279D01*
X56636345Y-71374279D02*
X56631553Y-71392880D01*
X56631553Y-71392880D02*
X56628003Y-71410846D01*
X56628003Y-71410846D02*
X56625535Y-71429346D01*
X56625535Y-71429346D02*
X56623988Y-71449550D01*
X56623988Y-71449550D02*
X56623201Y-71472627D01*
X56623201Y-71472627D02*
X56623010Y-71495940D01*
X56623010Y-71495940D02*
X55132073Y-71495940D01*
X55132073Y-71495940D02*
X55131920Y-71483300D01*
X55131920Y-71483300D02*
X55126476Y-71435337D01*
X55126476Y-71435337D02*
X55116192Y-71388906D01*
X55116192Y-71388906D02*
X55101076Y-71344028D01*
X55101076Y-71344028D02*
X55081133Y-71300728D01*
X55081133Y-71300728D02*
X55056370Y-71259027D01*
X55056370Y-71259027D02*
X55056038Y-71258528D01*
X55056038Y-71258528D02*
X55026891Y-71219231D01*
X55026891Y-71219231D02*
X54994375Y-71183696D01*
X54994375Y-71183696D02*
X54958647Y-71152029D01*
X54958647Y-71152029D02*
X54919864Y-71124335D01*
X54919864Y-71124335D02*
X54878182Y-71100719D01*
X54878182Y-71100719D02*
X54833760Y-71081287D01*
X54833760Y-71081287D02*
X54786753Y-71066145D01*
X54786753Y-71066145D02*
X54759974Y-71059709D01*
X54759974Y-71059709D02*
X54748980Y-71057455D01*
X54748980Y-71057455D02*
X54739374Y-71055761D01*
X54739374Y-71055761D02*
X54730116Y-71054546D01*
X54730116Y-71054546D02*
X54720169Y-71053731D01*
X54720169Y-71053731D02*
X54708494Y-71053235D01*
X54708494Y-71053235D02*
X54694053Y-71052980D01*
X54694053Y-71052980D02*
X54675806Y-71052885D01*
X54675806Y-71052885D02*
X54671020Y-71052878D01*
X54671020Y-71052878D02*
X54645884Y-71053057D01*
X54645884Y-71053057D02*
X54624625Y-71053765D01*
X54624625Y-71053765D02*
X54606051Y-71055155D01*
X54606051Y-71055155D02*
X54588972Y-71057385D01*
X54588972Y-71057385D02*
X54572197Y-71060610D01*
X54572197Y-71060610D02*
X54554536Y-71064987D01*
X54554536Y-71064987D02*
X54534798Y-71070671D01*
X54534798Y-71070671D02*
X54534459Y-71070774D01*
X54534459Y-71070774D02*
X54489213Y-71086996D01*
X54489213Y-71086996D02*
X54446631Y-71107361D01*
X54446631Y-71107361D02*
X54406891Y-71131581D01*
X54406891Y-71131581D02*
X54370169Y-71159371D01*
X54370169Y-71159371D02*
X54336640Y-71190444D01*
X54336640Y-71190444D02*
X54306480Y-71224513D01*
X54306480Y-71224513D02*
X54279867Y-71261293D01*
X54279867Y-71261293D02*
X54256974Y-71300497D01*
X54256974Y-71300497D02*
X54237980Y-71341838D01*
X54237980Y-71341838D02*
X54223059Y-71385031D01*
X54223059Y-71385031D02*
X54212389Y-71429789D01*
X54212389Y-71429789D02*
X54206144Y-71475825D01*
X54206144Y-71475825D02*
X54204501Y-71522854D01*
X54204501Y-71522854D02*
X52749637Y-71522854D01*
X52749637Y-71522854D02*
X52752640Y-71479165D01*
X52752640Y-71479165D02*
X52757272Y-71419516D01*
X52757272Y-71419516D02*
X52762286Y-71362032D01*
X52762286Y-71362032D02*
X52767698Y-71306505D01*
X52767698Y-71306505D02*
X52773524Y-71252725D01*
X52773524Y-71252725D02*
X52779778Y-71200487D01*
X52779778Y-71200487D02*
X52786476Y-71149580D01*
X52786476Y-71149580D02*
X52793633Y-71099798D01*
X52793633Y-71099798D02*
X52801264Y-71050932D01*
X52801264Y-71050932D02*
X52809384Y-71002775D01*
X52809384Y-71002775D02*
X52818008Y-70955117D01*
X52818008Y-70955117D02*
X52827151Y-70907752D01*
X52827151Y-70907752D02*
X52836829Y-70860471D01*
X52836829Y-70860471D02*
X52846301Y-70816490D01*
X52846301Y-70816490D02*
X52878636Y-70680186D01*
X52878636Y-70680186D02*
X52915008Y-70546451D01*
X52915008Y-70546451D02*
X52955374Y-70415380D01*
X52955374Y-70415380D02*
X52999693Y-70287068D01*
X52999693Y-70287068D02*
X53047921Y-70161611D01*
X53047921Y-70161611D02*
X53100016Y-70039104D01*
X53100016Y-70039104D02*
X53155936Y-69919643D01*
X53155936Y-69919643D02*
X53215638Y-69803323D01*
X53215638Y-69803323D02*
X53279080Y-69690238D01*
X53279080Y-69690238D02*
X53346220Y-69580486D01*
X53346220Y-69580486D02*
X53417014Y-69474161D01*
X53417014Y-69474161D02*
X53485787Y-69378850D01*
X53485787Y-69378850D02*
X53560303Y-69283462D01*
X53560303Y-69283462D02*
X53638122Y-69191628D01*
X53638122Y-69191628D02*
X53719105Y-69103474D01*
X53719105Y-69103474D02*
X53803114Y-69019126D01*
X53803114Y-69019126D02*
X53890012Y-68938710D01*
X53890012Y-68938710D02*
X53979661Y-68862353D01*
X53979661Y-68862353D02*
X54071922Y-68790181D01*
X54071922Y-68790181D02*
X54166658Y-68722321D01*
X54166658Y-68722321D02*
X54263730Y-68658898D01*
X54263730Y-68658898D02*
X54288750Y-68643507D01*
X54288750Y-68643507D02*
X54390294Y-68584772D01*
X54390294Y-68584772D02*
X54494521Y-68530304D01*
X54494521Y-68530304D02*
X54601283Y-68480148D01*
X54601283Y-68480148D02*
X54710433Y-68434352D01*
X54710433Y-68434352D02*
X54821826Y-68392962D01*
X54821826Y-68392962D02*
X54935314Y-68356024D01*
X54935314Y-68356024D02*
X55050751Y-68323585D01*
X55050751Y-68323585D02*
X55167990Y-68295691D01*
X55167990Y-68295691D02*
X55286884Y-68272390D01*
X55286884Y-68272390D02*
X55407287Y-68253727D01*
X55407287Y-68253727D02*
X55529052Y-68239749D01*
X55529052Y-68239749D02*
X55572720Y-68235911D01*
X55572720Y-68235911D02*
X55650682Y-68230735D01*
X55650682Y-68230735D02*
X55731432Y-68227512D01*
X55731432Y-68227512D02*
X55813560Y-68226243D01*
X55813560Y-68226243D02*
X55895656Y-68226928D01*
X55895656Y-68226928D02*
X55895656Y-68226928D01*
G36*
X52725700Y-72147734D02*
G01*
X52727565Y-72059243D01*
X52729676Y-71974788D01*
X52732050Y-71894163D01*
X52734701Y-71817158D01*
X52737644Y-71743566D01*
X52740894Y-71673179D01*
X52744467Y-71605788D01*
X52748377Y-71541186D01*
X52749637Y-71522854D01*
X54204501Y-71522854D01*
X54207636Y-71570589D01*
X54211329Y-71596270D01*
X54221774Y-71642619D01*
X54236747Y-71687047D01*
X54255983Y-71729305D01*
X54279214Y-71769147D01*
X54306172Y-71806326D01*
X54336591Y-71840593D01*
X54370203Y-71871703D01*
X54406742Y-71899408D01*
X54445941Y-71923461D01*
X54487532Y-71943615D01*
X54531248Y-71959622D01*
X54576823Y-71971236D01*
X54623990Y-71978209D01*
X54624030Y-71978213D01*
X54645985Y-71979952D01*
X54665500Y-71980600D01*
X54684969Y-71980166D01*
X54706788Y-71978654D01*
X54708995Y-71978462D01*
X54751133Y-71973015D01*
X54790935Y-71964164D01*
X54829757Y-71951522D01*
X54868955Y-71934701D01*
X54878030Y-71930270D01*
X54902679Y-71917265D01*
X54924618Y-71904000D01*
X54945062Y-71889586D01*
X54965228Y-71873131D01*
X54986331Y-71853744D01*
X54997553Y-71842734D01*
X55013276Y-71826682D01*
X55026072Y-71812723D01*
X55036919Y-71799702D01*
X55046794Y-71786465D01*
X55053548Y-71776610D01*
X55078190Y-71735983D01*
X55097984Y-71695194D01*
X55113141Y-71653595D01*
X55123870Y-71610539D01*
X55130380Y-71565378D01*
X55132518Y-71532770D01*
X55132073Y-71495940D01*
X56623010Y-71495940D01*
X56623065Y-71516037D01*
X56623276Y-71532034D01*
X56623706Y-71544908D01*
X56624420Y-71555639D01*
X56625483Y-71565205D01*
X56626958Y-71574585D01*
X56628842Y-71584417D01*
X56640753Y-71631052D01*
X56657144Y-71676003D01*
X56677774Y-71718854D01*
X56702401Y-71759190D01*
X56730783Y-71796595D01*
X56762680Y-71830655D01*
X56782274Y-71848356D01*
X56821138Y-71878111D01*
X56862275Y-71903427D01*
X56905388Y-71924211D01*
X56950182Y-71940369D01*
X56996361Y-71951807D01*
X57043629Y-71958431D01*
X57091689Y-71960147D01*
X57128470Y-71958121D01*
X57176371Y-71951252D01*
X57222206Y-71939827D01*
X57266361Y-71923739D01*
X57288490Y-71913638D01*
X57331185Y-71890031D01*
X57370673Y-71862579D01*
X57406774Y-71831516D01*
X57439307Y-71797076D01*
X57468091Y-71759496D01*
X57492946Y-71719009D01*
X57513691Y-71675851D01*
X57530146Y-71630255D01*
X57541737Y-71584417D01*
X57543671Y-71574309D01*
X57545129Y-71564981D01*
X57546175Y-71555455D01*
X57546874Y-71544755D01*
X57547288Y-71531903D01*
X57547482Y-71515921D01*
X57547520Y-71495940D01*
X57547401Y-71473987D01*
X57547053Y-71456240D01*
X57546429Y-71441826D01*
X57545481Y-71429874D01*
X57544163Y-71419512D01*
X57543003Y-71412791D01*
X57531342Y-71364628D01*
X57515156Y-71318667D01*
X57494522Y-71275062D01*
X57469519Y-71233967D01*
X57440225Y-71195536D01*
X57422291Y-71175566D01*
X57386864Y-71141889D01*
X57348722Y-71112482D01*
X57308024Y-71087425D01*
X57264929Y-71066800D01*
X57219595Y-71050685D01*
X57172180Y-71039163D01*
X57144980Y-71034773D01*
X57097617Y-71030942D01*
X57050808Y-71031994D01*
X57004855Y-71037737D01*
X56960058Y-71047981D01*
X56916719Y-71062533D01*
X56875138Y-71081203D01*
X56835616Y-71103800D01*
X56798454Y-71130133D01*
X56763953Y-71160010D01*
X56732415Y-71193240D01*
X56704140Y-71229632D01*
X56679430Y-71268994D01*
X56658585Y-71311137D01*
X56642540Y-71353873D01*
X56636345Y-71374279D01*
X56631553Y-71392880D01*
X56628003Y-71410846D01*
X56625535Y-71429346D01*
X56623988Y-71449550D01*
X56623201Y-71472627D01*
X56623010Y-71495940D01*
X55132073Y-71495940D01*
X55131920Y-71483300D01*
X55126476Y-71435337D01*
X55116192Y-71388906D01*
X55101076Y-71344028D01*
X55081133Y-71300728D01*
X55056370Y-71259027D01*
X55056038Y-71258528D01*
X55026891Y-71219231D01*
X54994375Y-71183696D01*
X54958647Y-71152029D01*
X54919864Y-71124335D01*
X54878182Y-71100719D01*
X54833760Y-71081287D01*
X54786753Y-71066145D01*
X54759974Y-71059709D01*
X54748980Y-71057455D01*
X54739374Y-71055761D01*
X54730116Y-71054546D01*
X54720169Y-71053731D01*
X54708494Y-71053235D01*
X54694053Y-71052980D01*
X54675806Y-71052885D01*
X54671020Y-71052878D01*
X54645884Y-71053057D01*
X54624625Y-71053765D01*
X54606051Y-71055155D01*
X54588972Y-71057385D01*
X54572197Y-71060610D01*
X54554536Y-71064987D01*
X54534798Y-71070671D01*
X54534459Y-71070774D01*
X54489213Y-71086996D01*
X54446631Y-71107361D01*
X54406891Y-71131581D01*
X54370169Y-71159371D01*
X54336640Y-71190444D01*
X54306480Y-71224513D01*
X54279867Y-71261293D01*
X54256974Y-71300497D01*
X54237980Y-71341838D01*
X54223059Y-71385031D01*
X54212389Y-71429789D01*
X54206144Y-71475825D01*
X54204501Y-71522854D01*
X52749637Y-71522854D01*
X52752640Y-71479165D01*
X52757272Y-71419516D01*
X52762286Y-71362032D01*
X52767698Y-71306505D01*
X52773524Y-71252725D01*
X52779778Y-71200487D01*
X52786476Y-71149580D01*
X52793633Y-71099798D01*
X52801264Y-71050932D01*
X52809384Y-71002775D01*
X52818008Y-70955117D01*
X52827151Y-70907752D01*
X52836829Y-70860471D01*
X52846301Y-70816490D01*
X52878636Y-70680186D01*
X52915008Y-70546451D01*
X52955374Y-70415380D01*
X52999693Y-70287068D01*
X53047921Y-70161611D01*
X53100016Y-70039104D01*
X53155936Y-69919643D01*
X53215638Y-69803323D01*
X53279080Y-69690238D01*
X53346220Y-69580486D01*
X53417014Y-69474161D01*
X53485787Y-69378850D01*
X53560303Y-69283462D01*
X53638122Y-69191628D01*
X53719105Y-69103474D01*
X53803114Y-69019126D01*
X53890012Y-68938710D01*
X53979661Y-68862353D01*
X54071922Y-68790181D01*
X54166658Y-68722321D01*
X54263730Y-68658898D01*
X54288750Y-68643507D01*
X54390294Y-68584772D01*
X54494521Y-68530304D01*
X54601283Y-68480148D01*
X54710433Y-68434352D01*
X54821826Y-68392962D01*
X54935314Y-68356024D01*
X55050751Y-68323585D01*
X55167990Y-68295691D01*
X55286884Y-68272390D01*
X55407287Y-68253727D01*
X55529052Y-68239749D01*
X55572720Y-68235911D01*
X55650682Y-68230735D01*
X55731432Y-68227512D01*
X55813560Y-68226243D01*
X55895656Y-68226928D01*
X55976310Y-68229567D01*
X56054111Y-68234159D01*
X56076910Y-68235936D01*
X56195383Y-68248031D01*
X56312710Y-68264609D01*
X56428626Y-68285602D01*
X56542863Y-68310942D01*
X56655155Y-68340560D01*
X56765235Y-68374389D01*
X56872838Y-68412360D01*
X56977697Y-68454404D01*
X57042110Y-68482899D01*
X57134279Y-68527989D01*
X57224135Y-68577589D01*
X57311683Y-68631704D01*
X57396927Y-68690338D01*
X57479874Y-68753494D01*
X57560527Y-68821176D01*
X57638893Y-68893390D01*
X57714977Y-68970138D01*
X57788783Y-69051425D01*
X57824273Y-69093100D01*
X57883264Y-69166419D01*
X57940935Y-69243356D01*
X57997354Y-69324035D01*
X58052589Y-69408580D01*
X58106708Y-69497117D01*
X58159778Y-69589768D01*
X58211868Y-69686660D01*
X58263045Y-69787916D01*
X58313378Y-69893661D01*
X58362934Y-70004019D01*
X58411781Y-70119114D01*
X58459987Y-70239071D01*
X58484969Y-70303795D01*
X58509278Y-70368373D01*
X58533689Y-70434655D01*
X58558008Y-70502058D01*
X58582036Y-70569997D01*
X58605577Y-70637886D01*
X58628434Y-70705142D01*
X58650410Y-70771179D01*
X58671308Y-70835414D01*
X58690932Y-70897261D01*
X58709083Y-70956136D01*
X58725567Y-71011455D01*
X58738477Y-71056520D01*
X58779454Y-71209685D01*
X58817704Y-71367078D01*
X58853218Y-71528633D01*
X58885987Y-71694285D01*
X58916000Y-71863969D01*
X58943249Y-72037621D01*
X58967725Y-72215174D01*
X58989418Y-72396566D01*
X59008318Y-72581729D01*
X59024417Y-72770600D01*
X59037704Y-72963114D01*
X59048172Y-73159205D01*
X59051201Y-73229490D01*
X59052727Y-73267756D01*
X59054084Y-73303048D01*
X59055285Y-73335962D01*
X59056341Y-73367097D01*
X59057265Y-73397049D01*
X59058069Y-73426415D01*
X59058768Y-73455792D01*
X59059372Y-73485778D01*
X59059894Y-73516968D01*
X59060348Y-73549961D01*
X59060745Y-73585353D01*
X59061099Y-73623742D01*
X59061421Y-73665724D01*
X59061724Y-73711897D01*
X59061870Y-73736220D01*
X59062214Y-73812792D01*
X59062313Y-73885120D01*
X59062155Y-73954035D01*
X59061724Y-74020367D01*
X59061008Y-74084947D01*
X59059990Y-74148606D01*
X59058659Y-74212174D01*
X59056998Y-74276482D01*
X59054994Y-74342361D01*
X59052634Y-74410642D01*
X59049902Y-74482155D01*
X59048636Y-74513460D01*
X59038775Y-74721776D01*
X59026186Y-74933327D01*
X59010954Y-75147116D01*
X58993164Y-75362147D01*
X58972902Y-75577423D01*
X58950252Y-75791949D01*
X58925299Y-76004729D01*
X58912748Y-76104251D01*
X58909545Y-76129502D01*
X58906264Y-76156146D01*
X58903036Y-76183059D01*
X58899993Y-76209118D01*
X58897266Y-76233202D01*
X58894987Y-76254186D01*
X58893691Y-76266811D01*
X58888507Y-76316274D01*
X58882390Y-76369689D01*
X58875476Y-76426044D01*
X58867901Y-76484326D01*
X58859800Y-76543519D01*
X58851309Y-76602612D01*
X58842564Y-76660591D01*
X58833700Y-76716442D01*
X58832584Y-76723260D01*
X58804919Y-76882405D01*
X58774574Y-77039325D01*
X58741614Y-77193786D01*
X58706105Y-77345559D01*
X58668112Y-77494412D01*
X58627703Y-77640112D01*
X58584941Y-77782430D01*
X58539894Y-77921133D01*
X58492626Y-78055991D01*
X58443204Y-78186771D01*
X58391692Y-78313242D01*
X58360373Y-78385690D01*
X58347443Y-78414769D01*
X58336269Y-78439495D01*
X58326676Y-78460212D01*
X58318487Y-78477263D01*
X58311526Y-78490994D01*
X58305618Y-78501749D01*
X58300587Y-78509872D01*
X58296257Y-78515708D01*
X58292452Y-78519601D01*
X58291664Y-78520233D01*
X58276622Y-78528872D01*
X58260052Y-78533519D01*
X58243182Y-78534010D01*
X58227239Y-78530176D01*
X58225107Y-78529264D01*
X58218534Y-78525513D01*
X58209558Y-78519370D01*
X58199568Y-78511821D01*
X58193357Y-78506766D01*
X58153211Y-78474512D01*
X58108872Y-78441557D01*
X58061087Y-78408365D01*
X58010607Y-78375401D01*
X57958183Y-78343129D01*
X57904563Y-78312013D01*
X57850497Y-78282518D01*
X57796736Y-78255107D01*
X57754420Y-78234978D01*
X57668788Y-78197965D01*
X57583595Y-78165820D01*
X57498903Y-78138551D01*
X57414776Y-78116163D01*
X57331274Y-78098663D01*
X57248462Y-78086059D01*
X57166401Y-78078356D01*
X57085153Y-78075560D01*
X57004781Y-78077679D01*
X56925348Y-78084720D01*
X56846915Y-78096687D01*
X56769546Y-78113589D01*
X56722009Y-78126587D01*
X56700163Y-78133171D01*
X56679725Y-78139665D01*
X56659984Y-78146349D01*
X56640227Y-78153498D01*
X56619740Y-78161392D01*
X56597813Y-78170306D01*
X56573731Y-78180520D01*
X56546783Y-78192311D01*
X56516256Y-78205955D01*
X56503630Y-78211657D01*
X56446724Y-78237189D01*
X56393615Y-78260549D01*
X56343649Y-78282010D01*
X56296170Y-78301847D01*
X56250524Y-78320334D01*
X56206057Y-78337747D01*
X56173476Y-78350120D01*
X56077953Y-78384181D01*
X55984838Y-78413841D01*
X55894019Y-78439114D01*
X55805386Y-78460009D01*
X55718828Y-78476539D01*
X55634235Y-78488716D01*
X55551495Y-78496552D01*
X55470497Y-78500058D01*
X55391133Y-78499246D01*
X55313289Y-78494127D01*
X55236857Y-78484714D01*
X55161724Y-78471019D01*
X55121636Y-78461842D01*
X55062843Y-78445964D01*
X55005613Y-78427495D01*
X54949437Y-78406187D01*
X54893804Y-78381789D01*
X54838206Y-78354052D01*
X54782131Y-78322728D01*
X54725069Y-78287565D01*
X54666512Y-78248316D01*
X54626020Y-78219486D01*
X54615777Y-78211925D01*
X54602227Y-78201758D01*
X54586064Y-78189514D01*
X54567978Y-78175722D01*
X54548663Y-78160909D01*
X54528811Y-78145604D01*
X54509113Y-78130334D01*
X54506640Y-78128410D01*
X54485587Y-78112076D01*
X54463066Y-78094689D01*
X54440006Y-78076960D01*
X54417342Y-78059606D01*
X54396003Y-78043338D01*
X54376923Y-78028871D01*
X54362924Y-78018334D01*
X54302609Y-77974398D01*
X54244592Y-77934715D01*
X54188602Y-77899154D01*
X54134370Y-77867587D01*
X54081627Y-77839881D01*
X54030102Y-77815906D01*
X53979527Y-77795532D01*
X53929632Y-77778628D01*
X53880148Y-77765064D01*
X53830805Y-77754709D01*
X53812509Y-77751661D01*
X53794928Y-77749470D01*
X53773453Y-77747640D01*
X53749257Y-77746204D01*
X53723515Y-77745192D01*
X53697403Y-77744634D01*
X53672093Y-77744561D01*
X53648762Y-77745004D01*
X53628583Y-77745992D01*
X53620460Y-77746660D01*
X53596962Y-77749137D01*
X53573751Y-77752038D01*
X53550349Y-77755465D01*
X53526281Y-77759522D01*
X53501071Y-77764313D01*
X53474241Y-77769940D01*
X53445315Y-77776506D01*
X53413818Y-77784116D01*
X53379273Y-77792871D01*
X53341203Y-77802876D01*
X53299132Y-77814234D01*
X53263860Y-77823924D01*
X53210604Y-77838452D01*
X53161613Y-77851381D01*
X53116364Y-77862809D01*
X53074334Y-77872834D01*
X53034999Y-77881554D01*
X52997835Y-77889067D01*
X52962321Y-77895471D01*
X52927932Y-77900863D01*
X52894145Y-77905341D01*
X52860437Y-77909004D01*
X52826285Y-77911948D01*
X52791165Y-77914273D01*
X52776611Y-77915057D01*
X52720904Y-77916537D01*
X52662097Y-77915601D01*
X52601501Y-77912351D01*
X52540429Y-77906889D01*
X52480194Y-77899316D01*
X52422107Y-77889733D01*
X52404070Y-77886235D01*
X52332667Y-77869871D01*
X52264113Y-77850050D01*
X52197989Y-77826564D01*
X52133878Y-77799208D01*
X52071361Y-77767774D01*
X52010020Y-77732056D01*
X51949438Y-77691848D01*
X51889195Y-77646943D01*
X51842351Y-77608674D01*
X51832949Y-77600409D01*
X51820637Y-77589132D01*
X51806059Y-77575457D01*
X51789859Y-77559999D01*
X51772683Y-77543372D01*
X51755174Y-77526193D01*
X51738538Y-77509638D01*
X51706229Y-77476842D01*
X51676350Y-77445619D01*
X51647932Y-77414894D01*
X51620009Y-77383595D01*
X51591612Y-77350649D01*
X51561775Y-77314983D01*
X51548858Y-77299272D01*
X51533297Y-77280115D01*
X51516552Y-77259235D01*
X51498904Y-77237000D01*
X51480632Y-77213778D01*
X51462014Y-77189936D01*
X51443332Y-77165841D01*
X51424864Y-77141861D01*
X51406889Y-77118363D01*
X51389688Y-77095714D01*
X51373539Y-77074282D01*
X51358723Y-77054433D01*
X51345518Y-77036537D01*
X51334204Y-77020959D01*
X51325061Y-77008066D01*
X51318368Y-76998228D01*
X51314405Y-76991810D01*
X51313511Y-76989934D01*
X51311295Y-76979189D01*
X51310748Y-76966016D01*
X51311878Y-76952789D01*
X51313332Y-76945931D01*
X51314433Y-76942824D01*
X51316266Y-76939263D01*
X51319105Y-76934936D01*
X51323229Y-76929534D01*
X51328914Y-76922743D01*
X51336437Y-76914255D01*
X51346075Y-76903757D01*
X51358104Y-76890939D01*
X51372802Y-76875489D01*
X51390446Y-76857097D01*
X51411311Y-76835452D01*
X51416010Y-76830587D01*
X51465403Y-76779094D01*
X51514283Y-76727434D01*
X51562407Y-76675882D01*
X51609534Y-76624714D01*
X51655423Y-76574207D01*
X51699834Y-76524635D01*
X51742524Y-76476275D01*
X51783252Y-76429403D01*
X51821778Y-76384294D01*
X51857860Y-76341225D01*
X51891256Y-76300470D01*
X51921726Y-76262307D01*
X51949029Y-76227011D01*
X51972922Y-76194857D01*
X51977626Y-76188333D01*
X52043932Y-76092130D01*
X52106794Y-75993365D01*
X52166252Y-75891923D01*
X52222349Y-75787691D01*
X52275124Y-75680554D01*
X52324619Y-75570399D01*
X52370875Y-75457113D01*
X52413934Y-75340580D01*
X52453836Y-75220687D01*
X52490624Y-75097321D01*
X52524337Y-74970367D01*
X52555018Y-74839712D01*
X52582707Y-74705241D01*
X52607445Y-74566841D01*
X52629275Y-74424397D01*
X52637551Y-74363600D01*
X52650068Y-74262272D01*
X52661439Y-74157713D01*
X52671682Y-74049681D01*
X52680815Y-73937934D01*
X52688856Y-73822230D01*
X52695823Y-73702327D01*
X52701734Y-73577983D01*
X52706607Y-73448957D01*
X52707539Y-73419990D01*
X52708395Y-73391896D01*
X52709204Y-73363904D01*
X52709970Y-73335744D01*
X52710696Y-73307150D01*
X52711387Y-73277854D01*
X52712046Y-73247587D01*
X52712678Y-73216082D01*
X52713286Y-73183071D01*
X52713875Y-73148286D01*
X52714448Y-73111459D01*
X52715009Y-73072323D01*
X52715563Y-73030609D01*
X52716112Y-72986049D01*
X52716662Y-72938376D01*
X52717216Y-72887322D01*
X52717778Y-72832619D01*
X52718351Y-72773999D01*
X52718941Y-72711194D01*
X52719550Y-72643936D01*
X52720183Y-72571958D01*
X52720406Y-72546230D01*
X52721435Y-72439510D01*
X52722650Y-72337660D01*
X52724019Y-72243749D01*
X55490263Y-72243749D01*
X55490274Y-72256670D01*
X55492772Y-72305904D01*
X55500000Y-72353350D01*
X55511925Y-72398921D01*
X55528510Y-72442528D01*
X55549719Y-72484085D01*
X55575519Y-72523504D01*
X55605873Y-72560697D01*
X55618183Y-72573806D01*
X55653949Y-72606943D01*
X55692565Y-72635932D01*
X55733776Y-72660645D01*
X55777321Y-72680951D01*
X55822945Y-72696721D01*
X55870388Y-72707825D01*
X55891271Y-72711131D01*
X55906122Y-72712658D01*
X55924492Y-72713787D01*
X55945042Y-72714507D01*
X55966433Y-72714803D01*
X55987324Y-72714663D01*
X56006377Y-72714074D01*
X56022252Y-72713023D01*
X56027446Y-72712465D01*
X56073350Y-72704469D01*
X56117016Y-72692230D01*
X56158195Y-72675877D01*
X56196639Y-72655540D01*
X56232099Y-72631347D01*
X56264324Y-72603426D01*
X56288751Y-72577143D01*
X56316709Y-72540309D01*
X56341219Y-72500367D01*
X56362344Y-72457154D01*
X56380149Y-72410508D01*
X56394698Y-72360266D01*
X56406056Y-72306267D01*
X56412378Y-72264303D01*
X56413911Y-72250390D01*
X56414975Y-72236869D01*
X56415473Y-72225280D01*
X56415311Y-72217165D01*
X56415308Y-72217129D01*
X56411187Y-72198927D01*
X56402570Y-72182079D01*
X56390010Y-72167380D01*
X56374057Y-72155623D01*
X56371550Y-72154238D01*
X56364517Y-72150869D01*
X56357909Y-72148838D01*
X56350026Y-72147822D01*
X56339171Y-72147501D01*
X56335990Y-72147491D01*
X56319414Y-72148388D01*
X56306049Y-72151498D01*
X56294286Y-72157436D01*
X56282512Y-72166817D01*
X56280525Y-72168674D01*
X56272257Y-72177622D01*
X56265979Y-72187306D01*
X56261281Y-72198769D01*
X56257750Y-72213052D01*
X56254977Y-72231199D01*
X56254580Y-72234502D01*
X56247626Y-72280557D01*
X56237903Y-72324057D01*
X56225563Y-72364540D01*
X56210755Y-72401544D01*
X56193631Y-72434609D01*
X56184385Y-72449313D01*
X56173441Y-72463626D01*
X56159444Y-72479004D01*
X56143805Y-72494085D01*
X56127935Y-72507508D01*
X56113435Y-72517794D01*
X56089048Y-72531062D01*
X56063331Y-72541156D01*
X56035442Y-72548302D01*
X56004537Y-72552729D01*
X55977485Y-72554451D01*
X55939200Y-72554173D01*
X55903898Y-72550449D01*
X55870678Y-72543106D01*
X55838637Y-72531971D01*
X55822293Y-72524696D01*
X55787122Y-72505277D01*
X55755700Y-72482486D01*
X55728124Y-72456483D01*
X55704492Y-72427430D01*
X55684902Y-72395486D01*
X55669452Y-72360813D01*
X55658240Y-72323571D01*
X55651364Y-72283921D01*
X55648922Y-72242024D01*
X55648917Y-72240226D01*
X55648783Y-72227629D01*
X55648202Y-72218557D01*
X55646907Y-72211461D01*
X55644632Y-72204789D01*
X55641657Y-72198147D01*
X55631361Y-72181663D01*
X55618284Y-72168878D01*
X55603120Y-72159788D01*
X55586565Y-72154385D01*
X55569313Y-72152666D01*
X55552058Y-72154623D01*
X55535496Y-72160253D01*
X55520321Y-72169549D01*
X55507227Y-72182505D01*
X55496910Y-72199117D01*
X55496824Y-72199300D01*
X55494384Y-72204741D01*
X55492630Y-72209684D01*
X55491450Y-72215093D01*
X55490736Y-72221931D01*
X55490377Y-72231162D01*
X55490263Y-72243749D01*
X52724019Y-72243749D01*
X52724067Y-72240470D01*
X52725700Y-72147734D01*
G37*
X52725700Y-72147734D02*
X52727565Y-72059243D01*
X52729676Y-71974788D01*
X52732050Y-71894163D01*
X52734701Y-71817158D01*
X52737644Y-71743566D01*
X52740894Y-71673179D01*
X52744467Y-71605788D01*
X52748377Y-71541186D01*
X52749637Y-71522854D01*
X54204501Y-71522854D01*
X54207636Y-71570589D01*
X54211329Y-71596270D01*
X54221774Y-71642619D01*
X54236747Y-71687047D01*
X54255983Y-71729305D01*
X54279214Y-71769147D01*
X54306172Y-71806326D01*
X54336591Y-71840593D01*
X54370203Y-71871703D01*
X54406742Y-71899408D01*
X54445941Y-71923461D01*
X54487532Y-71943615D01*
X54531248Y-71959622D01*
X54576823Y-71971236D01*
X54623990Y-71978209D01*
X54624030Y-71978213D01*
X54645985Y-71979952D01*
X54665500Y-71980600D01*
X54684969Y-71980166D01*
X54706788Y-71978654D01*
X54708995Y-71978462D01*
X54751133Y-71973015D01*
X54790935Y-71964164D01*
X54829757Y-71951522D01*
X54868955Y-71934701D01*
X54878030Y-71930270D01*
X54902679Y-71917265D01*
X54924618Y-71904000D01*
X54945062Y-71889586D01*
X54965228Y-71873131D01*
X54986331Y-71853744D01*
X54997553Y-71842734D01*
X55013276Y-71826682D01*
X55026072Y-71812723D01*
X55036919Y-71799702D01*
X55046794Y-71786465D01*
X55053548Y-71776610D01*
X55078190Y-71735983D01*
X55097984Y-71695194D01*
X55113141Y-71653595D01*
X55123870Y-71610539D01*
X55130380Y-71565378D01*
X55132518Y-71532770D01*
X55132073Y-71495940D01*
X56623010Y-71495940D01*
X56623065Y-71516037D01*
X56623276Y-71532034D01*
X56623706Y-71544908D01*
X56624420Y-71555639D01*
X56625483Y-71565205D01*
X56626958Y-71574585D01*
X56628842Y-71584417D01*
X56640753Y-71631052D01*
X56657144Y-71676003D01*
X56677774Y-71718854D01*
X56702401Y-71759190D01*
X56730783Y-71796595D01*
X56762680Y-71830655D01*
X56782274Y-71848356D01*
X56821138Y-71878111D01*
X56862275Y-71903427D01*
X56905388Y-71924211D01*
X56950182Y-71940369D01*
X56996361Y-71951807D01*
X57043629Y-71958431D01*
X57091689Y-71960147D01*
X57128470Y-71958121D01*
X57176371Y-71951252D01*
X57222206Y-71939827D01*
X57266361Y-71923739D01*
X57288490Y-71913638D01*
X57331185Y-71890031D01*
X57370673Y-71862579D01*
X57406774Y-71831516D01*
X57439307Y-71797076D01*
X57468091Y-71759496D01*
X57492946Y-71719009D01*
X57513691Y-71675851D01*
X57530146Y-71630255D01*
X57541737Y-71584417D01*
X57543671Y-71574309D01*
X57545129Y-71564981D01*
X57546175Y-71555455D01*
X57546874Y-71544755D01*
X57547288Y-71531903D01*
X57547482Y-71515921D01*
X57547520Y-71495940D01*
X57547401Y-71473987D01*
X57547053Y-71456240D01*
X57546429Y-71441826D01*
X57545481Y-71429874D01*
X57544163Y-71419512D01*
X57543003Y-71412791D01*
X57531342Y-71364628D01*
X57515156Y-71318667D01*
X57494522Y-71275062D01*
X57469519Y-71233967D01*
X57440225Y-71195536D01*
X57422291Y-71175566D01*
X57386864Y-71141889D01*
X57348722Y-71112482D01*
X57308024Y-71087425D01*
X57264929Y-71066800D01*
X57219595Y-71050685D01*
X57172180Y-71039163D01*
X57144980Y-71034773D01*
X57097617Y-71030942D01*
X57050808Y-71031994D01*
X57004855Y-71037737D01*
X56960058Y-71047981D01*
X56916719Y-71062533D01*
X56875138Y-71081203D01*
X56835616Y-71103800D01*
X56798454Y-71130133D01*
X56763953Y-71160010D01*
X56732415Y-71193240D01*
X56704140Y-71229632D01*
X56679430Y-71268994D01*
X56658585Y-71311137D01*
X56642540Y-71353873D01*
X56636345Y-71374279D01*
X56631553Y-71392880D01*
X56628003Y-71410846D01*
X56625535Y-71429346D01*
X56623988Y-71449550D01*
X56623201Y-71472627D01*
X56623010Y-71495940D01*
X55132073Y-71495940D01*
X55131920Y-71483300D01*
X55126476Y-71435337D01*
X55116192Y-71388906D01*
X55101076Y-71344028D01*
X55081133Y-71300728D01*
X55056370Y-71259027D01*
X55056038Y-71258528D01*
X55026891Y-71219231D01*
X54994375Y-71183696D01*
X54958647Y-71152029D01*
X54919864Y-71124335D01*
X54878182Y-71100719D01*
X54833760Y-71081287D01*
X54786753Y-71066145D01*
X54759974Y-71059709D01*
X54748980Y-71057455D01*
X54739374Y-71055761D01*
X54730116Y-71054546D01*
X54720169Y-71053731D01*
X54708494Y-71053235D01*
X54694053Y-71052980D01*
X54675806Y-71052885D01*
X54671020Y-71052878D01*
X54645884Y-71053057D01*
X54624625Y-71053765D01*
X54606051Y-71055155D01*
X54588972Y-71057385D01*
X54572197Y-71060610D01*
X54554536Y-71064987D01*
X54534798Y-71070671D01*
X54534459Y-71070774D01*
X54489213Y-71086996D01*
X54446631Y-71107361D01*
X54406891Y-71131581D01*
X54370169Y-71159371D01*
X54336640Y-71190444D01*
X54306480Y-71224513D01*
X54279867Y-71261293D01*
X54256974Y-71300497D01*
X54237980Y-71341838D01*
X54223059Y-71385031D01*
X54212389Y-71429789D01*
X54206144Y-71475825D01*
X54204501Y-71522854D01*
X52749637Y-71522854D01*
X52752640Y-71479165D01*
X52757272Y-71419516D01*
X52762286Y-71362032D01*
X52767698Y-71306505D01*
X52773524Y-71252725D01*
X52779778Y-71200487D01*
X52786476Y-71149580D01*
X52793633Y-71099798D01*
X52801264Y-71050932D01*
X52809384Y-71002775D01*
X52818008Y-70955117D01*
X52827151Y-70907752D01*
X52836829Y-70860471D01*
X52846301Y-70816490D01*
X52878636Y-70680186D01*
X52915008Y-70546451D01*
X52955374Y-70415380D01*
X52999693Y-70287068D01*
X53047921Y-70161611D01*
X53100016Y-70039104D01*
X53155936Y-69919643D01*
X53215638Y-69803323D01*
X53279080Y-69690238D01*
X53346220Y-69580486D01*
X53417014Y-69474161D01*
X53485787Y-69378850D01*
X53560303Y-69283462D01*
X53638122Y-69191628D01*
X53719105Y-69103474D01*
X53803114Y-69019126D01*
X53890012Y-68938710D01*
X53979661Y-68862353D01*
X54071922Y-68790181D01*
X54166658Y-68722321D01*
X54263730Y-68658898D01*
X54288750Y-68643507D01*
X54390294Y-68584772D01*
X54494521Y-68530304D01*
X54601283Y-68480148D01*
X54710433Y-68434352D01*
X54821826Y-68392962D01*
X54935314Y-68356024D01*
X55050751Y-68323585D01*
X55167990Y-68295691D01*
X55286884Y-68272390D01*
X55407287Y-68253727D01*
X55529052Y-68239749D01*
X55572720Y-68235911D01*
X55650682Y-68230735D01*
X55731432Y-68227512D01*
X55813560Y-68226243D01*
X55895656Y-68226928D01*
X55976310Y-68229567D01*
X56054111Y-68234159D01*
X56076910Y-68235936D01*
X56195383Y-68248031D01*
X56312710Y-68264609D01*
X56428626Y-68285602D01*
X56542863Y-68310942D01*
X56655155Y-68340560D01*
X56765235Y-68374389D01*
X56872838Y-68412360D01*
X56977697Y-68454404D01*
X57042110Y-68482899D01*
X57134279Y-68527989D01*
X57224135Y-68577589D01*
X57311683Y-68631704D01*
X57396927Y-68690338D01*
X57479874Y-68753494D01*
X57560527Y-68821176D01*
X57638893Y-68893390D01*
X57714977Y-68970138D01*
X57788783Y-69051425D01*
X57824273Y-69093100D01*
X57883264Y-69166419D01*
X57940935Y-69243356D01*
X57997354Y-69324035D01*
X58052589Y-69408580D01*
X58106708Y-69497117D01*
X58159778Y-69589768D01*
X58211868Y-69686660D01*
X58263045Y-69787916D01*
X58313378Y-69893661D01*
X58362934Y-70004019D01*
X58411781Y-70119114D01*
X58459987Y-70239071D01*
X58484969Y-70303795D01*
X58509278Y-70368373D01*
X58533689Y-70434655D01*
X58558008Y-70502058D01*
X58582036Y-70569997D01*
X58605577Y-70637886D01*
X58628434Y-70705142D01*
X58650410Y-70771179D01*
X58671308Y-70835414D01*
X58690932Y-70897261D01*
X58709083Y-70956136D01*
X58725567Y-71011455D01*
X58738477Y-71056520D01*
X58779454Y-71209685D01*
X58817704Y-71367078D01*
X58853218Y-71528633D01*
X58885987Y-71694285D01*
X58916000Y-71863969D01*
X58943249Y-72037621D01*
X58967725Y-72215174D01*
X58989418Y-72396566D01*
X59008318Y-72581729D01*
X59024417Y-72770600D01*
X59037704Y-72963114D01*
X59048172Y-73159205D01*
X59051201Y-73229490D01*
X59052727Y-73267756D01*
X59054084Y-73303048D01*
X59055285Y-73335962D01*
X59056341Y-73367097D01*
X59057265Y-73397049D01*
X59058069Y-73426415D01*
X59058768Y-73455792D01*
X59059372Y-73485778D01*
X59059894Y-73516968D01*
X59060348Y-73549961D01*
X59060745Y-73585353D01*
X59061099Y-73623742D01*
X59061421Y-73665724D01*
X59061724Y-73711897D01*
X59061870Y-73736220D01*
X59062214Y-73812792D01*
X59062313Y-73885120D01*
X59062155Y-73954035D01*
X59061724Y-74020367D01*
X59061008Y-74084947D01*
X59059990Y-74148606D01*
X59058659Y-74212174D01*
X59056998Y-74276482D01*
X59054994Y-74342361D01*
X59052634Y-74410642D01*
X59049902Y-74482155D01*
X59048636Y-74513460D01*
X59038775Y-74721776D01*
X59026186Y-74933327D01*
X59010954Y-75147116D01*
X58993164Y-75362147D01*
X58972902Y-75577423D01*
X58950252Y-75791949D01*
X58925299Y-76004729D01*
X58912748Y-76104251D01*
X58909545Y-76129502D01*
X58906264Y-76156146D01*
X58903036Y-76183059D01*
X58899993Y-76209118D01*
X58897266Y-76233202D01*
X58894987Y-76254186D01*
X58893691Y-76266811D01*
X58888507Y-76316274D01*
X58882390Y-76369689D01*
X58875476Y-76426044D01*
X58867901Y-76484326D01*
X58859800Y-76543519D01*
X58851309Y-76602612D01*
X58842564Y-76660591D01*
X58833700Y-76716442D01*
X58832584Y-76723260D01*
X58804919Y-76882405D01*
X58774574Y-77039325D01*
X58741614Y-77193786D01*
X58706105Y-77345559D01*
X58668112Y-77494412D01*
X58627703Y-77640112D01*
X58584941Y-77782430D01*
X58539894Y-77921133D01*
X58492626Y-78055991D01*
X58443204Y-78186771D01*
X58391692Y-78313242D01*
X58360373Y-78385690D01*
X58347443Y-78414769D01*
X58336269Y-78439495D01*
X58326676Y-78460212D01*
X58318487Y-78477263D01*
X58311526Y-78490994D01*
X58305618Y-78501749D01*
X58300587Y-78509872D01*
X58296257Y-78515708D01*
X58292452Y-78519601D01*
X58291664Y-78520233D01*
X58276622Y-78528872D01*
X58260052Y-78533519D01*
X58243182Y-78534010D01*
X58227239Y-78530176D01*
X58225107Y-78529264D01*
X58218534Y-78525513D01*
X58209558Y-78519370D01*
X58199568Y-78511821D01*
X58193357Y-78506766D01*
X58153211Y-78474512D01*
X58108872Y-78441557D01*
X58061087Y-78408365D01*
X58010607Y-78375401D01*
X57958183Y-78343129D01*
X57904563Y-78312013D01*
X57850497Y-78282518D01*
X57796736Y-78255107D01*
X57754420Y-78234978D01*
X57668788Y-78197965D01*
X57583595Y-78165820D01*
X57498903Y-78138551D01*
X57414776Y-78116163D01*
X57331274Y-78098663D01*
X57248462Y-78086059D01*
X57166401Y-78078356D01*
X57085153Y-78075560D01*
X57004781Y-78077679D01*
X56925348Y-78084720D01*
X56846915Y-78096687D01*
X56769546Y-78113589D01*
X56722009Y-78126587D01*
X56700163Y-78133171D01*
X56679725Y-78139665D01*
X56659984Y-78146349D01*
X56640227Y-78153498D01*
X56619740Y-78161392D01*
X56597813Y-78170306D01*
X56573731Y-78180520D01*
X56546783Y-78192311D01*
X56516256Y-78205955D01*
X56503630Y-78211657D01*
X56446724Y-78237189D01*
X56393615Y-78260549D01*
X56343649Y-78282010D01*
X56296170Y-78301847D01*
X56250524Y-78320334D01*
X56206057Y-78337747D01*
X56173476Y-78350120D01*
X56077953Y-78384181D01*
X55984838Y-78413841D01*
X55894019Y-78439114D01*
X55805386Y-78460009D01*
X55718828Y-78476539D01*
X55634235Y-78488716D01*
X55551495Y-78496552D01*
X55470497Y-78500058D01*
X55391133Y-78499246D01*
X55313289Y-78494127D01*
X55236857Y-78484714D01*
X55161724Y-78471019D01*
X55121636Y-78461842D01*
X55062843Y-78445964D01*
X55005613Y-78427495D01*
X54949437Y-78406187D01*
X54893804Y-78381789D01*
X54838206Y-78354052D01*
X54782131Y-78322728D01*
X54725069Y-78287565D01*
X54666512Y-78248316D01*
X54626020Y-78219486D01*
X54615777Y-78211925D01*
X54602227Y-78201758D01*
X54586064Y-78189514D01*
X54567978Y-78175722D01*
X54548663Y-78160909D01*
X54528811Y-78145604D01*
X54509113Y-78130334D01*
X54506640Y-78128410D01*
X54485587Y-78112076D01*
X54463066Y-78094689D01*
X54440006Y-78076960D01*
X54417342Y-78059606D01*
X54396003Y-78043338D01*
X54376923Y-78028871D01*
X54362924Y-78018334D01*
X54302609Y-77974398D01*
X54244592Y-77934715D01*
X54188602Y-77899154D01*
X54134370Y-77867587D01*
X54081627Y-77839881D01*
X54030102Y-77815906D01*
X53979527Y-77795532D01*
X53929632Y-77778628D01*
X53880148Y-77765064D01*
X53830805Y-77754709D01*
X53812509Y-77751661D01*
X53794928Y-77749470D01*
X53773453Y-77747640D01*
X53749257Y-77746204D01*
X53723515Y-77745192D01*
X53697403Y-77744634D01*
X53672093Y-77744561D01*
X53648762Y-77745004D01*
X53628583Y-77745992D01*
X53620460Y-77746660D01*
X53596962Y-77749137D01*
X53573751Y-77752038D01*
X53550349Y-77755465D01*
X53526281Y-77759522D01*
X53501071Y-77764313D01*
X53474241Y-77769940D01*
X53445315Y-77776506D01*
X53413818Y-77784116D01*
X53379273Y-77792871D01*
X53341203Y-77802876D01*
X53299132Y-77814234D01*
X53263860Y-77823924D01*
X53210604Y-77838452D01*
X53161613Y-77851381D01*
X53116364Y-77862809D01*
X53074334Y-77872834D01*
X53034999Y-77881554D01*
X52997835Y-77889067D01*
X52962321Y-77895471D01*
X52927932Y-77900863D01*
X52894145Y-77905341D01*
X52860437Y-77909004D01*
X52826285Y-77911948D01*
X52791165Y-77914273D01*
X52776611Y-77915057D01*
X52720904Y-77916537D01*
X52662097Y-77915601D01*
X52601501Y-77912351D01*
X52540429Y-77906889D01*
X52480194Y-77899316D01*
X52422107Y-77889733D01*
X52404070Y-77886235D01*
X52332667Y-77869871D01*
X52264113Y-77850050D01*
X52197989Y-77826564D01*
X52133878Y-77799208D01*
X52071361Y-77767774D01*
X52010020Y-77732056D01*
X51949438Y-77691848D01*
X51889195Y-77646943D01*
X51842351Y-77608674D01*
X51832949Y-77600409D01*
X51820637Y-77589132D01*
X51806059Y-77575457D01*
X51789859Y-77559999D01*
X51772683Y-77543372D01*
X51755174Y-77526193D01*
X51738538Y-77509638D01*
X51706229Y-77476842D01*
X51676350Y-77445619D01*
X51647932Y-77414894D01*
X51620009Y-77383595D01*
X51591612Y-77350649D01*
X51561775Y-77314983D01*
X51548858Y-77299272D01*
X51533297Y-77280115D01*
X51516552Y-77259235D01*
X51498904Y-77237000D01*
X51480632Y-77213778D01*
X51462014Y-77189936D01*
X51443332Y-77165841D01*
X51424864Y-77141861D01*
X51406889Y-77118363D01*
X51389688Y-77095714D01*
X51373539Y-77074282D01*
X51358723Y-77054433D01*
X51345518Y-77036537D01*
X51334204Y-77020959D01*
X51325061Y-77008066D01*
X51318368Y-76998228D01*
X51314405Y-76991810D01*
X51313511Y-76989934D01*
X51311295Y-76979189D01*
X51310748Y-76966016D01*
X51311878Y-76952789D01*
X51313332Y-76945931D01*
X51314433Y-76942824D01*
X51316266Y-76939263D01*
X51319105Y-76934936D01*
X51323229Y-76929534D01*
X51328914Y-76922743D01*
X51336437Y-76914255D01*
X51346075Y-76903757D01*
X51358104Y-76890939D01*
X51372802Y-76875489D01*
X51390446Y-76857097D01*
X51411311Y-76835452D01*
X51416010Y-76830587D01*
X51465403Y-76779094D01*
X51514283Y-76727434D01*
X51562407Y-76675882D01*
X51609534Y-76624714D01*
X51655423Y-76574207D01*
X51699834Y-76524635D01*
X51742524Y-76476275D01*
X51783252Y-76429403D01*
X51821778Y-76384294D01*
X51857860Y-76341225D01*
X51891256Y-76300470D01*
X51921726Y-76262307D01*
X51949029Y-76227011D01*
X51972922Y-76194857D01*
X51977626Y-76188333D01*
X52043932Y-76092130D01*
X52106794Y-75993365D01*
X52166252Y-75891923D01*
X52222349Y-75787691D01*
X52275124Y-75680554D01*
X52324619Y-75570399D01*
X52370875Y-75457113D01*
X52413934Y-75340580D01*
X52453836Y-75220687D01*
X52490624Y-75097321D01*
X52524337Y-74970367D01*
X52555018Y-74839712D01*
X52582707Y-74705241D01*
X52607445Y-74566841D01*
X52629275Y-74424397D01*
X52637551Y-74363600D01*
X52650068Y-74262272D01*
X52661439Y-74157713D01*
X52671682Y-74049681D01*
X52680815Y-73937934D01*
X52688856Y-73822230D01*
X52695823Y-73702327D01*
X52701734Y-73577983D01*
X52706607Y-73448957D01*
X52707539Y-73419990D01*
X52708395Y-73391896D01*
X52709204Y-73363904D01*
X52709970Y-73335744D01*
X52710696Y-73307150D01*
X52711387Y-73277854D01*
X52712046Y-73247587D01*
X52712678Y-73216082D01*
X52713286Y-73183071D01*
X52713875Y-73148286D01*
X52714448Y-73111459D01*
X52715009Y-73072323D01*
X52715563Y-73030609D01*
X52716112Y-72986049D01*
X52716662Y-72938376D01*
X52717216Y-72887322D01*
X52717778Y-72832619D01*
X52718351Y-72773999D01*
X52718941Y-72711194D01*
X52719550Y-72643936D01*
X52720183Y-72571958D01*
X52720406Y-72546230D01*
X52721435Y-72439510D01*
X52722650Y-72337660D01*
X52724019Y-72243749D01*
X55490263Y-72243749D01*
X55490274Y-72256670D01*
X55492772Y-72305904D01*
X55500000Y-72353350D01*
X55511925Y-72398921D01*
X55528510Y-72442528D01*
X55549719Y-72484085D01*
X55575519Y-72523504D01*
X55605873Y-72560697D01*
X55618183Y-72573806D01*
X55653949Y-72606943D01*
X55692565Y-72635932D01*
X55733776Y-72660645D01*
X55777321Y-72680951D01*
X55822945Y-72696721D01*
X55870388Y-72707825D01*
X55891271Y-72711131D01*
X55906122Y-72712658D01*
X55924492Y-72713787D01*
X55945042Y-72714507D01*
X55966433Y-72714803D01*
X55987324Y-72714663D01*
X56006377Y-72714074D01*
X56022252Y-72713023D01*
X56027446Y-72712465D01*
X56073350Y-72704469D01*
X56117016Y-72692230D01*
X56158195Y-72675877D01*
X56196639Y-72655540D01*
X56232099Y-72631347D01*
X56264324Y-72603426D01*
X56288751Y-72577143D01*
X56316709Y-72540309D01*
X56341219Y-72500367D01*
X56362344Y-72457154D01*
X56380149Y-72410508D01*
X56394698Y-72360266D01*
X56406056Y-72306267D01*
X56412378Y-72264303D01*
X56413911Y-72250390D01*
X56414975Y-72236869D01*
X56415473Y-72225280D01*
X56415311Y-72217165D01*
X56415308Y-72217129D01*
X56411187Y-72198927D01*
X56402570Y-72182079D01*
X56390010Y-72167380D01*
X56374057Y-72155623D01*
X56371550Y-72154238D01*
X56364517Y-72150869D01*
X56357909Y-72148838D01*
X56350026Y-72147822D01*
X56339171Y-72147501D01*
X56335990Y-72147491D01*
X56319414Y-72148388D01*
X56306049Y-72151498D01*
X56294286Y-72157436D01*
X56282512Y-72166817D01*
X56280525Y-72168674D01*
X56272257Y-72177622D01*
X56265979Y-72187306D01*
X56261281Y-72198769D01*
X56257750Y-72213052D01*
X56254977Y-72231199D01*
X56254580Y-72234502D01*
X56247626Y-72280557D01*
X56237903Y-72324057D01*
X56225563Y-72364540D01*
X56210755Y-72401544D01*
X56193631Y-72434609D01*
X56184385Y-72449313D01*
X56173441Y-72463626D01*
X56159444Y-72479004D01*
X56143805Y-72494085D01*
X56127935Y-72507508D01*
X56113435Y-72517794D01*
X56089048Y-72531062D01*
X56063331Y-72541156D01*
X56035442Y-72548302D01*
X56004537Y-72552729D01*
X55977485Y-72554451D01*
X55939200Y-72554173D01*
X55903898Y-72550449D01*
X55870678Y-72543106D01*
X55838637Y-72531971D01*
X55822293Y-72524696D01*
X55787122Y-72505277D01*
X55755700Y-72482486D01*
X55728124Y-72456483D01*
X55704492Y-72427430D01*
X55684902Y-72395486D01*
X55669452Y-72360813D01*
X55658240Y-72323571D01*
X55651364Y-72283921D01*
X55648922Y-72242024D01*
X55648917Y-72240226D01*
X55648783Y-72227629D01*
X55648202Y-72218557D01*
X55646907Y-72211461D01*
X55644632Y-72204789D01*
X55641657Y-72198147D01*
X55631361Y-72181663D01*
X55618284Y-72168878D01*
X55603120Y-72159788D01*
X55586565Y-72154385D01*
X55569313Y-72152666D01*
X55552058Y-72154623D01*
X55535496Y-72160253D01*
X55520321Y-72169549D01*
X55507227Y-72182505D01*
X55496910Y-72199117D01*
X55496824Y-72199300D01*
X55494384Y-72204741D01*
X55492630Y-72209684D01*
X55491450Y-72215093D01*
X55490736Y-72221931D01*
X55490377Y-72231162D01*
X55490263Y-72243749D01*
X52724019Y-72243749D01*
X52724067Y-72240470D01*
X52725700Y-72147734D01*
%LPC*%
X154232127Y-74359791D02*
X154259709Y-74362673D01*
X154259709Y-74362673D02*
X154663135Y-74427109D01*
X154663135Y-74427109D02*
X155052337Y-74530011D01*
X155052337Y-74530011D02*
X155425207Y-74669403D01*
X155425207Y-74669403D02*
X155779637Y-74843309D01*
X155779637Y-74843309D02*
X156113518Y-75049751D01*
X156113518Y-75049751D02*
X156424742Y-75286755D01*
X156424742Y-75286755D02*
X156711201Y-75552342D01*
X156711201Y-75552342D02*
X156970787Y-75844537D01*
X156970787Y-75844537D02*
X157201391Y-76161363D01*
X157201391Y-76161363D02*
X157400905Y-76500844D01*
X157400905Y-76500844D02*
X157567221Y-76861002D01*
X157567221Y-76861002D02*
X157698230Y-77239863D01*
X157698230Y-77239863D02*
X157791824Y-77635448D01*
X157791824Y-77635448D02*
X157800050Y-77681672D01*
X157800050Y-77681672D02*
X157848003Y-78083216D01*
X157848003Y-78083216D02*
X157854710Y-78484492D01*
X157854710Y-78484492D02*
X157821163Y-78882423D01*
X157821163Y-78882423D02*
X157748355Y-79273933D01*
X157748355Y-79273933D02*
X157637280Y-79655948D01*
X157637280Y-79655948D02*
X157488930Y-80025391D01*
X157488930Y-80025391D02*
X157304299Y-80379187D01*
X157304299Y-80379187D02*
X157084381Y-80714260D01*
X157084381Y-80714260D02*
X156830167Y-81027535D01*
X156830167Y-81027535D02*
X156663181Y-81202194D01*
X156663181Y-81202194D02*
X156545134Y-81316962D01*
X156545134Y-81316962D02*
X156446857Y-81408504D01*
X156446857Y-81408504D02*
X156359120Y-81484432D01*
X156359120Y-81484432D02*
X156272693Y-81552361D01*
X156272693Y-81552361D02*
X156178345Y-81619903D01*
X156178345Y-81619903D02*
X156066846Y-81694672D01*
X156066846Y-81694672D02*
X156063334Y-81696979D01*
X156063334Y-81696979D02*
X155731762Y-81892640D01*
X155731762Y-81892640D02*
X155383616Y-82056419D01*
X155383616Y-82056419D02*
X155025166Y-82186122D01*
X155025166Y-82186122D02*
X154662680Y-82279555D01*
X154662680Y-82279555D02*
X154302428Y-82334524D01*
X154302428Y-82334524D02*
X154221834Y-82341402D01*
X154221834Y-82341402D02*
X153989320Y-82354260D01*
X153989320Y-82354260D02*
X153766593Y-82358882D01*
X153766593Y-82358882D02*
X153563271Y-82355301D01*
X153563271Y-82355301D02*
X153388970Y-82343549D01*
X153388970Y-82343549D02*
X153343417Y-82338390D01*
X153343417Y-82338390D02*
X153262052Y-82325555D01*
X153262052Y-82325555D02*
X153154586Y-82305078D01*
X153154586Y-82305078D02*
X153035898Y-82279935D01*
X153035898Y-82279935D02*
X152936326Y-82256885D01*
X152936326Y-82256885D02*
X152537422Y-82139218D01*
X152537422Y-82139218D02*
X152157740Y-81984969D01*
X152157740Y-81984969D02*
X151799286Y-81795744D01*
X151799286Y-81795744D02*
X151464066Y-81573146D01*
X151464066Y-81573146D02*
X151154087Y-81318781D01*
X151154087Y-81318781D02*
X150871355Y-81034253D01*
X150871355Y-81034253D02*
X150617875Y-80721167D01*
X150617875Y-80721167D02*
X150395654Y-80381128D01*
X150395654Y-80381128D02*
X150250163Y-80108250D01*
X150250163Y-80108250D02*
X150089942Y-79731646D01*
X150089942Y-79731646D02*
X149970261Y-79348707D01*
X149970261Y-79348707D02*
X149890271Y-78962000D01*
X149890271Y-78962000D02*
X149849126Y-78574091D01*
X149849126Y-78574091D02*
X149845978Y-78187548D01*
X149845978Y-78187548D02*
X149879980Y-77804937D01*
X149879980Y-77804937D02*
X149950284Y-77428826D01*
X149950284Y-77428826D02*
X150056042Y-77061780D01*
X150056042Y-77061780D02*
X150196408Y-76706368D01*
X150196408Y-76706368D02*
X150370534Y-76365155D01*
X150370534Y-76365155D02*
X150577572Y-76040710D01*
X150577572Y-76040710D02*
X150816675Y-75735597D01*
X150816675Y-75735597D02*
X151086996Y-75452386D01*
X151086996Y-75452386D02*
X151387687Y-75193642D01*
X151387687Y-75193642D02*
X151717901Y-74961932D01*
X151717901Y-74961932D02*
X152003494Y-74797368D01*
X152003494Y-74797368D02*
X152348779Y-74638454D01*
X152348779Y-74638454D02*
X152713775Y-74512152D01*
X152713775Y-74512152D02*
X153091545Y-74419798D01*
X153091545Y-74419798D02*
X153475153Y-74362728D01*
X153475153Y-74362728D02*
X153857659Y-74342281D01*
X153857659Y-74342281D02*
X154232127Y-74359791D01*
X154232127Y-74359791D02*
X154232127Y-74359791D01*
G36*
X154232127Y-74359791D02*
G01*
X154259709Y-74362673D01*
X154663135Y-74427109D01*
X155052337Y-74530011D01*
X155425207Y-74669403D01*
X155779637Y-74843309D01*
X156113518Y-75049751D01*
X156424742Y-75286755D01*
X156711201Y-75552342D01*
X156970787Y-75844537D01*
X157201391Y-76161363D01*
X157400905Y-76500844D01*
X157567221Y-76861002D01*
X157698230Y-77239863D01*
X157791824Y-77635448D01*
X157800050Y-77681672D01*
X157848003Y-78083216D01*
X157854710Y-78484492D01*
X157821163Y-78882423D01*
X157748355Y-79273933D01*
X157637280Y-79655948D01*
X157488930Y-80025391D01*
X157304299Y-80379187D01*
X157084381Y-80714260D01*
X156830167Y-81027535D01*
X156663181Y-81202194D01*
X156545134Y-81316962D01*
X156446857Y-81408504D01*
X156359120Y-81484432D01*
X156272693Y-81552361D01*
X156178345Y-81619903D01*
X156066846Y-81694672D01*
X156063334Y-81696979D01*
X155731762Y-81892640D01*
X155383616Y-82056419D01*
X155025166Y-82186122D01*
X154662680Y-82279555D01*
X154302428Y-82334524D01*
X154221834Y-82341402D01*
X153989320Y-82354260D01*
X153766593Y-82358882D01*
X153563271Y-82355301D01*
X153388970Y-82343549D01*
X153343417Y-82338390D01*
X153262052Y-82325555D01*
X153154586Y-82305078D01*
X153035898Y-82279935D01*
X152936326Y-82256885D01*
X152537422Y-82139218D01*
X152157740Y-81984969D01*
X151799286Y-81795744D01*
X151464066Y-81573146D01*
X151154087Y-81318781D01*
X150871355Y-81034253D01*
X150617875Y-80721167D01*
X150395654Y-80381128D01*
X150250163Y-80108250D01*
X150089942Y-79731646D01*
X149970261Y-79348707D01*
X149890271Y-78962000D01*
X149849126Y-78574091D01*
X149845978Y-78187548D01*
X149879980Y-77804937D01*
X149950284Y-77428826D01*
X150056042Y-77061780D01*
X150196408Y-76706368D01*
X150370534Y-76365155D01*
X150577572Y-76040710D01*
X150816675Y-75735597D01*
X151086996Y-75452386D01*
X151387687Y-75193642D01*
X151717901Y-74961932D01*
X152003494Y-74797368D01*
X152348779Y-74638454D01*
X152713775Y-74512152D01*
X153091545Y-74419798D01*
X153475153Y-74362728D01*
X153857659Y-74342281D01*
X154232127Y-74359791D01*
G37*
X154232127Y-74359791D02*
X154259709Y-74362673D01*
X154663135Y-74427109D01*
X155052337Y-74530011D01*
X155425207Y-74669403D01*
X155779637Y-74843309D01*
X156113518Y-75049751D01*
X156424742Y-75286755D01*
X156711201Y-75552342D01*
X156970787Y-75844537D01*
X157201391Y-76161363D01*
X157400905Y-76500844D01*
X157567221Y-76861002D01*
X157698230Y-77239863D01*
X157791824Y-77635448D01*
X157800050Y-77681672D01*
X157848003Y-78083216D01*
X157854710Y-78484492D01*
X157821163Y-78882423D01*
X157748355Y-79273933D01*
X157637280Y-79655948D01*
X157488930Y-80025391D01*
X157304299Y-80379187D01*
X157084381Y-80714260D01*
X156830167Y-81027535D01*
X156663181Y-81202194D01*
X156545134Y-81316962D01*
X156446857Y-81408504D01*
X156359120Y-81484432D01*
X156272693Y-81552361D01*
X156178345Y-81619903D01*
X156066846Y-81694672D01*
X156063334Y-81696979D01*
X155731762Y-81892640D01*
X155383616Y-82056419D01*
X155025166Y-82186122D01*
X154662680Y-82279555D01*
X154302428Y-82334524D01*
X154221834Y-82341402D01*
X153989320Y-82354260D01*
X153766593Y-82358882D01*
X153563271Y-82355301D01*
X153388970Y-82343549D01*
X153343417Y-82338390D01*
X153262052Y-82325555D01*
X153154586Y-82305078D01*
X153035898Y-82279935D01*
X152936326Y-82256885D01*
X152537422Y-82139218D01*
X152157740Y-81984969D01*
X151799286Y-81795744D01*
X151464066Y-81573146D01*
X151154087Y-81318781D01*
X150871355Y-81034253D01*
X150617875Y-80721167D01*
X150395654Y-80381128D01*
X150250163Y-80108250D01*
X150089942Y-79731646D01*
X149970261Y-79348707D01*
X149890271Y-78962000D01*
X149849126Y-78574091D01*
X149845978Y-78187548D01*
X149879980Y-77804937D01*
X149950284Y-77428826D01*
X150056042Y-77061780D01*
X150196408Y-76706368D01*
X150370534Y-76365155D01*
X150577572Y-76040710D01*
X150816675Y-75735597D01*
X151086996Y-75452386D01*
X151387687Y-75193642D01*
X151717901Y-74961932D01*
X152003494Y-74797368D01*
X152348779Y-74638454D01*
X152713775Y-74512152D01*
X153091545Y-74419798D01*
X153475153Y-74362728D01*
X153857659Y-74342281D01*
X154232127Y-74359791D01*
X139032127Y-82059791D02*
X139059709Y-82062673D01*
X139059709Y-82062673D02*
X139463135Y-82127109D01*
X139463135Y-82127109D02*
X139852337Y-82230011D01*
X139852337Y-82230011D02*
X140225207Y-82369403D01*
X140225207Y-82369403D02*
X140579637Y-82543309D01*
X140579637Y-82543309D02*
X140913518Y-82749751D01*
X140913518Y-82749751D02*
X141224742Y-82986755D01*
X141224742Y-82986755D02*
X141511201Y-83252342D01*
X141511201Y-83252342D02*
X141770787Y-83544537D01*
X141770787Y-83544537D02*
X142001391Y-83861363D01*
X142001391Y-83861363D02*
X142200905Y-84200844D01*
X142200905Y-84200844D02*
X142367221Y-84561002D01*
X142367221Y-84561002D02*
X142498230Y-84939863D01*
X142498230Y-84939863D02*
X142591824Y-85335448D01*
X142591824Y-85335448D02*
X142600050Y-85381672D01*
X142600050Y-85381672D02*
X142648003Y-85783216D01*
X142648003Y-85783216D02*
X142654710Y-86184492D01*
X142654710Y-86184492D02*
X142621163Y-86582423D01*
X142621163Y-86582423D02*
X142548355Y-86973933D01*
X142548355Y-86973933D02*
X142437280Y-87355948D01*
X142437280Y-87355948D02*
X142288930Y-87725391D01*
X142288930Y-87725391D02*
X142104299Y-88079187D01*
X142104299Y-88079187D02*
X141884381Y-88414260D01*
X141884381Y-88414260D02*
X141630167Y-88727535D01*
X141630167Y-88727535D02*
X141463181Y-88902194D01*
X141463181Y-88902194D02*
X141345134Y-89016962D01*
X141345134Y-89016962D02*
X141246857Y-89108504D01*
X141246857Y-89108504D02*
X141159120Y-89184432D01*
X141159120Y-89184432D02*
X141072693Y-89252361D01*
X141072693Y-89252361D02*
X140978345Y-89319903D01*
X140978345Y-89319903D02*
X140866846Y-89394672D01*
X140866846Y-89394672D02*
X140863334Y-89396979D01*
X140863334Y-89396979D02*
X140531762Y-89592640D01*
X140531762Y-89592640D02*
X140183616Y-89756419D01*
X140183616Y-89756419D02*
X139825166Y-89886122D01*
X139825166Y-89886122D02*
X139462680Y-89979555D01*
X139462680Y-89979555D02*
X139102428Y-90034524D01*
X139102428Y-90034524D02*
X139021834Y-90041402D01*
X139021834Y-90041402D02*
X138789320Y-90054260D01*
X138789320Y-90054260D02*
X138566593Y-90058882D01*
X138566593Y-90058882D02*
X138363271Y-90055301D01*
X138363271Y-90055301D02*
X138188970Y-90043549D01*
X138188970Y-90043549D02*
X138143417Y-90038390D01*
X138143417Y-90038390D02*
X138062052Y-90025555D01*
X138062052Y-90025555D02*
X137954586Y-90005078D01*
X137954586Y-90005078D02*
X137835898Y-89979935D01*
X137835898Y-89979935D02*
X137736326Y-89956885D01*
X137736326Y-89956885D02*
X137337422Y-89839218D01*
X137337422Y-89839218D02*
X136957740Y-89684969D01*
X136957740Y-89684969D02*
X136599286Y-89495744D01*
X136599286Y-89495744D02*
X136264066Y-89273146D01*
X136264066Y-89273146D02*
X135954087Y-89018781D01*
X135954087Y-89018781D02*
X135671355Y-88734253D01*
X135671355Y-88734253D02*
X135417875Y-88421167D01*
X135417875Y-88421167D02*
X135195654Y-88081128D01*
X135195654Y-88081128D02*
X135050163Y-87808250D01*
X135050163Y-87808250D02*
X134889942Y-87431646D01*
X134889942Y-87431646D02*
X134770261Y-87048707D01*
X134770261Y-87048707D02*
X134690271Y-86662000D01*
X134690271Y-86662000D02*
X134649126Y-86274091D01*
X134649126Y-86274091D02*
X134645978Y-85887548D01*
X134645978Y-85887548D02*
X134679980Y-85504937D01*
X134679980Y-85504937D02*
X134750284Y-85128826D01*
X134750284Y-85128826D02*
X134856042Y-84761780D01*
X134856042Y-84761780D02*
X134996408Y-84406368D01*
X134996408Y-84406368D02*
X135170534Y-84065155D01*
X135170534Y-84065155D02*
X135377572Y-83740710D01*
X135377572Y-83740710D02*
X135616675Y-83435597D01*
X135616675Y-83435597D02*
X135886996Y-83152386D01*
X135886996Y-83152386D02*
X136187687Y-82893642D01*
X136187687Y-82893642D02*
X136517901Y-82661932D01*
X136517901Y-82661932D02*
X136803494Y-82497368D01*
X136803494Y-82497368D02*
X137148779Y-82338454D01*
X137148779Y-82338454D02*
X137513775Y-82212152D01*
X137513775Y-82212152D02*
X137891545Y-82119798D01*
X137891545Y-82119798D02*
X138275153Y-82062728D01*
X138275153Y-82062728D02*
X138657659Y-82042281D01*
X138657659Y-82042281D02*
X139032127Y-82059791D01*
X139032127Y-82059791D02*
X139032127Y-82059791D01*
G36*
X139032127Y-82059791D02*
G01*
X139059709Y-82062673D01*
X139463135Y-82127109D01*
X139852337Y-82230011D01*
X140225207Y-82369403D01*
X140579637Y-82543309D01*
X140913518Y-82749751D01*
X141224742Y-82986755D01*
X141511201Y-83252342D01*
X141770787Y-83544537D01*
X142001391Y-83861363D01*
X142200905Y-84200844D01*
X142367221Y-84561002D01*
X142498230Y-84939863D01*
X142591824Y-85335448D01*
X142600050Y-85381672D01*
X142648003Y-85783216D01*
X142654710Y-86184492D01*
X142621163Y-86582423D01*
X142548355Y-86973933D01*
X142437280Y-87355948D01*
X142288930Y-87725391D01*
X142104299Y-88079187D01*
X141884381Y-88414260D01*
X141630167Y-88727535D01*
X141463181Y-88902194D01*
X141345134Y-89016962D01*
X141246857Y-89108504D01*
X141159120Y-89184432D01*
X141072693Y-89252361D01*
X140978345Y-89319903D01*
X140866846Y-89394672D01*
X140863334Y-89396979D01*
X140531762Y-89592640D01*
X140183616Y-89756419D01*
X139825166Y-89886122D01*
X139462680Y-89979555D01*
X139102428Y-90034524D01*
X139021834Y-90041402D01*
X138789320Y-90054260D01*
X138566593Y-90058882D01*
X138363271Y-90055301D01*
X138188970Y-90043549D01*
X138143417Y-90038390D01*
X138062052Y-90025555D01*
X137954586Y-90005078D01*
X137835898Y-89979935D01*
X137736326Y-89956885D01*
X137337422Y-89839218D01*
X136957740Y-89684969D01*
X136599286Y-89495744D01*
X136264066Y-89273146D01*
X135954087Y-89018781D01*
X135671355Y-88734253D01*
X135417875Y-88421167D01*
X135195654Y-88081128D01*
X135050163Y-87808250D01*
X134889942Y-87431646D01*
X134770261Y-87048707D01*
X134690271Y-86662000D01*
X134649126Y-86274091D01*
X134645978Y-85887548D01*
X134679980Y-85504937D01*
X134750284Y-85128826D01*
X134856042Y-84761780D01*
X134996408Y-84406368D01*
X135170534Y-84065155D01*
X135377572Y-83740710D01*
X135616675Y-83435597D01*
X135886996Y-83152386D01*
X136187687Y-82893642D01*
X136517901Y-82661932D01*
X136803494Y-82497368D01*
X137148779Y-82338454D01*
X137513775Y-82212152D01*
X137891545Y-82119798D01*
X138275153Y-82062728D01*
X138657659Y-82042281D01*
X139032127Y-82059791D01*
G37*
X139032127Y-82059791D02*
X139059709Y-82062673D01*
X139463135Y-82127109D01*
X139852337Y-82230011D01*
X140225207Y-82369403D01*
X140579637Y-82543309D01*
X140913518Y-82749751D01*
X141224742Y-82986755D01*
X141511201Y-83252342D01*
X141770787Y-83544537D01*
X142001391Y-83861363D01*
X142200905Y-84200844D01*
X142367221Y-84561002D01*
X142498230Y-84939863D01*
X142591824Y-85335448D01*
X142600050Y-85381672D01*
X142648003Y-85783216D01*
X142654710Y-86184492D01*
X142621163Y-86582423D01*
X142548355Y-86973933D01*
X142437280Y-87355948D01*
X142288930Y-87725391D01*
X142104299Y-88079187D01*
X141884381Y-88414260D01*
X141630167Y-88727535D01*
X141463181Y-88902194D01*
X141345134Y-89016962D01*
X141246857Y-89108504D01*
X141159120Y-89184432D01*
X141072693Y-89252361D01*
X140978345Y-89319903D01*
X140866846Y-89394672D01*
X140863334Y-89396979D01*
X140531762Y-89592640D01*
X140183616Y-89756419D01*
X139825166Y-89886122D01*
X139462680Y-89979555D01*
X139102428Y-90034524D01*
X139021834Y-90041402D01*
X138789320Y-90054260D01*
X138566593Y-90058882D01*
X138363271Y-90055301D01*
X138188970Y-90043549D01*
X138143417Y-90038390D01*
X138062052Y-90025555D01*
X137954586Y-90005078D01*
X137835898Y-89979935D01*
X137736326Y-89956885D01*
X137337422Y-89839218D01*
X136957740Y-89684969D01*
X136599286Y-89495744D01*
X136264066Y-89273146D01*
X135954087Y-89018781D01*
X135671355Y-88734253D01*
X135417875Y-88421167D01*
X135195654Y-88081128D01*
X135050163Y-87808250D01*
X134889942Y-87431646D01*
X134770261Y-87048707D01*
X134690271Y-86662000D01*
X134649126Y-86274091D01*
X134645978Y-85887548D01*
X134679980Y-85504937D01*
X134750284Y-85128826D01*
X134856042Y-84761780D01*
X134996408Y-84406368D01*
X135170534Y-84065155D01*
X135377572Y-83740710D01*
X135616675Y-83435597D01*
X135886996Y-83152386D01*
X136187687Y-82893642D01*
X136517901Y-82661932D01*
X136803494Y-82497368D01*
X137148779Y-82338454D01*
X137513775Y-82212152D01*
X137891545Y-82119798D01*
X138275153Y-82062728D01*
X138657659Y-82042281D01*
X139032127Y-82059791D01*
X82604422Y-105956820D02*
X82915949Y-106008021D01*
X82915949Y-106008021D02*
X83095167Y-106056936D01*
X83095167Y-106056936D02*
X83387517Y-106170762D01*
X83387517Y-106170762D02*
X83659270Y-106319569D01*
X83659270Y-106319569D02*
X83908070Y-106500134D01*
X83908070Y-106500134D02*
X84131564Y-106709239D01*
X84131564Y-106709239D02*
X84327396Y-106943661D01*
X84327396Y-106943661D02*
X84493211Y-107200182D01*
X84493211Y-107200182D02*
X84626656Y-107475578D01*
X84626656Y-107475578D02*
X84725376Y-107766631D01*
X84725376Y-107766631D02*
X84787015Y-108070119D01*
X84787015Y-108070119D02*
X84809220Y-108382822D01*
X84809220Y-108382822D02*
X84809248Y-108401490D01*
X84809248Y-108401490D02*
X84787822Y-108717033D01*
X84787822Y-108717033D02*
X84726415Y-109025370D01*
X84726415Y-109025370D02*
X84627016Y-109322500D01*
X84627016Y-109322500D02*
X84491619Y-109604426D01*
X84491619Y-109604426D02*
X84322215Y-109867149D01*
X84322215Y-109867149D02*
X84120796Y-110106670D01*
X84120796Y-110106670D02*
X83889355Y-110318991D01*
X83889355Y-110318991D02*
X83831706Y-110363843D01*
X83831706Y-110363843D02*
X83666869Y-110474550D01*
X83666869Y-110474550D02*
X83475869Y-110580730D01*
X83475869Y-110580730D02*
X83274191Y-110674847D01*
X83274191Y-110674847D02*
X83077322Y-110749371D01*
X83077322Y-110749371D02*
X82978750Y-110778739D01*
X82978750Y-110778739D02*
X82890243Y-110800652D01*
X82890243Y-110800652D02*
X82809591Y-110816450D01*
X82809591Y-110816450D02*
X82726041Y-110827306D01*
X82726041Y-110827306D02*
X82628839Y-110834391D01*
X82628839Y-110834391D02*
X82507233Y-110838876D01*
X82507233Y-110838876D02*
X82407250Y-110841001D01*
X82407250Y-110841001D02*
X82279099Y-110842029D01*
X82279099Y-110842029D02*
X82157529Y-110840760D01*
X82157529Y-110840760D02*
X82052376Y-110837461D01*
X82052376Y-110837461D02*
X81973478Y-110832398D01*
X81973478Y-110832398D02*
X81941584Y-110828405D01*
X81941584Y-110828405D02*
X81781921Y-110792541D01*
X81781921Y-110792541D02*
X81606690Y-110741195D01*
X81606690Y-110741195D02*
X81435209Y-110680598D01*
X81435209Y-110680598D02*
X81287992Y-110617560D01*
X81287992Y-110617560D02*
X81105383Y-110521533D01*
X81105383Y-110521533D02*
X80943301Y-110417332D01*
X80943301Y-110417332D02*
X80787567Y-110294960D01*
X80787567Y-110294960D02*
X80642799Y-110162648D01*
X80642799Y-110162648D02*
X80425358Y-109925163D01*
X80425358Y-109925163D02*
X80244079Y-109666506D01*
X80244079Y-109666506D02*
X80098001Y-109385043D01*
X80098001Y-109385043D02*
X79986166Y-109079142D01*
X79986166Y-109079142D02*
X79967062Y-109012089D01*
X79967062Y-109012089D02*
X79947500Y-108937074D01*
X79947500Y-108937074D02*
X79933140Y-108871161D01*
X79933140Y-108871161D02*
X79923195Y-108805572D01*
X79923195Y-108805572D02*
X79916883Y-108731532D01*
X79916883Y-108731532D02*
X79913417Y-108640262D01*
X79913417Y-108640262D02*
X79912014Y-108522987D01*
X79912014Y-108522987D02*
X79911858Y-108394667D01*
X79911858Y-108394667D02*
X79912400Y-108248502D01*
X79912400Y-108248502D02*
X79914232Y-108135825D01*
X79914232Y-108135825D02*
X79918183Y-108047796D01*
X79918183Y-108047796D02*
X79925080Y-107975571D01*
X79925080Y-107975571D02*
X79935753Y-107910309D01*
X79935753Y-107910309D02*
X79951031Y-107843168D01*
X79951031Y-107843168D02*
X79970383Y-107770250D01*
X79970383Y-107770250D02*
X80073339Y-107471691D01*
X80073339Y-107471691D02*
X80212331Y-107189838D01*
X80212331Y-107189838D02*
X80384258Y-106928306D01*
X80384258Y-106928306D02*
X80586019Y-106690708D01*
X80586019Y-106690708D02*
X80814512Y-106480656D01*
X80814512Y-106480656D02*
X81066636Y-106301763D01*
X81066636Y-106301763D02*
X81339289Y-106157644D01*
X81339289Y-106157644D02*
X81363879Y-106146868D01*
X81363879Y-106146868D02*
X81662509Y-106040682D01*
X81662509Y-106040682D02*
X81972367Y-105973427D01*
X81972367Y-105973427D02*
X82288116Y-105945381D01*
X82288116Y-105945381D02*
X82604422Y-105956820D01*
X82604422Y-105956820D02*
X82604422Y-105956820D01*
G36*
X82604422Y-105956820D02*
G01*
X82915949Y-106008021D01*
X83095167Y-106056936D01*
X83387517Y-106170762D01*
X83659270Y-106319569D01*
X83908070Y-106500134D01*
X84131564Y-106709239D01*
X84327396Y-106943661D01*
X84493211Y-107200182D01*
X84626656Y-107475578D01*
X84725376Y-107766631D01*
X84787015Y-108070119D01*
X84809220Y-108382822D01*
X84809248Y-108401490D01*
X84787822Y-108717033D01*
X84726415Y-109025370D01*
X84627016Y-109322500D01*
X84491619Y-109604426D01*
X84322215Y-109867149D01*
X84120796Y-110106670D01*
X83889355Y-110318991D01*
X83831706Y-110363843D01*
X83666869Y-110474550D01*
X83475869Y-110580730D01*
X83274191Y-110674847D01*
X83077322Y-110749371D01*
X82978750Y-110778739D01*
X82890243Y-110800652D01*
X82809591Y-110816450D01*
X82726041Y-110827306D01*
X82628839Y-110834391D01*
X82507233Y-110838876D01*
X82407250Y-110841001D01*
X82279099Y-110842029D01*
X82157529Y-110840760D01*
X82052376Y-110837461D01*
X81973478Y-110832398D01*
X81941584Y-110828405D01*
X81781921Y-110792541D01*
X81606690Y-110741195D01*
X81435209Y-110680598D01*
X81287992Y-110617560D01*
X81105383Y-110521533D01*
X80943301Y-110417332D01*
X80787567Y-110294960D01*
X80642799Y-110162648D01*
X80425358Y-109925163D01*
X80244079Y-109666506D01*
X80098001Y-109385043D01*
X79986166Y-109079142D01*
X79967062Y-109012089D01*
X79947500Y-108937074D01*
X79933140Y-108871161D01*
X79923195Y-108805572D01*
X79916883Y-108731532D01*
X79913417Y-108640262D01*
X79912014Y-108522987D01*
X79911858Y-108394667D01*
X79912400Y-108248502D01*
X79914232Y-108135825D01*
X79918183Y-108047796D01*
X79925080Y-107975571D01*
X79935753Y-107910309D01*
X79951031Y-107843168D01*
X79970383Y-107770250D01*
X80073339Y-107471691D01*
X80212331Y-107189838D01*
X80384258Y-106928306D01*
X80586019Y-106690708D01*
X80814512Y-106480656D01*
X81066636Y-106301763D01*
X81339289Y-106157644D01*
X81363879Y-106146868D01*
X81662509Y-106040682D01*
X81972367Y-105973427D01*
X82288116Y-105945381D01*
X82604422Y-105956820D01*
G37*
X82604422Y-105956820D02*
X82915949Y-106008021D01*
X83095167Y-106056936D01*
X83387517Y-106170762D01*
X83659270Y-106319569D01*
X83908070Y-106500134D01*
X84131564Y-106709239D01*
X84327396Y-106943661D01*
X84493211Y-107200182D01*
X84626656Y-107475578D01*
X84725376Y-107766631D01*
X84787015Y-108070119D01*
X84809220Y-108382822D01*
X84809248Y-108401490D01*
X84787822Y-108717033D01*
X84726415Y-109025370D01*
X84627016Y-109322500D01*
X84491619Y-109604426D01*
X84322215Y-109867149D01*
X84120796Y-110106670D01*
X83889355Y-110318991D01*
X83831706Y-110363843D01*
X83666869Y-110474550D01*
X83475869Y-110580730D01*
X83274191Y-110674847D01*
X83077322Y-110749371D01*
X82978750Y-110778739D01*
X82890243Y-110800652D01*
X82809591Y-110816450D01*
X82726041Y-110827306D01*
X82628839Y-110834391D01*
X82507233Y-110838876D01*
X82407250Y-110841001D01*
X82279099Y-110842029D01*
X82157529Y-110840760D01*
X82052376Y-110837461D01*
X81973478Y-110832398D01*
X81941584Y-110828405D01*
X81781921Y-110792541D01*
X81606690Y-110741195D01*
X81435209Y-110680598D01*
X81287992Y-110617560D01*
X81105383Y-110521533D01*
X80943301Y-110417332D01*
X80787567Y-110294960D01*
X80642799Y-110162648D01*
X80425358Y-109925163D01*
X80244079Y-109666506D01*
X80098001Y-109385043D01*
X79986166Y-109079142D01*
X79967062Y-109012089D01*
X79947500Y-108937074D01*
X79933140Y-108871161D01*
X79923195Y-108805572D01*
X79916883Y-108731532D01*
X79913417Y-108640262D01*
X79912014Y-108522987D01*
X79911858Y-108394667D01*
X79912400Y-108248502D01*
X79914232Y-108135825D01*
X79918183Y-108047796D01*
X79925080Y-107975571D01*
X79935753Y-107910309D01*
X79951031Y-107843168D01*
X79970383Y-107770250D01*
X80073339Y-107471691D01*
X80212331Y-107189838D01*
X80384258Y-106928306D01*
X80586019Y-106690708D01*
X80814512Y-106480656D01*
X81066636Y-106301763D01*
X81339289Y-106157644D01*
X81363879Y-106146868D01*
X81662509Y-106040682D01*
X81972367Y-105973427D01*
X82288116Y-105945381D01*
X82604422Y-105956820D01*
X90554422Y-98006820D02*
X90865949Y-98058021D01*
X90865949Y-98058021D02*
X91045167Y-98106936D01*
X91045167Y-98106936D02*
X91337517Y-98220762D01*
X91337517Y-98220762D02*
X91609270Y-98369569D01*
X91609270Y-98369569D02*
X91858070Y-98550134D01*
X91858070Y-98550134D02*
X92081564Y-98759239D01*
X92081564Y-98759239D02*
X92277396Y-98993661D01*
X92277396Y-98993661D02*
X92443211Y-99250182D01*
X92443211Y-99250182D02*
X92576656Y-99525578D01*
X92576656Y-99525578D02*
X92675376Y-99816631D01*
X92675376Y-99816631D02*
X92737015Y-100120119D01*
X92737015Y-100120119D02*
X92759220Y-100432822D01*
X92759220Y-100432822D02*
X92759248Y-100451490D01*
X92759248Y-100451490D02*
X92737822Y-100767033D01*
X92737822Y-100767033D02*
X92676415Y-101075370D01*
X92676415Y-101075370D02*
X92577016Y-101372500D01*
X92577016Y-101372500D02*
X92441619Y-101654426D01*
X92441619Y-101654426D02*
X92272215Y-101917149D01*
X92272215Y-101917149D02*
X92070796Y-102156670D01*
X92070796Y-102156670D02*
X91839355Y-102368991D01*
X91839355Y-102368991D02*
X91781706Y-102413843D01*
X91781706Y-102413843D02*
X91616869Y-102524550D01*
X91616869Y-102524550D02*
X91425869Y-102630730D01*
X91425869Y-102630730D02*
X91224191Y-102724847D01*
X91224191Y-102724847D02*
X91027322Y-102799371D01*
X91027322Y-102799371D02*
X90928750Y-102828739D01*
X90928750Y-102828739D02*
X90840243Y-102850652D01*
X90840243Y-102850652D02*
X90759591Y-102866450D01*
X90759591Y-102866450D02*
X90676041Y-102877306D01*
X90676041Y-102877306D02*
X90578839Y-102884391D01*
X90578839Y-102884391D02*
X90457233Y-102888876D01*
X90457233Y-102888876D02*
X90357250Y-102891001D01*
X90357250Y-102891001D02*
X90229099Y-102892029D01*
X90229099Y-102892029D02*
X90107529Y-102890760D01*
X90107529Y-102890760D02*
X90002376Y-102887461D01*
X90002376Y-102887461D02*
X89923478Y-102882398D01*
X89923478Y-102882398D02*
X89891584Y-102878405D01*
X89891584Y-102878405D02*
X89731921Y-102842541D01*
X89731921Y-102842541D02*
X89556690Y-102791195D01*
X89556690Y-102791195D02*
X89385209Y-102730598D01*
X89385209Y-102730598D02*
X89237992Y-102667560D01*
X89237992Y-102667560D02*
X89055383Y-102571533D01*
X89055383Y-102571533D02*
X88893301Y-102467332D01*
X88893301Y-102467332D02*
X88737567Y-102344960D01*
X88737567Y-102344960D02*
X88592799Y-102212648D01*
X88592799Y-102212648D02*
X88375358Y-101975163D01*
X88375358Y-101975163D02*
X88194079Y-101716506D01*
X88194079Y-101716506D02*
X88048001Y-101435043D01*
X88048001Y-101435043D02*
X87936166Y-101129142D01*
X87936166Y-101129142D02*
X87917062Y-101062089D01*
X87917062Y-101062089D02*
X87897500Y-100987074D01*
X87897500Y-100987074D02*
X87883140Y-100921161D01*
X87883140Y-100921161D02*
X87873195Y-100855572D01*
X87873195Y-100855572D02*
X87866883Y-100781532D01*
X87866883Y-100781532D02*
X87863417Y-100690262D01*
X87863417Y-100690262D02*
X87862014Y-100572987D01*
X87862014Y-100572987D02*
X87861858Y-100444667D01*
X87861858Y-100444667D02*
X87862400Y-100298502D01*
X87862400Y-100298502D02*
X87864232Y-100185825D01*
X87864232Y-100185825D02*
X87868183Y-100097796D01*
X87868183Y-100097796D02*
X87875080Y-100025571D01*
X87875080Y-100025571D02*
X87885753Y-99960309D01*
X87885753Y-99960309D02*
X87901031Y-99893168D01*
X87901031Y-99893168D02*
X87920383Y-99820250D01*
X87920383Y-99820250D02*
X88023339Y-99521691D01*
X88023339Y-99521691D02*
X88162331Y-99239838D01*
X88162331Y-99239838D02*
X88334258Y-98978306D01*
X88334258Y-98978306D02*
X88536019Y-98740708D01*
X88536019Y-98740708D02*
X88764512Y-98530656D01*
X88764512Y-98530656D02*
X89016636Y-98351763D01*
X89016636Y-98351763D02*
X89289289Y-98207644D01*
X89289289Y-98207644D02*
X89313879Y-98196868D01*
X89313879Y-98196868D02*
X89612509Y-98090682D01*
X89612509Y-98090682D02*
X89922367Y-98023427D01*
X89922367Y-98023427D02*
X90238116Y-97995381D01*
X90238116Y-97995381D02*
X90554422Y-98006820D01*
X90554422Y-98006820D02*
X90554422Y-98006820D01*
G36*
X90554422Y-98006820D02*
G01*
X90865949Y-98058021D01*
X91045167Y-98106936D01*
X91337517Y-98220762D01*
X91609270Y-98369569D01*
X91858070Y-98550134D01*
X92081564Y-98759239D01*
X92277396Y-98993661D01*
X92443211Y-99250182D01*
X92576656Y-99525578D01*
X92675376Y-99816631D01*
X92737015Y-100120119D01*
X92759220Y-100432822D01*
X92759248Y-100451490D01*
X92737822Y-100767033D01*
X92676415Y-101075370D01*
X92577016Y-101372500D01*
X92441619Y-101654426D01*
X92272215Y-101917149D01*
X92070796Y-102156670D01*
X91839355Y-102368991D01*
X91781706Y-102413843D01*
X91616869Y-102524550D01*
X91425869Y-102630730D01*
X91224191Y-102724847D01*
X91027322Y-102799371D01*
X90928750Y-102828739D01*
X90840243Y-102850652D01*
X90759591Y-102866450D01*
X90676041Y-102877306D01*
X90578839Y-102884391D01*
X90457233Y-102888876D01*
X90357250Y-102891001D01*
X90229099Y-102892029D01*
X90107529Y-102890760D01*
X90002376Y-102887461D01*
X89923478Y-102882398D01*
X89891584Y-102878405D01*
X89731921Y-102842541D01*
X89556690Y-102791195D01*
X89385209Y-102730598D01*
X89237992Y-102667560D01*
X89055383Y-102571533D01*
X88893301Y-102467332D01*
X88737567Y-102344960D01*
X88592799Y-102212648D01*
X88375358Y-101975163D01*
X88194079Y-101716506D01*
X88048001Y-101435043D01*
X87936166Y-101129142D01*
X87917062Y-101062089D01*
X87897500Y-100987074D01*
X87883140Y-100921161D01*
X87873195Y-100855572D01*
X87866883Y-100781532D01*
X87863417Y-100690262D01*
X87862014Y-100572987D01*
X87861858Y-100444667D01*
X87862400Y-100298502D01*
X87864232Y-100185825D01*
X87868183Y-100097796D01*
X87875080Y-100025571D01*
X87885753Y-99960309D01*
X87901031Y-99893168D01*
X87920383Y-99820250D01*
X88023339Y-99521691D01*
X88162331Y-99239838D01*
X88334258Y-98978306D01*
X88536019Y-98740708D01*
X88764512Y-98530656D01*
X89016636Y-98351763D01*
X89289289Y-98207644D01*
X89313879Y-98196868D01*
X89612509Y-98090682D01*
X89922367Y-98023427D01*
X90238116Y-97995381D01*
X90554422Y-98006820D01*
G37*
X90554422Y-98006820D02*
X90865949Y-98058021D01*
X91045167Y-98106936D01*
X91337517Y-98220762D01*
X91609270Y-98369569D01*
X91858070Y-98550134D01*
X92081564Y-98759239D01*
X92277396Y-98993661D01*
X92443211Y-99250182D01*
X92576656Y-99525578D01*
X92675376Y-99816631D01*
X92737015Y-100120119D01*
X92759220Y-100432822D01*
X92759248Y-100451490D01*
X92737822Y-100767033D01*
X92676415Y-101075370D01*
X92577016Y-101372500D01*
X92441619Y-101654426D01*
X92272215Y-101917149D01*
X92070796Y-102156670D01*
X91839355Y-102368991D01*
X91781706Y-102413843D01*
X91616869Y-102524550D01*
X91425869Y-102630730D01*
X91224191Y-102724847D01*
X91027322Y-102799371D01*
X90928750Y-102828739D01*
X90840243Y-102850652D01*
X90759591Y-102866450D01*
X90676041Y-102877306D01*
X90578839Y-102884391D01*
X90457233Y-102888876D01*
X90357250Y-102891001D01*
X90229099Y-102892029D01*
X90107529Y-102890760D01*
X90002376Y-102887461D01*
X89923478Y-102882398D01*
X89891584Y-102878405D01*
X89731921Y-102842541D01*
X89556690Y-102791195D01*
X89385209Y-102730598D01*
X89237992Y-102667560D01*
X89055383Y-102571533D01*
X88893301Y-102467332D01*
X88737567Y-102344960D01*
X88592799Y-102212648D01*
X88375358Y-101975163D01*
X88194079Y-101716506D01*
X88048001Y-101435043D01*
X87936166Y-101129142D01*
X87917062Y-101062089D01*
X87897500Y-100987074D01*
X87883140Y-100921161D01*
X87873195Y-100855572D01*
X87866883Y-100781532D01*
X87863417Y-100690262D01*
X87862014Y-100572987D01*
X87861858Y-100444667D01*
X87862400Y-100298502D01*
X87864232Y-100185825D01*
X87868183Y-100097796D01*
X87875080Y-100025571D01*
X87885753Y-99960309D01*
X87901031Y-99893168D01*
X87920383Y-99820250D01*
X88023339Y-99521691D01*
X88162331Y-99239838D01*
X88334258Y-98978306D01*
X88536019Y-98740708D01*
X88764512Y-98530656D01*
X89016636Y-98351763D01*
X89289289Y-98207644D01*
X89313879Y-98196868D01*
X89612509Y-98090682D01*
X89922367Y-98023427D01*
X90238116Y-97995381D01*
X90554422Y-98006820D01*
X98504422Y-105956820D02*
X98815949Y-106008021D01*
X98815949Y-106008021D02*
X98995167Y-106056936D01*
X98995167Y-106056936D02*
X99287517Y-106170762D01*
X99287517Y-106170762D02*
X99559270Y-106319569D01*
X99559270Y-106319569D02*
X99808070Y-106500134D01*
X99808070Y-106500134D02*
X100031564Y-106709239D01*
X100031564Y-106709239D02*
X100227396Y-106943661D01*
X100227396Y-106943661D02*
X100393211Y-107200182D01*
X100393211Y-107200182D02*
X100526656Y-107475578D01*
X100526656Y-107475578D02*
X100625376Y-107766631D01*
X100625376Y-107766631D02*
X100687015Y-108070119D01*
X100687015Y-108070119D02*
X100709220Y-108382822D01*
X100709220Y-108382822D02*
X100709248Y-108401490D01*
X100709248Y-108401490D02*
X100687822Y-108717033D01*
X100687822Y-108717033D02*
X100626415Y-109025370D01*
X100626415Y-109025370D02*
X100527016Y-109322500D01*
X100527016Y-109322500D02*
X100391619Y-109604426D01*
X100391619Y-109604426D02*
X100222215Y-109867149D01*
X100222215Y-109867149D02*
X100020796Y-110106670D01*
X100020796Y-110106670D02*
X99789355Y-110318991D01*
X99789355Y-110318991D02*
X99731706Y-110363843D01*
X99731706Y-110363843D02*
X99566869Y-110474550D01*
X99566869Y-110474550D02*
X99375869Y-110580730D01*
X99375869Y-110580730D02*
X99174191Y-110674847D01*
X99174191Y-110674847D02*
X98977322Y-110749371D01*
X98977322Y-110749371D02*
X98878750Y-110778739D01*
X98878750Y-110778739D02*
X98790243Y-110800652D01*
X98790243Y-110800652D02*
X98709591Y-110816450D01*
X98709591Y-110816450D02*
X98626041Y-110827306D01*
X98626041Y-110827306D02*
X98528839Y-110834391D01*
X98528839Y-110834391D02*
X98407233Y-110838876D01*
X98407233Y-110838876D02*
X98307250Y-110841001D01*
X98307250Y-110841001D02*
X98179099Y-110842029D01*
X98179099Y-110842029D02*
X98057529Y-110840760D01*
X98057529Y-110840760D02*
X97952376Y-110837461D01*
X97952376Y-110837461D02*
X97873478Y-110832398D01*
X97873478Y-110832398D02*
X97841584Y-110828405D01*
X97841584Y-110828405D02*
X97681921Y-110792541D01*
X97681921Y-110792541D02*
X97506690Y-110741195D01*
X97506690Y-110741195D02*
X97335209Y-110680598D01*
X97335209Y-110680598D02*
X97187992Y-110617560D01*
X97187992Y-110617560D02*
X97005383Y-110521533D01*
X97005383Y-110521533D02*
X96843301Y-110417332D01*
X96843301Y-110417332D02*
X96687567Y-110294960D01*
X96687567Y-110294960D02*
X96542799Y-110162648D01*
X96542799Y-110162648D02*
X96325358Y-109925163D01*
X96325358Y-109925163D02*
X96144079Y-109666506D01*
X96144079Y-109666506D02*
X95998001Y-109385043D01*
X95998001Y-109385043D02*
X95886166Y-109079142D01*
X95886166Y-109079142D02*
X95867062Y-109012089D01*
X95867062Y-109012089D02*
X95847500Y-108937074D01*
X95847500Y-108937074D02*
X95833140Y-108871161D01*
X95833140Y-108871161D02*
X95823195Y-108805572D01*
X95823195Y-108805572D02*
X95816883Y-108731532D01*
X95816883Y-108731532D02*
X95813417Y-108640262D01*
X95813417Y-108640262D02*
X95812014Y-108522987D01*
X95812014Y-108522987D02*
X95811858Y-108394667D01*
X95811858Y-108394667D02*
X95812400Y-108248502D01*
X95812400Y-108248502D02*
X95814232Y-108135825D01*
X95814232Y-108135825D02*
X95818183Y-108047796D01*
X95818183Y-108047796D02*
X95825080Y-107975571D01*
X95825080Y-107975571D02*
X95835753Y-107910309D01*
X95835753Y-107910309D02*
X95851031Y-107843168D01*
X95851031Y-107843168D02*
X95870383Y-107770250D01*
X95870383Y-107770250D02*
X95973339Y-107471691D01*
X95973339Y-107471691D02*
X96112331Y-107189838D01*
X96112331Y-107189838D02*
X96284258Y-106928306D01*
X96284258Y-106928306D02*
X96486019Y-106690708D01*
X96486019Y-106690708D02*
X96714512Y-106480656D01*
X96714512Y-106480656D02*
X96966636Y-106301763D01*
X96966636Y-106301763D02*
X97239289Y-106157644D01*
X97239289Y-106157644D02*
X97263879Y-106146868D01*
X97263879Y-106146868D02*
X97562509Y-106040682D01*
X97562509Y-106040682D02*
X97872367Y-105973427D01*
X97872367Y-105973427D02*
X98188116Y-105945381D01*
X98188116Y-105945381D02*
X98504422Y-105956820D01*
X98504422Y-105956820D02*
X98504422Y-105956820D01*
G36*
X98504422Y-105956820D02*
G01*
X98815949Y-106008021D01*
X98995167Y-106056936D01*
X99287517Y-106170762D01*
X99559270Y-106319569D01*
X99808070Y-106500134D01*
X100031564Y-106709239D01*
X100227396Y-106943661D01*
X100393211Y-107200182D01*
X100526656Y-107475578D01*
X100625376Y-107766631D01*
X100687015Y-108070119D01*
X100709220Y-108382822D01*
X100709248Y-108401490D01*
X100687822Y-108717033D01*
X100626415Y-109025370D01*
X100527016Y-109322500D01*
X100391619Y-109604426D01*
X100222215Y-109867149D01*
X100020796Y-110106670D01*
X99789355Y-110318991D01*
X99731706Y-110363843D01*
X99566869Y-110474550D01*
X99375869Y-110580730D01*
X99174191Y-110674847D01*
X98977322Y-110749371D01*
X98878750Y-110778739D01*
X98790243Y-110800652D01*
X98709591Y-110816450D01*
X98626041Y-110827306D01*
X98528839Y-110834391D01*
X98407233Y-110838876D01*
X98307250Y-110841001D01*
X98179099Y-110842029D01*
X98057529Y-110840760D01*
X97952376Y-110837461D01*
X97873478Y-110832398D01*
X97841584Y-110828405D01*
X97681921Y-110792541D01*
X97506690Y-110741195D01*
X97335209Y-110680598D01*
X97187992Y-110617560D01*
X97005383Y-110521533D01*
X96843301Y-110417332D01*
X96687567Y-110294960D01*
X96542799Y-110162648D01*
X96325358Y-109925163D01*
X96144079Y-109666506D01*
X95998001Y-109385043D01*
X95886166Y-109079142D01*
X95867062Y-109012089D01*
X95847500Y-108937074D01*
X95833140Y-108871161D01*
X95823195Y-108805572D01*
X95816883Y-108731532D01*
X95813417Y-108640262D01*
X95812014Y-108522987D01*
X95811858Y-108394667D01*
X95812400Y-108248502D01*
X95814232Y-108135825D01*
X95818183Y-108047796D01*
X95825080Y-107975571D01*
X95835753Y-107910309D01*
X95851031Y-107843168D01*
X95870383Y-107770250D01*
X95973339Y-107471691D01*
X96112331Y-107189838D01*
X96284258Y-106928306D01*
X96486019Y-106690708D01*
X96714512Y-106480656D01*
X96966636Y-106301763D01*
X97239289Y-106157644D01*
X97263879Y-106146868D01*
X97562509Y-106040682D01*
X97872367Y-105973427D01*
X98188116Y-105945381D01*
X98504422Y-105956820D01*
G37*
X98504422Y-105956820D02*
X98815949Y-106008021D01*
X98995167Y-106056936D01*
X99287517Y-106170762D01*
X99559270Y-106319569D01*
X99808070Y-106500134D01*
X100031564Y-106709239D01*
X100227396Y-106943661D01*
X100393211Y-107200182D01*
X100526656Y-107475578D01*
X100625376Y-107766631D01*
X100687015Y-108070119D01*
X100709220Y-108382822D01*
X100709248Y-108401490D01*
X100687822Y-108717033D01*
X100626415Y-109025370D01*
X100527016Y-109322500D01*
X100391619Y-109604426D01*
X100222215Y-109867149D01*
X100020796Y-110106670D01*
X99789355Y-110318991D01*
X99731706Y-110363843D01*
X99566869Y-110474550D01*
X99375869Y-110580730D01*
X99174191Y-110674847D01*
X98977322Y-110749371D01*
X98878750Y-110778739D01*
X98790243Y-110800652D01*
X98709591Y-110816450D01*
X98626041Y-110827306D01*
X98528839Y-110834391D01*
X98407233Y-110838876D01*
X98307250Y-110841001D01*
X98179099Y-110842029D01*
X98057529Y-110840760D01*
X97952376Y-110837461D01*
X97873478Y-110832398D01*
X97841584Y-110828405D01*
X97681921Y-110792541D01*
X97506690Y-110741195D01*
X97335209Y-110680598D01*
X97187992Y-110617560D01*
X97005383Y-110521533D01*
X96843301Y-110417332D01*
X96687567Y-110294960D01*
X96542799Y-110162648D01*
X96325358Y-109925163D01*
X96144079Y-109666506D01*
X95998001Y-109385043D01*
X95886166Y-109079142D01*
X95867062Y-109012089D01*
X95847500Y-108937074D01*
X95833140Y-108871161D01*
X95823195Y-108805572D01*
X95816883Y-108731532D01*
X95813417Y-108640262D01*
X95812014Y-108522987D01*
X95811858Y-108394667D01*
X95812400Y-108248502D01*
X95814232Y-108135825D01*
X95818183Y-108047796D01*
X95825080Y-107975571D01*
X95835753Y-107910309D01*
X95851031Y-107843168D01*
X95870383Y-107770250D01*
X95973339Y-107471691D01*
X96112331Y-107189838D01*
X96284258Y-106928306D01*
X96486019Y-106690708D01*
X96714512Y-106480656D01*
X96966636Y-106301763D01*
X97239289Y-106157644D01*
X97263879Y-106146868D01*
X97562509Y-106040682D01*
X97872367Y-105973427D01*
X98188116Y-105945381D01*
X98504422Y-105956820D01*
X90554422Y-113906820D02*
X90865949Y-113958021D01*
X90865949Y-113958021D02*
X91045167Y-114006936D01*
X91045167Y-114006936D02*
X91337517Y-114120762D01*
X91337517Y-114120762D02*
X91609270Y-114269569D01*
X91609270Y-114269569D02*
X91858070Y-114450134D01*
X91858070Y-114450134D02*
X92081564Y-114659239D01*
X92081564Y-114659239D02*
X92277396Y-114893661D01*
X92277396Y-114893661D02*
X92443211Y-115150182D01*
X92443211Y-115150182D02*
X92576656Y-115425578D01*
X92576656Y-115425578D02*
X92675376Y-115716631D01*
X92675376Y-115716631D02*
X92737015Y-116020119D01*
X92737015Y-116020119D02*
X92759220Y-116332822D01*
X92759220Y-116332822D02*
X92759248Y-116351490D01*
X92759248Y-116351490D02*
X92737822Y-116667033D01*
X92737822Y-116667033D02*
X92676415Y-116975370D01*
X92676415Y-116975370D02*
X92577016Y-117272500D01*
X92577016Y-117272500D02*
X92441619Y-117554426D01*
X92441619Y-117554426D02*
X92272215Y-117817149D01*
X92272215Y-117817149D02*
X92070796Y-118056670D01*
X92070796Y-118056670D02*
X91839355Y-118268991D01*
X91839355Y-118268991D02*
X91781706Y-118313843D01*
X91781706Y-118313843D02*
X91616869Y-118424550D01*
X91616869Y-118424550D02*
X91425869Y-118530730D01*
X91425869Y-118530730D02*
X91224191Y-118624847D01*
X91224191Y-118624847D02*
X91027322Y-118699371D01*
X91027322Y-118699371D02*
X90928750Y-118728739D01*
X90928750Y-118728739D02*
X90840243Y-118750652D01*
X90840243Y-118750652D02*
X90759591Y-118766450D01*
X90759591Y-118766450D02*
X90676041Y-118777306D01*
X90676041Y-118777306D02*
X90578839Y-118784391D01*
X90578839Y-118784391D02*
X90457233Y-118788876D01*
X90457233Y-118788876D02*
X90357250Y-118791001D01*
X90357250Y-118791001D02*
X90229099Y-118792029D01*
X90229099Y-118792029D02*
X90107529Y-118790760D01*
X90107529Y-118790760D02*
X90002376Y-118787461D01*
X90002376Y-118787461D02*
X89923478Y-118782398D01*
X89923478Y-118782398D02*
X89891584Y-118778405D01*
X89891584Y-118778405D02*
X89731921Y-118742541D01*
X89731921Y-118742541D02*
X89556690Y-118691195D01*
X89556690Y-118691195D02*
X89385209Y-118630598D01*
X89385209Y-118630598D02*
X89237992Y-118567560D01*
X89237992Y-118567560D02*
X89055383Y-118471533D01*
X89055383Y-118471533D02*
X88893301Y-118367332D01*
X88893301Y-118367332D02*
X88737567Y-118244960D01*
X88737567Y-118244960D02*
X88592799Y-118112648D01*
X88592799Y-118112648D02*
X88375358Y-117875163D01*
X88375358Y-117875163D02*
X88194079Y-117616506D01*
X88194079Y-117616506D02*
X88048001Y-117335043D01*
X88048001Y-117335043D02*
X87936166Y-117029142D01*
X87936166Y-117029142D02*
X87917062Y-116962089D01*
X87917062Y-116962089D02*
X87897500Y-116887074D01*
X87897500Y-116887074D02*
X87883140Y-116821161D01*
X87883140Y-116821161D02*
X87873195Y-116755572D01*
X87873195Y-116755572D02*
X87866883Y-116681532D01*
X87866883Y-116681532D02*
X87863417Y-116590262D01*
X87863417Y-116590262D02*
X87862014Y-116472987D01*
X87862014Y-116472987D02*
X87861858Y-116344667D01*
X87861858Y-116344667D02*
X87862400Y-116198502D01*
X87862400Y-116198502D02*
X87864232Y-116085825D01*
X87864232Y-116085825D02*
X87868183Y-115997796D01*
X87868183Y-115997796D02*
X87875080Y-115925571D01*
X87875080Y-115925571D02*
X87885753Y-115860309D01*
X87885753Y-115860309D02*
X87901031Y-115793168D01*
X87901031Y-115793168D02*
X87920383Y-115720250D01*
X87920383Y-115720250D02*
X88023339Y-115421691D01*
X88023339Y-115421691D02*
X88162331Y-115139838D01*
X88162331Y-115139838D02*
X88334258Y-114878306D01*
X88334258Y-114878306D02*
X88536019Y-114640708D01*
X88536019Y-114640708D02*
X88764512Y-114430656D01*
X88764512Y-114430656D02*
X89016636Y-114251763D01*
X89016636Y-114251763D02*
X89289289Y-114107644D01*
X89289289Y-114107644D02*
X89313879Y-114096868D01*
X89313879Y-114096868D02*
X89612509Y-113990682D01*
X89612509Y-113990682D02*
X89922367Y-113923427D01*
X89922367Y-113923427D02*
X90238116Y-113895381D01*
X90238116Y-113895381D02*
X90554422Y-113906820D01*
X90554422Y-113906820D02*
X90554422Y-113906820D01*
G36*
X90554422Y-113906820D02*
G01*
X90865949Y-113958021D01*
X91045167Y-114006936D01*
X91337517Y-114120762D01*
X91609270Y-114269569D01*
X91858070Y-114450134D01*
X92081564Y-114659239D01*
X92277396Y-114893661D01*
X92443211Y-115150182D01*
X92576656Y-115425578D01*
X92675376Y-115716631D01*
X92737015Y-116020119D01*
X92759220Y-116332822D01*
X92759248Y-116351490D01*
X92737822Y-116667033D01*
X92676415Y-116975370D01*
X92577016Y-117272500D01*
X92441619Y-117554426D01*
X92272215Y-117817149D01*
X92070796Y-118056670D01*
X91839355Y-118268991D01*
X91781706Y-118313843D01*
X91616869Y-118424550D01*
X91425869Y-118530730D01*
X91224191Y-118624847D01*
X91027322Y-118699371D01*
X90928750Y-118728739D01*
X90840243Y-118750652D01*
X90759591Y-118766450D01*
X90676041Y-118777306D01*
X90578839Y-118784391D01*
X90457233Y-118788876D01*
X90357250Y-118791001D01*
X90229099Y-118792029D01*
X90107529Y-118790760D01*
X90002376Y-118787461D01*
X89923478Y-118782398D01*
X89891584Y-118778405D01*
X89731921Y-118742541D01*
X89556690Y-118691195D01*
X89385209Y-118630598D01*
X89237992Y-118567560D01*
X89055383Y-118471533D01*
X88893301Y-118367332D01*
X88737567Y-118244960D01*
X88592799Y-118112648D01*
X88375358Y-117875163D01*
X88194079Y-117616506D01*
X88048001Y-117335043D01*
X87936166Y-117029142D01*
X87917062Y-116962089D01*
X87897500Y-116887074D01*
X87883140Y-116821161D01*
X87873195Y-116755572D01*
X87866883Y-116681532D01*
X87863417Y-116590262D01*
X87862014Y-116472987D01*
X87861858Y-116344667D01*
X87862400Y-116198502D01*
X87864232Y-116085825D01*
X87868183Y-115997796D01*
X87875080Y-115925571D01*
X87885753Y-115860309D01*
X87901031Y-115793168D01*
X87920383Y-115720250D01*
X88023339Y-115421691D01*
X88162331Y-115139838D01*
X88334258Y-114878306D01*
X88536019Y-114640708D01*
X88764512Y-114430656D01*
X89016636Y-114251763D01*
X89289289Y-114107644D01*
X89313879Y-114096868D01*
X89612509Y-113990682D01*
X89922367Y-113923427D01*
X90238116Y-113895381D01*
X90554422Y-113906820D01*
G37*
X90554422Y-113906820D02*
X90865949Y-113958021D01*
X91045167Y-114006936D01*
X91337517Y-114120762D01*
X91609270Y-114269569D01*
X91858070Y-114450134D01*
X92081564Y-114659239D01*
X92277396Y-114893661D01*
X92443211Y-115150182D01*
X92576656Y-115425578D01*
X92675376Y-115716631D01*
X92737015Y-116020119D01*
X92759220Y-116332822D01*
X92759248Y-116351490D01*
X92737822Y-116667033D01*
X92676415Y-116975370D01*
X92577016Y-117272500D01*
X92441619Y-117554426D01*
X92272215Y-117817149D01*
X92070796Y-118056670D01*
X91839355Y-118268991D01*
X91781706Y-118313843D01*
X91616869Y-118424550D01*
X91425869Y-118530730D01*
X91224191Y-118624847D01*
X91027322Y-118699371D01*
X90928750Y-118728739D01*
X90840243Y-118750652D01*
X90759591Y-118766450D01*
X90676041Y-118777306D01*
X90578839Y-118784391D01*
X90457233Y-118788876D01*
X90357250Y-118791001D01*
X90229099Y-118792029D01*
X90107529Y-118790760D01*
X90002376Y-118787461D01*
X89923478Y-118782398D01*
X89891584Y-118778405D01*
X89731921Y-118742541D01*
X89556690Y-118691195D01*
X89385209Y-118630598D01*
X89237992Y-118567560D01*
X89055383Y-118471533D01*
X88893301Y-118367332D01*
X88737567Y-118244960D01*
X88592799Y-118112648D01*
X88375358Y-117875163D01*
X88194079Y-117616506D01*
X88048001Y-117335043D01*
X87936166Y-117029142D01*
X87917062Y-116962089D01*
X87897500Y-116887074D01*
X87883140Y-116821161D01*
X87873195Y-116755572D01*
X87866883Y-116681532D01*
X87863417Y-116590262D01*
X87862014Y-116472987D01*
X87861858Y-116344667D01*
X87862400Y-116198502D01*
X87864232Y-116085825D01*
X87868183Y-115997796D01*
X87875080Y-115925571D01*
X87885753Y-115860309D01*
X87901031Y-115793168D01*
X87920383Y-115720250D01*
X88023339Y-115421691D01*
X88162331Y-115139838D01*
X88334258Y-114878306D01*
X88536019Y-114640708D01*
X88764512Y-114430656D01*
X89016636Y-114251763D01*
X89289289Y-114107644D01*
X89313879Y-114096868D01*
X89612509Y-113990682D01*
X89922367Y-113923427D01*
X90238116Y-113895381D01*
X90554422Y-113906820D01*
X115356000Y-81481167D02*
X112607861Y-81481167D01*
X112607861Y-81481167D02*
X112270182Y-81481060D01*
X112270182Y-81481060D02*
X111944207Y-81480749D01*
X111944207Y-81480749D02*
X111632441Y-81480245D01*
X111632441Y-81480245D02*
X111337387Y-81479562D01*
X111337387Y-81479562D02*
X111061550Y-81478713D01*
X111061550Y-81478713D02*
X110807435Y-81477710D01*
X110807435Y-81477710D02*
X110577544Y-81476566D01*
X110577544Y-81476566D02*
X110374382Y-81475295D01*
X110374382Y-81475295D02*
X110200453Y-81473907D01*
X110200453Y-81473907D02*
X110058261Y-81472418D01*
X110058261Y-81472418D02*
X109950310Y-81470838D01*
X109950310Y-81470838D02*
X109879105Y-81469182D01*
X109879105Y-81469182D02*
X109847149Y-81467462D01*
X109847149Y-81467462D02*
X109845611Y-81467056D01*
X109845611Y-81467056D02*
X109843949Y-81444602D01*
X109843949Y-81444602D02*
X109842342Y-81382214D01*
X109842342Y-81382214D02*
X109840802Y-81282290D01*
X109840802Y-81282290D02*
X109839341Y-81147229D01*
X109839341Y-81147229D02*
X109837969Y-80979430D01*
X109837969Y-80979430D02*
X109836697Y-80781290D01*
X109836697Y-80781290D02*
X109835538Y-80555210D01*
X109835538Y-80555210D02*
X109834502Y-80303587D01*
X109834502Y-80303587D02*
X109833600Y-80028820D01*
X109833600Y-80028820D02*
X109832844Y-79733308D01*
X109832844Y-79733308D02*
X109832246Y-79419450D01*
X109832246Y-79419450D02*
X109831815Y-79089644D01*
X109831815Y-79089644D02*
X109831564Y-78746290D01*
X109831564Y-78746290D02*
X109831500Y-78461389D01*
X109831500Y-78461389D02*
X109831500Y-75469834D01*
X109831500Y-75469834D02*
X115356000Y-75469834D01*
X115356000Y-75469834D02*
X115356000Y-81481167D01*
X115356000Y-81481167D02*
X115356000Y-81481167D01*
G36*
X115356000Y-81481167D02*
G01*
X112607861Y-81481167D01*
X112270182Y-81481060D01*
X111944207Y-81480749D01*
X111632441Y-81480245D01*
X111337387Y-81479562D01*
X111061550Y-81478713D01*
X110807435Y-81477710D01*
X110577544Y-81476566D01*
X110374382Y-81475295D01*
X110200453Y-81473907D01*
X110058261Y-81472418D01*
X109950310Y-81470838D01*
X109879105Y-81469182D01*
X109847149Y-81467462D01*
X109845611Y-81467056D01*
X109843949Y-81444602D01*
X109842342Y-81382214D01*
X109840802Y-81282290D01*
X109839341Y-81147229D01*
X109837969Y-80979430D01*
X109836697Y-80781290D01*
X109835538Y-80555210D01*
X109834502Y-80303587D01*
X109833600Y-80028820D01*
X109832844Y-79733308D01*
X109832246Y-79419450D01*
X109831815Y-79089644D01*
X109831564Y-78746290D01*
X109831500Y-78461389D01*
X109831500Y-75469834D01*
X115356000Y-75469834D01*
X115356000Y-81481167D01*
G37*
X115356000Y-81481167D02*
X112607861Y-81481167D01*
X112270182Y-81481060D01*
X111944207Y-81480749D01*
X111632441Y-81480245D01*
X111337387Y-81479562D01*
X111061550Y-81478713D01*
X110807435Y-81477710D01*
X110577544Y-81476566D01*
X110374382Y-81475295D01*
X110200453Y-81473907D01*
X110058261Y-81472418D01*
X109950310Y-81470838D01*
X109879105Y-81469182D01*
X109847149Y-81467462D01*
X109845611Y-81467056D01*
X109843949Y-81444602D01*
X109842342Y-81382214D01*
X109840802Y-81282290D01*
X109839341Y-81147229D01*
X109837969Y-80979430D01*
X109836697Y-80781290D01*
X109835538Y-80555210D01*
X109834502Y-80303587D01*
X109833600Y-80028820D01*
X109832844Y-79733308D01*
X109832246Y-79419450D01*
X109831815Y-79089644D01*
X109831564Y-78746290D01*
X109831500Y-78461389D01*
X109831500Y-75469834D01*
X115356000Y-75469834D01*
X115356000Y-81481167D01*
X150232127Y-60259791D02*
X150259709Y-60262673D01*
X150259709Y-60262673D02*
X150663135Y-60327109D01*
X150663135Y-60327109D02*
X151052337Y-60430011D01*
X151052337Y-60430011D02*
X151425207Y-60569403D01*
X151425207Y-60569403D02*
X151779637Y-60743309D01*
X151779637Y-60743309D02*
X152113518Y-60949751D01*
X152113518Y-60949751D02*
X152424742Y-61186755D01*
X152424742Y-61186755D02*
X152711201Y-61452342D01*
X152711201Y-61452342D02*
X152970787Y-61744537D01*
X152970787Y-61744537D02*
X153201391Y-62061363D01*
X153201391Y-62061363D02*
X153400905Y-62400844D01*
X153400905Y-62400844D02*
X153567221Y-62761002D01*
X153567221Y-62761002D02*
X153698230Y-63139863D01*
X153698230Y-63139863D02*
X153791824Y-63535448D01*
X153791824Y-63535448D02*
X153800050Y-63581672D01*
X153800050Y-63581672D02*
X153848003Y-63983216D01*
X153848003Y-63983216D02*
X153854710Y-64384492D01*
X153854710Y-64384492D02*
X153821163Y-64782423D01*
X153821163Y-64782423D02*
X153748355Y-65173933D01*
X153748355Y-65173933D02*
X153637280Y-65555948D01*
X153637280Y-65555948D02*
X153488930Y-65925391D01*
X153488930Y-65925391D02*
X153304299Y-66279187D01*
X153304299Y-66279187D02*
X153084381Y-66614260D01*
X153084381Y-66614260D02*
X152830167Y-66927535D01*
X152830167Y-66927535D02*
X152663181Y-67102194D01*
X152663181Y-67102194D02*
X152545134Y-67216962D01*
X152545134Y-67216962D02*
X152446857Y-67308504D01*
X152446857Y-67308504D02*
X152359120Y-67384432D01*
X152359120Y-67384432D02*
X152272693Y-67452361D01*
X152272693Y-67452361D02*
X152178345Y-67519903D01*
X152178345Y-67519903D02*
X152066846Y-67594672D01*
X152066846Y-67594672D02*
X152063334Y-67596979D01*
X152063334Y-67596979D02*
X151731762Y-67792640D01*
X151731762Y-67792640D02*
X151383616Y-67956419D01*
X151383616Y-67956419D02*
X151025166Y-68086122D01*
X151025166Y-68086122D02*
X150662680Y-68179555D01*
X150662680Y-68179555D02*
X150302428Y-68234524D01*
X150302428Y-68234524D02*
X150221834Y-68241402D01*
X150221834Y-68241402D02*
X149989320Y-68254260D01*
X149989320Y-68254260D02*
X149766593Y-68258882D01*
X149766593Y-68258882D02*
X149563271Y-68255301D01*
X149563271Y-68255301D02*
X149388970Y-68243549D01*
X149388970Y-68243549D02*
X149343417Y-68238390D01*
X149343417Y-68238390D02*
X149262052Y-68225555D01*
X149262052Y-68225555D02*
X149154586Y-68205078D01*
X149154586Y-68205078D02*
X149035898Y-68179935D01*
X149035898Y-68179935D02*
X148936326Y-68156885D01*
X148936326Y-68156885D02*
X148537422Y-68039218D01*
X148537422Y-68039218D02*
X148157740Y-67884969D01*
X148157740Y-67884969D02*
X147799286Y-67695744D01*
X147799286Y-67695744D02*
X147464066Y-67473146D01*
X147464066Y-67473146D02*
X147154087Y-67218781D01*
X147154087Y-67218781D02*
X146871355Y-66934253D01*
X146871355Y-66934253D02*
X146617875Y-66621167D01*
X146617875Y-66621167D02*
X146395654Y-66281128D01*
X146395654Y-66281128D02*
X146250163Y-66008250D01*
X146250163Y-66008250D02*
X146089942Y-65631646D01*
X146089942Y-65631646D02*
X145970261Y-65248707D01*
X145970261Y-65248707D02*
X145890271Y-64862000D01*
X145890271Y-64862000D02*
X145849126Y-64474091D01*
X145849126Y-64474091D02*
X145845978Y-64087548D01*
X145845978Y-64087548D02*
X145879980Y-63704937D01*
X145879980Y-63704937D02*
X145950284Y-63328826D01*
X145950284Y-63328826D02*
X146056042Y-62961780D01*
X146056042Y-62961780D02*
X146196408Y-62606368D01*
X146196408Y-62606368D02*
X146370534Y-62265155D01*
X146370534Y-62265155D02*
X146577572Y-61940710D01*
X146577572Y-61940710D02*
X146816675Y-61635597D01*
X146816675Y-61635597D02*
X147086996Y-61352386D01*
X147086996Y-61352386D02*
X147387687Y-61093642D01*
X147387687Y-61093642D02*
X147717901Y-60861932D01*
X147717901Y-60861932D02*
X148003494Y-60697368D01*
X148003494Y-60697368D02*
X148348779Y-60538454D01*
X148348779Y-60538454D02*
X148713775Y-60412152D01*
X148713775Y-60412152D02*
X149091545Y-60319798D01*
X149091545Y-60319798D02*
X149475153Y-60262728D01*
X149475153Y-60262728D02*
X149857659Y-60242281D01*
X149857659Y-60242281D02*
X150232127Y-60259791D01*
X150232127Y-60259791D02*
X150232127Y-60259791D01*
G36*
X150232127Y-60259791D02*
G01*
X150259709Y-60262673D01*
X150663135Y-60327109D01*
X151052337Y-60430011D01*
X151425207Y-60569403D01*
X151779637Y-60743309D01*
X152113518Y-60949751D01*
X152424742Y-61186755D01*
X152711201Y-61452342D01*
X152970787Y-61744537D01*
X153201391Y-62061363D01*
X153400905Y-62400844D01*
X153567221Y-62761002D01*
X153698230Y-63139863D01*
X153791824Y-63535448D01*
X153800050Y-63581672D01*
X153848003Y-63983216D01*
X153854710Y-64384492D01*
X153821163Y-64782423D01*
X153748355Y-65173933D01*
X153637280Y-65555948D01*
X153488930Y-65925391D01*
X153304299Y-66279187D01*
X153084381Y-66614260D01*
X152830167Y-66927535D01*
X152663181Y-67102194D01*
X152545134Y-67216962D01*
X152446857Y-67308504D01*
X152359120Y-67384432D01*
X152272693Y-67452361D01*
X152178345Y-67519903D01*
X152066846Y-67594672D01*
X152063334Y-67596979D01*
X151731762Y-67792640D01*
X151383616Y-67956419D01*
X151025166Y-68086122D01*
X150662680Y-68179555D01*
X150302428Y-68234524D01*
X150221834Y-68241402D01*
X149989320Y-68254260D01*
X149766593Y-68258882D01*
X149563271Y-68255301D01*
X149388970Y-68243549D01*
X149343417Y-68238390D01*
X149262052Y-68225555D01*
X149154586Y-68205078D01*
X149035898Y-68179935D01*
X148936326Y-68156885D01*
X148537422Y-68039218D01*
X148157740Y-67884969D01*
X147799286Y-67695744D01*
X147464066Y-67473146D01*
X147154087Y-67218781D01*
X146871355Y-66934253D01*
X146617875Y-66621167D01*
X146395654Y-66281128D01*
X146250163Y-66008250D01*
X146089942Y-65631646D01*
X145970261Y-65248707D01*
X145890271Y-64862000D01*
X145849126Y-64474091D01*
X145845978Y-64087548D01*
X145879980Y-63704937D01*
X145950284Y-63328826D01*
X146056042Y-62961780D01*
X146196408Y-62606368D01*
X146370534Y-62265155D01*
X146577572Y-61940710D01*
X146816675Y-61635597D01*
X147086996Y-61352386D01*
X147387687Y-61093642D01*
X147717901Y-60861932D01*
X148003494Y-60697368D01*
X148348779Y-60538454D01*
X148713775Y-60412152D01*
X149091545Y-60319798D01*
X149475153Y-60262728D01*
X149857659Y-60242281D01*
X150232127Y-60259791D01*
G37*
X150232127Y-60259791D02*
X150259709Y-60262673D01*
X150663135Y-60327109D01*
X151052337Y-60430011D01*
X151425207Y-60569403D01*
X151779637Y-60743309D01*
X152113518Y-60949751D01*
X152424742Y-61186755D01*
X152711201Y-61452342D01*
X152970787Y-61744537D01*
X153201391Y-62061363D01*
X153400905Y-62400844D01*
X153567221Y-62761002D01*
X153698230Y-63139863D01*
X153791824Y-63535448D01*
X153800050Y-63581672D01*
X153848003Y-63983216D01*
X153854710Y-64384492D01*
X153821163Y-64782423D01*
X153748355Y-65173933D01*
X153637280Y-65555948D01*
X153488930Y-65925391D01*
X153304299Y-66279187D01*
X153084381Y-66614260D01*
X152830167Y-66927535D01*
X152663181Y-67102194D01*
X152545134Y-67216962D01*
X152446857Y-67308504D01*
X152359120Y-67384432D01*
X152272693Y-67452361D01*
X152178345Y-67519903D01*
X152066846Y-67594672D01*
X152063334Y-67596979D01*
X151731762Y-67792640D01*
X151383616Y-67956419D01*
X151025166Y-68086122D01*
X150662680Y-68179555D01*
X150302428Y-68234524D01*
X150221834Y-68241402D01*
X149989320Y-68254260D01*
X149766593Y-68258882D01*
X149563271Y-68255301D01*
X149388970Y-68243549D01*
X149343417Y-68238390D01*
X149262052Y-68225555D01*
X149154586Y-68205078D01*
X149035898Y-68179935D01*
X148936326Y-68156885D01*
X148537422Y-68039218D01*
X148157740Y-67884969D01*
X147799286Y-67695744D01*
X147464066Y-67473146D01*
X147154087Y-67218781D01*
X146871355Y-66934253D01*
X146617875Y-66621167D01*
X146395654Y-66281128D01*
X146250163Y-66008250D01*
X146089942Y-65631646D01*
X145970261Y-65248707D01*
X145890271Y-64862000D01*
X145849126Y-64474091D01*
X145845978Y-64087548D01*
X145879980Y-63704937D01*
X145950284Y-63328826D01*
X146056042Y-62961780D01*
X146196408Y-62606368D01*
X146370534Y-62265155D01*
X146577572Y-61940710D01*
X146816675Y-61635597D01*
X147086996Y-61352386D01*
X147387687Y-61093642D01*
X147717901Y-60861932D01*
X148003494Y-60697368D01*
X148348779Y-60538454D01*
X148713775Y-60412152D01*
X149091545Y-60319798D01*
X149475153Y-60262728D01*
X149857659Y-60242281D01*
X150232127Y-60259791D01*
X168532127Y-70959791D02*
X168559709Y-70962673D01*
X168559709Y-70962673D02*
X168963135Y-71027109D01*
X168963135Y-71027109D02*
X169352337Y-71130011D01*
X169352337Y-71130011D02*
X169725207Y-71269403D01*
X169725207Y-71269403D02*
X170079637Y-71443309D01*
X170079637Y-71443309D02*
X170413518Y-71649751D01*
X170413518Y-71649751D02*
X170724742Y-71886755D01*
X170724742Y-71886755D02*
X171011201Y-72152342D01*
X171011201Y-72152342D02*
X171270787Y-72444537D01*
X171270787Y-72444537D02*
X171501391Y-72761363D01*
X171501391Y-72761363D02*
X171700905Y-73100844D01*
X171700905Y-73100844D02*
X171867221Y-73461002D01*
X171867221Y-73461002D02*
X171998230Y-73839863D01*
X171998230Y-73839863D02*
X172091824Y-74235448D01*
X172091824Y-74235448D02*
X172100050Y-74281672D01*
X172100050Y-74281672D02*
X172148003Y-74683216D01*
X172148003Y-74683216D02*
X172154710Y-75084492D01*
X172154710Y-75084492D02*
X172121163Y-75482423D01*
X172121163Y-75482423D02*
X172048355Y-75873933D01*
X172048355Y-75873933D02*
X171937280Y-76255948D01*
X171937280Y-76255948D02*
X171788930Y-76625391D01*
X171788930Y-76625391D02*
X171604299Y-76979187D01*
X171604299Y-76979187D02*
X171384381Y-77314260D01*
X171384381Y-77314260D02*
X171130167Y-77627535D01*
X171130167Y-77627535D02*
X170963181Y-77802194D01*
X170963181Y-77802194D02*
X170845134Y-77916962D01*
X170845134Y-77916962D02*
X170746857Y-78008504D01*
X170746857Y-78008504D02*
X170659120Y-78084432D01*
X170659120Y-78084432D02*
X170572693Y-78152361D01*
X170572693Y-78152361D02*
X170478345Y-78219903D01*
X170478345Y-78219903D02*
X170366846Y-78294672D01*
X170366846Y-78294672D02*
X170363334Y-78296979D01*
X170363334Y-78296979D02*
X170031762Y-78492640D01*
X170031762Y-78492640D02*
X169683616Y-78656419D01*
X169683616Y-78656419D02*
X169325166Y-78786122D01*
X169325166Y-78786122D02*
X168962680Y-78879555D01*
X168962680Y-78879555D02*
X168602428Y-78934524D01*
X168602428Y-78934524D02*
X168521834Y-78941402D01*
X168521834Y-78941402D02*
X168289320Y-78954260D01*
X168289320Y-78954260D02*
X168066593Y-78958882D01*
X168066593Y-78958882D02*
X167863271Y-78955301D01*
X167863271Y-78955301D02*
X167688970Y-78943549D01*
X167688970Y-78943549D02*
X167643417Y-78938390D01*
X167643417Y-78938390D02*
X167562052Y-78925555D01*
X167562052Y-78925555D02*
X167454586Y-78905078D01*
X167454586Y-78905078D02*
X167335898Y-78879935D01*
X167335898Y-78879935D02*
X167236326Y-78856885D01*
X167236326Y-78856885D02*
X166837422Y-78739218D01*
X166837422Y-78739218D02*
X166457740Y-78584969D01*
X166457740Y-78584969D02*
X166099286Y-78395744D01*
X166099286Y-78395744D02*
X165764066Y-78173146D01*
X165764066Y-78173146D02*
X165454087Y-77918781D01*
X165454087Y-77918781D02*
X165171355Y-77634253D01*
X165171355Y-77634253D02*
X164917875Y-77321167D01*
X164917875Y-77321167D02*
X164695654Y-76981128D01*
X164695654Y-76981128D02*
X164550163Y-76708250D01*
X164550163Y-76708250D02*
X164389942Y-76331646D01*
X164389942Y-76331646D02*
X164270261Y-75948707D01*
X164270261Y-75948707D02*
X164190271Y-75562000D01*
X164190271Y-75562000D02*
X164149126Y-75174091D01*
X164149126Y-75174091D02*
X164145978Y-74787548D01*
X164145978Y-74787548D02*
X164179980Y-74404937D01*
X164179980Y-74404937D02*
X164250284Y-74028826D01*
X164250284Y-74028826D02*
X164356042Y-73661780D01*
X164356042Y-73661780D02*
X164496408Y-73306368D01*
X164496408Y-73306368D02*
X164670534Y-72965155D01*
X164670534Y-72965155D02*
X164877572Y-72640710D01*
X164877572Y-72640710D02*
X165116675Y-72335597D01*
X165116675Y-72335597D02*
X165386996Y-72052386D01*
X165386996Y-72052386D02*
X165687687Y-71793642D01*
X165687687Y-71793642D02*
X166017901Y-71561932D01*
X166017901Y-71561932D02*
X166303494Y-71397368D01*
X166303494Y-71397368D02*
X166648779Y-71238454D01*
X166648779Y-71238454D02*
X167013775Y-71112152D01*
X167013775Y-71112152D02*
X167391545Y-71019798D01*
X167391545Y-71019798D02*
X167775153Y-70962728D01*
X167775153Y-70962728D02*
X168157659Y-70942281D01*
X168157659Y-70942281D02*
X168532127Y-70959791D01*
X168532127Y-70959791D02*
X168532127Y-70959791D01*
G36*
X168532127Y-70959791D02*
G01*
X168559709Y-70962673D01*
X168963135Y-71027109D01*
X169352337Y-71130011D01*
X169725207Y-71269403D01*
X170079637Y-71443309D01*
X170413518Y-71649751D01*
X170724742Y-71886755D01*
X171011201Y-72152342D01*
X171270787Y-72444537D01*
X171501391Y-72761363D01*
X171700905Y-73100844D01*
X171867221Y-73461002D01*
X171998230Y-73839863D01*
X172091824Y-74235448D01*
X172100050Y-74281672D01*
X172148003Y-74683216D01*
X172154710Y-75084492D01*
X172121163Y-75482423D01*
X172048355Y-75873933D01*
X171937280Y-76255948D01*
X171788930Y-76625391D01*
X171604299Y-76979187D01*
X171384381Y-77314260D01*
X171130167Y-77627535D01*
X170963181Y-77802194D01*
X170845134Y-77916962D01*
X170746857Y-78008504D01*
X170659120Y-78084432D01*
X170572693Y-78152361D01*
X170478345Y-78219903D01*
X170366846Y-78294672D01*
X170363334Y-78296979D01*
X170031762Y-78492640D01*
X169683616Y-78656419D01*
X169325166Y-78786122D01*
X168962680Y-78879555D01*
X168602428Y-78934524D01*
X168521834Y-78941402D01*
X168289320Y-78954260D01*
X168066593Y-78958882D01*
X167863271Y-78955301D01*
X167688970Y-78943549D01*
X167643417Y-78938390D01*
X167562052Y-78925555D01*
X167454586Y-78905078D01*
X167335898Y-78879935D01*
X167236326Y-78856885D01*
X166837422Y-78739218D01*
X166457740Y-78584969D01*
X166099286Y-78395744D01*
X165764066Y-78173146D01*
X165454087Y-77918781D01*
X165171355Y-77634253D01*
X164917875Y-77321167D01*
X164695654Y-76981128D01*
X164550163Y-76708250D01*
X164389942Y-76331646D01*
X164270261Y-75948707D01*
X164190271Y-75562000D01*
X164149126Y-75174091D01*
X164145978Y-74787548D01*
X164179980Y-74404937D01*
X164250284Y-74028826D01*
X164356042Y-73661780D01*
X164496408Y-73306368D01*
X164670534Y-72965155D01*
X164877572Y-72640710D01*
X165116675Y-72335597D01*
X165386996Y-72052386D01*
X165687687Y-71793642D01*
X166017901Y-71561932D01*
X166303494Y-71397368D01*
X166648779Y-71238454D01*
X167013775Y-71112152D01*
X167391545Y-71019798D01*
X167775153Y-70962728D01*
X168157659Y-70942281D01*
X168532127Y-70959791D01*
G37*
X168532127Y-70959791D02*
X168559709Y-70962673D01*
X168963135Y-71027109D01*
X169352337Y-71130011D01*
X169725207Y-71269403D01*
X170079637Y-71443309D01*
X170413518Y-71649751D01*
X170724742Y-71886755D01*
X171011201Y-72152342D01*
X171270787Y-72444537D01*
X171501391Y-72761363D01*
X171700905Y-73100844D01*
X171867221Y-73461002D01*
X171998230Y-73839863D01*
X172091824Y-74235448D01*
X172100050Y-74281672D01*
X172148003Y-74683216D01*
X172154710Y-75084492D01*
X172121163Y-75482423D01*
X172048355Y-75873933D01*
X171937280Y-76255948D01*
X171788930Y-76625391D01*
X171604299Y-76979187D01*
X171384381Y-77314260D01*
X171130167Y-77627535D01*
X170963181Y-77802194D01*
X170845134Y-77916962D01*
X170746857Y-78008504D01*
X170659120Y-78084432D01*
X170572693Y-78152361D01*
X170478345Y-78219903D01*
X170366846Y-78294672D01*
X170363334Y-78296979D01*
X170031762Y-78492640D01*
X169683616Y-78656419D01*
X169325166Y-78786122D01*
X168962680Y-78879555D01*
X168602428Y-78934524D01*
X168521834Y-78941402D01*
X168289320Y-78954260D01*
X168066593Y-78958882D01*
X167863271Y-78955301D01*
X167688970Y-78943549D01*
X167643417Y-78938390D01*
X167562052Y-78925555D01*
X167454586Y-78905078D01*
X167335898Y-78879935D01*
X167236326Y-78856885D01*
X166837422Y-78739218D01*
X166457740Y-78584969D01*
X166099286Y-78395744D01*
X165764066Y-78173146D01*
X165454087Y-77918781D01*
X165171355Y-77634253D01*
X164917875Y-77321167D01*
X164695654Y-76981128D01*
X164550163Y-76708250D01*
X164389942Y-76331646D01*
X164270261Y-75948707D01*
X164190271Y-75562000D01*
X164149126Y-75174091D01*
X164145978Y-74787548D01*
X164179980Y-74404937D01*
X164250284Y-74028826D01*
X164356042Y-73661780D01*
X164496408Y-73306368D01*
X164670534Y-72965155D01*
X164877572Y-72640710D01*
X165116675Y-72335597D01*
X165386996Y-72052386D01*
X165687687Y-71793642D01*
X166017901Y-71561932D01*
X166303494Y-71397368D01*
X166648779Y-71238454D01*
X167013775Y-71112152D01*
X167391545Y-71019798D01*
X167775153Y-70962728D01*
X168157659Y-70942281D01*
X168532127Y-70959791D01*
D16*
X153850000Y-74100000D03*
D17*
X153850000Y-82600000D03*
D16*
X138650000Y-81800000D03*
D17*
X138650000Y-90300000D03*
D18*
X160802886Y-61650000D03*
X164700000Y-63900000D03*
D19*
X160244040Y-59017949D03*
X167258846Y-63067949D03*
D20*
X82350000Y-105400000D03*
D21*
X82350000Y-111400000D03*
D20*
X90300000Y-97450000D03*
D21*
X90300000Y-103450000D03*
D20*
X98250000Y-105400000D03*
D21*
X98250000Y-111400000D03*
D20*
X90300000Y-113350000D03*
D21*
X90300000Y-119350000D03*
D22*
X63150000Y-75200000D03*
X63150000Y-77100000D03*
D23*
X71549007Y-75652001D03*
D24*
X65770011Y-72615390D03*
D25*
X71131628Y-83616071D03*
D26*
X64368635Y-83687221D03*
D25*
X71678538Y-73180393D03*
D23*
X71261159Y-81144463D03*
D26*
X78441531Y-73109243D03*
D24*
X77040155Y-84181074D03*
D27*
X73228104Y-67879226D03*
X71959844Y-67812759D03*
X70691585Y-67746292D03*
X60886077Y-76575211D03*
X60819610Y-77843471D03*
X60753143Y-79111730D03*
D25*
X68427018Y-87454784D03*
X70923592Y-87585624D03*
X73420166Y-87716464D03*
X80461635Y-81376297D03*
X80592475Y-78879723D03*
X80723315Y-76383149D03*
D28*
X97050000Y-74300000D03*
X95150000Y-74300000D03*
X93500000Y-71000000D03*
X91600000Y-71000000D03*
X93550000Y-68250000D03*
X91650000Y-68250000D03*
X135500000Y-65600000D03*
X137400000Y-65600000D03*
X127550000Y-74000000D03*
X129450000Y-74000000D03*
D29*
X113200000Y-75350000D03*
D30*
X112000000Y-81550000D03*
D16*
X149850000Y-60000000D03*
D17*
X149850000Y-68500000D03*
D31*
X119500000Y-52500000D03*
D32*
X129120000Y-56150000D03*
D25*
X126580000Y-56150000D03*
X124040000Y-56150000D03*
X121500000Y-56150000D03*
X118960000Y-56150000D03*
X116420000Y-56150000D03*
X113880000Y-56150000D03*
X111340000Y-56150000D03*
X108800000Y-56150000D03*
X106260000Y-56150000D03*
X103720000Y-56150000D03*
X101180000Y-56150000D03*
X98640000Y-56150000D03*
X96100000Y-56150000D03*
X96100000Y-61230000D03*
X96100000Y-63770000D03*
X96100000Y-71390000D03*
X98640000Y-71390000D03*
X101180000Y-71390000D03*
X103720000Y-71390000D03*
X106260000Y-71390000D03*
X108800000Y-71390000D03*
X111340000Y-71390000D03*
X113880000Y-71390000D03*
X116420000Y-71390000D03*
X118960000Y-71390000D03*
X121500000Y-71390000D03*
X124040000Y-71390000D03*
X126580000Y-71390000D03*
X129120000Y-71390000D03*
X121500000Y-68850000D03*
X127850000Y-64000000D03*
X127850000Y-61870000D03*
D33*
X75600000Y-98400000D03*
D23*
X57600000Y-87900000D03*
D34*
X106000000Y-78400000D03*
X119200000Y-78400000D03*
D35*
X159600000Y-68400000D03*
D23*
X167600000Y-87900000D03*
D31*
X112400000Y-52900000D03*
D36*
X60616622Y-67616621D03*
D16*
X168150000Y-70700000D03*
D17*
X168150000Y-79200000D03*
D37*
X172400000Y-103400000D03*
D36*
X82183378Y-89183378D03*
D38*
X110000000Y-53600000D03*
X108200000Y-53600000D03*
D28*
X121550000Y-75000000D03*
X123450000Y-75000000D03*
D39*
X93150000Y-77500000D03*
X91500000Y-77500000D03*
X87150000Y-69500000D03*
X85500000Y-69500000D03*
D28*
X93450000Y-56150000D03*
X91550000Y-56150000D03*
X93450000Y-54500000D03*
X91550000Y-54500000D03*
D40*
X91400000Y-61500000D03*
X93300000Y-61500000D03*
X92350000Y-58500000D03*
D22*
X93300000Y-63900000D03*
X93300000Y-65800000D03*
X173750000Y-98950000D03*
X173750000Y-97050000D03*
D28*
X138650000Y-67400000D03*
X136750000Y-67400000D03*
D31*
X54050000Y-89800000D03*
D41*
X54050000Y-87260000D03*
D31*
X165400000Y-92400000D03*
D41*
X167940000Y-92400000D03*
D42*
X133250000Y-74900000D03*
X141950000Y-74900000D03*
D43*
X140000000Y-63400000D03*
X137600000Y-63400000D03*
X135200000Y-63400000D03*
D42*
X91950000Y-74900000D03*
X83250000Y-74900000D03*
D43*
X90000000Y-63400000D03*
X87600000Y-63400000D03*
X85200000Y-63400000D03*
D44*
X169100000Y-105900000D03*
D45*
X167100000Y-105900000D03*
X165100000Y-105900000D03*
X163100000Y-105900000D03*
D46*
X105600000Y-52900000D03*
D47*
X103600000Y-52900000D03*
X101600000Y-52900000D03*
X99600000Y-52900000D03*
X97600000Y-52900000D03*
X95600000Y-52900000D03*
D48*
X173700000Y-101100000D03*
D49*
X171000000Y-100100000D03*
X171000000Y-95100000D03*
D48*
X173700000Y-94100000D03*
M02*
